M48
INCH,TZ
T1C0.013
T2C0.040
T3C0.120
%
T1
X026358Y-041339
X026358Y-042421
X034055Y-043937
X034095Y-043622
X034252Y-043819
X034252Y-044016
X034409Y-043622
X034449Y-043937
X034803Y-041929
X035950Y-043926
X036076Y-042983
X036950Y-043926
X037402Y-049744
X042894Y-041339
X042894Y-042421
T2
X026969Y-044744
X026969Y-045744
X026969Y-046744
X026969Y-047744
X026969Y-048744
X026969Y-049744
X041535Y-044744
X041535Y-045744
X041535Y-046744
X041535Y-047744
X041535Y-048744
X041535Y-049744
T3
X025984Y-038976
X025984Y-055512
X042520Y-038976
X042520Y-055512
M30
