G04 (created by PCBNEW (2012-10-05 BZR 3752)-testing) date Mon 12 Nov 2012 11:41:00 PM CET*
%MOIN*%
G04 Gerber Fmt 3.4, Leading zero omitted, Abs format*
%FSLAX34Y34*%
G01*
G70*
G90*
G04 APERTURE LIST*
%ADD10C,0.006*%
%ADD11C,0.012*%
%ADD12C,0.008*%
%ADD13C,0.0001*%
%ADD14C,0.075*%
%ADD15C,0.16*%
%ADD16C,0.025*%
%ADD17C,0.035*%
G04 APERTURE END LIST*
G54D10*
G54D11*
X38418Y-55751D02*
X38305Y-56145D01*
X38192Y-55863D01*
X38080Y-56145D01*
X37967Y-55751D01*
X37799Y-55751D02*
X37686Y-56145D01*
X37573Y-55863D01*
X37461Y-56145D01*
X37348Y-55751D01*
X37180Y-55751D02*
X37067Y-56145D01*
X36954Y-55863D01*
X36842Y-56145D01*
X36729Y-55751D01*
X36504Y-56088D02*
X36476Y-56117D01*
X36504Y-56145D01*
X36532Y-56117D01*
X36504Y-56088D01*
X36504Y-56145D01*
X36223Y-56145D02*
X36223Y-55554D01*
X36167Y-55920D02*
X35998Y-56145D01*
X35998Y-55751D02*
X36223Y-55976D01*
X35745Y-56145D02*
X35745Y-55751D01*
X35745Y-55554D02*
X35773Y-55582D01*
X35745Y-55610D01*
X35717Y-55582D01*
X35745Y-55554D01*
X35745Y-55610D01*
X35211Y-56117D02*
X35267Y-56145D01*
X35380Y-56145D01*
X35436Y-56117D01*
X35464Y-56088D01*
X35492Y-56032D01*
X35492Y-55863D01*
X35464Y-55807D01*
X35436Y-55779D01*
X35380Y-55751D01*
X35267Y-55751D01*
X35211Y-55779D01*
X34704Y-56145D02*
X34704Y-55835D01*
X34732Y-55779D01*
X34788Y-55751D01*
X34901Y-55751D01*
X34957Y-55779D01*
X34704Y-56117D02*
X34760Y-56145D01*
X34901Y-56145D01*
X34957Y-56117D01*
X34985Y-56060D01*
X34985Y-56004D01*
X34957Y-55948D01*
X34901Y-55920D01*
X34760Y-55920D01*
X34704Y-55891D01*
X34169Y-56145D02*
X34169Y-55554D01*
X34169Y-56117D02*
X34225Y-56145D01*
X34338Y-56145D01*
X34394Y-56117D01*
X34422Y-56088D01*
X34450Y-56032D01*
X34450Y-55863D01*
X34422Y-55807D01*
X34394Y-55779D01*
X34338Y-55751D01*
X34225Y-55751D01*
X34169Y-55779D01*
X33887Y-55920D02*
X33437Y-55920D01*
X33155Y-55751D02*
X33155Y-56342D01*
X33155Y-55779D02*
X33099Y-55751D01*
X32986Y-55751D01*
X32930Y-55779D01*
X32902Y-55807D01*
X32874Y-55863D01*
X32874Y-56032D01*
X32902Y-56088D01*
X32930Y-56117D01*
X32986Y-56145D01*
X33099Y-56145D01*
X33155Y-56117D01*
X32367Y-56117D02*
X32423Y-56145D01*
X32536Y-56145D01*
X32592Y-56117D01*
X32620Y-56088D01*
X32648Y-56032D01*
X32648Y-55863D01*
X32620Y-55807D01*
X32592Y-55779D01*
X32536Y-55751D01*
X32423Y-55751D01*
X32367Y-55779D01*
X32113Y-56145D02*
X32113Y-55554D01*
X32113Y-55779D02*
X32057Y-55751D01*
X31944Y-55751D01*
X31888Y-55779D01*
X31860Y-55807D01*
X31832Y-55863D01*
X31832Y-56032D01*
X31860Y-56088D01*
X31888Y-56117D01*
X31944Y-56145D01*
X32057Y-56145D01*
X32113Y-56117D01*
X31578Y-56088D02*
X31550Y-56117D01*
X31578Y-56145D01*
X31606Y-56117D01*
X31578Y-56088D01*
X31578Y-56145D01*
X31213Y-56145D02*
X31269Y-56117D01*
X31297Y-56088D01*
X31325Y-56032D01*
X31325Y-55863D01*
X31297Y-55807D01*
X31269Y-55779D01*
X31213Y-55751D01*
X31128Y-55751D01*
X31072Y-55779D01*
X31044Y-55807D01*
X31016Y-55863D01*
X31016Y-56032D01*
X31044Y-56088D01*
X31072Y-56117D01*
X31128Y-56145D01*
X31213Y-56145D01*
X30762Y-56145D02*
X30762Y-55751D01*
X30762Y-55863D02*
X30734Y-55807D01*
X30706Y-55779D01*
X30650Y-55751D01*
X30593Y-55751D01*
X30143Y-55751D02*
X30143Y-56229D01*
X30171Y-56285D01*
X30199Y-56314D01*
X30256Y-56342D01*
X30340Y-56342D01*
X30396Y-56314D01*
X30143Y-56117D02*
X30199Y-56145D01*
X30312Y-56145D01*
X30368Y-56117D01*
X30396Y-56088D01*
X30424Y-56032D01*
X30424Y-55863D01*
X30396Y-55807D01*
X30368Y-55779D01*
X30312Y-55751D01*
X30199Y-55751D01*
X30143Y-55779D01*
G54D12*
X43304Y-44531D02*
X43342Y-44512D01*
X43399Y-44512D01*
X43457Y-44531D01*
X43495Y-44569D01*
X43514Y-44607D01*
X43533Y-44683D01*
X43533Y-44740D01*
X43514Y-44817D01*
X43495Y-44855D01*
X43457Y-44893D01*
X43399Y-44912D01*
X43361Y-44912D01*
X43304Y-44893D01*
X43285Y-44874D01*
X43285Y-44740D01*
X43361Y-44740D01*
X43114Y-44912D02*
X43114Y-44512D01*
X42885Y-44912D01*
X42885Y-44512D01*
X42695Y-44912D02*
X42695Y-44512D01*
X42600Y-44512D01*
X42542Y-44531D01*
X42504Y-44569D01*
X42485Y-44607D01*
X42466Y-44683D01*
X42466Y-44740D01*
X42485Y-44817D01*
X42504Y-44855D01*
X42542Y-44893D01*
X42600Y-44912D01*
X42695Y-44912D01*
X43533Y-46512D02*
X43400Y-46912D01*
X43266Y-46512D01*
X42904Y-46874D02*
X42923Y-46893D01*
X42980Y-46912D01*
X43018Y-46912D01*
X43076Y-46893D01*
X43114Y-46855D01*
X43133Y-46817D01*
X43152Y-46740D01*
X43152Y-46683D01*
X43133Y-46607D01*
X43114Y-46569D01*
X43076Y-46531D01*
X43018Y-46512D01*
X42980Y-46512D01*
X42923Y-46531D01*
X42904Y-46550D01*
X42504Y-46874D02*
X42523Y-46893D01*
X42580Y-46912D01*
X42618Y-46912D01*
X42676Y-46893D01*
X42714Y-46855D01*
X42733Y-46817D01*
X42752Y-46740D01*
X42752Y-46683D01*
X42733Y-46607D01*
X42714Y-46569D01*
X42676Y-46531D01*
X42618Y-46512D01*
X42580Y-46512D01*
X42523Y-46531D01*
X42504Y-46550D01*
X43304Y-45531D02*
X43342Y-45512D01*
X43399Y-45512D01*
X43457Y-45531D01*
X43495Y-45569D01*
X43514Y-45607D01*
X43533Y-45683D01*
X43533Y-45740D01*
X43514Y-45817D01*
X43495Y-45855D01*
X43457Y-45893D01*
X43399Y-45912D01*
X43361Y-45912D01*
X43304Y-45893D01*
X43285Y-45874D01*
X43285Y-45740D01*
X43361Y-45740D01*
X43114Y-45912D02*
X43114Y-45512D01*
X42885Y-45912D01*
X42885Y-45512D01*
X42695Y-45912D02*
X42695Y-45512D01*
X42600Y-45512D01*
X42542Y-45531D01*
X42504Y-45569D01*
X42485Y-45607D01*
X42466Y-45683D01*
X42466Y-45740D01*
X42485Y-45817D01*
X42504Y-45855D01*
X42542Y-45893D01*
X42600Y-45912D01*
X42695Y-45912D01*
X43533Y-47512D02*
X43400Y-47912D01*
X43266Y-47512D01*
X42904Y-47874D02*
X42923Y-47893D01*
X42980Y-47912D01*
X43018Y-47912D01*
X43076Y-47893D01*
X43114Y-47855D01*
X43133Y-47817D01*
X43152Y-47740D01*
X43152Y-47683D01*
X43133Y-47607D01*
X43114Y-47569D01*
X43076Y-47531D01*
X43018Y-47512D01*
X42980Y-47512D01*
X42923Y-47531D01*
X42904Y-47550D01*
X42504Y-47874D02*
X42523Y-47893D01*
X42580Y-47912D01*
X42618Y-47912D01*
X42676Y-47893D01*
X42714Y-47855D01*
X42733Y-47817D01*
X42752Y-47740D01*
X42752Y-47683D01*
X42733Y-47607D01*
X42714Y-47569D01*
X42676Y-47531D01*
X42618Y-47512D01*
X42580Y-47512D01*
X42523Y-47531D01*
X42504Y-47550D01*
X43428Y-49912D02*
X43428Y-49512D01*
X43333Y-49512D01*
X43275Y-49531D01*
X43237Y-49569D01*
X43218Y-49607D01*
X43199Y-49683D01*
X43199Y-49740D01*
X43218Y-49817D01*
X43237Y-49855D01*
X43275Y-49893D01*
X43333Y-49912D01*
X43428Y-49912D01*
X43028Y-49912D02*
X43028Y-49512D01*
X42838Y-49912D02*
X42838Y-49512D01*
X42704Y-49798D01*
X42571Y-49512D01*
X42571Y-49912D01*
X43314Y-48912D02*
X43314Y-48512D01*
X43085Y-48912D01*
X43085Y-48512D01*
X42666Y-48874D02*
X42685Y-48893D01*
X42742Y-48912D01*
X42780Y-48912D01*
X42838Y-48893D01*
X42876Y-48855D01*
X42895Y-48817D01*
X42914Y-48740D01*
X42914Y-48683D01*
X42895Y-48607D01*
X42876Y-48569D01*
X42838Y-48531D01*
X42780Y-48512D01*
X42742Y-48512D01*
X42685Y-48531D01*
X42666Y-48550D01*
X36766Y-48975D02*
X36633Y-49375D01*
X36499Y-48975D01*
X36137Y-49337D02*
X36156Y-49356D01*
X36213Y-49375D01*
X36251Y-49375D01*
X36309Y-49356D01*
X36347Y-49318D01*
X36366Y-49280D01*
X36385Y-49203D01*
X36385Y-49146D01*
X36366Y-49070D01*
X36347Y-49032D01*
X36309Y-48994D01*
X36251Y-48975D01*
X36213Y-48975D01*
X36156Y-48994D01*
X36137Y-49013D01*
X35737Y-49337D02*
X35756Y-49356D01*
X35813Y-49375D01*
X35851Y-49375D01*
X35909Y-49356D01*
X35947Y-49318D01*
X35966Y-49280D01*
X35985Y-49203D01*
X35985Y-49146D01*
X35966Y-49070D01*
X35947Y-49032D01*
X35909Y-48994D01*
X35851Y-48975D01*
X35813Y-48975D01*
X35756Y-48994D01*
X35737Y-49013D01*
X35566Y-49337D02*
X35547Y-49356D01*
X35566Y-49375D01*
X35585Y-49356D01*
X35566Y-49337D01*
X35566Y-49375D01*
X35566Y-49127D02*
X35547Y-49146D01*
X35566Y-49165D01*
X35585Y-49146D01*
X35566Y-49127D01*
X35566Y-49165D01*
X34861Y-49375D02*
X35090Y-49375D01*
X34976Y-49375D02*
X34976Y-48975D01*
X35014Y-49032D01*
X35052Y-49070D01*
X35090Y-49089D01*
X34633Y-49146D02*
X34671Y-49127D01*
X34690Y-49108D01*
X34709Y-49070D01*
X34709Y-49051D01*
X34690Y-49013D01*
X34671Y-48994D01*
X34633Y-48975D01*
X34556Y-48975D01*
X34518Y-48994D01*
X34499Y-49013D01*
X34480Y-49051D01*
X34480Y-49070D01*
X34499Y-49108D01*
X34518Y-49127D01*
X34556Y-49146D01*
X34633Y-49146D01*
X34671Y-49165D01*
X34690Y-49184D01*
X34709Y-49223D01*
X34709Y-49299D01*
X34690Y-49337D01*
X34671Y-49356D01*
X34633Y-49375D01*
X34556Y-49375D01*
X34518Y-49356D01*
X34499Y-49337D01*
X34480Y-49299D01*
X34480Y-49223D01*
X34499Y-49184D01*
X34518Y-49165D01*
X34556Y-49146D01*
X34309Y-49223D02*
X34004Y-49223D01*
X33833Y-49013D02*
X33814Y-48994D01*
X33776Y-48975D01*
X33680Y-48975D01*
X33642Y-48994D01*
X33623Y-49013D01*
X33604Y-49051D01*
X33604Y-49089D01*
X33623Y-49146D01*
X33852Y-49375D01*
X33604Y-49375D01*
X33261Y-49108D02*
X33261Y-49375D01*
X33357Y-48956D02*
X33452Y-49242D01*
X33204Y-49242D01*
X33109Y-48975D02*
X32976Y-49375D01*
X32842Y-48975D01*
X32404Y-49375D02*
X32404Y-48975D01*
X32309Y-48975D01*
X32251Y-48994D01*
X32213Y-49032D01*
X32194Y-49070D01*
X32175Y-49146D01*
X32175Y-49203D01*
X32194Y-49280D01*
X32213Y-49318D01*
X32251Y-49356D01*
X32309Y-49375D01*
X32404Y-49375D01*
X31775Y-49337D02*
X31794Y-49356D01*
X31851Y-49375D01*
X31889Y-49375D01*
X31947Y-49356D01*
X31985Y-49318D01*
X32004Y-49280D01*
X32023Y-49203D01*
X32023Y-49146D01*
X32004Y-49070D01*
X31985Y-49032D01*
X31947Y-48994D01*
X31889Y-48975D01*
X31851Y-48975D01*
X31794Y-48994D01*
X31775Y-49013D01*
X36099Y-50015D02*
X36099Y-49615D01*
X36004Y-49615D01*
X35946Y-49634D01*
X35908Y-49672D01*
X35889Y-49710D01*
X35870Y-49786D01*
X35870Y-49843D01*
X35889Y-49920D01*
X35908Y-49958D01*
X35946Y-49996D01*
X36004Y-50015D01*
X36099Y-50015D01*
X35699Y-50015D02*
X35699Y-49615D01*
X35509Y-50015D02*
X35509Y-49615D01*
X35375Y-49901D01*
X35242Y-49615D01*
X35242Y-50015D01*
X35052Y-49977D02*
X35033Y-49996D01*
X35052Y-50015D01*
X35071Y-49996D01*
X35052Y-49977D01*
X35052Y-50015D01*
X35052Y-49767D02*
X35033Y-49786D01*
X35052Y-49805D01*
X35071Y-49786D01*
X35052Y-49767D01*
X35052Y-49805D01*
X34366Y-49615D02*
X34557Y-49615D01*
X34576Y-49805D01*
X34557Y-49786D01*
X34519Y-49767D01*
X34423Y-49767D01*
X34385Y-49786D01*
X34366Y-49805D01*
X34347Y-49843D01*
X34347Y-49939D01*
X34366Y-49977D01*
X34385Y-49996D01*
X34423Y-50015D01*
X34519Y-50015D01*
X34557Y-49996D01*
X34576Y-49977D01*
X34233Y-49615D02*
X34100Y-50015D01*
X33966Y-49615D01*
X33528Y-50015D02*
X33528Y-49615D01*
X33375Y-49615D01*
X33337Y-49634D01*
X33318Y-49653D01*
X33299Y-49691D01*
X33299Y-49748D01*
X33318Y-49786D01*
X33337Y-49805D01*
X33375Y-49824D01*
X33528Y-49824D01*
X33166Y-49615D02*
X33071Y-50015D01*
X32994Y-49729D01*
X32918Y-50015D01*
X32823Y-49615D01*
X32671Y-50015D02*
X32671Y-49615D01*
X32537Y-49901D01*
X32404Y-49615D01*
X32404Y-50015D01*
X37358Y-50636D02*
X37320Y-50655D01*
X37244Y-50655D01*
X37205Y-50636D01*
X37186Y-50598D01*
X37186Y-50579D01*
X37205Y-50541D01*
X37244Y-50522D01*
X37301Y-50522D01*
X37339Y-50503D01*
X37358Y-50464D01*
X37358Y-50445D01*
X37339Y-50407D01*
X37301Y-50388D01*
X37244Y-50388D01*
X37205Y-50407D01*
X36958Y-50655D02*
X36996Y-50636D01*
X37015Y-50617D01*
X37034Y-50579D01*
X37034Y-50464D01*
X37015Y-50426D01*
X36996Y-50407D01*
X36958Y-50388D01*
X36900Y-50388D01*
X36862Y-50407D01*
X36843Y-50426D01*
X36824Y-50464D01*
X36824Y-50579D01*
X36843Y-50617D01*
X36862Y-50636D01*
X36900Y-50655D01*
X36958Y-50655D01*
X36710Y-50388D02*
X36558Y-50388D01*
X36653Y-50655D02*
X36653Y-50312D01*
X36634Y-50274D01*
X36596Y-50255D01*
X36558Y-50255D01*
X36481Y-50388D02*
X36329Y-50388D01*
X36424Y-50255D02*
X36424Y-50598D01*
X36405Y-50636D01*
X36367Y-50655D01*
X36329Y-50655D01*
X36195Y-50503D02*
X35890Y-50503D01*
X35719Y-50636D02*
X35681Y-50655D01*
X35605Y-50655D01*
X35566Y-50636D01*
X35547Y-50598D01*
X35547Y-50579D01*
X35566Y-50541D01*
X35605Y-50522D01*
X35662Y-50522D01*
X35700Y-50503D01*
X35719Y-50464D01*
X35719Y-50445D01*
X35700Y-50407D01*
X35662Y-50388D01*
X35605Y-50388D01*
X35566Y-50407D01*
X35433Y-50388D02*
X35281Y-50388D01*
X35376Y-50255D02*
X35376Y-50598D01*
X35357Y-50636D01*
X35319Y-50655D01*
X35281Y-50655D01*
X34975Y-50655D02*
X34975Y-50445D01*
X34994Y-50407D01*
X35032Y-50388D01*
X35109Y-50388D01*
X35147Y-50407D01*
X34975Y-50636D02*
X35013Y-50655D01*
X35109Y-50655D01*
X35147Y-50636D01*
X35166Y-50598D01*
X35166Y-50560D01*
X35147Y-50522D01*
X35109Y-50503D01*
X35013Y-50503D01*
X34975Y-50483D01*
X34785Y-50655D02*
X34785Y-50388D01*
X34785Y-50464D02*
X34766Y-50426D01*
X34747Y-50407D01*
X34709Y-50388D01*
X34670Y-50388D01*
X34594Y-50388D02*
X34442Y-50388D01*
X34537Y-50255D02*
X34537Y-50598D01*
X34518Y-50636D01*
X34480Y-50655D01*
X34442Y-50655D01*
X34308Y-50617D02*
X34289Y-50636D01*
X34308Y-50655D01*
X34327Y-50636D01*
X34308Y-50617D01*
X34308Y-50655D01*
X34308Y-50407D02*
X34289Y-50426D01*
X34308Y-50445D01*
X34327Y-50426D01*
X34308Y-50407D01*
X34308Y-50445D01*
X33603Y-50655D02*
X33832Y-50655D01*
X33718Y-50655D02*
X33718Y-50255D01*
X33756Y-50312D01*
X33794Y-50350D01*
X33832Y-50369D01*
X33432Y-50617D02*
X33413Y-50636D01*
X33432Y-50655D01*
X33451Y-50636D01*
X33432Y-50617D01*
X33432Y-50655D01*
X33261Y-50293D02*
X33242Y-50274D01*
X33204Y-50255D01*
X33108Y-50255D01*
X33070Y-50274D01*
X33051Y-50293D01*
X33032Y-50331D01*
X33032Y-50369D01*
X33051Y-50426D01*
X33280Y-50655D01*
X33032Y-50655D01*
X32670Y-50255D02*
X32861Y-50255D01*
X32880Y-50445D01*
X32861Y-50426D01*
X32823Y-50407D01*
X32727Y-50407D01*
X32689Y-50426D01*
X32670Y-50445D01*
X32651Y-50483D01*
X32651Y-50579D01*
X32670Y-50617D01*
X32689Y-50636D01*
X32727Y-50655D01*
X32823Y-50655D01*
X32861Y-50636D01*
X32880Y-50617D01*
X32480Y-50388D02*
X32480Y-50788D01*
X32289Y-50598D02*
X32270Y-50636D01*
X32232Y-50655D01*
X32480Y-50598D02*
X32461Y-50636D01*
X32423Y-50655D01*
X32346Y-50655D01*
X32308Y-50636D01*
X32289Y-50598D01*
X32289Y-50388D01*
X31927Y-50445D02*
X32061Y-50445D01*
X32061Y-50655D02*
X32061Y-50255D01*
X31870Y-50255D01*
X31432Y-50236D02*
X31775Y-50750D01*
X31318Y-50636D02*
X31280Y-50655D01*
X31204Y-50655D01*
X31165Y-50636D01*
X31146Y-50598D01*
X31146Y-50579D01*
X31165Y-50541D01*
X31204Y-50522D01*
X31261Y-50522D01*
X31299Y-50503D01*
X31318Y-50464D01*
X31318Y-50445D01*
X31299Y-50407D01*
X31261Y-50388D01*
X31204Y-50388D01*
X31165Y-50407D01*
X25814Y-48912D02*
X25814Y-48512D01*
X25585Y-48912D01*
X25585Y-48512D01*
X25166Y-48874D02*
X25185Y-48893D01*
X25242Y-48912D01*
X25280Y-48912D01*
X25338Y-48893D01*
X25376Y-48855D01*
X25395Y-48817D01*
X25414Y-48740D01*
X25414Y-48683D01*
X25395Y-48607D01*
X25376Y-48569D01*
X25338Y-48531D01*
X25280Y-48512D01*
X25242Y-48512D01*
X25185Y-48531D01*
X25166Y-48550D01*
X25928Y-49912D02*
X25928Y-49512D01*
X25833Y-49512D01*
X25775Y-49531D01*
X25737Y-49569D01*
X25718Y-49607D01*
X25699Y-49683D01*
X25699Y-49740D01*
X25718Y-49817D01*
X25737Y-49855D01*
X25775Y-49893D01*
X25833Y-49912D01*
X25928Y-49912D01*
X25528Y-49912D02*
X25528Y-49512D01*
X25338Y-49912D02*
X25338Y-49512D01*
X25204Y-49798D01*
X25071Y-49512D01*
X25071Y-49912D01*
X26033Y-47512D02*
X25900Y-47912D01*
X25766Y-47512D01*
X25404Y-47874D02*
X25423Y-47893D01*
X25480Y-47912D01*
X25518Y-47912D01*
X25576Y-47893D01*
X25614Y-47855D01*
X25633Y-47817D01*
X25652Y-47740D01*
X25652Y-47683D01*
X25633Y-47607D01*
X25614Y-47569D01*
X25576Y-47531D01*
X25518Y-47512D01*
X25480Y-47512D01*
X25423Y-47531D01*
X25404Y-47550D01*
X25004Y-47874D02*
X25023Y-47893D01*
X25080Y-47912D01*
X25118Y-47912D01*
X25176Y-47893D01*
X25214Y-47855D01*
X25233Y-47817D01*
X25252Y-47740D01*
X25252Y-47683D01*
X25233Y-47607D01*
X25214Y-47569D01*
X25176Y-47531D01*
X25118Y-47512D01*
X25080Y-47512D01*
X25023Y-47531D01*
X25004Y-47550D01*
X25804Y-45531D02*
X25842Y-45512D01*
X25899Y-45512D01*
X25957Y-45531D01*
X25995Y-45569D01*
X26014Y-45607D01*
X26033Y-45683D01*
X26033Y-45740D01*
X26014Y-45817D01*
X25995Y-45855D01*
X25957Y-45893D01*
X25899Y-45912D01*
X25861Y-45912D01*
X25804Y-45893D01*
X25785Y-45874D01*
X25785Y-45740D01*
X25861Y-45740D01*
X25614Y-45912D02*
X25614Y-45512D01*
X25385Y-45912D01*
X25385Y-45512D01*
X25195Y-45912D02*
X25195Y-45512D01*
X25100Y-45512D01*
X25042Y-45531D01*
X25004Y-45569D01*
X24985Y-45607D01*
X24966Y-45683D01*
X24966Y-45740D01*
X24985Y-45817D01*
X25004Y-45855D01*
X25042Y-45893D01*
X25100Y-45912D01*
X25195Y-45912D01*
X26033Y-46512D02*
X25900Y-46912D01*
X25766Y-46512D01*
X25404Y-46874D02*
X25423Y-46893D01*
X25480Y-46912D01*
X25518Y-46912D01*
X25576Y-46893D01*
X25614Y-46855D01*
X25633Y-46817D01*
X25652Y-46740D01*
X25652Y-46683D01*
X25633Y-46607D01*
X25614Y-46569D01*
X25576Y-46531D01*
X25518Y-46512D01*
X25480Y-46512D01*
X25423Y-46531D01*
X25404Y-46550D01*
X25004Y-46874D02*
X25023Y-46893D01*
X25080Y-46912D01*
X25118Y-46912D01*
X25176Y-46893D01*
X25214Y-46855D01*
X25233Y-46817D01*
X25252Y-46740D01*
X25252Y-46683D01*
X25233Y-46607D01*
X25214Y-46569D01*
X25176Y-46531D01*
X25118Y-46512D01*
X25080Y-46512D01*
X25023Y-46531D01*
X25004Y-46550D01*
X25804Y-44531D02*
X25842Y-44512D01*
X25899Y-44512D01*
X25957Y-44531D01*
X25995Y-44569D01*
X26014Y-44607D01*
X26033Y-44683D01*
X26033Y-44740D01*
X26014Y-44817D01*
X25995Y-44855D01*
X25957Y-44893D01*
X25899Y-44912D01*
X25861Y-44912D01*
X25804Y-44893D01*
X25785Y-44874D01*
X25785Y-44740D01*
X25861Y-44740D01*
X25614Y-44912D02*
X25614Y-44512D01*
X25385Y-44912D01*
X25385Y-44512D01*
X25195Y-44912D02*
X25195Y-44512D01*
X25100Y-44512D01*
X25042Y-44531D01*
X25004Y-44569D01*
X24985Y-44607D01*
X24966Y-44683D01*
X24966Y-44740D01*
X24985Y-44817D01*
X25004Y-44855D01*
X25042Y-44893D01*
X25100Y-44912D01*
X25195Y-44912D01*
G54D13*
G36*
X35828Y-54846D02*
X35818Y-54880D01*
X35800Y-54932D01*
X35774Y-54977D01*
X35742Y-55018D01*
X35704Y-55053D01*
X35660Y-55081D01*
X35610Y-55103D01*
X35592Y-55109D01*
X35579Y-55113D01*
X35579Y-53543D01*
X35579Y-53406D01*
X35579Y-53277D01*
X35579Y-53157D01*
X35579Y-53044D01*
X35578Y-52940D01*
X35578Y-52843D01*
X35578Y-52754D01*
X35578Y-52674D01*
X35578Y-52600D01*
X35578Y-52535D01*
X35577Y-52476D01*
X35577Y-52426D01*
X35577Y-52382D01*
X35576Y-52345D01*
X35576Y-52315D01*
X35575Y-52293D01*
X35575Y-52277D01*
X35575Y-52267D01*
X35574Y-52264D01*
X35564Y-52248D01*
X35549Y-52232D01*
X35533Y-52222D01*
X35530Y-52221D01*
X35525Y-52221D01*
X35517Y-52220D01*
X35506Y-52219D01*
X35492Y-52219D01*
X35474Y-52218D01*
X35453Y-52218D01*
X35426Y-52218D01*
X35395Y-52217D01*
X35359Y-52217D01*
X35318Y-52217D01*
X35270Y-52217D01*
X35216Y-52217D01*
X35156Y-52216D01*
X35089Y-52216D01*
X35015Y-52216D01*
X34933Y-52216D01*
X34843Y-52216D01*
X34780Y-52216D01*
X34041Y-52216D01*
X33483Y-52774D01*
X32925Y-53332D01*
X32925Y-54070D01*
X32925Y-54175D01*
X32925Y-54272D01*
X32925Y-54360D01*
X32926Y-54441D01*
X32926Y-54513D01*
X32926Y-54577D01*
X32926Y-54633D01*
X32927Y-54682D01*
X32927Y-54723D01*
X32927Y-54757D01*
X32928Y-54784D01*
X32929Y-54803D01*
X32929Y-54816D01*
X32930Y-54821D01*
X32930Y-54821D01*
X32939Y-54838D01*
X32954Y-54853D01*
X32970Y-54864D01*
X32972Y-54864D01*
X32977Y-54865D01*
X32985Y-54865D01*
X32995Y-54866D01*
X33009Y-54866D01*
X33026Y-54867D01*
X33047Y-54867D01*
X33072Y-54867D01*
X33101Y-54868D01*
X33135Y-54868D01*
X33174Y-54868D01*
X33217Y-54868D01*
X33266Y-54869D01*
X33321Y-54869D01*
X33381Y-54869D01*
X33448Y-54869D01*
X33520Y-54869D01*
X33600Y-54869D01*
X33686Y-54869D01*
X33780Y-54869D01*
X33881Y-54869D01*
X33990Y-54870D01*
X34107Y-54870D01*
X34232Y-54870D01*
X34251Y-54870D01*
X34388Y-54870D01*
X34517Y-54870D01*
X34638Y-54870D01*
X34750Y-54869D01*
X34855Y-54869D01*
X34951Y-54869D01*
X35040Y-54869D01*
X35121Y-54869D01*
X35194Y-54869D01*
X35260Y-54869D01*
X35318Y-54868D01*
X35369Y-54868D01*
X35413Y-54868D01*
X35449Y-54867D01*
X35479Y-54867D01*
X35502Y-54866D01*
X35518Y-54866D01*
X35528Y-54866D01*
X35530Y-54865D01*
X35547Y-54855D01*
X35563Y-54840D01*
X35573Y-54824D01*
X35573Y-54822D01*
X35574Y-54817D01*
X35574Y-54810D01*
X35575Y-54800D01*
X35575Y-54788D01*
X35576Y-54772D01*
X35576Y-54752D01*
X35577Y-54729D01*
X35577Y-54702D01*
X35577Y-54670D01*
X35577Y-54634D01*
X35578Y-54593D01*
X35578Y-54547D01*
X35578Y-54496D01*
X35578Y-54438D01*
X35578Y-54375D01*
X35578Y-54306D01*
X35578Y-54230D01*
X35579Y-54148D01*
X35579Y-54058D01*
X35579Y-53961D01*
X35579Y-53857D01*
X35579Y-53745D01*
X35579Y-53624D01*
X35579Y-53543D01*
X35579Y-55113D01*
X35560Y-55119D01*
X34271Y-55120D01*
X34167Y-55120D01*
X34065Y-55120D01*
X33964Y-55120D01*
X33867Y-55120D01*
X33773Y-55120D01*
X33682Y-55120D01*
X33595Y-55120D01*
X33512Y-55120D01*
X33433Y-55119D01*
X33359Y-55119D01*
X33290Y-55119D01*
X33227Y-55119D01*
X33170Y-55119D01*
X33118Y-55119D01*
X33073Y-55119D01*
X33035Y-55118D01*
X33004Y-55118D01*
X32981Y-55118D01*
X32965Y-55118D01*
X32958Y-55117D01*
X32957Y-55117D01*
X32907Y-55107D01*
X32860Y-55090D01*
X32817Y-55065D01*
X32778Y-55034D01*
X32744Y-54996D01*
X32716Y-54954D01*
X32694Y-54906D01*
X32685Y-54880D01*
X32676Y-54846D01*
X32676Y-54048D01*
X32676Y-53251D01*
X32687Y-53228D01*
X32689Y-53224D01*
X32693Y-53219D01*
X32698Y-53213D01*
X32706Y-53204D01*
X32716Y-53193D01*
X32728Y-53180D01*
X32743Y-53164D01*
X32761Y-53146D01*
X32782Y-53124D01*
X32806Y-53099D01*
X32834Y-53071D01*
X32866Y-53038D01*
X32902Y-53002D01*
X32943Y-52961D01*
X32988Y-52916D01*
X33038Y-52866D01*
X33093Y-52811D01*
X33153Y-52751D01*
X33218Y-52685D01*
X33290Y-52613D01*
X33308Y-52595D01*
X33381Y-52522D01*
X33449Y-52455D01*
X33511Y-52393D01*
X33567Y-52336D01*
X33619Y-52285D01*
X33666Y-52239D01*
X33708Y-52197D01*
X33745Y-52160D01*
X33779Y-52127D01*
X33808Y-52097D01*
X33834Y-52072D01*
X33856Y-52051D01*
X33876Y-52032D01*
X33892Y-52017D01*
X33905Y-52004D01*
X33916Y-51994D01*
X33925Y-51987D01*
X33931Y-51981D01*
X33936Y-51978D01*
X33939Y-51976D01*
X33960Y-51967D01*
X34757Y-51967D01*
X35555Y-51967D01*
X35589Y-51976D01*
X35641Y-51995D01*
X35686Y-52021D01*
X35727Y-52053D01*
X35761Y-52091D01*
X35790Y-52134D01*
X35811Y-52184D01*
X35818Y-52206D01*
X35828Y-52240D01*
X35828Y-53543D01*
X35828Y-54846D01*
X35828Y-54846D01*
X35828Y-54846D01*
G37*
G36*
X33596Y-52093D02*
X33592Y-52123D01*
X33582Y-52151D01*
X33577Y-52159D01*
X33573Y-52164D01*
X33563Y-52175D01*
X33547Y-52191D01*
X33527Y-52212D01*
X33502Y-52237D01*
X33474Y-52266D01*
X33441Y-52299D01*
X33405Y-52335D01*
X33367Y-52374D01*
X33326Y-52415D01*
X33282Y-52459D01*
X33237Y-52504D01*
X33219Y-52522D01*
X33164Y-52577D01*
X33114Y-52627D01*
X33070Y-52671D01*
X33031Y-52710D01*
X32996Y-52744D01*
X32966Y-52773D01*
X32941Y-52798D01*
X32919Y-52819D01*
X32901Y-52836D01*
X32886Y-52850D01*
X32874Y-52860D01*
X32865Y-52868D01*
X32858Y-52873D01*
X32854Y-52876D01*
X32853Y-52877D01*
X32828Y-52884D01*
X32802Y-52888D01*
X32778Y-52886D01*
X32775Y-52886D01*
X32746Y-52876D01*
X32720Y-52860D01*
X32700Y-52839D01*
X32697Y-52835D01*
X32693Y-52828D01*
X32689Y-52823D01*
X32686Y-52816D01*
X32683Y-52809D01*
X32681Y-52801D01*
X32679Y-52791D01*
X32678Y-52779D01*
X32676Y-52763D01*
X32675Y-52744D01*
X32675Y-52720D01*
X32674Y-52692D01*
X32674Y-52659D01*
X32674Y-52619D01*
X32674Y-52574D01*
X32674Y-52521D01*
X32674Y-52460D01*
X32674Y-52416D01*
X32674Y-52353D01*
X32675Y-52297D01*
X32675Y-52249D01*
X32675Y-52208D01*
X32676Y-52173D01*
X32676Y-52144D01*
X32676Y-52120D01*
X32677Y-52101D01*
X32677Y-52085D01*
X32678Y-52073D01*
X32679Y-52064D01*
X32680Y-52057D01*
X32681Y-52052D01*
X32682Y-52048D01*
X32683Y-52044D01*
X32684Y-52043D01*
X32701Y-52015D01*
X32721Y-51994D01*
X32746Y-51979D01*
X32771Y-51970D01*
X32777Y-51969D01*
X32784Y-51968D01*
X32793Y-51968D01*
X32805Y-51967D01*
X32821Y-51966D01*
X32840Y-51966D01*
X32863Y-51965D01*
X32892Y-51965D01*
X32926Y-51965D01*
X32966Y-51965D01*
X33013Y-51965D01*
X33067Y-51965D01*
X33129Y-51965D01*
X33150Y-51965D01*
X33504Y-51967D01*
X33523Y-51976D01*
X33545Y-51990D01*
X33565Y-52008D01*
X33581Y-52028D01*
X33584Y-52035D01*
X33593Y-52063D01*
X33596Y-52093D01*
X33596Y-52093D01*
X33596Y-52093D01*
G37*
G36*
X34112Y-54763D02*
X34009Y-54763D01*
X34009Y-54277D01*
X33117Y-54277D01*
X33117Y-54174D01*
X34112Y-54174D01*
X34112Y-54763D01*
X34112Y-54763D01*
X34112Y-54763D01*
G37*
G36*
X33497Y-54682D02*
X33147Y-54682D01*
X33147Y-54580D01*
X33497Y-54580D01*
X33497Y-54682D01*
X33497Y-54682D01*
X33497Y-54682D01*
G37*
G36*
X33907Y-54678D02*
X33647Y-54678D01*
X33647Y-54575D01*
X33907Y-54575D01*
X33907Y-54678D01*
X33907Y-54678D01*
X33907Y-54678D01*
G37*
G36*
X35489Y-54025D02*
X35244Y-54025D01*
X34998Y-54025D01*
X34998Y-54157D01*
X34998Y-54289D01*
X34947Y-54289D01*
X34896Y-54289D01*
X34895Y-54198D01*
X34894Y-54107D01*
X34814Y-54191D01*
X34734Y-54274D01*
X34734Y-54425D01*
X34734Y-54575D01*
X34793Y-54575D01*
X34853Y-54575D01*
X34853Y-54627D01*
X34853Y-54678D01*
X34674Y-54678D01*
X34495Y-54678D01*
X34495Y-54627D01*
X34495Y-54575D01*
X34563Y-54575D01*
X34631Y-54575D01*
X34632Y-54410D01*
X34632Y-54373D01*
X34632Y-54338D01*
X34633Y-54307D01*
X34633Y-54280D01*
X34634Y-54258D01*
X34634Y-54243D01*
X34635Y-54236D01*
X34635Y-54235D01*
X34638Y-54230D01*
X34647Y-54219D01*
X34660Y-54204D01*
X34677Y-54185D01*
X34698Y-54163D01*
X34720Y-54139D01*
X34738Y-54120D01*
X34763Y-54094D01*
X34786Y-54069D01*
X34808Y-54047D01*
X34826Y-54027D01*
X34841Y-54011D01*
X34852Y-53999D01*
X34856Y-53995D01*
X34874Y-53975D01*
X34766Y-53864D01*
X34741Y-53837D01*
X34717Y-53813D01*
X34696Y-53791D01*
X34678Y-53771D01*
X34663Y-53756D01*
X34653Y-53745D01*
X34649Y-53740D01*
X34645Y-53733D01*
X34642Y-53725D01*
X34641Y-53714D01*
X34640Y-53697D01*
X34640Y-53682D01*
X34640Y-53636D01*
X34303Y-53636D01*
X33967Y-53636D01*
X33967Y-53700D01*
X33967Y-53764D01*
X33864Y-53764D01*
X33864Y-53662D01*
X33864Y-53587D01*
X33864Y-53514D01*
X33630Y-53514D01*
X33397Y-53514D01*
X33356Y-53550D01*
X33341Y-53564D01*
X33328Y-53576D01*
X33320Y-53585D01*
X33316Y-53589D01*
X33316Y-53590D01*
X33319Y-53593D01*
X33327Y-53601D01*
X33339Y-53613D01*
X33354Y-53626D01*
X33355Y-53627D01*
X33395Y-53662D01*
X33630Y-53662D01*
X33864Y-53662D01*
X33864Y-53764D01*
X33660Y-53764D01*
X33354Y-53764D01*
X33258Y-53681D01*
X33234Y-53659D01*
X33212Y-53640D01*
X33193Y-53622D01*
X33178Y-53608D01*
X33167Y-53598D01*
X33162Y-53592D01*
X33162Y-53591D01*
X33165Y-53587D01*
X33174Y-53578D01*
X33187Y-53565D01*
X33205Y-53548D01*
X33225Y-53530D01*
X33248Y-53508D01*
X33258Y-53499D01*
X33354Y-53411D01*
X33660Y-53411D01*
X33967Y-53411D01*
X33967Y-53473D01*
X33967Y-53535D01*
X34303Y-53535D01*
X34640Y-53535D01*
X34640Y-53447D01*
X34640Y-53360D01*
X34572Y-53360D01*
X34503Y-53360D01*
X34503Y-53066D01*
X34503Y-52771D01*
X34567Y-52771D01*
X34631Y-52771D01*
X34631Y-52532D01*
X34631Y-52293D01*
X34683Y-52293D01*
X34734Y-52293D01*
X34734Y-52532D01*
X34734Y-52771D01*
X34798Y-52771D01*
X34862Y-52771D01*
X34862Y-53066D01*
X34862Y-53360D01*
X34802Y-53360D01*
X34759Y-53360D01*
X34759Y-53258D01*
X34759Y-53066D01*
X34759Y-52874D01*
X34683Y-52874D01*
X34606Y-52874D01*
X34606Y-53066D01*
X34606Y-53258D01*
X34683Y-53258D01*
X34759Y-53258D01*
X34759Y-53360D01*
X34742Y-53360D01*
X34742Y-53525D01*
X34743Y-53690D01*
X34819Y-53769D01*
X34896Y-53848D01*
X34896Y-53759D01*
X34896Y-53671D01*
X34947Y-53671D01*
X34998Y-53671D01*
X34998Y-53796D01*
X34998Y-53922D01*
X35244Y-53922D01*
X35489Y-53922D01*
X35489Y-53974D01*
X35489Y-54025D01*
X35489Y-54025D01*
X35489Y-54025D01*
G37*
G36*
X33565Y-54435D02*
X33147Y-54435D01*
X33147Y-54332D01*
X33565Y-54332D01*
X33565Y-54435D01*
X33565Y-54435D01*
X33565Y-54435D01*
G37*
G36*
X33941Y-54435D02*
X33647Y-54435D01*
X33647Y-54332D01*
X33941Y-54332D01*
X33941Y-54435D01*
X33941Y-54435D01*
X33941Y-54435D01*
G37*
%LPC*%
G54D14*
X41535Y-47744D03*
X41535Y-46744D03*
X41535Y-48744D03*
X41535Y-49744D03*
X41535Y-45744D03*
X41535Y-44744D03*
X26969Y-46744D03*
X26969Y-47744D03*
X26969Y-45744D03*
X26969Y-44744D03*
X26969Y-48744D03*
X26969Y-49744D03*
G54D15*
X25984Y-55512D03*
X42520Y-55512D03*
X42520Y-38976D03*
X25984Y-38976D03*
G54D16*
X31693Y-43524D03*
X36417Y-42598D03*
X28543Y-39764D03*
X28937Y-39764D03*
X29331Y-39764D03*
X28150Y-41339D03*
X30906Y-39764D03*
X28150Y-39764D03*
X30118Y-41339D03*
X29606Y-41339D03*
X30512Y-41339D03*
X30512Y-39764D03*
X29724Y-39764D03*
X29134Y-41339D03*
X30906Y-41339D03*
X30118Y-39764D03*
X39134Y-41339D03*
X37992Y-41339D03*
X40354Y-39764D03*
X39173Y-39764D03*
X38386Y-39764D03*
X38386Y-41339D03*
X37992Y-39764D03*
X38780Y-39764D03*
X38780Y-41339D03*
X39961Y-39764D03*
X37598Y-41339D03*
X40354Y-41339D03*
X39567Y-39764D03*
X37598Y-39764D03*
X39488Y-41339D03*
X39409Y-46457D03*
X38780Y-48031D03*
X39567Y-48031D03*
G54D17*
X32283Y-47244D03*
G54D16*
X37992Y-48031D03*
X37598Y-46457D03*
G54D17*
X36220Y-47244D03*
G54D16*
X39961Y-48031D03*
X38465Y-46457D03*
X37992Y-46457D03*
X38937Y-46457D03*
X40354Y-46457D03*
X39173Y-48031D03*
X40354Y-48031D03*
X37598Y-48031D03*
X38386Y-48031D03*
X28937Y-46457D03*
X28543Y-46457D03*
X29724Y-46457D03*
X29331Y-46457D03*
X30906Y-46457D03*
G54D17*
X28642Y-47244D03*
G54D16*
X30118Y-48031D03*
X28937Y-48031D03*
G54D17*
X28666Y-53937D03*
G54D16*
X29331Y-48031D03*
X30118Y-46457D03*
X30512Y-48031D03*
X30512Y-46457D03*
X29724Y-48031D03*
X28150Y-46457D03*
X30906Y-48031D03*
X28150Y-48031D03*
X29724Y-53150D03*
X28543Y-54724D03*
X29370Y-53150D03*
X28150Y-53150D03*
X28937Y-54724D03*
X30118Y-54724D03*
X29724Y-54724D03*
X30906Y-54724D03*
X28150Y-54724D03*
X30512Y-54724D03*
X30118Y-53150D03*
X30906Y-53150D03*
X29035Y-53150D03*
X30512Y-53150D03*
X29331Y-54724D03*
X37598Y-54724D03*
X38780Y-54724D03*
X39567Y-54724D03*
G54D17*
X35039Y-48327D03*
G54D16*
X39567Y-53150D03*
X38386Y-53150D03*
X39173Y-54724D03*
X37992Y-54724D03*
X37598Y-53150D03*
X40354Y-53150D03*
X40354Y-54724D03*
X39961Y-54724D03*
X39173Y-53150D03*
G54D17*
X39847Y-53937D03*
G54D16*
X37992Y-53150D03*
X38780Y-53150D03*
X38386Y-54724D03*
X36969Y-47874D03*
X36969Y-46614D03*
G54D17*
X42913Y-43346D03*
X26378Y-43346D03*
M02*
