G04 (created by PCBNEW-RS274X (2011-nov-30)-testing) date Mon 12 Nov 2012 04:42:55 PM CET*
%MOIN*%
G04 Gerber Fmt 3.4, Leading zero omitted, Abs format*
%FSLAX34Y34*%
G01*
G70*
G90*
G04 APERTURE LIST*
%ADD10C,0.006*%
%ADD11R,0.0276X0.063*%
%ADD12R,0.0394X0.0866*%
%ADD13R,0.0709X0.1339*%
%ADD14R,0.025X0.025*%
%ADD15R,0.063X0.061*%
%ADD16R,0.0256X0.0339*%
%ADD17R,0.0669X0.0339*%
%ADD18C,0.075*%
%ADD19R,0.0984X0.1772*%
%ADD20C,0.16*%
%ADD21R,0.059X0.0511*%
%ADD22R,0.1083X0.1083*%
%ADD23R,0.0511X0.059*%
%ADD24R,0.0629X0.0708*%
%ADD25R,0.0551X0.0393*%
G04 APERTURE END LIST*
G54D10*
G54D11*
X34645Y-44804D03*
G54D12*
X35236Y-44686D03*
G54D11*
X35827Y-44804D03*
X35827Y-43308D03*
X34645Y-43308D03*
G54D13*
X35236Y-43662D03*
G54D14*
X35039Y-44174D03*
X35433Y-44174D03*
X35433Y-43780D03*
X35039Y-43780D03*
X35236Y-43977D03*
G54D15*
X30399Y-40551D03*
X28666Y-40551D03*
G54D16*
X29103Y-40551D03*
G54D17*
X29764Y-40551D03*
G54D18*
X41535Y-47744D03*
X41535Y-46744D03*
X41535Y-48744D03*
X41535Y-49744D03*
X41535Y-45744D03*
X41535Y-44744D03*
X26969Y-46744D03*
X26969Y-47744D03*
X26969Y-45744D03*
X26969Y-44744D03*
X26969Y-48744D03*
X26969Y-49744D03*
G54D19*
X33485Y-47244D03*
X35019Y-47244D03*
G54D20*
X25984Y-55512D03*
X42520Y-55512D03*
X42520Y-38976D03*
X25984Y-38976D03*
G54D21*
X31693Y-44272D03*
X31693Y-43524D03*
G54D15*
X28657Y-47244D03*
X30390Y-47244D03*
G54D16*
X29953Y-47244D03*
G54D17*
X29292Y-47244D03*
G54D15*
X38105Y-47244D03*
X39838Y-47244D03*
G54D16*
X39401Y-47244D03*
G54D17*
X38740Y-47244D03*
G54D15*
X30399Y-53937D03*
X28666Y-53937D03*
G54D16*
X29103Y-53937D03*
G54D17*
X29764Y-53937D03*
G54D15*
X39847Y-53937D03*
X38114Y-53937D03*
G54D16*
X38551Y-53937D03*
G54D17*
X39212Y-53937D03*
G54D15*
X39847Y-40551D03*
X38114Y-40551D03*
G54D16*
X38551Y-40551D03*
G54D17*
X39212Y-40551D03*
G54D22*
X33150Y-44882D03*
X33150Y-42914D03*
G54D23*
X25610Y-41339D03*
X26358Y-41339D03*
X25610Y-42421D03*
X26358Y-42421D03*
X42146Y-41339D03*
X42894Y-41339D03*
X42146Y-42421D03*
X42894Y-42421D03*
G54D24*
X34646Y-42087D03*
X35748Y-42087D03*
G54D23*
X37500Y-44488D03*
X36752Y-44488D03*
X37500Y-43661D03*
X36752Y-43661D03*
G54D25*
X38347Y-42894D03*
X38347Y-43642D03*
X39213Y-43268D03*
G54D23*
X39154Y-44488D03*
X38406Y-44488D03*
M02*
