%FSLAX34Y34*%
G04 Gerber Fmt 3.4, Leading zero omitted, Abs format*
G04 (created by PCBNEW 52ca2e1517-product) date Tue 14 Jan 2014 02:24:46 PM CET*
%MOIN*%
G01*
G70*
G90*
G04 APERTURE LIST*
%ADD10C,0.005906*%
%ADD11R,0.027600X0.063000*%
%ADD12R,0.039400X0.086600*%
%ADD13R,0.070900X0.133900*%
%ADD14R,0.025000X0.025000*%
%ADD15R,0.098400X0.177200*%
%ADD16R,0.059000X0.051100*%
%ADD17R,0.051100X0.059000*%
%ADD18R,0.062900X0.070800*%
%ADD19R,0.039300X0.055100*%
%ADD20C,0.065000*%
%ADD21R,0.108300X0.108300*%
%ADD22R,0.061000X0.063000*%
%ADD23R,0.033900X0.025600*%
%ADD24R,0.033900X0.066900*%
%ADD25C,0.160000*%
%ADD26C,0.025000*%
%ADD27C,0.028000*%
%ADD28C,0.020000*%
%ADD29C,0.007874*%
G04 APERTURE END LIST*
G54D10*
G54D11*
X33660Y-44645D03*
G54D12*
X34251Y-44527D03*
G54D11*
X34842Y-44645D03*
X34842Y-43149D03*
X33660Y-43149D03*
G54D13*
X34251Y-43503D03*
G54D14*
X34054Y-43936D03*
X34448Y-43936D03*
X34408Y-43621D03*
X34094Y-43621D03*
X34251Y-43818D03*
X34251Y-44015D03*
G54D15*
X35019Y-47244D03*
X33485Y-47244D03*
G54D16*
X29527Y-44173D03*
X29527Y-43425D03*
G54D17*
X25610Y-41339D03*
X26358Y-41339D03*
X25610Y-42421D03*
X26358Y-42421D03*
X42146Y-41339D03*
X42894Y-41339D03*
X42146Y-42421D03*
X42894Y-42421D03*
G54D18*
X33700Y-41929D03*
X34802Y-41929D03*
G54D16*
X36950Y-44674D03*
X36950Y-43926D03*
X35950Y-44674D03*
X35950Y-43926D03*
G54D19*
X36076Y-42983D03*
X36824Y-42983D03*
X36450Y-42117D03*
G54D16*
X36988Y-47618D03*
X36988Y-46870D03*
G54D20*
X26969Y-46744D03*
X26969Y-47744D03*
X26969Y-45744D03*
X26969Y-44744D03*
X26969Y-48744D03*
X26969Y-49744D03*
X41535Y-47744D03*
X41535Y-46744D03*
X41535Y-48744D03*
X41535Y-49744D03*
X41535Y-45744D03*
X41535Y-44744D03*
G54D21*
X31988Y-44881D03*
X31988Y-42913D03*
G54D22*
X38976Y-41422D03*
X38976Y-39689D03*
G54D23*
X38976Y-40126D03*
G54D24*
X38976Y-40787D03*
G54D22*
X38976Y-54808D03*
X38976Y-53075D03*
G54D23*
X38976Y-53512D03*
G54D24*
X38976Y-54173D03*
G54D22*
X29528Y-53066D03*
X29528Y-54799D03*
G54D23*
X29528Y-54362D03*
G54D24*
X29528Y-53701D03*
G54D22*
X38976Y-48115D03*
X38976Y-46382D03*
G54D23*
X38976Y-46819D03*
G54D24*
X38976Y-47480D03*
G54D22*
X29528Y-46373D03*
X29528Y-48106D03*
G54D23*
X29528Y-47669D03*
G54D24*
X29528Y-47008D03*
G54D22*
X29528Y-39680D03*
X29528Y-41413D03*
G54D23*
X29528Y-40976D03*
G54D24*
X29528Y-40315D03*
G54D25*
X42520Y-38976D03*
X25984Y-55512D03*
X42520Y-55512D03*
X25984Y-38976D03*
G54D26*
X36988Y-49744D03*
X36076Y-42983D03*
X34802Y-41929D03*
X36950Y-43926D03*
X35950Y-43926D03*
X42894Y-41339D03*
X26358Y-41339D03*
X42894Y-42421D03*
X26358Y-42421D03*
G54D27*
X35500Y-41405D02*
X35334Y-41240D01*
X34842Y-43149D02*
X35150Y-43149D01*
X35500Y-42800D02*
X35500Y-41405D01*
X35150Y-43149D02*
X35500Y-42800D01*
X29527Y-43425D02*
X30492Y-43425D01*
X31692Y-41240D02*
X35334Y-41240D01*
X31003Y-41929D02*
X31692Y-41240D01*
X31003Y-42913D02*
X31003Y-41929D01*
X30492Y-43425D02*
X31003Y-42913D01*
G54D28*
X29527Y-41413D02*
X29528Y-41413D01*
G54D27*
X29527Y-43425D02*
X29527Y-41413D01*
X29528Y-41413D02*
X29528Y-40976D01*
X38976Y-39689D02*
X38976Y-40126D01*
X29528Y-40315D02*
X29528Y-39680D01*
X29528Y-39680D02*
X38967Y-39680D01*
X38967Y-39680D02*
X38976Y-39689D01*
X38976Y-46382D02*
X38976Y-46819D01*
X38976Y-41422D02*
X38976Y-46382D01*
X38976Y-40787D02*
X38976Y-41422D01*
X38976Y-47480D02*
X38976Y-48115D01*
X38976Y-53075D02*
X38976Y-53512D01*
X38976Y-48115D02*
X38976Y-53075D01*
X29528Y-54799D02*
X29528Y-54362D01*
X38976Y-54808D02*
X38976Y-54173D01*
X29528Y-54799D02*
X38967Y-54799D01*
X38967Y-54799D02*
X38976Y-54808D01*
X29528Y-48106D02*
X29528Y-47669D01*
X29528Y-53066D02*
X29528Y-48106D01*
X29528Y-53701D02*
X29528Y-53066D01*
X29528Y-46373D02*
X29528Y-47228D01*
X33485Y-47244D02*
X30224Y-47244D01*
X29988Y-47008D02*
X29528Y-47008D01*
X30224Y-47244D02*
X29988Y-47008D01*
X36988Y-47618D02*
X36988Y-49744D01*
X35019Y-47244D02*
X35019Y-46042D01*
X31988Y-45669D02*
X32185Y-45866D01*
X32185Y-45866D02*
X34842Y-45866D01*
X34842Y-45866D02*
X35019Y-46042D01*
X31988Y-45669D02*
X31988Y-44881D01*
X31988Y-44881D02*
X32972Y-44881D01*
X33208Y-44645D02*
X33660Y-44645D01*
X32972Y-44881D02*
X33208Y-44645D01*
X36950Y-44674D02*
X36950Y-46831D01*
X36950Y-46831D02*
X36988Y-46870D01*
X36450Y-42117D02*
X36767Y-42117D01*
X37326Y-44674D02*
X36950Y-44674D01*
X37600Y-44400D02*
X37326Y-44674D01*
X37600Y-42950D02*
X37600Y-44400D01*
X36767Y-42117D02*
X37600Y-42950D01*
X36950Y-44674D02*
X37074Y-44674D01*
X35950Y-44674D02*
X36950Y-44674D01*
X34842Y-44645D02*
X35921Y-44645D01*
X35921Y-44645D02*
X35950Y-44674D01*
X35950Y-43926D02*
X36076Y-43800D01*
X36076Y-42983D02*
X36076Y-43800D01*
X34251Y-42618D02*
X34547Y-42618D01*
X34547Y-42618D02*
X34802Y-42362D01*
X34802Y-42362D02*
X34802Y-41929D01*
X34251Y-43503D02*
X34251Y-42618D01*
X35950Y-43926D02*
X36950Y-43926D01*
X42894Y-42421D02*
X42894Y-41339D01*
X26358Y-42421D02*
X26358Y-41339D01*
X34251Y-43503D02*
X34303Y-43503D01*
X34726Y-43926D02*
X35950Y-43926D01*
X34303Y-43503D02*
X34726Y-43926D01*
X34350Y-43503D02*
X34251Y-43503D01*
X34251Y-44527D02*
X34251Y-43503D01*
X29527Y-44173D02*
X30433Y-44173D01*
X31988Y-43700D02*
X31988Y-42913D01*
X31791Y-43897D02*
X31988Y-43700D01*
X30708Y-43897D02*
X31791Y-43897D01*
X30433Y-44173D02*
X30708Y-43897D01*
X31988Y-42913D02*
X32874Y-42913D01*
X32874Y-42913D02*
X33110Y-43149D01*
X33110Y-43149D02*
X33660Y-43149D01*
X33700Y-41929D02*
X33700Y-42676D01*
X33700Y-42676D02*
X33660Y-42716D01*
X33660Y-42716D02*
X33660Y-43149D01*
X29527Y-44173D02*
X27933Y-44173D01*
X27657Y-43897D02*
X25610Y-43897D01*
X27933Y-44173D02*
X27657Y-43897D01*
X25610Y-42421D02*
X25610Y-43897D01*
X25610Y-43897D02*
X25610Y-47244D01*
X42146Y-41339D02*
X42146Y-42421D01*
X25610Y-41339D02*
X25610Y-42421D01*
X26969Y-47244D02*
X26969Y-46744D01*
X41535Y-47244D02*
X41535Y-46744D01*
X42717Y-44685D02*
X42717Y-47244D01*
X42146Y-44114D02*
X42717Y-44685D01*
X42146Y-42421D02*
X42146Y-44114D01*
X26969Y-47744D02*
X26969Y-47244D01*
X41535Y-47244D02*
X41535Y-47744D01*
X26969Y-47244D02*
X25610Y-47244D01*
X41535Y-47244D02*
X42717Y-47244D01*
G54D10*
G36*
X30866Y-41479D02*
X30710Y-41635D01*
X30685Y-41664D01*
X30661Y-41694D01*
X30659Y-41696D01*
X30658Y-41697D01*
X30640Y-41731D01*
X30621Y-41765D01*
X30621Y-41767D01*
X30620Y-41769D01*
X30609Y-41806D01*
X30597Y-41842D01*
X30597Y-41844D01*
X30596Y-41846D01*
X30592Y-41885D01*
X30588Y-41923D01*
X30588Y-41927D01*
X30588Y-41927D01*
X30588Y-41927D01*
X30588Y-41929D01*
X30588Y-42372D01*
X30580Y-42374D01*
X30509Y-42381D01*
X29943Y-42381D01*
X29943Y-41980D01*
X29963Y-41972D01*
X30008Y-41942D01*
X30047Y-41903D01*
X30077Y-41858D01*
X30097Y-41808D01*
X30108Y-41755D01*
X30108Y-41700D01*
X30108Y-41070D01*
X30097Y-41017D01*
X30077Y-40967D01*
X30047Y-40922D01*
X30008Y-40883D01*
X29973Y-40860D01*
X29973Y-40820D01*
X29962Y-40767D01*
X29941Y-40717D01*
X29911Y-40672D01*
X29873Y-40633D01*
X29828Y-40603D01*
X29777Y-40583D01*
X29724Y-40572D01*
X29670Y-40572D01*
X29622Y-40572D01*
X29611Y-40568D01*
X29530Y-40560D01*
X29450Y-40567D01*
X29434Y-40572D01*
X29331Y-40572D01*
X29278Y-40583D01*
X29227Y-40603D01*
X29182Y-40633D01*
X29144Y-40672D01*
X29114Y-40717D01*
X29093Y-40767D01*
X29082Y-40820D01*
X29082Y-40860D01*
X29047Y-40883D01*
X29008Y-40922D01*
X28978Y-40967D01*
X28958Y-41017D01*
X28947Y-41070D01*
X28947Y-41125D01*
X28947Y-41755D01*
X28958Y-41808D01*
X28978Y-41858D01*
X29008Y-41903D01*
X29047Y-41942D01*
X29092Y-41972D01*
X29111Y-41980D01*
X29111Y-42381D01*
X28545Y-42381D01*
X28474Y-42374D01*
X28407Y-42354D01*
X28346Y-42322D01*
X28292Y-42277D01*
X28248Y-42224D01*
X28216Y-42163D01*
X28195Y-42096D01*
X28188Y-42025D01*
X28188Y-39076D01*
X28195Y-39005D01*
X28216Y-38939D01*
X28248Y-38878D01*
X28292Y-38824D01*
X28346Y-38780D01*
X28407Y-38747D01*
X28474Y-38727D01*
X28545Y-38720D01*
X30509Y-38720D01*
X30580Y-38727D01*
X30647Y-38747D01*
X30708Y-38780D01*
X30762Y-38824D01*
X30806Y-38878D01*
X30838Y-38939D01*
X30859Y-39005D01*
X30866Y-39076D01*
X30866Y-41479D01*
X30866Y-41479D01*
G37*
G54D29*
X30866Y-41479D02*
X30710Y-41635D01*
X30685Y-41664D01*
X30661Y-41694D01*
X30659Y-41696D01*
X30658Y-41697D01*
X30640Y-41731D01*
X30621Y-41765D01*
X30621Y-41767D01*
X30620Y-41769D01*
X30609Y-41806D01*
X30597Y-41842D01*
X30597Y-41844D01*
X30596Y-41846D01*
X30592Y-41885D01*
X30588Y-41923D01*
X30588Y-41927D01*
X30588Y-41927D01*
X30588Y-41927D01*
X30588Y-41929D01*
X30588Y-42372D01*
X30580Y-42374D01*
X30509Y-42381D01*
X29943Y-42381D01*
X29943Y-41980D01*
X29963Y-41972D01*
X30008Y-41942D01*
X30047Y-41903D01*
X30077Y-41858D01*
X30097Y-41808D01*
X30108Y-41755D01*
X30108Y-41700D01*
X30108Y-41070D01*
X30097Y-41017D01*
X30077Y-40967D01*
X30047Y-40922D01*
X30008Y-40883D01*
X29973Y-40860D01*
X29973Y-40820D01*
X29962Y-40767D01*
X29941Y-40717D01*
X29911Y-40672D01*
X29873Y-40633D01*
X29828Y-40603D01*
X29777Y-40583D01*
X29724Y-40572D01*
X29670Y-40572D01*
X29622Y-40572D01*
X29611Y-40568D01*
X29530Y-40560D01*
X29450Y-40567D01*
X29434Y-40572D01*
X29331Y-40572D01*
X29278Y-40583D01*
X29227Y-40603D01*
X29182Y-40633D01*
X29144Y-40672D01*
X29114Y-40717D01*
X29093Y-40767D01*
X29082Y-40820D01*
X29082Y-40860D01*
X29047Y-40883D01*
X29008Y-40922D01*
X28978Y-40967D01*
X28958Y-41017D01*
X28947Y-41070D01*
X28947Y-41125D01*
X28947Y-41755D01*
X28958Y-41808D01*
X28978Y-41858D01*
X29008Y-41903D01*
X29047Y-41942D01*
X29092Y-41972D01*
X29111Y-41980D01*
X29111Y-42381D01*
X28545Y-42381D01*
X28474Y-42374D01*
X28407Y-42354D01*
X28346Y-42322D01*
X28292Y-42277D01*
X28248Y-42224D01*
X28216Y-42163D01*
X28195Y-42096D01*
X28188Y-42025D01*
X28188Y-39076D01*
X28195Y-39005D01*
X28216Y-38939D01*
X28248Y-38878D01*
X28292Y-38824D01*
X28346Y-38780D01*
X28407Y-38747D01*
X28474Y-38727D01*
X28545Y-38720D01*
X30509Y-38720D01*
X30580Y-38727D01*
X30647Y-38747D01*
X30708Y-38780D01*
X30762Y-38824D01*
X30806Y-38878D01*
X30838Y-38939D01*
X30859Y-39005D01*
X30866Y-39076D01*
X30866Y-41479D01*
G54D10*
G36*
X40314Y-42025D02*
X40307Y-42096D01*
X40287Y-42163D01*
X40255Y-42224D01*
X40211Y-42277D01*
X40157Y-42322D01*
X40096Y-42354D01*
X40029Y-42374D01*
X39958Y-42381D01*
X37994Y-42381D01*
X37923Y-42374D01*
X37856Y-42354D01*
X37795Y-42322D01*
X37757Y-42290D01*
X37757Y-42142D01*
X37658Y-42142D01*
X37644Y-42096D01*
X37637Y-42025D01*
X37637Y-40095D01*
X38410Y-40095D01*
X38426Y-40134D01*
X38456Y-40179D01*
X38495Y-40218D01*
X38530Y-40241D01*
X38530Y-40281D01*
X38541Y-40334D01*
X38562Y-40384D01*
X38592Y-40429D01*
X38630Y-40468D01*
X38675Y-40498D01*
X38726Y-40518D01*
X38779Y-40529D01*
X38833Y-40529D01*
X38881Y-40529D01*
X38892Y-40533D01*
X38973Y-40541D01*
X39053Y-40534D01*
X39069Y-40529D01*
X39172Y-40529D01*
X39225Y-40518D01*
X39276Y-40498D01*
X39321Y-40468D01*
X39359Y-40429D01*
X39389Y-40384D01*
X39410Y-40334D01*
X39421Y-40281D01*
X39421Y-40241D01*
X39456Y-40218D01*
X39495Y-40179D01*
X39525Y-40134D01*
X39545Y-40084D01*
X39556Y-40031D01*
X39556Y-39976D01*
X39556Y-39346D01*
X39545Y-39293D01*
X39525Y-39243D01*
X39495Y-39198D01*
X39456Y-39159D01*
X39411Y-39129D01*
X39361Y-39109D01*
X39308Y-39098D01*
X39253Y-39098D01*
X38643Y-39098D01*
X38590Y-39109D01*
X38540Y-39129D01*
X38495Y-39159D01*
X38456Y-39198D01*
X38426Y-39243D01*
X38418Y-39264D01*
X37637Y-39264D01*
X37637Y-39076D01*
X37644Y-39005D01*
X37664Y-38939D01*
X37697Y-38878D01*
X37741Y-38824D01*
X37795Y-38780D01*
X37856Y-38747D01*
X37923Y-38727D01*
X37994Y-38720D01*
X39958Y-38720D01*
X40029Y-38727D01*
X40096Y-38747D01*
X40157Y-38780D01*
X40211Y-38824D01*
X40255Y-38878D01*
X40287Y-38939D01*
X40307Y-39005D01*
X40314Y-39076D01*
X40314Y-42025D01*
X40314Y-42025D01*
G37*
G54D29*
X40314Y-42025D02*
X40307Y-42096D01*
X40287Y-42163D01*
X40255Y-42224D01*
X40211Y-42277D01*
X40157Y-42322D01*
X40096Y-42354D01*
X40029Y-42374D01*
X39958Y-42381D01*
X37994Y-42381D01*
X37923Y-42374D01*
X37856Y-42354D01*
X37795Y-42322D01*
X37757Y-42290D01*
X37757Y-42142D01*
X37658Y-42142D01*
X37644Y-42096D01*
X37637Y-42025D01*
X37637Y-40095D01*
X38410Y-40095D01*
X38426Y-40134D01*
X38456Y-40179D01*
X38495Y-40218D01*
X38530Y-40241D01*
X38530Y-40281D01*
X38541Y-40334D01*
X38562Y-40384D01*
X38592Y-40429D01*
X38630Y-40468D01*
X38675Y-40498D01*
X38726Y-40518D01*
X38779Y-40529D01*
X38833Y-40529D01*
X38881Y-40529D01*
X38892Y-40533D01*
X38973Y-40541D01*
X39053Y-40534D01*
X39069Y-40529D01*
X39172Y-40529D01*
X39225Y-40518D01*
X39276Y-40498D01*
X39321Y-40468D01*
X39359Y-40429D01*
X39389Y-40384D01*
X39410Y-40334D01*
X39421Y-40281D01*
X39421Y-40241D01*
X39456Y-40218D01*
X39495Y-40179D01*
X39525Y-40134D01*
X39545Y-40084D01*
X39556Y-40031D01*
X39556Y-39976D01*
X39556Y-39346D01*
X39545Y-39293D01*
X39525Y-39243D01*
X39495Y-39198D01*
X39456Y-39159D01*
X39411Y-39129D01*
X39361Y-39109D01*
X39308Y-39098D01*
X39253Y-39098D01*
X38643Y-39098D01*
X38590Y-39109D01*
X38540Y-39129D01*
X38495Y-39159D01*
X38456Y-39198D01*
X38426Y-39243D01*
X38418Y-39264D01*
X37637Y-39264D01*
X37637Y-39076D01*
X37644Y-39005D01*
X37664Y-38939D01*
X37697Y-38878D01*
X37741Y-38824D01*
X37795Y-38780D01*
X37856Y-38747D01*
X37923Y-38727D01*
X37994Y-38720D01*
X39958Y-38720D01*
X40029Y-38727D01*
X40096Y-38747D01*
X40157Y-38780D01*
X40211Y-38824D01*
X40255Y-38878D01*
X40287Y-38939D01*
X40307Y-39005D01*
X40314Y-39076D01*
X40314Y-42025D01*
G54D10*
G36*
X30866Y-48718D02*
X30859Y-48789D01*
X30838Y-48855D01*
X30806Y-48917D01*
X30762Y-48970D01*
X30708Y-49014D01*
X30647Y-49047D01*
X30580Y-49067D01*
X30509Y-49074D01*
X29943Y-49074D01*
X29943Y-48673D01*
X29963Y-48665D01*
X30008Y-48635D01*
X30047Y-48596D01*
X30077Y-48551D01*
X30097Y-48501D01*
X30108Y-48448D01*
X30108Y-48393D01*
X30108Y-47763D01*
X30097Y-47710D01*
X30077Y-47660D01*
X30047Y-47615D01*
X30008Y-47576D01*
X29973Y-47553D01*
X29973Y-47513D01*
X29962Y-47460D01*
X29941Y-47410D01*
X29911Y-47365D01*
X29873Y-47326D01*
X29828Y-47296D01*
X29777Y-47276D01*
X29724Y-47265D01*
X29670Y-47265D01*
X29622Y-47265D01*
X29611Y-47261D01*
X29530Y-47253D01*
X29450Y-47260D01*
X29434Y-47265D01*
X29331Y-47265D01*
X29278Y-47276D01*
X29227Y-47296D01*
X29182Y-47326D01*
X29144Y-47365D01*
X29114Y-47410D01*
X29093Y-47460D01*
X29082Y-47513D01*
X29082Y-47553D01*
X29047Y-47576D01*
X29008Y-47615D01*
X28978Y-47660D01*
X28958Y-47710D01*
X28947Y-47763D01*
X28947Y-47818D01*
X28947Y-48448D01*
X28958Y-48501D01*
X28978Y-48551D01*
X29008Y-48596D01*
X29047Y-48635D01*
X29092Y-48665D01*
X29112Y-48673D01*
X29112Y-49074D01*
X28545Y-49074D01*
X28474Y-49067D01*
X28407Y-49047D01*
X28346Y-49014D01*
X28292Y-48970D01*
X28248Y-48917D01*
X28216Y-48855D01*
X28195Y-48789D01*
X28188Y-48718D01*
X28188Y-45769D01*
X28195Y-45698D01*
X28216Y-45632D01*
X28248Y-45570D01*
X28292Y-45517D01*
X28346Y-45473D01*
X28407Y-45440D01*
X28474Y-45420D01*
X28545Y-45413D01*
X30509Y-45413D01*
X30580Y-45420D01*
X30647Y-45440D01*
X30708Y-45473D01*
X30762Y-45517D01*
X30806Y-45570D01*
X30838Y-45632D01*
X30859Y-45698D01*
X30866Y-45769D01*
X30866Y-48718D01*
X30866Y-48718D01*
G37*
G54D29*
X30866Y-48718D02*
X30859Y-48789D01*
X30838Y-48855D01*
X30806Y-48917D01*
X30762Y-48970D01*
X30708Y-49014D01*
X30647Y-49047D01*
X30580Y-49067D01*
X30509Y-49074D01*
X29943Y-49074D01*
X29943Y-48673D01*
X29963Y-48665D01*
X30008Y-48635D01*
X30047Y-48596D01*
X30077Y-48551D01*
X30097Y-48501D01*
X30108Y-48448D01*
X30108Y-48393D01*
X30108Y-47763D01*
X30097Y-47710D01*
X30077Y-47660D01*
X30047Y-47615D01*
X30008Y-47576D01*
X29973Y-47553D01*
X29973Y-47513D01*
X29962Y-47460D01*
X29941Y-47410D01*
X29911Y-47365D01*
X29873Y-47326D01*
X29828Y-47296D01*
X29777Y-47276D01*
X29724Y-47265D01*
X29670Y-47265D01*
X29622Y-47265D01*
X29611Y-47261D01*
X29530Y-47253D01*
X29450Y-47260D01*
X29434Y-47265D01*
X29331Y-47265D01*
X29278Y-47276D01*
X29227Y-47296D01*
X29182Y-47326D01*
X29144Y-47365D01*
X29114Y-47410D01*
X29093Y-47460D01*
X29082Y-47513D01*
X29082Y-47553D01*
X29047Y-47576D01*
X29008Y-47615D01*
X28978Y-47660D01*
X28958Y-47710D01*
X28947Y-47763D01*
X28947Y-47818D01*
X28947Y-48448D01*
X28958Y-48501D01*
X28978Y-48551D01*
X29008Y-48596D01*
X29047Y-48635D01*
X29092Y-48665D01*
X29112Y-48673D01*
X29112Y-49074D01*
X28545Y-49074D01*
X28474Y-49067D01*
X28407Y-49047D01*
X28346Y-49014D01*
X28292Y-48970D01*
X28248Y-48917D01*
X28216Y-48855D01*
X28195Y-48789D01*
X28188Y-48718D01*
X28188Y-45769D01*
X28195Y-45698D01*
X28216Y-45632D01*
X28248Y-45570D01*
X28292Y-45517D01*
X28346Y-45473D01*
X28407Y-45440D01*
X28474Y-45420D01*
X28545Y-45413D01*
X30509Y-45413D01*
X30580Y-45420D01*
X30647Y-45440D01*
X30708Y-45473D01*
X30762Y-45517D01*
X30806Y-45570D01*
X30838Y-45632D01*
X30859Y-45698D01*
X30866Y-45769D01*
X30866Y-48718D01*
G54D10*
G36*
X30866Y-55411D02*
X30859Y-55482D01*
X30838Y-55548D01*
X30806Y-55610D01*
X30762Y-55663D01*
X30708Y-55707D01*
X30647Y-55740D01*
X30580Y-55760D01*
X30509Y-55767D01*
X28545Y-55767D01*
X28474Y-55760D01*
X28407Y-55740D01*
X28346Y-55707D01*
X28292Y-55663D01*
X28248Y-55610D01*
X28216Y-55548D01*
X28195Y-55482D01*
X28188Y-55411D01*
X28188Y-52462D01*
X28195Y-52391D01*
X28216Y-52325D01*
X28248Y-52263D01*
X28292Y-52210D01*
X28346Y-52166D01*
X28407Y-52133D01*
X28474Y-52113D01*
X28545Y-52106D01*
X30509Y-52106D01*
X30580Y-52113D01*
X30647Y-52133D01*
X30708Y-52166D01*
X30762Y-52210D01*
X30806Y-52263D01*
X30838Y-52325D01*
X30859Y-52391D01*
X30866Y-52462D01*
X30866Y-54383D01*
X30089Y-54383D01*
X30077Y-54353D01*
X30047Y-54308D01*
X30008Y-54269D01*
X29973Y-54246D01*
X29973Y-54206D01*
X29962Y-54153D01*
X29941Y-54103D01*
X29911Y-54058D01*
X29873Y-54019D01*
X29828Y-53989D01*
X29777Y-53969D01*
X29724Y-53958D01*
X29670Y-53958D01*
X29622Y-53958D01*
X29611Y-53954D01*
X29530Y-53946D01*
X29450Y-53953D01*
X29434Y-53958D01*
X29331Y-53958D01*
X29278Y-53969D01*
X29227Y-53989D01*
X29182Y-54019D01*
X29144Y-54058D01*
X29114Y-54103D01*
X29093Y-54153D01*
X29082Y-54206D01*
X29082Y-54246D01*
X29047Y-54269D01*
X29008Y-54308D01*
X28978Y-54353D01*
X28958Y-54403D01*
X28947Y-54456D01*
X28947Y-54511D01*
X28947Y-55141D01*
X28958Y-55194D01*
X28978Y-55244D01*
X29008Y-55289D01*
X29047Y-55328D01*
X29092Y-55358D01*
X29142Y-55378D01*
X29195Y-55389D01*
X29250Y-55389D01*
X29860Y-55389D01*
X29913Y-55378D01*
X29963Y-55358D01*
X30008Y-55328D01*
X30047Y-55289D01*
X30077Y-55244D01*
X30089Y-55214D01*
X30866Y-55214D01*
X30866Y-55411D01*
X30866Y-55411D01*
G37*
G54D29*
X30866Y-55411D02*
X30859Y-55482D01*
X30838Y-55548D01*
X30806Y-55610D01*
X30762Y-55663D01*
X30708Y-55707D01*
X30647Y-55740D01*
X30580Y-55760D01*
X30509Y-55767D01*
X28545Y-55767D01*
X28474Y-55760D01*
X28407Y-55740D01*
X28346Y-55707D01*
X28292Y-55663D01*
X28248Y-55610D01*
X28216Y-55548D01*
X28195Y-55482D01*
X28188Y-55411D01*
X28188Y-52462D01*
X28195Y-52391D01*
X28216Y-52325D01*
X28248Y-52263D01*
X28292Y-52210D01*
X28346Y-52166D01*
X28407Y-52133D01*
X28474Y-52113D01*
X28545Y-52106D01*
X30509Y-52106D01*
X30580Y-52113D01*
X30647Y-52133D01*
X30708Y-52166D01*
X30762Y-52210D01*
X30806Y-52263D01*
X30838Y-52325D01*
X30859Y-52391D01*
X30866Y-52462D01*
X30866Y-54383D01*
X30089Y-54383D01*
X30077Y-54353D01*
X30047Y-54308D01*
X30008Y-54269D01*
X29973Y-54246D01*
X29973Y-54206D01*
X29962Y-54153D01*
X29941Y-54103D01*
X29911Y-54058D01*
X29873Y-54019D01*
X29828Y-53989D01*
X29777Y-53969D01*
X29724Y-53958D01*
X29670Y-53958D01*
X29622Y-53958D01*
X29611Y-53954D01*
X29530Y-53946D01*
X29450Y-53953D01*
X29434Y-53958D01*
X29331Y-53958D01*
X29278Y-53969D01*
X29227Y-53989D01*
X29182Y-54019D01*
X29144Y-54058D01*
X29114Y-54103D01*
X29093Y-54153D01*
X29082Y-54206D01*
X29082Y-54246D01*
X29047Y-54269D01*
X29008Y-54308D01*
X28978Y-54353D01*
X28958Y-54403D01*
X28947Y-54456D01*
X28947Y-54511D01*
X28947Y-55141D01*
X28958Y-55194D01*
X28978Y-55244D01*
X29008Y-55289D01*
X29047Y-55328D01*
X29092Y-55358D01*
X29142Y-55378D01*
X29195Y-55389D01*
X29250Y-55389D01*
X29860Y-55389D01*
X29913Y-55378D01*
X29963Y-55358D01*
X30008Y-55328D01*
X30047Y-55289D01*
X30077Y-55244D01*
X30089Y-55214D01*
X30866Y-55214D01*
X30866Y-55411D01*
G54D10*
G36*
X40314Y-48718D02*
X40307Y-48789D01*
X40287Y-48855D01*
X40255Y-48917D01*
X40211Y-48970D01*
X40157Y-49014D01*
X40096Y-49047D01*
X40029Y-49067D01*
X39958Y-49074D01*
X37994Y-49074D01*
X37923Y-49067D01*
X37856Y-49047D01*
X37795Y-49014D01*
X37741Y-48970D01*
X37697Y-48917D01*
X37664Y-48855D01*
X37644Y-48789D01*
X37637Y-48718D01*
X37637Y-45769D01*
X37644Y-45698D01*
X37664Y-45632D01*
X37697Y-45570D01*
X37741Y-45517D01*
X37795Y-45473D01*
X37856Y-45440D01*
X37923Y-45420D01*
X37994Y-45413D01*
X38560Y-45413D01*
X38560Y-45814D01*
X38540Y-45822D01*
X38495Y-45852D01*
X38456Y-45891D01*
X38426Y-45936D01*
X38406Y-45986D01*
X38395Y-46039D01*
X38395Y-46094D01*
X38395Y-46724D01*
X38406Y-46777D01*
X38426Y-46827D01*
X38456Y-46872D01*
X38495Y-46911D01*
X38530Y-46934D01*
X38530Y-46974D01*
X38541Y-47027D01*
X38562Y-47077D01*
X38592Y-47122D01*
X38630Y-47161D01*
X38675Y-47191D01*
X38726Y-47211D01*
X38779Y-47222D01*
X38833Y-47222D01*
X38881Y-47222D01*
X38892Y-47226D01*
X38973Y-47234D01*
X39053Y-47227D01*
X39069Y-47222D01*
X39172Y-47222D01*
X39225Y-47211D01*
X39276Y-47191D01*
X39321Y-47161D01*
X39359Y-47122D01*
X39389Y-47077D01*
X39410Y-47027D01*
X39421Y-46974D01*
X39421Y-46934D01*
X39456Y-46911D01*
X39495Y-46872D01*
X39525Y-46827D01*
X39545Y-46777D01*
X39556Y-46724D01*
X39556Y-46669D01*
X39556Y-46039D01*
X39545Y-45986D01*
X39525Y-45936D01*
X39495Y-45891D01*
X39456Y-45852D01*
X39411Y-45822D01*
X39391Y-45814D01*
X39391Y-45413D01*
X39958Y-45413D01*
X40029Y-45420D01*
X40096Y-45440D01*
X40157Y-45473D01*
X40211Y-45517D01*
X40255Y-45570D01*
X40287Y-45632D01*
X40307Y-45698D01*
X40314Y-45769D01*
X40314Y-48718D01*
X40314Y-48718D01*
G37*
G54D29*
X40314Y-48718D02*
X40307Y-48789D01*
X40287Y-48855D01*
X40255Y-48917D01*
X40211Y-48970D01*
X40157Y-49014D01*
X40096Y-49047D01*
X40029Y-49067D01*
X39958Y-49074D01*
X37994Y-49074D01*
X37923Y-49067D01*
X37856Y-49047D01*
X37795Y-49014D01*
X37741Y-48970D01*
X37697Y-48917D01*
X37664Y-48855D01*
X37644Y-48789D01*
X37637Y-48718D01*
X37637Y-45769D01*
X37644Y-45698D01*
X37664Y-45632D01*
X37697Y-45570D01*
X37741Y-45517D01*
X37795Y-45473D01*
X37856Y-45440D01*
X37923Y-45420D01*
X37994Y-45413D01*
X38560Y-45413D01*
X38560Y-45814D01*
X38540Y-45822D01*
X38495Y-45852D01*
X38456Y-45891D01*
X38426Y-45936D01*
X38406Y-45986D01*
X38395Y-46039D01*
X38395Y-46094D01*
X38395Y-46724D01*
X38406Y-46777D01*
X38426Y-46827D01*
X38456Y-46872D01*
X38495Y-46911D01*
X38530Y-46934D01*
X38530Y-46974D01*
X38541Y-47027D01*
X38562Y-47077D01*
X38592Y-47122D01*
X38630Y-47161D01*
X38675Y-47191D01*
X38726Y-47211D01*
X38779Y-47222D01*
X38833Y-47222D01*
X38881Y-47222D01*
X38892Y-47226D01*
X38973Y-47234D01*
X39053Y-47227D01*
X39069Y-47222D01*
X39172Y-47222D01*
X39225Y-47211D01*
X39276Y-47191D01*
X39321Y-47161D01*
X39359Y-47122D01*
X39389Y-47077D01*
X39410Y-47027D01*
X39421Y-46974D01*
X39421Y-46934D01*
X39456Y-46911D01*
X39495Y-46872D01*
X39525Y-46827D01*
X39545Y-46777D01*
X39556Y-46724D01*
X39556Y-46669D01*
X39556Y-46039D01*
X39545Y-45986D01*
X39525Y-45936D01*
X39495Y-45891D01*
X39456Y-45852D01*
X39411Y-45822D01*
X39391Y-45814D01*
X39391Y-45413D01*
X39958Y-45413D01*
X40029Y-45420D01*
X40096Y-45440D01*
X40157Y-45473D01*
X40211Y-45517D01*
X40255Y-45570D01*
X40287Y-45632D01*
X40307Y-45698D01*
X40314Y-45769D01*
X40314Y-48718D01*
G54D10*
G36*
X40314Y-55411D02*
X40307Y-55482D01*
X40287Y-55548D01*
X40255Y-55610D01*
X40211Y-55663D01*
X40157Y-55707D01*
X40096Y-55740D01*
X40029Y-55760D01*
X39958Y-55767D01*
X37994Y-55767D01*
X37923Y-55760D01*
X37856Y-55740D01*
X37795Y-55707D01*
X37741Y-55663D01*
X37697Y-55610D01*
X37664Y-55548D01*
X37644Y-55482D01*
X37637Y-55411D01*
X37637Y-52462D01*
X37644Y-52391D01*
X37664Y-52325D01*
X37697Y-52263D01*
X37741Y-52210D01*
X37795Y-52166D01*
X37856Y-52133D01*
X37923Y-52113D01*
X37994Y-52106D01*
X38560Y-52106D01*
X38560Y-52507D01*
X38540Y-52515D01*
X38495Y-52545D01*
X38456Y-52584D01*
X38426Y-52629D01*
X38406Y-52679D01*
X38395Y-52732D01*
X38395Y-52787D01*
X38395Y-53417D01*
X38406Y-53470D01*
X38426Y-53520D01*
X38456Y-53565D01*
X38495Y-53604D01*
X38530Y-53627D01*
X38530Y-53667D01*
X38541Y-53720D01*
X38562Y-53770D01*
X38592Y-53815D01*
X38630Y-53854D01*
X38675Y-53884D01*
X38726Y-53904D01*
X38779Y-53915D01*
X38833Y-53915D01*
X38881Y-53915D01*
X38892Y-53919D01*
X38973Y-53927D01*
X39053Y-53920D01*
X39069Y-53915D01*
X39172Y-53915D01*
X39225Y-53904D01*
X39276Y-53884D01*
X39321Y-53854D01*
X39359Y-53815D01*
X39389Y-53770D01*
X39410Y-53720D01*
X39421Y-53667D01*
X39421Y-53627D01*
X39456Y-53604D01*
X39495Y-53565D01*
X39525Y-53520D01*
X39545Y-53470D01*
X39556Y-53417D01*
X39556Y-53362D01*
X39556Y-52732D01*
X39545Y-52679D01*
X39525Y-52629D01*
X39495Y-52584D01*
X39456Y-52545D01*
X39411Y-52515D01*
X39391Y-52507D01*
X39391Y-52106D01*
X39958Y-52106D01*
X40029Y-52113D01*
X40096Y-52133D01*
X40157Y-52166D01*
X40211Y-52210D01*
X40255Y-52263D01*
X40287Y-52325D01*
X40307Y-52391D01*
X40314Y-52462D01*
X40314Y-55411D01*
X40314Y-55411D01*
G37*
G54D29*
X40314Y-55411D02*
X40307Y-55482D01*
X40287Y-55548D01*
X40255Y-55610D01*
X40211Y-55663D01*
X40157Y-55707D01*
X40096Y-55740D01*
X40029Y-55760D01*
X39958Y-55767D01*
X37994Y-55767D01*
X37923Y-55760D01*
X37856Y-55740D01*
X37795Y-55707D01*
X37741Y-55663D01*
X37697Y-55610D01*
X37664Y-55548D01*
X37644Y-55482D01*
X37637Y-55411D01*
X37637Y-52462D01*
X37644Y-52391D01*
X37664Y-52325D01*
X37697Y-52263D01*
X37741Y-52210D01*
X37795Y-52166D01*
X37856Y-52133D01*
X37923Y-52113D01*
X37994Y-52106D01*
X38560Y-52106D01*
X38560Y-52507D01*
X38540Y-52515D01*
X38495Y-52545D01*
X38456Y-52584D01*
X38426Y-52629D01*
X38406Y-52679D01*
X38395Y-52732D01*
X38395Y-52787D01*
X38395Y-53417D01*
X38406Y-53470D01*
X38426Y-53520D01*
X38456Y-53565D01*
X38495Y-53604D01*
X38530Y-53627D01*
X38530Y-53667D01*
X38541Y-53720D01*
X38562Y-53770D01*
X38592Y-53815D01*
X38630Y-53854D01*
X38675Y-53884D01*
X38726Y-53904D01*
X38779Y-53915D01*
X38833Y-53915D01*
X38881Y-53915D01*
X38892Y-53919D01*
X38973Y-53927D01*
X39053Y-53920D01*
X39069Y-53915D01*
X39172Y-53915D01*
X39225Y-53904D01*
X39276Y-53884D01*
X39321Y-53854D01*
X39359Y-53815D01*
X39389Y-53770D01*
X39410Y-53720D01*
X39421Y-53667D01*
X39421Y-53627D01*
X39456Y-53604D01*
X39495Y-53565D01*
X39525Y-53520D01*
X39545Y-53470D01*
X39556Y-53417D01*
X39556Y-53362D01*
X39556Y-52732D01*
X39545Y-52679D01*
X39525Y-52629D01*
X39495Y-52584D01*
X39456Y-52545D01*
X39411Y-52515D01*
X39391Y-52507D01*
X39391Y-52106D01*
X39958Y-52106D01*
X40029Y-52113D01*
X40096Y-52133D01*
X40157Y-52166D01*
X40211Y-52210D01*
X40255Y-52263D01*
X40287Y-52325D01*
X40307Y-52391D01*
X40314Y-52462D01*
X40314Y-55411D01*
G54D10*
G36*
X43858Y-53866D02*
X43457Y-53866D01*
X43457Y-42277D01*
X43457Y-41482D01*
X42597Y-41482D01*
X42597Y-41024D01*
X42590Y-40986D01*
X42575Y-40950D01*
X42554Y-40918D01*
X42526Y-40891D01*
X42494Y-40869D01*
X42458Y-40855D01*
X42420Y-40847D01*
X42382Y-40847D01*
X41871Y-40847D01*
X41833Y-40855D01*
X41797Y-40869D01*
X41765Y-40891D01*
X41737Y-40918D01*
X41716Y-40950D01*
X41701Y-40986D01*
X41694Y-41024D01*
X41694Y-41063D01*
X41694Y-41653D01*
X41701Y-41691D01*
X41716Y-41727D01*
X41737Y-41759D01*
X41765Y-41786D01*
X41797Y-41808D01*
X41833Y-41822D01*
X41848Y-41825D01*
X41848Y-41934D01*
X41833Y-41937D01*
X41797Y-41951D01*
X41765Y-41973D01*
X41737Y-42000D01*
X41716Y-42032D01*
X41701Y-42068D01*
X41694Y-42106D01*
X41694Y-42145D01*
X41694Y-42735D01*
X41701Y-42773D01*
X41716Y-42809D01*
X41737Y-42841D01*
X41765Y-42868D01*
X41797Y-42890D01*
X41833Y-42904D01*
X41848Y-42907D01*
X41848Y-44114D01*
X41851Y-44141D01*
X41853Y-44168D01*
X41854Y-44170D01*
X41854Y-44171D01*
X41862Y-44198D01*
X41869Y-44224D01*
X41870Y-44225D01*
X41870Y-44227D01*
X41883Y-44251D01*
X41896Y-44276D01*
X41897Y-44277D01*
X41898Y-44278D01*
X41915Y-44299D01*
X41932Y-44321D01*
X41934Y-44323D01*
X41934Y-44323D01*
X41934Y-44323D01*
X41935Y-44324D01*
X42419Y-44808D01*
X42419Y-46946D01*
X41972Y-46946D01*
X41995Y-46897D01*
X42015Y-46804D01*
X42017Y-46696D01*
X41999Y-46603D01*
X41963Y-46516D01*
X41910Y-46437D01*
X41844Y-46370D01*
X41765Y-46317D01*
X41678Y-46280D01*
X41585Y-46261D01*
X41491Y-46261D01*
X41398Y-46278D01*
X41310Y-46314D01*
X41231Y-46366D01*
X41163Y-46432D01*
X41110Y-46510D01*
X41072Y-46597D01*
X41053Y-46689D01*
X41051Y-46784D01*
X41068Y-46877D01*
X41103Y-46965D01*
X41155Y-47045D01*
X41220Y-47113D01*
X41237Y-47124D01*
X41237Y-47244D01*
X41237Y-47362D01*
X41231Y-47366D01*
X41163Y-47432D01*
X41110Y-47510D01*
X41072Y-47597D01*
X41053Y-47689D01*
X41051Y-47784D01*
X41068Y-47877D01*
X41103Y-47965D01*
X41155Y-48045D01*
X41220Y-48113D01*
X41298Y-48167D01*
X41385Y-48205D01*
X41477Y-48225D01*
X41572Y-48227D01*
X41665Y-48210D01*
X41753Y-48176D01*
X41833Y-48126D01*
X41902Y-48060D01*
X41956Y-47983D01*
X41995Y-47897D01*
X42015Y-47804D01*
X42017Y-47696D01*
X41999Y-47603D01*
X41973Y-47541D01*
X42717Y-47541D01*
X42744Y-47538D01*
X42772Y-47536D01*
X42773Y-47535D01*
X42774Y-47535D01*
X42801Y-47527D01*
X42828Y-47519D01*
X42829Y-47519D01*
X42830Y-47519D01*
X42855Y-47505D01*
X42879Y-47492D01*
X42880Y-47492D01*
X42881Y-47491D01*
X42903Y-47474D01*
X42925Y-47456D01*
X42925Y-47455D01*
X42926Y-47455D01*
X42944Y-47433D01*
X42962Y-47412D01*
X42962Y-47411D01*
X42963Y-47410D01*
X42976Y-47385D01*
X42990Y-47361D01*
X42990Y-47360D01*
X42991Y-47359D01*
X42999Y-47332D01*
X43007Y-47305D01*
X43008Y-47304D01*
X43008Y-47303D01*
X43011Y-47275D01*
X43014Y-47248D01*
X43014Y-47246D01*
X43014Y-47246D01*
X43014Y-47246D01*
X43014Y-47244D01*
X43014Y-44685D01*
X43011Y-44657D01*
X43009Y-44630D01*
X43008Y-44628D01*
X43008Y-44627D01*
X43000Y-44600D01*
X42993Y-44574D01*
X42992Y-44573D01*
X42992Y-44571D01*
X42979Y-44547D01*
X42966Y-44522D01*
X42965Y-44521D01*
X42964Y-44520D01*
X42947Y-44499D01*
X42930Y-44477D01*
X42928Y-44475D01*
X42928Y-44475D01*
X42928Y-44475D01*
X42927Y-44474D01*
X42443Y-43990D01*
X42443Y-42907D01*
X42458Y-42904D01*
X42494Y-42890D01*
X42526Y-42868D01*
X42554Y-42841D01*
X42575Y-42809D01*
X42590Y-42773D01*
X42597Y-42735D01*
X42597Y-42696D01*
X42597Y-42277D01*
X43457Y-42277D01*
X43457Y-53866D01*
X42362Y-53866D01*
X42362Y-53986D01*
X42086Y-54038D01*
X42017Y-54066D01*
X42017Y-49696D01*
X42017Y-48696D01*
X41999Y-48603D01*
X41963Y-48516D01*
X41910Y-48437D01*
X41844Y-48370D01*
X41765Y-48317D01*
X41678Y-48280D01*
X41585Y-48261D01*
X41491Y-48261D01*
X41398Y-48278D01*
X41310Y-48314D01*
X41231Y-48366D01*
X41163Y-48432D01*
X41110Y-48510D01*
X41072Y-48597D01*
X41053Y-48689D01*
X41051Y-48784D01*
X41068Y-48877D01*
X41103Y-48965D01*
X41155Y-49045D01*
X41220Y-49113D01*
X41298Y-49167D01*
X41385Y-49205D01*
X41477Y-49225D01*
X41572Y-49227D01*
X41665Y-49210D01*
X41753Y-49176D01*
X41833Y-49126D01*
X41902Y-49060D01*
X41956Y-48983D01*
X41995Y-48897D01*
X42015Y-48804D01*
X42017Y-48696D01*
X42017Y-49696D01*
X41999Y-49603D01*
X41963Y-49516D01*
X41910Y-49437D01*
X41844Y-49370D01*
X41765Y-49317D01*
X41678Y-49280D01*
X41585Y-49261D01*
X41491Y-49261D01*
X41398Y-49278D01*
X41310Y-49314D01*
X41231Y-49366D01*
X41163Y-49432D01*
X41110Y-49510D01*
X41072Y-49597D01*
X41053Y-49689D01*
X41051Y-49784D01*
X41068Y-49877D01*
X41103Y-49965D01*
X41155Y-50045D01*
X41220Y-50113D01*
X41298Y-50167D01*
X41385Y-50205D01*
X41477Y-50225D01*
X41572Y-50227D01*
X41665Y-50210D01*
X41753Y-50176D01*
X41833Y-50126D01*
X41902Y-50060D01*
X41956Y-49983D01*
X41995Y-49897D01*
X42015Y-49804D01*
X42017Y-49696D01*
X42017Y-54066D01*
X41808Y-54151D01*
X41557Y-54315D01*
X41343Y-54524D01*
X41174Y-54772D01*
X41056Y-55047D01*
X40993Y-55340D01*
X40993Y-55354D01*
X40874Y-55354D01*
X40874Y-56850D01*
X40688Y-56850D01*
X40688Y-55710D01*
X40688Y-38777D01*
X40680Y-38695D01*
X40656Y-38613D01*
X40616Y-38538D01*
X40562Y-38473D01*
X40496Y-38419D01*
X40421Y-38379D01*
X40340Y-38354D01*
X40257Y-38346D01*
X28246Y-38346D01*
X28163Y-38354D01*
X28082Y-38379D01*
X28007Y-38419D01*
X27941Y-38473D01*
X27887Y-38538D01*
X27847Y-38613D01*
X27823Y-38695D01*
X27814Y-38777D01*
X27814Y-43646D01*
X27798Y-43637D01*
X27774Y-43624D01*
X27773Y-43623D01*
X27771Y-43623D01*
X27745Y-43614D01*
X27719Y-43606D01*
X27717Y-43606D01*
X27716Y-43606D01*
X27688Y-43603D01*
X27661Y-43600D01*
X27658Y-43600D01*
X27658Y-43600D01*
X27658Y-43600D01*
X27657Y-43600D01*
X25907Y-43600D01*
X25907Y-42907D01*
X25922Y-42904D01*
X25958Y-42890D01*
X25990Y-42868D01*
X26018Y-42841D01*
X26039Y-42809D01*
X26054Y-42773D01*
X26061Y-42735D01*
X26061Y-42696D01*
X26061Y-42257D01*
X26937Y-42257D01*
X26937Y-41542D01*
X26061Y-41542D01*
X26061Y-41024D01*
X26054Y-40986D01*
X26039Y-40950D01*
X26018Y-40918D01*
X25990Y-40891D01*
X25958Y-40869D01*
X25922Y-40855D01*
X25884Y-40847D01*
X25846Y-40847D01*
X25335Y-40847D01*
X25297Y-40855D01*
X25261Y-40869D01*
X25229Y-40891D01*
X25201Y-40918D01*
X25180Y-40950D01*
X25165Y-40986D01*
X25158Y-41024D01*
X25158Y-41063D01*
X25158Y-41653D01*
X25165Y-41691D01*
X25180Y-41727D01*
X25201Y-41759D01*
X25229Y-41786D01*
X25261Y-41808D01*
X25297Y-41822D01*
X25312Y-41825D01*
X25312Y-41934D01*
X25297Y-41937D01*
X25261Y-41951D01*
X25229Y-41973D01*
X25201Y-42000D01*
X25180Y-42032D01*
X25165Y-42068D01*
X25158Y-42106D01*
X25158Y-42145D01*
X25158Y-42735D01*
X25165Y-42773D01*
X25180Y-42809D01*
X25201Y-42841D01*
X25229Y-42868D01*
X25261Y-42890D01*
X25297Y-42904D01*
X25312Y-42907D01*
X25312Y-43897D01*
X25312Y-47244D01*
X25315Y-47271D01*
X25317Y-47299D01*
X25318Y-47300D01*
X25318Y-47301D01*
X25326Y-47328D01*
X25334Y-47355D01*
X25334Y-47356D01*
X25334Y-47357D01*
X25348Y-47382D01*
X25361Y-47406D01*
X25361Y-47407D01*
X25362Y-47408D01*
X25379Y-47430D01*
X25397Y-47452D01*
X25398Y-47452D01*
X25398Y-47453D01*
X25420Y-47471D01*
X25441Y-47489D01*
X25442Y-47489D01*
X25443Y-47490D01*
X25468Y-47503D01*
X25492Y-47517D01*
X25493Y-47517D01*
X25494Y-47518D01*
X25521Y-47526D01*
X25548Y-47534D01*
X25549Y-47535D01*
X25550Y-47535D01*
X25578Y-47538D01*
X25605Y-47541D01*
X25607Y-47541D01*
X25607Y-47541D01*
X25607Y-47541D01*
X25610Y-47541D01*
X26530Y-47541D01*
X26506Y-47597D01*
X26487Y-47689D01*
X26485Y-47784D01*
X26502Y-47877D01*
X26537Y-47965D01*
X26589Y-48045D01*
X26654Y-48113D01*
X26732Y-48167D01*
X26819Y-48205D01*
X26911Y-48225D01*
X27006Y-48227D01*
X27099Y-48210D01*
X27187Y-48176D01*
X27267Y-48126D01*
X27336Y-48060D01*
X27390Y-47983D01*
X27429Y-47897D01*
X27449Y-47804D01*
X27451Y-47696D01*
X27433Y-47603D01*
X27397Y-47516D01*
X27344Y-47437D01*
X27278Y-47370D01*
X27266Y-47362D01*
X27266Y-47244D01*
X27266Y-47126D01*
X27267Y-47126D01*
X27336Y-47060D01*
X27390Y-46983D01*
X27429Y-46897D01*
X27449Y-46804D01*
X27451Y-46696D01*
X27433Y-46603D01*
X27397Y-46516D01*
X27344Y-46437D01*
X27278Y-46370D01*
X27199Y-46317D01*
X27112Y-46280D01*
X27019Y-46261D01*
X26925Y-46261D01*
X26832Y-46278D01*
X26744Y-46314D01*
X26665Y-46366D01*
X26597Y-46432D01*
X26544Y-46510D01*
X26506Y-46597D01*
X26487Y-46689D01*
X26485Y-46784D01*
X26502Y-46877D01*
X26530Y-46946D01*
X25907Y-46946D01*
X25907Y-44195D01*
X27534Y-44195D01*
X27722Y-44383D01*
X27743Y-44400D01*
X27764Y-44418D01*
X27766Y-44419D01*
X27767Y-44420D01*
X27791Y-44433D01*
X27814Y-44446D01*
X27814Y-55710D01*
X27823Y-55793D01*
X27847Y-55874D01*
X27887Y-55949D01*
X27941Y-56015D01*
X28007Y-56068D01*
X28082Y-56108D01*
X28163Y-56133D01*
X28246Y-56141D01*
X40257Y-56141D01*
X40340Y-56133D01*
X40421Y-56108D01*
X40496Y-56068D01*
X40562Y-56015D01*
X40616Y-55949D01*
X40656Y-55874D01*
X40680Y-55793D01*
X40688Y-55710D01*
X40688Y-56850D01*
X40649Y-56850D01*
X27629Y-56850D01*
X27629Y-55354D01*
X27510Y-55354D01*
X27454Y-55068D01*
X27451Y-55061D01*
X27451Y-49696D01*
X27451Y-48696D01*
X27433Y-48603D01*
X27397Y-48516D01*
X27344Y-48437D01*
X27278Y-48370D01*
X27199Y-48317D01*
X27112Y-48280D01*
X27019Y-48261D01*
X26925Y-48261D01*
X26832Y-48278D01*
X26744Y-48314D01*
X26665Y-48366D01*
X26597Y-48432D01*
X26544Y-48510D01*
X26506Y-48597D01*
X26487Y-48689D01*
X26485Y-48784D01*
X26502Y-48877D01*
X26537Y-48965D01*
X26589Y-49045D01*
X26654Y-49113D01*
X26732Y-49167D01*
X26819Y-49205D01*
X26911Y-49225D01*
X27006Y-49227D01*
X27099Y-49210D01*
X27187Y-49176D01*
X27267Y-49126D01*
X27336Y-49060D01*
X27390Y-48983D01*
X27429Y-48897D01*
X27449Y-48804D01*
X27451Y-48696D01*
X27451Y-49696D01*
X27433Y-49603D01*
X27397Y-49516D01*
X27344Y-49437D01*
X27278Y-49370D01*
X27199Y-49317D01*
X27112Y-49280D01*
X27019Y-49261D01*
X26925Y-49261D01*
X26832Y-49278D01*
X26744Y-49314D01*
X26665Y-49366D01*
X26597Y-49432D01*
X26544Y-49510D01*
X26506Y-49597D01*
X26487Y-49689D01*
X26485Y-49784D01*
X26502Y-49877D01*
X26537Y-49965D01*
X26589Y-50045D01*
X26654Y-50113D01*
X26732Y-50167D01*
X26819Y-50205D01*
X26911Y-50225D01*
X27006Y-50227D01*
X27099Y-50210D01*
X27187Y-50176D01*
X27267Y-50126D01*
X27336Y-50060D01*
X27390Y-49983D01*
X27429Y-49897D01*
X27449Y-49804D01*
X27451Y-49696D01*
X27451Y-55061D01*
X27339Y-54791D01*
X27174Y-54541D01*
X26962Y-54328D01*
X26714Y-54161D01*
X26438Y-54044D01*
X26144Y-53984D01*
X26141Y-53984D01*
X26141Y-53866D01*
X24645Y-53866D01*
X24645Y-40622D01*
X26141Y-40622D01*
X26141Y-40500D01*
X26396Y-40455D01*
X26676Y-40346D01*
X26929Y-40186D01*
X27146Y-39979D01*
X27319Y-39734D01*
X27441Y-39460D01*
X27507Y-39168D01*
X27508Y-39133D01*
X27629Y-39133D01*
X27629Y-37637D01*
X40874Y-37637D01*
X40874Y-39133D01*
X40995Y-39133D01*
X41043Y-39399D01*
X41154Y-39677D01*
X41316Y-39929D01*
X41524Y-40145D01*
X41770Y-40316D01*
X42045Y-40436D01*
X42338Y-40500D01*
X42362Y-40501D01*
X42362Y-40622D01*
X43858Y-40622D01*
X43858Y-53866D01*
X43858Y-53866D01*
G37*
G54D29*
X43858Y-53866D02*
X43457Y-53866D01*
X43457Y-42277D01*
X43457Y-41482D01*
X42597Y-41482D01*
X42597Y-41024D01*
X42590Y-40986D01*
X42575Y-40950D01*
X42554Y-40918D01*
X42526Y-40891D01*
X42494Y-40869D01*
X42458Y-40855D01*
X42420Y-40847D01*
X42382Y-40847D01*
X41871Y-40847D01*
X41833Y-40855D01*
X41797Y-40869D01*
X41765Y-40891D01*
X41737Y-40918D01*
X41716Y-40950D01*
X41701Y-40986D01*
X41694Y-41024D01*
X41694Y-41063D01*
X41694Y-41653D01*
X41701Y-41691D01*
X41716Y-41727D01*
X41737Y-41759D01*
X41765Y-41786D01*
X41797Y-41808D01*
X41833Y-41822D01*
X41848Y-41825D01*
X41848Y-41934D01*
X41833Y-41937D01*
X41797Y-41951D01*
X41765Y-41973D01*
X41737Y-42000D01*
X41716Y-42032D01*
X41701Y-42068D01*
X41694Y-42106D01*
X41694Y-42145D01*
X41694Y-42735D01*
X41701Y-42773D01*
X41716Y-42809D01*
X41737Y-42841D01*
X41765Y-42868D01*
X41797Y-42890D01*
X41833Y-42904D01*
X41848Y-42907D01*
X41848Y-44114D01*
X41851Y-44141D01*
X41853Y-44168D01*
X41854Y-44170D01*
X41854Y-44171D01*
X41862Y-44198D01*
X41869Y-44224D01*
X41870Y-44225D01*
X41870Y-44227D01*
X41883Y-44251D01*
X41896Y-44276D01*
X41897Y-44277D01*
X41898Y-44278D01*
X41915Y-44299D01*
X41932Y-44321D01*
X41934Y-44323D01*
X41934Y-44323D01*
X41934Y-44323D01*
X41935Y-44324D01*
X42419Y-44808D01*
X42419Y-46946D01*
X41972Y-46946D01*
X41995Y-46897D01*
X42015Y-46804D01*
X42017Y-46696D01*
X41999Y-46603D01*
X41963Y-46516D01*
X41910Y-46437D01*
X41844Y-46370D01*
X41765Y-46317D01*
X41678Y-46280D01*
X41585Y-46261D01*
X41491Y-46261D01*
X41398Y-46278D01*
X41310Y-46314D01*
X41231Y-46366D01*
X41163Y-46432D01*
X41110Y-46510D01*
X41072Y-46597D01*
X41053Y-46689D01*
X41051Y-46784D01*
X41068Y-46877D01*
X41103Y-46965D01*
X41155Y-47045D01*
X41220Y-47113D01*
X41237Y-47124D01*
X41237Y-47244D01*
X41237Y-47362D01*
X41231Y-47366D01*
X41163Y-47432D01*
X41110Y-47510D01*
X41072Y-47597D01*
X41053Y-47689D01*
X41051Y-47784D01*
X41068Y-47877D01*
X41103Y-47965D01*
X41155Y-48045D01*
X41220Y-48113D01*
X41298Y-48167D01*
X41385Y-48205D01*
X41477Y-48225D01*
X41572Y-48227D01*
X41665Y-48210D01*
X41753Y-48176D01*
X41833Y-48126D01*
X41902Y-48060D01*
X41956Y-47983D01*
X41995Y-47897D01*
X42015Y-47804D01*
X42017Y-47696D01*
X41999Y-47603D01*
X41973Y-47541D01*
X42717Y-47541D01*
X42744Y-47538D01*
X42772Y-47536D01*
X42773Y-47535D01*
X42774Y-47535D01*
X42801Y-47527D01*
X42828Y-47519D01*
X42829Y-47519D01*
X42830Y-47519D01*
X42855Y-47505D01*
X42879Y-47492D01*
X42880Y-47492D01*
X42881Y-47491D01*
X42903Y-47474D01*
X42925Y-47456D01*
X42925Y-47455D01*
X42926Y-47455D01*
X42944Y-47433D01*
X42962Y-47412D01*
X42962Y-47411D01*
X42963Y-47410D01*
X42976Y-47385D01*
X42990Y-47361D01*
X42990Y-47360D01*
X42991Y-47359D01*
X42999Y-47332D01*
X43007Y-47305D01*
X43008Y-47304D01*
X43008Y-47303D01*
X43011Y-47275D01*
X43014Y-47248D01*
X43014Y-47246D01*
X43014Y-47246D01*
X43014Y-47246D01*
X43014Y-47244D01*
X43014Y-44685D01*
X43011Y-44657D01*
X43009Y-44630D01*
X43008Y-44628D01*
X43008Y-44627D01*
X43000Y-44600D01*
X42993Y-44574D01*
X42992Y-44573D01*
X42992Y-44571D01*
X42979Y-44547D01*
X42966Y-44522D01*
X42965Y-44521D01*
X42964Y-44520D01*
X42947Y-44499D01*
X42930Y-44477D01*
X42928Y-44475D01*
X42928Y-44475D01*
X42928Y-44475D01*
X42927Y-44474D01*
X42443Y-43990D01*
X42443Y-42907D01*
X42458Y-42904D01*
X42494Y-42890D01*
X42526Y-42868D01*
X42554Y-42841D01*
X42575Y-42809D01*
X42590Y-42773D01*
X42597Y-42735D01*
X42597Y-42696D01*
X42597Y-42277D01*
X43457Y-42277D01*
X43457Y-53866D01*
X42362Y-53866D01*
X42362Y-53986D01*
X42086Y-54038D01*
X42017Y-54066D01*
X42017Y-49696D01*
X42017Y-48696D01*
X41999Y-48603D01*
X41963Y-48516D01*
X41910Y-48437D01*
X41844Y-48370D01*
X41765Y-48317D01*
X41678Y-48280D01*
X41585Y-48261D01*
X41491Y-48261D01*
X41398Y-48278D01*
X41310Y-48314D01*
X41231Y-48366D01*
X41163Y-48432D01*
X41110Y-48510D01*
X41072Y-48597D01*
X41053Y-48689D01*
X41051Y-48784D01*
X41068Y-48877D01*
X41103Y-48965D01*
X41155Y-49045D01*
X41220Y-49113D01*
X41298Y-49167D01*
X41385Y-49205D01*
X41477Y-49225D01*
X41572Y-49227D01*
X41665Y-49210D01*
X41753Y-49176D01*
X41833Y-49126D01*
X41902Y-49060D01*
X41956Y-48983D01*
X41995Y-48897D01*
X42015Y-48804D01*
X42017Y-48696D01*
X42017Y-49696D01*
X41999Y-49603D01*
X41963Y-49516D01*
X41910Y-49437D01*
X41844Y-49370D01*
X41765Y-49317D01*
X41678Y-49280D01*
X41585Y-49261D01*
X41491Y-49261D01*
X41398Y-49278D01*
X41310Y-49314D01*
X41231Y-49366D01*
X41163Y-49432D01*
X41110Y-49510D01*
X41072Y-49597D01*
X41053Y-49689D01*
X41051Y-49784D01*
X41068Y-49877D01*
X41103Y-49965D01*
X41155Y-50045D01*
X41220Y-50113D01*
X41298Y-50167D01*
X41385Y-50205D01*
X41477Y-50225D01*
X41572Y-50227D01*
X41665Y-50210D01*
X41753Y-50176D01*
X41833Y-50126D01*
X41902Y-50060D01*
X41956Y-49983D01*
X41995Y-49897D01*
X42015Y-49804D01*
X42017Y-49696D01*
X42017Y-54066D01*
X41808Y-54151D01*
X41557Y-54315D01*
X41343Y-54524D01*
X41174Y-54772D01*
X41056Y-55047D01*
X40993Y-55340D01*
X40993Y-55354D01*
X40874Y-55354D01*
X40874Y-56850D01*
X40688Y-56850D01*
X40688Y-55710D01*
X40688Y-38777D01*
X40680Y-38695D01*
X40656Y-38613D01*
X40616Y-38538D01*
X40562Y-38473D01*
X40496Y-38419D01*
X40421Y-38379D01*
X40340Y-38354D01*
X40257Y-38346D01*
X28246Y-38346D01*
X28163Y-38354D01*
X28082Y-38379D01*
X28007Y-38419D01*
X27941Y-38473D01*
X27887Y-38538D01*
X27847Y-38613D01*
X27823Y-38695D01*
X27814Y-38777D01*
X27814Y-43646D01*
X27798Y-43637D01*
X27774Y-43624D01*
X27773Y-43623D01*
X27771Y-43623D01*
X27745Y-43614D01*
X27719Y-43606D01*
X27717Y-43606D01*
X27716Y-43606D01*
X27688Y-43603D01*
X27661Y-43600D01*
X27658Y-43600D01*
X27658Y-43600D01*
X27658Y-43600D01*
X27657Y-43600D01*
X25907Y-43600D01*
X25907Y-42907D01*
X25922Y-42904D01*
X25958Y-42890D01*
X25990Y-42868D01*
X26018Y-42841D01*
X26039Y-42809D01*
X26054Y-42773D01*
X26061Y-42735D01*
X26061Y-42696D01*
X26061Y-42257D01*
X26937Y-42257D01*
X26937Y-41542D01*
X26061Y-41542D01*
X26061Y-41024D01*
X26054Y-40986D01*
X26039Y-40950D01*
X26018Y-40918D01*
X25990Y-40891D01*
X25958Y-40869D01*
X25922Y-40855D01*
X25884Y-40847D01*
X25846Y-40847D01*
X25335Y-40847D01*
X25297Y-40855D01*
X25261Y-40869D01*
X25229Y-40891D01*
X25201Y-40918D01*
X25180Y-40950D01*
X25165Y-40986D01*
X25158Y-41024D01*
X25158Y-41063D01*
X25158Y-41653D01*
X25165Y-41691D01*
X25180Y-41727D01*
X25201Y-41759D01*
X25229Y-41786D01*
X25261Y-41808D01*
X25297Y-41822D01*
X25312Y-41825D01*
X25312Y-41934D01*
X25297Y-41937D01*
X25261Y-41951D01*
X25229Y-41973D01*
X25201Y-42000D01*
X25180Y-42032D01*
X25165Y-42068D01*
X25158Y-42106D01*
X25158Y-42145D01*
X25158Y-42735D01*
X25165Y-42773D01*
X25180Y-42809D01*
X25201Y-42841D01*
X25229Y-42868D01*
X25261Y-42890D01*
X25297Y-42904D01*
X25312Y-42907D01*
X25312Y-43897D01*
X25312Y-47244D01*
X25315Y-47271D01*
X25317Y-47299D01*
X25318Y-47300D01*
X25318Y-47301D01*
X25326Y-47328D01*
X25334Y-47355D01*
X25334Y-47356D01*
X25334Y-47357D01*
X25348Y-47382D01*
X25361Y-47406D01*
X25361Y-47407D01*
X25362Y-47408D01*
X25379Y-47430D01*
X25397Y-47452D01*
X25398Y-47452D01*
X25398Y-47453D01*
X25420Y-47471D01*
X25441Y-47489D01*
X25442Y-47489D01*
X25443Y-47490D01*
X25468Y-47503D01*
X25492Y-47517D01*
X25493Y-47517D01*
X25494Y-47518D01*
X25521Y-47526D01*
X25548Y-47534D01*
X25549Y-47535D01*
X25550Y-47535D01*
X25578Y-47538D01*
X25605Y-47541D01*
X25607Y-47541D01*
X25607Y-47541D01*
X25607Y-47541D01*
X25610Y-47541D01*
X26530Y-47541D01*
X26506Y-47597D01*
X26487Y-47689D01*
X26485Y-47784D01*
X26502Y-47877D01*
X26537Y-47965D01*
X26589Y-48045D01*
X26654Y-48113D01*
X26732Y-48167D01*
X26819Y-48205D01*
X26911Y-48225D01*
X27006Y-48227D01*
X27099Y-48210D01*
X27187Y-48176D01*
X27267Y-48126D01*
X27336Y-48060D01*
X27390Y-47983D01*
X27429Y-47897D01*
X27449Y-47804D01*
X27451Y-47696D01*
X27433Y-47603D01*
X27397Y-47516D01*
X27344Y-47437D01*
X27278Y-47370D01*
X27266Y-47362D01*
X27266Y-47244D01*
X27266Y-47126D01*
X27267Y-47126D01*
X27336Y-47060D01*
X27390Y-46983D01*
X27429Y-46897D01*
X27449Y-46804D01*
X27451Y-46696D01*
X27433Y-46603D01*
X27397Y-46516D01*
X27344Y-46437D01*
X27278Y-46370D01*
X27199Y-46317D01*
X27112Y-46280D01*
X27019Y-46261D01*
X26925Y-46261D01*
X26832Y-46278D01*
X26744Y-46314D01*
X26665Y-46366D01*
X26597Y-46432D01*
X26544Y-46510D01*
X26506Y-46597D01*
X26487Y-46689D01*
X26485Y-46784D01*
X26502Y-46877D01*
X26530Y-46946D01*
X25907Y-46946D01*
X25907Y-44195D01*
X27534Y-44195D01*
X27722Y-44383D01*
X27743Y-44400D01*
X27764Y-44418D01*
X27766Y-44419D01*
X27767Y-44420D01*
X27791Y-44433D01*
X27814Y-44446D01*
X27814Y-55710D01*
X27823Y-55793D01*
X27847Y-55874D01*
X27887Y-55949D01*
X27941Y-56015D01*
X28007Y-56068D01*
X28082Y-56108D01*
X28163Y-56133D01*
X28246Y-56141D01*
X40257Y-56141D01*
X40340Y-56133D01*
X40421Y-56108D01*
X40496Y-56068D01*
X40562Y-56015D01*
X40616Y-55949D01*
X40656Y-55874D01*
X40680Y-55793D01*
X40688Y-55710D01*
X40688Y-56850D01*
X40649Y-56850D01*
X27629Y-56850D01*
X27629Y-55354D01*
X27510Y-55354D01*
X27454Y-55068D01*
X27451Y-55061D01*
X27451Y-49696D01*
X27451Y-48696D01*
X27433Y-48603D01*
X27397Y-48516D01*
X27344Y-48437D01*
X27278Y-48370D01*
X27199Y-48317D01*
X27112Y-48280D01*
X27019Y-48261D01*
X26925Y-48261D01*
X26832Y-48278D01*
X26744Y-48314D01*
X26665Y-48366D01*
X26597Y-48432D01*
X26544Y-48510D01*
X26506Y-48597D01*
X26487Y-48689D01*
X26485Y-48784D01*
X26502Y-48877D01*
X26537Y-48965D01*
X26589Y-49045D01*
X26654Y-49113D01*
X26732Y-49167D01*
X26819Y-49205D01*
X26911Y-49225D01*
X27006Y-49227D01*
X27099Y-49210D01*
X27187Y-49176D01*
X27267Y-49126D01*
X27336Y-49060D01*
X27390Y-48983D01*
X27429Y-48897D01*
X27449Y-48804D01*
X27451Y-48696D01*
X27451Y-49696D01*
X27433Y-49603D01*
X27397Y-49516D01*
X27344Y-49437D01*
X27278Y-49370D01*
X27199Y-49317D01*
X27112Y-49280D01*
X27019Y-49261D01*
X26925Y-49261D01*
X26832Y-49278D01*
X26744Y-49314D01*
X26665Y-49366D01*
X26597Y-49432D01*
X26544Y-49510D01*
X26506Y-49597D01*
X26487Y-49689D01*
X26485Y-49784D01*
X26502Y-49877D01*
X26537Y-49965D01*
X26589Y-50045D01*
X26654Y-50113D01*
X26732Y-50167D01*
X26819Y-50205D01*
X26911Y-50225D01*
X27006Y-50227D01*
X27099Y-50210D01*
X27187Y-50176D01*
X27267Y-50126D01*
X27336Y-50060D01*
X27390Y-49983D01*
X27429Y-49897D01*
X27449Y-49804D01*
X27451Y-49696D01*
X27451Y-55061D01*
X27339Y-54791D01*
X27174Y-54541D01*
X26962Y-54328D01*
X26714Y-54161D01*
X26438Y-54044D01*
X26144Y-53984D01*
X26141Y-53984D01*
X26141Y-53866D01*
X24645Y-53866D01*
X24645Y-40622D01*
X26141Y-40622D01*
X26141Y-40500D01*
X26396Y-40455D01*
X26676Y-40346D01*
X26929Y-40186D01*
X27146Y-39979D01*
X27319Y-39734D01*
X27441Y-39460D01*
X27507Y-39168D01*
X27508Y-39133D01*
X27629Y-39133D01*
X27629Y-37637D01*
X40874Y-37637D01*
X40874Y-39133D01*
X40995Y-39133D01*
X41043Y-39399D01*
X41154Y-39677D01*
X41316Y-39929D01*
X41524Y-40145D01*
X41770Y-40316D01*
X42045Y-40436D01*
X42338Y-40500D01*
X42362Y-40501D01*
X42362Y-40622D01*
X43858Y-40622D01*
X43858Y-53866D01*
G54D10*
G36*
X29111Y-42921D02*
X29102Y-42925D01*
X29056Y-42955D01*
X29018Y-42994D01*
X28988Y-43039D01*
X28967Y-43089D01*
X28956Y-43142D01*
X28956Y-43196D01*
X28956Y-43707D01*
X28966Y-43757D01*
X28188Y-43757D01*
X28188Y-43112D01*
X28195Y-43041D01*
X28216Y-42974D01*
X28248Y-42913D01*
X28292Y-42859D01*
X28346Y-42815D01*
X28407Y-42783D01*
X28474Y-42762D01*
X28545Y-42755D01*
X29111Y-42755D01*
X29111Y-42921D01*
X29111Y-42921D01*
G37*
G54D29*
X29111Y-42921D02*
X29102Y-42925D01*
X29056Y-42955D01*
X29018Y-42994D01*
X28988Y-43039D01*
X28967Y-43089D01*
X28956Y-43142D01*
X28956Y-43196D01*
X28956Y-43707D01*
X28966Y-43757D01*
X28188Y-43757D01*
X28188Y-43112D01*
X28195Y-43041D01*
X28216Y-42974D01*
X28248Y-42913D01*
X28292Y-42859D01*
X28346Y-42815D01*
X28407Y-42783D01*
X28474Y-42762D01*
X28545Y-42755D01*
X29111Y-42755D01*
X29111Y-42921D01*
G54D10*
G36*
X29112Y-51732D02*
X28545Y-51732D01*
X28474Y-51725D01*
X28407Y-51705D01*
X28346Y-51672D01*
X28292Y-51628D01*
X28248Y-51574D01*
X28216Y-51513D01*
X28195Y-51447D01*
X28188Y-51376D01*
X28188Y-49805D01*
X28195Y-49734D01*
X28216Y-49667D01*
X28248Y-49606D01*
X28292Y-49552D01*
X28346Y-49508D01*
X28407Y-49475D01*
X28474Y-49455D01*
X28545Y-49448D01*
X29112Y-49448D01*
X29112Y-51732D01*
X29112Y-51732D01*
G37*
G54D29*
X29112Y-51732D02*
X28545Y-51732D01*
X28474Y-51725D01*
X28407Y-51705D01*
X28346Y-51672D01*
X28292Y-51628D01*
X28248Y-51574D01*
X28216Y-51513D01*
X28195Y-51447D01*
X28188Y-51376D01*
X28188Y-49805D01*
X28195Y-49734D01*
X28216Y-49667D01*
X28248Y-49606D01*
X28292Y-49552D01*
X28346Y-49508D01*
X28407Y-49475D01*
X28474Y-49455D01*
X28545Y-49448D01*
X29112Y-49448D01*
X29112Y-51732D01*
G54D10*
G36*
X30573Y-42755D02*
X30319Y-43009D01*
X30047Y-43009D01*
X30036Y-42994D01*
X29998Y-42955D01*
X29953Y-42925D01*
X29943Y-42921D01*
X29943Y-42755D01*
X30573Y-42755D01*
X30573Y-42755D01*
G37*
G54D29*
X30573Y-42755D02*
X30319Y-43009D01*
X30047Y-43009D01*
X30036Y-42994D01*
X29998Y-42955D01*
X29953Y-42925D01*
X29943Y-42921D01*
X29943Y-42755D01*
X30573Y-42755D01*
G54D10*
G36*
X31171Y-45238D02*
X31167Y-45231D01*
X31113Y-45166D01*
X31047Y-45112D01*
X30972Y-45072D01*
X30891Y-45047D01*
X30809Y-45039D01*
X28545Y-45039D01*
X28474Y-45032D01*
X28407Y-45012D01*
X28346Y-44979D01*
X28292Y-44935D01*
X28248Y-44881D01*
X28216Y-44820D01*
X28195Y-44754D01*
X28188Y-44683D01*
X28188Y-44588D01*
X29008Y-44588D01*
X29018Y-44604D01*
X29056Y-44642D01*
X29102Y-44672D01*
X29152Y-44693D01*
X29205Y-44704D01*
X29259Y-44704D01*
X29849Y-44704D01*
X29902Y-44693D01*
X29953Y-44672D01*
X29998Y-44642D01*
X30036Y-44604D01*
X30047Y-44588D01*
X30433Y-44588D01*
X30471Y-44585D01*
X30509Y-44581D01*
X30511Y-44581D01*
X30513Y-44580D01*
X30550Y-44569D01*
X30587Y-44559D01*
X30589Y-44558D01*
X30591Y-44557D01*
X30625Y-44539D01*
X30659Y-44521D01*
X30661Y-44520D01*
X30663Y-44519D01*
X30692Y-44495D01*
X30722Y-44471D01*
X30725Y-44468D01*
X30725Y-44468D01*
X30725Y-44468D01*
X30726Y-44467D01*
X30880Y-44313D01*
X31171Y-44313D01*
X31171Y-44367D01*
X31171Y-45238D01*
X31171Y-45238D01*
G37*
G54D29*
X31171Y-45238D02*
X31167Y-45231D01*
X31113Y-45166D01*
X31047Y-45112D01*
X30972Y-45072D01*
X30891Y-45047D01*
X30809Y-45039D01*
X28545Y-45039D01*
X28474Y-45032D01*
X28407Y-45012D01*
X28346Y-44979D01*
X28292Y-44935D01*
X28248Y-44881D01*
X28216Y-44820D01*
X28195Y-44754D01*
X28188Y-44683D01*
X28188Y-44588D01*
X29008Y-44588D01*
X29018Y-44604D01*
X29056Y-44642D01*
X29102Y-44672D01*
X29152Y-44693D01*
X29205Y-44704D01*
X29259Y-44704D01*
X29849Y-44704D01*
X29902Y-44693D01*
X29953Y-44672D01*
X29998Y-44642D01*
X30036Y-44604D01*
X30047Y-44588D01*
X30433Y-44588D01*
X30471Y-44585D01*
X30509Y-44581D01*
X30511Y-44581D01*
X30513Y-44580D01*
X30550Y-44569D01*
X30587Y-44559D01*
X30589Y-44558D01*
X30591Y-44557D01*
X30625Y-44539D01*
X30659Y-44521D01*
X30661Y-44520D01*
X30663Y-44519D01*
X30692Y-44495D01*
X30722Y-44471D01*
X30725Y-44468D01*
X30725Y-44468D01*
X30725Y-44468D01*
X30726Y-44467D01*
X30880Y-44313D01*
X31171Y-44313D01*
X31171Y-44367D01*
X31171Y-45238D01*
G54D10*
G36*
X32707Y-46281D02*
X32697Y-46328D01*
X32697Y-46387D01*
X32697Y-46828D01*
X31240Y-46828D01*
X31240Y-45606D01*
X31271Y-45637D01*
X31316Y-45667D01*
X31366Y-45688D01*
X31419Y-45698D01*
X31473Y-45698D01*
X31575Y-45698D01*
X31576Y-45707D01*
X31579Y-45745D01*
X31580Y-45747D01*
X31580Y-45750D01*
X31591Y-45786D01*
X31602Y-45823D01*
X31603Y-45825D01*
X31603Y-45827D01*
X31621Y-45861D01*
X31639Y-45895D01*
X31641Y-45897D01*
X31642Y-45899D01*
X31666Y-45929D01*
X31690Y-45959D01*
X31693Y-45962D01*
X31693Y-45962D01*
X31693Y-45962D01*
X31694Y-45963D01*
X31891Y-46160D01*
X31920Y-46184D01*
X31950Y-46209D01*
X31952Y-46210D01*
X31953Y-46211D01*
X31987Y-46229D01*
X32021Y-46248D01*
X32023Y-46248D01*
X32025Y-46249D01*
X32062Y-46261D01*
X32098Y-46272D01*
X32100Y-46272D01*
X32102Y-46273D01*
X32141Y-46277D01*
X32179Y-46281D01*
X32183Y-46281D01*
X32183Y-46281D01*
X32183Y-46281D01*
X32185Y-46281D01*
X32707Y-46281D01*
X32707Y-46281D01*
G37*
G54D29*
X32707Y-46281D02*
X32697Y-46328D01*
X32697Y-46387D01*
X32697Y-46828D01*
X31240Y-46828D01*
X31240Y-45606D01*
X31271Y-45637D01*
X31316Y-45667D01*
X31366Y-45688D01*
X31419Y-45698D01*
X31473Y-45698D01*
X31575Y-45698D01*
X31576Y-45707D01*
X31579Y-45745D01*
X31580Y-45747D01*
X31580Y-45750D01*
X31591Y-45786D01*
X31602Y-45823D01*
X31603Y-45825D01*
X31603Y-45827D01*
X31621Y-45861D01*
X31639Y-45895D01*
X31641Y-45897D01*
X31642Y-45899D01*
X31666Y-45929D01*
X31690Y-45959D01*
X31693Y-45962D01*
X31693Y-45962D01*
X31693Y-45962D01*
X31694Y-45963D01*
X31891Y-46160D01*
X31920Y-46184D01*
X31950Y-46209D01*
X31952Y-46210D01*
X31953Y-46211D01*
X31987Y-46229D01*
X32021Y-46248D01*
X32023Y-46248D01*
X32025Y-46249D01*
X32062Y-46261D01*
X32098Y-46272D01*
X32100Y-46272D01*
X32102Y-46273D01*
X32141Y-46277D01*
X32179Y-46281D01*
X32183Y-46281D01*
X32183Y-46281D01*
X32183Y-46281D01*
X32185Y-46281D01*
X32707Y-46281D01*
G54D10*
G36*
X33110Y-42165D02*
X32712Y-42165D01*
X32705Y-42158D01*
X32660Y-42127D01*
X32610Y-42107D01*
X32556Y-42096D01*
X32502Y-42096D01*
X31424Y-42096D01*
X31865Y-41655D01*
X33110Y-41655D01*
X33110Y-42165D01*
X33110Y-42165D01*
G37*
G54D29*
X33110Y-42165D02*
X32712Y-42165D01*
X32705Y-42158D01*
X32660Y-42127D01*
X32610Y-42107D01*
X32556Y-42096D01*
X32502Y-42096D01*
X31424Y-42096D01*
X31865Y-41655D01*
X33110Y-41655D01*
X33110Y-42165D01*
G54D10*
G36*
X37263Y-39264D02*
X31240Y-39264D01*
X31240Y-39076D01*
X31247Y-39005D01*
X31267Y-38939D01*
X31300Y-38878D01*
X31344Y-38824D01*
X31397Y-38780D01*
X31458Y-38747D01*
X31525Y-38727D01*
X31596Y-38720D01*
X36907Y-38720D01*
X36978Y-38727D01*
X37044Y-38747D01*
X37106Y-38780D01*
X37159Y-38824D01*
X37203Y-38878D01*
X37236Y-38939D01*
X37256Y-39005D01*
X37263Y-39076D01*
X37263Y-39264D01*
X37263Y-39264D01*
G37*
G54D29*
X37263Y-39264D02*
X31240Y-39264D01*
X31240Y-39076D01*
X31247Y-39005D01*
X31267Y-38939D01*
X31300Y-38878D01*
X31344Y-38824D01*
X31397Y-38780D01*
X31458Y-38747D01*
X31525Y-38727D01*
X31596Y-38720D01*
X36907Y-38720D01*
X36978Y-38727D01*
X37044Y-38747D01*
X37106Y-38780D01*
X37159Y-38824D01*
X37203Y-38878D01*
X37236Y-38939D01*
X37256Y-39005D01*
X37263Y-39076D01*
X37263Y-39264D01*
G54D10*
G36*
X37263Y-42026D02*
X37060Y-41823D01*
X37031Y-41798D01*
X37001Y-41774D01*
X36999Y-41773D01*
X36998Y-41771D01*
X36964Y-41753D01*
X36930Y-41735D01*
X36928Y-41734D01*
X36926Y-41733D01*
X36896Y-41723D01*
X36890Y-41710D01*
X36860Y-41665D01*
X36822Y-41627D01*
X36777Y-41597D01*
X36726Y-41576D01*
X36673Y-41565D01*
X36619Y-41565D01*
X36226Y-41565D01*
X36173Y-41576D01*
X36122Y-41597D01*
X36077Y-41627D01*
X36039Y-41665D01*
X36009Y-41710D01*
X35988Y-41761D01*
X35977Y-41814D01*
X35977Y-41868D01*
X35977Y-42142D01*
X35915Y-42142D01*
X35915Y-41405D01*
X35911Y-41367D01*
X35908Y-41329D01*
X35907Y-41326D01*
X35907Y-41324D01*
X35896Y-41288D01*
X35885Y-41251D01*
X35884Y-41249D01*
X35884Y-41247D01*
X35866Y-41213D01*
X35848Y-41179D01*
X35847Y-41177D01*
X35846Y-41175D01*
X35821Y-41145D01*
X35797Y-41115D01*
X35794Y-41112D01*
X35794Y-41112D01*
X35794Y-41112D01*
X35793Y-41111D01*
X35628Y-40946D01*
X35598Y-40921D01*
X35569Y-40897D01*
X35567Y-40896D01*
X35565Y-40894D01*
X35532Y-40876D01*
X35498Y-40858D01*
X35496Y-40857D01*
X35494Y-40856D01*
X35457Y-40845D01*
X35421Y-40833D01*
X35418Y-40833D01*
X35416Y-40832D01*
X35378Y-40828D01*
X35340Y-40824D01*
X35336Y-40824D01*
X35336Y-40824D01*
X35336Y-40824D01*
X35334Y-40824D01*
X31692Y-40824D01*
X31654Y-40828D01*
X31616Y-40831D01*
X31614Y-40832D01*
X31612Y-40832D01*
X31575Y-40843D01*
X31538Y-40854D01*
X31536Y-40855D01*
X31534Y-40855D01*
X31500Y-40873D01*
X31466Y-40891D01*
X31464Y-40892D01*
X31462Y-40894D01*
X31433Y-40918D01*
X31403Y-40942D01*
X31400Y-40945D01*
X31400Y-40945D01*
X31400Y-40945D01*
X31399Y-40946D01*
X31240Y-41105D01*
X31240Y-40095D01*
X37263Y-40095D01*
X37263Y-42026D01*
X37263Y-42026D01*
G37*
G54D29*
X37263Y-42026D02*
X37060Y-41823D01*
X37031Y-41798D01*
X37001Y-41774D01*
X36999Y-41773D01*
X36998Y-41771D01*
X36964Y-41753D01*
X36930Y-41735D01*
X36928Y-41734D01*
X36926Y-41733D01*
X36896Y-41723D01*
X36890Y-41710D01*
X36860Y-41665D01*
X36822Y-41627D01*
X36777Y-41597D01*
X36726Y-41576D01*
X36673Y-41565D01*
X36619Y-41565D01*
X36226Y-41565D01*
X36173Y-41576D01*
X36122Y-41597D01*
X36077Y-41627D01*
X36039Y-41665D01*
X36009Y-41710D01*
X35988Y-41761D01*
X35977Y-41814D01*
X35977Y-41868D01*
X35977Y-42142D01*
X35915Y-42142D01*
X35915Y-41405D01*
X35911Y-41367D01*
X35908Y-41329D01*
X35907Y-41326D01*
X35907Y-41324D01*
X35896Y-41288D01*
X35885Y-41251D01*
X35884Y-41249D01*
X35884Y-41247D01*
X35866Y-41213D01*
X35848Y-41179D01*
X35847Y-41177D01*
X35846Y-41175D01*
X35821Y-41145D01*
X35797Y-41115D01*
X35794Y-41112D01*
X35794Y-41112D01*
X35794Y-41112D01*
X35793Y-41111D01*
X35628Y-40946D01*
X35598Y-40921D01*
X35569Y-40897D01*
X35567Y-40896D01*
X35565Y-40894D01*
X35532Y-40876D01*
X35498Y-40858D01*
X35496Y-40857D01*
X35494Y-40856D01*
X35457Y-40845D01*
X35421Y-40833D01*
X35418Y-40833D01*
X35416Y-40832D01*
X35378Y-40828D01*
X35340Y-40824D01*
X35336Y-40824D01*
X35336Y-40824D01*
X35336Y-40824D01*
X35334Y-40824D01*
X31692Y-40824D01*
X31654Y-40828D01*
X31616Y-40831D01*
X31614Y-40832D01*
X31612Y-40832D01*
X31575Y-40843D01*
X31538Y-40854D01*
X31536Y-40855D01*
X31534Y-40855D01*
X31500Y-40873D01*
X31466Y-40891D01*
X31464Y-40892D01*
X31462Y-40894D01*
X31433Y-40918D01*
X31403Y-40942D01*
X31400Y-40945D01*
X31400Y-40945D01*
X31400Y-40945D01*
X31399Y-40946D01*
X31240Y-41105D01*
X31240Y-40095D01*
X37263Y-40095D01*
X37263Y-42026D01*
G54D10*
G36*
X37263Y-55411D02*
X37256Y-55482D01*
X37236Y-55548D01*
X37203Y-55610D01*
X37159Y-55663D01*
X37106Y-55707D01*
X37044Y-55740D01*
X36978Y-55760D01*
X36907Y-55767D01*
X31596Y-55767D01*
X31525Y-55760D01*
X31458Y-55740D01*
X31397Y-55707D01*
X31344Y-55663D01*
X31300Y-55610D01*
X31267Y-55548D01*
X31247Y-55482D01*
X31240Y-55411D01*
X31240Y-55214D01*
X37263Y-55214D01*
X37263Y-55411D01*
X37263Y-55411D01*
G37*
G54D29*
X37263Y-55411D02*
X37256Y-55482D01*
X37236Y-55548D01*
X37203Y-55610D01*
X37159Y-55663D01*
X37106Y-55707D01*
X37044Y-55740D01*
X36978Y-55760D01*
X36907Y-55767D01*
X31596Y-55767D01*
X31525Y-55760D01*
X31458Y-55740D01*
X31397Y-55707D01*
X31344Y-55663D01*
X31300Y-55610D01*
X31267Y-55548D01*
X31247Y-55482D01*
X31240Y-55411D01*
X31240Y-55214D01*
X37263Y-55214D01*
X37263Y-55411D01*
G54D10*
G36*
X38560Y-45039D02*
X38077Y-45039D01*
X38077Y-42755D01*
X38560Y-42755D01*
X38560Y-45039D01*
X38560Y-45039D01*
G37*
G54D29*
X38560Y-45039D02*
X38077Y-45039D01*
X38077Y-42755D01*
X38560Y-42755D01*
X38560Y-45039D01*
G54D10*
G36*
X38560Y-51732D02*
X37694Y-51732D01*
X37612Y-51740D01*
X37531Y-51765D01*
X37456Y-51805D01*
X37390Y-51858D01*
X37336Y-51924D01*
X37296Y-51999D01*
X37271Y-52080D01*
X37263Y-52163D01*
X37263Y-54383D01*
X31240Y-54383D01*
X31240Y-52163D01*
X31232Y-52080D01*
X31207Y-51999D01*
X31167Y-51924D01*
X31113Y-51858D01*
X31047Y-51805D01*
X30972Y-51765D01*
X30891Y-51740D01*
X30809Y-51732D01*
X29943Y-51732D01*
X29943Y-49448D01*
X30809Y-49448D01*
X30891Y-49440D01*
X30972Y-49416D01*
X31047Y-49375D01*
X31113Y-49322D01*
X31167Y-49256D01*
X31207Y-49181D01*
X31232Y-49100D01*
X31240Y-49017D01*
X31240Y-47659D01*
X32697Y-47659D01*
X32697Y-48159D01*
X32708Y-48216D01*
X32731Y-48269D01*
X32763Y-48318D01*
X32804Y-48359D01*
X32853Y-48391D01*
X32906Y-48414D01*
X32963Y-48425D01*
X33022Y-48425D01*
X34006Y-48425D01*
X34063Y-48414D01*
X34116Y-48391D01*
X34165Y-48359D01*
X34206Y-48318D01*
X34238Y-48269D01*
X34252Y-48237D01*
X34265Y-48269D01*
X34297Y-48318D01*
X34338Y-48359D01*
X34387Y-48391D01*
X34440Y-48414D01*
X34497Y-48425D01*
X34556Y-48425D01*
X35540Y-48425D01*
X35597Y-48414D01*
X35650Y-48391D01*
X35699Y-48359D01*
X35740Y-48318D01*
X35772Y-48269D01*
X35795Y-48216D01*
X35806Y-48159D01*
X35806Y-48100D01*
X35806Y-46328D01*
X35795Y-46271D01*
X35772Y-46218D01*
X35740Y-46169D01*
X35699Y-46128D01*
X35650Y-46096D01*
X35597Y-46073D01*
X35540Y-46062D01*
X35481Y-46062D01*
X35434Y-46062D01*
X35434Y-46042D01*
X35430Y-46004D01*
X35427Y-45966D01*
X35426Y-45964D01*
X35426Y-45961D01*
X35415Y-45925D01*
X35404Y-45888D01*
X35403Y-45886D01*
X35403Y-45884D01*
X35385Y-45850D01*
X35367Y-45816D01*
X35366Y-45814D01*
X35365Y-45812D01*
X35340Y-45782D01*
X35316Y-45752D01*
X35313Y-45749D01*
X35313Y-45749D01*
X35313Y-45749D01*
X35312Y-45748D01*
X35136Y-45572D01*
X35106Y-45547D01*
X35077Y-45523D01*
X35075Y-45522D01*
X35073Y-45520D01*
X35039Y-45502D01*
X35006Y-45484D01*
X35004Y-45483D01*
X35002Y-45482D01*
X34965Y-45471D01*
X34928Y-45459D01*
X34926Y-45459D01*
X34924Y-45458D01*
X34886Y-45454D01*
X34848Y-45450D01*
X34844Y-45450D01*
X34843Y-45450D01*
X34843Y-45450D01*
X34842Y-45450D01*
X32805Y-45450D01*
X32805Y-45450D01*
X32805Y-45395D01*
X32805Y-45357D01*
X36534Y-45357D01*
X36534Y-46389D01*
X36517Y-46400D01*
X36479Y-46438D01*
X36448Y-46484D01*
X36428Y-46534D01*
X36417Y-46587D01*
X36417Y-46641D01*
X36417Y-47152D01*
X36428Y-47205D01*
X36443Y-47244D01*
X36428Y-47282D01*
X36417Y-47335D01*
X36417Y-47389D01*
X36417Y-47900D01*
X36428Y-47953D01*
X36448Y-48004D01*
X36479Y-48049D01*
X36517Y-48087D01*
X36562Y-48117D01*
X36572Y-48121D01*
X36572Y-49744D01*
X36580Y-49824D01*
X36603Y-49902D01*
X36642Y-49974D01*
X36693Y-50036D01*
X36755Y-50088D01*
X36827Y-50127D01*
X36904Y-50151D01*
X36985Y-50159D01*
X37066Y-50152D01*
X37143Y-50129D01*
X37215Y-50091D01*
X37278Y-50041D01*
X37331Y-49978D01*
X37370Y-49907D01*
X37394Y-49830D01*
X37403Y-49749D01*
X37403Y-49744D01*
X37403Y-49333D01*
X37456Y-49375D01*
X37531Y-49416D01*
X37612Y-49440D01*
X37694Y-49448D01*
X38560Y-49448D01*
X38560Y-51732D01*
X38560Y-51732D01*
G37*
G54D29*
X38560Y-51732D02*
X37694Y-51732D01*
X37612Y-51740D01*
X37531Y-51765D01*
X37456Y-51805D01*
X37390Y-51858D01*
X37336Y-51924D01*
X37296Y-51999D01*
X37271Y-52080D01*
X37263Y-52163D01*
X37263Y-54383D01*
X31240Y-54383D01*
X31240Y-52163D01*
X31232Y-52080D01*
X31207Y-51999D01*
X31167Y-51924D01*
X31113Y-51858D01*
X31047Y-51805D01*
X30972Y-51765D01*
X30891Y-51740D01*
X30809Y-51732D01*
X29943Y-51732D01*
X29943Y-49448D01*
X30809Y-49448D01*
X30891Y-49440D01*
X30972Y-49416D01*
X31047Y-49375D01*
X31113Y-49322D01*
X31167Y-49256D01*
X31207Y-49181D01*
X31232Y-49100D01*
X31240Y-49017D01*
X31240Y-47659D01*
X32697Y-47659D01*
X32697Y-48159D01*
X32708Y-48216D01*
X32731Y-48269D01*
X32763Y-48318D01*
X32804Y-48359D01*
X32853Y-48391D01*
X32906Y-48414D01*
X32963Y-48425D01*
X33022Y-48425D01*
X34006Y-48425D01*
X34063Y-48414D01*
X34116Y-48391D01*
X34165Y-48359D01*
X34206Y-48318D01*
X34238Y-48269D01*
X34252Y-48237D01*
X34265Y-48269D01*
X34297Y-48318D01*
X34338Y-48359D01*
X34387Y-48391D01*
X34440Y-48414D01*
X34497Y-48425D01*
X34556Y-48425D01*
X35540Y-48425D01*
X35597Y-48414D01*
X35650Y-48391D01*
X35699Y-48359D01*
X35740Y-48318D01*
X35772Y-48269D01*
X35795Y-48216D01*
X35806Y-48159D01*
X35806Y-48100D01*
X35806Y-46328D01*
X35795Y-46271D01*
X35772Y-46218D01*
X35740Y-46169D01*
X35699Y-46128D01*
X35650Y-46096D01*
X35597Y-46073D01*
X35540Y-46062D01*
X35481Y-46062D01*
X35434Y-46062D01*
X35434Y-46042D01*
X35430Y-46004D01*
X35427Y-45966D01*
X35426Y-45964D01*
X35426Y-45961D01*
X35415Y-45925D01*
X35404Y-45888D01*
X35403Y-45886D01*
X35403Y-45884D01*
X35385Y-45850D01*
X35367Y-45816D01*
X35366Y-45814D01*
X35365Y-45812D01*
X35340Y-45782D01*
X35316Y-45752D01*
X35313Y-45749D01*
X35313Y-45749D01*
X35313Y-45749D01*
X35312Y-45748D01*
X35136Y-45572D01*
X35106Y-45547D01*
X35077Y-45523D01*
X35075Y-45522D01*
X35073Y-45520D01*
X35039Y-45502D01*
X35006Y-45484D01*
X35004Y-45483D01*
X35002Y-45482D01*
X34965Y-45471D01*
X34928Y-45459D01*
X34926Y-45459D01*
X34924Y-45458D01*
X34886Y-45454D01*
X34848Y-45450D01*
X34844Y-45450D01*
X34843Y-45450D01*
X34843Y-45450D01*
X34842Y-45450D01*
X32805Y-45450D01*
X32805Y-45450D01*
X32805Y-45395D01*
X32805Y-45357D01*
X36534Y-45357D01*
X36534Y-46389D01*
X36517Y-46400D01*
X36479Y-46438D01*
X36448Y-46484D01*
X36428Y-46534D01*
X36417Y-46587D01*
X36417Y-46641D01*
X36417Y-47152D01*
X36428Y-47205D01*
X36443Y-47244D01*
X36428Y-47282D01*
X36417Y-47335D01*
X36417Y-47389D01*
X36417Y-47900D01*
X36428Y-47953D01*
X36448Y-48004D01*
X36479Y-48049D01*
X36517Y-48087D01*
X36562Y-48117D01*
X36572Y-48121D01*
X36572Y-49744D01*
X36580Y-49824D01*
X36603Y-49902D01*
X36642Y-49974D01*
X36693Y-50036D01*
X36755Y-50088D01*
X36827Y-50127D01*
X36904Y-50151D01*
X36985Y-50159D01*
X37066Y-50152D01*
X37143Y-50129D01*
X37215Y-50091D01*
X37278Y-50041D01*
X37331Y-49978D01*
X37370Y-49907D01*
X37394Y-49830D01*
X37403Y-49749D01*
X37403Y-49744D01*
X37403Y-49333D01*
X37456Y-49375D01*
X37531Y-49416D01*
X37612Y-49440D01*
X37694Y-49448D01*
X38560Y-49448D01*
X38560Y-51732D01*
G54D10*
G36*
X40314Y-44683D02*
X40307Y-44754D01*
X40287Y-44820D01*
X40255Y-44881D01*
X40211Y-44935D01*
X40157Y-44979D01*
X40096Y-45012D01*
X40029Y-45032D01*
X39958Y-45039D01*
X39391Y-45039D01*
X39391Y-42755D01*
X39958Y-42755D01*
X40029Y-42762D01*
X40096Y-42783D01*
X40157Y-42815D01*
X40211Y-42859D01*
X40255Y-42913D01*
X40287Y-42974D01*
X40307Y-43041D01*
X40314Y-43112D01*
X40314Y-44683D01*
X40314Y-44683D01*
G37*
G54D29*
X40314Y-44683D02*
X40307Y-44754D01*
X40287Y-44820D01*
X40255Y-44881D01*
X40211Y-44935D01*
X40157Y-44979D01*
X40096Y-45012D01*
X40029Y-45032D01*
X39958Y-45039D01*
X39391Y-45039D01*
X39391Y-42755D01*
X39958Y-42755D01*
X40029Y-42762D01*
X40096Y-42783D01*
X40157Y-42815D01*
X40211Y-42859D01*
X40255Y-42913D01*
X40287Y-42974D01*
X40307Y-43041D01*
X40314Y-43112D01*
X40314Y-44683D01*
G54D10*
G36*
X40314Y-51376D02*
X40307Y-51447D01*
X40287Y-51513D01*
X40255Y-51574D01*
X40211Y-51628D01*
X40157Y-51672D01*
X40096Y-51705D01*
X40029Y-51725D01*
X39958Y-51732D01*
X39391Y-51732D01*
X39391Y-49448D01*
X39958Y-49448D01*
X40029Y-49455D01*
X40096Y-49475D01*
X40157Y-49508D01*
X40211Y-49552D01*
X40255Y-49606D01*
X40287Y-49667D01*
X40307Y-49734D01*
X40314Y-49805D01*
X40314Y-51376D01*
X40314Y-51376D01*
G37*
G54D29*
X40314Y-51376D02*
X40307Y-51447D01*
X40287Y-51513D01*
X40255Y-51574D01*
X40211Y-51628D01*
X40157Y-51672D01*
X40096Y-51705D01*
X40029Y-51725D01*
X39958Y-51732D01*
X39391Y-51732D01*
X39391Y-49448D01*
X39958Y-49448D01*
X40029Y-49455D01*
X40096Y-49475D01*
X40157Y-49508D01*
X40211Y-49552D01*
X40255Y-49606D01*
X40287Y-49667D01*
X40307Y-49734D01*
X40314Y-49805D01*
X40314Y-51376D01*
M02*
