%FSLAX34Y34*%
G04 Gerber Fmt 3.4, Leading zero omitted, Abs format*
G04 (created by PCBNEW (2014-03-05 BZR 4734)-product) date Thu 06 Mar 2014 07:44:25 PM CET*
%MOIN*%
G01*
G70*
G90*
G04 APERTURE LIST*
%ADD10C,0.005906*%
%ADD11C,0.007874*%
%ADD12C,0.008000*%
%ADD13C,0.012000*%
%ADD14C,0.000100*%
%ADD15C,0.065000*%
%ADD16C,0.118110*%
G04 APERTURE END LIST*
G54D10*
G54D11*
X34049Y-51674D02*
X34236Y-51674D01*
X34236Y-51280D01*
X33712Y-51674D02*
X33937Y-51674D01*
X33824Y-51674D02*
X33824Y-51280D01*
X33862Y-51336D01*
X33899Y-51374D01*
X33937Y-51392D01*
X33543Y-51636D02*
X33524Y-51655D01*
X33543Y-51674D01*
X33562Y-51655D01*
X33543Y-51636D01*
X33543Y-51674D01*
X33543Y-51430D02*
X33524Y-51449D01*
X33543Y-51467D01*
X33562Y-51449D01*
X33543Y-51430D01*
X33543Y-51467D01*
X32849Y-51674D02*
X33074Y-51674D01*
X32962Y-51674D02*
X32962Y-51280D01*
X32999Y-51336D01*
X33037Y-51374D01*
X33074Y-51392D01*
X32605Y-51280D02*
X32568Y-51280D01*
X32530Y-51299D01*
X32512Y-51317D01*
X32493Y-51355D01*
X32474Y-51430D01*
X32474Y-51524D01*
X32493Y-51599D01*
X32512Y-51636D01*
X32530Y-51655D01*
X32568Y-51674D01*
X32605Y-51674D01*
X32643Y-51655D01*
X32662Y-51636D01*
X32680Y-51599D01*
X32699Y-51524D01*
X32699Y-51430D01*
X32680Y-51355D01*
X32662Y-51317D01*
X32643Y-51299D01*
X32605Y-51280D01*
X32230Y-51280D02*
X32193Y-51280D01*
X32155Y-51299D01*
X32137Y-51317D01*
X32118Y-51355D01*
X32099Y-51430D01*
X32099Y-51524D01*
X32118Y-51599D01*
X32137Y-51636D01*
X32155Y-51655D01*
X32193Y-51674D01*
X32230Y-51674D01*
X32268Y-51655D01*
X32287Y-51636D01*
X32305Y-51599D01*
X32324Y-51524D01*
X32324Y-51430D01*
X32305Y-51355D01*
X32287Y-51317D01*
X32268Y-51299D01*
X32230Y-51280D01*
X31931Y-51411D02*
X31931Y-51805D01*
X31743Y-51617D02*
X31724Y-51655D01*
X31687Y-51674D01*
X31931Y-51617D02*
X31912Y-51655D01*
X31874Y-51674D01*
X31799Y-51674D01*
X31762Y-51655D01*
X31743Y-51617D01*
X31743Y-51411D01*
X31518Y-51674D02*
X31518Y-51280D01*
X31518Y-51467D02*
X31293Y-51467D01*
X31293Y-51674D02*
X31293Y-51280D01*
X34011Y-52304D02*
X34143Y-52116D01*
X34236Y-52304D02*
X34236Y-51910D01*
X34086Y-51910D01*
X34049Y-51929D01*
X34030Y-51947D01*
X34011Y-51985D01*
X34011Y-52041D01*
X34030Y-52079D01*
X34049Y-52097D01*
X34086Y-52116D01*
X34236Y-52116D01*
X33618Y-52266D02*
X33637Y-52285D01*
X33693Y-52304D01*
X33730Y-52304D01*
X33787Y-52285D01*
X33824Y-52247D01*
X33843Y-52210D01*
X33862Y-52135D01*
X33862Y-52079D01*
X33843Y-52004D01*
X33824Y-51966D01*
X33787Y-51929D01*
X33730Y-51910D01*
X33693Y-51910D01*
X33637Y-51929D01*
X33618Y-51947D01*
X33468Y-52285D02*
X33412Y-52304D01*
X33318Y-52304D01*
X33280Y-52285D01*
X33262Y-52266D01*
X33243Y-52229D01*
X33243Y-52191D01*
X33262Y-52154D01*
X33280Y-52135D01*
X33318Y-52116D01*
X33393Y-52097D01*
X33430Y-52079D01*
X33449Y-52060D01*
X33468Y-52022D01*
X33468Y-51985D01*
X33449Y-51947D01*
X33430Y-51929D01*
X33393Y-51910D01*
X33299Y-51910D01*
X33243Y-51929D01*
X33168Y-52341D02*
X32868Y-52341D01*
X32568Y-52304D02*
X32793Y-52304D01*
X32680Y-52304D02*
X32680Y-51910D01*
X32718Y-51966D01*
X32755Y-52004D01*
X32793Y-52022D01*
X32399Y-52266D02*
X32380Y-52285D01*
X32399Y-52304D01*
X32418Y-52285D01*
X32399Y-52266D01*
X32399Y-52304D01*
X32399Y-52060D02*
X32380Y-52079D01*
X32399Y-52097D01*
X32418Y-52079D01*
X32399Y-52060D01*
X32399Y-52097D01*
X31799Y-52454D02*
X31818Y-52435D01*
X31856Y-52379D01*
X31874Y-52341D01*
X31893Y-52285D01*
X31912Y-52191D01*
X31912Y-52116D01*
X31893Y-52022D01*
X31874Y-51966D01*
X31856Y-51929D01*
X31818Y-51872D01*
X31799Y-51854D01*
X31443Y-52304D02*
X31668Y-52304D01*
X31556Y-52304D02*
X31556Y-51910D01*
X31593Y-51966D01*
X31631Y-52004D01*
X31668Y-52022D01*
X31049Y-52304D02*
X31181Y-52116D01*
X31274Y-52304D02*
X31274Y-51910D01*
X31124Y-51910D01*
X31087Y-51929D01*
X31068Y-51947D01*
X31049Y-51985D01*
X31049Y-52041D01*
X31068Y-52079D01*
X31087Y-52097D01*
X31124Y-52116D01*
X31274Y-52116D01*
X30806Y-51910D02*
X30768Y-51910D01*
X30731Y-51929D01*
X30712Y-51947D01*
X30693Y-51985D01*
X30674Y-52060D01*
X30674Y-52154D01*
X30693Y-52229D01*
X30712Y-52266D01*
X30731Y-52285D01*
X30768Y-52304D01*
X30806Y-52304D01*
X30843Y-52285D01*
X30862Y-52266D01*
X30881Y-52229D01*
X30899Y-52154D01*
X30899Y-52060D01*
X30881Y-51985D01*
X30862Y-51947D01*
X30843Y-51929D01*
X30806Y-51910D01*
X30543Y-52454D02*
X30524Y-52435D01*
X30487Y-52379D01*
X30468Y-52341D01*
X30449Y-52285D01*
X30431Y-52191D01*
X30431Y-52116D01*
X30449Y-52022D01*
X30468Y-51966D01*
X30487Y-51929D01*
X30524Y-51872D01*
X30543Y-51854D01*
X29962Y-51891D02*
X30299Y-52397D01*
X29850Y-51947D02*
X29831Y-51929D01*
X29793Y-51910D01*
X29700Y-51910D01*
X29662Y-51929D01*
X29643Y-51947D01*
X29625Y-51985D01*
X29625Y-52022D01*
X29643Y-52079D01*
X29868Y-52304D01*
X29625Y-52304D01*
X29156Y-52154D02*
X28856Y-52154D01*
X28668Y-52041D02*
X28368Y-52154D01*
X28668Y-52266D01*
X27806Y-51910D02*
X27769Y-51910D01*
X27731Y-51929D01*
X27712Y-51947D01*
X27694Y-51985D01*
X27675Y-52060D01*
X27675Y-52154D01*
X27694Y-52229D01*
X27712Y-52266D01*
X27731Y-52285D01*
X27769Y-52304D01*
X27806Y-52304D01*
X27844Y-52285D01*
X27862Y-52266D01*
X27881Y-52229D01*
X27900Y-52154D01*
X27900Y-52060D01*
X27881Y-51985D01*
X27862Y-51947D01*
X27844Y-51929D01*
X27806Y-51910D01*
X27506Y-52266D02*
X27487Y-52285D01*
X27506Y-52304D01*
X27525Y-52285D01*
X27506Y-52266D01*
X27506Y-52304D01*
X27337Y-51947D02*
X27319Y-51929D01*
X27281Y-51910D01*
X27187Y-51910D01*
X27150Y-51929D01*
X27131Y-51947D01*
X27112Y-51985D01*
X27112Y-52022D01*
X27131Y-52079D01*
X27356Y-52304D01*
X27112Y-52304D01*
X26962Y-52191D02*
X26775Y-52191D01*
X27000Y-52304D02*
X26869Y-51910D01*
X26737Y-52304D01*
X34236Y-52934D02*
X34236Y-52540D01*
X34143Y-52540D01*
X34086Y-52559D01*
X34049Y-52596D01*
X34030Y-52634D01*
X34011Y-52709D01*
X34011Y-52765D01*
X34030Y-52840D01*
X34049Y-52877D01*
X34086Y-52915D01*
X34143Y-52934D01*
X34236Y-52934D01*
X33637Y-52934D02*
X33862Y-52934D01*
X33749Y-52934D02*
X33749Y-52540D01*
X33787Y-52596D01*
X33824Y-52634D01*
X33862Y-52652D01*
X33468Y-52896D02*
X33449Y-52915D01*
X33468Y-52934D01*
X33487Y-52915D01*
X33468Y-52896D01*
X33468Y-52934D01*
X33280Y-52896D02*
X33262Y-52915D01*
X33280Y-52934D01*
X33299Y-52915D01*
X33280Y-52896D01*
X33280Y-52934D01*
X33093Y-52896D02*
X33074Y-52915D01*
X33093Y-52934D01*
X33112Y-52915D01*
X33093Y-52896D01*
X33093Y-52934D01*
X32905Y-52896D02*
X32887Y-52915D01*
X32905Y-52934D01*
X32924Y-52915D01*
X32905Y-52896D01*
X32905Y-52934D01*
X32905Y-52690D02*
X32887Y-52709D01*
X32905Y-52727D01*
X32924Y-52709D01*
X32905Y-52690D01*
X32905Y-52727D01*
X32418Y-52934D02*
X32418Y-52540D01*
X32193Y-52934D01*
X32193Y-52540D01*
X32006Y-52934D02*
X32006Y-52671D01*
X32006Y-52540D02*
X32024Y-52559D01*
X32006Y-52577D01*
X31987Y-52559D01*
X32006Y-52540D01*
X32006Y-52577D01*
X31649Y-52915D02*
X31687Y-52934D01*
X31762Y-52934D01*
X31799Y-52915D01*
X31818Y-52896D01*
X31837Y-52859D01*
X31837Y-52746D01*
X31818Y-52709D01*
X31799Y-52690D01*
X31762Y-52671D01*
X31687Y-52671D01*
X31649Y-52690D01*
X31481Y-52934D02*
X31481Y-52540D01*
X31312Y-52934D02*
X31312Y-52727D01*
X31331Y-52690D01*
X31368Y-52671D01*
X31424Y-52671D01*
X31462Y-52690D01*
X31481Y-52709D01*
X31124Y-52934D02*
X31124Y-52671D01*
X31124Y-52540D02*
X31143Y-52559D01*
X31124Y-52577D01*
X31106Y-52559D01*
X31124Y-52540D01*
X31124Y-52577D01*
X30768Y-52934D02*
X30768Y-52727D01*
X30787Y-52690D01*
X30824Y-52671D01*
X30899Y-52671D01*
X30937Y-52690D01*
X30768Y-52915D02*
X30806Y-52934D01*
X30899Y-52934D01*
X30937Y-52915D01*
X30956Y-52877D01*
X30956Y-52840D01*
X30937Y-52802D01*
X30899Y-52784D01*
X30806Y-52784D01*
X30768Y-52765D01*
X34236Y-53563D02*
X34236Y-53170D01*
X34011Y-53563D01*
X34011Y-53170D01*
X33880Y-53170D02*
X33655Y-53170D01*
X33768Y-53563D02*
X33768Y-53170D01*
X33543Y-53207D02*
X33524Y-53188D01*
X33487Y-53170D01*
X33393Y-53170D01*
X33355Y-53188D01*
X33337Y-53207D01*
X33318Y-53245D01*
X33318Y-53282D01*
X33337Y-53338D01*
X33562Y-53563D01*
X33318Y-53563D01*
X33187Y-53563D02*
X32980Y-53301D01*
X33187Y-53301D02*
X32980Y-53563D01*
X32868Y-53170D02*
X32605Y-53170D01*
X32774Y-53563D01*
X32268Y-53170D02*
X32455Y-53170D01*
X32474Y-53357D01*
X32455Y-53338D01*
X32418Y-53320D01*
X32324Y-53320D01*
X32287Y-53338D01*
X32268Y-53357D01*
X32249Y-53395D01*
X32249Y-53488D01*
X32268Y-53526D01*
X32287Y-53545D01*
X32324Y-53563D01*
X32418Y-53563D01*
X32455Y-53545D01*
X32474Y-53526D01*
X32118Y-53170D02*
X31856Y-53170D01*
X32024Y-53563D01*
X31706Y-53563D02*
X31706Y-53170D01*
X31612Y-53170D01*
X31556Y-53188D01*
X31518Y-53226D01*
X31499Y-53263D01*
X31481Y-53338D01*
X31481Y-53395D01*
X31499Y-53470D01*
X31518Y-53507D01*
X31556Y-53545D01*
X31612Y-53563D01*
X31706Y-53563D01*
X31368Y-53170D02*
X31143Y-53170D01*
X31256Y-53563D02*
X31256Y-53170D01*
X30562Y-53545D02*
X30599Y-53563D01*
X30674Y-53563D01*
X30712Y-53545D01*
X30731Y-53507D01*
X30731Y-53357D01*
X30712Y-53320D01*
X30674Y-53301D01*
X30599Y-53301D01*
X30562Y-53320D01*
X30543Y-53357D01*
X30543Y-53395D01*
X30731Y-53432D01*
X30206Y-53301D02*
X30206Y-53695D01*
X30206Y-53545D02*
X30243Y-53563D01*
X30318Y-53563D01*
X30356Y-53545D01*
X30374Y-53526D01*
X30393Y-53488D01*
X30393Y-53376D01*
X30374Y-53338D01*
X30356Y-53320D01*
X30318Y-53301D01*
X30243Y-53301D01*
X30206Y-53320D01*
X29850Y-53301D02*
X29850Y-53563D01*
X30018Y-53301D02*
X30018Y-53507D01*
X29999Y-53545D01*
X29962Y-53563D01*
X29906Y-53563D01*
X29868Y-53545D01*
X29850Y-53526D01*
X29662Y-53563D02*
X29662Y-53301D01*
X29662Y-53170D02*
X29681Y-53188D01*
X29662Y-53207D01*
X29643Y-53188D01*
X29662Y-53170D01*
X29662Y-53207D01*
X29512Y-53301D02*
X29418Y-53563D01*
X29325Y-53301D01*
X29175Y-53526D02*
X29156Y-53545D01*
X29175Y-53563D01*
X29193Y-53545D01*
X29175Y-53526D01*
X29175Y-53563D01*
X40299Y-51280D02*
X40299Y-51599D01*
X40281Y-51636D01*
X40262Y-51655D01*
X40224Y-51674D01*
X40149Y-51674D01*
X40112Y-51655D01*
X40093Y-51636D01*
X40074Y-51599D01*
X40074Y-51280D01*
X39681Y-51674D02*
X39906Y-51674D01*
X39793Y-51674D02*
X39793Y-51280D01*
X39831Y-51336D01*
X39868Y-51374D01*
X39906Y-51392D01*
X39512Y-51636D02*
X39493Y-51655D01*
X39512Y-51674D01*
X39531Y-51655D01*
X39512Y-51636D01*
X39512Y-51674D01*
X39512Y-51430D02*
X39493Y-51449D01*
X39512Y-51467D01*
X39531Y-51449D01*
X39512Y-51430D01*
X39512Y-51467D01*
X39025Y-51674D02*
X39025Y-51280D01*
X38875Y-51280D01*
X38837Y-51299D01*
X38818Y-51317D01*
X38800Y-51355D01*
X38800Y-51411D01*
X38818Y-51449D01*
X38837Y-51467D01*
X38875Y-51486D01*
X39025Y-51486D01*
X38687Y-51280D02*
X38462Y-51280D01*
X38575Y-51674D02*
X38575Y-51280D01*
X38162Y-51411D02*
X38162Y-51674D01*
X38256Y-51261D02*
X38350Y-51542D01*
X38106Y-51542D01*
X37750Y-51674D02*
X37975Y-51674D01*
X37862Y-51674D02*
X37862Y-51280D01*
X37900Y-51336D01*
X37937Y-51374D01*
X37975Y-51392D01*
X37375Y-51674D02*
X37600Y-51674D01*
X37487Y-51674D02*
X37487Y-51280D01*
X37525Y-51336D01*
X37562Y-51374D01*
X37600Y-51392D01*
X37019Y-51280D02*
X37206Y-51280D01*
X37225Y-51467D01*
X37206Y-51449D01*
X37169Y-51430D01*
X37075Y-51430D01*
X37037Y-51449D01*
X37019Y-51467D01*
X37000Y-51505D01*
X37000Y-51599D01*
X37019Y-51636D01*
X37037Y-51655D01*
X37075Y-51674D01*
X37169Y-51674D01*
X37206Y-51655D01*
X37225Y-51636D01*
X40299Y-52304D02*
X40299Y-51910D01*
X40206Y-51910D01*
X40149Y-51929D01*
X40112Y-51966D01*
X40093Y-52004D01*
X40074Y-52079D01*
X40074Y-52135D01*
X40093Y-52210D01*
X40112Y-52247D01*
X40149Y-52285D01*
X40206Y-52304D01*
X40299Y-52304D01*
X39925Y-52285D02*
X39868Y-52304D01*
X39775Y-52304D01*
X39737Y-52285D01*
X39718Y-52266D01*
X39700Y-52229D01*
X39700Y-52191D01*
X39718Y-52154D01*
X39737Y-52135D01*
X39775Y-52116D01*
X39850Y-52097D01*
X39887Y-52079D01*
X39906Y-52060D01*
X39925Y-52022D01*
X39925Y-51985D01*
X39906Y-51947D01*
X39887Y-51929D01*
X39850Y-51910D01*
X39756Y-51910D01*
X39700Y-51929D01*
X39325Y-52304D02*
X39550Y-52304D01*
X39437Y-52304D02*
X39437Y-51910D01*
X39475Y-51966D01*
X39512Y-52004D01*
X39550Y-52022D01*
X39156Y-52266D02*
X39137Y-52285D01*
X39156Y-52304D01*
X39175Y-52285D01*
X39156Y-52266D01*
X39156Y-52304D01*
X39156Y-52060D02*
X39137Y-52079D01*
X39156Y-52097D01*
X39175Y-52079D01*
X39156Y-52060D01*
X39156Y-52097D01*
X38687Y-52285D02*
X38631Y-52304D01*
X38537Y-52304D01*
X38500Y-52285D01*
X38481Y-52266D01*
X38462Y-52229D01*
X38462Y-52191D01*
X38481Y-52154D01*
X38500Y-52135D01*
X38537Y-52116D01*
X38612Y-52097D01*
X38650Y-52079D01*
X38668Y-52060D01*
X38687Y-52022D01*
X38687Y-51985D01*
X38668Y-51947D01*
X38650Y-51929D01*
X38612Y-51910D01*
X38518Y-51910D01*
X38462Y-51929D01*
X38312Y-52285D02*
X38256Y-52304D01*
X38162Y-52304D01*
X38125Y-52285D01*
X38106Y-52266D01*
X38087Y-52229D01*
X38087Y-52191D01*
X38106Y-52154D01*
X38125Y-52135D01*
X38162Y-52116D01*
X38237Y-52097D01*
X38275Y-52079D01*
X38293Y-52060D01*
X38312Y-52022D01*
X38312Y-51985D01*
X38293Y-51947D01*
X38275Y-51929D01*
X38237Y-51910D01*
X38143Y-51910D01*
X38087Y-51929D01*
X37712Y-52304D02*
X37937Y-52304D01*
X37825Y-52304D02*
X37825Y-51910D01*
X37862Y-51966D01*
X37900Y-52004D01*
X37937Y-52022D01*
X37375Y-52041D02*
X37375Y-52304D01*
X37469Y-51891D02*
X37562Y-52172D01*
X37319Y-52172D01*
X36981Y-52304D02*
X37169Y-52304D01*
X37169Y-51910D01*
X40299Y-52934D02*
X40299Y-52540D01*
X40206Y-52540D01*
X40149Y-52559D01*
X40112Y-52596D01*
X40093Y-52634D01*
X40074Y-52709D01*
X40074Y-52765D01*
X40093Y-52840D01*
X40112Y-52877D01*
X40149Y-52915D01*
X40206Y-52934D01*
X40299Y-52934D01*
X39943Y-52540D02*
X39681Y-52540D01*
X39943Y-52934D01*
X39681Y-52934D01*
X39325Y-52934D02*
X39550Y-52934D01*
X39437Y-52934D02*
X39437Y-52540D01*
X39475Y-52596D01*
X39512Y-52634D01*
X39550Y-52652D01*
X39156Y-52896D02*
X39137Y-52915D01*
X39156Y-52934D01*
X39175Y-52915D01*
X39156Y-52896D01*
X39156Y-52934D01*
X39156Y-52690D02*
X39137Y-52709D01*
X39156Y-52727D01*
X39175Y-52709D01*
X39156Y-52690D01*
X39156Y-52727D01*
X38537Y-52727D02*
X38481Y-52746D01*
X38462Y-52765D01*
X38443Y-52802D01*
X38443Y-52859D01*
X38462Y-52896D01*
X38481Y-52915D01*
X38518Y-52934D01*
X38668Y-52934D01*
X38668Y-52540D01*
X38537Y-52540D01*
X38500Y-52559D01*
X38481Y-52577D01*
X38462Y-52615D01*
X38462Y-52652D01*
X38481Y-52690D01*
X38500Y-52709D01*
X38537Y-52727D01*
X38668Y-52727D01*
X38312Y-52540D02*
X38050Y-52540D01*
X38312Y-52934D01*
X38050Y-52934D01*
X37937Y-52540D02*
X37675Y-52934D01*
X37675Y-52540D02*
X37937Y-52934D01*
X37469Y-52709D02*
X37506Y-52690D01*
X37525Y-52671D01*
X37544Y-52634D01*
X37544Y-52615D01*
X37525Y-52577D01*
X37506Y-52559D01*
X37469Y-52540D01*
X37394Y-52540D01*
X37356Y-52559D01*
X37337Y-52577D01*
X37319Y-52615D01*
X37319Y-52634D01*
X37337Y-52671D01*
X37356Y-52690D01*
X37394Y-52709D01*
X37469Y-52709D01*
X37506Y-52727D01*
X37525Y-52746D01*
X37544Y-52784D01*
X37544Y-52859D01*
X37525Y-52896D01*
X37506Y-52915D01*
X37469Y-52934D01*
X37394Y-52934D01*
X37356Y-52915D01*
X37337Y-52896D01*
X37319Y-52859D01*
X37319Y-52784D01*
X37337Y-52746D01*
X37356Y-52727D01*
X37394Y-52709D01*
X36981Y-52671D02*
X36981Y-52934D01*
X37075Y-52521D02*
X37169Y-52802D01*
X36925Y-52802D01*
X36550Y-52896D02*
X36569Y-52915D01*
X36625Y-52934D01*
X36662Y-52934D01*
X36719Y-52915D01*
X36756Y-52877D01*
X36775Y-52840D01*
X36794Y-52765D01*
X36794Y-52709D01*
X36775Y-52634D01*
X36756Y-52596D01*
X36719Y-52559D01*
X36662Y-52540D01*
X36625Y-52540D01*
X36569Y-52559D01*
X36550Y-52577D01*
X36475Y-52971D02*
X36175Y-52971D01*
X35894Y-52540D02*
X36081Y-52540D01*
X36100Y-52727D01*
X36081Y-52709D01*
X36044Y-52690D01*
X35950Y-52690D01*
X35913Y-52709D01*
X35894Y-52727D01*
X35875Y-52765D01*
X35875Y-52859D01*
X35894Y-52896D01*
X35913Y-52915D01*
X35950Y-52934D01*
X36044Y-52934D01*
X36081Y-52915D01*
X36100Y-52896D01*
X35763Y-52540D02*
X35631Y-52934D01*
X35500Y-52540D01*
X35163Y-52934D02*
X35388Y-52934D01*
X35275Y-52934D02*
X35275Y-52540D01*
X35313Y-52596D01*
X35350Y-52634D01*
X35388Y-52652D01*
X40074Y-53563D02*
X40206Y-53376D01*
X40299Y-53563D02*
X40299Y-53170D01*
X40149Y-53170D01*
X40112Y-53188D01*
X40093Y-53207D01*
X40074Y-53245D01*
X40074Y-53301D01*
X40093Y-53338D01*
X40112Y-53357D01*
X40149Y-53376D01*
X40299Y-53376D01*
X39925Y-53207D02*
X39906Y-53188D01*
X39868Y-53170D01*
X39775Y-53170D01*
X39737Y-53188D01*
X39718Y-53207D01*
X39700Y-53245D01*
X39700Y-53282D01*
X39718Y-53338D01*
X39943Y-53563D01*
X39700Y-53563D01*
X39531Y-53526D02*
X39512Y-53545D01*
X39531Y-53563D01*
X39550Y-53545D01*
X39531Y-53526D01*
X39531Y-53563D01*
X39531Y-53320D02*
X39512Y-53338D01*
X39531Y-53357D01*
X39550Y-53338D01*
X39531Y-53320D01*
X39531Y-53357D01*
X38837Y-53563D02*
X39062Y-53563D01*
X38950Y-53563D02*
X38950Y-53170D01*
X38987Y-53226D01*
X39025Y-53263D01*
X39062Y-53282D01*
X38668Y-53563D02*
X38668Y-53170D01*
X38631Y-53413D02*
X38518Y-53563D01*
X38518Y-53301D02*
X38668Y-53451D01*
G54D12*
X40369Y-50479D02*
X40369Y-50029D01*
X40176Y-50479D02*
X40176Y-50243D01*
X40198Y-50200D01*
X40241Y-50179D01*
X40305Y-50179D01*
X40348Y-50200D01*
X40369Y-50222D01*
X40026Y-50179D02*
X39855Y-50179D01*
X39962Y-50029D02*
X39962Y-50414D01*
X39941Y-50457D01*
X39898Y-50479D01*
X39855Y-50479D01*
X39769Y-50179D02*
X39598Y-50179D01*
X39705Y-50029D02*
X39705Y-50414D01*
X39684Y-50457D01*
X39641Y-50479D01*
X39598Y-50479D01*
X39448Y-50179D02*
X39448Y-50629D01*
X39448Y-50200D02*
X39405Y-50179D01*
X39319Y-50179D01*
X39276Y-50200D01*
X39255Y-50222D01*
X39234Y-50264D01*
X39234Y-50393D01*
X39255Y-50436D01*
X39276Y-50457D01*
X39319Y-50479D01*
X39405Y-50479D01*
X39448Y-50457D01*
X39041Y-50436D02*
X39019Y-50457D01*
X39041Y-50479D01*
X39062Y-50457D01*
X39041Y-50436D01*
X39041Y-50479D01*
X39041Y-50200D02*
X39019Y-50222D01*
X39041Y-50243D01*
X39062Y-50222D01*
X39041Y-50200D01*
X39041Y-50243D01*
X38505Y-50007D02*
X38891Y-50586D01*
X38034Y-50007D02*
X38419Y-50586D01*
X37926Y-50179D02*
X37841Y-50479D01*
X37755Y-50264D01*
X37669Y-50479D01*
X37584Y-50179D01*
X37455Y-50179D02*
X37369Y-50479D01*
X37284Y-50264D01*
X37198Y-50479D01*
X37112Y-50179D01*
X36984Y-50179D02*
X36898Y-50479D01*
X36812Y-50264D01*
X36726Y-50479D01*
X36641Y-50179D01*
X36469Y-50436D02*
X36448Y-50457D01*
X36469Y-50479D01*
X36491Y-50457D01*
X36469Y-50436D01*
X36469Y-50479D01*
X36319Y-50179D02*
X36148Y-50179D01*
X36255Y-50479D02*
X36255Y-50093D01*
X36234Y-50050D01*
X36191Y-50029D01*
X36148Y-50029D01*
X35934Y-50479D02*
X35976Y-50457D01*
X35998Y-50414D01*
X35998Y-50029D01*
X35762Y-50479D02*
X35762Y-50179D01*
X35762Y-50029D02*
X35784Y-50050D01*
X35762Y-50072D01*
X35741Y-50050D01*
X35762Y-50029D01*
X35762Y-50072D01*
X35355Y-50457D02*
X35398Y-50479D01*
X35484Y-50479D01*
X35526Y-50457D01*
X35548Y-50436D01*
X35569Y-50393D01*
X35569Y-50264D01*
X35548Y-50222D01*
X35526Y-50200D01*
X35484Y-50179D01*
X35398Y-50179D01*
X35355Y-50200D01*
X35162Y-50479D02*
X35162Y-50029D01*
X35119Y-50307D02*
X34991Y-50479D01*
X34991Y-50179D02*
X35162Y-50350D01*
X34798Y-50479D02*
X34798Y-50179D01*
X34798Y-50264D02*
X34776Y-50222D01*
X34755Y-50200D01*
X34712Y-50179D01*
X34669Y-50179D01*
X34519Y-50436D02*
X34498Y-50457D01*
X34519Y-50479D01*
X34541Y-50457D01*
X34519Y-50436D01*
X34519Y-50479D01*
X34112Y-50457D02*
X34155Y-50479D01*
X34241Y-50479D01*
X34284Y-50457D01*
X34305Y-50436D01*
X34326Y-50393D01*
X34326Y-50264D01*
X34305Y-50222D01*
X34284Y-50200D01*
X34241Y-50179D01*
X34155Y-50179D01*
X34112Y-50200D01*
X33855Y-50479D02*
X33898Y-50457D01*
X33919Y-50436D01*
X33941Y-50393D01*
X33941Y-50264D01*
X33919Y-50222D01*
X33898Y-50200D01*
X33855Y-50179D01*
X33791Y-50179D01*
X33748Y-50200D01*
X33726Y-50222D01*
X33705Y-50264D01*
X33705Y-50393D01*
X33726Y-50436D01*
X33748Y-50457D01*
X33791Y-50479D01*
X33855Y-50479D01*
X33512Y-50479D02*
X33512Y-50179D01*
X33512Y-50222D02*
X33491Y-50200D01*
X33448Y-50179D01*
X33384Y-50179D01*
X33341Y-50200D01*
X33319Y-50243D01*
X33319Y-50479D01*
X33319Y-50243D02*
X33298Y-50200D01*
X33255Y-50179D01*
X33191Y-50179D01*
X33148Y-50200D01*
X33126Y-50243D01*
X33126Y-50479D01*
X32591Y-50007D02*
X32976Y-50586D01*
X32248Y-50179D02*
X32248Y-50543D01*
X32269Y-50586D01*
X32291Y-50607D01*
X32334Y-50629D01*
X32398Y-50629D01*
X32441Y-50607D01*
X32248Y-50457D02*
X32291Y-50479D01*
X32376Y-50479D01*
X32419Y-50457D01*
X32441Y-50436D01*
X32462Y-50393D01*
X32462Y-50264D01*
X32441Y-50222D01*
X32419Y-50200D01*
X32376Y-50179D01*
X32291Y-50179D01*
X32248Y-50200D01*
X32034Y-50479D02*
X32034Y-50179D01*
X32034Y-50264D02*
X32012Y-50222D01*
X31991Y-50200D01*
X31948Y-50179D01*
X31905Y-50179D01*
X31691Y-50479D02*
X31734Y-50457D01*
X31755Y-50436D01*
X31776Y-50393D01*
X31776Y-50264D01*
X31755Y-50222D01*
X31734Y-50200D01*
X31691Y-50179D01*
X31626Y-50179D01*
X31584Y-50200D01*
X31562Y-50222D01*
X31541Y-50264D01*
X31541Y-50393D01*
X31562Y-50436D01*
X31584Y-50457D01*
X31626Y-50479D01*
X31691Y-50479D01*
X31155Y-50179D02*
X31155Y-50479D01*
X31348Y-50179D02*
X31348Y-50414D01*
X31326Y-50457D01*
X31284Y-50479D01*
X31219Y-50479D01*
X31176Y-50457D01*
X31155Y-50436D01*
X30941Y-50179D02*
X30941Y-50629D01*
X30941Y-50200D02*
X30898Y-50179D01*
X30812Y-50179D01*
X30769Y-50200D01*
X30748Y-50222D01*
X30726Y-50264D01*
X30726Y-50393D01*
X30748Y-50436D01*
X30769Y-50457D01*
X30812Y-50479D01*
X30898Y-50479D01*
X30941Y-50457D01*
X30555Y-50457D02*
X30512Y-50479D01*
X30426Y-50479D01*
X30384Y-50457D01*
X30362Y-50414D01*
X30362Y-50393D01*
X30384Y-50350D01*
X30426Y-50329D01*
X30491Y-50329D01*
X30534Y-50307D01*
X30555Y-50264D01*
X30555Y-50243D01*
X30534Y-50200D01*
X30491Y-50179D01*
X30426Y-50179D01*
X30384Y-50200D01*
X29848Y-50007D02*
X30234Y-50586D01*
X29698Y-50479D02*
X29698Y-50029D01*
X29655Y-50307D02*
X29526Y-50479D01*
X29526Y-50179D02*
X29698Y-50350D01*
X29334Y-50479D02*
X29334Y-50179D01*
X29334Y-50029D02*
X29355Y-50050D01*
X29334Y-50072D01*
X29312Y-50050D01*
X29334Y-50029D01*
X29334Y-50072D01*
X28926Y-50457D02*
X28969Y-50479D01*
X29055Y-50479D01*
X29098Y-50457D01*
X29119Y-50436D01*
X29141Y-50393D01*
X29141Y-50264D01*
X29119Y-50222D01*
X29098Y-50200D01*
X29055Y-50179D01*
X28969Y-50179D01*
X28926Y-50200D01*
X28541Y-50479D02*
X28541Y-50243D01*
X28562Y-50200D01*
X28605Y-50179D01*
X28691Y-50179D01*
X28734Y-50200D01*
X28541Y-50457D02*
X28584Y-50479D01*
X28691Y-50479D01*
X28734Y-50457D01*
X28755Y-50414D01*
X28755Y-50372D01*
X28734Y-50329D01*
X28691Y-50307D01*
X28584Y-50307D01*
X28541Y-50286D01*
X28134Y-50479D02*
X28134Y-50029D01*
X28134Y-50457D02*
X28176Y-50479D01*
X28262Y-50479D01*
X28305Y-50457D01*
X28326Y-50436D01*
X28348Y-50393D01*
X28348Y-50264D01*
X28326Y-50222D01*
X28305Y-50200D01*
X28262Y-50179D01*
X28176Y-50179D01*
X28134Y-50200D01*
G54D13*
X38413Y-49066D02*
X38301Y-49460D01*
X38188Y-49178D01*
X38076Y-49460D01*
X37964Y-49066D01*
X37795Y-49066D02*
X37682Y-49460D01*
X37570Y-49178D01*
X37457Y-49460D01*
X37345Y-49066D01*
X37176Y-49066D02*
X37064Y-49460D01*
X36951Y-49178D01*
X36839Y-49460D01*
X36726Y-49066D01*
X36501Y-49403D02*
X36473Y-49431D01*
X36501Y-49460D01*
X36529Y-49431D01*
X36501Y-49403D01*
X36501Y-49460D01*
X36220Y-49460D02*
X36220Y-48869D01*
X36164Y-49235D02*
X35995Y-49460D01*
X35995Y-49066D02*
X36220Y-49291D01*
X35742Y-49460D02*
X35742Y-49066D01*
X35742Y-48869D02*
X35770Y-48897D01*
X35742Y-48925D01*
X35714Y-48897D01*
X35742Y-48869D01*
X35742Y-48925D01*
X35208Y-49431D02*
X35264Y-49460D01*
X35376Y-49460D01*
X35433Y-49431D01*
X35461Y-49403D01*
X35489Y-49347D01*
X35489Y-49178D01*
X35461Y-49122D01*
X35433Y-49094D01*
X35376Y-49066D01*
X35264Y-49066D01*
X35208Y-49094D01*
X34701Y-49460D02*
X34701Y-49150D01*
X34730Y-49094D01*
X34786Y-49066D01*
X34898Y-49066D01*
X34955Y-49094D01*
X34701Y-49431D02*
X34758Y-49460D01*
X34898Y-49460D01*
X34955Y-49431D01*
X34983Y-49375D01*
X34983Y-49319D01*
X34955Y-49263D01*
X34898Y-49235D01*
X34758Y-49235D01*
X34701Y-49206D01*
X34167Y-49460D02*
X34167Y-48869D01*
X34167Y-49431D02*
X34223Y-49460D01*
X34336Y-49460D01*
X34392Y-49431D01*
X34420Y-49403D01*
X34448Y-49347D01*
X34448Y-49178D01*
X34420Y-49122D01*
X34392Y-49094D01*
X34336Y-49066D01*
X34223Y-49066D01*
X34167Y-49094D01*
X33886Y-49235D02*
X33436Y-49235D01*
X33155Y-49066D02*
X33155Y-49656D01*
X33155Y-49094D02*
X33098Y-49066D01*
X32986Y-49066D01*
X32930Y-49094D01*
X32902Y-49122D01*
X32874Y-49178D01*
X32874Y-49347D01*
X32902Y-49403D01*
X32930Y-49431D01*
X32986Y-49460D01*
X33098Y-49460D01*
X33155Y-49431D01*
X32367Y-49431D02*
X32424Y-49460D01*
X32536Y-49460D01*
X32592Y-49431D01*
X32620Y-49403D01*
X32649Y-49347D01*
X32649Y-49178D01*
X32620Y-49122D01*
X32592Y-49094D01*
X32536Y-49066D01*
X32424Y-49066D01*
X32367Y-49094D01*
X32114Y-49460D02*
X32114Y-48869D01*
X32114Y-49094D02*
X32058Y-49066D01*
X31946Y-49066D01*
X31889Y-49094D01*
X31861Y-49122D01*
X31833Y-49178D01*
X31833Y-49347D01*
X31861Y-49403D01*
X31889Y-49431D01*
X31946Y-49460D01*
X32058Y-49460D01*
X32114Y-49431D01*
X31580Y-49403D02*
X31552Y-49431D01*
X31580Y-49460D01*
X31608Y-49431D01*
X31580Y-49403D01*
X31580Y-49460D01*
X31214Y-49460D02*
X31271Y-49431D01*
X31299Y-49403D01*
X31327Y-49347D01*
X31327Y-49178D01*
X31299Y-49122D01*
X31271Y-49094D01*
X31214Y-49066D01*
X31130Y-49066D01*
X31074Y-49094D01*
X31046Y-49122D01*
X31017Y-49178D01*
X31017Y-49347D01*
X31046Y-49403D01*
X31074Y-49431D01*
X31130Y-49460D01*
X31214Y-49460D01*
X30764Y-49460D02*
X30764Y-49066D01*
X30764Y-49178D02*
X30736Y-49122D01*
X30708Y-49094D01*
X30652Y-49066D01*
X30596Y-49066D01*
X30146Y-49066D02*
X30146Y-49544D01*
X30174Y-49600D01*
X30202Y-49628D01*
X30258Y-49656D01*
X30343Y-49656D01*
X30399Y-49628D01*
X30146Y-49431D02*
X30202Y-49460D01*
X30314Y-49460D01*
X30371Y-49431D01*
X30399Y-49403D01*
X30427Y-49347D01*
X30427Y-49178D01*
X30399Y-49122D01*
X30371Y-49094D01*
X30314Y-49066D01*
X30202Y-49066D01*
X30146Y-49094D01*
G54D12*
X43304Y-44550D02*
X43342Y-44530D01*
X43400Y-44530D01*
X43457Y-44550D01*
X43495Y-44588D01*
X43514Y-44626D01*
X43533Y-44702D01*
X43533Y-44759D01*
X43514Y-44835D01*
X43495Y-44873D01*
X43457Y-44911D01*
X43400Y-44930D01*
X43361Y-44930D01*
X43304Y-44911D01*
X43285Y-44892D01*
X43285Y-44759D01*
X43361Y-44759D01*
X43114Y-44930D02*
X43114Y-44530D01*
X42885Y-44930D01*
X42885Y-44530D01*
X42695Y-44930D02*
X42695Y-44530D01*
X42599Y-44530D01*
X42542Y-44550D01*
X42504Y-44588D01*
X42485Y-44626D01*
X42466Y-44702D01*
X42466Y-44759D01*
X42485Y-44835D01*
X42504Y-44873D01*
X42542Y-44911D01*
X42599Y-44930D01*
X42695Y-44930D01*
X43533Y-46530D02*
X43399Y-46930D01*
X43266Y-46530D01*
X42904Y-46892D02*
X42923Y-46911D01*
X42980Y-46930D01*
X43019Y-46930D01*
X43076Y-46911D01*
X43114Y-46873D01*
X43133Y-46835D01*
X43152Y-46759D01*
X43152Y-46702D01*
X43133Y-46626D01*
X43114Y-46588D01*
X43076Y-46550D01*
X43019Y-46530D01*
X42980Y-46530D01*
X42923Y-46550D01*
X42904Y-46569D01*
X42504Y-46892D02*
X42523Y-46911D01*
X42580Y-46930D01*
X42619Y-46930D01*
X42676Y-46911D01*
X42714Y-46873D01*
X42733Y-46835D01*
X42752Y-46759D01*
X42752Y-46702D01*
X42733Y-46626D01*
X42714Y-46588D01*
X42676Y-46550D01*
X42619Y-46530D01*
X42580Y-46530D01*
X42523Y-46550D01*
X42504Y-46569D01*
X43304Y-45550D02*
X43342Y-45530D01*
X43400Y-45530D01*
X43457Y-45550D01*
X43495Y-45588D01*
X43514Y-45626D01*
X43533Y-45702D01*
X43533Y-45759D01*
X43514Y-45835D01*
X43495Y-45873D01*
X43457Y-45911D01*
X43400Y-45930D01*
X43361Y-45930D01*
X43304Y-45911D01*
X43285Y-45892D01*
X43285Y-45759D01*
X43361Y-45759D01*
X43114Y-45930D02*
X43114Y-45530D01*
X42885Y-45930D01*
X42885Y-45530D01*
X42695Y-45930D02*
X42695Y-45530D01*
X42599Y-45530D01*
X42542Y-45550D01*
X42504Y-45588D01*
X42485Y-45626D01*
X42466Y-45702D01*
X42466Y-45759D01*
X42485Y-45835D01*
X42504Y-45873D01*
X42542Y-45911D01*
X42599Y-45930D01*
X42695Y-45930D01*
X43533Y-47530D02*
X43399Y-47930D01*
X43266Y-47530D01*
X42904Y-47892D02*
X42923Y-47911D01*
X42980Y-47930D01*
X43019Y-47930D01*
X43076Y-47911D01*
X43114Y-47873D01*
X43133Y-47835D01*
X43152Y-47759D01*
X43152Y-47702D01*
X43133Y-47626D01*
X43114Y-47588D01*
X43076Y-47550D01*
X43019Y-47530D01*
X42980Y-47530D01*
X42923Y-47550D01*
X42904Y-47569D01*
X42504Y-47892D02*
X42523Y-47911D01*
X42580Y-47930D01*
X42619Y-47930D01*
X42676Y-47911D01*
X42714Y-47873D01*
X42733Y-47835D01*
X42752Y-47759D01*
X42752Y-47702D01*
X42733Y-47626D01*
X42714Y-47588D01*
X42676Y-47550D01*
X42619Y-47530D01*
X42580Y-47530D01*
X42523Y-47550D01*
X42504Y-47569D01*
X43428Y-49930D02*
X43428Y-49530D01*
X43333Y-49530D01*
X43276Y-49550D01*
X43238Y-49588D01*
X43219Y-49626D01*
X43200Y-49702D01*
X43200Y-49759D01*
X43219Y-49835D01*
X43238Y-49873D01*
X43276Y-49911D01*
X43333Y-49930D01*
X43428Y-49930D01*
X43028Y-49930D02*
X43028Y-49530D01*
X42838Y-49930D02*
X42838Y-49530D01*
X42704Y-49816D01*
X42571Y-49530D01*
X42571Y-49930D01*
X43314Y-48930D02*
X43314Y-48530D01*
X43085Y-48930D01*
X43085Y-48530D01*
X42666Y-48892D02*
X42685Y-48911D01*
X42742Y-48930D01*
X42780Y-48930D01*
X42838Y-48911D01*
X42876Y-48873D01*
X42895Y-48835D01*
X42914Y-48759D01*
X42914Y-48702D01*
X42895Y-48626D01*
X42876Y-48588D01*
X42838Y-48550D01*
X42780Y-48530D01*
X42742Y-48530D01*
X42685Y-48550D01*
X42666Y-48569D01*
X37080Y-39199D02*
X36930Y-39649D01*
X36780Y-39199D01*
X36373Y-39606D02*
X36394Y-39628D01*
X36459Y-39649D01*
X36501Y-39649D01*
X36566Y-39628D01*
X36609Y-39585D01*
X36630Y-39542D01*
X36651Y-39456D01*
X36651Y-39392D01*
X36630Y-39306D01*
X36609Y-39263D01*
X36566Y-39221D01*
X36501Y-39199D01*
X36459Y-39199D01*
X36394Y-39221D01*
X36373Y-39242D01*
X35923Y-39606D02*
X35944Y-39628D01*
X36009Y-39649D01*
X36051Y-39649D01*
X36116Y-39628D01*
X36159Y-39585D01*
X36180Y-39542D01*
X36201Y-39456D01*
X36201Y-39392D01*
X36180Y-39306D01*
X36159Y-39263D01*
X36116Y-39221D01*
X36051Y-39199D01*
X36009Y-39199D01*
X35944Y-39221D01*
X35923Y-39242D01*
X35730Y-39606D02*
X35709Y-39628D01*
X35730Y-39649D01*
X35751Y-39628D01*
X35730Y-39606D01*
X35730Y-39649D01*
X35730Y-39371D02*
X35709Y-39392D01*
X35730Y-39413D01*
X35751Y-39392D01*
X35730Y-39371D01*
X35730Y-39413D01*
X34937Y-39649D02*
X35194Y-39649D01*
X35066Y-39649D02*
X35066Y-39199D01*
X35109Y-39263D01*
X35151Y-39306D01*
X35194Y-39328D01*
X34680Y-39392D02*
X34723Y-39371D01*
X34744Y-39349D01*
X34766Y-39306D01*
X34766Y-39285D01*
X34744Y-39242D01*
X34723Y-39221D01*
X34680Y-39199D01*
X34594Y-39199D01*
X34551Y-39221D01*
X34530Y-39242D01*
X34509Y-39285D01*
X34509Y-39306D01*
X34530Y-39349D01*
X34551Y-39371D01*
X34594Y-39392D01*
X34680Y-39392D01*
X34723Y-39413D01*
X34744Y-39435D01*
X34766Y-39478D01*
X34766Y-39563D01*
X34744Y-39606D01*
X34723Y-39628D01*
X34680Y-39649D01*
X34594Y-39649D01*
X34551Y-39628D01*
X34530Y-39606D01*
X34509Y-39563D01*
X34509Y-39478D01*
X34530Y-39435D01*
X34551Y-39413D01*
X34594Y-39392D01*
X34316Y-39478D02*
X33973Y-39478D01*
X33780Y-39242D02*
X33759Y-39221D01*
X33716Y-39199D01*
X33609Y-39199D01*
X33566Y-39221D01*
X33544Y-39242D01*
X33523Y-39285D01*
X33523Y-39328D01*
X33544Y-39392D01*
X33801Y-39649D01*
X33523Y-39649D01*
X33137Y-39349D02*
X33137Y-39649D01*
X33244Y-39178D02*
X33351Y-39499D01*
X33073Y-39499D01*
X32966Y-39199D02*
X32816Y-39649D01*
X32666Y-39199D01*
X32173Y-39649D02*
X32173Y-39199D01*
X32066Y-39199D01*
X32001Y-39221D01*
X31959Y-39263D01*
X31937Y-39306D01*
X31916Y-39392D01*
X31916Y-39456D01*
X31937Y-39542D01*
X31959Y-39585D01*
X32001Y-39628D01*
X32066Y-39649D01*
X32173Y-39649D01*
X31466Y-39606D02*
X31487Y-39628D01*
X31551Y-39649D01*
X31594Y-39649D01*
X31659Y-39628D01*
X31701Y-39585D01*
X31723Y-39542D01*
X31744Y-39456D01*
X31744Y-39392D01*
X31723Y-39306D01*
X31701Y-39263D01*
X31659Y-39221D01*
X31594Y-39199D01*
X31551Y-39199D01*
X31487Y-39221D01*
X31466Y-39242D01*
X38859Y-40359D02*
X38859Y-39909D01*
X38751Y-39909D01*
X38687Y-39931D01*
X38644Y-39973D01*
X38623Y-40016D01*
X38601Y-40102D01*
X38601Y-40166D01*
X38623Y-40252D01*
X38644Y-40295D01*
X38687Y-40338D01*
X38751Y-40359D01*
X38859Y-40359D01*
X38409Y-40359D02*
X38409Y-39909D01*
X38194Y-40359D02*
X38194Y-39909D01*
X38044Y-40231D01*
X37894Y-39909D01*
X37894Y-40359D01*
X37680Y-40316D02*
X37659Y-40338D01*
X37680Y-40359D01*
X37701Y-40338D01*
X37680Y-40316D01*
X37680Y-40359D01*
X37680Y-40081D02*
X37659Y-40102D01*
X37680Y-40123D01*
X37701Y-40102D01*
X37680Y-40081D01*
X37680Y-40123D01*
X36909Y-39909D02*
X37123Y-39909D01*
X37144Y-40123D01*
X37123Y-40102D01*
X37080Y-40081D01*
X36973Y-40081D01*
X36930Y-40102D01*
X36909Y-40123D01*
X36887Y-40166D01*
X36887Y-40273D01*
X36909Y-40316D01*
X36930Y-40338D01*
X36973Y-40359D01*
X37080Y-40359D01*
X37123Y-40338D01*
X37144Y-40316D01*
X36759Y-39909D02*
X36609Y-40359D01*
X36459Y-39909D01*
X35966Y-40359D02*
X35966Y-39909D01*
X35794Y-39909D01*
X35751Y-39931D01*
X35730Y-39952D01*
X35709Y-39995D01*
X35709Y-40059D01*
X35730Y-40102D01*
X35751Y-40123D01*
X35794Y-40145D01*
X35966Y-40145D01*
X35559Y-39909D02*
X35451Y-40359D01*
X35366Y-40038D01*
X35280Y-40359D01*
X35173Y-39909D01*
X35001Y-40359D02*
X35001Y-39909D01*
X34851Y-40231D01*
X34701Y-39909D01*
X34701Y-40359D01*
X34080Y-40359D02*
X34123Y-40338D01*
X34144Y-40316D01*
X34166Y-40273D01*
X34166Y-40145D01*
X34144Y-40102D01*
X34123Y-40081D01*
X34080Y-40059D01*
X34016Y-40059D01*
X33973Y-40081D01*
X33951Y-40102D01*
X33930Y-40145D01*
X33930Y-40273D01*
X33951Y-40316D01*
X33973Y-40338D01*
X34016Y-40359D01*
X34080Y-40359D01*
X33737Y-40359D02*
X33737Y-40059D01*
X33737Y-40145D02*
X33716Y-40102D01*
X33694Y-40081D01*
X33651Y-40059D01*
X33609Y-40059D01*
X33030Y-39909D02*
X32987Y-39909D01*
X32944Y-39931D01*
X32923Y-39952D01*
X32901Y-39995D01*
X32880Y-40081D01*
X32880Y-40188D01*
X32901Y-40273D01*
X32923Y-40316D01*
X32944Y-40338D01*
X32987Y-40359D01*
X33030Y-40359D01*
X33073Y-40338D01*
X33094Y-40316D01*
X33116Y-40273D01*
X33137Y-40188D01*
X33137Y-40081D01*
X33116Y-39995D01*
X33094Y-39952D01*
X33073Y-39931D01*
X33030Y-39909D01*
X32687Y-40188D02*
X32344Y-40188D01*
X32151Y-39952D02*
X32130Y-39931D01*
X32087Y-39909D01*
X31980Y-39909D01*
X31937Y-39931D01*
X31916Y-39952D01*
X31894Y-39995D01*
X31894Y-40038D01*
X31916Y-40102D01*
X32173Y-40359D01*
X31894Y-40359D01*
X31701Y-40316D02*
X31680Y-40338D01*
X31701Y-40359D01*
X31723Y-40338D01*
X31701Y-40316D01*
X31701Y-40359D01*
X31273Y-39909D02*
X31487Y-39909D01*
X31509Y-40123D01*
X31487Y-40102D01*
X31444Y-40081D01*
X31337Y-40081D01*
X31294Y-40102D01*
X31273Y-40123D01*
X31251Y-40166D01*
X31251Y-40273D01*
X31273Y-40316D01*
X31294Y-40338D01*
X31337Y-40359D01*
X31444Y-40359D01*
X31487Y-40338D01*
X31509Y-40316D01*
X31123Y-39909D02*
X30973Y-40359D01*
X30823Y-39909D01*
X30330Y-40359D02*
X30330Y-39909D01*
X30223Y-39909D01*
X30159Y-39931D01*
X30116Y-39973D01*
X30094Y-40016D01*
X30073Y-40102D01*
X30073Y-40166D01*
X30094Y-40252D01*
X30116Y-40295D01*
X30159Y-40338D01*
X30223Y-40359D01*
X30330Y-40359D01*
X29623Y-40316D02*
X29644Y-40338D01*
X29709Y-40359D01*
X29751Y-40359D01*
X29816Y-40338D01*
X29859Y-40295D01*
X29880Y-40252D01*
X29901Y-40166D01*
X29901Y-40102D01*
X29880Y-40016D01*
X29859Y-39973D01*
X29816Y-39931D01*
X29751Y-39909D01*
X29709Y-39909D01*
X29644Y-39931D01*
X29623Y-39952D01*
X42191Y-41736D02*
X42212Y-41758D01*
X42276Y-41779D01*
X42319Y-41779D01*
X42384Y-41758D01*
X42426Y-41715D01*
X42448Y-41672D01*
X42469Y-41586D01*
X42469Y-41522D01*
X42448Y-41436D01*
X42426Y-41393D01*
X42384Y-41351D01*
X42319Y-41329D01*
X42276Y-41329D01*
X42212Y-41351D01*
X42191Y-41372D01*
X41805Y-41329D02*
X41891Y-41329D01*
X41934Y-41351D01*
X41955Y-41372D01*
X41998Y-41436D01*
X42019Y-41522D01*
X42019Y-41693D01*
X41998Y-41736D01*
X41976Y-41758D01*
X41934Y-41779D01*
X41848Y-41779D01*
X41805Y-41758D01*
X41784Y-41736D01*
X41762Y-41693D01*
X41762Y-41586D01*
X41784Y-41543D01*
X41805Y-41522D01*
X41848Y-41501D01*
X41934Y-41501D01*
X41976Y-41522D01*
X41998Y-41543D01*
X42019Y-41586D01*
X41569Y-41736D02*
X41548Y-41758D01*
X41569Y-41779D01*
X41591Y-41758D01*
X41569Y-41736D01*
X41569Y-41779D01*
X41569Y-41501D02*
X41548Y-41522D01*
X41569Y-41543D01*
X41591Y-41522D01*
X41569Y-41501D01*
X41569Y-41543D01*
X41034Y-41758D02*
X40991Y-41779D01*
X40905Y-41779D01*
X40862Y-41758D01*
X40841Y-41715D01*
X40841Y-41693D01*
X40862Y-41651D01*
X40905Y-41629D01*
X40969Y-41629D01*
X41012Y-41608D01*
X41034Y-41565D01*
X41034Y-41543D01*
X41012Y-41501D01*
X40969Y-41479D01*
X40905Y-41479D01*
X40862Y-41501D01*
X40584Y-41779D02*
X40626Y-41758D01*
X40648Y-41736D01*
X40669Y-41693D01*
X40669Y-41565D01*
X40648Y-41522D01*
X40626Y-41501D01*
X40584Y-41479D01*
X40519Y-41479D01*
X40476Y-41501D01*
X40455Y-41522D01*
X40434Y-41565D01*
X40434Y-41693D01*
X40455Y-41736D01*
X40476Y-41758D01*
X40519Y-41779D01*
X40584Y-41779D01*
X40305Y-41479D02*
X40134Y-41479D01*
X40241Y-41779D02*
X40241Y-41393D01*
X40219Y-41351D01*
X40176Y-41329D01*
X40134Y-41329D01*
X40048Y-41479D02*
X39876Y-41479D01*
X39984Y-41329D02*
X39984Y-41715D01*
X39962Y-41758D01*
X39919Y-41779D01*
X39876Y-41779D01*
X39726Y-41608D02*
X39384Y-41608D01*
X39191Y-41758D02*
X39148Y-41779D01*
X39062Y-41779D01*
X39019Y-41758D01*
X38998Y-41715D01*
X38998Y-41693D01*
X39019Y-41651D01*
X39062Y-41629D01*
X39126Y-41629D01*
X39169Y-41608D01*
X39191Y-41565D01*
X39191Y-41543D01*
X39169Y-41501D01*
X39126Y-41479D01*
X39062Y-41479D01*
X39019Y-41501D01*
X38869Y-41479D02*
X38698Y-41479D01*
X38805Y-41329D02*
X38805Y-41715D01*
X38784Y-41758D01*
X38741Y-41779D01*
X38698Y-41779D01*
X38355Y-41779D02*
X38355Y-41543D01*
X38376Y-41501D01*
X38419Y-41479D01*
X38505Y-41479D01*
X38548Y-41501D01*
X38355Y-41758D02*
X38398Y-41779D01*
X38505Y-41779D01*
X38548Y-41758D01*
X38569Y-41715D01*
X38569Y-41672D01*
X38548Y-41629D01*
X38505Y-41608D01*
X38398Y-41608D01*
X38355Y-41586D01*
X38141Y-41779D02*
X38141Y-41479D01*
X38141Y-41565D02*
X38119Y-41522D01*
X38098Y-41501D01*
X38055Y-41479D01*
X38012Y-41479D01*
X37926Y-41479D02*
X37755Y-41479D01*
X37862Y-41329D02*
X37862Y-41715D01*
X37841Y-41758D01*
X37798Y-41779D01*
X37755Y-41779D01*
X37605Y-41736D02*
X37584Y-41758D01*
X37605Y-41779D01*
X37626Y-41758D01*
X37605Y-41736D01*
X37605Y-41779D01*
X37605Y-41501D02*
X37584Y-41522D01*
X37605Y-41543D01*
X37626Y-41522D01*
X37605Y-41501D01*
X37605Y-41543D01*
X36812Y-41779D02*
X37069Y-41779D01*
X36941Y-41779D02*
X36941Y-41329D01*
X36984Y-41393D01*
X37026Y-41436D01*
X37069Y-41458D01*
X36619Y-41736D02*
X36598Y-41758D01*
X36619Y-41779D01*
X36641Y-41758D01*
X36619Y-41736D01*
X36619Y-41779D01*
X36426Y-41372D02*
X36405Y-41351D01*
X36362Y-41329D01*
X36255Y-41329D01*
X36212Y-41351D01*
X36191Y-41372D01*
X36169Y-41415D01*
X36169Y-41458D01*
X36191Y-41522D01*
X36448Y-41779D01*
X36169Y-41779D01*
X35762Y-41329D02*
X35976Y-41329D01*
X35998Y-41543D01*
X35976Y-41522D01*
X35934Y-41501D01*
X35826Y-41501D01*
X35784Y-41522D01*
X35762Y-41543D01*
X35741Y-41586D01*
X35741Y-41693D01*
X35762Y-41736D01*
X35784Y-41758D01*
X35826Y-41779D01*
X35934Y-41779D01*
X35976Y-41758D01*
X35998Y-41736D01*
X35548Y-41479D02*
X35548Y-41929D01*
X35334Y-41715D02*
X35312Y-41758D01*
X35269Y-41779D01*
X35548Y-41715D02*
X35526Y-41758D01*
X35484Y-41779D01*
X35398Y-41779D01*
X35355Y-41758D01*
X35334Y-41715D01*
X35334Y-41479D01*
X34926Y-41543D02*
X35076Y-41543D01*
X35076Y-41779D02*
X35076Y-41329D01*
X34862Y-41329D01*
X34369Y-41308D02*
X34755Y-41886D01*
X34241Y-41758D02*
X34198Y-41779D01*
X34112Y-41779D01*
X34069Y-41758D01*
X34048Y-41715D01*
X34048Y-41693D01*
X34069Y-41651D01*
X34112Y-41629D01*
X34176Y-41629D01*
X34219Y-41608D01*
X34241Y-41565D01*
X34241Y-41543D01*
X34219Y-41501D01*
X34176Y-41479D01*
X34112Y-41479D01*
X34069Y-41501D01*
X33384Y-41951D02*
X33405Y-41929D01*
X33448Y-41865D01*
X33469Y-41822D01*
X33491Y-41758D01*
X33512Y-41651D01*
X33512Y-41565D01*
X33491Y-41458D01*
X33469Y-41393D01*
X33448Y-41351D01*
X33405Y-41286D01*
X33384Y-41265D01*
X33212Y-41779D02*
X33212Y-41479D01*
X33212Y-41565D02*
X33191Y-41522D01*
X33169Y-41501D01*
X33126Y-41479D01*
X33084Y-41479D01*
X32762Y-41758D02*
X32805Y-41779D01*
X32891Y-41779D01*
X32934Y-41758D01*
X32955Y-41715D01*
X32955Y-41543D01*
X32934Y-41501D01*
X32891Y-41479D01*
X32805Y-41479D01*
X32762Y-41501D01*
X32741Y-41543D01*
X32741Y-41586D01*
X32955Y-41629D01*
X32548Y-41779D02*
X32548Y-41479D01*
X32548Y-41522D02*
X32526Y-41501D01*
X32484Y-41479D01*
X32419Y-41479D01*
X32376Y-41501D01*
X32355Y-41543D01*
X32355Y-41779D01*
X32355Y-41543D02*
X32334Y-41501D01*
X32291Y-41479D01*
X32226Y-41479D01*
X32184Y-41501D01*
X32162Y-41543D01*
X32162Y-41779D01*
X31884Y-41779D02*
X31926Y-41758D01*
X31948Y-41736D01*
X31969Y-41693D01*
X31969Y-41565D01*
X31948Y-41522D01*
X31926Y-41501D01*
X31884Y-41479D01*
X31819Y-41479D01*
X31776Y-41501D01*
X31755Y-41522D01*
X31734Y-41565D01*
X31734Y-41693D01*
X31755Y-41736D01*
X31776Y-41758D01*
X31819Y-41779D01*
X31884Y-41779D01*
X31584Y-41479D02*
X31476Y-41779D01*
X31369Y-41479D01*
X31026Y-41758D02*
X31069Y-41779D01*
X31155Y-41779D01*
X31198Y-41758D01*
X31219Y-41715D01*
X31219Y-41543D01*
X31198Y-41501D01*
X31155Y-41479D01*
X31069Y-41479D01*
X31026Y-41501D01*
X31005Y-41543D01*
X31005Y-41586D01*
X31219Y-41629D01*
X30534Y-41479D02*
X30362Y-41479D01*
X30469Y-41779D02*
X30469Y-41393D01*
X30448Y-41351D01*
X30405Y-41329D01*
X30362Y-41329D01*
X30148Y-41779D02*
X30191Y-41758D01*
X30212Y-41736D01*
X30234Y-41693D01*
X30234Y-41565D01*
X30212Y-41522D01*
X30191Y-41501D01*
X30148Y-41479D01*
X30084Y-41479D01*
X30041Y-41501D01*
X30019Y-41522D01*
X29998Y-41565D01*
X29998Y-41693D01*
X30019Y-41736D01*
X30041Y-41758D01*
X30084Y-41779D01*
X30148Y-41779D01*
X29805Y-41779D02*
X29805Y-41479D01*
X29805Y-41565D02*
X29784Y-41522D01*
X29762Y-41501D01*
X29719Y-41479D01*
X29676Y-41479D01*
X29012Y-41758D02*
X29055Y-41779D01*
X29141Y-41779D01*
X29184Y-41758D01*
X29205Y-41715D01*
X29205Y-41543D01*
X29184Y-41501D01*
X29141Y-41479D01*
X29055Y-41479D01*
X29012Y-41501D01*
X28991Y-41543D01*
X28991Y-41586D01*
X29205Y-41629D01*
X28841Y-41779D02*
X28605Y-41479D01*
X28841Y-41479D02*
X28605Y-41779D01*
X28498Y-41479D02*
X28326Y-41479D01*
X28434Y-41329D02*
X28434Y-41715D01*
X28412Y-41758D01*
X28369Y-41779D01*
X28326Y-41779D01*
X28176Y-41736D02*
X28155Y-41758D01*
X28176Y-41779D01*
X28198Y-41758D01*
X28176Y-41736D01*
X28176Y-41779D01*
X27619Y-41779D02*
X27619Y-41329D01*
X27448Y-41329D01*
X27405Y-41351D01*
X27384Y-41372D01*
X27362Y-41415D01*
X27362Y-41479D01*
X27384Y-41522D01*
X27405Y-41543D01*
X27448Y-41565D01*
X27619Y-41565D01*
X27212Y-41329D02*
X27105Y-41779D01*
X27019Y-41458D01*
X26934Y-41779D01*
X26826Y-41329D01*
X26655Y-41779D02*
X26655Y-41329D01*
X26505Y-41651D01*
X26355Y-41329D01*
X26355Y-41779D01*
X26184Y-41951D02*
X26162Y-41929D01*
X26119Y-41865D01*
X26098Y-41822D01*
X26076Y-41758D01*
X26055Y-41651D01*
X26055Y-41565D01*
X26076Y-41458D01*
X26098Y-41393D01*
X26119Y-41351D01*
X26162Y-41286D01*
X26184Y-41265D01*
X41226Y-42489D02*
X41376Y-42275D01*
X41484Y-42489D02*
X41484Y-42039D01*
X41312Y-42039D01*
X41269Y-42061D01*
X41248Y-42082D01*
X41226Y-42125D01*
X41226Y-42189D01*
X41248Y-42232D01*
X41269Y-42253D01*
X41312Y-42275D01*
X41484Y-42275D01*
X40798Y-42489D02*
X41055Y-42489D01*
X40926Y-42489D02*
X40926Y-42039D01*
X40969Y-42103D01*
X41012Y-42146D01*
X41055Y-42168D01*
X40605Y-42446D02*
X40584Y-42468D01*
X40605Y-42489D01*
X40626Y-42468D01*
X40605Y-42446D01*
X40605Y-42489D01*
X40605Y-42211D02*
X40584Y-42232D01*
X40605Y-42253D01*
X40626Y-42232D01*
X40605Y-42211D01*
X40605Y-42253D01*
X39812Y-42489D02*
X40069Y-42489D01*
X39941Y-42489D02*
X39941Y-42039D01*
X39984Y-42103D01*
X40026Y-42146D01*
X40069Y-42168D01*
X39619Y-42489D02*
X39619Y-42039D01*
X39469Y-42361D01*
X39319Y-42039D01*
X39319Y-42489D01*
X38805Y-42189D02*
X38719Y-42489D01*
X38634Y-42275D01*
X38548Y-42489D01*
X38462Y-42189D01*
X38291Y-42489D02*
X38291Y-42189D01*
X38291Y-42039D02*
X38312Y-42061D01*
X38291Y-42082D01*
X38269Y-42061D01*
X38291Y-42039D01*
X38291Y-42082D01*
X38141Y-42189D02*
X37969Y-42189D01*
X38076Y-42039D02*
X38076Y-42425D01*
X38055Y-42468D01*
X38012Y-42489D01*
X37969Y-42489D01*
X37819Y-42489D02*
X37819Y-42039D01*
X37626Y-42489D02*
X37626Y-42253D01*
X37648Y-42211D01*
X37691Y-42189D01*
X37755Y-42189D01*
X37798Y-42211D01*
X37819Y-42232D01*
X37091Y-42468D02*
X37048Y-42489D01*
X36962Y-42489D01*
X36919Y-42468D01*
X36898Y-42425D01*
X36898Y-42403D01*
X36919Y-42361D01*
X36962Y-42339D01*
X37026Y-42339D01*
X37069Y-42318D01*
X37091Y-42275D01*
X37091Y-42253D01*
X37069Y-42211D01*
X37026Y-42189D01*
X36962Y-42189D01*
X36919Y-42211D01*
X36641Y-42489D02*
X36684Y-42468D01*
X36705Y-42446D01*
X36726Y-42403D01*
X36726Y-42275D01*
X36705Y-42232D01*
X36684Y-42211D01*
X36641Y-42189D01*
X36576Y-42189D01*
X36534Y-42211D01*
X36512Y-42232D01*
X36491Y-42275D01*
X36491Y-42403D01*
X36512Y-42446D01*
X36534Y-42468D01*
X36576Y-42489D01*
X36641Y-42489D01*
X36362Y-42189D02*
X36191Y-42189D01*
X36298Y-42489D02*
X36298Y-42103D01*
X36276Y-42061D01*
X36234Y-42039D01*
X36191Y-42039D01*
X36105Y-42189D02*
X35934Y-42189D01*
X36041Y-42039D02*
X36041Y-42425D01*
X36019Y-42468D01*
X35976Y-42489D01*
X35934Y-42489D01*
X35784Y-42318D02*
X35441Y-42318D01*
X35248Y-42468D02*
X35205Y-42489D01*
X35119Y-42489D01*
X35076Y-42468D01*
X35055Y-42425D01*
X35055Y-42403D01*
X35076Y-42361D01*
X35119Y-42339D01*
X35184Y-42339D01*
X35226Y-42318D01*
X35248Y-42275D01*
X35248Y-42253D01*
X35226Y-42211D01*
X35184Y-42189D01*
X35119Y-42189D01*
X35076Y-42211D01*
X34926Y-42189D02*
X34755Y-42189D01*
X34862Y-42039D02*
X34862Y-42425D01*
X34841Y-42468D01*
X34798Y-42489D01*
X34755Y-42489D01*
X34412Y-42489D02*
X34412Y-42253D01*
X34434Y-42211D01*
X34476Y-42189D01*
X34562Y-42189D01*
X34605Y-42211D01*
X34412Y-42468D02*
X34455Y-42489D01*
X34562Y-42489D01*
X34605Y-42468D01*
X34626Y-42425D01*
X34626Y-42382D01*
X34605Y-42339D01*
X34562Y-42318D01*
X34455Y-42318D01*
X34412Y-42296D01*
X34198Y-42489D02*
X34198Y-42189D01*
X34198Y-42275D02*
X34176Y-42232D01*
X34155Y-42211D01*
X34112Y-42189D01*
X34069Y-42189D01*
X33984Y-42189D02*
X33812Y-42189D01*
X33919Y-42039D02*
X33919Y-42425D01*
X33898Y-42468D01*
X33855Y-42489D01*
X33812Y-42489D01*
X33641Y-42468D02*
X33641Y-42489D01*
X33662Y-42532D01*
X33684Y-42553D01*
X32869Y-42489D02*
X33126Y-42489D01*
X32998Y-42489D02*
X32998Y-42039D01*
X33041Y-42103D01*
X33084Y-42146D01*
X33126Y-42168D01*
X32591Y-42039D02*
X32548Y-42039D01*
X32505Y-42061D01*
X32484Y-42082D01*
X32462Y-42125D01*
X32441Y-42211D01*
X32441Y-42318D01*
X32462Y-42403D01*
X32484Y-42446D01*
X32505Y-42468D01*
X32548Y-42489D01*
X32591Y-42489D01*
X32634Y-42468D01*
X32655Y-42446D01*
X32676Y-42403D01*
X32698Y-42318D01*
X32698Y-42211D01*
X32676Y-42125D01*
X32655Y-42082D01*
X32634Y-42061D01*
X32591Y-42039D01*
X32248Y-42489D02*
X32248Y-42039D01*
X32205Y-42318D02*
X32076Y-42489D01*
X32076Y-42189D02*
X32248Y-42361D01*
X31584Y-42189D02*
X31498Y-42489D01*
X31412Y-42275D01*
X31326Y-42489D01*
X31241Y-42189D01*
X31069Y-42489D02*
X31069Y-42189D01*
X31069Y-42039D02*
X31091Y-42061D01*
X31069Y-42082D01*
X31048Y-42061D01*
X31069Y-42039D01*
X31069Y-42082D01*
X30919Y-42189D02*
X30748Y-42189D01*
X30855Y-42039D02*
X30855Y-42425D01*
X30834Y-42468D01*
X30791Y-42489D01*
X30748Y-42489D01*
X30598Y-42489D02*
X30598Y-42039D01*
X30405Y-42489D02*
X30405Y-42253D01*
X30426Y-42211D01*
X30469Y-42189D01*
X30534Y-42189D01*
X30576Y-42211D01*
X30598Y-42232D01*
X29676Y-42468D02*
X29719Y-42489D01*
X29805Y-42489D01*
X29848Y-42468D01*
X29869Y-42425D01*
X29869Y-42253D01*
X29848Y-42211D01*
X29805Y-42189D01*
X29719Y-42189D01*
X29676Y-42211D01*
X29655Y-42253D01*
X29655Y-42296D01*
X29869Y-42339D01*
X29505Y-42489D02*
X29269Y-42189D01*
X29505Y-42189D02*
X29269Y-42489D01*
X29162Y-42189D02*
X28991Y-42189D01*
X29098Y-42039D02*
X29098Y-42425D01*
X29076Y-42468D01*
X29034Y-42489D01*
X28991Y-42489D01*
X28841Y-42446D02*
X28819Y-42468D01*
X28841Y-42489D01*
X28862Y-42468D01*
X28841Y-42446D01*
X28841Y-42489D01*
X28284Y-42489D02*
X28284Y-42039D01*
X28112Y-42039D01*
X28069Y-42061D01*
X28048Y-42082D01*
X28026Y-42125D01*
X28026Y-42189D01*
X28048Y-42232D01*
X28069Y-42253D01*
X28112Y-42275D01*
X28284Y-42275D01*
X27876Y-42039D02*
X27769Y-42489D01*
X27684Y-42168D01*
X27598Y-42489D01*
X27491Y-42039D01*
X27319Y-42489D02*
X27319Y-42039D01*
X27169Y-42361D01*
X27019Y-42039D01*
X27019Y-42489D01*
X25814Y-48930D02*
X25814Y-48530D01*
X25585Y-48930D01*
X25585Y-48530D01*
X25166Y-48892D02*
X25185Y-48911D01*
X25242Y-48930D01*
X25280Y-48930D01*
X25338Y-48911D01*
X25376Y-48873D01*
X25395Y-48835D01*
X25414Y-48759D01*
X25414Y-48702D01*
X25395Y-48626D01*
X25376Y-48588D01*
X25338Y-48550D01*
X25280Y-48530D01*
X25242Y-48530D01*
X25185Y-48550D01*
X25166Y-48569D01*
X25928Y-49930D02*
X25928Y-49530D01*
X25833Y-49530D01*
X25776Y-49550D01*
X25738Y-49588D01*
X25719Y-49626D01*
X25700Y-49702D01*
X25700Y-49759D01*
X25719Y-49835D01*
X25738Y-49873D01*
X25776Y-49911D01*
X25833Y-49930D01*
X25928Y-49930D01*
X25528Y-49930D02*
X25528Y-49530D01*
X25338Y-49930D02*
X25338Y-49530D01*
X25204Y-49816D01*
X25071Y-49530D01*
X25071Y-49930D01*
X26033Y-47530D02*
X25899Y-47930D01*
X25766Y-47530D01*
X25404Y-47892D02*
X25423Y-47911D01*
X25480Y-47930D01*
X25519Y-47930D01*
X25576Y-47911D01*
X25614Y-47873D01*
X25633Y-47835D01*
X25652Y-47759D01*
X25652Y-47702D01*
X25633Y-47626D01*
X25614Y-47588D01*
X25576Y-47550D01*
X25519Y-47530D01*
X25480Y-47530D01*
X25423Y-47550D01*
X25404Y-47569D01*
X25004Y-47892D02*
X25023Y-47911D01*
X25080Y-47930D01*
X25119Y-47930D01*
X25176Y-47911D01*
X25214Y-47873D01*
X25233Y-47835D01*
X25252Y-47759D01*
X25252Y-47702D01*
X25233Y-47626D01*
X25214Y-47588D01*
X25176Y-47550D01*
X25119Y-47530D01*
X25080Y-47530D01*
X25023Y-47550D01*
X25004Y-47569D01*
X25804Y-45550D02*
X25842Y-45530D01*
X25900Y-45530D01*
X25957Y-45550D01*
X25995Y-45588D01*
X26014Y-45626D01*
X26033Y-45702D01*
X26033Y-45759D01*
X26014Y-45835D01*
X25995Y-45873D01*
X25957Y-45911D01*
X25900Y-45930D01*
X25861Y-45930D01*
X25804Y-45911D01*
X25785Y-45892D01*
X25785Y-45759D01*
X25861Y-45759D01*
X25614Y-45930D02*
X25614Y-45530D01*
X25385Y-45930D01*
X25385Y-45530D01*
X25195Y-45930D02*
X25195Y-45530D01*
X25099Y-45530D01*
X25042Y-45550D01*
X25004Y-45588D01*
X24985Y-45626D01*
X24966Y-45702D01*
X24966Y-45759D01*
X24985Y-45835D01*
X25004Y-45873D01*
X25042Y-45911D01*
X25099Y-45930D01*
X25195Y-45930D01*
X26033Y-46530D02*
X25899Y-46930D01*
X25766Y-46530D01*
X25404Y-46892D02*
X25423Y-46911D01*
X25480Y-46930D01*
X25519Y-46930D01*
X25576Y-46911D01*
X25614Y-46873D01*
X25633Y-46835D01*
X25652Y-46759D01*
X25652Y-46702D01*
X25633Y-46626D01*
X25614Y-46588D01*
X25576Y-46550D01*
X25519Y-46530D01*
X25480Y-46530D01*
X25423Y-46550D01*
X25404Y-46569D01*
X25004Y-46892D02*
X25023Y-46911D01*
X25080Y-46930D01*
X25119Y-46930D01*
X25176Y-46911D01*
X25214Y-46873D01*
X25233Y-46835D01*
X25252Y-46759D01*
X25252Y-46702D01*
X25233Y-46626D01*
X25214Y-46588D01*
X25176Y-46550D01*
X25119Y-46530D01*
X25080Y-46530D01*
X25023Y-46550D01*
X25004Y-46569D01*
X25804Y-44550D02*
X25842Y-44530D01*
X25900Y-44530D01*
X25957Y-44550D01*
X25995Y-44588D01*
X26014Y-44626D01*
X26033Y-44702D01*
X26033Y-44759D01*
X26014Y-44835D01*
X25995Y-44873D01*
X25957Y-44911D01*
X25900Y-44930D01*
X25861Y-44930D01*
X25804Y-44911D01*
X25785Y-44892D01*
X25785Y-44759D01*
X25861Y-44759D01*
X25614Y-44930D02*
X25614Y-44530D01*
X25385Y-44930D01*
X25385Y-44530D01*
X25195Y-44930D02*
X25195Y-44530D01*
X25099Y-44530D01*
X25042Y-44550D01*
X25004Y-44588D01*
X24985Y-44626D01*
X24966Y-44702D01*
X24966Y-44759D01*
X24985Y-44835D01*
X25004Y-44873D01*
X25042Y-44911D01*
X25099Y-44930D01*
X25195Y-44930D01*
G54D14*
G36*
X35827Y-48054D02*
X35817Y-48088D01*
X35799Y-48140D01*
X35773Y-48185D01*
X35741Y-48226D01*
X35703Y-48261D01*
X35659Y-48289D01*
X35609Y-48311D01*
X35591Y-48317D01*
X35578Y-48321D01*
X35578Y-46751D01*
X35578Y-46614D01*
X35578Y-46485D01*
X35578Y-46365D01*
X35578Y-46252D01*
X35577Y-46148D01*
X35577Y-46051D01*
X35577Y-45962D01*
X35577Y-45882D01*
X35577Y-45808D01*
X35577Y-45743D01*
X35576Y-45684D01*
X35576Y-45634D01*
X35576Y-45590D01*
X35575Y-45553D01*
X35575Y-45523D01*
X35574Y-45501D01*
X35574Y-45485D01*
X35574Y-45475D01*
X35573Y-45472D01*
X35563Y-45456D01*
X35548Y-45440D01*
X35532Y-45430D01*
X35529Y-45429D01*
X35524Y-45429D01*
X35516Y-45428D01*
X35505Y-45427D01*
X35491Y-45427D01*
X35473Y-45426D01*
X35452Y-45426D01*
X35425Y-45426D01*
X35394Y-45425D01*
X35358Y-45425D01*
X35317Y-45425D01*
X35269Y-45425D01*
X35215Y-45425D01*
X35155Y-45424D01*
X35088Y-45424D01*
X35014Y-45424D01*
X34932Y-45424D01*
X34842Y-45424D01*
X34779Y-45424D01*
X34040Y-45424D01*
X33482Y-45982D01*
X32924Y-46540D01*
X32924Y-47278D01*
X32924Y-47383D01*
X32924Y-47480D01*
X32924Y-47568D01*
X32925Y-47649D01*
X32925Y-47721D01*
X32925Y-47785D01*
X32925Y-47841D01*
X32926Y-47890D01*
X32926Y-47931D01*
X32926Y-47965D01*
X32927Y-47992D01*
X32928Y-48011D01*
X32928Y-48024D01*
X32929Y-48029D01*
X32929Y-48029D01*
X32938Y-48046D01*
X32953Y-48061D01*
X32969Y-48072D01*
X32971Y-48072D01*
X32976Y-48073D01*
X32984Y-48073D01*
X32994Y-48074D01*
X33008Y-48074D01*
X33025Y-48075D01*
X33046Y-48075D01*
X33071Y-48075D01*
X33100Y-48076D01*
X33134Y-48076D01*
X33173Y-48076D01*
X33216Y-48076D01*
X33265Y-48077D01*
X33320Y-48077D01*
X33380Y-48077D01*
X33447Y-48077D01*
X33519Y-48077D01*
X33599Y-48077D01*
X33685Y-48077D01*
X33779Y-48077D01*
X33880Y-48077D01*
X33989Y-48078D01*
X34106Y-48078D01*
X34231Y-48078D01*
X34250Y-48078D01*
X34387Y-48078D01*
X34516Y-48078D01*
X34637Y-48078D01*
X34749Y-48077D01*
X34854Y-48077D01*
X34950Y-48077D01*
X35039Y-48077D01*
X35120Y-48077D01*
X35193Y-48077D01*
X35259Y-48077D01*
X35317Y-48076D01*
X35368Y-48076D01*
X35412Y-48076D01*
X35448Y-48075D01*
X35478Y-48075D01*
X35501Y-48074D01*
X35517Y-48074D01*
X35527Y-48074D01*
X35529Y-48073D01*
X35546Y-48063D01*
X35562Y-48048D01*
X35572Y-48032D01*
X35572Y-48030D01*
X35573Y-48025D01*
X35573Y-48018D01*
X35574Y-48008D01*
X35574Y-47996D01*
X35575Y-47980D01*
X35575Y-47960D01*
X35576Y-47937D01*
X35576Y-47910D01*
X35576Y-47878D01*
X35576Y-47842D01*
X35577Y-47801D01*
X35577Y-47755D01*
X35577Y-47704D01*
X35577Y-47646D01*
X35577Y-47583D01*
X35577Y-47514D01*
X35577Y-47438D01*
X35578Y-47356D01*
X35578Y-47266D01*
X35578Y-47169D01*
X35578Y-47065D01*
X35578Y-46953D01*
X35578Y-46832D01*
X35578Y-46751D01*
X35578Y-48321D01*
X35559Y-48327D01*
X34270Y-48328D01*
X34166Y-48328D01*
X34064Y-48328D01*
X33963Y-48328D01*
X33866Y-48328D01*
X33772Y-48328D01*
X33681Y-48328D01*
X33594Y-48328D01*
X33511Y-48328D01*
X33432Y-48327D01*
X33358Y-48327D01*
X33289Y-48327D01*
X33226Y-48327D01*
X33169Y-48327D01*
X33117Y-48327D01*
X33072Y-48327D01*
X33034Y-48326D01*
X33003Y-48326D01*
X32980Y-48326D01*
X32964Y-48326D01*
X32957Y-48325D01*
X32956Y-48325D01*
X32906Y-48315D01*
X32859Y-48298D01*
X32816Y-48273D01*
X32777Y-48242D01*
X32743Y-48204D01*
X32715Y-48162D01*
X32693Y-48114D01*
X32684Y-48088D01*
X32675Y-48054D01*
X32675Y-47256D01*
X32675Y-46459D01*
X32686Y-46436D01*
X32688Y-46432D01*
X32692Y-46427D01*
X32697Y-46421D01*
X32705Y-46412D01*
X32715Y-46401D01*
X32727Y-46388D01*
X32742Y-46372D01*
X32760Y-46354D01*
X32781Y-46332D01*
X32805Y-46307D01*
X32833Y-46279D01*
X32865Y-46246D01*
X32901Y-46210D01*
X32942Y-46169D01*
X32987Y-46124D01*
X33037Y-46074D01*
X33092Y-46019D01*
X33152Y-45959D01*
X33217Y-45893D01*
X33289Y-45821D01*
X33307Y-45803D01*
X33380Y-45730D01*
X33448Y-45663D01*
X33510Y-45601D01*
X33566Y-45544D01*
X33618Y-45493D01*
X33665Y-45447D01*
X33707Y-45405D01*
X33744Y-45368D01*
X33778Y-45335D01*
X33807Y-45305D01*
X33833Y-45280D01*
X33855Y-45259D01*
X33875Y-45240D01*
X33891Y-45225D01*
X33904Y-45212D01*
X33915Y-45202D01*
X33924Y-45195D01*
X33930Y-45189D01*
X33935Y-45186D01*
X33938Y-45184D01*
X33959Y-45175D01*
X34756Y-45175D01*
X35554Y-45175D01*
X35588Y-45184D01*
X35640Y-45203D01*
X35685Y-45229D01*
X35726Y-45261D01*
X35760Y-45299D01*
X35789Y-45342D01*
X35810Y-45392D01*
X35817Y-45414D01*
X35827Y-45448D01*
X35827Y-46751D01*
X35827Y-48054D01*
X35827Y-48054D01*
X35827Y-48054D01*
G37*
G36*
X33595Y-45301D02*
X33591Y-45331D01*
X33581Y-45359D01*
X33576Y-45367D01*
X33572Y-45372D01*
X33562Y-45383D01*
X33546Y-45399D01*
X33526Y-45420D01*
X33501Y-45445D01*
X33473Y-45474D01*
X33440Y-45507D01*
X33404Y-45543D01*
X33366Y-45582D01*
X33325Y-45623D01*
X33281Y-45667D01*
X33236Y-45712D01*
X33218Y-45730D01*
X33163Y-45785D01*
X33113Y-45835D01*
X33069Y-45879D01*
X33030Y-45918D01*
X32995Y-45952D01*
X32965Y-45981D01*
X32940Y-46006D01*
X32918Y-46027D01*
X32900Y-46044D01*
X32885Y-46058D01*
X32873Y-46068D01*
X32864Y-46076D01*
X32857Y-46081D01*
X32853Y-46084D01*
X32852Y-46085D01*
X32827Y-46092D01*
X32801Y-46096D01*
X32777Y-46094D01*
X32774Y-46094D01*
X32745Y-46084D01*
X32719Y-46068D01*
X32699Y-46047D01*
X32696Y-46043D01*
X32692Y-46036D01*
X32688Y-46031D01*
X32685Y-46024D01*
X32682Y-46017D01*
X32680Y-46009D01*
X32678Y-45999D01*
X32677Y-45987D01*
X32675Y-45971D01*
X32674Y-45952D01*
X32674Y-45928D01*
X32673Y-45900D01*
X32673Y-45867D01*
X32673Y-45827D01*
X32673Y-45782D01*
X32673Y-45729D01*
X32673Y-45668D01*
X32673Y-45624D01*
X32673Y-45561D01*
X32674Y-45505D01*
X32674Y-45457D01*
X32674Y-45416D01*
X32675Y-45381D01*
X32675Y-45352D01*
X32675Y-45328D01*
X32676Y-45309D01*
X32676Y-45293D01*
X32677Y-45281D01*
X32678Y-45272D01*
X32679Y-45265D01*
X32680Y-45260D01*
X32681Y-45256D01*
X32682Y-45252D01*
X32683Y-45251D01*
X32700Y-45223D01*
X32720Y-45202D01*
X32745Y-45187D01*
X32770Y-45178D01*
X32776Y-45177D01*
X32783Y-45176D01*
X32792Y-45176D01*
X32804Y-45175D01*
X32820Y-45174D01*
X32839Y-45174D01*
X32862Y-45173D01*
X32891Y-45173D01*
X32925Y-45173D01*
X32965Y-45173D01*
X33012Y-45173D01*
X33066Y-45173D01*
X33128Y-45173D01*
X33149Y-45173D01*
X33503Y-45175D01*
X33522Y-45184D01*
X33544Y-45198D01*
X33564Y-45216D01*
X33580Y-45236D01*
X33583Y-45243D01*
X33592Y-45271D01*
X33595Y-45301D01*
X33595Y-45301D01*
X33595Y-45301D01*
G37*
G36*
X34111Y-47971D02*
X34008Y-47971D01*
X34008Y-47485D01*
X33116Y-47485D01*
X33116Y-47382D01*
X34111Y-47382D01*
X34111Y-47971D01*
X34111Y-47971D01*
X34111Y-47971D01*
G37*
G36*
X33496Y-47890D02*
X33146Y-47890D01*
X33146Y-47788D01*
X33496Y-47788D01*
X33496Y-47890D01*
X33496Y-47890D01*
X33496Y-47890D01*
G37*
G36*
X33906Y-47886D02*
X33646Y-47886D01*
X33646Y-47783D01*
X33906Y-47783D01*
X33906Y-47886D01*
X33906Y-47886D01*
X33906Y-47886D01*
G37*
G36*
X35488Y-47233D02*
X35243Y-47233D01*
X34997Y-47233D01*
X34997Y-47365D01*
X34997Y-47497D01*
X34946Y-47497D01*
X34895Y-47497D01*
X34894Y-47406D01*
X34893Y-47315D01*
X34813Y-47399D01*
X34733Y-47482D01*
X34733Y-47633D01*
X34733Y-47783D01*
X34792Y-47783D01*
X34852Y-47783D01*
X34852Y-47835D01*
X34852Y-47886D01*
X34673Y-47886D01*
X34494Y-47886D01*
X34494Y-47835D01*
X34494Y-47783D01*
X34562Y-47783D01*
X34630Y-47783D01*
X34631Y-47618D01*
X34631Y-47581D01*
X34631Y-47546D01*
X34632Y-47515D01*
X34632Y-47488D01*
X34633Y-47466D01*
X34633Y-47451D01*
X34634Y-47444D01*
X34634Y-47443D01*
X34637Y-47438D01*
X34646Y-47427D01*
X34659Y-47412D01*
X34676Y-47393D01*
X34697Y-47371D01*
X34719Y-47347D01*
X34737Y-47328D01*
X34762Y-47302D01*
X34785Y-47277D01*
X34807Y-47255D01*
X34825Y-47235D01*
X34840Y-47219D01*
X34851Y-47207D01*
X34855Y-47203D01*
X34873Y-47183D01*
X34765Y-47072D01*
X34740Y-47045D01*
X34716Y-47021D01*
X34695Y-46999D01*
X34677Y-46979D01*
X34662Y-46964D01*
X34652Y-46953D01*
X34648Y-46948D01*
X34644Y-46941D01*
X34641Y-46933D01*
X34640Y-46922D01*
X34639Y-46905D01*
X34639Y-46890D01*
X34639Y-46844D01*
X34302Y-46844D01*
X33966Y-46844D01*
X33966Y-46908D01*
X33966Y-46972D01*
X33863Y-46972D01*
X33863Y-46870D01*
X33863Y-46795D01*
X33863Y-46722D01*
X33629Y-46722D01*
X33396Y-46722D01*
X33355Y-46758D01*
X33340Y-46772D01*
X33327Y-46784D01*
X33319Y-46793D01*
X33315Y-46797D01*
X33315Y-46798D01*
X33318Y-46801D01*
X33326Y-46809D01*
X33338Y-46821D01*
X33353Y-46834D01*
X33354Y-46835D01*
X33394Y-46870D01*
X33629Y-46870D01*
X33863Y-46870D01*
X33863Y-46972D01*
X33659Y-46972D01*
X33353Y-46972D01*
X33257Y-46889D01*
X33233Y-46867D01*
X33211Y-46848D01*
X33192Y-46830D01*
X33177Y-46816D01*
X33166Y-46806D01*
X33161Y-46800D01*
X33161Y-46799D01*
X33164Y-46795D01*
X33173Y-46786D01*
X33186Y-46773D01*
X33204Y-46756D01*
X33224Y-46738D01*
X33247Y-46716D01*
X33257Y-46707D01*
X33353Y-46619D01*
X33659Y-46619D01*
X33966Y-46619D01*
X33966Y-46681D01*
X33966Y-46743D01*
X34302Y-46743D01*
X34639Y-46743D01*
X34639Y-46655D01*
X34639Y-46568D01*
X34571Y-46568D01*
X34502Y-46568D01*
X34502Y-46274D01*
X34502Y-45979D01*
X34566Y-45979D01*
X34630Y-45979D01*
X34630Y-45740D01*
X34630Y-45501D01*
X34682Y-45501D01*
X34733Y-45501D01*
X34733Y-45740D01*
X34733Y-45979D01*
X34797Y-45979D01*
X34861Y-45979D01*
X34861Y-46274D01*
X34861Y-46568D01*
X34801Y-46568D01*
X34758Y-46568D01*
X34758Y-46466D01*
X34758Y-46274D01*
X34758Y-46082D01*
X34682Y-46082D01*
X34605Y-46082D01*
X34605Y-46274D01*
X34605Y-46466D01*
X34682Y-46466D01*
X34758Y-46466D01*
X34758Y-46568D01*
X34741Y-46568D01*
X34741Y-46733D01*
X34742Y-46898D01*
X34818Y-46977D01*
X34895Y-47056D01*
X34895Y-46967D01*
X34895Y-46879D01*
X34946Y-46879D01*
X34997Y-46879D01*
X34997Y-47004D01*
X34997Y-47130D01*
X35243Y-47130D01*
X35488Y-47130D01*
X35488Y-47182D01*
X35488Y-47233D01*
X35488Y-47233D01*
X35488Y-47233D01*
G37*
G36*
X33564Y-47643D02*
X33146Y-47643D01*
X33146Y-47540D01*
X33564Y-47540D01*
X33564Y-47643D01*
X33564Y-47643D01*
X33564Y-47643D01*
G37*
G36*
X33940Y-47643D02*
X33646Y-47643D01*
X33646Y-47540D01*
X33940Y-47540D01*
X33940Y-47643D01*
X33940Y-47643D01*
X33940Y-47643D01*
G37*
%LPC*%
G54D15*
X26969Y-46744D03*
X26969Y-47744D03*
X26969Y-45744D03*
X26969Y-44744D03*
X26969Y-48744D03*
X26969Y-49744D03*
X41535Y-47744D03*
X41535Y-46744D03*
X41535Y-48744D03*
X41535Y-49744D03*
X41535Y-45744D03*
X41535Y-44744D03*
G54D16*
X42520Y-38976D03*
X25984Y-55512D03*
X42520Y-55512D03*
X25984Y-38976D03*
M02*
