%FSLAX46Y46*%
G04 Gerber Fmt 4.6, Leading zero omitted, Abs format (unit mm)*
G04 Created by KiCad (PCBNEW (2014-09-13 BZR 5129)-product) date Sat 13 Sep 2014 09:07:37 PM CEST*
%MOMM*%
G01*
G04 APERTURE LIST*
%ADD10C,0.150000*%
%ADD11C,0.203200*%
%ADD12C,0.200000*%
%ADD13C,0.002540*%
%ADD14R,0.701040X1.600200*%
%ADD15R,1.000760X2.199640*%
%ADD16R,1.800860X3.401060*%
%ADD17R,0.635000X0.635000*%
%ADD18R,2.300000X1.530000*%
%ADD19R,3.150000X0.700000*%
%ADD20R,2.300000X0.580000*%
%ADD21R,1.498600X1.297940*%
%ADD22C,1.651000*%
%ADD23C,3.000000*%
%ADD24R,1.800000X1.800000*%
%ADD25R,1.297940X1.498600*%
%ADD26R,1.000000X1.400000*%
%ADD27R,0.800000X1.000000*%
%ADD28R,1.800860X1.597660*%
%ADD29R,2.499360X4.500880*%
G04 APERTURE END LIST*
D10*
D11*
X76090097Y-142790381D02*
X76138478Y-142742000D01*
X76235240Y-142693619D01*
X76477144Y-142693619D01*
X76573906Y-142742000D01*
X76622287Y-142790381D01*
X76670668Y-142887143D01*
X76670668Y-142983905D01*
X76622287Y-143129048D01*
X76041716Y-143709619D01*
X76670668Y-143709619D01*
X77299621Y-142693619D02*
X77396382Y-142693619D01*
X77493144Y-142742000D01*
X77541525Y-142790381D01*
X77589906Y-142887143D01*
X77638287Y-143080667D01*
X77638287Y-143322571D01*
X77589906Y-143516095D01*
X77541525Y-143612857D01*
X77493144Y-143661238D01*
X77396382Y-143709619D01*
X77299621Y-143709619D01*
X77202859Y-143661238D01*
X77154478Y-143612857D01*
X77106097Y-143516095D01*
X77057716Y-143322571D01*
X77057716Y-143080667D01*
X77106097Y-142887143D01*
X77154478Y-142790381D01*
X77202859Y-142742000D01*
X77299621Y-142693619D01*
X78605906Y-143709619D02*
X78025335Y-143709619D01*
X78315621Y-143709619D02*
X78315621Y-142693619D01*
X78218859Y-142838762D01*
X78122097Y-142935524D01*
X78025335Y-142983905D01*
X79476763Y-143032286D02*
X79476763Y-143709619D01*
X79234859Y-142645238D02*
X78992954Y-143370952D01*
X79621906Y-143370952D01*
X80783049Y-143322571D02*
X81557144Y-143322571D01*
X82815049Y-143709619D02*
X82815049Y-142693619D01*
X82815049Y-143080667D02*
X82911811Y-143032286D01*
X83105334Y-143032286D01*
X83202096Y-143080667D01*
X83250477Y-143129048D01*
X83298858Y-143225810D01*
X83298858Y-143516095D01*
X83250477Y-143612857D01*
X83202096Y-143661238D01*
X83105334Y-143709619D01*
X82911811Y-143709619D01*
X82815049Y-143661238D01*
X83879430Y-143709619D02*
X83782668Y-143661238D01*
X83734287Y-143564476D01*
X83734287Y-142693619D01*
X84411620Y-143709619D02*
X84314858Y-143661238D01*
X84266477Y-143612857D01*
X84218096Y-143516095D01*
X84218096Y-143225810D01*
X84266477Y-143129048D01*
X84314858Y-143080667D01*
X84411620Y-143032286D01*
X84556762Y-143032286D01*
X84653524Y-143080667D01*
X84701905Y-143129048D01*
X84750286Y-143225810D01*
X84750286Y-143516095D01*
X84701905Y-143612857D01*
X84653524Y-143661238D01*
X84556762Y-143709619D01*
X84411620Y-143709619D01*
X85621143Y-143032286D02*
X85621143Y-143854762D01*
X85572762Y-143951524D01*
X85524381Y-143999905D01*
X85427620Y-144048286D01*
X85282477Y-144048286D01*
X85185715Y-143999905D01*
X85621143Y-143661238D02*
X85524381Y-143709619D01*
X85330858Y-143709619D01*
X85234096Y-143661238D01*
X85185715Y-143612857D01*
X85137334Y-143516095D01*
X85137334Y-143225810D01*
X85185715Y-143129048D01*
X85234096Y-143080667D01*
X85330858Y-143032286D01*
X85524381Y-143032286D01*
X85621143Y-143080667D01*
X86104953Y-143612857D02*
X86153334Y-143661238D01*
X86104953Y-143709619D01*
X86056572Y-143661238D01*
X86104953Y-143612857D01*
X86104953Y-143709619D01*
X86540382Y-143661238D02*
X86637144Y-143709619D01*
X86830668Y-143709619D01*
X86927429Y-143661238D01*
X86975810Y-143564476D01*
X86975810Y-143516095D01*
X86927429Y-143419333D01*
X86830668Y-143370952D01*
X86685525Y-143370952D01*
X86588763Y-143322571D01*
X86540382Y-143225810D01*
X86540382Y-143177429D01*
X86588763Y-143080667D01*
X86685525Y-143032286D01*
X86830668Y-143032286D01*
X86927429Y-143080667D01*
X87411239Y-143032286D02*
X87411239Y-144048286D01*
X87411239Y-143080667D02*
X87508001Y-143032286D01*
X87701524Y-143032286D01*
X87798286Y-143080667D01*
X87846667Y-143129048D01*
X87895048Y-143225810D01*
X87895048Y-143516095D01*
X87846667Y-143612857D01*
X87798286Y-143661238D01*
X87701524Y-143709619D01*
X87508001Y-143709619D01*
X87411239Y-143661238D01*
X88330477Y-143709619D02*
X88330477Y-143032286D01*
X88330477Y-142693619D02*
X88282096Y-142742000D01*
X88330477Y-142790381D01*
X88378858Y-142742000D01*
X88330477Y-142693619D01*
X88330477Y-142790381D01*
X88669144Y-143032286D02*
X89056192Y-143032286D01*
X88814287Y-142693619D02*
X88814287Y-143564476D01*
X88862668Y-143661238D01*
X88959430Y-143709619D01*
X89056192Y-143709619D01*
X89298096Y-143032286D02*
X89830286Y-143032286D01*
X89298096Y-143709619D01*
X89830286Y-143709619D01*
X90604381Y-143661238D02*
X90507619Y-143709619D01*
X90314096Y-143709619D01*
X90217334Y-143661238D01*
X90168953Y-143564476D01*
X90168953Y-143177429D01*
X90217334Y-143080667D01*
X90314096Y-143032286D01*
X90507619Y-143032286D01*
X90604381Y-143080667D01*
X90652762Y-143177429D01*
X90652762Y-143274190D01*
X90168953Y-143370952D01*
X91088191Y-143032286D02*
X91088191Y-143709619D01*
X91088191Y-143129048D02*
X91136572Y-143080667D01*
X91233334Y-143032286D01*
X91378476Y-143032286D01*
X91475238Y-143080667D01*
X91523619Y-143177429D01*
X91523619Y-143709619D01*
X92007429Y-143032286D02*
X92007429Y-144048286D01*
X92007429Y-143080667D02*
X92104191Y-143032286D01*
X92297714Y-143032286D01*
X92394476Y-143080667D01*
X92442857Y-143129048D01*
X92491238Y-143225810D01*
X92491238Y-143516095D01*
X92442857Y-143612857D01*
X92394476Y-143661238D01*
X92297714Y-143709619D01*
X92104191Y-143709619D01*
X92007429Y-143661238D01*
X92781524Y-143032286D02*
X93168572Y-143032286D01*
X92926667Y-143709619D02*
X92926667Y-142838762D01*
X92975048Y-142742000D01*
X93071810Y-142693619D01*
X93168572Y-142693619D01*
X93894285Y-143661238D02*
X93797523Y-143709619D01*
X93604000Y-143709619D01*
X93507238Y-143661238D01*
X93458857Y-143564476D01*
X93458857Y-143177429D01*
X93507238Y-143080667D01*
X93604000Y-143032286D01*
X93797523Y-143032286D01*
X93894285Y-143080667D01*
X93942666Y-143177429D01*
X93942666Y-143274190D01*
X93458857Y-143370952D01*
X94378095Y-143709619D02*
X94378095Y-143032286D01*
X94378095Y-142693619D02*
X94329714Y-142742000D01*
X94378095Y-142790381D01*
X94426476Y-142742000D01*
X94378095Y-142693619D01*
X94378095Y-142790381D01*
X95007048Y-143709619D02*
X94910286Y-143661238D01*
X94861905Y-143564476D01*
X94861905Y-142693619D01*
X95394095Y-143612857D02*
X95442476Y-143661238D01*
X95394095Y-143709619D01*
X95345714Y-143661238D01*
X95394095Y-143612857D01*
X95394095Y-143709619D01*
X96023048Y-143709619D02*
X95926286Y-143661238D01*
X95877905Y-143612857D01*
X95829524Y-143516095D01*
X95829524Y-143225810D01*
X95877905Y-143129048D01*
X95926286Y-143080667D01*
X96023048Y-143032286D01*
X96168190Y-143032286D01*
X96264952Y-143080667D01*
X96313333Y-143129048D01*
X96361714Y-143225810D01*
X96361714Y-143516095D01*
X96313333Y-143612857D01*
X96264952Y-143661238D01*
X96168190Y-143709619D01*
X96023048Y-143709619D01*
X96797143Y-143709619D02*
X96797143Y-143032286D01*
X96797143Y-143225810D02*
X96845524Y-143129048D01*
X96893905Y-143080667D01*
X96990667Y-143032286D01*
X97087428Y-143032286D01*
X97861523Y-143032286D02*
X97861523Y-143854762D01*
X97813142Y-143951524D01*
X97764761Y-143999905D01*
X97668000Y-144048286D01*
X97522857Y-144048286D01*
X97426095Y-143999905D01*
X97861523Y-143661238D02*
X97764761Y-143709619D01*
X97571238Y-143709619D01*
X97474476Y-143661238D01*
X97426095Y-143612857D01*
X97377714Y-143516095D01*
X97377714Y-143225810D01*
X97426095Y-143129048D01*
X97474476Y-143080667D01*
X97571238Y-143032286D01*
X97764761Y-143032286D01*
X97861523Y-143080667D01*
D12*
X111758095Y-141000480D02*
G75*
G03X111758095Y-141000480I-3757295J0D01*
G74*
G01*
X111749840Y-98999040D02*
G75*
G03X111749840Y-98999040I-3749040J0D01*
G74*
G01*
X69748400Y-141000480D02*
G75*
G03X69748400Y-141000480I-3749040J0D01*
G74*
G01*
X69748400Y-98999040D02*
G75*
G03X69748400Y-98999040I-3749040J0D01*
G74*
G01*
D11*
X81113715Y-97109619D02*
X80629906Y-97109619D01*
X80629906Y-96093619D01*
X81452382Y-96577429D02*
X81791048Y-96577429D01*
X81936191Y-97109619D02*
X81452382Y-97109619D01*
X81452382Y-96093619D01*
X81936191Y-96093619D01*
X82371620Y-97109619D02*
X82371620Y-96093619D01*
X82613525Y-96093619D01*
X82758667Y-96142000D01*
X82855429Y-96238762D01*
X82903810Y-96335524D01*
X82952191Y-96529048D01*
X82952191Y-96674190D01*
X82903810Y-96867714D01*
X82855429Y-96964476D01*
X82758667Y-97061238D01*
X82613525Y-97109619D01*
X82371620Y-97109619D01*
X84113334Y-97061238D02*
X84258477Y-97109619D01*
X84500381Y-97109619D01*
X84597143Y-97061238D01*
X84645524Y-97012857D01*
X84693905Y-96916095D01*
X84693905Y-96819333D01*
X84645524Y-96722571D01*
X84597143Y-96674190D01*
X84500381Y-96625810D01*
X84306858Y-96577429D01*
X84210096Y-96529048D01*
X84161715Y-96480667D01*
X84113334Y-96383905D01*
X84113334Y-96287143D01*
X84161715Y-96190381D01*
X84210096Y-96142000D01*
X84306858Y-96093619D01*
X84548762Y-96093619D01*
X84693905Y-96142000D01*
X85564762Y-96432286D02*
X85564762Y-97448286D01*
X85564762Y-97061238D02*
X85468000Y-97109619D01*
X85274477Y-97109619D01*
X85177715Y-97061238D01*
X85129334Y-97012857D01*
X85080953Y-96916095D01*
X85080953Y-96625810D01*
X85129334Y-96529048D01*
X85177715Y-96480667D01*
X85274477Y-96432286D01*
X85468000Y-96432286D01*
X85564762Y-96480667D01*
X86484000Y-96432286D02*
X86484000Y-97109619D01*
X86048572Y-96432286D02*
X86048572Y-96964476D01*
X86096953Y-97061238D01*
X86193715Y-97109619D01*
X86338857Y-97109619D01*
X86435619Y-97061238D01*
X86484000Y-97012857D01*
X87403238Y-97109619D02*
X87403238Y-96577429D01*
X87354857Y-96480667D01*
X87258095Y-96432286D01*
X87064572Y-96432286D01*
X86967810Y-96480667D01*
X87403238Y-97061238D02*
X87306476Y-97109619D01*
X87064572Y-97109619D01*
X86967810Y-97061238D01*
X86919429Y-96964476D01*
X86919429Y-96867714D01*
X86967810Y-96770952D01*
X87064572Y-96722571D01*
X87306476Y-96722571D01*
X87403238Y-96674190D01*
X87887048Y-97109619D02*
X87887048Y-96432286D01*
X87887048Y-96625810D02*
X87935429Y-96529048D01*
X87983810Y-96480667D01*
X88080572Y-96432286D01*
X88177333Y-96432286D01*
X88903047Y-97061238D02*
X88806285Y-97109619D01*
X88612762Y-97109619D01*
X88516000Y-97061238D01*
X88467619Y-96964476D01*
X88467619Y-96577429D01*
X88516000Y-96480667D01*
X88612762Y-96432286D01*
X88806285Y-96432286D01*
X88903047Y-96480667D01*
X88951428Y-96577429D01*
X88951428Y-96674190D01*
X88467619Y-96770952D01*
X90015809Y-96093619D02*
X90354476Y-97109619D01*
X90693142Y-96093619D01*
X91563999Y-97109619D02*
X90983428Y-97109619D01*
X91273714Y-97109619D02*
X91273714Y-96093619D01*
X91176952Y-96238762D01*
X91080190Y-96335524D01*
X90983428Y-96383905D01*
X91999428Y-97012857D02*
X92047809Y-97061238D01*
X91999428Y-97109619D01*
X91951047Y-97061238D01*
X91999428Y-97012857D01*
X91999428Y-97109619D01*
X92434857Y-96190381D02*
X92483238Y-96142000D01*
X92580000Y-96093619D01*
X92821904Y-96093619D01*
X92918666Y-96142000D01*
X92967047Y-96190381D01*
X93015428Y-96287143D01*
X93015428Y-96383905D01*
X92967047Y-96529048D01*
X92386476Y-97109619D01*
X93015428Y-97109619D01*
X93450857Y-97012857D02*
X93499238Y-97061238D01*
X93450857Y-97109619D01*
X93402476Y-97061238D01*
X93450857Y-97012857D01*
X93450857Y-97109619D01*
X94370095Y-97109619D02*
X94370095Y-96577429D01*
X94321714Y-96480667D01*
X94224952Y-96432286D01*
X94031429Y-96432286D01*
X93934667Y-96480667D01*
X94370095Y-97061238D02*
X94273333Y-97109619D01*
X94031429Y-97109619D01*
X93934667Y-97061238D01*
X93886286Y-96964476D01*
X93886286Y-96867714D01*
X93934667Y-96770952D01*
X94031429Y-96722571D01*
X94273333Y-96722571D01*
X94370095Y-96674190D01*
D12*
X84599700Y-108299600D02*
X89400300Y-108299600D01*
X89400300Y-108299600D02*
X89400300Y-114700400D01*
X89400300Y-114700400D02*
X84599700Y-114700400D01*
X84599700Y-114700400D02*
X84599700Y-108299600D01*
X77501120Y-117499760D02*
X77501120Y-122499760D01*
X77501120Y-122499760D02*
X72501120Y-122499760D01*
X72501120Y-122499760D02*
X72501120Y-117999760D01*
X72501120Y-117999760D02*
X73001120Y-117499760D01*
X73001120Y-117499760D02*
X77501120Y-117499760D01*
X97448500Y-112093600D02*
X97448500Y-111445900D01*
X97448500Y-111445900D02*
X96048960Y-111445900D01*
X96048960Y-112093600D02*
X96048960Y-111445900D01*
X97448500Y-112093600D02*
X96048960Y-112093600D01*
X97448500Y-113566800D02*
X97448500Y-112916560D01*
X97448500Y-112916560D02*
X96048960Y-112916560D01*
X96048960Y-113566800D02*
X96048960Y-112916560D01*
X97448500Y-113566800D02*
X96048960Y-113566800D01*
X96115000Y-112908940D02*
X96115000Y-112091060D01*
X97385000Y-112908940D02*
X97385000Y-112091060D01*
X95767020Y-114471040D02*
X95767020Y-110528960D01*
X95767020Y-110528960D02*
X97732980Y-110528960D01*
X97732980Y-110528960D02*
X97732980Y-114471040D01*
X97732980Y-114471040D02*
X95767020Y-114471040D01*
X109397800Y-112379760D02*
X109397800Y-127619760D01*
X106898440Y-127619760D02*
X109397800Y-127619760D01*
X106898440Y-112379760D02*
X109397800Y-112379760D01*
X106898440Y-127619760D02*
X106898440Y-112379760D01*
X109397800Y-113649760D02*
X115399820Y-113649760D01*
X109397800Y-116189760D02*
X115399820Y-116189760D01*
X109397800Y-118729760D02*
X115399820Y-118729760D01*
X115399820Y-121269760D02*
X109397800Y-121269760D01*
X109397800Y-123809760D02*
X115399820Y-123809760D01*
X109397800Y-126349760D02*
X115399820Y-126349760D01*
X106898440Y-114919760D02*
X109397800Y-114919760D01*
X106898440Y-117459760D02*
X109397800Y-117459760D01*
X106898440Y-125079760D02*
X109397800Y-125079760D01*
X106898440Y-122539760D02*
X109397800Y-122539760D01*
X106898440Y-119999760D02*
X109397800Y-119999760D01*
X110286800Y-98999040D02*
G75*
G03X110286800Y-98999040I-2286000J0D01*
G74*
G01*
X68285360Y-141000480D02*
G75*
G03X68285360Y-141000480I-2286000J0D01*
G74*
G01*
X110286800Y-141000480D02*
G75*
G03X110286800Y-141000480I-2286000J0D01*
G74*
G01*
X68285360Y-98999040D02*
G75*
G03X68285360Y-98999040I-2286000J0D01*
G74*
G01*
X82850000Y-112350000D02*
X82850000Y-111800000D01*
X82850000Y-111100000D02*
X82850000Y-110450000D01*
X82850000Y-111250000D02*
X82300000Y-111800000D01*
X82300000Y-111800000D02*
X83400000Y-111800000D01*
X83400000Y-111800000D02*
X82850000Y-111250000D01*
X82300000Y-111100000D02*
X83400000Y-111100000D01*
X82250000Y-109950000D02*
X82250000Y-109500000D01*
X82250000Y-109500000D02*
X83450000Y-109500000D01*
X83450000Y-109500000D02*
X83450000Y-109950000D01*
X82250000Y-112850000D02*
X82250000Y-113300000D01*
X82250000Y-113300000D02*
X83450000Y-113300000D01*
X83450000Y-113300000D02*
X83450000Y-112850000D01*
X81900000Y-112850000D02*
X81900000Y-109950000D01*
X81900000Y-109950000D02*
X83800000Y-109950000D01*
X83800000Y-109950000D02*
X83800000Y-112850000D01*
X83800000Y-112850000D02*
X81900000Y-112850000D01*
X89000000Y-105400000D02*
X85000000Y-105400000D01*
X89000000Y-105400000D02*
X89000000Y-107600000D01*
X89000000Y-107600000D02*
X85000000Y-107600000D01*
X85000000Y-107600000D02*
X85000000Y-105400000D01*
X94483000Y-105877000D02*
X94483000Y-110277000D01*
X94483000Y-110277000D02*
X90683000Y-110277000D01*
X90683000Y-110277000D02*
X90683000Y-105877000D01*
X90683000Y-105877000D02*
X94483000Y-105877000D01*
X92354400Y-107365800D02*
X92811600Y-107365800D01*
X92811600Y-107365800D02*
X92811600Y-106784140D01*
X92354400Y-106784140D02*
X92811600Y-106784140D01*
X92354400Y-107365800D02*
X92354400Y-106784140D01*
X93294200Y-109369860D02*
X93751400Y-109369860D01*
X93751400Y-109369860D02*
X93751400Y-108788200D01*
X93294200Y-108788200D02*
X93751400Y-108788200D01*
X93294200Y-109369860D02*
X93294200Y-108788200D01*
X91414600Y-109369860D02*
X91871800Y-109369860D01*
X91871800Y-109369860D02*
X91871800Y-108788200D01*
X91414600Y-108788200D02*
X91871800Y-108788200D01*
X91414600Y-109369860D02*
X91414600Y-108788200D01*
X92085160Y-108376720D02*
X93080840Y-108376720D01*
X93080840Y-108376720D02*
X93080840Y-107777280D01*
X92085160Y-107777280D02*
X93080840Y-107777280D01*
X92085160Y-108376720D02*
X92085160Y-107777280D01*
X94002860Y-107419140D02*
X94002860Y-108734860D01*
X94002860Y-108734860D02*
X91163140Y-108734860D01*
X91163140Y-108734860D02*
X91163140Y-107419140D01*
X91163140Y-107419140D02*
X94002860Y-107419140D01*
X110000800Y-106649340D02*
X106000800Y-106649340D01*
X110000800Y-106649340D02*
X110000800Y-108849340D01*
X110000800Y-108849340D02*
X106000800Y-108849340D01*
X106000800Y-108849340D02*
X106000800Y-106649340D01*
X110000800Y-103901060D02*
X106000800Y-103901060D01*
X110000800Y-103901060D02*
X110000800Y-106101060D01*
X110000800Y-106101060D02*
X106000800Y-106101060D01*
X106000800Y-106101060D02*
X106000800Y-103901060D01*
X67999360Y-106649340D02*
X63999360Y-106649340D01*
X67999360Y-106649340D02*
X67999360Y-108849340D01*
X67999360Y-108849340D02*
X63999360Y-108849340D01*
X63999360Y-108849340D02*
X63999360Y-106649340D01*
X67999360Y-103901060D02*
X63999360Y-103901060D01*
X67999360Y-103901060D02*
X67999360Y-106101060D01*
X67999360Y-106101060D02*
X63999360Y-106101060D01*
X63999360Y-106101060D02*
X63999360Y-103901060D01*
X77501120Y-134499980D02*
X77501120Y-139499980D01*
X77501120Y-139499980D02*
X72501120Y-139499980D01*
X72501120Y-139499980D02*
X72501120Y-134999980D01*
X72501120Y-134999980D02*
X73001120Y-134499980D01*
X73001120Y-134499980D02*
X77501120Y-134499980D01*
X96499040Y-105499540D02*
X96499040Y-100499540D01*
X96499040Y-100499540D02*
X101499040Y-100499540D01*
X101499040Y-100499540D02*
X101499040Y-104999540D01*
X101499040Y-104999540D02*
X100999040Y-105499540D01*
X100999040Y-105499540D02*
X96499040Y-105499540D01*
X96499040Y-139499980D02*
X96499040Y-134499980D01*
X96499040Y-134499980D02*
X101499040Y-134499980D01*
X101499040Y-134499980D02*
X101499040Y-138999980D01*
X101499040Y-138999980D02*
X100999040Y-139499980D01*
X100999040Y-139499980D02*
X96499040Y-139499980D01*
X96499040Y-122499760D02*
X96499040Y-117499760D01*
X96499040Y-117499760D02*
X101499040Y-117499760D01*
X101499040Y-117499760D02*
X101499040Y-121999760D01*
X101499040Y-121999760D02*
X100999040Y-122499760D01*
X100999040Y-122499760D02*
X96499040Y-122499760D01*
X77501120Y-100499540D02*
X77501120Y-105499540D01*
X77501120Y-105499540D02*
X72501120Y-105499540D01*
X72501120Y-105499540D02*
X72501120Y-100999540D01*
X72501120Y-100999540D02*
X73001120Y-100499540D01*
X73001120Y-100499540D02*
X77501120Y-100499540D01*
X92753000Y-110522000D02*
X92753000Y-114522000D01*
X92753000Y-110522000D02*
X94953000Y-110522000D01*
X94953000Y-110522000D02*
X94953000Y-114522000D01*
X94953000Y-114522000D02*
X92753000Y-114522000D01*
X92011500Y-112115600D02*
X92011500Y-111467900D01*
X92011500Y-111467900D02*
X90611960Y-111467900D01*
X90611960Y-112115600D02*
X90611960Y-111467900D01*
X92011500Y-112115600D02*
X90611960Y-112115600D01*
X92011500Y-113588800D02*
X92011500Y-112938560D01*
X92011500Y-112938560D02*
X90611960Y-112938560D01*
X90611960Y-113588800D02*
X90611960Y-112938560D01*
X92011500Y-113588800D02*
X90611960Y-113588800D01*
X90678000Y-112930940D02*
X90678000Y-112113060D01*
X91948000Y-112930940D02*
X91948000Y-112113060D01*
X90330020Y-114493040D02*
X90330020Y-110550960D01*
X90330020Y-110550960D02*
X92295980Y-110550960D01*
X92295980Y-110550960D02*
X92295980Y-114493040D01*
X92295980Y-114493040D02*
X90330020Y-114493040D01*
D13*
G36*
X85486160Y-103245360D02*
X85511560Y-103230120D01*
X85569980Y-103194560D01*
X85653800Y-103138680D01*
X85752860Y-103072640D01*
X85851920Y-103006600D01*
X85933200Y-102953260D01*
X85989080Y-102915160D01*
X86014480Y-102902460D01*
X86027180Y-102907540D01*
X86072900Y-102930400D01*
X86141480Y-102965960D01*
X86182120Y-102986280D01*
X86243080Y-103011680D01*
X86276100Y-103019300D01*
X86281180Y-103009140D01*
X86304040Y-102960880D01*
X86339600Y-102879600D01*
X86385320Y-102770380D01*
X86441200Y-102643380D01*
X86497080Y-102508760D01*
X86555500Y-102369060D01*
X86611380Y-102234440D01*
X86659640Y-102115060D01*
X86700280Y-102018540D01*
X86725680Y-101949960D01*
X86735840Y-101922020D01*
X86733300Y-101914400D01*
X86700280Y-101883920D01*
X86646940Y-101843280D01*
X86527560Y-101746760D01*
X86410720Y-101601980D01*
X86339600Y-101436880D01*
X86316740Y-101251460D01*
X86337060Y-101081280D01*
X86403100Y-100918720D01*
X86517400Y-100771400D01*
X86657100Y-100662180D01*
X86819660Y-100593600D01*
X87000000Y-100570740D01*
X87172720Y-100591060D01*
X87340360Y-100657100D01*
X87487680Y-100768860D01*
X87551180Y-100839980D01*
X87637540Y-100989840D01*
X87685800Y-101147320D01*
X87690880Y-101187960D01*
X87683260Y-101363220D01*
X87632460Y-101533400D01*
X87538480Y-101683260D01*
X87408940Y-101807720D01*
X87393700Y-101817880D01*
X87335280Y-101863600D01*
X87294640Y-101894080D01*
X87264160Y-101919480D01*
X87487680Y-102457960D01*
X87523240Y-102541780D01*
X87584200Y-102689100D01*
X87637540Y-102816100D01*
X87680720Y-102917700D01*
X87711200Y-102983740D01*
X87723900Y-103011680D01*
X87723900Y-103014220D01*
X87744220Y-103016760D01*
X87784860Y-103001520D01*
X87861060Y-102965960D01*
X87909320Y-102940560D01*
X87967740Y-102912620D01*
X87993140Y-102902460D01*
X88016000Y-102915160D01*
X88069340Y-102950720D01*
X88150620Y-103004060D01*
X88247140Y-103067560D01*
X88338580Y-103131060D01*
X88422400Y-103186940D01*
X88483360Y-103225040D01*
X88513840Y-103242820D01*
X88518920Y-103242820D01*
X88544320Y-103227580D01*
X88592580Y-103186940D01*
X88666240Y-103118360D01*
X88770380Y-103014220D01*
X88785620Y-102998980D01*
X88871980Y-102912620D01*
X88940560Y-102838960D01*
X88986280Y-102788160D01*
X89004060Y-102765300D01*
X89004060Y-102765300D01*
X88988820Y-102734820D01*
X88950720Y-102673860D01*
X88894840Y-102587500D01*
X88826260Y-102488440D01*
X88648460Y-102229360D01*
X88744980Y-101985520D01*
X88775460Y-101909320D01*
X88813560Y-101820420D01*
X88841500Y-101754380D01*
X88856740Y-101726440D01*
X88882140Y-101716280D01*
X88950720Y-101701040D01*
X89047240Y-101680720D01*
X89161540Y-101660400D01*
X89273300Y-101640080D01*
X89372360Y-101619760D01*
X89443480Y-101607060D01*
X89476500Y-101599440D01*
X89484120Y-101594360D01*
X89491740Y-101579120D01*
X89494280Y-101546100D01*
X89496820Y-101485140D01*
X89499360Y-101391160D01*
X89499360Y-101251460D01*
X89499360Y-101236220D01*
X89496820Y-101106680D01*
X89494280Y-101000000D01*
X89491740Y-100933960D01*
X89486660Y-100906020D01*
X89486660Y-100906020D01*
X89456180Y-100898400D01*
X89385060Y-100883160D01*
X89286000Y-100865380D01*
X89166620Y-100842520D01*
X89159000Y-100839980D01*
X89042160Y-100817120D01*
X88943100Y-100796800D01*
X88871980Y-100781560D01*
X88844040Y-100771400D01*
X88836420Y-100763780D01*
X88813560Y-100718060D01*
X88780540Y-100644400D01*
X88739900Y-100555500D01*
X88701800Y-100461520D01*
X88668780Y-100377700D01*
X88645920Y-100316740D01*
X88638300Y-100288800D01*
X88640840Y-100286260D01*
X88658620Y-100258320D01*
X88699260Y-100197360D01*
X88755140Y-100113540D01*
X88823720Y-100011940D01*
X88828800Y-100004320D01*
X88897380Y-99905260D01*
X88953260Y-99818900D01*
X88988820Y-99760480D01*
X89004060Y-99732540D01*
X89004060Y-99730000D01*
X88981200Y-99699520D01*
X88930400Y-99643640D01*
X88856740Y-99567440D01*
X88770380Y-99478540D01*
X88742440Y-99453140D01*
X88643380Y-99356620D01*
X88577340Y-99295660D01*
X88534160Y-99262640D01*
X88513840Y-99255020D01*
X88513840Y-99255020D01*
X88483360Y-99272800D01*
X88419860Y-99313440D01*
X88336040Y-99371860D01*
X88234440Y-99440440D01*
X88226820Y-99445520D01*
X88127760Y-99514100D01*
X88043940Y-99569980D01*
X87985520Y-99610620D01*
X87957580Y-99625860D01*
X87955040Y-99625860D01*
X87914400Y-99613160D01*
X87843280Y-99587760D01*
X87754380Y-99554740D01*
X87662940Y-99516640D01*
X87579120Y-99481080D01*
X87515620Y-99453140D01*
X87485140Y-99435360D01*
X87485140Y-99435360D01*
X87474980Y-99399800D01*
X87457200Y-99323600D01*
X87436880Y-99222000D01*
X87411480Y-99100080D01*
X87408940Y-99079760D01*
X87386080Y-98960380D01*
X87368300Y-98861320D01*
X87353060Y-98792740D01*
X87345440Y-98764800D01*
X87330200Y-98762260D01*
X87271780Y-98757180D01*
X87182880Y-98754640D01*
X87073660Y-98754640D01*
X86961900Y-98754640D01*
X86852680Y-98757180D01*
X86758700Y-98759720D01*
X86690120Y-98764800D01*
X86662180Y-98769880D01*
X86662180Y-98772420D01*
X86652020Y-98810520D01*
X86634240Y-98884180D01*
X86613920Y-98988320D01*
X86591060Y-99110240D01*
X86585980Y-99133100D01*
X86563120Y-99249940D01*
X86542800Y-99349000D01*
X86530100Y-99415040D01*
X86522480Y-99442980D01*
X86509780Y-99448060D01*
X86461520Y-99468380D01*
X86382780Y-99501400D01*
X86283720Y-99542040D01*
X86055120Y-99633480D01*
X85773180Y-99442980D01*
X85747780Y-99425200D01*
X85646180Y-99356620D01*
X85564900Y-99300740D01*
X85506480Y-99262640D01*
X85483620Y-99249940D01*
X85481080Y-99249940D01*
X85453140Y-99275340D01*
X85397260Y-99328680D01*
X85321060Y-99402340D01*
X85232160Y-99488700D01*
X85168660Y-99554740D01*
X85089920Y-99633480D01*
X85041660Y-99686820D01*
X85013720Y-99719840D01*
X85006100Y-99740160D01*
X85008640Y-99755400D01*
X85026420Y-99783340D01*
X85067060Y-99844300D01*
X85125480Y-99930660D01*
X85194060Y-100029720D01*
X85249940Y-100113540D01*
X85310900Y-100207520D01*
X85349000Y-100273560D01*
X85364240Y-100306580D01*
X85359160Y-100319280D01*
X85341380Y-100375160D01*
X85305820Y-100458980D01*
X85265180Y-100558040D01*
X85166120Y-100779020D01*
X85021340Y-100806960D01*
X84932440Y-100824740D01*
X84810520Y-100847600D01*
X84691140Y-100870460D01*
X84508260Y-100906020D01*
X84500640Y-101581660D01*
X84528580Y-101594360D01*
X84556520Y-101601980D01*
X84625100Y-101617220D01*
X84721620Y-101637540D01*
X84838460Y-101657860D01*
X84934980Y-101675640D01*
X85034040Y-101695960D01*
X85105160Y-101708660D01*
X85135640Y-101716280D01*
X85145800Y-101726440D01*
X85168660Y-101774700D01*
X85204220Y-101850900D01*
X85244860Y-101942340D01*
X85282960Y-102036320D01*
X85318520Y-102125220D01*
X85341380Y-102191260D01*
X85351540Y-102224280D01*
X85338840Y-102252220D01*
X85300740Y-102310640D01*
X85247400Y-102391920D01*
X85178820Y-102490980D01*
X85112780Y-102587500D01*
X85054360Y-102671320D01*
X85016260Y-102732280D01*
X84998480Y-102760220D01*
X85008640Y-102778000D01*
X85046740Y-102826260D01*
X85120400Y-102902460D01*
X85232160Y-103011680D01*
X85249940Y-103029460D01*
X85336300Y-103113280D01*
X85409960Y-103181860D01*
X85463300Y-103227580D01*
X85486160Y-103245360D01*
X85486160Y-103245360D01*
G37*
X85486160Y-103245360D02*
X85511560Y-103230120D01*
X85569980Y-103194560D01*
X85653800Y-103138680D01*
X85752860Y-103072640D01*
X85851920Y-103006600D01*
X85933200Y-102953260D01*
X85989080Y-102915160D01*
X86014480Y-102902460D01*
X86027180Y-102907540D01*
X86072900Y-102930400D01*
X86141480Y-102965960D01*
X86182120Y-102986280D01*
X86243080Y-103011680D01*
X86276100Y-103019300D01*
X86281180Y-103009140D01*
X86304040Y-102960880D01*
X86339600Y-102879600D01*
X86385320Y-102770380D01*
X86441200Y-102643380D01*
X86497080Y-102508760D01*
X86555500Y-102369060D01*
X86611380Y-102234440D01*
X86659640Y-102115060D01*
X86700280Y-102018540D01*
X86725680Y-101949960D01*
X86735840Y-101922020D01*
X86733300Y-101914400D01*
X86700280Y-101883920D01*
X86646940Y-101843280D01*
X86527560Y-101746760D01*
X86410720Y-101601980D01*
X86339600Y-101436880D01*
X86316740Y-101251460D01*
X86337060Y-101081280D01*
X86403100Y-100918720D01*
X86517400Y-100771400D01*
X86657100Y-100662180D01*
X86819660Y-100593600D01*
X87000000Y-100570740D01*
X87172720Y-100591060D01*
X87340360Y-100657100D01*
X87487680Y-100768860D01*
X87551180Y-100839980D01*
X87637540Y-100989840D01*
X87685800Y-101147320D01*
X87690880Y-101187960D01*
X87683260Y-101363220D01*
X87632460Y-101533400D01*
X87538480Y-101683260D01*
X87408940Y-101807720D01*
X87393700Y-101817880D01*
X87335280Y-101863600D01*
X87294640Y-101894080D01*
X87264160Y-101919480D01*
X87487680Y-102457960D01*
X87523240Y-102541780D01*
X87584200Y-102689100D01*
X87637540Y-102816100D01*
X87680720Y-102917700D01*
X87711200Y-102983740D01*
X87723900Y-103011680D01*
X87723900Y-103014220D01*
X87744220Y-103016760D01*
X87784860Y-103001520D01*
X87861060Y-102965960D01*
X87909320Y-102940560D01*
X87967740Y-102912620D01*
X87993140Y-102902460D01*
X88016000Y-102915160D01*
X88069340Y-102950720D01*
X88150620Y-103004060D01*
X88247140Y-103067560D01*
X88338580Y-103131060D01*
X88422400Y-103186940D01*
X88483360Y-103225040D01*
X88513840Y-103242820D01*
X88518920Y-103242820D01*
X88544320Y-103227580D01*
X88592580Y-103186940D01*
X88666240Y-103118360D01*
X88770380Y-103014220D01*
X88785620Y-102998980D01*
X88871980Y-102912620D01*
X88940560Y-102838960D01*
X88986280Y-102788160D01*
X89004060Y-102765300D01*
X89004060Y-102765300D01*
X88988820Y-102734820D01*
X88950720Y-102673860D01*
X88894840Y-102587500D01*
X88826260Y-102488440D01*
X88648460Y-102229360D01*
X88744980Y-101985520D01*
X88775460Y-101909320D01*
X88813560Y-101820420D01*
X88841500Y-101754380D01*
X88856740Y-101726440D01*
X88882140Y-101716280D01*
X88950720Y-101701040D01*
X89047240Y-101680720D01*
X89161540Y-101660400D01*
X89273300Y-101640080D01*
X89372360Y-101619760D01*
X89443480Y-101607060D01*
X89476500Y-101599440D01*
X89484120Y-101594360D01*
X89491740Y-101579120D01*
X89494280Y-101546100D01*
X89496820Y-101485140D01*
X89499360Y-101391160D01*
X89499360Y-101251460D01*
X89499360Y-101236220D01*
X89496820Y-101106680D01*
X89494280Y-101000000D01*
X89491740Y-100933960D01*
X89486660Y-100906020D01*
X89486660Y-100906020D01*
X89456180Y-100898400D01*
X89385060Y-100883160D01*
X89286000Y-100865380D01*
X89166620Y-100842520D01*
X89159000Y-100839980D01*
X89042160Y-100817120D01*
X88943100Y-100796800D01*
X88871980Y-100781560D01*
X88844040Y-100771400D01*
X88836420Y-100763780D01*
X88813560Y-100718060D01*
X88780540Y-100644400D01*
X88739900Y-100555500D01*
X88701800Y-100461520D01*
X88668780Y-100377700D01*
X88645920Y-100316740D01*
X88638300Y-100288800D01*
X88640840Y-100286260D01*
X88658620Y-100258320D01*
X88699260Y-100197360D01*
X88755140Y-100113540D01*
X88823720Y-100011940D01*
X88828800Y-100004320D01*
X88897380Y-99905260D01*
X88953260Y-99818900D01*
X88988820Y-99760480D01*
X89004060Y-99732540D01*
X89004060Y-99730000D01*
X88981200Y-99699520D01*
X88930400Y-99643640D01*
X88856740Y-99567440D01*
X88770380Y-99478540D01*
X88742440Y-99453140D01*
X88643380Y-99356620D01*
X88577340Y-99295660D01*
X88534160Y-99262640D01*
X88513840Y-99255020D01*
X88513840Y-99255020D01*
X88483360Y-99272800D01*
X88419860Y-99313440D01*
X88336040Y-99371860D01*
X88234440Y-99440440D01*
X88226820Y-99445520D01*
X88127760Y-99514100D01*
X88043940Y-99569980D01*
X87985520Y-99610620D01*
X87957580Y-99625860D01*
X87955040Y-99625860D01*
X87914400Y-99613160D01*
X87843280Y-99587760D01*
X87754380Y-99554740D01*
X87662940Y-99516640D01*
X87579120Y-99481080D01*
X87515620Y-99453140D01*
X87485140Y-99435360D01*
X87485140Y-99435360D01*
X87474980Y-99399800D01*
X87457200Y-99323600D01*
X87436880Y-99222000D01*
X87411480Y-99100080D01*
X87408940Y-99079760D01*
X87386080Y-98960380D01*
X87368300Y-98861320D01*
X87353060Y-98792740D01*
X87345440Y-98764800D01*
X87330200Y-98762260D01*
X87271780Y-98757180D01*
X87182880Y-98754640D01*
X87073660Y-98754640D01*
X86961900Y-98754640D01*
X86852680Y-98757180D01*
X86758700Y-98759720D01*
X86690120Y-98764800D01*
X86662180Y-98769880D01*
X86662180Y-98772420D01*
X86652020Y-98810520D01*
X86634240Y-98884180D01*
X86613920Y-98988320D01*
X86591060Y-99110240D01*
X86585980Y-99133100D01*
X86563120Y-99249940D01*
X86542800Y-99349000D01*
X86530100Y-99415040D01*
X86522480Y-99442980D01*
X86509780Y-99448060D01*
X86461520Y-99468380D01*
X86382780Y-99501400D01*
X86283720Y-99542040D01*
X86055120Y-99633480D01*
X85773180Y-99442980D01*
X85747780Y-99425200D01*
X85646180Y-99356620D01*
X85564900Y-99300740D01*
X85506480Y-99262640D01*
X85483620Y-99249940D01*
X85481080Y-99249940D01*
X85453140Y-99275340D01*
X85397260Y-99328680D01*
X85321060Y-99402340D01*
X85232160Y-99488700D01*
X85168660Y-99554740D01*
X85089920Y-99633480D01*
X85041660Y-99686820D01*
X85013720Y-99719840D01*
X85006100Y-99740160D01*
X85008640Y-99755400D01*
X85026420Y-99783340D01*
X85067060Y-99844300D01*
X85125480Y-99930660D01*
X85194060Y-100029720D01*
X85249940Y-100113540D01*
X85310900Y-100207520D01*
X85349000Y-100273560D01*
X85364240Y-100306580D01*
X85359160Y-100319280D01*
X85341380Y-100375160D01*
X85305820Y-100458980D01*
X85265180Y-100558040D01*
X85166120Y-100779020D01*
X85021340Y-100806960D01*
X84932440Y-100824740D01*
X84810520Y-100847600D01*
X84691140Y-100870460D01*
X84508260Y-100906020D01*
X84500640Y-101581660D01*
X84528580Y-101594360D01*
X84556520Y-101601980D01*
X84625100Y-101617220D01*
X84721620Y-101637540D01*
X84838460Y-101657860D01*
X84934980Y-101675640D01*
X85034040Y-101695960D01*
X85105160Y-101708660D01*
X85135640Y-101716280D01*
X85145800Y-101726440D01*
X85168660Y-101774700D01*
X85204220Y-101850900D01*
X85244860Y-101942340D01*
X85282960Y-102036320D01*
X85318520Y-102125220D01*
X85341380Y-102191260D01*
X85351540Y-102224280D01*
X85338840Y-102252220D01*
X85300740Y-102310640D01*
X85247400Y-102391920D01*
X85178820Y-102490980D01*
X85112780Y-102587500D01*
X85054360Y-102671320D01*
X85016260Y-102732280D01*
X84998480Y-102760220D01*
X85008640Y-102778000D01*
X85046740Y-102826260D01*
X85120400Y-102902460D01*
X85232160Y-103011680D01*
X85249940Y-103029460D01*
X85336300Y-103113280D01*
X85409960Y-103181860D01*
X85463300Y-103227580D01*
X85486160Y-103245360D01*
G36*
X87942340Y-134186940D02*
X88005840Y-134179320D01*
X88064260Y-134159000D01*
X88089660Y-134146300D01*
X88143000Y-134108200D01*
X88186180Y-134062480D01*
X88216660Y-134009140D01*
X88239520Y-133953260D01*
X88249680Y-133892300D01*
X88247140Y-133831340D01*
X88231900Y-133770380D01*
X88203960Y-133709420D01*
X88186180Y-133686560D01*
X88158240Y-133656080D01*
X88130300Y-133630680D01*
X88104900Y-133610360D01*
X88094740Y-133605280D01*
X88041400Y-133579880D01*
X87985520Y-133564640D01*
X87922020Y-133562100D01*
X87901700Y-133564640D01*
X87868680Y-133569720D01*
X87838200Y-133577340D01*
X87805180Y-133590040D01*
X87769620Y-133610360D01*
X87718820Y-133651000D01*
X87675640Y-133701800D01*
X87645160Y-133757680D01*
X87637540Y-133785620D01*
X87627380Y-133816100D01*
X87624840Y-133838960D01*
X87624840Y-133844040D01*
X87624840Y-133844040D01*
X87622300Y-133831340D01*
X87622300Y-133828800D01*
X87612140Y-133788160D01*
X87596900Y-133747520D01*
X87579120Y-133711960D01*
X87543560Y-133666240D01*
X87495300Y-133620520D01*
X87439420Y-133590040D01*
X87378460Y-133569720D01*
X87312420Y-133562100D01*
X87297180Y-133562100D01*
X87246380Y-133567180D01*
X87200660Y-133582420D01*
X87190500Y-133584960D01*
X87137160Y-133615440D01*
X87091440Y-133653540D01*
X87050800Y-133701800D01*
X87022860Y-133752600D01*
X87005080Y-133808480D01*
X87005080Y-133811020D01*
X87002540Y-133826260D01*
X87000000Y-133833880D01*
X87000000Y-133833880D01*
X86997460Y-133823720D01*
X86994920Y-133808480D01*
X86992380Y-133803400D01*
X86974600Y-133747520D01*
X86944120Y-133696720D01*
X86903480Y-133648460D01*
X86867920Y-133617980D01*
X86812040Y-133587500D01*
X86753620Y-133567180D01*
X86687580Y-133562100D01*
X86639320Y-133564640D01*
X86578360Y-133582420D01*
X86519940Y-133610360D01*
X86471680Y-133648460D01*
X86431040Y-133699260D01*
X86425960Y-133706880D01*
X86410720Y-133729740D01*
X86400560Y-133750060D01*
X86395480Y-133762760D01*
X86387860Y-133790700D01*
X86380240Y-133818640D01*
X86377700Y-133838960D01*
X86377700Y-133841500D01*
X86375160Y-133844040D01*
X86372620Y-133828800D01*
X86367540Y-133795780D01*
X86352300Y-133752600D01*
X86331980Y-133714500D01*
X86296420Y-133663700D01*
X86248160Y-133620520D01*
X86192280Y-133590040D01*
X86131320Y-133569720D01*
X86065280Y-133562100D01*
X86006860Y-133567180D01*
X85945900Y-133584960D01*
X85890020Y-133612900D01*
X85839220Y-133656080D01*
X85816360Y-133684020D01*
X85790960Y-133719580D01*
X85773180Y-133757680D01*
X85763020Y-133790700D01*
X85750320Y-133854200D01*
X85752860Y-133915160D01*
X85768100Y-133973580D01*
X85790960Y-134026920D01*
X85826520Y-134077720D01*
X85869700Y-134118360D01*
X85917960Y-134151380D01*
X85976380Y-134174240D01*
X86039880Y-134184400D01*
X86044960Y-134184400D01*
X86108460Y-134184400D01*
X86169420Y-134169160D01*
X86225300Y-134141220D01*
X86245620Y-134128520D01*
X86288800Y-134090420D01*
X86324360Y-134047240D01*
X86349760Y-133998980D01*
X86357380Y-133981200D01*
X86365000Y-133955800D01*
X86372620Y-133927860D01*
X86375160Y-133907540D01*
X86375160Y-133894840D01*
X86377700Y-133907540D01*
X86377700Y-133917700D01*
X86385320Y-133945640D01*
X86392940Y-133976120D01*
X86403100Y-134001520D01*
X86418340Y-134032000D01*
X86456440Y-134082800D01*
X86504700Y-134125980D01*
X86560580Y-134159000D01*
X86621540Y-134179320D01*
X86631700Y-134181860D01*
X86674880Y-134186940D01*
X86720600Y-134184400D01*
X86761240Y-134179320D01*
X86801880Y-134164080D01*
X86860300Y-134136140D01*
X86913640Y-134092960D01*
X86916180Y-134087880D01*
X86951740Y-134044700D01*
X86979680Y-133991360D01*
X86994920Y-133938020D01*
X86994920Y-133935480D01*
X87000000Y-133920240D01*
X87000000Y-133915160D01*
X87000000Y-133920240D01*
X87002540Y-133932940D01*
X87005080Y-133938020D01*
X87012700Y-133968500D01*
X87027940Y-134004060D01*
X87045720Y-134039620D01*
X87073660Y-134077720D01*
X87119380Y-134120900D01*
X87175260Y-134156460D01*
X87236220Y-134176780D01*
X87248920Y-134179320D01*
X87289560Y-134184400D01*
X87335280Y-134184400D01*
X87375920Y-134179320D01*
X87411480Y-134169160D01*
X87469900Y-134143760D01*
X87520700Y-134105660D01*
X87563880Y-134057400D01*
X87596900Y-134001520D01*
X87604520Y-133983740D01*
X87612140Y-133955800D01*
X87619760Y-133927860D01*
X87622300Y-133907540D01*
X87622300Y-133905000D01*
X87624840Y-133905000D01*
X87624840Y-133917700D01*
X87627380Y-133917700D01*
X87635000Y-133958340D01*
X87650240Y-133998980D01*
X87668020Y-134037080D01*
X87678180Y-134049780D01*
X87718820Y-134098040D01*
X87767080Y-134136140D01*
X87820420Y-134164080D01*
X87881380Y-134181860D01*
X87942340Y-134186940D01*
X87942340Y-134186940D01*
G37*
X87942340Y-134186940D02*
X88005840Y-134179320D01*
X88064260Y-134159000D01*
X88089660Y-134146300D01*
X88143000Y-134108200D01*
X88186180Y-134062480D01*
X88216660Y-134009140D01*
X88239520Y-133953260D01*
X88249680Y-133892300D01*
X88247140Y-133831340D01*
X88231900Y-133770380D01*
X88203960Y-133709420D01*
X88186180Y-133686560D01*
X88158240Y-133656080D01*
X88130300Y-133630680D01*
X88104900Y-133610360D01*
X88094740Y-133605280D01*
X88041400Y-133579880D01*
X87985520Y-133564640D01*
X87922020Y-133562100D01*
X87901700Y-133564640D01*
X87868680Y-133569720D01*
X87838200Y-133577340D01*
X87805180Y-133590040D01*
X87769620Y-133610360D01*
X87718820Y-133651000D01*
X87675640Y-133701800D01*
X87645160Y-133757680D01*
X87637540Y-133785620D01*
X87627380Y-133816100D01*
X87624840Y-133838960D01*
X87624840Y-133844040D01*
X87624840Y-133844040D01*
X87622300Y-133831340D01*
X87622300Y-133828800D01*
X87612140Y-133788160D01*
X87596900Y-133747520D01*
X87579120Y-133711960D01*
X87543560Y-133666240D01*
X87495300Y-133620520D01*
X87439420Y-133590040D01*
X87378460Y-133569720D01*
X87312420Y-133562100D01*
X87297180Y-133562100D01*
X87246380Y-133567180D01*
X87200660Y-133582420D01*
X87190500Y-133584960D01*
X87137160Y-133615440D01*
X87091440Y-133653540D01*
X87050800Y-133701800D01*
X87022860Y-133752600D01*
X87005080Y-133808480D01*
X87005080Y-133811020D01*
X87002540Y-133826260D01*
X87000000Y-133833880D01*
X87000000Y-133833880D01*
X86997460Y-133823720D01*
X86994920Y-133808480D01*
X86992380Y-133803400D01*
X86974600Y-133747520D01*
X86944120Y-133696720D01*
X86903480Y-133648460D01*
X86867920Y-133617980D01*
X86812040Y-133587500D01*
X86753620Y-133567180D01*
X86687580Y-133562100D01*
X86639320Y-133564640D01*
X86578360Y-133582420D01*
X86519940Y-133610360D01*
X86471680Y-133648460D01*
X86431040Y-133699260D01*
X86425960Y-133706880D01*
X86410720Y-133729740D01*
X86400560Y-133750060D01*
X86395480Y-133762760D01*
X86387860Y-133790700D01*
X86380240Y-133818640D01*
X86377700Y-133838960D01*
X86377700Y-133841500D01*
X86375160Y-133844040D01*
X86372620Y-133828800D01*
X86367540Y-133795780D01*
X86352300Y-133752600D01*
X86331980Y-133714500D01*
X86296420Y-133663700D01*
X86248160Y-133620520D01*
X86192280Y-133590040D01*
X86131320Y-133569720D01*
X86065280Y-133562100D01*
X86006860Y-133567180D01*
X85945900Y-133584960D01*
X85890020Y-133612900D01*
X85839220Y-133656080D01*
X85816360Y-133684020D01*
X85790960Y-133719580D01*
X85773180Y-133757680D01*
X85763020Y-133790700D01*
X85750320Y-133854200D01*
X85752860Y-133915160D01*
X85768100Y-133973580D01*
X85790960Y-134026920D01*
X85826520Y-134077720D01*
X85869700Y-134118360D01*
X85917960Y-134151380D01*
X85976380Y-134174240D01*
X86039880Y-134184400D01*
X86044960Y-134184400D01*
X86108460Y-134184400D01*
X86169420Y-134169160D01*
X86225300Y-134141220D01*
X86245620Y-134128520D01*
X86288800Y-134090420D01*
X86324360Y-134047240D01*
X86349760Y-133998980D01*
X86357380Y-133981200D01*
X86365000Y-133955800D01*
X86372620Y-133927860D01*
X86375160Y-133907540D01*
X86375160Y-133894840D01*
X86377700Y-133907540D01*
X86377700Y-133917700D01*
X86385320Y-133945640D01*
X86392940Y-133976120D01*
X86403100Y-134001520D01*
X86418340Y-134032000D01*
X86456440Y-134082800D01*
X86504700Y-134125980D01*
X86560580Y-134159000D01*
X86621540Y-134179320D01*
X86631700Y-134181860D01*
X86674880Y-134186940D01*
X86720600Y-134184400D01*
X86761240Y-134179320D01*
X86801880Y-134164080D01*
X86860300Y-134136140D01*
X86913640Y-134092960D01*
X86916180Y-134087880D01*
X86951740Y-134044700D01*
X86979680Y-133991360D01*
X86994920Y-133938020D01*
X86994920Y-133935480D01*
X87000000Y-133920240D01*
X87000000Y-133915160D01*
X87000000Y-133920240D01*
X87002540Y-133932940D01*
X87005080Y-133938020D01*
X87012700Y-133968500D01*
X87027940Y-134004060D01*
X87045720Y-134039620D01*
X87073660Y-134077720D01*
X87119380Y-134120900D01*
X87175260Y-134156460D01*
X87236220Y-134176780D01*
X87248920Y-134179320D01*
X87289560Y-134184400D01*
X87335280Y-134184400D01*
X87375920Y-134179320D01*
X87411480Y-134169160D01*
X87469900Y-134143760D01*
X87520700Y-134105660D01*
X87563880Y-134057400D01*
X87596900Y-134001520D01*
X87604520Y-133983740D01*
X87612140Y-133955800D01*
X87619760Y-133927860D01*
X87622300Y-133907540D01*
X87622300Y-133905000D01*
X87624840Y-133905000D01*
X87624840Y-133917700D01*
X87627380Y-133917700D01*
X87635000Y-133958340D01*
X87650240Y-133998980D01*
X87668020Y-134037080D01*
X87678180Y-134049780D01*
X87718820Y-134098040D01*
X87767080Y-134136140D01*
X87820420Y-134164080D01*
X87881380Y-134181860D01*
X87942340Y-134186940D01*
G36*
X85417580Y-133562100D02*
X85455680Y-133559560D01*
X85493780Y-133557020D01*
X85534420Y-133546860D01*
X85592840Y-133521460D01*
X85646180Y-133483360D01*
X85689360Y-133437640D01*
X85722380Y-133381760D01*
X85742700Y-133323340D01*
X85750320Y-133259840D01*
X85747780Y-133196340D01*
X85730000Y-133135380D01*
X85702060Y-133079500D01*
X85661420Y-133031240D01*
X85613160Y-132988060D01*
X85595380Y-132977900D01*
X85536960Y-132952500D01*
X85473460Y-132937260D01*
X85409960Y-132937260D01*
X85343920Y-132949960D01*
X85293120Y-132972820D01*
X85239780Y-133008380D01*
X85194060Y-133054100D01*
X85158500Y-133109980D01*
X85135640Y-133170940D01*
X85128020Y-133203960D01*
X85125480Y-133244600D01*
X85128020Y-133285240D01*
X85133100Y-133318260D01*
X85135640Y-133330960D01*
X85161040Y-133391920D01*
X85196600Y-133447800D01*
X85244860Y-133493520D01*
X85300740Y-133529080D01*
X85328680Y-133541780D01*
X85364240Y-133551940D01*
X85397260Y-133559560D01*
X85417580Y-133562100D01*
X85417580Y-133562100D01*
G37*
X85417580Y-133562100D02*
X85455680Y-133559560D01*
X85493780Y-133557020D01*
X85534420Y-133546860D01*
X85592840Y-133521460D01*
X85646180Y-133483360D01*
X85689360Y-133437640D01*
X85722380Y-133381760D01*
X85742700Y-133323340D01*
X85750320Y-133259840D01*
X85747780Y-133196340D01*
X85730000Y-133135380D01*
X85702060Y-133079500D01*
X85661420Y-133031240D01*
X85613160Y-132988060D01*
X85595380Y-132977900D01*
X85536960Y-132952500D01*
X85473460Y-132937260D01*
X85409960Y-132937260D01*
X85343920Y-132949960D01*
X85293120Y-132972820D01*
X85239780Y-133008380D01*
X85194060Y-133054100D01*
X85158500Y-133109980D01*
X85135640Y-133170940D01*
X85128020Y-133203960D01*
X85125480Y-133244600D01*
X85128020Y-133285240D01*
X85133100Y-133318260D01*
X85135640Y-133330960D01*
X85161040Y-133391920D01*
X85196600Y-133447800D01*
X85244860Y-133493520D01*
X85300740Y-133529080D01*
X85328680Y-133541780D01*
X85364240Y-133551940D01*
X85397260Y-133559560D01*
X85417580Y-133562100D01*
G36*
X88567180Y-133562100D02*
X88633220Y-133554480D01*
X88694180Y-133531620D01*
X88752600Y-133496060D01*
X88765300Y-133485900D01*
X88808480Y-133440180D01*
X88841500Y-133386840D01*
X88864360Y-133325880D01*
X88871980Y-133292860D01*
X88874520Y-133252220D01*
X88871980Y-133214120D01*
X88866900Y-133181100D01*
X88864360Y-133165860D01*
X88838960Y-133102360D01*
X88803400Y-133049020D01*
X88757680Y-133005840D01*
X88704340Y-132970280D01*
X88643380Y-132947420D01*
X88577340Y-132937260D01*
X88554480Y-132937260D01*
X88490980Y-132944880D01*
X88432560Y-132962660D01*
X88379220Y-132993140D01*
X88333500Y-133033780D01*
X88297940Y-133082040D01*
X88270000Y-133137920D01*
X88252220Y-133198880D01*
X88249680Y-133262380D01*
X88252220Y-133300480D01*
X88259840Y-133336040D01*
X88275080Y-133371600D01*
X88300480Y-133419860D01*
X88338580Y-133468120D01*
X88389380Y-133508760D01*
X88442720Y-133539240D01*
X88503680Y-133557020D01*
X88567180Y-133562100D01*
X88567180Y-133562100D01*
G37*
X88567180Y-133562100D02*
X88633220Y-133554480D01*
X88694180Y-133531620D01*
X88752600Y-133496060D01*
X88765300Y-133485900D01*
X88808480Y-133440180D01*
X88841500Y-133386840D01*
X88864360Y-133325880D01*
X88871980Y-133292860D01*
X88874520Y-133252220D01*
X88871980Y-133214120D01*
X88866900Y-133181100D01*
X88864360Y-133165860D01*
X88838960Y-133102360D01*
X88803400Y-133049020D01*
X88757680Y-133005840D01*
X88704340Y-132970280D01*
X88643380Y-132947420D01*
X88577340Y-132937260D01*
X88554480Y-132937260D01*
X88490980Y-132944880D01*
X88432560Y-132962660D01*
X88379220Y-132993140D01*
X88333500Y-133033780D01*
X88297940Y-133082040D01*
X88270000Y-133137920D01*
X88252220Y-133198880D01*
X88249680Y-133262380D01*
X88252220Y-133300480D01*
X88259840Y-133336040D01*
X88275080Y-133371600D01*
X88300480Y-133419860D01*
X88338580Y-133468120D01*
X88389380Y-133508760D01*
X88442720Y-133539240D01*
X88503680Y-133557020D01*
X88567180Y-133562100D01*
G36*
X84795280Y-132934720D02*
X84841000Y-132934720D01*
X84879100Y-132929640D01*
X84924820Y-132916940D01*
X84980700Y-132886460D01*
X85034040Y-132843280D01*
X85067060Y-132805180D01*
X85097540Y-132751840D01*
X85120400Y-132690880D01*
X85122940Y-132665480D01*
X85125480Y-132629920D01*
X85125480Y-132591820D01*
X85120400Y-132558800D01*
X85115320Y-132541020D01*
X85089920Y-132477520D01*
X85054360Y-132424180D01*
X85008640Y-132378460D01*
X84952760Y-132342900D01*
X84929900Y-132332740D01*
X84889260Y-132320040D01*
X84848620Y-132314960D01*
X84802900Y-132312420D01*
X84772420Y-132314960D01*
X84739400Y-132320040D01*
X84708920Y-132327660D01*
X84673360Y-132342900D01*
X84653040Y-132355600D01*
X84602240Y-132393700D01*
X84559060Y-132441960D01*
X84526040Y-132497840D01*
X84505720Y-132561340D01*
X84503180Y-132576580D01*
X84500640Y-132614680D01*
X84503180Y-132652780D01*
X84505720Y-132685800D01*
X84510800Y-132708660D01*
X84536200Y-132769620D01*
X84571760Y-132822960D01*
X84617480Y-132868680D01*
X84673360Y-132901700D01*
X84736860Y-132927100D01*
X84754640Y-132929640D01*
X84795280Y-132934720D01*
X84795280Y-132934720D01*
G37*
X84795280Y-132934720D02*
X84841000Y-132934720D01*
X84879100Y-132929640D01*
X84924820Y-132916940D01*
X84980700Y-132886460D01*
X85034040Y-132843280D01*
X85067060Y-132805180D01*
X85097540Y-132751840D01*
X85120400Y-132690880D01*
X85122940Y-132665480D01*
X85125480Y-132629920D01*
X85125480Y-132591820D01*
X85120400Y-132558800D01*
X85115320Y-132541020D01*
X85089920Y-132477520D01*
X85054360Y-132424180D01*
X85008640Y-132378460D01*
X84952760Y-132342900D01*
X84929900Y-132332740D01*
X84889260Y-132320040D01*
X84848620Y-132314960D01*
X84802900Y-132312420D01*
X84772420Y-132314960D01*
X84739400Y-132320040D01*
X84708920Y-132327660D01*
X84673360Y-132342900D01*
X84653040Y-132355600D01*
X84602240Y-132393700D01*
X84559060Y-132441960D01*
X84526040Y-132497840D01*
X84505720Y-132561340D01*
X84503180Y-132576580D01*
X84500640Y-132614680D01*
X84503180Y-132652780D01*
X84505720Y-132685800D01*
X84510800Y-132708660D01*
X84536200Y-132769620D01*
X84571760Y-132822960D01*
X84617480Y-132868680D01*
X84673360Y-132901700D01*
X84736860Y-132927100D01*
X84754640Y-132929640D01*
X84795280Y-132934720D01*
G36*
X87304800Y-132934720D02*
X87365760Y-132932180D01*
X87426720Y-132914400D01*
X87459740Y-132899160D01*
X87513080Y-132861060D01*
X87558800Y-132815340D01*
X87591820Y-132759460D01*
X87614680Y-132698500D01*
X87617220Y-132685800D01*
X87624840Y-132635000D01*
X87622300Y-132586740D01*
X87609600Y-132533400D01*
X87584200Y-132472440D01*
X87548640Y-132419100D01*
X87500380Y-132375920D01*
X87444500Y-132342900D01*
X87381000Y-132320040D01*
X87342900Y-132309880D01*
X87363220Y-132307340D01*
X87368300Y-132307340D01*
X87414020Y-132294640D01*
X87459740Y-132274320D01*
X87502920Y-132246380D01*
X87510540Y-132238760D01*
X87556260Y-132193040D01*
X87589280Y-132142240D01*
X87612140Y-132083820D01*
X87622300Y-132022860D01*
X87622300Y-131961900D01*
X87607060Y-131900940D01*
X87581660Y-131842520D01*
X87579120Y-131839980D01*
X87541020Y-131789180D01*
X87492760Y-131746000D01*
X87439420Y-131715520D01*
X87383540Y-131697740D01*
X87322580Y-131690120D01*
X87261620Y-131692660D01*
X87203200Y-131707900D01*
X87147320Y-131735840D01*
X87096520Y-131773940D01*
X87068580Y-131804420D01*
X87038100Y-131850140D01*
X87015240Y-131898400D01*
X87002540Y-131944120D01*
X87002540Y-131956820D01*
X87000000Y-131961900D01*
X87000000Y-131956820D01*
X86997460Y-131944120D01*
X86984760Y-131903480D01*
X86966980Y-131857760D01*
X86941580Y-131817120D01*
X86923800Y-131796800D01*
X86878080Y-131751080D01*
X86822200Y-131718060D01*
X86763780Y-131697740D01*
X86700280Y-131687580D01*
X86636780Y-131692660D01*
X86596140Y-131702820D01*
X86537720Y-131728220D01*
X86484380Y-131763780D01*
X86441200Y-131809500D01*
X86408180Y-131865380D01*
X86385320Y-131926340D01*
X86380240Y-131956820D01*
X86377700Y-132020320D01*
X86387860Y-132083820D01*
X86410720Y-132142240D01*
X86446280Y-132193040D01*
X86489460Y-132238760D01*
X86545340Y-132276860D01*
X86570740Y-132287020D01*
X86598680Y-132297180D01*
X86626620Y-132304800D01*
X86646940Y-132309880D01*
X86649480Y-132309880D01*
X86649480Y-132309880D01*
X86634240Y-132314960D01*
X86603760Y-132322580D01*
X86563120Y-132337820D01*
X86527560Y-132355600D01*
X86507240Y-132368300D01*
X86464060Y-132406400D01*
X86428500Y-132449580D01*
X86400560Y-132497840D01*
X86385320Y-132548640D01*
X86377700Y-132607060D01*
X86377700Y-132660400D01*
X86380240Y-132670560D01*
X86395480Y-132736600D01*
X86425960Y-132792480D01*
X86469140Y-132843280D01*
X86504700Y-132876300D01*
X86560580Y-132909320D01*
X86621540Y-132929640D01*
X86644400Y-132932180D01*
X86679960Y-132934720D01*
X86715520Y-132932180D01*
X86748540Y-132929640D01*
X86773940Y-132924560D01*
X86794260Y-132919480D01*
X86855220Y-132889000D01*
X86906020Y-132848360D01*
X86949200Y-132797560D01*
X86964440Y-132772160D01*
X86982220Y-132728980D01*
X86994920Y-132688340D01*
X86994920Y-132685800D01*
X87000000Y-132670560D01*
X87000000Y-132665480D01*
X87000000Y-132665480D01*
X87000000Y-132581660D01*
X87000000Y-132581660D01*
X86997460Y-132574040D01*
X86994920Y-132558800D01*
X86994920Y-132553720D01*
X86974600Y-132497840D01*
X86946660Y-132447040D01*
X86906020Y-132398780D01*
X86857760Y-132360680D01*
X86804420Y-132332740D01*
X86801880Y-132332740D01*
X86773940Y-132322580D01*
X86748540Y-132317500D01*
X86720600Y-132309880D01*
X86746000Y-132304800D01*
X86784100Y-132297180D01*
X86839980Y-132271780D01*
X86890780Y-132236220D01*
X86933960Y-132193040D01*
X86966980Y-132142240D01*
X86979680Y-132114300D01*
X86989840Y-132081280D01*
X86997460Y-132055880D01*
X86997460Y-132043180D01*
X87000000Y-132038100D01*
X87000000Y-132043180D01*
X87002540Y-132055880D01*
X87007620Y-132078740D01*
X87020320Y-132111760D01*
X87033020Y-132142240D01*
X87050800Y-132172720D01*
X87091440Y-132220980D01*
X87139700Y-132261620D01*
X87195580Y-132289560D01*
X87254000Y-132307340D01*
X87281940Y-132309880D01*
X87254000Y-132317500D01*
X87248920Y-132317500D01*
X87220980Y-132325120D01*
X87195580Y-132332740D01*
X87190500Y-132335280D01*
X87137160Y-132363220D01*
X87091440Y-132403860D01*
X87050800Y-132449580D01*
X87022860Y-132502920D01*
X87005080Y-132558800D01*
X87005080Y-132561340D01*
X87002540Y-132576580D01*
X87000000Y-132581660D01*
X87000000Y-132665480D01*
X87000000Y-132665480D01*
X87002540Y-132673100D01*
X87005080Y-132688340D01*
X87015240Y-132728980D01*
X87043180Y-132784860D01*
X87081280Y-132835660D01*
X87127000Y-132876300D01*
X87182880Y-132909320D01*
X87182880Y-132909320D01*
X87241300Y-132927100D01*
X87304800Y-132934720D01*
X87304800Y-132934720D01*
G37*
X87304800Y-132934720D02*
X87365760Y-132932180D01*
X87426720Y-132914400D01*
X87459740Y-132899160D01*
X87513080Y-132861060D01*
X87558800Y-132815340D01*
X87591820Y-132759460D01*
X87614680Y-132698500D01*
X87617220Y-132685800D01*
X87624840Y-132635000D01*
X87622300Y-132586740D01*
X87609600Y-132533400D01*
X87584200Y-132472440D01*
X87548640Y-132419100D01*
X87500380Y-132375920D01*
X87444500Y-132342900D01*
X87381000Y-132320040D01*
X87342900Y-132309880D01*
X87363220Y-132307340D01*
X87368300Y-132307340D01*
X87414020Y-132294640D01*
X87459740Y-132274320D01*
X87502920Y-132246380D01*
X87510540Y-132238760D01*
X87556260Y-132193040D01*
X87589280Y-132142240D01*
X87612140Y-132083820D01*
X87622300Y-132022860D01*
X87622300Y-131961900D01*
X87607060Y-131900940D01*
X87581660Y-131842520D01*
X87579120Y-131839980D01*
X87541020Y-131789180D01*
X87492760Y-131746000D01*
X87439420Y-131715520D01*
X87383540Y-131697740D01*
X87322580Y-131690120D01*
X87261620Y-131692660D01*
X87203200Y-131707900D01*
X87147320Y-131735840D01*
X87096520Y-131773940D01*
X87068580Y-131804420D01*
X87038100Y-131850140D01*
X87015240Y-131898400D01*
X87002540Y-131944120D01*
X87002540Y-131956820D01*
X87000000Y-131961900D01*
X87000000Y-131956820D01*
X86997460Y-131944120D01*
X86984760Y-131903480D01*
X86966980Y-131857760D01*
X86941580Y-131817120D01*
X86923800Y-131796800D01*
X86878080Y-131751080D01*
X86822200Y-131718060D01*
X86763780Y-131697740D01*
X86700280Y-131687580D01*
X86636780Y-131692660D01*
X86596140Y-131702820D01*
X86537720Y-131728220D01*
X86484380Y-131763780D01*
X86441200Y-131809500D01*
X86408180Y-131865380D01*
X86385320Y-131926340D01*
X86380240Y-131956820D01*
X86377700Y-132020320D01*
X86387860Y-132083820D01*
X86410720Y-132142240D01*
X86446280Y-132193040D01*
X86489460Y-132238760D01*
X86545340Y-132276860D01*
X86570740Y-132287020D01*
X86598680Y-132297180D01*
X86626620Y-132304800D01*
X86646940Y-132309880D01*
X86649480Y-132309880D01*
X86649480Y-132309880D01*
X86634240Y-132314960D01*
X86603760Y-132322580D01*
X86563120Y-132337820D01*
X86527560Y-132355600D01*
X86507240Y-132368300D01*
X86464060Y-132406400D01*
X86428500Y-132449580D01*
X86400560Y-132497840D01*
X86385320Y-132548640D01*
X86377700Y-132607060D01*
X86377700Y-132660400D01*
X86380240Y-132670560D01*
X86395480Y-132736600D01*
X86425960Y-132792480D01*
X86469140Y-132843280D01*
X86504700Y-132876300D01*
X86560580Y-132909320D01*
X86621540Y-132929640D01*
X86644400Y-132932180D01*
X86679960Y-132934720D01*
X86715520Y-132932180D01*
X86748540Y-132929640D01*
X86773940Y-132924560D01*
X86794260Y-132919480D01*
X86855220Y-132889000D01*
X86906020Y-132848360D01*
X86949200Y-132797560D01*
X86964440Y-132772160D01*
X86982220Y-132728980D01*
X86994920Y-132688340D01*
X86994920Y-132685800D01*
X87000000Y-132670560D01*
X87000000Y-132665480D01*
X87000000Y-132665480D01*
X87000000Y-132581660D01*
X87000000Y-132581660D01*
X86997460Y-132574040D01*
X86994920Y-132558800D01*
X86994920Y-132553720D01*
X86974600Y-132497840D01*
X86946660Y-132447040D01*
X86906020Y-132398780D01*
X86857760Y-132360680D01*
X86804420Y-132332740D01*
X86801880Y-132332740D01*
X86773940Y-132322580D01*
X86748540Y-132317500D01*
X86720600Y-132309880D01*
X86746000Y-132304800D01*
X86784100Y-132297180D01*
X86839980Y-132271780D01*
X86890780Y-132236220D01*
X86933960Y-132193040D01*
X86966980Y-132142240D01*
X86979680Y-132114300D01*
X86989840Y-132081280D01*
X86997460Y-132055880D01*
X86997460Y-132043180D01*
X87000000Y-132038100D01*
X87000000Y-132043180D01*
X87002540Y-132055880D01*
X87007620Y-132078740D01*
X87020320Y-132111760D01*
X87033020Y-132142240D01*
X87050800Y-132172720D01*
X87091440Y-132220980D01*
X87139700Y-132261620D01*
X87195580Y-132289560D01*
X87254000Y-132307340D01*
X87281940Y-132309880D01*
X87254000Y-132317500D01*
X87248920Y-132317500D01*
X87220980Y-132325120D01*
X87195580Y-132332740D01*
X87190500Y-132335280D01*
X87137160Y-132363220D01*
X87091440Y-132403860D01*
X87050800Y-132449580D01*
X87022860Y-132502920D01*
X87005080Y-132558800D01*
X87005080Y-132561340D01*
X87002540Y-132576580D01*
X87000000Y-132581660D01*
X87000000Y-132665480D01*
X87000000Y-132665480D01*
X87002540Y-132673100D01*
X87005080Y-132688340D01*
X87015240Y-132728980D01*
X87043180Y-132784860D01*
X87081280Y-132835660D01*
X87127000Y-132876300D01*
X87182880Y-132909320D01*
X87182880Y-132909320D01*
X87241300Y-132927100D01*
X87304800Y-132934720D01*
G36*
X89164080Y-132934720D02*
X89214880Y-132934720D01*
X89260600Y-132927100D01*
X89291080Y-132919480D01*
X89349500Y-132891540D01*
X89400300Y-132853440D01*
X89440940Y-132805180D01*
X89471420Y-132749300D01*
X89491740Y-132688340D01*
X89499360Y-132624840D01*
X89496820Y-132596900D01*
X89486660Y-132533400D01*
X89461260Y-132472440D01*
X89423160Y-132416560D01*
X89410460Y-132406400D01*
X89367280Y-132368300D01*
X89313940Y-132337820D01*
X89260600Y-132320040D01*
X89258060Y-132320040D01*
X89212340Y-132312420D01*
X89161540Y-132312420D01*
X89113280Y-132320040D01*
X89098040Y-132325120D01*
X89037080Y-132347980D01*
X88986280Y-132383540D01*
X88943100Y-132429260D01*
X88910080Y-132480060D01*
X88887220Y-132535940D01*
X88874520Y-132596900D01*
X88874520Y-132660400D01*
X88889760Y-132723900D01*
X88910080Y-132769620D01*
X88945640Y-132822960D01*
X88993900Y-132868680D01*
X89047240Y-132904240D01*
X89108200Y-132927100D01*
X89115820Y-132927100D01*
X89164080Y-132934720D01*
X89164080Y-132934720D01*
G37*
X89164080Y-132934720D02*
X89214880Y-132934720D01*
X89260600Y-132927100D01*
X89291080Y-132919480D01*
X89349500Y-132891540D01*
X89400300Y-132853440D01*
X89440940Y-132805180D01*
X89471420Y-132749300D01*
X89491740Y-132688340D01*
X89499360Y-132624840D01*
X89496820Y-132596900D01*
X89486660Y-132533400D01*
X89461260Y-132472440D01*
X89423160Y-132416560D01*
X89410460Y-132406400D01*
X89367280Y-132368300D01*
X89313940Y-132337820D01*
X89260600Y-132320040D01*
X89258060Y-132320040D01*
X89212340Y-132312420D01*
X89161540Y-132312420D01*
X89113280Y-132320040D01*
X89098040Y-132325120D01*
X89037080Y-132347980D01*
X88986280Y-132383540D01*
X88943100Y-132429260D01*
X88910080Y-132480060D01*
X88887220Y-132535940D01*
X88874520Y-132596900D01*
X88874520Y-132660400D01*
X88889760Y-132723900D01*
X88910080Y-132769620D01*
X88945640Y-132822960D01*
X88993900Y-132868680D01*
X89047240Y-132904240D01*
X89108200Y-132927100D01*
X89115820Y-132927100D01*
X89164080Y-132934720D01*
G36*
X86072900Y-131062740D02*
X86133860Y-131055120D01*
X86194820Y-131034800D01*
X86222760Y-131019560D01*
X86250700Y-130999240D01*
X86281180Y-130973840D01*
X86314200Y-130938280D01*
X86344680Y-130887480D01*
X86367540Y-130826520D01*
X86370080Y-130808740D01*
X86375160Y-130768100D01*
X86375160Y-130722380D01*
X86370080Y-130684280D01*
X86352300Y-130633480D01*
X86324360Y-130577600D01*
X86286260Y-130531880D01*
X86281180Y-130524260D01*
X86250700Y-130501400D01*
X86217680Y-130478540D01*
X86184660Y-130463300D01*
X86174500Y-130458220D01*
X86149100Y-130450600D01*
X86123700Y-130442980D01*
X86105920Y-130440440D01*
X86095760Y-130440440D01*
X86105920Y-130437900D01*
X86121160Y-130432820D01*
X86141480Y-130427740D01*
X86164340Y-130422660D01*
X86210060Y-130399800D01*
X86255780Y-130371860D01*
X86293880Y-130338840D01*
X86298960Y-130331220D01*
X86337060Y-130277880D01*
X86362460Y-130216920D01*
X86375160Y-130155960D01*
X86375160Y-130092460D01*
X86372620Y-130077220D01*
X86354840Y-130013720D01*
X86326900Y-129957840D01*
X86283720Y-129904500D01*
X86245620Y-129871480D01*
X86192280Y-129841000D01*
X86131320Y-129820680D01*
X86118620Y-129818140D01*
X86075440Y-129813060D01*
X86032260Y-129815600D01*
X85991620Y-129820680D01*
X85956060Y-129833380D01*
X85900180Y-129861320D01*
X85849380Y-129899420D01*
X85808740Y-129945140D01*
X85775720Y-130001020D01*
X85757940Y-130059440D01*
X85755400Y-130067060D01*
X85752860Y-130082300D01*
X85747780Y-130087380D01*
X85747780Y-130082300D01*
X85745240Y-130067060D01*
X85740160Y-130041660D01*
X85730000Y-130013720D01*
X85719840Y-129988320D01*
X85709680Y-129970540D01*
X85671580Y-129917200D01*
X85623320Y-129874020D01*
X85567440Y-129841000D01*
X85506480Y-129820680D01*
X85440440Y-129813060D01*
X85389640Y-129818140D01*
X85331220Y-129833380D01*
X85275340Y-129858780D01*
X85242320Y-129881640D01*
X85196600Y-129927360D01*
X85163580Y-129980700D01*
X85138180Y-130039120D01*
X85125480Y-130100080D01*
X85128020Y-130161040D01*
X85140720Y-130219460D01*
X85166120Y-130280420D01*
X85204220Y-130333760D01*
X85252480Y-130376940D01*
X85308360Y-130409960D01*
X85371860Y-130432820D01*
X85407420Y-130440440D01*
X85387100Y-130442980D01*
X85374400Y-130445520D01*
X85323600Y-130460760D01*
X85275340Y-130486160D01*
X85229620Y-130519180D01*
X85194060Y-130557280D01*
X85171200Y-130590300D01*
X85148340Y-130633480D01*
X85135640Y-130674120D01*
X85128020Y-130707140D01*
X85125480Y-130747780D01*
X85128020Y-130785880D01*
X85133100Y-130818900D01*
X85143260Y-130857000D01*
X85173740Y-130915420D01*
X85211840Y-130968760D01*
X85262640Y-131009400D01*
X85321060Y-131039880D01*
X85384560Y-131060200D01*
X85402340Y-131062740D01*
X85440440Y-131062740D01*
X85481080Y-131060200D01*
X85516640Y-131055120D01*
X85542040Y-131047500D01*
X85600460Y-131017020D01*
X85651260Y-130978920D01*
X85694440Y-130930660D01*
X85724920Y-130874780D01*
X85745240Y-130813820D01*
X85745240Y-130808740D01*
X85750320Y-130793500D01*
X85752860Y-130796040D01*
X85752860Y-130709680D01*
X85750320Y-130707140D01*
X85745240Y-130694440D01*
X85745240Y-130691900D01*
X85735080Y-130648720D01*
X85714760Y-130605540D01*
X85689360Y-130564900D01*
X85671580Y-130542040D01*
X85620780Y-130496320D01*
X85564900Y-130465840D01*
X85501400Y-130445520D01*
X85470920Y-130437900D01*
X85493780Y-130435360D01*
X85511560Y-130430280D01*
X85531880Y-130425200D01*
X85544580Y-130420120D01*
X85600460Y-130392180D01*
X85651260Y-130354080D01*
X85694440Y-130305820D01*
X85724920Y-130252480D01*
X85745240Y-130191520D01*
X85747780Y-130176280D01*
X85750320Y-130168660D01*
X85752860Y-130173740D01*
X85757940Y-130194060D01*
X85757940Y-130194060D01*
X85768100Y-130227080D01*
X85783340Y-130265180D01*
X85803660Y-130298200D01*
X85818900Y-130318520D01*
X85846840Y-130349000D01*
X85877320Y-130376940D01*
X85907800Y-130397260D01*
X85910340Y-130399800D01*
X85958600Y-130420120D01*
X86009400Y-130435360D01*
X86029720Y-130437900D01*
X86006860Y-130442980D01*
X85950980Y-130458220D01*
X85895100Y-130488700D01*
X85844300Y-130526800D01*
X85806200Y-130575060D01*
X85796040Y-130590300D01*
X85780800Y-130620780D01*
X85768100Y-130651260D01*
X85757940Y-130681740D01*
X85755400Y-130702060D01*
X85755400Y-130702060D01*
X85752860Y-130709680D01*
X85752860Y-130796040D01*
X85752860Y-130796040D01*
X85755400Y-130808740D01*
X85760480Y-130826520D01*
X85765560Y-130846840D01*
X85778260Y-130879860D01*
X85808740Y-130933200D01*
X85851920Y-130978920D01*
X85900180Y-131017020D01*
X85953520Y-131042420D01*
X86011940Y-131060200D01*
X86072900Y-131062740D01*
X86072900Y-131062740D01*
G37*
X86072900Y-131062740D02*
X86133860Y-131055120D01*
X86194820Y-131034800D01*
X86222760Y-131019560D01*
X86250700Y-130999240D01*
X86281180Y-130973840D01*
X86314200Y-130938280D01*
X86344680Y-130887480D01*
X86367540Y-130826520D01*
X86370080Y-130808740D01*
X86375160Y-130768100D01*
X86375160Y-130722380D01*
X86370080Y-130684280D01*
X86352300Y-130633480D01*
X86324360Y-130577600D01*
X86286260Y-130531880D01*
X86281180Y-130524260D01*
X86250700Y-130501400D01*
X86217680Y-130478540D01*
X86184660Y-130463300D01*
X86174500Y-130458220D01*
X86149100Y-130450600D01*
X86123700Y-130442980D01*
X86105920Y-130440440D01*
X86095760Y-130440440D01*
X86105920Y-130437900D01*
X86121160Y-130432820D01*
X86141480Y-130427740D01*
X86164340Y-130422660D01*
X86210060Y-130399800D01*
X86255780Y-130371860D01*
X86293880Y-130338840D01*
X86298960Y-130331220D01*
X86337060Y-130277880D01*
X86362460Y-130216920D01*
X86375160Y-130155960D01*
X86375160Y-130092460D01*
X86372620Y-130077220D01*
X86354840Y-130013720D01*
X86326900Y-129957840D01*
X86283720Y-129904500D01*
X86245620Y-129871480D01*
X86192280Y-129841000D01*
X86131320Y-129820680D01*
X86118620Y-129818140D01*
X86075440Y-129813060D01*
X86032260Y-129815600D01*
X85991620Y-129820680D01*
X85956060Y-129833380D01*
X85900180Y-129861320D01*
X85849380Y-129899420D01*
X85808740Y-129945140D01*
X85775720Y-130001020D01*
X85757940Y-130059440D01*
X85755400Y-130067060D01*
X85752860Y-130082300D01*
X85747780Y-130087380D01*
X85747780Y-130082300D01*
X85745240Y-130067060D01*
X85740160Y-130041660D01*
X85730000Y-130013720D01*
X85719840Y-129988320D01*
X85709680Y-129970540D01*
X85671580Y-129917200D01*
X85623320Y-129874020D01*
X85567440Y-129841000D01*
X85506480Y-129820680D01*
X85440440Y-129813060D01*
X85389640Y-129818140D01*
X85331220Y-129833380D01*
X85275340Y-129858780D01*
X85242320Y-129881640D01*
X85196600Y-129927360D01*
X85163580Y-129980700D01*
X85138180Y-130039120D01*
X85125480Y-130100080D01*
X85128020Y-130161040D01*
X85140720Y-130219460D01*
X85166120Y-130280420D01*
X85204220Y-130333760D01*
X85252480Y-130376940D01*
X85308360Y-130409960D01*
X85371860Y-130432820D01*
X85407420Y-130440440D01*
X85387100Y-130442980D01*
X85374400Y-130445520D01*
X85323600Y-130460760D01*
X85275340Y-130486160D01*
X85229620Y-130519180D01*
X85194060Y-130557280D01*
X85171200Y-130590300D01*
X85148340Y-130633480D01*
X85135640Y-130674120D01*
X85128020Y-130707140D01*
X85125480Y-130747780D01*
X85128020Y-130785880D01*
X85133100Y-130818900D01*
X85143260Y-130857000D01*
X85173740Y-130915420D01*
X85211840Y-130968760D01*
X85262640Y-131009400D01*
X85321060Y-131039880D01*
X85384560Y-131060200D01*
X85402340Y-131062740D01*
X85440440Y-131062740D01*
X85481080Y-131060200D01*
X85516640Y-131055120D01*
X85542040Y-131047500D01*
X85600460Y-131017020D01*
X85651260Y-130978920D01*
X85694440Y-130930660D01*
X85724920Y-130874780D01*
X85745240Y-130813820D01*
X85745240Y-130808740D01*
X85750320Y-130793500D01*
X85752860Y-130796040D01*
X85752860Y-130709680D01*
X85750320Y-130707140D01*
X85745240Y-130694440D01*
X85745240Y-130691900D01*
X85735080Y-130648720D01*
X85714760Y-130605540D01*
X85689360Y-130564900D01*
X85671580Y-130542040D01*
X85620780Y-130496320D01*
X85564900Y-130465840D01*
X85501400Y-130445520D01*
X85470920Y-130437900D01*
X85493780Y-130435360D01*
X85511560Y-130430280D01*
X85531880Y-130425200D01*
X85544580Y-130420120D01*
X85600460Y-130392180D01*
X85651260Y-130354080D01*
X85694440Y-130305820D01*
X85724920Y-130252480D01*
X85745240Y-130191520D01*
X85747780Y-130176280D01*
X85750320Y-130168660D01*
X85752860Y-130173740D01*
X85757940Y-130194060D01*
X85757940Y-130194060D01*
X85768100Y-130227080D01*
X85783340Y-130265180D01*
X85803660Y-130298200D01*
X85818900Y-130318520D01*
X85846840Y-130349000D01*
X85877320Y-130376940D01*
X85907800Y-130397260D01*
X85910340Y-130399800D01*
X85958600Y-130420120D01*
X86009400Y-130435360D01*
X86029720Y-130437900D01*
X86006860Y-130442980D01*
X85950980Y-130458220D01*
X85895100Y-130488700D01*
X85844300Y-130526800D01*
X85806200Y-130575060D01*
X85796040Y-130590300D01*
X85780800Y-130620780D01*
X85768100Y-130651260D01*
X85757940Y-130681740D01*
X85755400Y-130702060D01*
X85755400Y-130702060D01*
X85752860Y-130709680D01*
X85752860Y-130796040D01*
X85752860Y-130796040D01*
X85755400Y-130808740D01*
X85760480Y-130826520D01*
X85765560Y-130846840D01*
X85778260Y-130879860D01*
X85808740Y-130933200D01*
X85851920Y-130978920D01*
X85900180Y-131017020D01*
X85953520Y-131042420D01*
X86011940Y-131060200D01*
X86072900Y-131062740D01*
G36*
X87952500Y-131062740D02*
X88013460Y-131055120D01*
X88071880Y-131032260D01*
X88125220Y-130999240D01*
X88170940Y-130958600D01*
X88209040Y-130905260D01*
X88234440Y-130846840D01*
X88239520Y-130826520D01*
X88244600Y-130808740D01*
X88244600Y-130806200D01*
X88247140Y-130793500D01*
X88247140Y-130793500D01*
X88247140Y-130707140D01*
X88244600Y-130699520D01*
X88239520Y-130676660D01*
X88229360Y-130641100D01*
X88201420Y-130585220D01*
X88163320Y-130536960D01*
X88115060Y-130496320D01*
X88059180Y-130463300D01*
X87998220Y-130445520D01*
X87970280Y-130437900D01*
X87990600Y-130435360D01*
X87993140Y-130432820D01*
X88043940Y-130420120D01*
X88092200Y-130397260D01*
X88112520Y-130384560D01*
X88143000Y-130359160D01*
X88173480Y-130328680D01*
X88196340Y-130298200D01*
X88214120Y-130270260D01*
X88231900Y-130232160D01*
X88242060Y-130194060D01*
X88244600Y-130176280D01*
X88249680Y-130168660D01*
X88252220Y-130173740D01*
X88254760Y-130191520D01*
X88267460Y-130232160D01*
X88295400Y-130290580D01*
X88336040Y-130343920D01*
X88384300Y-130384560D01*
X88442720Y-130415040D01*
X88506220Y-130435360D01*
X88529080Y-130437900D01*
X88498600Y-130445520D01*
X88470660Y-130453140D01*
X88409700Y-130478540D01*
X88356360Y-130516640D01*
X88310640Y-130564900D01*
X88297940Y-130582680D01*
X88282700Y-130610620D01*
X88267460Y-130643640D01*
X88259840Y-130666500D01*
X88254760Y-130691900D01*
X88254760Y-130691900D01*
X88249680Y-130704600D01*
X88247140Y-130707140D01*
X88247140Y-130793500D01*
X88249680Y-130796040D01*
X88254760Y-130811280D01*
X88259840Y-130834140D01*
X88277620Y-130879860D01*
X88303020Y-130925580D01*
X88320800Y-130948440D01*
X88366520Y-130996700D01*
X88422400Y-131029720D01*
X88485900Y-131055120D01*
X88511300Y-131060200D01*
X88557020Y-131062740D01*
X88600200Y-131060200D01*
X88638300Y-131055120D01*
X88643380Y-131052580D01*
X88704340Y-131029720D01*
X88760220Y-130991620D01*
X88805940Y-130945900D01*
X88841500Y-130890020D01*
X88864360Y-130829060D01*
X88869440Y-130798580D01*
X88874520Y-130755400D01*
X88871980Y-130712220D01*
X88864360Y-130674120D01*
X88854200Y-130641100D01*
X88831340Y-130595380D01*
X88805940Y-130557280D01*
X88778000Y-130526800D01*
X88739900Y-130496320D01*
X88699260Y-130470920D01*
X88684020Y-130463300D01*
X88656080Y-130453140D01*
X88625600Y-130445520D01*
X88602740Y-130440440D01*
X88602740Y-130440440D01*
X88607820Y-130437900D01*
X88628140Y-130432820D01*
X88663700Y-130420120D01*
X88704340Y-130404880D01*
X88737360Y-130384560D01*
X88744980Y-130379480D01*
X88785620Y-130343920D01*
X88821180Y-130298200D01*
X88849120Y-130252480D01*
X88856740Y-130229620D01*
X88871980Y-130166120D01*
X88874520Y-130102620D01*
X88861820Y-130039120D01*
X88859280Y-130026420D01*
X88831340Y-129968000D01*
X88793240Y-129917200D01*
X88744980Y-129874020D01*
X88689100Y-129841000D01*
X88628140Y-129820680D01*
X88617980Y-129818140D01*
X88577340Y-129813060D01*
X88529080Y-129815600D01*
X88488440Y-129820680D01*
X88480820Y-129823220D01*
X88417320Y-129848620D01*
X88361440Y-129884180D01*
X88315720Y-129932440D01*
X88280160Y-129988320D01*
X88272540Y-130006100D01*
X88262380Y-130034040D01*
X88254760Y-130061980D01*
X88252220Y-130082300D01*
X88252220Y-130084840D01*
X88249680Y-130087380D01*
X88247140Y-130079760D01*
X88242060Y-130061980D01*
X88231900Y-130018800D01*
X88203960Y-129962920D01*
X88165860Y-129914660D01*
X88120140Y-129874020D01*
X88064260Y-129841000D01*
X88064260Y-129841000D01*
X88005840Y-129820680D01*
X87944880Y-129813060D01*
X87881380Y-129818140D01*
X87822960Y-129835920D01*
X87787400Y-129851160D01*
X87734060Y-129889260D01*
X87688340Y-129934980D01*
X87655320Y-129988320D01*
X87632460Y-130049280D01*
X87629920Y-130061980D01*
X87622300Y-130112780D01*
X87624840Y-130161040D01*
X87637540Y-130219460D01*
X87665480Y-130280420D01*
X87701040Y-130331220D01*
X87749300Y-130376940D01*
X87805180Y-130409960D01*
X87871220Y-130432820D01*
X87883920Y-130435360D01*
X87894080Y-130440440D01*
X87894080Y-130440440D01*
X87876300Y-130442980D01*
X87840740Y-130453140D01*
X87800100Y-130470920D01*
X87764540Y-130491240D01*
X87728980Y-130516640D01*
X87685800Y-130564900D01*
X87652780Y-130620780D01*
X87647700Y-130630940D01*
X87629920Y-130691900D01*
X87624840Y-130755400D01*
X87632460Y-130821440D01*
X87652780Y-130879860D01*
X87665480Y-130910340D01*
X87685800Y-130938280D01*
X87711200Y-130968760D01*
X87713740Y-130968760D01*
X87764540Y-131011940D01*
X87820420Y-131042420D01*
X87883920Y-131060200D01*
X87889000Y-131060200D01*
X87952500Y-131062740D01*
X87952500Y-131062740D01*
G37*
X87952500Y-131062740D02*
X88013460Y-131055120D01*
X88071880Y-131032260D01*
X88125220Y-130999240D01*
X88170940Y-130958600D01*
X88209040Y-130905260D01*
X88234440Y-130846840D01*
X88239520Y-130826520D01*
X88244600Y-130808740D01*
X88244600Y-130806200D01*
X88247140Y-130793500D01*
X88247140Y-130793500D01*
X88247140Y-130707140D01*
X88244600Y-130699520D01*
X88239520Y-130676660D01*
X88229360Y-130641100D01*
X88201420Y-130585220D01*
X88163320Y-130536960D01*
X88115060Y-130496320D01*
X88059180Y-130463300D01*
X87998220Y-130445520D01*
X87970280Y-130437900D01*
X87990600Y-130435360D01*
X87993140Y-130432820D01*
X88043940Y-130420120D01*
X88092200Y-130397260D01*
X88112520Y-130384560D01*
X88143000Y-130359160D01*
X88173480Y-130328680D01*
X88196340Y-130298200D01*
X88214120Y-130270260D01*
X88231900Y-130232160D01*
X88242060Y-130194060D01*
X88244600Y-130176280D01*
X88249680Y-130168660D01*
X88252220Y-130173740D01*
X88254760Y-130191520D01*
X88267460Y-130232160D01*
X88295400Y-130290580D01*
X88336040Y-130343920D01*
X88384300Y-130384560D01*
X88442720Y-130415040D01*
X88506220Y-130435360D01*
X88529080Y-130437900D01*
X88498600Y-130445520D01*
X88470660Y-130453140D01*
X88409700Y-130478540D01*
X88356360Y-130516640D01*
X88310640Y-130564900D01*
X88297940Y-130582680D01*
X88282700Y-130610620D01*
X88267460Y-130643640D01*
X88259840Y-130666500D01*
X88254760Y-130691900D01*
X88254760Y-130691900D01*
X88249680Y-130704600D01*
X88247140Y-130707140D01*
X88247140Y-130793500D01*
X88249680Y-130796040D01*
X88254760Y-130811280D01*
X88259840Y-130834140D01*
X88277620Y-130879860D01*
X88303020Y-130925580D01*
X88320800Y-130948440D01*
X88366520Y-130996700D01*
X88422400Y-131029720D01*
X88485900Y-131055120D01*
X88511300Y-131060200D01*
X88557020Y-131062740D01*
X88600200Y-131060200D01*
X88638300Y-131055120D01*
X88643380Y-131052580D01*
X88704340Y-131029720D01*
X88760220Y-130991620D01*
X88805940Y-130945900D01*
X88841500Y-130890020D01*
X88864360Y-130829060D01*
X88869440Y-130798580D01*
X88874520Y-130755400D01*
X88871980Y-130712220D01*
X88864360Y-130674120D01*
X88854200Y-130641100D01*
X88831340Y-130595380D01*
X88805940Y-130557280D01*
X88778000Y-130526800D01*
X88739900Y-130496320D01*
X88699260Y-130470920D01*
X88684020Y-130463300D01*
X88656080Y-130453140D01*
X88625600Y-130445520D01*
X88602740Y-130440440D01*
X88602740Y-130440440D01*
X88607820Y-130437900D01*
X88628140Y-130432820D01*
X88663700Y-130420120D01*
X88704340Y-130404880D01*
X88737360Y-130384560D01*
X88744980Y-130379480D01*
X88785620Y-130343920D01*
X88821180Y-130298200D01*
X88849120Y-130252480D01*
X88856740Y-130229620D01*
X88871980Y-130166120D01*
X88874520Y-130102620D01*
X88861820Y-130039120D01*
X88859280Y-130026420D01*
X88831340Y-129968000D01*
X88793240Y-129917200D01*
X88744980Y-129874020D01*
X88689100Y-129841000D01*
X88628140Y-129820680D01*
X88617980Y-129818140D01*
X88577340Y-129813060D01*
X88529080Y-129815600D01*
X88488440Y-129820680D01*
X88480820Y-129823220D01*
X88417320Y-129848620D01*
X88361440Y-129884180D01*
X88315720Y-129932440D01*
X88280160Y-129988320D01*
X88272540Y-130006100D01*
X88262380Y-130034040D01*
X88254760Y-130061980D01*
X88252220Y-130082300D01*
X88252220Y-130084840D01*
X88249680Y-130087380D01*
X88247140Y-130079760D01*
X88242060Y-130061980D01*
X88231900Y-130018800D01*
X88203960Y-129962920D01*
X88165860Y-129914660D01*
X88120140Y-129874020D01*
X88064260Y-129841000D01*
X88064260Y-129841000D01*
X88005840Y-129820680D01*
X87944880Y-129813060D01*
X87881380Y-129818140D01*
X87822960Y-129835920D01*
X87787400Y-129851160D01*
X87734060Y-129889260D01*
X87688340Y-129934980D01*
X87655320Y-129988320D01*
X87632460Y-130049280D01*
X87629920Y-130061980D01*
X87622300Y-130112780D01*
X87624840Y-130161040D01*
X87637540Y-130219460D01*
X87665480Y-130280420D01*
X87701040Y-130331220D01*
X87749300Y-130376940D01*
X87805180Y-130409960D01*
X87871220Y-130432820D01*
X87883920Y-130435360D01*
X87894080Y-130440440D01*
X87894080Y-130440440D01*
X87876300Y-130442980D01*
X87840740Y-130453140D01*
X87800100Y-130470920D01*
X87764540Y-130491240D01*
X87728980Y-130516640D01*
X87685800Y-130564900D01*
X87652780Y-130620780D01*
X87647700Y-130630940D01*
X87629920Y-130691900D01*
X87624840Y-130755400D01*
X87632460Y-130821440D01*
X87652780Y-130879860D01*
X87665480Y-130910340D01*
X87685800Y-130938280D01*
X87711200Y-130968760D01*
X87713740Y-130968760D01*
X87764540Y-131011940D01*
X87820420Y-131042420D01*
X87883920Y-131060200D01*
X87889000Y-131060200D01*
X87952500Y-131062740D01*
D12*
X72200000Y-114000000D02*
X72200000Y-108800000D01*
X72200000Y-108800000D02*
X74800000Y-108800000D01*
X74800000Y-108800000D02*
X74800000Y-114000000D01*
X74800000Y-114000000D02*
X72200000Y-114000000D01*
X74376300Y-113089100D02*
X74376300Y-112352500D01*
X74376300Y-112352500D02*
X72623700Y-112352500D01*
X72623700Y-113089100D02*
X72623700Y-112352500D01*
X74376300Y-113089100D02*
X72623700Y-113089100D01*
X74376300Y-110447500D02*
X74376300Y-109710900D01*
X74376300Y-109710900D02*
X72623700Y-109710900D01*
X72623700Y-110447500D02*
X72623700Y-109710900D01*
X74376300Y-110447500D02*
X72623700Y-110447500D01*
X74312800Y-110447500D02*
X74312800Y-112365200D01*
X72687200Y-110447500D02*
X72687200Y-112365200D01*
X75200000Y-114000000D02*
X75200000Y-108800000D01*
X75200000Y-108800000D02*
X77800000Y-108800000D01*
X77800000Y-108800000D02*
X77800000Y-114000000D01*
X77800000Y-114000000D02*
X75200000Y-114000000D01*
X77376300Y-113089100D02*
X77376300Y-112352500D01*
X77376300Y-112352500D02*
X75623700Y-112352500D01*
X75623700Y-113089100D02*
X75623700Y-112352500D01*
X77376300Y-113089100D02*
X75623700Y-113089100D01*
X77376300Y-110447500D02*
X77376300Y-109710900D01*
X77376300Y-109710900D02*
X75623700Y-109710900D01*
X75623700Y-110447500D02*
X75623700Y-109710900D01*
X77376300Y-110447500D02*
X75623700Y-110447500D01*
X77312800Y-110447500D02*
X77312800Y-112365200D01*
X75687200Y-110447500D02*
X75687200Y-112365200D01*
X66801260Y-112379760D02*
X58301260Y-112379760D01*
X58301260Y-112379760D02*
X58301260Y-127619760D01*
X58301260Y-127619760D02*
X66801260Y-127619760D01*
X66801440Y-112379760D02*
X66801440Y-127619760D01*
X91050080Y-123099760D02*
X82950080Y-123099760D01*
X82950080Y-123099760D02*
X82950080Y-116899760D01*
X82950080Y-116899760D02*
X91050080Y-116899760D01*
X91050080Y-116899760D02*
X91050080Y-123099760D01*
X89387680Y-118348760D02*
X88435180Y-118348760D01*
X88435180Y-118348760D02*
X88435180Y-121648220D01*
X89387680Y-121648220D02*
X88435180Y-121648220D01*
X89387680Y-118348760D02*
X89387680Y-121648220D01*
X85552280Y-118348760D02*
X84602320Y-118348760D01*
X84602320Y-118348760D02*
X84602320Y-121648220D01*
X85552280Y-121648220D02*
X84602320Y-121648220D01*
X85552280Y-118348760D02*
X85552280Y-121648220D01*
X88473280Y-121599960D02*
X85526880Y-121599960D01*
X88447880Y-118399560D02*
X85526880Y-118399560D01*
X96633334Y-115902381D02*
X96300000Y-115426190D01*
X96061905Y-115902381D02*
X96061905Y-114902381D01*
X96442858Y-114902381D01*
X96538096Y-114950000D01*
X96585715Y-114997619D01*
X96633334Y-115092857D01*
X96633334Y-115235714D01*
X96585715Y-115330952D01*
X96538096Y-115378571D01*
X96442858Y-115426190D01*
X96061905Y-115426190D01*
X97014286Y-114997619D02*
X97061905Y-114950000D01*
X97157143Y-114902381D01*
X97395239Y-114902381D01*
X97490477Y-114950000D01*
X97538096Y-114997619D01*
X97585715Y-115092857D01*
X97585715Y-115188095D01*
X97538096Y-115330952D01*
X96966667Y-115902381D01*
X97585715Y-115902381D01*
X81635714Y-108152381D02*
X81635714Y-107152381D01*
X81873809Y-107152381D01*
X82016667Y-107200000D01*
X82111905Y-107295238D01*
X82159524Y-107390476D01*
X82207143Y-107580952D01*
X82207143Y-107723810D01*
X82159524Y-107914286D01*
X82111905Y-108009524D01*
X82016667Y-108104762D01*
X81873809Y-108152381D01*
X81635714Y-108152381D01*
X82588095Y-108104762D02*
X82730952Y-108152381D01*
X82969048Y-108152381D01*
X83064286Y-108104762D01*
X83111905Y-108057143D01*
X83159524Y-107961905D01*
X83159524Y-107866667D01*
X83111905Y-107771429D01*
X83064286Y-107723810D01*
X82969048Y-107676190D01*
X82778571Y-107628571D01*
X82683333Y-107580952D01*
X82635714Y-107533333D01*
X82588095Y-107438095D01*
X82588095Y-107342857D01*
X82635714Y-107247619D01*
X82683333Y-107200000D01*
X82778571Y-107152381D01*
X83016667Y-107152381D01*
X83159524Y-107200000D01*
X84111905Y-108152381D02*
X83540476Y-108152381D01*
X83826190Y-108152381D02*
X83826190Y-107152381D01*
X83730952Y-107295238D01*
X83635714Y-107390476D01*
X83540476Y-107438095D01*
X86833334Y-104937143D02*
X86785715Y-104984762D01*
X86642858Y-105032381D01*
X86547620Y-105032381D01*
X86404762Y-104984762D01*
X86309524Y-104889524D01*
X86261905Y-104794286D01*
X86214286Y-104603810D01*
X86214286Y-104460952D01*
X86261905Y-104270476D01*
X86309524Y-104175238D01*
X86404762Y-104080000D01*
X86547620Y-104032381D01*
X86642858Y-104032381D01*
X86785715Y-104080000D01*
X86833334Y-104127619D01*
X87785715Y-105032381D02*
X87214286Y-105032381D01*
X87500000Y-105032381D02*
X87500000Y-104032381D01*
X87404762Y-104175238D01*
X87309524Y-104270476D01*
X87214286Y-104318095D01*
X91368714Y-105529381D02*
X91368714Y-104529381D01*
X91606809Y-104529381D01*
X91749667Y-104577000D01*
X91844905Y-104672238D01*
X91892524Y-104767476D01*
X91940143Y-104957952D01*
X91940143Y-105100810D01*
X91892524Y-105291286D01*
X91844905Y-105386524D01*
X91749667Y-105481762D01*
X91606809Y-105529381D01*
X91368714Y-105529381D01*
X92273476Y-104529381D02*
X92940143Y-104529381D01*
X92273476Y-105529381D01*
X92940143Y-105529381D01*
X93844905Y-105529381D02*
X93273476Y-105529381D01*
X93559190Y-105529381D02*
X93559190Y-104529381D01*
X93463952Y-104672238D01*
X93368714Y-104767476D01*
X93273476Y-104815095D01*
X104483334Y-108107143D02*
X104435715Y-108154762D01*
X104292858Y-108202381D01*
X104197620Y-108202381D01*
X104054762Y-108154762D01*
X103959524Y-108059524D01*
X103911905Y-107964286D01*
X103864286Y-107773810D01*
X103864286Y-107630952D01*
X103911905Y-107440476D01*
X103959524Y-107345238D01*
X104054762Y-107250000D01*
X104197620Y-107202381D01*
X104292858Y-107202381D01*
X104435715Y-107250000D01*
X104483334Y-107297619D01*
X105388096Y-107202381D02*
X104911905Y-107202381D01*
X104864286Y-107678571D01*
X104911905Y-107630952D01*
X105007143Y-107583333D01*
X105245239Y-107583333D01*
X105340477Y-107630952D01*
X105388096Y-107678571D01*
X105435715Y-107773810D01*
X105435715Y-108011905D01*
X105388096Y-108107143D01*
X105340477Y-108154762D01*
X105245239Y-108202381D01*
X105007143Y-108202381D01*
X104911905Y-108154762D01*
X104864286Y-108107143D01*
X104483334Y-105357143D02*
X104435715Y-105404762D01*
X104292858Y-105452381D01*
X104197620Y-105452381D01*
X104054762Y-105404762D01*
X103959524Y-105309524D01*
X103911905Y-105214286D01*
X103864286Y-105023810D01*
X103864286Y-104880952D01*
X103911905Y-104690476D01*
X103959524Y-104595238D01*
X104054762Y-104500000D01*
X104197620Y-104452381D01*
X104292858Y-104452381D01*
X104435715Y-104500000D01*
X104483334Y-104547619D01*
X105340477Y-104785714D02*
X105340477Y-105452381D01*
X105102381Y-104404762D02*
X104864286Y-105119048D01*
X105483334Y-105119048D01*
X69083334Y-108107143D02*
X69035715Y-108154762D01*
X68892858Y-108202381D01*
X68797620Y-108202381D01*
X68654762Y-108154762D01*
X68559524Y-108059524D01*
X68511905Y-107964286D01*
X68464286Y-107773810D01*
X68464286Y-107630952D01*
X68511905Y-107440476D01*
X68559524Y-107345238D01*
X68654762Y-107250000D01*
X68797620Y-107202381D01*
X68892858Y-107202381D01*
X69035715Y-107250000D01*
X69083334Y-107297619D01*
X69416667Y-107202381D02*
X70035715Y-107202381D01*
X69702381Y-107583333D01*
X69845239Y-107583333D01*
X69940477Y-107630952D01*
X69988096Y-107678571D01*
X70035715Y-107773810D01*
X70035715Y-108011905D01*
X69988096Y-108107143D01*
X69940477Y-108154762D01*
X69845239Y-108202381D01*
X69559524Y-108202381D01*
X69464286Y-108154762D01*
X69416667Y-108107143D01*
X69083334Y-105357143D02*
X69035715Y-105404762D01*
X68892858Y-105452381D01*
X68797620Y-105452381D01*
X68654762Y-105404762D01*
X68559524Y-105309524D01*
X68511905Y-105214286D01*
X68464286Y-105023810D01*
X68464286Y-104880952D01*
X68511905Y-104690476D01*
X68559524Y-104595238D01*
X68654762Y-104500000D01*
X68797620Y-104452381D01*
X68892858Y-104452381D01*
X69035715Y-104500000D01*
X69083334Y-104547619D01*
X69464286Y-104547619D02*
X69511905Y-104500000D01*
X69607143Y-104452381D01*
X69845239Y-104452381D01*
X69940477Y-104500000D01*
X69988096Y-104547619D01*
X70035715Y-104642857D01*
X70035715Y-104738095D01*
X69988096Y-104880952D01*
X69416667Y-105452381D01*
X70035715Y-105452381D01*
X93683334Y-115807143D02*
X93635715Y-115854762D01*
X93492858Y-115902381D01*
X93397620Y-115902381D01*
X93254762Y-115854762D01*
X93159524Y-115759524D01*
X93111905Y-115664286D01*
X93064286Y-115473810D01*
X93064286Y-115330952D01*
X93111905Y-115140476D01*
X93159524Y-115045238D01*
X93254762Y-114950000D01*
X93397620Y-114902381D01*
X93492858Y-114902381D01*
X93635715Y-114950000D01*
X93683334Y-114997619D01*
X94540477Y-114902381D02*
X94350000Y-114902381D01*
X94254762Y-114950000D01*
X94207143Y-114997619D01*
X94111905Y-115140476D01*
X94064286Y-115330952D01*
X94064286Y-115711905D01*
X94111905Y-115807143D01*
X94159524Y-115854762D01*
X94254762Y-115902381D01*
X94445239Y-115902381D01*
X94540477Y-115854762D01*
X94588096Y-115807143D01*
X94635715Y-115711905D01*
X94635715Y-115473810D01*
X94588096Y-115378571D01*
X94540477Y-115330952D01*
X94445239Y-115283333D01*
X94254762Y-115283333D01*
X94159524Y-115330952D01*
X94111905Y-115378571D01*
X94064286Y-115473810D01*
X91133334Y-115902381D02*
X90800000Y-115426190D01*
X90561905Y-115902381D02*
X90561905Y-114902381D01*
X90942858Y-114902381D01*
X91038096Y-114950000D01*
X91085715Y-114997619D01*
X91133334Y-115092857D01*
X91133334Y-115235714D01*
X91085715Y-115330952D01*
X91038096Y-115378571D01*
X90942858Y-115426190D01*
X90561905Y-115426190D01*
X92085715Y-115902381D02*
X91514286Y-115902381D01*
X91800000Y-115902381D02*
X91800000Y-114902381D01*
X91704762Y-115045238D01*
X91609524Y-115140476D01*
X91514286Y-115188095D01*
X73476191Y-108352381D02*
X73142857Y-107876190D01*
X72904762Y-108352381D02*
X72904762Y-107352381D01*
X73285715Y-107352381D01*
X73380953Y-107400000D01*
X73428572Y-107447619D01*
X73476191Y-107542857D01*
X73476191Y-107685714D01*
X73428572Y-107780952D01*
X73380953Y-107828571D01*
X73285715Y-107876190D01*
X72904762Y-107876190D01*
X73666667Y-108447619D02*
X74428572Y-108447619D01*
X75238096Y-108257143D02*
X75190477Y-108304762D01*
X75047620Y-108352381D01*
X74952382Y-108352381D01*
X74809524Y-108304762D01*
X74714286Y-108209524D01*
X74666667Y-108114286D01*
X74619048Y-107923810D01*
X74619048Y-107780952D01*
X74666667Y-107590476D01*
X74714286Y-107495238D01*
X74809524Y-107400000D01*
X74952382Y-107352381D01*
X75047620Y-107352381D01*
X75190477Y-107400000D01*
X75238096Y-107447619D01*
X75619048Y-108304762D02*
X75761905Y-108352381D01*
X76000001Y-108352381D01*
X76095239Y-108304762D01*
X76142858Y-108257143D01*
X76190477Y-108161905D01*
X76190477Y-108066667D01*
X76142858Y-107971429D01*
X76095239Y-107923810D01*
X76000001Y-107876190D01*
X75809524Y-107828571D01*
X75714286Y-107780952D01*
X75666667Y-107733333D01*
X75619048Y-107638095D01*
X75619048Y-107542857D01*
X75666667Y-107447619D01*
X75714286Y-107400000D01*
X75809524Y-107352381D01*
X76047620Y-107352381D01*
X76190477Y-107400000D01*
X77142858Y-108352381D02*
X76571429Y-108352381D01*
X76857143Y-108352381D02*
X76857143Y-107352381D01*
X76761905Y-107495238D01*
X76666667Y-107590476D01*
X76571429Y-107638095D01*
X86833334Y-124452381D02*
X86357143Y-124452381D01*
X86357143Y-123452381D01*
X87690477Y-124452381D02*
X87119048Y-124452381D01*
X87404762Y-124452381D02*
X87404762Y-123452381D01*
X87309524Y-123595238D01*
X87214286Y-123690476D01*
X87119048Y-123738095D01*
%LPC*%
D14*
X85498860Y-113399920D03*
D15*
X87000000Y-113100200D03*
D14*
X88501140Y-113399920D03*
X88501140Y-109600080D03*
X85498860Y-109600080D03*
D16*
X87000000Y-110499240D03*
D17*
X86499620Y-111599060D03*
X87500380Y-111599060D03*
X87398780Y-110798960D03*
X86601220Y-110798960D03*
X87000000Y-111299340D03*
X87000000Y-111799720D03*
D18*
X75001120Y-119369760D03*
D19*
X75001120Y-118309760D03*
D20*
X75001120Y-121099760D03*
D19*
X75001120Y-121679760D03*
D21*
X96750000Y-113449960D03*
X96750000Y-111550040D03*
D22*
X105498900Y-121269760D03*
X105498900Y-118729760D03*
X105498900Y-123809760D03*
X105498900Y-126349760D03*
X105498900Y-116189760D03*
X105498900Y-113649760D03*
D23*
X108000800Y-98999040D03*
X65999360Y-141000480D03*
X108000800Y-141000480D03*
X65999360Y-98999040D03*
D24*
X82850000Y-113100000D03*
X82850000Y-109700000D03*
D25*
X86050040Y-106500000D03*
X87949960Y-106500000D03*
D26*
X91633000Y-109177000D03*
D27*
X93533000Y-109177000D03*
D26*
X92583000Y-106977000D03*
D25*
X107050840Y-107749340D03*
X108950760Y-107749340D03*
X107050840Y-105001060D03*
X108950760Y-105001060D03*
X65049400Y-107749340D03*
X66949320Y-107749340D03*
X65049400Y-105001060D03*
X66949320Y-105001060D03*
D18*
X75001120Y-136369980D03*
D19*
X75001120Y-135309980D03*
D20*
X75001120Y-138099980D03*
D19*
X75001120Y-138679980D03*
D18*
X98999040Y-103629540D03*
D19*
X98999040Y-104689540D03*
D20*
X98999040Y-101899540D03*
D19*
X98999040Y-101319540D03*
D18*
X98999040Y-137629980D03*
D19*
X98999040Y-138689980D03*
D20*
X98999040Y-135899980D03*
D19*
X98999040Y-135319980D03*
D18*
X98999040Y-120629760D03*
D19*
X98999040Y-121689760D03*
D20*
X98999040Y-118899760D03*
D19*
X98999040Y-118319760D03*
D18*
X75001120Y-102369540D03*
D19*
X75001120Y-101309540D03*
D20*
X75001120Y-104099540D03*
D19*
X75001120Y-104679540D03*
D21*
X93853000Y-113471960D03*
X93853000Y-111572040D03*
X91313000Y-113471960D03*
X91313000Y-111572040D03*
D28*
X73500000Y-112819860D03*
X73500000Y-109980140D03*
X76500000Y-112819860D03*
X76500000Y-109980140D03*
D22*
X68501260Y-118729760D03*
X68501260Y-121269760D03*
X68501260Y-116189760D03*
X68501260Y-113649760D03*
X68501260Y-123809760D03*
X68501260Y-126349760D03*
D29*
X88948260Y-119999760D03*
X85051900Y-119999760D03*
M02*
