G04 (created by PCBNEW-RS274X (2012-jan-04)-stable) date Thu 25 Oct 2012 07:38:53 PM CEST*
G01*
G70*
G90*
%MOIN*%
G04 Gerber Fmt 3.4, Leading zero omitted, Abs format*
%FSLAX34Y34*%
G04 APERTURE LIST*
%ADD10C,0.006000*%
%ADD11C,0.075000*%
%ADD12R,0.027600X0.063000*%
%ADD13R,0.039400X0.086600*%
%ADD14R,0.070900X0.133900*%
%ADD15R,0.098400X0.177200*%
%ADD16C,0.160000*%
%ADD17R,0.059000X0.051100*%
%ADD18R,0.063000X0.061000*%
%ADD19R,0.025600X0.033900*%
%ADD20R,0.066900X0.033900*%
%ADD21R,0.108300X0.108300*%
%ADD22R,0.051100X0.059000*%
%ADD23R,0.062900X0.070800*%
%ADD24C,0.025000*%
%ADD25C,0.035000*%
%ADD26C,0.028000*%
%ADD27C,0.008000*%
G04 APERTURE END LIST*
G54D10*
G54D11*
X41535Y-47744D03*
X41535Y-46744D03*
X41535Y-48744D03*
X41535Y-49744D03*
X41535Y-45744D03*
X41535Y-44744D03*
X26969Y-46744D03*
X26969Y-47744D03*
X26969Y-45744D03*
X26969Y-44744D03*
X26969Y-48744D03*
X26969Y-49744D03*
G54D12*
X35157Y-44804D03*
G54D13*
X35748Y-44686D03*
G54D12*
X36339Y-44804D03*
X36339Y-43308D03*
X35157Y-43308D03*
G54D14*
X35748Y-43662D03*
G54D15*
X33485Y-47244D03*
X35019Y-47244D03*
G54D16*
X25984Y-55512D03*
X42520Y-55512D03*
X42520Y-38976D03*
X25984Y-38976D03*
G54D17*
X30512Y-44272D03*
X30512Y-43524D03*
G54D18*
X28657Y-47244D03*
X30390Y-47244D03*
G54D19*
X29953Y-47244D03*
G54D20*
X29292Y-47244D03*
G54D18*
X38105Y-47244D03*
X39838Y-47244D03*
G54D19*
X39401Y-47244D03*
G54D20*
X38740Y-47244D03*
G54D18*
X30399Y-53937D03*
X28666Y-53937D03*
G54D19*
X29103Y-53937D03*
G54D20*
X29764Y-53937D03*
G54D18*
X39847Y-53937D03*
X38114Y-53937D03*
G54D19*
X38551Y-53937D03*
G54D20*
X39212Y-53937D03*
G54D18*
X39847Y-40551D03*
X38114Y-40551D03*
G54D19*
X38551Y-40551D03*
G54D20*
X39212Y-40551D03*
G54D18*
X30399Y-40551D03*
X28666Y-40551D03*
G54D19*
X29103Y-40551D03*
G54D20*
X29764Y-40551D03*
G54D21*
X32874Y-44882D03*
X32874Y-42914D03*
G54D22*
X25610Y-41339D03*
X26358Y-41339D03*
X25610Y-42421D03*
X26358Y-42421D03*
X42146Y-41339D03*
X42894Y-41339D03*
X42146Y-42421D03*
X42894Y-42421D03*
G54D23*
X35197Y-42087D03*
X36299Y-42087D03*
G54D24*
X30512Y-43504D03*
X37008Y-43307D03*
X29331Y-41339D03*
X29724Y-39764D03*
X30906Y-39764D03*
X28150Y-41339D03*
X28150Y-39764D03*
X30512Y-39764D03*
X30906Y-41339D03*
X30512Y-41339D03*
X29724Y-41339D03*
X30118Y-39764D03*
X30118Y-41339D03*
X28543Y-39764D03*
X29331Y-39764D03*
X28937Y-39764D03*
X39567Y-39764D03*
X37992Y-39764D03*
X38780Y-39764D03*
X38386Y-39764D03*
X37598Y-39764D03*
X39173Y-39764D03*
X39173Y-41339D03*
X39567Y-41339D03*
X37598Y-41339D03*
X38780Y-41339D03*
X37992Y-41339D03*
X39961Y-39764D03*
X40354Y-39764D03*
X38386Y-41339D03*
X40354Y-41339D03*
X38780Y-46457D03*
X38386Y-46457D03*
X37598Y-46457D03*
G54D25*
X32283Y-47244D03*
G54D24*
X37598Y-48031D03*
X39567Y-48031D03*
X38780Y-48031D03*
X39173Y-46457D03*
X38386Y-48031D03*
G54D25*
X36220Y-47244D03*
G54D24*
X39173Y-48031D03*
X40354Y-48031D03*
X40354Y-46457D03*
X37992Y-48031D03*
X37992Y-46457D03*
X39961Y-48031D03*
X28937Y-48031D03*
X30512Y-46457D03*
G54D25*
X28642Y-47244D03*
X28666Y-53937D03*
G54D24*
X30906Y-48031D03*
X28150Y-48031D03*
X30118Y-46457D03*
X29724Y-46457D03*
X30906Y-46457D03*
X29724Y-48031D03*
X28150Y-46457D03*
X28543Y-46457D03*
X30512Y-48031D03*
X28937Y-46457D03*
X29331Y-48031D03*
X29331Y-46457D03*
X30118Y-48031D03*
X29035Y-53150D03*
X29370Y-53150D03*
X28150Y-53150D03*
X28937Y-54724D03*
X29724Y-54724D03*
X30906Y-53150D03*
X30512Y-53150D03*
X30512Y-54724D03*
X30118Y-53150D03*
X29331Y-54724D03*
X28150Y-54724D03*
X29724Y-53150D03*
X30906Y-54724D03*
X30118Y-54724D03*
X28543Y-54724D03*
X39173Y-54724D03*
G54D25*
X39847Y-53937D03*
G54D24*
X38780Y-54724D03*
G54D25*
X35039Y-48327D03*
G54D24*
X39173Y-53150D03*
X37992Y-54724D03*
X38386Y-54724D03*
X40354Y-53150D03*
X39567Y-53150D03*
X37598Y-53150D03*
X38780Y-53150D03*
X38386Y-53150D03*
X39567Y-54724D03*
X37598Y-54724D03*
X37992Y-53150D03*
X40354Y-54724D03*
X39961Y-54724D03*
X40551Y-45276D03*
X39173Y-45276D03*
X35551Y-44174D03*
X35551Y-43780D03*
X35945Y-43780D03*
X35945Y-44174D03*
X26358Y-42421D03*
X42894Y-42421D03*
G54D26*
X28666Y-42446D02*
X28666Y-40551D01*
X28666Y-40551D02*
X29103Y-40551D01*
G54D27*
X36339Y-43308D02*
X37007Y-43308D01*
G54D26*
X30315Y-42520D02*
X30512Y-42717D01*
X28740Y-42520D02*
X29942Y-42520D01*
X28666Y-42446D02*
X28740Y-42520D01*
X29942Y-42520D02*
X30315Y-42520D01*
X30512Y-43524D02*
X30512Y-42717D01*
G54D27*
X37008Y-43307D02*
X37007Y-43308D01*
X30512Y-43504D02*
X30512Y-43524D01*
X30399Y-40551D02*
X30399Y-40832D01*
G54D26*
X38114Y-40551D02*
X38551Y-40551D01*
G54D27*
X30512Y-41339D02*
X30118Y-41339D01*
X30512Y-39764D02*
X30118Y-39764D01*
X30399Y-40832D02*
X30906Y-41339D01*
X29724Y-41339D02*
X29331Y-41339D01*
X30399Y-40271D02*
X30906Y-39764D01*
X30399Y-40551D02*
X30399Y-40271D01*
G54D26*
X30399Y-40551D02*
X38114Y-40551D01*
G54D27*
X28937Y-39764D02*
X28543Y-39764D01*
X29724Y-39764D02*
X29331Y-39764D01*
X39847Y-40271D02*
X40354Y-39764D01*
X38386Y-39764D02*
X37992Y-39764D01*
G54D26*
X39212Y-40551D02*
X39847Y-40551D01*
G54D27*
X39567Y-41339D02*
X39173Y-41339D01*
G54D26*
X39847Y-47235D02*
X39847Y-40551D01*
X39401Y-47244D02*
X39838Y-47244D01*
G54D27*
X39847Y-40832D02*
X40354Y-41339D01*
X39173Y-39764D02*
X38780Y-39764D01*
X38780Y-41339D02*
X38386Y-41339D01*
G54D26*
X39838Y-47244D02*
X39847Y-47235D01*
G54D27*
X37992Y-41339D02*
X37598Y-41339D01*
X39961Y-39764D02*
X39567Y-39764D01*
X39847Y-40551D02*
X39847Y-40271D01*
X39847Y-40551D02*
X39847Y-40832D01*
X37992Y-46457D02*
X38386Y-46457D01*
X38780Y-48031D02*
X39173Y-48031D01*
G54D26*
X30390Y-47244D02*
X32283Y-47244D01*
X29953Y-47244D02*
X30390Y-47244D01*
G54D27*
X38105Y-46964D02*
X37598Y-46457D01*
G54D26*
X36220Y-47244D02*
X38105Y-47244D01*
G54D27*
X39567Y-48031D02*
X39961Y-48031D01*
X38105Y-47244D02*
X38105Y-47524D01*
X38105Y-47524D02*
X37598Y-48031D01*
X38780Y-46457D02*
X39173Y-46457D01*
G54D26*
X38105Y-47244D02*
X38740Y-47244D01*
G54D27*
X37992Y-48031D02*
X38386Y-48031D01*
X38105Y-47244D02*
X38105Y-46964D01*
G54D26*
X29103Y-53937D02*
X28666Y-53937D01*
X28642Y-47244D02*
X28657Y-47244D01*
G54D27*
X28657Y-47244D02*
X28657Y-47524D01*
X28657Y-46964D02*
X28150Y-46457D01*
X29724Y-48031D02*
X30118Y-48031D01*
X29331Y-46457D02*
X29724Y-46457D01*
X28657Y-47524D02*
X28150Y-48031D01*
X28543Y-46457D02*
X28937Y-46457D01*
G54D26*
X28657Y-47244D02*
X29292Y-47244D01*
G54D27*
X28937Y-48031D02*
X29331Y-48031D01*
X30118Y-46457D02*
X30512Y-46457D01*
X30512Y-48031D02*
X30906Y-48031D01*
X28657Y-47244D02*
X28657Y-46964D01*
X30399Y-53937D02*
X30399Y-54217D01*
G54D26*
X29764Y-53937D02*
X30399Y-53937D01*
G54D27*
X30399Y-54217D02*
X30906Y-54724D01*
X29035Y-53150D02*
X28150Y-53150D01*
X30399Y-53657D02*
X30906Y-53150D01*
X30399Y-53937D02*
X30399Y-53657D01*
G54D26*
X38114Y-53937D02*
X38551Y-53937D01*
X30399Y-53937D02*
X38114Y-53937D01*
G54D27*
X30512Y-54724D02*
X30118Y-54724D01*
X30512Y-53150D02*
X30118Y-53150D01*
X29724Y-53150D02*
X29370Y-53150D01*
X28937Y-54724D02*
X28543Y-54724D01*
X29724Y-54724D02*
X29331Y-54724D01*
X39567Y-53150D02*
X39173Y-53150D01*
G54D26*
X35039Y-48327D02*
X35019Y-48307D01*
X35019Y-48307D02*
X35019Y-47244D01*
G54D27*
X38780Y-53150D02*
X38386Y-53150D01*
X39847Y-53937D02*
X39847Y-54217D01*
X39173Y-54724D02*
X38780Y-54724D01*
X39961Y-54724D02*
X39567Y-54724D01*
X39847Y-54217D02*
X40354Y-54724D01*
X39847Y-53657D02*
X40354Y-53150D01*
X39847Y-53937D02*
X39847Y-53657D01*
G54D26*
X39212Y-53937D02*
X39847Y-53937D01*
G54D27*
X37992Y-53150D02*
X37598Y-53150D01*
X38386Y-54724D02*
X37992Y-54724D01*
X40845Y-45570D02*
X40845Y-49409D01*
G54D26*
X41200Y-49409D02*
X41535Y-49744D01*
X26969Y-49744D02*
X27028Y-49744D01*
X27363Y-49409D02*
X40945Y-49409D01*
X40945Y-49409D02*
X41200Y-49409D01*
G54D27*
X40551Y-45276D02*
X40845Y-45570D01*
X40845Y-49409D02*
X40945Y-49409D01*
X38701Y-44804D02*
X39173Y-45276D01*
G54D26*
X27028Y-49744D02*
X27363Y-49409D01*
G54D27*
X36339Y-44804D02*
X38701Y-44804D01*
G54D26*
X32952Y-44804D02*
X32874Y-44882D01*
X35157Y-44804D02*
X32952Y-44804D01*
X33465Y-47224D02*
X33485Y-47244D01*
X32874Y-44882D02*
X32874Y-45866D01*
X32874Y-45866D02*
X33465Y-46457D01*
X33465Y-46457D02*
X33465Y-47224D01*
X35748Y-43662D02*
X35787Y-43662D01*
X35767Y-42875D02*
X35925Y-42717D01*
X35748Y-43662D02*
X35551Y-43780D01*
X35945Y-44174D02*
X35748Y-43977D01*
X35748Y-43977D02*
X35551Y-44174D01*
X35787Y-43662D02*
X35945Y-43780D01*
X35748Y-43662D02*
X35748Y-44686D01*
X35925Y-42717D02*
X36220Y-42717D01*
X26358Y-41339D02*
X26358Y-42421D01*
X42894Y-41339D02*
X42894Y-42421D01*
X36299Y-42638D02*
X36299Y-42087D01*
X35748Y-43662D02*
X35748Y-43977D01*
X35748Y-42875D02*
X35767Y-42875D01*
X35748Y-43662D02*
X35748Y-42875D01*
X36220Y-42717D02*
X36299Y-42638D01*
X26969Y-47744D02*
X26969Y-47244D01*
X41535Y-47244D02*
X42717Y-47244D01*
X41535Y-47244D02*
X41535Y-47744D01*
X26969Y-47244D02*
X25610Y-47244D01*
X35374Y-42658D02*
X35374Y-42087D01*
X31083Y-44272D02*
X31496Y-43859D01*
X32874Y-42914D02*
X33859Y-42914D01*
X35157Y-42875D02*
X35374Y-42658D01*
X26969Y-47244D02*
X26969Y-46744D01*
X25610Y-43898D02*
X25610Y-47244D01*
X29509Y-44272D02*
X30512Y-44272D01*
X33859Y-42914D02*
X34253Y-43308D01*
X32873Y-42913D02*
X32874Y-42914D01*
X32874Y-42914D02*
X31889Y-42914D01*
X25610Y-43898D02*
X25689Y-43898D01*
X41535Y-47244D02*
X41535Y-46744D01*
X35157Y-43308D02*
X35157Y-42875D01*
X30512Y-44272D02*
X31083Y-44272D01*
X31496Y-43307D02*
X31889Y-42914D01*
X31496Y-43859D02*
X31496Y-43307D01*
X26378Y-50984D02*
X26082Y-50984D01*
X25610Y-43898D02*
X29135Y-43898D01*
X25610Y-43898D02*
X25689Y-43898D01*
X25610Y-42421D02*
X25610Y-43898D01*
X29135Y-43898D02*
X29509Y-44272D01*
X25610Y-47244D02*
X25689Y-47244D01*
X42146Y-44114D02*
X42717Y-44685D01*
X42717Y-44685D02*
X42717Y-47244D01*
X42146Y-41339D02*
X42146Y-42421D01*
X26378Y-50984D02*
X42126Y-50984D01*
X42717Y-50393D02*
X42717Y-47638D01*
X25610Y-41339D02*
X25610Y-42421D01*
X25689Y-47244D02*
X25610Y-47244D01*
X42146Y-42421D02*
X42146Y-44114D01*
X25689Y-43898D02*
X25610Y-43898D01*
X25610Y-50512D02*
X26082Y-50984D01*
X34253Y-43308D02*
X35157Y-43308D01*
X42717Y-47638D02*
X42717Y-47244D01*
X42126Y-50984D02*
X42717Y-50393D01*
X25610Y-47244D02*
X25610Y-50512D01*
G54D10*
G36*
X43858Y-54763D02*
X43711Y-54541D01*
X43499Y-54328D01*
X43268Y-54172D01*
X43268Y-42728D01*
X43268Y-42705D01*
X43268Y-42114D01*
X43263Y-42091D01*
X43254Y-42070D01*
X43241Y-42050D01*
X43225Y-42034D01*
X43206Y-42021D01*
X43184Y-42012D01*
X43161Y-42007D01*
X43154Y-42007D01*
X43154Y-41753D01*
X43161Y-41753D01*
X43184Y-41748D01*
X43205Y-41739D01*
X43225Y-41726D01*
X43241Y-41710D01*
X43254Y-41691D01*
X43263Y-41669D01*
X43268Y-41646D01*
X43268Y-41623D01*
X43268Y-41032D01*
X43263Y-41009D01*
X43254Y-40988D01*
X43241Y-40968D01*
X43225Y-40952D01*
X43206Y-40939D01*
X43184Y-40930D01*
X43161Y-40925D01*
X43138Y-40925D01*
X42627Y-40925D01*
X42604Y-40930D01*
X42583Y-40939D01*
X42563Y-40952D01*
X42547Y-40968D01*
X42534Y-40987D01*
X42525Y-41009D01*
X42520Y-41032D01*
X42520Y-41055D01*
X42520Y-41646D01*
X42525Y-41669D01*
X42534Y-41690D01*
X42547Y-41710D01*
X42563Y-41726D01*
X42582Y-41739D01*
X42604Y-41748D01*
X42627Y-41753D01*
X42634Y-41753D01*
X42634Y-42007D01*
X42627Y-42007D01*
X42604Y-42012D01*
X42583Y-42021D01*
X42563Y-42034D01*
X42547Y-42050D01*
X42534Y-42069D01*
X42525Y-42091D01*
X42520Y-42114D01*
X42520Y-42137D01*
X42520Y-42728D01*
X42525Y-42751D01*
X42534Y-42772D01*
X42547Y-42792D01*
X42563Y-42808D01*
X42582Y-42821D01*
X42604Y-42830D01*
X42627Y-42835D01*
X42650Y-42835D01*
X43161Y-42835D01*
X43184Y-42830D01*
X43205Y-42821D01*
X43225Y-42808D01*
X43241Y-42792D01*
X43254Y-42773D01*
X43263Y-42751D01*
X43268Y-42728D01*
X43268Y-54172D01*
X43251Y-54161D01*
X42974Y-54044D01*
X42681Y-53984D01*
X42501Y-53982D01*
X42501Y-42726D01*
X42501Y-42707D01*
X42501Y-42506D01*
X42501Y-42336D01*
X42501Y-42135D01*
X42501Y-42116D01*
X42501Y-41644D01*
X42501Y-41625D01*
X42501Y-41424D01*
X42501Y-41254D01*
X42501Y-41053D01*
X42501Y-41034D01*
X42497Y-41014D01*
X42489Y-40996D01*
X42479Y-40980D01*
X42465Y-40966D01*
X42448Y-40955D01*
X42430Y-40948D01*
X42411Y-40944D01*
X42231Y-40944D01*
X42206Y-40969D01*
X42206Y-41279D01*
X42476Y-41279D01*
X42501Y-41254D01*
X42501Y-41424D01*
X42476Y-41399D01*
X42206Y-41399D01*
X42206Y-41709D01*
X42231Y-41734D01*
X42411Y-41734D01*
X42430Y-41730D01*
X42448Y-41723D01*
X42465Y-41712D01*
X42479Y-41698D01*
X42489Y-41682D01*
X42497Y-41664D01*
X42501Y-41644D01*
X42501Y-42116D01*
X42497Y-42096D01*
X42489Y-42078D01*
X42479Y-42062D01*
X42465Y-42048D01*
X42448Y-42037D01*
X42430Y-42030D01*
X42411Y-42026D01*
X42231Y-42026D01*
X42206Y-42051D01*
X42206Y-42361D01*
X42476Y-42361D01*
X42501Y-42336D01*
X42501Y-42506D01*
X42476Y-42481D01*
X42206Y-42481D01*
X42206Y-42791D01*
X42231Y-42816D01*
X42411Y-42816D01*
X42430Y-42812D01*
X42448Y-42805D01*
X42465Y-42794D01*
X42479Y-42780D01*
X42489Y-42764D01*
X42497Y-42746D01*
X42501Y-42726D01*
X42501Y-53982D01*
X42381Y-53982D01*
X42086Y-54038D01*
X42086Y-42791D01*
X42086Y-42481D01*
X42086Y-42361D01*
X42086Y-42051D01*
X42086Y-41709D01*
X42086Y-41399D01*
X42086Y-41279D01*
X42086Y-40969D01*
X42061Y-40944D01*
X41881Y-40944D01*
X41862Y-40948D01*
X41844Y-40955D01*
X41827Y-40966D01*
X41813Y-40980D01*
X41803Y-40996D01*
X41795Y-41014D01*
X41791Y-41034D01*
X41791Y-41053D01*
X41791Y-41254D01*
X41816Y-41279D01*
X42086Y-41279D01*
X42086Y-41399D01*
X41816Y-41399D01*
X41791Y-41424D01*
X41791Y-41625D01*
X41791Y-41644D01*
X41795Y-41664D01*
X41803Y-41682D01*
X41813Y-41698D01*
X41827Y-41712D01*
X41844Y-41723D01*
X41862Y-41730D01*
X41881Y-41734D01*
X42061Y-41734D01*
X42086Y-41709D01*
X42086Y-42051D01*
X42061Y-42026D01*
X41881Y-42026D01*
X41862Y-42030D01*
X41844Y-42037D01*
X41827Y-42048D01*
X41813Y-42062D01*
X41803Y-42078D01*
X41795Y-42096D01*
X41791Y-42116D01*
X41791Y-42135D01*
X41791Y-42336D01*
X41816Y-42361D01*
X42086Y-42361D01*
X42086Y-42481D01*
X41816Y-42481D01*
X41791Y-42506D01*
X41791Y-42707D01*
X41791Y-42726D01*
X41795Y-42746D01*
X41803Y-42764D01*
X41813Y-42780D01*
X41827Y-42794D01*
X41844Y-42805D01*
X41862Y-42812D01*
X41881Y-42816D01*
X42061Y-42816D01*
X42086Y-42791D01*
X42086Y-54038D01*
X42030Y-54060D01*
X42030Y-49696D01*
X42011Y-49601D01*
X41974Y-49511D01*
X41921Y-49430D01*
X41852Y-49361D01*
X41772Y-49307D01*
X41683Y-49269D01*
X41588Y-49249D01*
X41490Y-49249D01*
X41420Y-49262D01*
X41386Y-49227D01*
X41385Y-49226D01*
X41384Y-49225D01*
X41377Y-49219D01*
X41366Y-49210D01*
X41381Y-49217D01*
X41476Y-49238D01*
X41573Y-49240D01*
X41668Y-49223D01*
X41759Y-49188D01*
X41841Y-49136D01*
X41911Y-49069D01*
X41967Y-48990D01*
X42007Y-48901D01*
X42028Y-48807D01*
X42030Y-48696D01*
X42030Y-45696D01*
X42030Y-44696D01*
X42011Y-44601D01*
X41974Y-44511D01*
X41921Y-44430D01*
X41852Y-44361D01*
X41772Y-44307D01*
X41683Y-44269D01*
X41588Y-44249D01*
X41490Y-44249D01*
X41395Y-44267D01*
X41305Y-44303D01*
X41224Y-44356D01*
X41154Y-44424D01*
X41099Y-44504D01*
X41061Y-44593D01*
X41041Y-44688D01*
X41039Y-44785D01*
X41057Y-44881D01*
X41092Y-44971D01*
X41145Y-45052D01*
X41212Y-45122D01*
X41292Y-45178D01*
X41381Y-45217D01*
X41476Y-45238D01*
X41573Y-45240D01*
X41668Y-45223D01*
X41759Y-45188D01*
X41841Y-45136D01*
X41911Y-45069D01*
X41967Y-44990D01*
X42007Y-44901D01*
X42028Y-44807D01*
X42030Y-44696D01*
X42030Y-45696D01*
X42011Y-45601D01*
X41974Y-45511D01*
X41921Y-45430D01*
X41852Y-45361D01*
X41772Y-45307D01*
X41683Y-45269D01*
X41588Y-45249D01*
X41490Y-45249D01*
X41395Y-45267D01*
X41305Y-45303D01*
X41224Y-45356D01*
X41154Y-45424D01*
X41099Y-45504D01*
X41061Y-45593D01*
X41041Y-45688D01*
X41039Y-45785D01*
X41057Y-45881D01*
X41092Y-45971D01*
X41145Y-46052D01*
X41212Y-46122D01*
X41292Y-46178D01*
X41381Y-46217D01*
X41476Y-46238D01*
X41573Y-46240D01*
X41668Y-46223D01*
X41759Y-46188D01*
X41841Y-46136D01*
X41911Y-46069D01*
X41967Y-45990D01*
X42007Y-45901D01*
X42028Y-45807D01*
X42030Y-45696D01*
X42030Y-48696D01*
X42011Y-48601D01*
X42007Y-48591D01*
X42007Y-47796D01*
X42007Y-47703D01*
X42007Y-46796D01*
X42007Y-46703D01*
X41990Y-46612D01*
X41956Y-46526D01*
X41951Y-46516D01*
X41892Y-46472D01*
X41807Y-46557D01*
X41807Y-46387D01*
X41763Y-46328D01*
X41678Y-46291D01*
X41587Y-46272D01*
X41494Y-46272D01*
X41403Y-46289D01*
X41317Y-46323D01*
X41307Y-46328D01*
X41263Y-46387D01*
X41535Y-46659D01*
X41807Y-46387D01*
X41807Y-46557D01*
X41620Y-46744D01*
X41892Y-47016D01*
X41951Y-46972D01*
X41988Y-46887D01*
X42007Y-46796D01*
X42007Y-47703D01*
X41990Y-47612D01*
X41956Y-47526D01*
X41951Y-47516D01*
X41892Y-47472D01*
X41807Y-47557D01*
X41807Y-47387D01*
X41807Y-47101D01*
X41535Y-46829D01*
X41450Y-46914D01*
X41450Y-46744D01*
X41178Y-46472D01*
X41119Y-46516D01*
X41082Y-46601D01*
X41063Y-46692D01*
X41063Y-46785D01*
X41080Y-46876D01*
X41114Y-46962D01*
X41119Y-46972D01*
X41178Y-47016D01*
X41450Y-46744D01*
X41450Y-46914D01*
X41263Y-47101D01*
X41307Y-47160D01*
X41392Y-47197D01*
X41483Y-47216D01*
X41576Y-47216D01*
X41667Y-47199D01*
X41753Y-47165D01*
X41763Y-47160D01*
X41807Y-47101D01*
X41807Y-47387D01*
X41763Y-47328D01*
X41678Y-47291D01*
X41587Y-47272D01*
X41494Y-47272D01*
X41403Y-47289D01*
X41317Y-47323D01*
X41307Y-47328D01*
X41263Y-47387D01*
X41535Y-47659D01*
X41807Y-47387D01*
X41807Y-47557D01*
X41620Y-47744D01*
X41892Y-48016D01*
X41951Y-47972D01*
X41988Y-47887D01*
X42007Y-47796D01*
X42007Y-48591D01*
X41974Y-48511D01*
X41921Y-48430D01*
X41852Y-48361D01*
X41807Y-48330D01*
X41807Y-48101D01*
X41535Y-47829D01*
X41450Y-47914D01*
X41450Y-47744D01*
X41178Y-47472D01*
X41119Y-47516D01*
X41082Y-47601D01*
X41063Y-47692D01*
X41063Y-47785D01*
X41080Y-47876D01*
X41114Y-47962D01*
X41119Y-47972D01*
X41178Y-48016D01*
X41450Y-47744D01*
X41450Y-47914D01*
X41263Y-48101D01*
X41307Y-48160D01*
X41392Y-48197D01*
X41483Y-48216D01*
X41576Y-48216D01*
X41667Y-48199D01*
X41753Y-48165D01*
X41763Y-48160D01*
X41807Y-48101D01*
X41807Y-48330D01*
X41772Y-48307D01*
X41683Y-48269D01*
X41588Y-48249D01*
X41490Y-48249D01*
X41395Y-48267D01*
X41305Y-48303D01*
X41224Y-48356D01*
X41154Y-48424D01*
X41099Y-48504D01*
X41061Y-48593D01*
X41041Y-48688D01*
X41039Y-48785D01*
X41057Y-48881D01*
X41092Y-48971D01*
X41145Y-49052D01*
X41212Y-49122D01*
X41262Y-49157D01*
X41252Y-49154D01*
X41217Y-49150D01*
X41204Y-49149D01*
X41201Y-49149D01*
X41200Y-49149D01*
X41005Y-49149D01*
X41005Y-45570D01*
X41002Y-45539D01*
X40993Y-45510D01*
X40993Y-45509D01*
X40985Y-45495D01*
X40979Y-45482D01*
X40978Y-45481D01*
X40974Y-45477D01*
X40959Y-45458D01*
X40959Y-45457D01*
X40958Y-45456D01*
X40886Y-45384D01*
X40795Y-45293D01*
X40796Y-45252D01*
X40787Y-45205D01*
X40768Y-45160D01*
X40742Y-45120D01*
X40708Y-45086D01*
X40668Y-45059D01*
X40624Y-45041D01*
X40577Y-45031D01*
X40529Y-45031D01*
X40482Y-45040D01*
X40437Y-45058D01*
X40397Y-45084D01*
X40362Y-45118D01*
X40335Y-45157D01*
X40316Y-45202D01*
X40306Y-45249D01*
X40306Y-45297D01*
X40314Y-45344D01*
X40332Y-45389D01*
X40358Y-45429D01*
X40391Y-45463D01*
X40431Y-45491D01*
X40475Y-45510D01*
X40522Y-45520D01*
X40569Y-45520D01*
X40570Y-45521D01*
X40685Y-45636D01*
X40685Y-45728D01*
X40107Y-45728D01*
X40107Y-42068D01*
X40886Y-42068D01*
X40886Y-39035D01*
X37066Y-39035D01*
X37066Y-40291D01*
X31438Y-40291D01*
X31438Y-39035D01*
X27617Y-39035D01*
X27617Y-42068D01*
X28406Y-42068D01*
X28406Y-42443D01*
X28406Y-42446D01*
X28407Y-42458D01*
X28410Y-42494D01*
X28411Y-42497D01*
X28425Y-42543D01*
X28425Y-42544D01*
X28426Y-42545D01*
X28449Y-42590D01*
X28464Y-42608D01*
X28479Y-42627D01*
X28482Y-42630D01*
X28550Y-42697D01*
X28554Y-42702D01*
X28556Y-42703D01*
X28593Y-42735D01*
X28595Y-42736D01*
X28638Y-42759D01*
X28640Y-42759D01*
X28670Y-42769D01*
X28686Y-42774D01*
X28688Y-42775D01*
X28706Y-42776D01*
X28736Y-42780D01*
X28740Y-42780D01*
X29938Y-42780D01*
X29942Y-42780D01*
X30207Y-42780D01*
X30252Y-42824D01*
X30252Y-43150D01*
X30205Y-43150D01*
X30182Y-43155D01*
X30161Y-43164D01*
X30141Y-43177D01*
X30125Y-43193D01*
X30112Y-43212D01*
X30103Y-43234D01*
X30098Y-43257D01*
X30098Y-43280D01*
X30098Y-43791D01*
X30103Y-43814D01*
X30112Y-43835D01*
X30125Y-43855D01*
X30141Y-43871D01*
X30160Y-43884D01*
X30182Y-43893D01*
X30205Y-43898D01*
X30228Y-43898D01*
X30819Y-43898D01*
X30842Y-43893D01*
X30863Y-43884D01*
X30883Y-43871D01*
X30899Y-43855D01*
X30912Y-43836D01*
X30921Y-43814D01*
X30926Y-43791D01*
X30926Y-43768D01*
X30926Y-43257D01*
X30921Y-43234D01*
X30912Y-43213D01*
X30899Y-43193D01*
X30883Y-43177D01*
X30864Y-43164D01*
X30842Y-43155D01*
X30819Y-43150D01*
X30796Y-43150D01*
X30772Y-43150D01*
X30772Y-42719D01*
X30772Y-42717D01*
X30771Y-42709D01*
X30768Y-42668D01*
X30767Y-42666D01*
X30753Y-42620D01*
X30752Y-42618D01*
X30729Y-42573D01*
X30702Y-42542D01*
X30698Y-42536D01*
X30696Y-42534D01*
X30695Y-42533D01*
X30501Y-42338D01*
X30500Y-42337D01*
X30499Y-42336D01*
X30492Y-42330D01*
X30462Y-42305D01*
X30417Y-42281D01*
X30416Y-42280D01*
X30415Y-42280D01*
X30367Y-42265D01*
X30332Y-42261D01*
X30319Y-42260D01*
X30316Y-42260D01*
X30315Y-42260D01*
X29946Y-42260D01*
X29942Y-42260D01*
X28926Y-42260D01*
X28926Y-42068D01*
X31438Y-42068D01*
X31438Y-40811D01*
X37066Y-40811D01*
X37066Y-42068D01*
X39587Y-42068D01*
X39587Y-45728D01*
X39418Y-45728D01*
X39418Y-45252D01*
X39409Y-45205D01*
X39390Y-45160D01*
X39364Y-45120D01*
X39330Y-45086D01*
X39290Y-45059D01*
X39246Y-45041D01*
X39199Y-45031D01*
X39154Y-45031D01*
X38815Y-44692D01*
X38814Y-44691D01*
X38791Y-44672D01*
X38790Y-44671D01*
X38764Y-44657D01*
X38763Y-44656D01*
X38747Y-44651D01*
X38734Y-44647D01*
X38726Y-44646D01*
X38702Y-44643D01*
X38694Y-44644D01*
X36596Y-44644D01*
X36596Y-44477D01*
X36591Y-44454D01*
X36582Y-44433D01*
X36569Y-44413D01*
X36553Y-44397D01*
X36534Y-44384D01*
X36512Y-44375D01*
X36489Y-44370D01*
X36466Y-44370D01*
X36214Y-44370D01*
X36216Y-44366D01*
X36221Y-44343D01*
X36221Y-44320D01*
X36221Y-43742D01*
X36489Y-43742D01*
X36512Y-43737D01*
X36533Y-43728D01*
X36553Y-43715D01*
X36569Y-43699D01*
X36582Y-43680D01*
X36591Y-43658D01*
X36596Y-43635D01*
X36596Y-43612D01*
X36596Y-43468D01*
X36822Y-43468D01*
X36848Y-43494D01*
X36888Y-43522D01*
X36932Y-43541D01*
X36979Y-43551D01*
X37027Y-43552D01*
X37074Y-43544D01*
X37119Y-43527D01*
X37160Y-43501D01*
X37194Y-43468D01*
X37222Y-43429D01*
X37242Y-43385D01*
X37252Y-43338D01*
X37253Y-43283D01*
X37244Y-43236D01*
X37225Y-43191D01*
X37199Y-43151D01*
X37165Y-43117D01*
X37125Y-43090D01*
X37081Y-43072D01*
X37034Y-43062D01*
X36986Y-43062D01*
X36939Y-43071D01*
X36894Y-43089D01*
X36854Y-43115D01*
X36820Y-43148D01*
X36596Y-43148D01*
X36596Y-42981D01*
X36591Y-42958D01*
X36582Y-42937D01*
X36569Y-42917D01*
X36553Y-42901D01*
X36534Y-42888D01*
X36512Y-42879D01*
X36489Y-42874D01*
X36466Y-42874D01*
X36430Y-42874D01*
X36476Y-42827D01*
X36481Y-42824D01*
X36482Y-42822D01*
X36514Y-42785D01*
X36515Y-42783D01*
X36538Y-42740D01*
X36538Y-42738D01*
X36548Y-42708D01*
X36553Y-42692D01*
X36554Y-42690D01*
X36555Y-42671D01*
X36559Y-42642D01*
X36559Y-42638D01*
X36559Y-42560D01*
X36625Y-42560D01*
X36648Y-42555D01*
X36669Y-42546D01*
X36689Y-42533D01*
X36705Y-42517D01*
X36718Y-42498D01*
X36727Y-42476D01*
X36732Y-42453D01*
X36732Y-42430D01*
X36732Y-41721D01*
X36727Y-41698D01*
X36718Y-41677D01*
X36705Y-41657D01*
X36689Y-41641D01*
X36670Y-41628D01*
X36648Y-41619D01*
X36625Y-41614D01*
X36602Y-41614D01*
X35973Y-41614D01*
X35950Y-41619D01*
X35929Y-41628D01*
X35909Y-41641D01*
X35893Y-41657D01*
X35880Y-41676D01*
X35871Y-41698D01*
X35866Y-41721D01*
X35866Y-41744D01*
X35866Y-42453D01*
X35868Y-42463D01*
X35828Y-42476D01*
X35826Y-42476D01*
X35826Y-42477D01*
X35781Y-42500D01*
X35750Y-42526D01*
X35744Y-42531D01*
X35741Y-42533D01*
X35628Y-42645D01*
X35611Y-42654D01*
X35611Y-42451D01*
X35611Y-42432D01*
X35611Y-42172D01*
X35611Y-42002D01*
X35611Y-41742D01*
X35611Y-41723D01*
X35607Y-41703D01*
X35599Y-41685D01*
X35589Y-41669D01*
X35575Y-41655D01*
X35558Y-41644D01*
X35540Y-41637D01*
X35521Y-41633D01*
X35282Y-41633D01*
X35257Y-41658D01*
X35257Y-42027D01*
X35586Y-42027D01*
X35611Y-42002D01*
X35611Y-42172D01*
X35586Y-42147D01*
X35257Y-42147D01*
X35257Y-42516D01*
X35282Y-42541D01*
X35521Y-42541D01*
X35540Y-42537D01*
X35558Y-42530D01*
X35575Y-42519D01*
X35589Y-42505D01*
X35599Y-42489D01*
X35607Y-42471D01*
X35611Y-42451D01*
X35611Y-42654D01*
X35604Y-42658D01*
X35591Y-42669D01*
X35566Y-42689D01*
X35533Y-42728D01*
X35529Y-42735D01*
X35508Y-42774D01*
X35493Y-42823D01*
X35489Y-42861D01*
X35488Y-42871D01*
X35488Y-42873D01*
X35488Y-42874D01*
X35382Y-42874D01*
X35359Y-42879D01*
X35338Y-42888D01*
X35324Y-42897D01*
X35305Y-42893D01*
X35242Y-42893D01*
X35217Y-42918D01*
X35217Y-43208D01*
X35217Y-43248D01*
X35217Y-43368D01*
X35217Y-43408D01*
X35217Y-43698D01*
X35242Y-43723D01*
X35275Y-43723D01*
X35275Y-44343D01*
X35280Y-44366D01*
X35281Y-44370D01*
X35137Y-44370D01*
X35137Y-42516D01*
X35137Y-42147D01*
X35137Y-42027D01*
X35137Y-41658D01*
X35112Y-41633D01*
X34873Y-41633D01*
X34854Y-41637D01*
X34836Y-41644D01*
X34819Y-41655D01*
X34805Y-41669D01*
X34795Y-41685D01*
X34787Y-41703D01*
X34783Y-41723D01*
X34783Y-41742D01*
X34783Y-42002D01*
X34808Y-42027D01*
X35137Y-42027D01*
X35137Y-42147D01*
X34808Y-42147D01*
X34783Y-42172D01*
X34783Y-42432D01*
X34783Y-42451D01*
X34787Y-42471D01*
X34795Y-42489D01*
X34805Y-42505D01*
X34819Y-42519D01*
X34836Y-42530D01*
X34854Y-42537D01*
X34873Y-42541D01*
X35112Y-42541D01*
X35137Y-42516D01*
X35137Y-44370D01*
X35097Y-44370D01*
X35097Y-43698D01*
X35097Y-43368D01*
X35097Y-43248D01*
X35097Y-42918D01*
X35072Y-42893D01*
X35009Y-42893D01*
X34990Y-42897D01*
X34972Y-42904D01*
X34955Y-42915D01*
X34941Y-42929D01*
X34931Y-42945D01*
X34923Y-42963D01*
X34919Y-42983D01*
X34919Y-43002D01*
X34919Y-43223D01*
X34944Y-43248D01*
X35097Y-43248D01*
X35097Y-43368D01*
X34944Y-43368D01*
X34919Y-43393D01*
X34919Y-43614D01*
X34919Y-43633D01*
X34923Y-43653D01*
X34931Y-43671D01*
X34941Y-43687D01*
X34955Y-43701D01*
X34972Y-43712D01*
X34990Y-43719D01*
X35009Y-43723D01*
X35072Y-43723D01*
X35097Y-43698D01*
X35097Y-44370D01*
X35007Y-44370D01*
X34984Y-44375D01*
X34963Y-44384D01*
X34943Y-44397D01*
X34927Y-44413D01*
X34914Y-44432D01*
X34905Y-44454D01*
X34900Y-44477D01*
X34900Y-44500D01*
X34900Y-44544D01*
X33534Y-44544D01*
X33534Y-44329D01*
X33529Y-44306D01*
X33520Y-44285D01*
X33515Y-44277D01*
X33515Y-43465D01*
X33515Y-42999D01*
X33515Y-42829D01*
X33515Y-42363D01*
X33511Y-42344D01*
X33504Y-42326D01*
X33493Y-42309D01*
X33479Y-42295D01*
X33463Y-42285D01*
X33445Y-42277D01*
X33425Y-42273D01*
X33406Y-42273D01*
X32959Y-42273D01*
X32934Y-42298D01*
X32934Y-42854D01*
X33490Y-42854D01*
X33515Y-42829D01*
X33515Y-42999D01*
X33490Y-42974D01*
X32934Y-42974D01*
X32934Y-43530D01*
X32959Y-43555D01*
X33406Y-43555D01*
X33425Y-43555D01*
X33445Y-43551D01*
X33463Y-43543D01*
X33479Y-43533D01*
X33493Y-43519D01*
X33504Y-43502D01*
X33511Y-43484D01*
X33515Y-43465D01*
X33515Y-44277D01*
X33507Y-44265D01*
X33491Y-44249D01*
X33472Y-44236D01*
X33450Y-44227D01*
X33427Y-44222D01*
X33404Y-44222D01*
X32814Y-44222D01*
X32814Y-43530D01*
X32814Y-42974D01*
X32814Y-42854D01*
X32814Y-42298D01*
X32789Y-42273D01*
X32342Y-42273D01*
X32323Y-42273D01*
X32303Y-42277D01*
X32285Y-42285D01*
X32269Y-42295D01*
X32255Y-42309D01*
X32244Y-42326D01*
X32237Y-42344D01*
X32233Y-42363D01*
X32233Y-42829D01*
X32258Y-42854D01*
X32814Y-42854D01*
X32814Y-42974D01*
X32258Y-42974D01*
X32233Y-42999D01*
X32233Y-43465D01*
X32237Y-43484D01*
X32244Y-43502D01*
X32255Y-43519D01*
X32269Y-43533D01*
X32285Y-43543D01*
X32303Y-43551D01*
X32323Y-43555D01*
X32342Y-43555D01*
X32789Y-43555D01*
X32814Y-43530D01*
X32814Y-44222D01*
X32321Y-44222D01*
X32298Y-44227D01*
X32277Y-44236D01*
X32257Y-44249D01*
X32241Y-44265D01*
X32228Y-44284D01*
X32219Y-44306D01*
X32214Y-44329D01*
X32214Y-44352D01*
X32214Y-45435D01*
X32219Y-45458D01*
X32228Y-45479D01*
X32241Y-45499D01*
X32257Y-45515D01*
X32276Y-45528D01*
X32298Y-45537D01*
X32321Y-45542D01*
X32344Y-45542D01*
X32614Y-45542D01*
X32614Y-45863D01*
X32614Y-45866D01*
X32615Y-45878D01*
X32618Y-45914D01*
X32619Y-45917D01*
X32633Y-45963D01*
X32633Y-45964D01*
X32634Y-45965D01*
X32657Y-46010D01*
X32672Y-46028D01*
X32687Y-46047D01*
X32690Y-46050D01*
X32911Y-46271D01*
X32901Y-46282D01*
X32888Y-46301D01*
X32879Y-46323D01*
X32874Y-46346D01*
X32874Y-46369D01*
X32874Y-48142D01*
X32879Y-48165D01*
X32888Y-48186D01*
X32901Y-48206D01*
X32917Y-48222D01*
X32936Y-48235D01*
X32958Y-48244D01*
X32981Y-48249D01*
X33004Y-48249D01*
X33989Y-48249D01*
X34012Y-48244D01*
X34033Y-48235D01*
X34053Y-48222D01*
X34069Y-48206D01*
X34082Y-48187D01*
X34091Y-48165D01*
X34096Y-48142D01*
X34096Y-48119D01*
X34096Y-46346D01*
X34091Y-46323D01*
X34082Y-46302D01*
X34069Y-46282D01*
X34053Y-46266D01*
X34034Y-46253D01*
X34012Y-46244D01*
X33989Y-46239D01*
X33966Y-46239D01*
X33614Y-46239D01*
X33134Y-45758D01*
X33134Y-45542D01*
X33427Y-45542D01*
X33450Y-45537D01*
X33471Y-45528D01*
X33491Y-45515D01*
X33507Y-45499D01*
X33520Y-45480D01*
X33529Y-45458D01*
X33534Y-45435D01*
X33534Y-45412D01*
X33534Y-45064D01*
X34900Y-45064D01*
X34900Y-45131D01*
X34905Y-45154D01*
X34914Y-45175D01*
X34927Y-45195D01*
X34943Y-45211D01*
X34962Y-45224D01*
X34984Y-45233D01*
X35007Y-45238D01*
X35030Y-45238D01*
X35307Y-45238D01*
X35330Y-45233D01*
X35351Y-45224D01*
X35371Y-45211D01*
X35387Y-45195D01*
X35400Y-45176D01*
X35409Y-45154D01*
X35414Y-45131D01*
X35414Y-45108D01*
X35414Y-44836D01*
X35417Y-44806D01*
X35414Y-44775D01*
X35414Y-44477D01*
X35409Y-44454D01*
X35407Y-44450D01*
X35432Y-44450D01*
X35432Y-45131D01*
X35437Y-45154D01*
X35446Y-45175D01*
X35459Y-45195D01*
X35475Y-45211D01*
X35494Y-45224D01*
X35516Y-45233D01*
X35539Y-45238D01*
X35562Y-45238D01*
X35957Y-45238D01*
X35980Y-45233D01*
X36001Y-45224D01*
X36021Y-45211D01*
X36037Y-45195D01*
X36050Y-45176D01*
X36059Y-45154D01*
X36064Y-45131D01*
X36064Y-45108D01*
X36064Y-44450D01*
X36088Y-44450D01*
X36087Y-44454D01*
X36082Y-44477D01*
X36082Y-44500D01*
X36082Y-45131D01*
X36087Y-45154D01*
X36096Y-45175D01*
X36109Y-45195D01*
X36125Y-45211D01*
X36144Y-45224D01*
X36166Y-45233D01*
X36189Y-45238D01*
X36212Y-45238D01*
X36489Y-45238D01*
X36512Y-45233D01*
X36533Y-45224D01*
X36553Y-45211D01*
X36569Y-45195D01*
X36582Y-45176D01*
X36591Y-45154D01*
X36596Y-45131D01*
X36596Y-45108D01*
X36596Y-44964D01*
X38635Y-44964D01*
X38928Y-45257D01*
X38928Y-45297D01*
X38936Y-45344D01*
X38954Y-45389D01*
X38980Y-45429D01*
X39013Y-45463D01*
X39053Y-45491D01*
X39097Y-45510D01*
X39144Y-45520D01*
X39192Y-45521D01*
X39239Y-45513D01*
X39284Y-45496D01*
X39325Y-45470D01*
X39359Y-45437D01*
X39387Y-45398D01*
X39407Y-45354D01*
X39417Y-45307D01*
X39418Y-45252D01*
X39418Y-45728D01*
X37066Y-45728D01*
X37066Y-46984D01*
X36362Y-46984D01*
X36361Y-46983D01*
X36308Y-46961D01*
X36251Y-46949D01*
X36193Y-46949D01*
X36136Y-46960D01*
X36083Y-46981D01*
X36034Y-47013D01*
X35993Y-47054D01*
X35960Y-47101D01*
X35937Y-47154D01*
X35925Y-47211D01*
X35925Y-47269D01*
X35935Y-47326D01*
X35956Y-47380D01*
X35988Y-47428D01*
X36028Y-47470D01*
X36075Y-47503D01*
X36128Y-47526D01*
X36185Y-47538D01*
X36243Y-47540D01*
X36300Y-47529D01*
X36354Y-47509D01*
X36361Y-47504D01*
X37066Y-47504D01*
X37066Y-48760D01*
X40685Y-48760D01*
X40685Y-49149D01*
X35630Y-49149D01*
X35630Y-48142D01*
X35630Y-48119D01*
X35630Y-46346D01*
X35625Y-46323D01*
X35616Y-46302D01*
X35603Y-46282D01*
X35587Y-46266D01*
X35568Y-46253D01*
X35546Y-46244D01*
X35523Y-46239D01*
X35500Y-46239D01*
X34515Y-46239D01*
X34492Y-46244D01*
X34471Y-46253D01*
X34451Y-46266D01*
X34435Y-46282D01*
X34422Y-46301D01*
X34413Y-46323D01*
X34408Y-46346D01*
X34408Y-46369D01*
X34408Y-48142D01*
X34413Y-48165D01*
X34422Y-48186D01*
X34435Y-48206D01*
X34451Y-48222D01*
X34470Y-48235D01*
X34492Y-48244D01*
X34515Y-48249D01*
X34538Y-48249D01*
X34753Y-48249D01*
X34744Y-48294D01*
X34744Y-48352D01*
X34754Y-48409D01*
X34775Y-48463D01*
X34807Y-48511D01*
X34847Y-48553D01*
X34894Y-48586D01*
X34947Y-48609D01*
X35004Y-48621D01*
X35062Y-48623D01*
X35119Y-48612D01*
X35173Y-48592D01*
X35222Y-48561D01*
X35263Y-48521D01*
X35297Y-48473D01*
X35320Y-48420D01*
X35333Y-48364D01*
X35334Y-48298D01*
X35324Y-48249D01*
X35523Y-48249D01*
X35546Y-48244D01*
X35567Y-48235D01*
X35587Y-48222D01*
X35603Y-48206D01*
X35616Y-48187D01*
X35625Y-48165D01*
X35630Y-48142D01*
X35630Y-49149D01*
X32578Y-49149D01*
X32578Y-47215D01*
X32567Y-47158D01*
X32545Y-47105D01*
X32513Y-47057D01*
X32472Y-47016D01*
X32424Y-46983D01*
X32371Y-46961D01*
X32314Y-46949D01*
X32256Y-46949D01*
X32199Y-46960D01*
X32146Y-46981D01*
X32141Y-46984D01*
X31438Y-46984D01*
X31438Y-45728D01*
X30907Y-45728D01*
X30907Y-44537D01*
X30907Y-44357D01*
X30907Y-44187D01*
X30907Y-44007D01*
X30903Y-43988D01*
X30896Y-43970D01*
X30885Y-43953D01*
X30871Y-43939D01*
X30855Y-43929D01*
X30837Y-43921D01*
X30817Y-43917D01*
X30798Y-43917D01*
X30597Y-43917D01*
X30572Y-43942D01*
X30572Y-44212D01*
X30882Y-44212D01*
X30907Y-44187D01*
X30907Y-44357D01*
X30882Y-44332D01*
X30572Y-44332D01*
X30572Y-44602D01*
X30597Y-44627D01*
X30798Y-44627D01*
X30817Y-44627D01*
X30837Y-44623D01*
X30855Y-44615D01*
X30871Y-44605D01*
X30885Y-44591D01*
X30896Y-44574D01*
X30903Y-44556D01*
X30907Y-44537D01*
X30907Y-45728D01*
X30452Y-45728D01*
X30452Y-44602D01*
X30452Y-44332D01*
X30452Y-44212D01*
X30452Y-43942D01*
X30427Y-43917D01*
X30226Y-43917D01*
X30207Y-43917D01*
X30187Y-43921D01*
X30169Y-43929D01*
X30153Y-43939D01*
X30139Y-43953D01*
X30128Y-43970D01*
X30121Y-43988D01*
X30117Y-44007D01*
X30117Y-44187D01*
X30142Y-44212D01*
X30452Y-44212D01*
X30452Y-44332D01*
X30142Y-44332D01*
X30117Y-44357D01*
X30117Y-44537D01*
X30121Y-44556D01*
X30128Y-44574D01*
X30139Y-44591D01*
X30153Y-44605D01*
X30169Y-44615D01*
X30187Y-44623D01*
X30207Y-44627D01*
X30226Y-44627D01*
X30427Y-44627D01*
X30452Y-44602D01*
X30452Y-45728D01*
X27617Y-45728D01*
X27617Y-48760D01*
X31438Y-48760D01*
X31438Y-47504D01*
X32140Y-47504D01*
X32191Y-47526D01*
X32248Y-47538D01*
X32306Y-47540D01*
X32363Y-47529D01*
X32417Y-47509D01*
X32466Y-47478D01*
X32507Y-47438D01*
X32541Y-47390D01*
X32564Y-47337D01*
X32577Y-47281D01*
X32578Y-47215D01*
X32578Y-49149D01*
X31438Y-49149D01*
X27464Y-49149D01*
X27464Y-48696D01*
X27464Y-45696D01*
X27464Y-44696D01*
X27445Y-44601D01*
X27408Y-44511D01*
X27355Y-44430D01*
X27286Y-44361D01*
X27206Y-44307D01*
X27117Y-44269D01*
X27022Y-44249D01*
X26924Y-44249D01*
X26829Y-44267D01*
X26739Y-44303D01*
X26732Y-44307D01*
X26732Y-42728D01*
X26732Y-42705D01*
X26732Y-42114D01*
X26727Y-42091D01*
X26718Y-42070D01*
X26705Y-42050D01*
X26689Y-42034D01*
X26670Y-42021D01*
X26648Y-42012D01*
X26625Y-42007D01*
X26618Y-42007D01*
X26618Y-41753D01*
X26625Y-41753D01*
X26648Y-41748D01*
X26669Y-41739D01*
X26689Y-41726D01*
X26705Y-41710D01*
X26718Y-41691D01*
X26727Y-41669D01*
X26732Y-41646D01*
X26732Y-41623D01*
X26732Y-41032D01*
X26727Y-41009D01*
X26718Y-40988D01*
X26705Y-40968D01*
X26689Y-40952D01*
X26670Y-40939D01*
X26648Y-40930D01*
X26625Y-40925D01*
X26602Y-40925D01*
X26091Y-40925D01*
X26068Y-40930D01*
X26047Y-40939D01*
X26027Y-40952D01*
X26011Y-40968D01*
X25998Y-40987D01*
X25989Y-41009D01*
X25984Y-41032D01*
X25984Y-41055D01*
X25984Y-41646D01*
X25989Y-41669D01*
X25998Y-41690D01*
X26011Y-41710D01*
X26027Y-41726D01*
X26046Y-41739D01*
X26068Y-41748D01*
X26091Y-41753D01*
X26098Y-41753D01*
X26098Y-42007D01*
X26091Y-42007D01*
X26068Y-42012D01*
X26047Y-42021D01*
X26027Y-42034D01*
X26011Y-42050D01*
X25998Y-42069D01*
X25989Y-42091D01*
X25984Y-42114D01*
X25984Y-42137D01*
X25984Y-42728D01*
X25989Y-42751D01*
X25998Y-42772D01*
X26011Y-42792D01*
X26027Y-42808D01*
X26046Y-42821D01*
X26068Y-42830D01*
X26091Y-42835D01*
X26114Y-42835D01*
X26625Y-42835D01*
X26648Y-42830D01*
X26669Y-42821D01*
X26689Y-42808D01*
X26705Y-42792D01*
X26718Y-42773D01*
X26727Y-42751D01*
X26732Y-42728D01*
X26732Y-44307D01*
X26658Y-44356D01*
X26588Y-44424D01*
X26533Y-44504D01*
X26495Y-44593D01*
X26475Y-44688D01*
X26473Y-44785D01*
X26491Y-44881D01*
X26526Y-44971D01*
X26579Y-45052D01*
X26646Y-45122D01*
X26726Y-45178D01*
X26815Y-45217D01*
X26910Y-45238D01*
X27007Y-45240D01*
X27102Y-45223D01*
X27193Y-45188D01*
X27275Y-45136D01*
X27345Y-45069D01*
X27401Y-44990D01*
X27441Y-44901D01*
X27462Y-44807D01*
X27464Y-44696D01*
X27464Y-45696D01*
X27445Y-45601D01*
X27408Y-45511D01*
X27355Y-45430D01*
X27286Y-45361D01*
X27206Y-45307D01*
X27117Y-45269D01*
X27022Y-45249D01*
X26924Y-45249D01*
X26829Y-45267D01*
X26739Y-45303D01*
X26658Y-45356D01*
X26588Y-45424D01*
X26533Y-45504D01*
X26495Y-45593D01*
X26475Y-45688D01*
X26473Y-45785D01*
X26491Y-45881D01*
X26526Y-45971D01*
X26579Y-46052D01*
X26646Y-46122D01*
X26726Y-46178D01*
X26815Y-46217D01*
X26910Y-46238D01*
X27007Y-46240D01*
X27102Y-46223D01*
X27193Y-46188D01*
X27275Y-46136D01*
X27345Y-46069D01*
X27401Y-45990D01*
X27441Y-45901D01*
X27462Y-45807D01*
X27464Y-45696D01*
X27464Y-48696D01*
X27445Y-48601D01*
X27441Y-48591D01*
X27441Y-47796D01*
X27441Y-47703D01*
X27441Y-46796D01*
X27441Y-46703D01*
X27424Y-46612D01*
X27390Y-46526D01*
X27385Y-46516D01*
X27326Y-46472D01*
X27241Y-46557D01*
X27241Y-46387D01*
X27197Y-46328D01*
X27112Y-46291D01*
X27021Y-46272D01*
X26928Y-46272D01*
X26837Y-46289D01*
X26751Y-46323D01*
X26741Y-46328D01*
X26697Y-46387D01*
X26969Y-46659D01*
X27241Y-46387D01*
X27241Y-46557D01*
X27054Y-46744D01*
X27326Y-47016D01*
X27385Y-46972D01*
X27422Y-46887D01*
X27441Y-46796D01*
X27441Y-47703D01*
X27424Y-47612D01*
X27390Y-47526D01*
X27385Y-47516D01*
X27326Y-47472D01*
X27241Y-47557D01*
X27241Y-47387D01*
X27241Y-47101D01*
X26969Y-46829D01*
X26884Y-46914D01*
X26884Y-46744D01*
X26612Y-46472D01*
X26553Y-46516D01*
X26516Y-46601D01*
X26497Y-46692D01*
X26497Y-46785D01*
X26514Y-46876D01*
X26548Y-46962D01*
X26553Y-46972D01*
X26612Y-47016D01*
X26884Y-46744D01*
X26884Y-46914D01*
X26697Y-47101D01*
X26741Y-47160D01*
X26826Y-47197D01*
X26917Y-47216D01*
X27010Y-47216D01*
X27101Y-47199D01*
X27187Y-47165D01*
X27197Y-47160D01*
X27241Y-47101D01*
X27241Y-47387D01*
X27197Y-47328D01*
X27112Y-47291D01*
X27021Y-47272D01*
X26928Y-47272D01*
X26837Y-47289D01*
X26751Y-47323D01*
X26741Y-47328D01*
X26697Y-47387D01*
X26969Y-47659D01*
X27241Y-47387D01*
X27241Y-47557D01*
X27054Y-47744D01*
X27326Y-48016D01*
X27385Y-47972D01*
X27422Y-47887D01*
X27441Y-47796D01*
X27441Y-48591D01*
X27408Y-48511D01*
X27355Y-48430D01*
X27286Y-48361D01*
X27241Y-48330D01*
X27241Y-48101D01*
X26969Y-47829D01*
X26884Y-47914D01*
X26884Y-47744D01*
X26612Y-47472D01*
X26553Y-47516D01*
X26516Y-47601D01*
X26497Y-47692D01*
X26497Y-47785D01*
X26514Y-47876D01*
X26548Y-47962D01*
X26553Y-47972D01*
X26612Y-48016D01*
X26884Y-47744D01*
X26884Y-47914D01*
X26697Y-48101D01*
X26741Y-48160D01*
X26826Y-48197D01*
X26917Y-48216D01*
X27010Y-48216D01*
X27101Y-48199D01*
X27187Y-48165D01*
X27197Y-48160D01*
X27241Y-48101D01*
X27241Y-48330D01*
X27206Y-48307D01*
X27117Y-48269D01*
X27022Y-48249D01*
X26924Y-48249D01*
X26829Y-48267D01*
X26739Y-48303D01*
X26658Y-48356D01*
X26588Y-48424D01*
X26533Y-48504D01*
X26495Y-48593D01*
X26475Y-48688D01*
X26473Y-48785D01*
X26491Y-48881D01*
X26526Y-48971D01*
X26579Y-49052D01*
X26646Y-49122D01*
X26726Y-49178D01*
X26815Y-49217D01*
X26910Y-49238D01*
X27007Y-49240D01*
X27102Y-49223D01*
X27193Y-49188D01*
X27275Y-49136D01*
X27345Y-49069D01*
X27401Y-48990D01*
X27441Y-48901D01*
X27462Y-48807D01*
X27464Y-48696D01*
X27464Y-49149D01*
X27365Y-49149D01*
X27363Y-49149D01*
X27312Y-49154D01*
X27284Y-49162D01*
X27266Y-49168D01*
X27264Y-49168D01*
X27264Y-49169D01*
X27219Y-49192D01*
X27197Y-49210D01*
X27181Y-49223D01*
X27179Y-49226D01*
X27130Y-49274D01*
X27117Y-49269D01*
X27022Y-49249D01*
X26924Y-49249D01*
X26829Y-49267D01*
X26739Y-49303D01*
X26658Y-49356D01*
X26588Y-49424D01*
X26533Y-49504D01*
X26495Y-49593D01*
X26475Y-49688D01*
X26473Y-49785D01*
X26491Y-49881D01*
X26526Y-49971D01*
X26579Y-50052D01*
X26646Y-50122D01*
X26726Y-50178D01*
X26815Y-50217D01*
X26910Y-50238D01*
X27007Y-50240D01*
X27102Y-50223D01*
X27193Y-50188D01*
X27275Y-50136D01*
X27345Y-50069D01*
X27401Y-49990D01*
X27441Y-49901D01*
X27462Y-49807D01*
X27464Y-49696D01*
X27460Y-49678D01*
X27470Y-49669D01*
X31438Y-49669D01*
X40886Y-49669D01*
X40941Y-49669D01*
X40945Y-49669D01*
X41045Y-49669D01*
X41041Y-49688D01*
X41039Y-49785D01*
X41057Y-49881D01*
X41092Y-49971D01*
X41145Y-50052D01*
X41212Y-50122D01*
X41292Y-50178D01*
X41381Y-50217D01*
X41476Y-50238D01*
X41573Y-50240D01*
X41668Y-50223D01*
X41759Y-50188D01*
X41841Y-50136D01*
X41911Y-50069D01*
X41967Y-49990D01*
X42007Y-49901D01*
X42028Y-49807D01*
X42030Y-49696D01*
X42030Y-54060D01*
X41808Y-54151D01*
X41557Y-54315D01*
X41343Y-54525D01*
X41174Y-54772D01*
X41056Y-55048D01*
X40993Y-55341D01*
X40989Y-55641D01*
X41043Y-55936D01*
X41154Y-56214D01*
X41316Y-56466D01*
X41524Y-56682D01*
X41766Y-56850D01*
X40886Y-56850D01*
X40886Y-55453D01*
X40886Y-52421D01*
X37066Y-52421D01*
X37066Y-53677D01*
X31438Y-53677D01*
X31438Y-52421D01*
X27617Y-52421D01*
X27617Y-55453D01*
X31438Y-55453D01*
X31438Y-54197D01*
X37066Y-54197D01*
X37066Y-55453D01*
X40886Y-55453D01*
X40886Y-56850D01*
X31438Y-56850D01*
X26729Y-56850D01*
X26930Y-56723D01*
X27147Y-56516D01*
X27320Y-56271D01*
X27442Y-55997D01*
X27508Y-55704D01*
X27513Y-55362D01*
X27455Y-55068D01*
X27340Y-54791D01*
X27175Y-54541D01*
X26963Y-54328D01*
X26715Y-54161D01*
X26438Y-54044D01*
X26145Y-53984D01*
X25965Y-53982D01*
X25965Y-42726D01*
X25965Y-42707D01*
X25965Y-42506D01*
X25965Y-42336D01*
X25965Y-42135D01*
X25965Y-42116D01*
X25965Y-41644D01*
X25965Y-41625D01*
X25965Y-41424D01*
X25965Y-41254D01*
X25965Y-41053D01*
X25965Y-41034D01*
X25961Y-41014D01*
X25953Y-40996D01*
X25943Y-40980D01*
X25929Y-40966D01*
X25912Y-40955D01*
X25894Y-40948D01*
X25875Y-40944D01*
X25695Y-40944D01*
X25670Y-40969D01*
X25670Y-41279D01*
X25940Y-41279D01*
X25965Y-41254D01*
X25965Y-41424D01*
X25940Y-41399D01*
X25670Y-41399D01*
X25670Y-41709D01*
X25695Y-41734D01*
X25875Y-41734D01*
X25894Y-41730D01*
X25912Y-41723D01*
X25929Y-41712D01*
X25943Y-41698D01*
X25953Y-41682D01*
X25961Y-41664D01*
X25965Y-41644D01*
X25965Y-42116D01*
X25961Y-42096D01*
X25953Y-42078D01*
X25943Y-42062D01*
X25929Y-42048D01*
X25912Y-42037D01*
X25894Y-42030D01*
X25875Y-42026D01*
X25695Y-42026D01*
X25670Y-42051D01*
X25670Y-42361D01*
X25940Y-42361D01*
X25965Y-42336D01*
X25965Y-42506D01*
X25940Y-42481D01*
X25670Y-42481D01*
X25670Y-42791D01*
X25695Y-42816D01*
X25875Y-42816D01*
X25894Y-42812D01*
X25912Y-42805D01*
X25929Y-42794D01*
X25943Y-42780D01*
X25953Y-42764D01*
X25961Y-42746D01*
X25965Y-42726D01*
X25965Y-53982D01*
X25845Y-53982D01*
X25550Y-54038D01*
X25550Y-42791D01*
X25550Y-42481D01*
X25550Y-42361D01*
X25550Y-42051D01*
X25550Y-41709D01*
X25550Y-41399D01*
X25550Y-41279D01*
X25550Y-40969D01*
X25525Y-40944D01*
X25345Y-40944D01*
X25326Y-40948D01*
X25308Y-40955D01*
X25291Y-40966D01*
X25277Y-40980D01*
X25267Y-40996D01*
X25259Y-41014D01*
X25255Y-41034D01*
X25255Y-41053D01*
X25255Y-41254D01*
X25280Y-41279D01*
X25550Y-41279D01*
X25550Y-41399D01*
X25280Y-41399D01*
X25255Y-41424D01*
X25255Y-41625D01*
X25255Y-41644D01*
X25259Y-41664D01*
X25267Y-41682D01*
X25277Y-41698D01*
X25291Y-41712D01*
X25308Y-41723D01*
X25326Y-41730D01*
X25345Y-41734D01*
X25525Y-41734D01*
X25550Y-41709D01*
X25550Y-42051D01*
X25525Y-42026D01*
X25345Y-42026D01*
X25326Y-42030D01*
X25308Y-42037D01*
X25291Y-42048D01*
X25277Y-42062D01*
X25267Y-42078D01*
X25259Y-42096D01*
X25255Y-42116D01*
X25255Y-42135D01*
X25255Y-42336D01*
X25280Y-42361D01*
X25550Y-42361D01*
X25550Y-42481D01*
X25280Y-42481D01*
X25255Y-42506D01*
X25255Y-42707D01*
X25255Y-42726D01*
X25259Y-42746D01*
X25267Y-42764D01*
X25277Y-42780D01*
X25291Y-42794D01*
X25308Y-42805D01*
X25326Y-42812D01*
X25345Y-42816D01*
X25525Y-42816D01*
X25550Y-42791D01*
X25550Y-54038D01*
X25272Y-54151D01*
X25021Y-54315D01*
X24807Y-54525D01*
X24646Y-54760D01*
X24646Y-39721D01*
X24780Y-39930D01*
X24988Y-40146D01*
X25235Y-40317D01*
X25509Y-40437D01*
X25802Y-40502D01*
X26102Y-40508D01*
X26397Y-40456D01*
X26677Y-40347D01*
X26930Y-40187D01*
X27147Y-39980D01*
X27320Y-39735D01*
X27442Y-39461D01*
X27508Y-39168D01*
X27513Y-38826D01*
X27455Y-38532D01*
X27340Y-38255D01*
X27175Y-38005D01*
X26963Y-37792D01*
X26734Y-37638D01*
X41772Y-37638D01*
X41557Y-37779D01*
X41343Y-37989D01*
X41174Y-38236D01*
X41056Y-38512D01*
X40993Y-38805D01*
X40989Y-39105D01*
X41043Y-39400D01*
X41154Y-39678D01*
X41316Y-39930D01*
X41524Y-40146D01*
X41771Y-40317D01*
X42045Y-40437D01*
X42338Y-40502D01*
X42638Y-40508D01*
X42933Y-40456D01*
X43213Y-40347D01*
X43466Y-40187D01*
X43683Y-39980D01*
X43856Y-39735D01*
X43858Y-39730D01*
X43858Y-54763D01*
X43858Y-54763D01*
G37*
G54D27*
X43858Y-54763D02*
X43711Y-54541D01*
X43499Y-54328D01*
X43268Y-54172D01*
X43268Y-42728D01*
X43268Y-42705D01*
X43268Y-42114D01*
X43263Y-42091D01*
X43254Y-42070D01*
X43241Y-42050D01*
X43225Y-42034D01*
X43206Y-42021D01*
X43184Y-42012D01*
X43161Y-42007D01*
X43154Y-42007D01*
X43154Y-41753D01*
X43161Y-41753D01*
X43184Y-41748D01*
X43205Y-41739D01*
X43225Y-41726D01*
X43241Y-41710D01*
X43254Y-41691D01*
X43263Y-41669D01*
X43268Y-41646D01*
X43268Y-41623D01*
X43268Y-41032D01*
X43263Y-41009D01*
X43254Y-40988D01*
X43241Y-40968D01*
X43225Y-40952D01*
X43206Y-40939D01*
X43184Y-40930D01*
X43161Y-40925D01*
X43138Y-40925D01*
X42627Y-40925D01*
X42604Y-40930D01*
X42583Y-40939D01*
X42563Y-40952D01*
X42547Y-40968D01*
X42534Y-40987D01*
X42525Y-41009D01*
X42520Y-41032D01*
X42520Y-41055D01*
X42520Y-41646D01*
X42525Y-41669D01*
X42534Y-41690D01*
X42547Y-41710D01*
X42563Y-41726D01*
X42582Y-41739D01*
X42604Y-41748D01*
X42627Y-41753D01*
X42634Y-41753D01*
X42634Y-42007D01*
X42627Y-42007D01*
X42604Y-42012D01*
X42583Y-42021D01*
X42563Y-42034D01*
X42547Y-42050D01*
X42534Y-42069D01*
X42525Y-42091D01*
X42520Y-42114D01*
X42520Y-42137D01*
X42520Y-42728D01*
X42525Y-42751D01*
X42534Y-42772D01*
X42547Y-42792D01*
X42563Y-42808D01*
X42582Y-42821D01*
X42604Y-42830D01*
X42627Y-42835D01*
X42650Y-42835D01*
X43161Y-42835D01*
X43184Y-42830D01*
X43205Y-42821D01*
X43225Y-42808D01*
X43241Y-42792D01*
X43254Y-42773D01*
X43263Y-42751D01*
X43268Y-42728D01*
X43268Y-54172D01*
X43251Y-54161D01*
X42974Y-54044D01*
X42681Y-53984D01*
X42501Y-53982D01*
X42501Y-42726D01*
X42501Y-42707D01*
X42501Y-42506D01*
X42501Y-42336D01*
X42501Y-42135D01*
X42501Y-42116D01*
X42501Y-41644D01*
X42501Y-41625D01*
X42501Y-41424D01*
X42501Y-41254D01*
X42501Y-41053D01*
X42501Y-41034D01*
X42497Y-41014D01*
X42489Y-40996D01*
X42479Y-40980D01*
X42465Y-40966D01*
X42448Y-40955D01*
X42430Y-40948D01*
X42411Y-40944D01*
X42231Y-40944D01*
X42206Y-40969D01*
X42206Y-41279D01*
X42476Y-41279D01*
X42501Y-41254D01*
X42501Y-41424D01*
X42476Y-41399D01*
X42206Y-41399D01*
X42206Y-41709D01*
X42231Y-41734D01*
X42411Y-41734D01*
X42430Y-41730D01*
X42448Y-41723D01*
X42465Y-41712D01*
X42479Y-41698D01*
X42489Y-41682D01*
X42497Y-41664D01*
X42501Y-41644D01*
X42501Y-42116D01*
X42497Y-42096D01*
X42489Y-42078D01*
X42479Y-42062D01*
X42465Y-42048D01*
X42448Y-42037D01*
X42430Y-42030D01*
X42411Y-42026D01*
X42231Y-42026D01*
X42206Y-42051D01*
X42206Y-42361D01*
X42476Y-42361D01*
X42501Y-42336D01*
X42501Y-42506D01*
X42476Y-42481D01*
X42206Y-42481D01*
X42206Y-42791D01*
X42231Y-42816D01*
X42411Y-42816D01*
X42430Y-42812D01*
X42448Y-42805D01*
X42465Y-42794D01*
X42479Y-42780D01*
X42489Y-42764D01*
X42497Y-42746D01*
X42501Y-42726D01*
X42501Y-53982D01*
X42381Y-53982D01*
X42086Y-54038D01*
X42086Y-42791D01*
X42086Y-42481D01*
X42086Y-42361D01*
X42086Y-42051D01*
X42086Y-41709D01*
X42086Y-41399D01*
X42086Y-41279D01*
X42086Y-40969D01*
X42061Y-40944D01*
X41881Y-40944D01*
X41862Y-40948D01*
X41844Y-40955D01*
X41827Y-40966D01*
X41813Y-40980D01*
X41803Y-40996D01*
X41795Y-41014D01*
X41791Y-41034D01*
X41791Y-41053D01*
X41791Y-41254D01*
X41816Y-41279D01*
X42086Y-41279D01*
X42086Y-41399D01*
X41816Y-41399D01*
X41791Y-41424D01*
X41791Y-41625D01*
X41791Y-41644D01*
X41795Y-41664D01*
X41803Y-41682D01*
X41813Y-41698D01*
X41827Y-41712D01*
X41844Y-41723D01*
X41862Y-41730D01*
X41881Y-41734D01*
X42061Y-41734D01*
X42086Y-41709D01*
X42086Y-42051D01*
X42061Y-42026D01*
X41881Y-42026D01*
X41862Y-42030D01*
X41844Y-42037D01*
X41827Y-42048D01*
X41813Y-42062D01*
X41803Y-42078D01*
X41795Y-42096D01*
X41791Y-42116D01*
X41791Y-42135D01*
X41791Y-42336D01*
X41816Y-42361D01*
X42086Y-42361D01*
X42086Y-42481D01*
X41816Y-42481D01*
X41791Y-42506D01*
X41791Y-42707D01*
X41791Y-42726D01*
X41795Y-42746D01*
X41803Y-42764D01*
X41813Y-42780D01*
X41827Y-42794D01*
X41844Y-42805D01*
X41862Y-42812D01*
X41881Y-42816D01*
X42061Y-42816D01*
X42086Y-42791D01*
X42086Y-54038D01*
X42030Y-54060D01*
X42030Y-49696D01*
X42011Y-49601D01*
X41974Y-49511D01*
X41921Y-49430D01*
X41852Y-49361D01*
X41772Y-49307D01*
X41683Y-49269D01*
X41588Y-49249D01*
X41490Y-49249D01*
X41420Y-49262D01*
X41386Y-49227D01*
X41385Y-49226D01*
X41384Y-49225D01*
X41377Y-49219D01*
X41366Y-49210D01*
X41381Y-49217D01*
X41476Y-49238D01*
X41573Y-49240D01*
X41668Y-49223D01*
X41759Y-49188D01*
X41841Y-49136D01*
X41911Y-49069D01*
X41967Y-48990D01*
X42007Y-48901D01*
X42028Y-48807D01*
X42030Y-48696D01*
X42030Y-45696D01*
X42030Y-44696D01*
X42011Y-44601D01*
X41974Y-44511D01*
X41921Y-44430D01*
X41852Y-44361D01*
X41772Y-44307D01*
X41683Y-44269D01*
X41588Y-44249D01*
X41490Y-44249D01*
X41395Y-44267D01*
X41305Y-44303D01*
X41224Y-44356D01*
X41154Y-44424D01*
X41099Y-44504D01*
X41061Y-44593D01*
X41041Y-44688D01*
X41039Y-44785D01*
X41057Y-44881D01*
X41092Y-44971D01*
X41145Y-45052D01*
X41212Y-45122D01*
X41292Y-45178D01*
X41381Y-45217D01*
X41476Y-45238D01*
X41573Y-45240D01*
X41668Y-45223D01*
X41759Y-45188D01*
X41841Y-45136D01*
X41911Y-45069D01*
X41967Y-44990D01*
X42007Y-44901D01*
X42028Y-44807D01*
X42030Y-44696D01*
X42030Y-45696D01*
X42011Y-45601D01*
X41974Y-45511D01*
X41921Y-45430D01*
X41852Y-45361D01*
X41772Y-45307D01*
X41683Y-45269D01*
X41588Y-45249D01*
X41490Y-45249D01*
X41395Y-45267D01*
X41305Y-45303D01*
X41224Y-45356D01*
X41154Y-45424D01*
X41099Y-45504D01*
X41061Y-45593D01*
X41041Y-45688D01*
X41039Y-45785D01*
X41057Y-45881D01*
X41092Y-45971D01*
X41145Y-46052D01*
X41212Y-46122D01*
X41292Y-46178D01*
X41381Y-46217D01*
X41476Y-46238D01*
X41573Y-46240D01*
X41668Y-46223D01*
X41759Y-46188D01*
X41841Y-46136D01*
X41911Y-46069D01*
X41967Y-45990D01*
X42007Y-45901D01*
X42028Y-45807D01*
X42030Y-45696D01*
X42030Y-48696D01*
X42011Y-48601D01*
X42007Y-48591D01*
X42007Y-47796D01*
X42007Y-47703D01*
X42007Y-46796D01*
X42007Y-46703D01*
X41990Y-46612D01*
X41956Y-46526D01*
X41951Y-46516D01*
X41892Y-46472D01*
X41807Y-46557D01*
X41807Y-46387D01*
X41763Y-46328D01*
X41678Y-46291D01*
X41587Y-46272D01*
X41494Y-46272D01*
X41403Y-46289D01*
X41317Y-46323D01*
X41307Y-46328D01*
X41263Y-46387D01*
X41535Y-46659D01*
X41807Y-46387D01*
X41807Y-46557D01*
X41620Y-46744D01*
X41892Y-47016D01*
X41951Y-46972D01*
X41988Y-46887D01*
X42007Y-46796D01*
X42007Y-47703D01*
X41990Y-47612D01*
X41956Y-47526D01*
X41951Y-47516D01*
X41892Y-47472D01*
X41807Y-47557D01*
X41807Y-47387D01*
X41807Y-47101D01*
X41535Y-46829D01*
X41450Y-46914D01*
X41450Y-46744D01*
X41178Y-46472D01*
X41119Y-46516D01*
X41082Y-46601D01*
X41063Y-46692D01*
X41063Y-46785D01*
X41080Y-46876D01*
X41114Y-46962D01*
X41119Y-46972D01*
X41178Y-47016D01*
X41450Y-46744D01*
X41450Y-46914D01*
X41263Y-47101D01*
X41307Y-47160D01*
X41392Y-47197D01*
X41483Y-47216D01*
X41576Y-47216D01*
X41667Y-47199D01*
X41753Y-47165D01*
X41763Y-47160D01*
X41807Y-47101D01*
X41807Y-47387D01*
X41763Y-47328D01*
X41678Y-47291D01*
X41587Y-47272D01*
X41494Y-47272D01*
X41403Y-47289D01*
X41317Y-47323D01*
X41307Y-47328D01*
X41263Y-47387D01*
X41535Y-47659D01*
X41807Y-47387D01*
X41807Y-47557D01*
X41620Y-47744D01*
X41892Y-48016D01*
X41951Y-47972D01*
X41988Y-47887D01*
X42007Y-47796D01*
X42007Y-48591D01*
X41974Y-48511D01*
X41921Y-48430D01*
X41852Y-48361D01*
X41807Y-48330D01*
X41807Y-48101D01*
X41535Y-47829D01*
X41450Y-47914D01*
X41450Y-47744D01*
X41178Y-47472D01*
X41119Y-47516D01*
X41082Y-47601D01*
X41063Y-47692D01*
X41063Y-47785D01*
X41080Y-47876D01*
X41114Y-47962D01*
X41119Y-47972D01*
X41178Y-48016D01*
X41450Y-47744D01*
X41450Y-47914D01*
X41263Y-48101D01*
X41307Y-48160D01*
X41392Y-48197D01*
X41483Y-48216D01*
X41576Y-48216D01*
X41667Y-48199D01*
X41753Y-48165D01*
X41763Y-48160D01*
X41807Y-48101D01*
X41807Y-48330D01*
X41772Y-48307D01*
X41683Y-48269D01*
X41588Y-48249D01*
X41490Y-48249D01*
X41395Y-48267D01*
X41305Y-48303D01*
X41224Y-48356D01*
X41154Y-48424D01*
X41099Y-48504D01*
X41061Y-48593D01*
X41041Y-48688D01*
X41039Y-48785D01*
X41057Y-48881D01*
X41092Y-48971D01*
X41145Y-49052D01*
X41212Y-49122D01*
X41262Y-49157D01*
X41252Y-49154D01*
X41217Y-49150D01*
X41204Y-49149D01*
X41201Y-49149D01*
X41200Y-49149D01*
X41005Y-49149D01*
X41005Y-45570D01*
X41002Y-45539D01*
X40993Y-45510D01*
X40993Y-45509D01*
X40985Y-45495D01*
X40979Y-45482D01*
X40978Y-45481D01*
X40974Y-45477D01*
X40959Y-45458D01*
X40959Y-45457D01*
X40958Y-45456D01*
X40886Y-45384D01*
X40795Y-45293D01*
X40796Y-45252D01*
X40787Y-45205D01*
X40768Y-45160D01*
X40742Y-45120D01*
X40708Y-45086D01*
X40668Y-45059D01*
X40624Y-45041D01*
X40577Y-45031D01*
X40529Y-45031D01*
X40482Y-45040D01*
X40437Y-45058D01*
X40397Y-45084D01*
X40362Y-45118D01*
X40335Y-45157D01*
X40316Y-45202D01*
X40306Y-45249D01*
X40306Y-45297D01*
X40314Y-45344D01*
X40332Y-45389D01*
X40358Y-45429D01*
X40391Y-45463D01*
X40431Y-45491D01*
X40475Y-45510D01*
X40522Y-45520D01*
X40569Y-45520D01*
X40570Y-45521D01*
X40685Y-45636D01*
X40685Y-45728D01*
X40107Y-45728D01*
X40107Y-42068D01*
X40886Y-42068D01*
X40886Y-39035D01*
X37066Y-39035D01*
X37066Y-40291D01*
X31438Y-40291D01*
X31438Y-39035D01*
X27617Y-39035D01*
X27617Y-42068D01*
X28406Y-42068D01*
X28406Y-42443D01*
X28406Y-42446D01*
X28407Y-42458D01*
X28410Y-42494D01*
X28411Y-42497D01*
X28425Y-42543D01*
X28425Y-42544D01*
X28426Y-42545D01*
X28449Y-42590D01*
X28464Y-42608D01*
X28479Y-42627D01*
X28482Y-42630D01*
X28550Y-42697D01*
X28554Y-42702D01*
X28556Y-42703D01*
X28593Y-42735D01*
X28595Y-42736D01*
X28638Y-42759D01*
X28640Y-42759D01*
X28670Y-42769D01*
X28686Y-42774D01*
X28688Y-42775D01*
X28706Y-42776D01*
X28736Y-42780D01*
X28740Y-42780D01*
X29938Y-42780D01*
X29942Y-42780D01*
X30207Y-42780D01*
X30252Y-42824D01*
X30252Y-43150D01*
X30205Y-43150D01*
X30182Y-43155D01*
X30161Y-43164D01*
X30141Y-43177D01*
X30125Y-43193D01*
X30112Y-43212D01*
X30103Y-43234D01*
X30098Y-43257D01*
X30098Y-43280D01*
X30098Y-43791D01*
X30103Y-43814D01*
X30112Y-43835D01*
X30125Y-43855D01*
X30141Y-43871D01*
X30160Y-43884D01*
X30182Y-43893D01*
X30205Y-43898D01*
X30228Y-43898D01*
X30819Y-43898D01*
X30842Y-43893D01*
X30863Y-43884D01*
X30883Y-43871D01*
X30899Y-43855D01*
X30912Y-43836D01*
X30921Y-43814D01*
X30926Y-43791D01*
X30926Y-43768D01*
X30926Y-43257D01*
X30921Y-43234D01*
X30912Y-43213D01*
X30899Y-43193D01*
X30883Y-43177D01*
X30864Y-43164D01*
X30842Y-43155D01*
X30819Y-43150D01*
X30796Y-43150D01*
X30772Y-43150D01*
X30772Y-42719D01*
X30772Y-42717D01*
X30771Y-42709D01*
X30768Y-42668D01*
X30767Y-42666D01*
X30753Y-42620D01*
X30752Y-42618D01*
X30729Y-42573D01*
X30702Y-42542D01*
X30698Y-42536D01*
X30696Y-42534D01*
X30695Y-42533D01*
X30501Y-42338D01*
X30500Y-42337D01*
X30499Y-42336D01*
X30492Y-42330D01*
X30462Y-42305D01*
X30417Y-42281D01*
X30416Y-42280D01*
X30415Y-42280D01*
X30367Y-42265D01*
X30332Y-42261D01*
X30319Y-42260D01*
X30316Y-42260D01*
X30315Y-42260D01*
X29946Y-42260D01*
X29942Y-42260D01*
X28926Y-42260D01*
X28926Y-42068D01*
X31438Y-42068D01*
X31438Y-40811D01*
X37066Y-40811D01*
X37066Y-42068D01*
X39587Y-42068D01*
X39587Y-45728D01*
X39418Y-45728D01*
X39418Y-45252D01*
X39409Y-45205D01*
X39390Y-45160D01*
X39364Y-45120D01*
X39330Y-45086D01*
X39290Y-45059D01*
X39246Y-45041D01*
X39199Y-45031D01*
X39154Y-45031D01*
X38815Y-44692D01*
X38814Y-44691D01*
X38791Y-44672D01*
X38790Y-44671D01*
X38764Y-44657D01*
X38763Y-44656D01*
X38747Y-44651D01*
X38734Y-44647D01*
X38726Y-44646D01*
X38702Y-44643D01*
X38694Y-44644D01*
X36596Y-44644D01*
X36596Y-44477D01*
X36591Y-44454D01*
X36582Y-44433D01*
X36569Y-44413D01*
X36553Y-44397D01*
X36534Y-44384D01*
X36512Y-44375D01*
X36489Y-44370D01*
X36466Y-44370D01*
X36214Y-44370D01*
X36216Y-44366D01*
X36221Y-44343D01*
X36221Y-44320D01*
X36221Y-43742D01*
X36489Y-43742D01*
X36512Y-43737D01*
X36533Y-43728D01*
X36553Y-43715D01*
X36569Y-43699D01*
X36582Y-43680D01*
X36591Y-43658D01*
X36596Y-43635D01*
X36596Y-43612D01*
X36596Y-43468D01*
X36822Y-43468D01*
X36848Y-43494D01*
X36888Y-43522D01*
X36932Y-43541D01*
X36979Y-43551D01*
X37027Y-43552D01*
X37074Y-43544D01*
X37119Y-43527D01*
X37160Y-43501D01*
X37194Y-43468D01*
X37222Y-43429D01*
X37242Y-43385D01*
X37252Y-43338D01*
X37253Y-43283D01*
X37244Y-43236D01*
X37225Y-43191D01*
X37199Y-43151D01*
X37165Y-43117D01*
X37125Y-43090D01*
X37081Y-43072D01*
X37034Y-43062D01*
X36986Y-43062D01*
X36939Y-43071D01*
X36894Y-43089D01*
X36854Y-43115D01*
X36820Y-43148D01*
X36596Y-43148D01*
X36596Y-42981D01*
X36591Y-42958D01*
X36582Y-42937D01*
X36569Y-42917D01*
X36553Y-42901D01*
X36534Y-42888D01*
X36512Y-42879D01*
X36489Y-42874D01*
X36466Y-42874D01*
X36430Y-42874D01*
X36476Y-42827D01*
X36481Y-42824D01*
X36482Y-42822D01*
X36514Y-42785D01*
X36515Y-42783D01*
X36538Y-42740D01*
X36538Y-42738D01*
X36548Y-42708D01*
X36553Y-42692D01*
X36554Y-42690D01*
X36555Y-42671D01*
X36559Y-42642D01*
X36559Y-42638D01*
X36559Y-42560D01*
X36625Y-42560D01*
X36648Y-42555D01*
X36669Y-42546D01*
X36689Y-42533D01*
X36705Y-42517D01*
X36718Y-42498D01*
X36727Y-42476D01*
X36732Y-42453D01*
X36732Y-42430D01*
X36732Y-41721D01*
X36727Y-41698D01*
X36718Y-41677D01*
X36705Y-41657D01*
X36689Y-41641D01*
X36670Y-41628D01*
X36648Y-41619D01*
X36625Y-41614D01*
X36602Y-41614D01*
X35973Y-41614D01*
X35950Y-41619D01*
X35929Y-41628D01*
X35909Y-41641D01*
X35893Y-41657D01*
X35880Y-41676D01*
X35871Y-41698D01*
X35866Y-41721D01*
X35866Y-41744D01*
X35866Y-42453D01*
X35868Y-42463D01*
X35828Y-42476D01*
X35826Y-42476D01*
X35826Y-42477D01*
X35781Y-42500D01*
X35750Y-42526D01*
X35744Y-42531D01*
X35741Y-42533D01*
X35628Y-42645D01*
X35611Y-42654D01*
X35611Y-42451D01*
X35611Y-42432D01*
X35611Y-42172D01*
X35611Y-42002D01*
X35611Y-41742D01*
X35611Y-41723D01*
X35607Y-41703D01*
X35599Y-41685D01*
X35589Y-41669D01*
X35575Y-41655D01*
X35558Y-41644D01*
X35540Y-41637D01*
X35521Y-41633D01*
X35282Y-41633D01*
X35257Y-41658D01*
X35257Y-42027D01*
X35586Y-42027D01*
X35611Y-42002D01*
X35611Y-42172D01*
X35586Y-42147D01*
X35257Y-42147D01*
X35257Y-42516D01*
X35282Y-42541D01*
X35521Y-42541D01*
X35540Y-42537D01*
X35558Y-42530D01*
X35575Y-42519D01*
X35589Y-42505D01*
X35599Y-42489D01*
X35607Y-42471D01*
X35611Y-42451D01*
X35611Y-42654D01*
X35604Y-42658D01*
X35591Y-42669D01*
X35566Y-42689D01*
X35533Y-42728D01*
X35529Y-42735D01*
X35508Y-42774D01*
X35493Y-42823D01*
X35489Y-42861D01*
X35488Y-42871D01*
X35488Y-42873D01*
X35488Y-42874D01*
X35382Y-42874D01*
X35359Y-42879D01*
X35338Y-42888D01*
X35324Y-42897D01*
X35305Y-42893D01*
X35242Y-42893D01*
X35217Y-42918D01*
X35217Y-43208D01*
X35217Y-43248D01*
X35217Y-43368D01*
X35217Y-43408D01*
X35217Y-43698D01*
X35242Y-43723D01*
X35275Y-43723D01*
X35275Y-44343D01*
X35280Y-44366D01*
X35281Y-44370D01*
X35137Y-44370D01*
X35137Y-42516D01*
X35137Y-42147D01*
X35137Y-42027D01*
X35137Y-41658D01*
X35112Y-41633D01*
X34873Y-41633D01*
X34854Y-41637D01*
X34836Y-41644D01*
X34819Y-41655D01*
X34805Y-41669D01*
X34795Y-41685D01*
X34787Y-41703D01*
X34783Y-41723D01*
X34783Y-41742D01*
X34783Y-42002D01*
X34808Y-42027D01*
X35137Y-42027D01*
X35137Y-42147D01*
X34808Y-42147D01*
X34783Y-42172D01*
X34783Y-42432D01*
X34783Y-42451D01*
X34787Y-42471D01*
X34795Y-42489D01*
X34805Y-42505D01*
X34819Y-42519D01*
X34836Y-42530D01*
X34854Y-42537D01*
X34873Y-42541D01*
X35112Y-42541D01*
X35137Y-42516D01*
X35137Y-44370D01*
X35097Y-44370D01*
X35097Y-43698D01*
X35097Y-43368D01*
X35097Y-43248D01*
X35097Y-42918D01*
X35072Y-42893D01*
X35009Y-42893D01*
X34990Y-42897D01*
X34972Y-42904D01*
X34955Y-42915D01*
X34941Y-42929D01*
X34931Y-42945D01*
X34923Y-42963D01*
X34919Y-42983D01*
X34919Y-43002D01*
X34919Y-43223D01*
X34944Y-43248D01*
X35097Y-43248D01*
X35097Y-43368D01*
X34944Y-43368D01*
X34919Y-43393D01*
X34919Y-43614D01*
X34919Y-43633D01*
X34923Y-43653D01*
X34931Y-43671D01*
X34941Y-43687D01*
X34955Y-43701D01*
X34972Y-43712D01*
X34990Y-43719D01*
X35009Y-43723D01*
X35072Y-43723D01*
X35097Y-43698D01*
X35097Y-44370D01*
X35007Y-44370D01*
X34984Y-44375D01*
X34963Y-44384D01*
X34943Y-44397D01*
X34927Y-44413D01*
X34914Y-44432D01*
X34905Y-44454D01*
X34900Y-44477D01*
X34900Y-44500D01*
X34900Y-44544D01*
X33534Y-44544D01*
X33534Y-44329D01*
X33529Y-44306D01*
X33520Y-44285D01*
X33515Y-44277D01*
X33515Y-43465D01*
X33515Y-42999D01*
X33515Y-42829D01*
X33515Y-42363D01*
X33511Y-42344D01*
X33504Y-42326D01*
X33493Y-42309D01*
X33479Y-42295D01*
X33463Y-42285D01*
X33445Y-42277D01*
X33425Y-42273D01*
X33406Y-42273D01*
X32959Y-42273D01*
X32934Y-42298D01*
X32934Y-42854D01*
X33490Y-42854D01*
X33515Y-42829D01*
X33515Y-42999D01*
X33490Y-42974D01*
X32934Y-42974D01*
X32934Y-43530D01*
X32959Y-43555D01*
X33406Y-43555D01*
X33425Y-43555D01*
X33445Y-43551D01*
X33463Y-43543D01*
X33479Y-43533D01*
X33493Y-43519D01*
X33504Y-43502D01*
X33511Y-43484D01*
X33515Y-43465D01*
X33515Y-44277D01*
X33507Y-44265D01*
X33491Y-44249D01*
X33472Y-44236D01*
X33450Y-44227D01*
X33427Y-44222D01*
X33404Y-44222D01*
X32814Y-44222D01*
X32814Y-43530D01*
X32814Y-42974D01*
X32814Y-42854D01*
X32814Y-42298D01*
X32789Y-42273D01*
X32342Y-42273D01*
X32323Y-42273D01*
X32303Y-42277D01*
X32285Y-42285D01*
X32269Y-42295D01*
X32255Y-42309D01*
X32244Y-42326D01*
X32237Y-42344D01*
X32233Y-42363D01*
X32233Y-42829D01*
X32258Y-42854D01*
X32814Y-42854D01*
X32814Y-42974D01*
X32258Y-42974D01*
X32233Y-42999D01*
X32233Y-43465D01*
X32237Y-43484D01*
X32244Y-43502D01*
X32255Y-43519D01*
X32269Y-43533D01*
X32285Y-43543D01*
X32303Y-43551D01*
X32323Y-43555D01*
X32342Y-43555D01*
X32789Y-43555D01*
X32814Y-43530D01*
X32814Y-44222D01*
X32321Y-44222D01*
X32298Y-44227D01*
X32277Y-44236D01*
X32257Y-44249D01*
X32241Y-44265D01*
X32228Y-44284D01*
X32219Y-44306D01*
X32214Y-44329D01*
X32214Y-44352D01*
X32214Y-45435D01*
X32219Y-45458D01*
X32228Y-45479D01*
X32241Y-45499D01*
X32257Y-45515D01*
X32276Y-45528D01*
X32298Y-45537D01*
X32321Y-45542D01*
X32344Y-45542D01*
X32614Y-45542D01*
X32614Y-45863D01*
X32614Y-45866D01*
X32615Y-45878D01*
X32618Y-45914D01*
X32619Y-45917D01*
X32633Y-45963D01*
X32633Y-45964D01*
X32634Y-45965D01*
X32657Y-46010D01*
X32672Y-46028D01*
X32687Y-46047D01*
X32690Y-46050D01*
X32911Y-46271D01*
X32901Y-46282D01*
X32888Y-46301D01*
X32879Y-46323D01*
X32874Y-46346D01*
X32874Y-46369D01*
X32874Y-48142D01*
X32879Y-48165D01*
X32888Y-48186D01*
X32901Y-48206D01*
X32917Y-48222D01*
X32936Y-48235D01*
X32958Y-48244D01*
X32981Y-48249D01*
X33004Y-48249D01*
X33989Y-48249D01*
X34012Y-48244D01*
X34033Y-48235D01*
X34053Y-48222D01*
X34069Y-48206D01*
X34082Y-48187D01*
X34091Y-48165D01*
X34096Y-48142D01*
X34096Y-48119D01*
X34096Y-46346D01*
X34091Y-46323D01*
X34082Y-46302D01*
X34069Y-46282D01*
X34053Y-46266D01*
X34034Y-46253D01*
X34012Y-46244D01*
X33989Y-46239D01*
X33966Y-46239D01*
X33614Y-46239D01*
X33134Y-45758D01*
X33134Y-45542D01*
X33427Y-45542D01*
X33450Y-45537D01*
X33471Y-45528D01*
X33491Y-45515D01*
X33507Y-45499D01*
X33520Y-45480D01*
X33529Y-45458D01*
X33534Y-45435D01*
X33534Y-45412D01*
X33534Y-45064D01*
X34900Y-45064D01*
X34900Y-45131D01*
X34905Y-45154D01*
X34914Y-45175D01*
X34927Y-45195D01*
X34943Y-45211D01*
X34962Y-45224D01*
X34984Y-45233D01*
X35007Y-45238D01*
X35030Y-45238D01*
X35307Y-45238D01*
X35330Y-45233D01*
X35351Y-45224D01*
X35371Y-45211D01*
X35387Y-45195D01*
X35400Y-45176D01*
X35409Y-45154D01*
X35414Y-45131D01*
X35414Y-45108D01*
X35414Y-44836D01*
X35417Y-44806D01*
X35414Y-44775D01*
X35414Y-44477D01*
X35409Y-44454D01*
X35407Y-44450D01*
X35432Y-44450D01*
X35432Y-45131D01*
X35437Y-45154D01*
X35446Y-45175D01*
X35459Y-45195D01*
X35475Y-45211D01*
X35494Y-45224D01*
X35516Y-45233D01*
X35539Y-45238D01*
X35562Y-45238D01*
X35957Y-45238D01*
X35980Y-45233D01*
X36001Y-45224D01*
X36021Y-45211D01*
X36037Y-45195D01*
X36050Y-45176D01*
X36059Y-45154D01*
X36064Y-45131D01*
X36064Y-45108D01*
X36064Y-44450D01*
X36088Y-44450D01*
X36087Y-44454D01*
X36082Y-44477D01*
X36082Y-44500D01*
X36082Y-45131D01*
X36087Y-45154D01*
X36096Y-45175D01*
X36109Y-45195D01*
X36125Y-45211D01*
X36144Y-45224D01*
X36166Y-45233D01*
X36189Y-45238D01*
X36212Y-45238D01*
X36489Y-45238D01*
X36512Y-45233D01*
X36533Y-45224D01*
X36553Y-45211D01*
X36569Y-45195D01*
X36582Y-45176D01*
X36591Y-45154D01*
X36596Y-45131D01*
X36596Y-45108D01*
X36596Y-44964D01*
X38635Y-44964D01*
X38928Y-45257D01*
X38928Y-45297D01*
X38936Y-45344D01*
X38954Y-45389D01*
X38980Y-45429D01*
X39013Y-45463D01*
X39053Y-45491D01*
X39097Y-45510D01*
X39144Y-45520D01*
X39192Y-45521D01*
X39239Y-45513D01*
X39284Y-45496D01*
X39325Y-45470D01*
X39359Y-45437D01*
X39387Y-45398D01*
X39407Y-45354D01*
X39417Y-45307D01*
X39418Y-45252D01*
X39418Y-45728D01*
X37066Y-45728D01*
X37066Y-46984D01*
X36362Y-46984D01*
X36361Y-46983D01*
X36308Y-46961D01*
X36251Y-46949D01*
X36193Y-46949D01*
X36136Y-46960D01*
X36083Y-46981D01*
X36034Y-47013D01*
X35993Y-47054D01*
X35960Y-47101D01*
X35937Y-47154D01*
X35925Y-47211D01*
X35925Y-47269D01*
X35935Y-47326D01*
X35956Y-47380D01*
X35988Y-47428D01*
X36028Y-47470D01*
X36075Y-47503D01*
X36128Y-47526D01*
X36185Y-47538D01*
X36243Y-47540D01*
X36300Y-47529D01*
X36354Y-47509D01*
X36361Y-47504D01*
X37066Y-47504D01*
X37066Y-48760D01*
X40685Y-48760D01*
X40685Y-49149D01*
X35630Y-49149D01*
X35630Y-48142D01*
X35630Y-48119D01*
X35630Y-46346D01*
X35625Y-46323D01*
X35616Y-46302D01*
X35603Y-46282D01*
X35587Y-46266D01*
X35568Y-46253D01*
X35546Y-46244D01*
X35523Y-46239D01*
X35500Y-46239D01*
X34515Y-46239D01*
X34492Y-46244D01*
X34471Y-46253D01*
X34451Y-46266D01*
X34435Y-46282D01*
X34422Y-46301D01*
X34413Y-46323D01*
X34408Y-46346D01*
X34408Y-46369D01*
X34408Y-48142D01*
X34413Y-48165D01*
X34422Y-48186D01*
X34435Y-48206D01*
X34451Y-48222D01*
X34470Y-48235D01*
X34492Y-48244D01*
X34515Y-48249D01*
X34538Y-48249D01*
X34753Y-48249D01*
X34744Y-48294D01*
X34744Y-48352D01*
X34754Y-48409D01*
X34775Y-48463D01*
X34807Y-48511D01*
X34847Y-48553D01*
X34894Y-48586D01*
X34947Y-48609D01*
X35004Y-48621D01*
X35062Y-48623D01*
X35119Y-48612D01*
X35173Y-48592D01*
X35222Y-48561D01*
X35263Y-48521D01*
X35297Y-48473D01*
X35320Y-48420D01*
X35333Y-48364D01*
X35334Y-48298D01*
X35324Y-48249D01*
X35523Y-48249D01*
X35546Y-48244D01*
X35567Y-48235D01*
X35587Y-48222D01*
X35603Y-48206D01*
X35616Y-48187D01*
X35625Y-48165D01*
X35630Y-48142D01*
X35630Y-49149D01*
X32578Y-49149D01*
X32578Y-47215D01*
X32567Y-47158D01*
X32545Y-47105D01*
X32513Y-47057D01*
X32472Y-47016D01*
X32424Y-46983D01*
X32371Y-46961D01*
X32314Y-46949D01*
X32256Y-46949D01*
X32199Y-46960D01*
X32146Y-46981D01*
X32141Y-46984D01*
X31438Y-46984D01*
X31438Y-45728D01*
X30907Y-45728D01*
X30907Y-44537D01*
X30907Y-44357D01*
X30907Y-44187D01*
X30907Y-44007D01*
X30903Y-43988D01*
X30896Y-43970D01*
X30885Y-43953D01*
X30871Y-43939D01*
X30855Y-43929D01*
X30837Y-43921D01*
X30817Y-43917D01*
X30798Y-43917D01*
X30597Y-43917D01*
X30572Y-43942D01*
X30572Y-44212D01*
X30882Y-44212D01*
X30907Y-44187D01*
X30907Y-44357D01*
X30882Y-44332D01*
X30572Y-44332D01*
X30572Y-44602D01*
X30597Y-44627D01*
X30798Y-44627D01*
X30817Y-44627D01*
X30837Y-44623D01*
X30855Y-44615D01*
X30871Y-44605D01*
X30885Y-44591D01*
X30896Y-44574D01*
X30903Y-44556D01*
X30907Y-44537D01*
X30907Y-45728D01*
X30452Y-45728D01*
X30452Y-44602D01*
X30452Y-44332D01*
X30452Y-44212D01*
X30452Y-43942D01*
X30427Y-43917D01*
X30226Y-43917D01*
X30207Y-43917D01*
X30187Y-43921D01*
X30169Y-43929D01*
X30153Y-43939D01*
X30139Y-43953D01*
X30128Y-43970D01*
X30121Y-43988D01*
X30117Y-44007D01*
X30117Y-44187D01*
X30142Y-44212D01*
X30452Y-44212D01*
X30452Y-44332D01*
X30142Y-44332D01*
X30117Y-44357D01*
X30117Y-44537D01*
X30121Y-44556D01*
X30128Y-44574D01*
X30139Y-44591D01*
X30153Y-44605D01*
X30169Y-44615D01*
X30187Y-44623D01*
X30207Y-44627D01*
X30226Y-44627D01*
X30427Y-44627D01*
X30452Y-44602D01*
X30452Y-45728D01*
X27617Y-45728D01*
X27617Y-48760D01*
X31438Y-48760D01*
X31438Y-47504D01*
X32140Y-47504D01*
X32191Y-47526D01*
X32248Y-47538D01*
X32306Y-47540D01*
X32363Y-47529D01*
X32417Y-47509D01*
X32466Y-47478D01*
X32507Y-47438D01*
X32541Y-47390D01*
X32564Y-47337D01*
X32577Y-47281D01*
X32578Y-47215D01*
X32578Y-49149D01*
X31438Y-49149D01*
X27464Y-49149D01*
X27464Y-48696D01*
X27464Y-45696D01*
X27464Y-44696D01*
X27445Y-44601D01*
X27408Y-44511D01*
X27355Y-44430D01*
X27286Y-44361D01*
X27206Y-44307D01*
X27117Y-44269D01*
X27022Y-44249D01*
X26924Y-44249D01*
X26829Y-44267D01*
X26739Y-44303D01*
X26732Y-44307D01*
X26732Y-42728D01*
X26732Y-42705D01*
X26732Y-42114D01*
X26727Y-42091D01*
X26718Y-42070D01*
X26705Y-42050D01*
X26689Y-42034D01*
X26670Y-42021D01*
X26648Y-42012D01*
X26625Y-42007D01*
X26618Y-42007D01*
X26618Y-41753D01*
X26625Y-41753D01*
X26648Y-41748D01*
X26669Y-41739D01*
X26689Y-41726D01*
X26705Y-41710D01*
X26718Y-41691D01*
X26727Y-41669D01*
X26732Y-41646D01*
X26732Y-41623D01*
X26732Y-41032D01*
X26727Y-41009D01*
X26718Y-40988D01*
X26705Y-40968D01*
X26689Y-40952D01*
X26670Y-40939D01*
X26648Y-40930D01*
X26625Y-40925D01*
X26602Y-40925D01*
X26091Y-40925D01*
X26068Y-40930D01*
X26047Y-40939D01*
X26027Y-40952D01*
X26011Y-40968D01*
X25998Y-40987D01*
X25989Y-41009D01*
X25984Y-41032D01*
X25984Y-41055D01*
X25984Y-41646D01*
X25989Y-41669D01*
X25998Y-41690D01*
X26011Y-41710D01*
X26027Y-41726D01*
X26046Y-41739D01*
X26068Y-41748D01*
X26091Y-41753D01*
X26098Y-41753D01*
X26098Y-42007D01*
X26091Y-42007D01*
X26068Y-42012D01*
X26047Y-42021D01*
X26027Y-42034D01*
X26011Y-42050D01*
X25998Y-42069D01*
X25989Y-42091D01*
X25984Y-42114D01*
X25984Y-42137D01*
X25984Y-42728D01*
X25989Y-42751D01*
X25998Y-42772D01*
X26011Y-42792D01*
X26027Y-42808D01*
X26046Y-42821D01*
X26068Y-42830D01*
X26091Y-42835D01*
X26114Y-42835D01*
X26625Y-42835D01*
X26648Y-42830D01*
X26669Y-42821D01*
X26689Y-42808D01*
X26705Y-42792D01*
X26718Y-42773D01*
X26727Y-42751D01*
X26732Y-42728D01*
X26732Y-44307D01*
X26658Y-44356D01*
X26588Y-44424D01*
X26533Y-44504D01*
X26495Y-44593D01*
X26475Y-44688D01*
X26473Y-44785D01*
X26491Y-44881D01*
X26526Y-44971D01*
X26579Y-45052D01*
X26646Y-45122D01*
X26726Y-45178D01*
X26815Y-45217D01*
X26910Y-45238D01*
X27007Y-45240D01*
X27102Y-45223D01*
X27193Y-45188D01*
X27275Y-45136D01*
X27345Y-45069D01*
X27401Y-44990D01*
X27441Y-44901D01*
X27462Y-44807D01*
X27464Y-44696D01*
X27464Y-45696D01*
X27445Y-45601D01*
X27408Y-45511D01*
X27355Y-45430D01*
X27286Y-45361D01*
X27206Y-45307D01*
X27117Y-45269D01*
X27022Y-45249D01*
X26924Y-45249D01*
X26829Y-45267D01*
X26739Y-45303D01*
X26658Y-45356D01*
X26588Y-45424D01*
X26533Y-45504D01*
X26495Y-45593D01*
X26475Y-45688D01*
X26473Y-45785D01*
X26491Y-45881D01*
X26526Y-45971D01*
X26579Y-46052D01*
X26646Y-46122D01*
X26726Y-46178D01*
X26815Y-46217D01*
X26910Y-46238D01*
X27007Y-46240D01*
X27102Y-46223D01*
X27193Y-46188D01*
X27275Y-46136D01*
X27345Y-46069D01*
X27401Y-45990D01*
X27441Y-45901D01*
X27462Y-45807D01*
X27464Y-45696D01*
X27464Y-48696D01*
X27445Y-48601D01*
X27441Y-48591D01*
X27441Y-47796D01*
X27441Y-47703D01*
X27441Y-46796D01*
X27441Y-46703D01*
X27424Y-46612D01*
X27390Y-46526D01*
X27385Y-46516D01*
X27326Y-46472D01*
X27241Y-46557D01*
X27241Y-46387D01*
X27197Y-46328D01*
X27112Y-46291D01*
X27021Y-46272D01*
X26928Y-46272D01*
X26837Y-46289D01*
X26751Y-46323D01*
X26741Y-46328D01*
X26697Y-46387D01*
X26969Y-46659D01*
X27241Y-46387D01*
X27241Y-46557D01*
X27054Y-46744D01*
X27326Y-47016D01*
X27385Y-46972D01*
X27422Y-46887D01*
X27441Y-46796D01*
X27441Y-47703D01*
X27424Y-47612D01*
X27390Y-47526D01*
X27385Y-47516D01*
X27326Y-47472D01*
X27241Y-47557D01*
X27241Y-47387D01*
X27241Y-47101D01*
X26969Y-46829D01*
X26884Y-46914D01*
X26884Y-46744D01*
X26612Y-46472D01*
X26553Y-46516D01*
X26516Y-46601D01*
X26497Y-46692D01*
X26497Y-46785D01*
X26514Y-46876D01*
X26548Y-46962D01*
X26553Y-46972D01*
X26612Y-47016D01*
X26884Y-46744D01*
X26884Y-46914D01*
X26697Y-47101D01*
X26741Y-47160D01*
X26826Y-47197D01*
X26917Y-47216D01*
X27010Y-47216D01*
X27101Y-47199D01*
X27187Y-47165D01*
X27197Y-47160D01*
X27241Y-47101D01*
X27241Y-47387D01*
X27197Y-47328D01*
X27112Y-47291D01*
X27021Y-47272D01*
X26928Y-47272D01*
X26837Y-47289D01*
X26751Y-47323D01*
X26741Y-47328D01*
X26697Y-47387D01*
X26969Y-47659D01*
X27241Y-47387D01*
X27241Y-47557D01*
X27054Y-47744D01*
X27326Y-48016D01*
X27385Y-47972D01*
X27422Y-47887D01*
X27441Y-47796D01*
X27441Y-48591D01*
X27408Y-48511D01*
X27355Y-48430D01*
X27286Y-48361D01*
X27241Y-48330D01*
X27241Y-48101D01*
X26969Y-47829D01*
X26884Y-47914D01*
X26884Y-47744D01*
X26612Y-47472D01*
X26553Y-47516D01*
X26516Y-47601D01*
X26497Y-47692D01*
X26497Y-47785D01*
X26514Y-47876D01*
X26548Y-47962D01*
X26553Y-47972D01*
X26612Y-48016D01*
X26884Y-47744D01*
X26884Y-47914D01*
X26697Y-48101D01*
X26741Y-48160D01*
X26826Y-48197D01*
X26917Y-48216D01*
X27010Y-48216D01*
X27101Y-48199D01*
X27187Y-48165D01*
X27197Y-48160D01*
X27241Y-48101D01*
X27241Y-48330D01*
X27206Y-48307D01*
X27117Y-48269D01*
X27022Y-48249D01*
X26924Y-48249D01*
X26829Y-48267D01*
X26739Y-48303D01*
X26658Y-48356D01*
X26588Y-48424D01*
X26533Y-48504D01*
X26495Y-48593D01*
X26475Y-48688D01*
X26473Y-48785D01*
X26491Y-48881D01*
X26526Y-48971D01*
X26579Y-49052D01*
X26646Y-49122D01*
X26726Y-49178D01*
X26815Y-49217D01*
X26910Y-49238D01*
X27007Y-49240D01*
X27102Y-49223D01*
X27193Y-49188D01*
X27275Y-49136D01*
X27345Y-49069D01*
X27401Y-48990D01*
X27441Y-48901D01*
X27462Y-48807D01*
X27464Y-48696D01*
X27464Y-49149D01*
X27365Y-49149D01*
X27363Y-49149D01*
X27312Y-49154D01*
X27284Y-49162D01*
X27266Y-49168D01*
X27264Y-49168D01*
X27264Y-49169D01*
X27219Y-49192D01*
X27197Y-49210D01*
X27181Y-49223D01*
X27179Y-49226D01*
X27130Y-49274D01*
X27117Y-49269D01*
X27022Y-49249D01*
X26924Y-49249D01*
X26829Y-49267D01*
X26739Y-49303D01*
X26658Y-49356D01*
X26588Y-49424D01*
X26533Y-49504D01*
X26495Y-49593D01*
X26475Y-49688D01*
X26473Y-49785D01*
X26491Y-49881D01*
X26526Y-49971D01*
X26579Y-50052D01*
X26646Y-50122D01*
X26726Y-50178D01*
X26815Y-50217D01*
X26910Y-50238D01*
X27007Y-50240D01*
X27102Y-50223D01*
X27193Y-50188D01*
X27275Y-50136D01*
X27345Y-50069D01*
X27401Y-49990D01*
X27441Y-49901D01*
X27462Y-49807D01*
X27464Y-49696D01*
X27460Y-49678D01*
X27470Y-49669D01*
X31438Y-49669D01*
X40886Y-49669D01*
X40941Y-49669D01*
X40945Y-49669D01*
X41045Y-49669D01*
X41041Y-49688D01*
X41039Y-49785D01*
X41057Y-49881D01*
X41092Y-49971D01*
X41145Y-50052D01*
X41212Y-50122D01*
X41292Y-50178D01*
X41381Y-50217D01*
X41476Y-50238D01*
X41573Y-50240D01*
X41668Y-50223D01*
X41759Y-50188D01*
X41841Y-50136D01*
X41911Y-50069D01*
X41967Y-49990D01*
X42007Y-49901D01*
X42028Y-49807D01*
X42030Y-49696D01*
X42030Y-54060D01*
X41808Y-54151D01*
X41557Y-54315D01*
X41343Y-54525D01*
X41174Y-54772D01*
X41056Y-55048D01*
X40993Y-55341D01*
X40989Y-55641D01*
X41043Y-55936D01*
X41154Y-56214D01*
X41316Y-56466D01*
X41524Y-56682D01*
X41766Y-56850D01*
X40886Y-56850D01*
X40886Y-55453D01*
X40886Y-52421D01*
X37066Y-52421D01*
X37066Y-53677D01*
X31438Y-53677D01*
X31438Y-52421D01*
X27617Y-52421D01*
X27617Y-55453D01*
X31438Y-55453D01*
X31438Y-54197D01*
X37066Y-54197D01*
X37066Y-55453D01*
X40886Y-55453D01*
X40886Y-56850D01*
X31438Y-56850D01*
X26729Y-56850D01*
X26930Y-56723D01*
X27147Y-56516D01*
X27320Y-56271D01*
X27442Y-55997D01*
X27508Y-55704D01*
X27513Y-55362D01*
X27455Y-55068D01*
X27340Y-54791D01*
X27175Y-54541D01*
X26963Y-54328D01*
X26715Y-54161D01*
X26438Y-54044D01*
X26145Y-53984D01*
X25965Y-53982D01*
X25965Y-42726D01*
X25965Y-42707D01*
X25965Y-42506D01*
X25965Y-42336D01*
X25965Y-42135D01*
X25965Y-42116D01*
X25965Y-41644D01*
X25965Y-41625D01*
X25965Y-41424D01*
X25965Y-41254D01*
X25965Y-41053D01*
X25965Y-41034D01*
X25961Y-41014D01*
X25953Y-40996D01*
X25943Y-40980D01*
X25929Y-40966D01*
X25912Y-40955D01*
X25894Y-40948D01*
X25875Y-40944D01*
X25695Y-40944D01*
X25670Y-40969D01*
X25670Y-41279D01*
X25940Y-41279D01*
X25965Y-41254D01*
X25965Y-41424D01*
X25940Y-41399D01*
X25670Y-41399D01*
X25670Y-41709D01*
X25695Y-41734D01*
X25875Y-41734D01*
X25894Y-41730D01*
X25912Y-41723D01*
X25929Y-41712D01*
X25943Y-41698D01*
X25953Y-41682D01*
X25961Y-41664D01*
X25965Y-41644D01*
X25965Y-42116D01*
X25961Y-42096D01*
X25953Y-42078D01*
X25943Y-42062D01*
X25929Y-42048D01*
X25912Y-42037D01*
X25894Y-42030D01*
X25875Y-42026D01*
X25695Y-42026D01*
X25670Y-42051D01*
X25670Y-42361D01*
X25940Y-42361D01*
X25965Y-42336D01*
X25965Y-42506D01*
X25940Y-42481D01*
X25670Y-42481D01*
X25670Y-42791D01*
X25695Y-42816D01*
X25875Y-42816D01*
X25894Y-42812D01*
X25912Y-42805D01*
X25929Y-42794D01*
X25943Y-42780D01*
X25953Y-42764D01*
X25961Y-42746D01*
X25965Y-42726D01*
X25965Y-53982D01*
X25845Y-53982D01*
X25550Y-54038D01*
X25550Y-42791D01*
X25550Y-42481D01*
X25550Y-42361D01*
X25550Y-42051D01*
X25550Y-41709D01*
X25550Y-41399D01*
X25550Y-41279D01*
X25550Y-40969D01*
X25525Y-40944D01*
X25345Y-40944D01*
X25326Y-40948D01*
X25308Y-40955D01*
X25291Y-40966D01*
X25277Y-40980D01*
X25267Y-40996D01*
X25259Y-41014D01*
X25255Y-41034D01*
X25255Y-41053D01*
X25255Y-41254D01*
X25280Y-41279D01*
X25550Y-41279D01*
X25550Y-41399D01*
X25280Y-41399D01*
X25255Y-41424D01*
X25255Y-41625D01*
X25255Y-41644D01*
X25259Y-41664D01*
X25267Y-41682D01*
X25277Y-41698D01*
X25291Y-41712D01*
X25308Y-41723D01*
X25326Y-41730D01*
X25345Y-41734D01*
X25525Y-41734D01*
X25550Y-41709D01*
X25550Y-42051D01*
X25525Y-42026D01*
X25345Y-42026D01*
X25326Y-42030D01*
X25308Y-42037D01*
X25291Y-42048D01*
X25277Y-42062D01*
X25267Y-42078D01*
X25259Y-42096D01*
X25255Y-42116D01*
X25255Y-42135D01*
X25255Y-42336D01*
X25280Y-42361D01*
X25550Y-42361D01*
X25550Y-42481D01*
X25280Y-42481D01*
X25255Y-42506D01*
X25255Y-42707D01*
X25255Y-42726D01*
X25259Y-42746D01*
X25267Y-42764D01*
X25277Y-42780D01*
X25291Y-42794D01*
X25308Y-42805D01*
X25326Y-42812D01*
X25345Y-42816D01*
X25525Y-42816D01*
X25550Y-42791D01*
X25550Y-54038D01*
X25272Y-54151D01*
X25021Y-54315D01*
X24807Y-54525D01*
X24646Y-54760D01*
X24646Y-39721D01*
X24780Y-39930D01*
X24988Y-40146D01*
X25235Y-40317D01*
X25509Y-40437D01*
X25802Y-40502D01*
X26102Y-40508D01*
X26397Y-40456D01*
X26677Y-40347D01*
X26930Y-40187D01*
X27147Y-39980D01*
X27320Y-39735D01*
X27442Y-39461D01*
X27508Y-39168D01*
X27513Y-38826D01*
X27455Y-38532D01*
X27340Y-38255D01*
X27175Y-38005D01*
X26963Y-37792D01*
X26734Y-37638D01*
X41772Y-37638D01*
X41557Y-37779D01*
X41343Y-37989D01*
X41174Y-38236D01*
X41056Y-38512D01*
X40993Y-38805D01*
X40989Y-39105D01*
X41043Y-39400D01*
X41154Y-39678D01*
X41316Y-39930D01*
X41524Y-40146D01*
X41771Y-40317D01*
X42045Y-40437D01*
X42338Y-40502D01*
X42638Y-40508D01*
X42933Y-40456D01*
X43213Y-40347D01*
X43466Y-40187D01*
X43683Y-39980D01*
X43856Y-39735D01*
X43858Y-39730D01*
X43858Y-54763D01*
G54D10*
G36*
X31259Y-48582D02*
X29232Y-48582D01*
X29232Y-47488D01*
X29232Y-47304D01*
X29232Y-47184D01*
X29232Y-47000D01*
X29207Y-46975D01*
X29072Y-46975D01*
X29072Y-46948D01*
X29072Y-46929D01*
X29068Y-46909D01*
X29060Y-46891D01*
X29050Y-46875D01*
X29036Y-46861D01*
X29019Y-46850D01*
X29001Y-46843D01*
X28982Y-46839D01*
X28742Y-46839D01*
X28717Y-46864D01*
X28717Y-47184D01*
X28883Y-47184D01*
X29047Y-47184D01*
X29232Y-47184D01*
X29232Y-47304D01*
X29047Y-47304D01*
X28883Y-47304D01*
X28717Y-47304D01*
X28717Y-47624D01*
X28742Y-47649D01*
X28982Y-47649D01*
X29001Y-47645D01*
X29019Y-47638D01*
X29036Y-47627D01*
X29050Y-47613D01*
X29060Y-47597D01*
X29068Y-47579D01*
X29072Y-47559D01*
X29072Y-47540D01*
X29072Y-47513D01*
X29207Y-47513D01*
X29232Y-47488D01*
X29232Y-48582D01*
X28597Y-48582D01*
X28597Y-47624D01*
X28597Y-47304D01*
X28597Y-47184D01*
X28597Y-46864D01*
X28572Y-46839D01*
X28332Y-46839D01*
X28313Y-46843D01*
X28295Y-46850D01*
X28278Y-46861D01*
X28264Y-46875D01*
X28254Y-46891D01*
X28246Y-46909D01*
X28242Y-46929D01*
X28242Y-46948D01*
X28242Y-47159D01*
X28267Y-47184D01*
X28597Y-47184D01*
X28597Y-47304D01*
X28267Y-47304D01*
X28242Y-47329D01*
X28242Y-47540D01*
X28242Y-47559D01*
X28246Y-47579D01*
X28254Y-47597D01*
X28264Y-47613D01*
X28278Y-47627D01*
X28295Y-47638D01*
X28313Y-47645D01*
X28332Y-47649D01*
X28572Y-47649D01*
X28597Y-47624D01*
X28597Y-48582D01*
X27796Y-48582D01*
X27796Y-45906D01*
X31259Y-45906D01*
X31259Y-46984D01*
X30824Y-46984D01*
X30824Y-46927D01*
X30819Y-46904D01*
X30810Y-46883D01*
X30797Y-46863D01*
X30781Y-46847D01*
X30762Y-46834D01*
X30740Y-46825D01*
X30717Y-46820D01*
X30694Y-46820D01*
X30063Y-46820D01*
X30040Y-46825D01*
X30019Y-46834D01*
X29999Y-46847D01*
X29983Y-46863D01*
X29970Y-46882D01*
X29961Y-46904D01*
X29956Y-46927D01*
X29956Y-46950D01*
X29956Y-46956D01*
X29813Y-46956D01*
X29790Y-46961D01*
X29769Y-46970D01*
X29749Y-46983D01*
X29733Y-46999D01*
X29720Y-47018D01*
X29715Y-47029D01*
X29714Y-47027D01*
X29704Y-47011D01*
X29690Y-46997D01*
X29673Y-46986D01*
X29655Y-46979D01*
X29636Y-46975D01*
X29377Y-46975D01*
X29352Y-47000D01*
X29352Y-47144D01*
X29352Y-47184D01*
X29352Y-47304D01*
X29352Y-47344D01*
X29352Y-47488D01*
X29377Y-47513D01*
X29636Y-47513D01*
X29655Y-47509D01*
X29673Y-47502D01*
X29690Y-47491D01*
X29704Y-47477D01*
X29714Y-47461D01*
X29715Y-47458D01*
X29720Y-47469D01*
X29733Y-47489D01*
X29749Y-47505D01*
X29768Y-47518D01*
X29790Y-47527D01*
X29813Y-47532D01*
X29836Y-47532D01*
X29956Y-47532D01*
X29956Y-47561D01*
X29961Y-47584D01*
X29970Y-47605D01*
X29983Y-47625D01*
X29999Y-47641D01*
X30018Y-47654D01*
X30040Y-47663D01*
X30063Y-47668D01*
X30086Y-47668D01*
X30717Y-47668D01*
X30740Y-47663D01*
X30761Y-47654D01*
X30781Y-47641D01*
X30797Y-47625D01*
X30810Y-47606D01*
X30819Y-47584D01*
X30824Y-47561D01*
X30824Y-47538D01*
X30824Y-47504D01*
X31259Y-47504D01*
X31259Y-48582D01*
X31259Y-48582D01*
G37*
G54D27*
X31259Y-48582D02*
X29232Y-48582D01*
X29232Y-47488D01*
X29232Y-47304D01*
X29232Y-47184D01*
X29232Y-47000D01*
X29207Y-46975D01*
X29072Y-46975D01*
X29072Y-46948D01*
X29072Y-46929D01*
X29068Y-46909D01*
X29060Y-46891D01*
X29050Y-46875D01*
X29036Y-46861D01*
X29019Y-46850D01*
X29001Y-46843D01*
X28982Y-46839D01*
X28742Y-46839D01*
X28717Y-46864D01*
X28717Y-47184D01*
X28883Y-47184D01*
X29047Y-47184D01*
X29232Y-47184D01*
X29232Y-47304D01*
X29047Y-47304D01*
X28883Y-47304D01*
X28717Y-47304D01*
X28717Y-47624D01*
X28742Y-47649D01*
X28982Y-47649D01*
X29001Y-47645D01*
X29019Y-47638D01*
X29036Y-47627D01*
X29050Y-47613D01*
X29060Y-47597D01*
X29068Y-47579D01*
X29072Y-47559D01*
X29072Y-47540D01*
X29072Y-47513D01*
X29207Y-47513D01*
X29232Y-47488D01*
X29232Y-48582D01*
X28597Y-48582D01*
X28597Y-47624D01*
X28597Y-47304D01*
X28597Y-47184D01*
X28597Y-46864D01*
X28572Y-46839D01*
X28332Y-46839D01*
X28313Y-46843D01*
X28295Y-46850D01*
X28278Y-46861D01*
X28264Y-46875D01*
X28254Y-46891D01*
X28246Y-46909D01*
X28242Y-46929D01*
X28242Y-46948D01*
X28242Y-47159D01*
X28267Y-47184D01*
X28597Y-47184D01*
X28597Y-47304D01*
X28267Y-47304D01*
X28242Y-47329D01*
X28242Y-47540D01*
X28242Y-47559D01*
X28246Y-47579D01*
X28254Y-47597D01*
X28264Y-47613D01*
X28278Y-47627D01*
X28295Y-47638D01*
X28313Y-47645D01*
X28332Y-47649D01*
X28572Y-47649D01*
X28597Y-47624D01*
X28597Y-48582D01*
X27796Y-48582D01*
X27796Y-45906D01*
X31259Y-45906D01*
X31259Y-46984D01*
X30824Y-46984D01*
X30824Y-46927D01*
X30819Y-46904D01*
X30810Y-46883D01*
X30797Y-46863D01*
X30781Y-46847D01*
X30762Y-46834D01*
X30740Y-46825D01*
X30717Y-46820D01*
X30694Y-46820D01*
X30063Y-46820D01*
X30040Y-46825D01*
X30019Y-46834D01*
X29999Y-46847D01*
X29983Y-46863D01*
X29970Y-46882D01*
X29961Y-46904D01*
X29956Y-46927D01*
X29956Y-46950D01*
X29956Y-46956D01*
X29813Y-46956D01*
X29790Y-46961D01*
X29769Y-46970D01*
X29749Y-46983D01*
X29733Y-46999D01*
X29720Y-47018D01*
X29715Y-47029D01*
X29714Y-47027D01*
X29704Y-47011D01*
X29690Y-46997D01*
X29673Y-46986D01*
X29655Y-46979D01*
X29636Y-46975D01*
X29377Y-46975D01*
X29352Y-47000D01*
X29352Y-47144D01*
X29352Y-47184D01*
X29352Y-47304D01*
X29352Y-47344D01*
X29352Y-47488D01*
X29377Y-47513D01*
X29636Y-47513D01*
X29655Y-47509D01*
X29673Y-47502D01*
X29690Y-47491D01*
X29704Y-47477D01*
X29714Y-47461D01*
X29715Y-47458D01*
X29720Y-47469D01*
X29733Y-47489D01*
X29749Y-47505D01*
X29768Y-47518D01*
X29790Y-47527D01*
X29813Y-47532D01*
X29836Y-47532D01*
X29956Y-47532D01*
X29956Y-47561D01*
X29961Y-47584D01*
X29970Y-47605D01*
X29983Y-47625D01*
X29999Y-47641D01*
X30018Y-47654D01*
X30040Y-47663D01*
X30063Y-47668D01*
X30086Y-47668D01*
X30717Y-47668D01*
X30740Y-47663D01*
X30761Y-47654D01*
X30781Y-47641D01*
X30797Y-47625D01*
X30810Y-47606D01*
X30819Y-47584D01*
X30824Y-47561D01*
X30824Y-47538D01*
X30824Y-47504D01*
X31259Y-47504D01*
X31259Y-48582D01*
G54D10*
G36*
X31259Y-55275D02*
X30814Y-55275D01*
X30814Y-54252D01*
X30814Y-54233D01*
X30814Y-54022D01*
X30814Y-53852D01*
X30814Y-53641D01*
X30814Y-53622D01*
X30810Y-53602D01*
X30802Y-53584D01*
X30792Y-53568D01*
X30778Y-53554D01*
X30761Y-53543D01*
X30743Y-53536D01*
X30724Y-53532D01*
X30484Y-53532D01*
X30459Y-53557D01*
X30459Y-53877D01*
X30789Y-53877D01*
X30814Y-53852D01*
X30814Y-54022D01*
X30789Y-53997D01*
X30459Y-53997D01*
X30459Y-54317D01*
X30484Y-54342D01*
X30724Y-54342D01*
X30743Y-54338D01*
X30761Y-54331D01*
X30778Y-54320D01*
X30792Y-54306D01*
X30802Y-54290D01*
X30810Y-54272D01*
X30814Y-54252D01*
X30814Y-55275D01*
X30339Y-55275D01*
X30339Y-54317D01*
X30339Y-53997D01*
X30339Y-53877D01*
X30339Y-53557D01*
X30314Y-53532D01*
X30074Y-53532D01*
X30055Y-53536D01*
X30037Y-53543D01*
X30020Y-53554D01*
X30006Y-53568D01*
X29996Y-53584D01*
X29988Y-53602D01*
X29984Y-53622D01*
X29984Y-53641D01*
X29984Y-53668D01*
X29849Y-53668D01*
X29824Y-53693D01*
X29824Y-53877D01*
X30009Y-53877D01*
X30173Y-53877D01*
X30339Y-53877D01*
X30339Y-53997D01*
X30173Y-53997D01*
X30009Y-53997D01*
X29824Y-53997D01*
X29824Y-54181D01*
X29849Y-54206D01*
X29984Y-54206D01*
X29984Y-54233D01*
X29984Y-54252D01*
X29988Y-54272D01*
X29996Y-54290D01*
X30006Y-54306D01*
X30020Y-54320D01*
X30037Y-54331D01*
X30055Y-54338D01*
X30074Y-54342D01*
X30314Y-54342D01*
X30339Y-54317D01*
X30339Y-55275D01*
X29704Y-55275D01*
X29704Y-54181D01*
X29704Y-54037D01*
X29704Y-53997D01*
X29704Y-53877D01*
X29704Y-53837D01*
X29704Y-53693D01*
X29679Y-53668D01*
X29420Y-53668D01*
X29401Y-53672D01*
X29383Y-53679D01*
X29366Y-53690D01*
X29352Y-53704D01*
X29342Y-53720D01*
X29340Y-53722D01*
X29336Y-53712D01*
X29323Y-53692D01*
X29307Y-53676D01*
X29288Y-53663D01*
X29266Y-53654D01*
X29243Y-53649D01*
X29220Y-53649D01*
X29100Y-53649D01*
X29100Y-53620D01*
X29095Y-53597D01*
X29086Y-53576D01*
X29073Y-53556D01*
X29057Y-53540D01*
X29038Y-53527D01*
X29016Y-53518D01*
X28993Y-53513D01*
X28970Y-53513D01*
X28339Y-53513D01*
X28316Y-53518D01*
X28295Y-53527D01*
X28275Y-53540D01*
X28259Y-53556D01*
X28246Y-53575D01*
X28237Y-53597D01*
X28232Y-53620D01*
X28232Y-53643D01*
X28232Y-54254D01*
X28237Y-54277D01*
X28246Y-54298D01*
X28259Y-54318D01*
X28275Y-54334D01*
X28294Y-54347D01*
X28316Y-54356D01*
X28339Y-54361D01*
X28362Y-54361D01*
X28993Y-54361D01*
X29016Y-54356D01*
X29037Y-54347D01*
X29057Y-54334D01*
X29073Y-54318D01*
X29086Y-54299D01*
X29095Y-54277D01*
X29100Y-54254D01*
X29100Y-54231D01*
X29100Y-54225D01*
X29243Y-54225D01*
X29266Y-54220D01*
X29287Y-54211D01*
X29307Y-54198D01*
X29323Y-54182D01*
X29336Y-54163D01*
X29340Y-54151D01*
X29342Y-54154D01*
X29352Y-54170D01*
X29366Y-54184D01*
X29383Y-54195D01*
X29401Y-54202D01*
X29420Y-54206D01*
X29679Y-54206D01*
X29704Y-54181D01*
X29704Y-55275D01*
X27796Y-55275D01*
X27796Y-52599D01*
X31259Y-52599D01*
X31259Y-55275D01*
X31259Y-55275D01*
G37*
G54D27*
X31259Y-55275D02*
X30814Y-55275D01*
X30814Y-54252D01*
X30814Y-54233D01*
X30814Y-54022D01*
X30814Y-53852D01*
X30814Y-53641D01*
X30814Y-53622D01*
X30810Y-53602D01*
X30802Y-53584D01*
X30792Y-53568D01*
X30778Y-53554D01*
X30761Y-53543D01*
X30743Y-53536D01*
X30724Y-53532D01*
X30484Y-53532D01*
X30459Y-53557D01*
X30459Y-53877D01*
X30789Y-53877D01*
X30814Y-53852D01*
X30814Y-54022D01*
X30789Y-53997D01*
X30459Y-53997D01*
X30459Y-54317D01*
X30484Y-54342D01*
X30724Y-54342D01*
X30743Y-54338D01*
X30761Y-54331D01*
X30778Y-54320D01*
X30792Y-54306D01*
X30802Y-54290D01*
X30810Y-54272D01*
X30814Y-54252D01*
X30814Y-55275D01*
X30339Y-55275D01*
X30339Y-54317D01*
X30339Y-53997D01*
X30339Y-53877D01*
X30339Y-53557D01*
X30314Y-53532D01*
X30074Y-53532D01*
X30055Y-53536D01*
X30037Y-53543D01*
X30020Y-53554D01*
X30006Y-53568D01*
X29996Y-53584D01*
X29988Y-53602D01*
X29984Y-53622D01*
X29984Y-53641D01*
X29984Y-53668D01*
X29849Y-53668D01*
X29824Y-53693D01*
X29824Y-53877D01*
X30009Y-53877D01*
X30173Y-53877D01*
X30339Y-53877D01*
X30339Y-53997D01*
X30173Y-53997D01*
X30009Y-53997D01*
X29824Y-53997D01*
X29824Y-54181D01*
X29849Y-54206D01*
X29984Y-54206D01*
X29984Y-54233D01*
X29984Y-54252D01*
X29988Y-54272D01*
X29996Y-54290D01*
X30006Y-54306D01*
X30020Y-54320D01*
X30037Y-54331D01*
X30055Y-54338D01*
X30074Y-54342D01*
X30314Y-54342D01*
X30339Y-54317D01*
X30339Y-55275D01*
X29704Y-55275D01*
X29704Y-54181D01*
X29704Y-54037D01*
X29704Y-53997D01*
X29704Y-53877D01*
X29704Y-53837D01*
X29704Y-53693D01*
X29679Y-53668D01*
X29420Y-53668D01*
X29401Y-53672D01*
X29383Y-53679D01*
X29366Y-53690D01*
X29352Y-53704D01*
X29342Y-53720D01*
X29340Y-53722D01*
X29336Y-53712D01*
X29323Y-53692D01*
X29307Y-53676D01*
X29288Y-53663D01*
X29266Y-53654D01*
X29243Y-53649D01*
X29220Y-53649D01*
X29100Y-53649D01*
X29100Y-53620D01*
X29095Y-53597D01*
X29086Y-53576D01*
X29073Y-53556D01*
X29057Y-53540D01*
X29038Y-53527D01*
X29016Y-53518D01*
X28993Y-53513D01*
X28970Y-53513D01*
X28339Y-53513D01*
X28316Y-53518D01*
X28295Y-53527D01*
X28275Y-53540D01*
X28259Y-53556D01*
X28246Y-53575D01*
X28237Y-53597D01*
X28232Y-53620D01*
X28232Y-53643D01*
X28232Y-54254D01*
X28237Y-54277D01*
X28246Y-54298D01*
X28259Y-54318D01*
X28275Y-54334D01*
X28294Y-54347D01*
X28316Y-54356D01*
X28339Y-54361D01*
X28362Y-54361D01*
X28993Y-54361D01*
X29016Y-54356D01*
X29037Y-54347D01*
X29057Y-54334D01*
X29073Y-54318D01*
X29086Y-54299D01*
X29095Y-54277D01*
X29100Y-54254D01*
X29100Y-54231D01*
X29100Y-54225D01*
X29243Y-54225D01*
X29266Y-54220D01*
X29287Y-54211D01*
X29307Y-54198D01*
X29323Y-54182D01*
X29336Y-54163D01*
X29340Y-54151D01*
X29342Y-54154D01*
X29352Y-54170D01*
X29366Y-54184D01*
X29383Y-54195D01*
X29401Y-54202D01*
X29420Y-54206D01*
X29679Y-54206D01*
X29704Y-54181D01*
X29704Y-55275D01*
X27796Y-55275D01*
X27796Y-52599D01*
X31259Y-52599D01*
X31259Y-55275D01*
G54D10*
G36*
X40708Y-55275D02*
X40262Y-55275D01*
X40262Y-54252D01*
X40262Y-54233D01*
X40262Y-54022D01*
X40262Y-53852D01*
X40262Y-53641D01*
X40262Y-53622D01*
X40258Y-53602D01*
X40250Y-53584D01*
X40240Y-53568D01*
X40226Y-53554D01*
X40209Y-53543D01*
X40191Y-53536D01*
X40172Y-53532D01*
X39932Y-53532D01*
X39907Y-53557D01*
X39907Y-53877D01*
X40237Y-53877D01*
X40262Y-53852D01*
X40262Y-54022D01*
X40237Y-53997D01*
X39907Y-53997D01*
X39907Y-54317D01*
X39932Y-54342D01*
X40172Y-54342D01*
X40191Y-54338D01*
X40209Y-54331D01*
X40226Y-54320D01*
X40240Y-54306D01*
X40250Y-54290D01*
X40258Y-54272D01*
X40262Y-54252D01*
X40262Y-55275D01*
X39787Y-55275D01*
X39787Y-54317D01*
X39787Y-53997D01*
X39787Y-53877D01*
X39787Y-53557D01*
X39762Y-53532D01*
X39522Y-53532D01*
X39503Y-53536D01*
X39485Y-53543D01*
X39468Y-53554D01*
X39454Y-53568D01*
X39444Y-53584D01*
X39436Y-53602D01*
X39432Y-53622D01*
X39432Y-53641D01*
X39432Y-53668D01*
X39297Y-53668D01*
X39272Y-53693D01*
X39272Y-53877D01*
X39457Y-53877D01*
X39621Y-53877D01*
X39787Y-53877D01*
X39787Y-53997D01*
X39621Y-53997D01*
X39457Y-53997D01*
X39272Y-53997D01*
X39272Y-54181D01*
X39297Y-54206D01*
X39432Y-54206D01*
X39432Y-54233D01*
X39432Y-54252D01*
X39436Y-54272D01*
X39444Y-54290D01*
X39454Y-54306D01*
X39468Y-54320D01*
X39485Y-54331D01*
X39503Y-54338D01*
X39522Y-54342D01*
X39762Y-54342D01*
X39787Y-54317D01*
X39787Y-55275D01*
X37245Y-55275D01*
X37245Y-54197D01*
X37680Y-54197D01*
X37680Y-54254D01*
X37685Y-54277D01*
X37694Y-54298D01*
X37707Y-54318D01*
X37723Y-54334D01*
X37742Y-54347D01*
X37764Y-54356D01*
X37787Y-54361D01*
X37810Y-54361D01*
X38441Y-54361D01*
X38464Y-54356D01*
X38485Y-54347D01*
X38505Y-54334D01*
X38521Y-54318D01*
X38534Y-54299D01*
X38543Y-54277D01*
X38548Y-54254D01*
X38548Y-54231D01*
X38548Y-54225D01*
X38691Y-54225D01*
X38714Y-54220D01*
X38735Y-54211D01*
X38755Y-54198D01*
X38771Y-54182D01*
X38784Y-54163D01*
X38788Y-54151D01*
X38790Y-54154D01*
X38800Y-54170D01*
X38814Y-54184D01*
X38831Y-54195D01*
X38849Y-54202D01*
X38868Y-54206D01*
X39127Y-54206D01*
X39152Y-54181D01*
X39152Y-54037D01*
X39152Y-53997D01*
X39152Y-53877D01*
X39152Y-53837D01*
X39152Y-53693D01*
X39127Y-53668D01*
X38868Y-53668D01*
X38849Y-53672D01*
X38831Y-53679D01*
X38814Y-53690D01*
X38800Y-53704D01*
X38790Y-53720D01*
X38788Y-53722D01*
X38784Y-53712D01*
X38771Y-53692D01*
X38755Y-53676D01*
X38736Y-53663D01*
X38714Y-53654D01*
X38691Y-53649D01*
X38668Y-53649D01*
X38548Y-53649D01*
X38548Y-53620D01*
X38543Y-53597D01*
X38534Y-53576D01*
X38521Y-53556D01*
X38505Y-53540D01*
X38486Y-53527D01*
X38464Y-53518D01*
X38441Y-53513D01*
X38418Y-53513D01*
X37787Y-53513D01*
X37764Y-53518D01*
X37743Y-53527D01*
X37723Y-53540D01*
X37707Y-53556D01*
X37694Y-53575D01*
X37685Y-53597D01*
X37680Y-53620D01*
X37680Y-53643D01*
X37680Y-53677D01*
X37245Y-53677D01*
X37245Y-52599D01*
X40708Y-52599D01*
X40708Y-55275D01*
X40708Y-55275D01*
G37*
G54D27*
X40708Y-55275D02*
X40262Y-55275D01*
X40262Y-54252D01*
X40262Y-54233D01*
X40262Y-54022D01*
X40262Y-53852D01*
X40262Y-53641D01*
X40262Y-53622D01*
X40258Y-53602D01*
X40250Y-53584D01*
X40240Y-53568D01*
X40226Y-53554D01*
X40209Y-53543D01*
X40191Y-53536D01*
X40172Y-53532D01*
X39932Y-53532D01*
X39907Y-53557D01*
X39907Y-53877D01*
X40237Y-53877D01*
X40262Y-53852D01*
X40262Y-54022D01*
X40237Y-53997D01*
X39907Y-53997D01*
X39907Y-54317D01*
X39932Y-54342D01*
X40172Y-54342D01*
X40191Y-54338D01*
X40209Y-54331D01*
X40226Y-54320D01*
X40240Y-54306D01*
X40250Y-54290D01*
X40258Y-54272D01*
X40262Y-54252D01*
X40262Y-55275D01*
X39787Y-55275D01*
X39787Y-54317D01*
X39787Y-53997D01*
X39787Y-53877D01*
X39787Y-53557D01*
X39762Y-53532D01*
X39522Y-53532D01*
X39503Y-53536D01*
X39485Y-53543D01*
X39468Y-53554D01*
X39454Y-53568D01*
X39444Y-53584D01*
X39436Y-53602D01*
X39432Y-53622D01*
X39432Y-53641D01*
X39432Y-53668D01*
X39297Y-53668D01*
X39272Y-53693D01*
X39272Y-53877D01*
X39457Y-53877D01*
X39621Y-53877D01*
X39787Y-53877D01*
X39787Y-53997D01*
X39621Y-53997D01*
X39457Y-53997D01*
X39272Y-53997D01*
X39272Y-54181D01*
X39297Y-54206D01*
X39432Y-54206D01*
X39432Y-54233D01*
X39432Y-54252D01*
X39436Y-54272D01*
X39444Y-54290D01*
X39454Y-54306D01*
X39468Y-54320D01*
X39485Y-54331D01*
X39503Y-54338D01*
X39522Y-54342D01*
X39762Y-54342D01*
X39787Y-54317D01*
X39787Y-55275D01*
X37245Y-55275D01*
X37245Y-54197D01*
X37680Y-54197D01*
X37680Y-54254D01*
X37685Y-54277D01*
X37694Y-54298D01*
X37707Y-54318D01*
X37723Y-54334D01*
X37742Y-54347D01*
X37764Y-54356D01*
X37787Y-54361D01*
X37810Y-54361D01*
X38441Y-54361D01*
X38464Y-54356D01*
X38485Y-54347D01*
X38505Y-54334D01*
X38521Y-54318D01*
X38534Y-54299D01*
X38543Y-54277D01*
X38548Y-54254D01*
X38548Y-54231D01*
X38548Y-54225D01*
X38691Y-54225D01*
X38714Y-54220D01*
X38735Y-54211D01*
X38755Y-54198D01*
X38771Y-54182D01*
X38784Y-54163D01*
X38788Y-54151D01*
X38790Y-54154D01*
X38800Y-54170D01*
X38814Y-54184D01*
X38831Y-54195D01*
X38849Y-54202D01*
X38868Y-54206D01*
X39127Y-54206D01*
X39152Y-54181D01*
X39152Y-54037D01*
X39152Y-53997D01*
X39152Y-53877D01*
X39152Y-53837D01*
X39152Y-53693D01*
X39127Y-53668D01*
X38868Y-53668D01*
X38849Y-53672D01*
X38831Y-53679D01*
X38814Y-53690D01*
X38800Y-53704D01*
X38790Y-53720D01*
X38788Y-53722D01*
X38784Y-53712D01*
X38771Y-53692D01*
X38755Y-53676D01*
X38736Y-53663D01*
X38714Y-53654D01*
X38691Y-53649D01*
X38668Y-53649D01*
X38548Y-53649D01*
X38548Y-53620D01*
X38543Y-53597D01*
X38534Y-53576D01*
X38521Y-53556D01*
X38505Y-53540D01*
X38486Y-53527D01*
X38464Y-53518D01*
X38441Y-53513D01*
X38418Y-53513D01*
X37787Y-53513D01*
X37764Y-53518D01*
X37743Y-53527D01*
X37723Y-53540D01*
X37707Y-53556D01*
X37694Y-53575D01*
X37685Y-53597D01*
X37680Y-53620D01*
X37680Y-53643D01*
X37680Y-53677D01*
X37245Y-53677D01*
X37245Y-52599D01*
X40708Y-52599D01*
X40708Y-55275D01*
G54D10*
G36*
X40685Y-48582D02*
X38680Y-48582D01*
X38680Y-47488D01*
X38680Y-47304D01*
X38680Y-47184D01*
X38680Y-47000D01*
X38655Y-46975D01*
X38520Y-46975D01*
X38520Y-46948D01*
X38520Y-46929D01*
X38516Y-46909D01*
X38508Y-46891D01*
X38498Y-46875D01*
X38484Y-46861D01*
X38467Y-46850D01*
X38449Y-46843D01*
X38430Y-46839D01*
X38190Y-46839D01*
X38165Y-46864D01*
X38165Y-47184D01*
X38331Y-47184D01*
X38495Y-47184D01*
X38680Y-47184D01*
X38680Y-47304D01*
X38495Y-47304D01*
X38331Y-47304D01*
X38165Y-47304D01*
X38165Y-47624D01*
X38190Y-47649D01*
X38430Y-47649D01*
X38449Y-47645D01*
X38467Y-47638D01*
X38484Y-47627D01*
X38498Y-47613D01*
X38508Y-47597D01*
X38516Y-47579D01*
X38520Y-47559D01*
X38520Y-47540D01*
X38520Y-47513D01*
X38655Y-47513D01*
X38680Y-47488D01*
X38680Y-48582D01*
X38045Y-48582D01*
X38045Y-47624D01*
X38045Y-47304D01*
X38045Y-47184D01*
X38045Y-46864D01*
X38020Y-46839D01*
X37780Y-46839D01*
X37761Y-46843D01*
X37743Y-46850D01*
X37726Y-46861D01*
X37712Y-46875D01*
X37702Y-46891D01*
X37694Y-46909D01*
X37690Y-46929D01*
X37690Y-46948D01*
X37690Y-47159D01*
X37715Y-47184D01*
X38045Y-47184D01*
X38045Y-47304D01*
X37715Y-47304D01*
X37690Y-47329D01*
X37690Y-47540D01*
X37690Y-47559D01*
X37694Y-47579D01*
X37702Y-47597D01*
X37712Y-47613D01*
X37726Y-47627D01*
X37743Y-47638D01*
X37761Y-47645D01*
X37780Y-47649D01*
X38020Y-47649D01*
X38045Y-47624D01*
X38045Y-48582D01*
X37245Y-48582D01*
X37245Y-45906D01*
X39587Y-45906D01*
X39587Y-46820D01*
X39511Y-46820D01*
X39488Y-46825D01*
X39467Y-46834D01*
X39447Y-46847D01*
X39431Y-46863D01*
X39418Y-46882D01*
X39409Y-46904D01*
X39404Y-46927D01*
X39404Y-46950D01*
X39404Y-46956D01*
X39261Y-46956D01*
X39238Y-46961D01*
X39217Y-46970D01*
X39197Y-46983D01*
X39181Y-46999D01*
X39168Y-47018D01*
X39163Y-47029D01*
X39162Y-47027D01*
X39152Y-47011D01*
X39138Y-46997D01*
X39121Y-46986D01*
X39103Y-46979D01*
X39084Y-46975D01*
X38825Y-46975D01*
X38800Y-47000D01*
X38800Y-47144D01*
X38800Y-47184D01*
X38800Y-47304D01*
X38800Y-47344D01*
X38800Y-47488D01*
X38825Y-47513D01*
X39084Y-47513D01*
X39103Y-47509D01*
X39121Y-47502D01*
X39138Y-47491D01*
X39152Y-47477D01*
X39162Y-47461D01*
X39163Y-47458D01*
X39168Y-47469D01*
X39181Y-47489D01*
X39197Y-47505D01*
X39216Y-47518D01*
X39238Y-47527D01*
X39261Y-47532D01*
X39284Y-47532D01*
X39404Y-47532D01*
X39404Y-47561D01*
X39409Y-47584D01*
X39418Y-47605D01*
X39431Y-47625D01*
X39447Y-47641D01*
X39466Y-47654D01*
X39488Y-47663D01*
X39511Y-47668D01*
X39534Y-47668D01*
X40165Y-47668D01*
X40188Y-47663D01*
X40209Y-47654D01*
X40229Y-47641D01*
X40245Y-47625D01*
X40258Y-47606D01*
X40267Y-47584D01*
X40272Y-47561D01*
X40272Y-47538D01*
X40272Y-46927D01*
X40267Y-46904D01*
X40258Y-46883D01*
X40245Y-46863D01*
X40229Y-46847D01*
X40210Y-46834D01*
X40188Y-46825D01*
X40165Y-46820D01*
X40142Y-46820D01*
X40107Y-46820D01*
X40107Y-45906D01*
X40685Y-45906D01*
X40685Y-48582D01*
X40685Y-48582D01*
G37*
G54D27*
X40685Y-48582D02*
X38680Y-48582D01*
X38680Y-47488D01*
X38680Y-47304D01*
X38680Y-47184D01*
X38680Y-47000D01*
X38655Y-46975D01*
X38520Y-46975D01*
X38520Y-46948D01*
X38520Y-46929D01*
X38516Y-46909D01*
X38508Y-46891D01*
X38498Y-46875D01*
X38484Y-46861D01*
X38467Y-46850D01*
X38449Y-46843D01*
X38430Y-46839D01*
X38190Y-46839D01*
X38165Y-46864D01*
X38165Y-47184D01*
X38331Y-47184D01*
X38495Y-47184D01*
X38680Y-47184D01*
X38680Y-47304D01*
X38495Y-47304D01*
X38331Y-47304D01*
X38165Y-47304D01*
X38165Y-47624D01*
X38190Y-47649D01*
X38430Y-47649D01*
X38449Y-47645D01*
X38467Y-47638D01*
X38484Y-47627D01*
X38498Y-47613D01*
X38508Y-47597D01*
X38516Y-47579D01*
X38520Y-47559D01*
X38520Y-47540D01*
X38520Y-47513D01*
X38655Y-47513D01*
X38680Y-47488D01*
X38680Y-48582D01*
X38045Y-48582D01*
X38045Y-47624D01*
X38045Y-47304D01*
X38045Y-47184D01*
X38045Y-46864D01*
X38020Y-46839D01*
X37780Y-46839D01*
X37761Y-46843D01*
X37743Y-46850D01*
X37726Y-46861D01*
X37712Y-46875D01*
X37702Y-46891D01*
X37694Y-46909D01*
X37690Y-46929D01*
X37690Y-46948D01*
X37690Y-47159D01*
X37715Y-47184D01*
X38045Y-47184D01*
X38045Y-47304D01*
X37715Y-47304D01*
X37690Y-47329D01*
X37690Y-47540D01*
X37690Y-47559D01*
X37694Y-47579D01*
X37702Y-47597D01*
X37712Y-47613D01*
X37726Y-47627D01*
X37743Y-47638D01*
X37761Y-47645D01*
X37780Y-47649D01*
X38020Y-47649D01*
X38045Y-47624D01*
X38045Y-48582D01*
X37245Y-48582D01*
X37245Y-45906D01*
X39587Y-45906D01*
X39587Y-46820D01*
X39511Y-46820D01*
X39488Y-46825D01*
X39467Y-46834D01*
X39447Y-46847D01*
X39431Y-46863D01*
X39418Y-46882D01*
X39409Y-46904D01*
X39404Y-46927D01*
X39404Y-46950D01*
X39404Y-46956D01*
X39261Y-46956D01*
X39238Y-46961D01*
X39217Y-46970D01*
X39197Y-46983D01*
X39181Y-46999D01*
X39168Y-47018D01*
X39163Y-47029D01*
X39162Y-47027D01*
X39152Y-47011D01*
X39138Y-46997D01*
X39121Y-46986D01*
X39103Y-46979D01*
X39084Y-46975D01*
X38825Y-46975D01*
X38800Y-47000D01*
X38800Y-47144D01*
X38800Y-47184D01*
X38800Y-47304D01*
X38800Y-47344D01*
X38800Y-47488D01*
X38825Y-47513D01*
X39084Y-47513D01*
X39103Y-47509D01*
X39121Y-47502D01*
X39138Y-47491D01*
X39152Y-47477D01*
X39162Y-47461D01*
X39163Y-47458D01*
X39168Y-47469D01*
X39181Y-47489D01*
X39197Y-47505D01*
X39216Y-47518D01*
X39238Y-47527D01*
X39261Y-47532D01*
X39284Y-47532D01*
X39404Y-47532D01*
X39404Y-47561D01*
X39409Y-47584D01*
X39418Y-47605D01*
X39431Y-47625D01*
X39447Y-47641D01*
X39466Y-47654D01*
X39488Y-47663D01*
X39511Y-47668D01*
X39534Y-47668D01*
X40165Y-47668D01*
X40188Y-47663D01*
X40209Y-47654D01*
X40229Y-47641D01*
X40245Y-47625D01*
X40258Y-47606D01*
X40267Y-47584D01*
X40272Y-47561D01*
X40272Y-47538D01*
X40272Y-46927D01*
X40267Y-46904D01*
X40258Y-46883D01*
X40245Y-46863D01*
X40229Y-46847D01*
X40210Y-46834D01*
X40188Y-46825D01*
X40165Y-46820D01*
X40142Y-46820D01*
X40107Y-46820D01*
X40107Y-45906D01*
X40685Y-45906D01*
X40685Y-48582D01*
G54D10*
G36*
X40708Y-41889D02*
X40262Y-41889D01*
X40262Y-40866D01*
X40262Y-40847D01*
X40262Y-40636D01*
X40262Y-40466D01*
X40262Y-40255D01*
X40262Y-40236D01*
X40258Y-40216D01*
X40250Y-40198D01*
X40240Y-40182D01*
X40226Y-40168D01*
X40209Y-40157D01*
X40191Y-40150D01*
X40172Y-40146D01*
X39932Y-40146D01*
X39907Y-40171D01*
X39907Y-40491D01*
X40237Y-40491D01*
X40262Y-40466D01*
X40262Y-40636D01*
X40237Y-40611D01*
X39907Y-40611D01*
X39907Y-40931D01*
X39932Y-40956D01*
X40172Y-40956D01*
X40191Y-40952D01*
X40209Y-40945D01*
X40226Y-40934D01*
X40240Y-40920D01*
X40250Y-40904D01*
X40258Y-40886D01*
X40262Y-40866D01*
X40262Y-41889D01*
X39787Y-41889D01*
X39787Y-40931D01*
X39787Y-40611D01*
X39787Y-40491D01*
X39787Y-40171D01*
X39762Y-40146D01*
X39522Y-40146D01*
X39503Y-40150D01*
X39485Y-40157D01*
X39468Y-40168D01*
X39454Y-40182D01*
X39444Y-40198D01*
X39436Y-40216D01*
X39432Y-40236D01*
X39432Y-40255D01*
X39432Y-40282D01*
X39297Y-40282D01*
X39272Y-40307D01*
X39272Y-40491D01*
X39457Y-40491D01*
X39621Y-40491D01*
X39787Y-40491D01*
X39787Y-40611D01*
X39621Y-40611D01*
X39457Y-40611D01*
X39272Y-40611D01*
X39272Y-40795D01*
X39297Y-40820D01*
X39432Y-40820D01*
X39432Y-40847D01*
X39432Y-40866D01*
X39436Y-40886D01*
X39444Y-40904D01*
X39454Y-40920D01*
X39468Y-40934D01*
X39485Y-40945D01*
X39503Y-40952D01*
X39522Y-40956D01*
X39762Y-40956D01*
X39787Y-40931D01*
X39787Y-41889D01*
X37245Y-41889D01*
X37245Y-40811D01*
X37680Y-40811D01*
X37680Y-40868D01*
X37685Y-40891D01*
X37694Y-40912D01*
X37707Y-40932D01*
X37723Y-40948D01*
X37742Y-40961D01*
X37764Y-40970D01*
X37787Y-40975D01*
X37810Y-40975D01*
X38441Y-40975D01*
X38464Y-40970D01*
X38485Y-40961D01*
X38505Y-40948D01*
X38521Y-40932D01*
X38534Y-40913D01*
X38543Y-40891D01*
X38548Y-40868D01*
X38548Y-40845D01*
X38548Y-40839D01*
X38691Y-40839D01*
X38714Y-40834D01*
X38735Y-40825D01*
X38755Y-40812D01*
X38771Y-40796D01*
X38784Y-40777D01*
X38788Y-40765D01*
X38790Y-40768D01*
X38800Y-40784D01*
X38814Y-40798D01*
X38831Y-40809D01*
X38849Y-40816D01*
X38868Y-40820D01*
X39127Y-40820D01*
X39152Y-40795D01*
X39152Y-40651D01*
X39152Y-40611D01*
X39152Y-40491D01*
X39152Y-40451D01*
X39152Y-40307D01*
X39127Y-40282D01*
X38868Y-40282D01*
X38849Y-40286D01*
X38831Y-40293D01*
X38814Y-40304D01*
X38800Y-40318D01*
X38790Y-40334D01*
X38788Y-40336D01*
X38784Y-40326D01*
X38771Y-40306D01*
X38755Y-40290D01*
X38736Y-40277D01*
X38714Y-40268D01*
X38691Y-40263D01*
X38668Y-40263D01*
X38548Y-40263D01*
X38548Y-40234D01*
X38543Y-40211D01*
X38534Y-40190D01*
X38521Y-40170D01*
X38505Y-40154D01*
X38486Y-40141D01*
X38464Y-40132D01*
X38441Y-40127D01*
X38418Y-40127D01*
X37787Y-40127D01*
X37764Y-40132D01*
X37743Y-40141D01*
X37723Y-40154D01*
X37707Y-40170D01*
X37694Y-40189D01*
X37685Y-40211D01*
X37680Y-40234D01*
X37680Y-40257D01*
X37680Y-40291D01*
X37245Y-40291D01*
X37245Y-39213D01*
X40708Y-39213D01*
X40708Y-41889D01*
X40708Y-41889D01*
G37*
G54D27*
X40708Y-41889D02*
X40262Y-41889D01*
X40262Y-40866D01*
X40262Y-40847D01*
X40262Y-40636D01*
X40262Y-40466D01*
X40262Y-40255D01*
X40262Y-40236D01*
X40258Y-40216D01*
X40250Y-40198D01*
X40240Y-40182D01*
X40226Y-40168D01*
X40209Y-40157D01*
X40191Y-40150D01*
X40172Y-40146D01*
X39932Y-40146D01*
X39907Y-40171D01*
X39907Y-40491D01*
X40237Y-40491D01*
X40262Y-40466D01*
X40262Y-40636D01*
X40237Y-40611D01*
X39907Y-40611D01*
X39907Y-40931D01*
X39932Y-40956D01*
X40172Y-40956D01*
X40191Y-40952D01*
X40209Y-40945D01*
X40226Y-40934D01*
X40240Y-40920D01*
X40250Y-40904D01*
X40258Y-40886D01*
X40262Y-40866D01*
X40262Y-41889D01*
X39787Y-41889D01*
X39787Y-40931D01*
X39787Y-40611D01*
X39787Y-40491D01*
X39787Y-40171D01*
X39762Y-40146D01*
X39522Y-40146D01*
X39503Y-40150D01*
X39485Y-40157D01*
X39468Y-40168D01*
X39454Y-40182D01*
X39444Y-40198D01*
X39436Y-40216D01*
X39432Y-40236D01*
X39432Y-40255D01*
X39432Y-40282D01*
X39297Y-40282D01*
X39272Y-40307D01*
X39272Y-40491D01*
X39457Y-40491D01*
X39621Y-40491D01*
X39787Y-40491D01*
X39787Y-40611D01*
X39621Y-40611D01*
X39457Y-40611D01*
X39272Y-40611D01*
X39272Y-40795D01*
X39297Y-40820D01*
X39432Y-40820D01*
X39432Y-40847D01*
X39432Y-40866D01*
X39436Y-40886D01*
X39444Y-40904D01*
X39454Y-40920D01*
X39468Y-40934D01*
X39485Y-40945D01*
X39503Y-40952D01*
X39522Y-40956D01*
X39762Y-40956D01*
X39787Y-40931D01*
X39787Y-41889D01*
X37245Y-41889D01*
X37245Y-40811D01*
X37680Y-40811D01*
X37680Y-40868D01*
X37685Y-40891D01*
X37694Y-40912D01*
X37707Y-40932D01*
X37723Y-40948D01*
X37742Y-40961D01*
X37764Y-40970D01*
X37787Y-40975D01*
X37810Y-40975D01*
X38441Y-40975D01*
X38464Y-40970D01*
X38485Y-40961D01*
X38505Y-40948D01*
X38521Y-40932D01*
X38534Y-40913D01*
X38543Y-40891D01*
X38548Y-40868D01*
X38548Y-40845D01*
X38548Y-40839D01*
X38691Y-40839D01*
X38714Y-40834D01*
X38735Y-40825D01*
X38755Y-40812D01*
X38771Y-40796D01*
X38784Y-40777D01*
X38788Y-40765D01*
X38790Y-40768D01*
X38800Y-40784D01*
X38814Y-40798D01*
X38831Y-40809D01*
X38849Y-40816D01*
X38868Y-40820D01*
X39127Y-40820D01*
X39152Y-40795D01*
X39152Y-40651D01*
X39152Y-40611D01*
X39152Y-40491D01*
X39152Y-40451D01*
X39152Y-40307D01*
X39127Y-40282D01*
X38868Y-40282D01*
X38849Y-40286D01*
X38831Y-40293D01*
X38814Y-40304D01*
X38800Y-40318D01*
X38790Y-40334D01*
X38788Y-40336D01*
X38784Y-40326D01*
X38771Y-40306D01*
X38755Y-40290D01*
X38736Y-40277D01*
X38714Y-40268D01*
X38691Y-40263D01*
X38668Y-40263D01*
X38548Y-40263D01*
X38548Y-40234D01*
X38543Y-40211D01*
X38534Y-40190D01*
X38521Y-40170D01*
X38505Y-40154D01*
X38486Y-40141D01*
X38464Y-40132D01*
X38441Y-40127D01*
X38418Y-40127D01*
X37787Y-40127D01*
X37764Y-40132D01*
X37743Y-40141D01*
X37723Y-40154D01*
X37707Y-40170D01*
X37694Y-40189D01*
X37685Y-40211D01*
X37680Y-40234D01*
X37680Y-40257D01*
X37680Y-40291D01*
X37245Y-40291D01*
X37245Y-39213D01*
X40708Y-39213D01*
X40708Y-41889D01*
G54D10*
G36*
X31259Y-41889D02*
X30814Y-41889D01*
X30814Y-40866D01*
X30814Y-40847D01*
X30814Y-40636D01*
X30814Y-40466D01*
X30814Y-40255D01*
X30814Y-40236D01*
X30810Y-40216D01*
X30802Y-40198D01*
X30792Y-40182D01*
X30778Y-40168D01*
X30761Y-40157D01*
X30743Y-40150D01*
X30724Y-40146D01*
X30484Y-40146D01*
X30459Y-40171D01*
X30459Y-40491D01*
X30789Y-40491D01*
X30814Y-40466D01*
X30814Y-40636D01*
X30789Y-40611D01*
X30459Y-40611D01*
X30459Y-40931D01*
X30484Y-40956D01*
X30724Y-40956D01*
X30743Y-40952D01*
X30761Y-40945D01*
X30778Y-40934D01*
X30792Y-40920D01*
X30802Y-40904D01*
X30810Y-40886D01*
X30814Y-40866D01*
X30814Y-41889D01*
X30339Y-41889D01*
X30339Y-40931D01*
X30339Y-40611D01*
X30339Y-40491D01*
X30339Y-40171D01*
X30314Y-40146D01*
X30074Y-40146D01*
X30055Y-40150D01*
X30037Y-40157D01*
X30020Y-40168D01*
X30006Y-40182D01*
X29996Y-40198D01*
X29988Y-40216D01*
X29984Y-40236D01*
X29984Y-40255D01*
X29984Y-40282D01*
X29849Y-40282D01*
X29824Y-40307D01*
X29824Y-40491D01*
X30009Y-40491D01*
X30173Y-40491D01*
X30339Y-40491D01*
X30339Y-40611D01*
X30173Y-40611D01*
X30009Y-40611D01*
X29824Y-40611D01*
X29824Y-40795D01*
X29849Y-40820D01*
X29984Y-40820D01*
X29984Y-40847D01*
X29984Y-40866D01*
X29988Y-40886D01*
X29996Y-40904D01*
X30006Y-40920D01*
X30020Y-40934D01*
X30037Y-40945D01*
X30055Y-40952D01*
X30074Y-40956D01*
X30314Y-40956D01*
X30339Y-40931D01*
X30339Y-41889D01*
X28926Y-41889D01*
X28926Y-40975D01*
X28993Y-40975D01*
X29016Y-40970D01*
X29037Y-40961D01*
X29057Y-40948D01*
X29073Y-40932D01*
X29086Y-40913D01*
X29095Y-40891D01*
X29100Y-40868D01*
X29100Y-40845D01*
X29100Y-40839D01*
X29243Y-40839D01*
X29266Y-40834D01*
X29287Y-40825D01*
X29307Y-40812D01*
X29323Y-40796D01*
X29336Y-40777D01*
X29340Y-40765D01*
X29342Y-40768D01*
X29352Y-40784D01*
X29366Y-40798D01*
X29383Y-40809D01*
X29401Y-40816D01*
X29420Y-40820D01*
X29679Y-40820D01*
X29704Y-40795D01*
X29704Y-40651D01*
X29704Y-40611D01*
X29704Y-40491D01*
X29704Y-40451D01*
X29704Y-40307D01*
X29679Y-40282D01*
X29420Y-40282D01*
X29401Y-40286D01*
X29383Y-40293D01*
X29366Y-40304D01*
X29352Y-40318D01*
X29342Y-40334D01*
X29340Y-40336D01*
X29336Y-40326D01*
X29323Y-40306D01*
X29307Y-40290D01*
X29288Y-40277D01*
X29266Y-40268D01*
X29243Y-40263D01*
X29220Y-40263D01*
X29100Y-40263D01*
X29100Y-40234D01*
X29095Y-40211D01*
X29086Y-40190D01*
X29073Y-40170D01*
X29057Y-40154D01*
X29038Y-40141D01*
X29016Y-40132D01*
X28993Y-40127D01*
X28970Y-40127D01*
X28339Y-40127D01*
X28316Y-40132D01*
X28295Y-40141D01*
X28275Y-40154D01*
X28259Y-40170D01*
X28246Y-40189D01*
X28237Y-40211D01*
X28232Y-40234D01*
X28232Y-40257D01*
X28232Y-40868D01*
X28237Y-40891D01*
X28246Y-40912D01*
X28259Y-40932D01*
X28275Y-40948D01*
X28294Y-40961D01*
X28316Y-40970D01*
X28339Y-40975D01*
X28362Y-40975D01*
X28406Y-40975D01*
X28406Y-41889D01*
X27796Y-41889D01*
X27796Y-39213D01*
X31259Y-39213D01*
X31259Y-41889D01*
X31259Y-41889D01*
G37*
G54D27*
X31259Y-41889D02*
X30814Y-41889D01*
X30814Y-40866D01*
X30814Y-40847D01*
X30814Y-40636D01*
X30814Y-40466D01*
X30814Y-40255D01*
X30814Y-40236D01*
X30810Y-40216D01*
X30802Y-40198D01*
X30792Y-40182D01*
X30778Y-40168D01*
X30761Y-40157D01*
X30743Y-40150D01*
X30724Y-40146D01*
X30484Y-40146D01*
X30459Y-40171D01*
X30459Y-40491D01*
X30789Y-40491D01*
X30814Y-40466D01*
X30814Y-40636D01*
X30789Y-40611D01*
X30459Y-40611D01*
X30459Y-40931D01*
X30484Y-40956D01*
X30724Y-40956D01*
X30743Y-40952D01*
X30761Y-40945D01*
X30778Y-40934D01*
X30792Y-40920D01*
X30802Y-40904D01*
X30810Y-40886D01*
X30814Y-40866D01*
X30814Y-41889D01*
X30339Y-41889D01*
X30339Y-40931D01*
X30339Y-40611D01*
X30339Y-40491D01*
X30339Y-40171D01*
X30314Y-40146D01*
X30074Y-40146D01*
X30055Y-40150D01*
X30037Y-40157D01*
X30020Y-40168D01*
X30006Y-40182D01*
X29996Y-40198D01*
X29988Y-40216D01*
X29984Y-40236D01*
X29984Y-40255D01*
X29984Y-40282D01*
X29849Y-40282D01*
X29824Y-40307D01*
X29824Y-40491D01*
X30009Y-40491D01*
X30173Y-40491D01*
X30339Y-40491D01*
X30339Y-40611D01*
X30173Y-40611D01*
X30009Y-40611D01*
X29824Y-40611D01*
X29824Y-40795D01*
X29849Y-40820D01*
X29984Y-40820D01*
X29984Y-40847D01*
X29984Y-40866D01*
X29988Y-40886D01*
X29996Y-40904D01*
X30006Y-40920D01*
X30020Y-40934D01*
X30037Y-40945D01*
X30055Y-40952D01*
X30074Y-40956D01*
X30314Y-40956D01*
X30339Y-40931D01*
X30339Y-41889D01*
X28926Y-41889D01*
X28926Y-40975D01*
X28993Y-40975D01*
X29016Y-40970D01*
X29037Y-40961D01*
X29057Y-40948D01*
X29073Y-40932D01*
X29086Y-40913D01*
X29095Y-40891D01*
X29100Y-40868D01*
X29100Y-40845D01*
X29100Y-40839D01*
X29243Y-40839D01*
X29266Y-40834D01*
X29287Y-40825D01*
X29307Y-40812D01*
X29323Y-40796D01*
X29336Y-40777D01*
X29340Y-40765D01*
X29342Y-40768D01*
X29352Y-40784D01*
X29366Y-40798D01*
X29383Y-40809D01*
X29401Y-40816D01*
X29420Y-40820D01*
X29679Y-40820D01*
X29704Y-40795D01*
X29704Y-40651D01*
X29704Y-40611D01*
X29704Y-40491D01*
X29704Y-40451D01*
X29704Y-40307D01*
X29679Y-40282D01*
X29420Y-40282D01*
X29401Y-40286D01*
X29383Y-40293D01*
X29366Y-40304D01*
X29352Y-40318D01*
X29342Y-40334D01*
X29340Y-40336D01*
X29336Y-40326D01*
X29323Y-40306D01*
X29307Y-40290D01*
X29288Y-40277D01*
X29266Y-40268D01*
X29243Y-40263D01*
X29220Y-40263D01*
X29100Y-40263D01*
X29100Y-40234D01*
X29095Y-40211D01*
X29086Y-40190D01*
X29073Y-40170D01*
X29057Y-40154D01*
X29038Y-40141D01*
X29016Y-40132D01*
X28993Y-40127D01*
X28970Y-40127D01*
X28339Y-40127D01*
X28316Y-40132D01*
X28295Y-40141D01*
X28275Y-40154D01*
X28259Y-40170D01*
X28246Y-40189D01*
X28237Y-40211D01*
X28232Y-40234D01*
X28232Y-40257D01*
X28232Y-40868D01*
X28237Y-40891D01*
X28246Y-40912D01*
X28259Y-40932D01*
X28275Y-40948D01*
X28294Y-40961D01*
X28316Y-40970D01*
X28339Y-40975D01*
X28362Y-40975D01*
X28406Y-40975D01*
X28406Y-41889D01*
X27796Y-41889D01*
X27796Y-39213D01*
X31259Y-39213D01*
X31259Y-41889D01*
M02*
