G04 (created by PCBNEW (2012-10-05 BZR 3752)-testing) date Tue 13 Nov 2012 09:37:30 PM CET*
%MOIN*%
G04 Gerber Fmt 3.4, Leading zero omitted, Abs format*
%FSLAX34Y34*%
G01*
G70*
G90*
G04 APERTURE LIST*
%ADD10C,0.006*%
%ADD11C,0.012*%
%ADD12C,0.008*%
%ADD13C,0.0001*%
%ADD14C,0.075*%
%ADD15C,0.16*%
%ADD16C,0.025*%
%ADD17C,0.035*%
G04 APERTURE END LIST*
G54D10*
G54D11*
X38418Y-55751D02*
X38305Y-56145D01*
X38192Y-55863D01*
X38080Y-56145D01*
X37967Y-55751D01*
X37799Y-55751D02*
X37686Y-56145D01*
X37573Y-55863D01*
X37461Y-56145D01*
X37348Y-55751D01*
X37180Y-55751D02*
X37067Y-56145D01*
X36954Y-55863D01*
X36842Y-56145D01*
X36729Y-55751D01*
X36504Y-56088D02*
X36476Y-56117D01*
X36504Y-56145D01*
X36532Y-56117D01*
X36504Y-56088D01*
X36504Y-56145D01*
X36223Y-56145D02*
X36223Y-55554D01*
X36167Y-55920D02*
X35998Y-56145D01*
X35998Y-55751D02*
X36223Y-55976D01*
X35745Y-56145D02*
X35745Y-55751D01*
X35745Y-55554D02*
X35773Y-55582D01*
X35745Y-55610D01*
X35717Y-55582D01*
X35745Y-55554D01*
X35745Y-55610D01*
X35211Y-56117D02*
X35267Y-56145D01*
X35380Y-56145D01*
X35436Y-56117D01*
X35464Y-56088D01*
X35492Y-56032D01*
X35492Y-55863D01*
X35464Y-55807D01*
X35436Y-55779D01*
X35380Y-55751D01*
X35267Y-55751D01*
X35211Y-55779D01*
X34704Y-56145D02*
X34704Y-55835D01*
X34732Y-55779D01*
X34788Y-55751D01*
X34901Y-55751D01*
X34957Y-55779D01*
X34704Y-56117D02*
X34760Y-56145D01*
X34901Y-56145D01*
X34957Y-56117D01*
X34985Y-56060D01*
X34985Y-56004D01*
X34957Y-55948D01*
X34901Y-55920D01*
X34760Y-55920D01*
X34704Y-55891D01*
X34169Y-56145D02*
X34169Y-55554D01*
X34169Y-56117D02*
X34225Y-56145D01*
X34338Y-56145D01*
X34394Y-56117D01*
X34422Y-56088D01*
X34450Y-56032D01*
X34450Y-55863D01*
X34422Y-55807D01*
X34394Y-55779D01*
X34338Y-55751D01*
X34225Y-55751D01*
X34169Y-55779D01*
X33887Y-55920D02*
X33437Y-55920D01*
X33155Y-55751D02*
X33155Y-56342D01*
X33155Y-55779D02*
X33099Y-55751D01*
X32986Y-55751D01*
X32930Y-55779D01*
X32902Y-55807D01*
X32874Y-55863D01*
X32874Y-56032D01*
X32902Y-56088D01*
X32930Y-56117D01*
X32986Y-56145D01*
X33099Y-56145D01*
X33155Y-56117D01*
X32367Y-56117D02*
X32423Y-56145D01*
X32536Y-56145D01*
X32592Y-56117D01*
X32620Y-56088D01*
X32648Y-56032D01*
X32648Y-55863D01*
X32620Y-55807D01*
X32592Y-55779D01*
X32536Y-55751D01*
X32423Y-55751D01*
X32367Y-55779D01*
X32113Y-56145D02*
X32113Y-55554D01*
X32113Y-55779D02*
X32057Y-55751D01*
X31944Y-55751D01*
X31888Y-55779D01*
X31860Y-55807D01*
X31832Y-55863D01*
X31832Y-56032D01*
X31860Y-56088D01*
X31888Y-56117D01*
X31944Y-56145D01*
X32057Y-56145D01*
X32113Y-56117D01*
X31578Y-56088D02*
X31550Y-56117D01*
X31578Y-56145D01*
X31606Y-56117D01*
X31578Y-56088D01*
X31578Y-56145D01*
X31213Y-56145D02*
X31269Y-56117D01*
X31297Y-56088D01*
X31325Y-56032D01*
X31325Y-55863D01*
X31297Y-55807D01*
X31269Y-55779D01*
X31213Y-55751D01*
X31128Y-55751D01*
X31072Y-55779D01*
X31044Y-55807D01*
X31016Y-55863D01*
X31016Y-56032D01*
X31044Y-56088D01*
X31072Y-56117D01*
X31128Y-56145D01*
X31213Y-56145D01*
X30762Y-56145D02*
X30762Y-55751D01*
X30762Y-55863D02*
X30734Y-55807D01*
X30706Y-55779D01*
X30650Y-55751D01*
X30593Y-55751D01*
X30143Y-55751D02*
X30143Y-56229D01*
X30171Y-56285D01*
X30199Y-56314D01*
X30256Y-56342D01*
X30340Y-56342D01*
X30396Y-56314D01*
X30143Y-56117D02*
X30199Y-56145D01*
X30312Y-56145D01*
X30368Y-56117D01*
X30396Y-56088D01*
X30424Y-56032D01*
X30424Y-55863D01*
X30396Y-55807D01*
X30368Y-55779D01*
X30312Y-55751D01*
X30199Y-55751D01*
X30143Y-55779D01*
G54D12*
X43304Y-44531D02*
X43342Y-44512D01*
X43399Y-44512D01*
X43457Y-44531D01*
X43495Y-44569D01*
X43514Y-44607D01*
X43533Y-44683D01*
X43533Y-44740D01*
X43514Y-44817D01*
X43495Y-44855D01*
X43457Y-44893D01*
X43399Y-44912D01*
X43361Y-44912D01*
X43304Y-44893D01*
X43285Y-44874D01*
X43285Y-44740D01*
X43361Y-44740D01*
X43114Y-44912D02*
X43114Y-44512D01*
X42885Y-44912D01*
X42885Y-44512D01*
X42695Y-44912D02*
X42695Y-44512D01*
X42600Y-44512D01*
X42542Y-44531D01*
X42504Y-44569D01*
X42485Y-44607D01*
X42466Y-44683D01*
X42466Y-44740D01*
X42485Y-44817D01*
X42504Y-44855D01*
X42542Y-44893D01*
X42600Y-44912D01*
X42695Y-44912D01*
X43533Y-46512D02*
X43400Y-46912D01*
X43266Y-46512D01*
X42904Y-46874D02*
X42923Y-46893D01*
X42980Y-46912D01*
X43018Y-46912D01*
X43076Y-46893D01*
X43114Y-46855D01*
X43133Y-46817D01*
X43152Y-46740D01*
X43152Y-46683D01*
X43133Y-46607D01*
X43114Y-46569D01*
X43076Y-46531D01*
X43018Y-46512D01*
X42980Y-46512D01*
X42923Y-46531D01*
X42904Y-46550D01*
X42504Y-46874D02*
X42523Y-46893D01*
X42580Y-46912D01*
X42618Y-46912D01*
X42676Y-46893D01*
X42714Y-46855D01*
X42733Y-46817D01*
X42752Y-46740D01*
X42752Y-46683D01*
X42733Y-46607D01*
X42714Y-46569D01*
X42676Y-46531D01*
X42618Y-46512D01*
X42580Y-46512D01*
X42523Y-46531D01*
X42504Y-46550D01*
X43304Y-45531D02*
X43342Y-45512D01*
X43399Y-45512D01*
X43457Y-45531D01*
X43495Y-45569D01*
X43514Y-45607D01*
X43533Y-45683D01*
X43533Y-45740D01*
X43514Y-45817D01*
X43495Y-45855D01*
X43457Y-45893D01*
X43399Y-45912D01*
X43361Y-45912D01*
X43304Y-45893D01*
X43285Y-45874D01*
X43285Y-45740D01*
X43361Y-45740D01*
X43114Y-45912D02*
X43114Y-45512D01*
X42885Y-45912D01*
X42885Y-45512D01*
X42695Y-45912D02*
X42695Y-45512D01*
X42600Y-45512D01*
X42542Y-45531D01*
X42504Y-45569D01*
X42485Y-45607D01*
X42466Y-45683D01*
X42466Y-45740D01*
X42485Y-45817D01*
X42504Y-45855D01*
X42542Y-45893D01*
X42600Y-45912D01*
X42695Y-45912D01*
X43533Y-47512D02*
X43400Y-47912D01*
X43266Y-47512D01*
X42904Y-47874D02*
X42923Y-47893D01*
X42980Y-47912D01*
X43018Y-47912D01*
X43076Y-47893D01*
X43114Y-47855D01*
X43133Y-47817D01*
X43152Y-47740D01*
X43152Y-47683D01*
X43133Y-47607D01*
X43114Y-47569D01*
X43076Y-47531D01*
X43018Y-47512D01*
X42980Y-47512D01*
X42923Y-47531D01*
X42904Y-47550D01*
X42504Y-47874D02*
X42523Y-47893D01*
X42580Y-47912D01*
X42618Y-47912D01*
X42676Y-47893D01*
X42714Y-47855D01*
X42733Y-47817D01*
X42752Y-47740D01*
X42752Y-47683D01*
X42733Y-47607D01*
X42714Y-47569D01*
X42676Y-47531D01*
X42618Y-47512D01*
X42580Y-47512D01*
X42523Y-47531D01*
X42504Y-47550D01*
X43428Y-49912D02*
X43428Y-49512D01*
X43333Y-49512D01*
X43275Y-49531D01*
X43237Y-49569D01*
X43218Y-49607D01*
X43199Y-49683D01*
X43199Y-49740D01*
X43218Y-49817D01*
X43237Y-49855D01*
X43275Y-49893D01*
X43333Y-49912D01*
X43428Y-49912D01*
X43028Y-49912D02*
X43028Y-49512D01*
X42838Y-49912D02*
X42838Y-49512D01*
X42704Y-49798D01*
X42571Y-49512D01*
X42571Y-49912D01*
X43314Y-48912D02*
X43314Y-48512D01*
X43085Y-48912D01*
X43085Y-48512D01*
X42666Y-48874D02*
X42685Y-48893D01*
X42742Y-48912D01*
X42780Y-48912D01*
X42838Y-48893D01*
X42876Y-48855D01*
X42895Y-48817D01*
X42914Y-48740D01*
X42914Y-48683D01*
X42895Y-48607D01*
X42876Y-48569D01*
X42838Y-48531D01*
X42780Y-48512D01*
X42742Y-48512D01*
X42685Y-48531D01*
X42666Y-48550D01*
X36766Y-48581D02*
X36633Y-48981D01*
X36499Y-48581D01*
X36137Y-48943D02*
X36156Y-48962D01*
X36213Y-48981D01*
X36251Y-48981D01*
X36309Y-48962D01*
X36347Y-48924D01*
X36366Y-48886D01*
X36385Y-48809D01*
X36385Y-48752D01*
X36366Y-48676D01*
X36347Y-48638D01*
X36309Y-48600D01*
X36251Y-48581D01*
X36213Y-48581D01*
X36156Y-48600D01*
X36137Y-48619D01*
X35737Y-48943D02*
X35756Y-48962D01*
X35813Y-48981D01*
X35851Y-48981D01*
X35909Y-48962D01*
X35947Y-48924D01*
X35966Y-48886D01*
X35985Y-48809D01*
X35985Y-48752D01*
X35966Y-48676D01*
X35947Y-48638D01*
X35909Y-48600D01*
X35851Y-48581D01*
X35813Y-48581D01*
X35756Y-48600D01*
X35737Y-48619D01*
X35566Y-48943D02*
X35547Y-48962D01*
X35566Y-48981D01*
X35585Y-48962D01*
X35566Y-48943D01*
X35566Y-48981D01*
X35566Y-48733D02*
X35547Y-48752D01*
X35566Y-48771D01*
X35585Y-48752D01*
X35566Y-48733D01*
X35566Y-48771D01*
X34861Y-48981D02*
X35090Y-48981D01*
X34976Y-48981D02*
X34976Y-48581D01*
X35014Y-48638D01*
X35052Y-48676D01*
X35090Y-48695D01*
X34633Y-48752D02*
X34671Y-48733D01*
X34690Y-48714D01*
X34709Y-48676D01*
X34709Y-48657D01*
X34690Y-48619D01*
X34671Y-48600D01*
X34633Y-48581D01*
X34556Y-48581D01*
X34518Y-48600D01*
X34499Y-48619D01*
X34480Y-48657D01*
X34480Y-48676D01*
X34499Y-48714D01*
X34518Y-48733D01*
X34556Y-48752D01*
X34633Y-48752D01*
X34671Y-48771D01*
X34690Y-48790D01*
X34709Y-48829D01*
X34709Y-48905D01*
X34690Y-48943D01*
X34671Y-48962D01*
X34633Y-48981D01*
X34556Y-48981D01*
X34518Y-48962D01*
X34499Y-48943D01*
X34480Y-48905D01*
X34480Y-48829D01*
X34499Y-48790D01*
X34518Y-48771D01*
X34556Y-48752D01*
X34309Y-48829D02*
X34004Y-48829D01*
X33833Y-48619D02*
X33814Y-48600D01*
X33776Y-48581D01*
X33680Y-48581D01*
X33642Y-48600D01*
X33623Y-48619D01*
X33604Y-48657D01*
X33604Y-48695D01*
X33623Y-48752D01*
X33852Y-48981D01*
X33604Y-48981D01*
X33261Y-48714D02*
X33261Y-48981D01*
X33357Y-48562D02*
X33452Y-48848D01*
X33204Y-48848D01*
X33109Y-48581D02*
X32976Y-48981D01*
X32842Y-48581D01*
X32404Y-48981D02*
X32404Y-48581D01*
X32309Y-48581D01*
X32251Y-48600D01*
X32213Y-48638D01*
X32194Y-48676D01*
X32175Y-48752D01*
X32175Y-48809D01*
X32194Y-48886D01*
X32213Y-48924D01*
X32251Y-48962D01*
X32309Y-48981D01*
X32404Y-48981D01*
X31775Y-48943D02*
X31794Y-48962D01*
X31851Y-48981D01*
X31889Y-48981D01*
X31947Y-48962D01*
X31985Y-48924D01*
X32004Y-48886D01*
X32023Y-48809D01*
X32023Y-48752D01*
X32004Y-48676D01*
X31985Y-48638D01*
X31947Y-48600D01*
X31889Y-48581D01*
X31851Y-48581D01*
X31794Y-48600D01*
X31775Y-48619D01*
X38347Y-49621D02*
X38347Y-49221D01*
X38252Y-49221D01*
X38194Y-49240D01*
X38156Y-49278D01*
X38137Y-49316D01*
X38118Y-49392D01*
X38118Y-49449D01*
X38137Y-49526D01*
X38156Y-49564D01*
X38194Y-49602D01*
X38252Y-49621D01*
X38347Y-49621D01*
X37947Y-49621D02*
X37947Y-49221D01*
X37757Y-49621D02*
X37757Y-49221D01*
X37623Y-49507D01*
X37490Y-49221D01*
X37490Y-49621D01*
X37300Y-49583D02*
X37281Y-49602D01*
X37300Y-49621D01*
X37319Y-49602D01*
X37300Y-49583D01*
X37300Y-49621D01*
X37300Y-49373D02*
X37281Y-49392D01*
X37300Y-49411D01*
X37319Y-49392D01*
X37300Y-49373D01*
X37300Y-49411D01*
X36729Y-49221D02*
X36690Y-49221D01*
X36652Y-49240D01*
X36633Y-49259D01*
X36614Y-49297D01*
X36595Y-49373D01*
X36595Y-49469D01*
X36614Y-49545D01*
X36633Y-49583D01*
X36652Y-49602D01*
X36690Y-49621D01*
X36729Y-49621D01*
X36767Y-49602D01*
X36786Y-49583D01*
X36805Y-49545D01*
X36824Y-49469D01*
X36824Y-49373D01*
X36805Y-49297D01*
X36786Y-49259D01*
X36767Y-49240D01*
X36729Y-49221D01*
X36424Y-49469D02*
X36119Y-49469D01*
X35948Y-49259D02*
X35929Y-49240D01*
X35891Y-49221D01*
X35795Y-49221D01*
X35757Y-49240D01*
X35738Y-49259D01*
X35719Y-49297D01*
X35719Y-49335D01*
X35738Y-49392D01*
X35967Y-49621D01*
X35719Y-49621D01*
X35548Y-49583D02*
X35529Y-49602D01*
X35548Y-49621D01*
X35567Y-49602D01*
X35548Y-49583D01*
X35548Y-49621D01*
X35167Y-49221D02*
X35358Y-49221D01*
X35377Y-49411D01*
X35358Y-49392D01*
X35320Y-49373D01*
X35224Y-49373D01*
X35186Y-49392D01*
X35167Y-49411D01*
X35148Y-49449D01*
X35148Y-49545D01*
X35167Y-49583D01*
X35186Y-49602D01*
X35224Y-49621D01*
X35320Y-49621D01*
X35358Y-49602D01*
X35377Y-49583D01*
X35034Y-49221D02*
X34901Y-49621D01*
X34767Y-49221D01*
X34329Y-49621D02*
X34329Y-49221D01*
X34234Y-49221D01*
X34176Y-49240D01*
X34138Y-49278D01*
X34119Y-49316D01*
X34100Y-49392D01*
X34100Y-49449D01*
X34119Y-49526D01*
X34138Y-49564D01*
X34176Y-49602D01*
X34234Y-49621D01*
X34329Y-49621D01*
X33700Y-49583D02*
X33719Y-49602D01*
X33776Y-49621D01*
X33814Y-49621D01*
X33872Y-49602D01*
X33910Y-49564D01*
X33929Y-49526D01*
X33948Y-49449D01*
X33948Y-49392D01*
X33929Y-49316D01*
X33910Y-49278D01*
X33872Y-49240D01*
X33814Y-49221D01*
X33776Y-49221D01*
X33719Y-49240D01*
X33700Y-49259D01*
X33167Y-49621D02*
X33205Y-49602D01*
X33224Y-49583D01*
X33243Y-49545D01*
X33243Y-49430D01*
X33224Y-49392D01*
X33205Y-49373D01*
X33167Y-49354D01*
X33109Y-49354D01*
X33071Y-49373D01*
X33052Y-49392D01*
X33033Y-49430D01*
X33033Y-49545D01*
X33052Y-49583D01*
X33071Y-49602D01*
X33109Y-49621D01*
X33167Y-49621D01*
X32862Y-49621D02*
X32862Y-49354D01*
X32862Y-49430D02*
X32843Y-49392D01*
X32824Y-49373D01*
X32786Y-49354D01*
X32747Y-49354D01*
X32118Y-49221D02*
X32309Y-49221D01*
X32328Y-49411D01*
X32309Y-49392D01*
X32271Y-49373D01*
X32175Y-49373D01*
X32137Y-49392D01*
X32118Y-49411D01*
X32099Y-49449D01*
X32099Y-49545D01*
X32118Y-49583D01*
X32137Y-49602D01*
X32175Y-49621D01*
X32271Y-49621D01*
X32309Y-49602D01*
X32328Y-49583D01*
X31985Y-49221D02*
X31852Y-49621D01*
X31718Y-49221D01*
X31280Y-49621D02*
X31280Y-49221D01*
X31127Y-49221D01*
X31089Y-49240D01*
X31070Y-49259D01*
X31051Y-49297D01*
X31051Y-49354D01*
X31070Y-49392D01*
X31089Y-49411D01*
X31127Y-49430D01*
X31280Y-49430D01*
X30918Y-49221D02*
X30823Y-49621D01*
X30746Y-49335D01*
X30670Y-49621D01*
X30575Y-49221D01*
X30423Y-49621D02*
X30423Y-49221D01*
X30289Y-49507D01*
X30156Y-49221D01*
X30156Y-49621D01*
X41025Y-50863D02*
X41044Y-50882D01*
X41101Y-50901D01*
X41139Y-50901D01*
X41197Y-50882D01*
X41235Y-50844D01*
X41254Y-50806D01*
X41273Y-50729D01*
X41273Y-50672D01*
X41254Y-50596D01*
X41235Y-50558D01*
X41197Y-50520D01*
X41139Y-50501D01*
X41101Y-50501D01*
X41044Y-50520D01*
X41025Y-50539D01*
X40682Y-50501D02*
X40759Y-50501D01*
X40797Y-50520D01*
X40816Y-50539D01*
X40854Y-50596D01*
X40873Y-50672D01*
X40873Y-50825D01*
X40854Y-50863D01*
X40835Y-50882D01*
X40797Y-50901D01*
X40720Y-50901D01*
X40682Y-50882D01*
X40663Y-50863D01*
X40644Y-50825D01*
X40644Y-50729D01*
X40663Y-50691D01*
X40682Y-50672D01*
X40720Y-50653D01*
X40797Y-50653D01*
X40835Y-50672D01*
X40854Y-50691D01*
X40873Y-50729D01*
X40473Y-50863D02*
X40454Y-50882D01*
X40473Y-50901D01*
X40492Y-50882D01*
X40473Y-50863D01*
X40473Y-50901D01*
X40473Y-50653D02*
X40454Y-50672D01*
X40473Y-50691D01*
X40492Y-50672D01*
X40473Y-50653D01*
X40473Y-50691D01*
X39997Y-50882D02*
X39959Y-50901D01*
X39883Y-50901D01*
X39844Y-50882D01*
X39825Y-50844D01*
X39825Y-50825D01*
X39844Y-50787D01*
X39883Y-50768D01*
X39940Y-50768D01*
X39978Y-50749D01*
X39997Y-50710D01*
X39997Y-50691D01*
X39978Y-50653D01*
X39940Y-50634D01*
X39883Y-50634D01*
X39844Y-50653D01*
X39597Y-50901D02*
X39635Y-50882D01*
X39654Y-50863D01*
X39673Y-50825D01*
X39673Y-50710D01*
X39654Y-50672D01*
X39635Y-50653D01*
X39597Y-50634D01*
X39539Y-50634D01*
X39501Y-50653D01*
X39482Y-50672D01*
X39463Y-50710D01*
X39463Y-50825D01*
X39482Y-50863D01*
X39501Y-50882D01*
X39539Y-50901D01*
X39597Y-50901D01*
X39349Y-50634D02*
X39197Y-50634D01*
X39292Y-50901D02*
X39292Y-50558D01*
X39273Y-50520D01*
X39235Y-50501D01*
X39197Y-50501D01*
X39120Y-50634D02*
X38968Y-50634D01*
X39063Y-50501D02*
X39063Y-50844D01*
X39044Y-50882D01*
X39006Y-50901D01*
X38968Y-50901D01*
X38834Y-50749D02*
X38529Y-50749D01*
X38358Y-50882D02*
X38320Y-50901D01*
X38244Y-50901D01*
X38205Y-50882D01*
X38186Y-50844D01*
X38186Y-50825D01*
X38205Y-50787D01*
X38244Y-50768D01*
X38301Y-50768D01*
X38339Y-50749D01*
X38358Y-50710D01*
X38358Y-50691D01*
X38339Y-50653D01*
X38301Y-50634D01*
X38244Y-50634D01*
X38205Y-50653D01*
X38072Y-50634D02*
X37920Y-50634D01*
X38015Y-50501D02*
X38015Y-50844D01*
X37996Y-50882D01*
X37958Y-50901D01*
X37920Y-50901D01*
X37614Y-50901D02*
X37614Y-50691D01*
X37633Y-50653D01*
X37671Y-50634D01*
X37748Y-50634D01*
X37786Y-50653D01*
X37614Y-50882D02*
X37652Y-50901D01*
X37748Y-50901D01*
X37786Y-50882D01*
X37805Y-50844D01*
X37805Y-50806D01*
X37786Y-50768D01*
X37748Y-50749D01*
X37652Y-50749D01*
X37614Y-50729D01*
X37424Y-50901D02*
X37424Y-50634D01*
X37424Y-50710D02*
X37405Y-50672D01*
X37386Y-50653D01*
X37348Y-50634D01*
X37309Y-50634D01*
X37233Y-50634D02*
X37081Y-50634D01*
X37176Y-50501D02*
X37176Y-50844D01*
X37157Y-50882D01*
X37119Y-50901D01*
X37081Y-50901D01*
X36947Y-50863D02*
X36928Y-50882D01*
X36947Y-50901D01*
X36966Y-50882D01*
X36947Y-50863D01*
X36947Y-50901D01*
X36947Y-50653D02*
X36928Y-50672D01*
X36947Y-50691D01*
X36966Y-50672D01*
X36947Y-50653D01*
X36947Y-50691D01*
X36242Y-50901D02*
X36471Y-50901D01*
X36357Y-50901D02*
X36357Y-50501D01*
X36395Y-50558D01*
X36433Y-50596D01*
X36471Y-50615D01*
X36071Y-50863D02*
X36052Y-50882D01*
X36071Y-50901D01*
X36090Y-50882D01*
X36071Y-50863D01*
X36071Y-50901D01*
X35900Y-50539D02*
X35881Y-50520D01*
X35843Y-50501D01*
X35747Y-50501D01*
X35709Y-50520D01*
X35690Y-50539D01*
X35671Y-50577D01*
X35671Y-50615D01*
X35690Y-50672D01*
X35919Y-50901D01*
X35671Y-50901D01*
X35309Y-50501D02*
X35500Y-50501D01*
X35519Y-50691D01*
X35500Y-50672D01*
X35462Y-50653D01*
X35366Y-50653D01*
X35328Y-50672D01*
X35309Y-50691D01*
X35290Y-50729D01*
X35290Y-50825D01*
X35309Y-50863D01*
X35328Y-50882D01*
X35366Y-50901D01*
X35462Y-50901D01*
X35500Y-50882D01*
X35519Y-50863D01*
X35119Y-50634D02*
X35119Y-51034D01*
X34928Y-50844D02*
X34909Y-50882D01*
X34871Y-50901D01*
X35119Y-50844D02*
X35100Y-50882D01*
X35062Y-50901D01*
X34985Y-50901D01*
X34947Y-50882D01*
X34928Y-50844D01*
X34928Y-50634D01*
X34566Y-50691D02*
X34700Y-50691D01*
X34700Y-50901D02*
X34700Y-50501D01*
X34509Y-50501D01*
X34071Y-50482D02*
X34414Y-50996D01*
X33957Y-50882D02*
X33919Y-50901D01*
X33843Y-50901D01*
X33804Y-50882D01*
X33785Y-50844D01*
X33785Y-50825D01*
X33804Y-50787D01*
X33843Y-50768D01*
X33900Y-50768D01*
X33938Y-50749D01*
X33957Y-50710D01*
X33957Y-50691D01*
X33938Y-50653D01*
X33900Y-50634D01*
X33843Y-50634D01*
X33804Y-50653D01*
X33194Y-51053D02*
X33214Y-51034D01*
X33252Y-50977D01*
X33271Y-50939D01*
X33290Y-50882D01*
X33309Y-50787D01*
X33309Y-50710D01*
X33290Y-50615D01*
X33271Y-50558D01*
X33252Y-50520D01*
X33214Y-50463D01*
X33194Y-50444D01*
X33061Y-50882D02*
X33023Y-50901D01*
X32947Y-50901D01*
X32908Y-50882D01*
X32889Y-50844D01*
X32889Y-50825D01*
X32908Y-50787D01*
X32947Y-50768D01*
X33004Y-50768D01*
X33042Y-50749D01*
X33061Y-50710D01*
X33061Y-50691D01*
X33042Y-50653D01*
X33004Y-50634D01*
X32947Y-50634D01*
X32908Y-50653D01*
X32718Y-50901D02*
X32718Y-50501D01*
X32680Y-50749D02*
X32565Y-50901D01*
X32565Y-50634D02*
X32718Y-50787D01*
X32394Y-50901D02*
X32394Y-50634D01*
X32394Y-50501D02*
X32413Y-50520D01*
X32394Y-50539D01*
X32375Y-50520D01*
X32394Y-50501D01*
X32394Y-50539D01*
X32204Y-50634D02*
X32204Y-51034D01*
X32204Y-50653D02*
X32166Y-50634D01*
X32089Y-50634D01*
X32051Y-50653D01*
X32032Y-50672D01*
X32013Y-50710D01*
X32013Y-50825D01*
X32032Y-50863D01*
X32051Y-50882D01*
X32089Y-50901D01*
X32166Y-50901D01*
X32204Y-50882D01*
X31575Y-50634D02*
X31499Y-50901D01*
X31422Y-50710D01*
X31346Y-50901D01*
X31270Y-50634D01*
X31118Y-50901D02*
X31118Y-50634D01*
X31118Y-50501D02*
X31137Y-50520D01*
X31118Y-50539D01*
X31099Y-50520D01*
X31118Y-50501D01*
X31118Y-50539D01*
X30985Y-50634D02*
X30833Y-50634D01*
X30928Y-50501D02*
X30928Y-50844D01*
X30909Y-50882D01*
X30871Y-50901D01*
X30833Y-50901D01*
X30699Y-50901D02*
X30699Y-50501D01*
X30527Y-50901D02*
X30527Y-50691D01*
X30546Y-50653D01*
X30584Y-50634D01*
X30642Y-50634D01*
X30680Y-50653D01*
X30699Y-50672D01*
X29879Y-50882D02*
X29917Y-50901D01*
X29994Y-50901D01*
X30032Y-50882D01*
X30051Y-50844D01*
X30051Y-50691D01*
X30032Y-50653D01*
X29994Y-50634D01*
X29917Y-50634D01*
X29879Y-50653D01*
X29860Y-50691D01*
X29860Y-50729D01*
X30051Y-50768D01*
X29727Y-50901D02*
X29517Y-50634D01*
X29727Y-50634D02*
X29517Y-50901D01*
X29422Y-50634D02*
X29270Y-50634D01*
X29365Y-50501D02*
X29365Y-50844D01*
X29346Y-50882D01*
X29308Y-50901D01*
X29270Y-50901D01*
X29136Y-50863D02*
X29117Y-50882D01*
X29136Y-50901D01*
X29155Y-50882D01*
X29136Y-50863D01*
X29136Y-50901D01*
X28641Y-50901D02*
X28641Y-50501D01*
X28488Y-50501D01*
X28450Y-50520D01*
X28431Y-50539D01*
X28412Y-50577D01*
X28412Y-50634D01*
X28431Y-50672D01*
X28450Y-50691D01*
X28488Y-50710D01*
X28641Y-50710D01*
X28279Y-50501D02*
X28184Y-50901D01*
X28107Y-50615D01*
X28031Y-50901D01*
X27936Y-50501D01*
X27784Y-50901D02*
X27784Y-50501D01*
X27650Y-50787D01*
X27517Y-50501D01*
X27517Y-50901D01*
X27365Y-51053D02*
X27346Y-51034D01*
X27308Y-50977D01*
X27289Y-50939D01*
X27270Y-50882D01*
X27251Y-50787D01*
X27251Y-50710D01*
X27270Y-50615D01*
X27289Y-50558D01*
X27308Y-50520D01*
X27346Y-50463D01*
X27365Y-50444D01*
X40453Y-51541D02*
X40587Y-51350D01*
X40682Y-51541D02*
X40682Y-51141D01*
X40529Y-51141D01*
X40491Y-51160D01*
X40472Y-51179D01*
X40453Y-51217D01*
X40453Y-51274D01*
X40472Y-51312D01*
X40491Y-51331D01*
X40529Y-51350D01*
X40682Y-51350D01*
X40301Y-51179D02*
X40282Y-51160D01*
X40244Y-51141D01*
X40148Y-51141D01*
X40110Y-51160D01*
X40091Y-51179D01*
X40072Y-51217D01*
X40072Y-51255D01*
X40091Y-51312D01*
X40320Y-51541D01*
X40072Y-51541D01*
X39901Y-51503D02*
X39882Y-51522D01*
X39901Y-51541D01*
X39920Y-51522D01*
X39901Y-51503D01*
X39901Y-51541D01*
X39901Y-51293D02*
X39882Y-51312D01*
X39901Y-51331D01*
X39920Y-51312D01*
X39901Y-51293D01*
X39901Y-51331D01*
X39196Y-51541D02*
X39425Y-51541D01*
X39311Y-51541D02*
X39311Y-51141D01*
X39349Y-51198D01*
X39387Y-51236D01*
X39425Y-51255D01*
X39025Y-51541D02*
X39025Y-51141D01*
X38891Y-51427D01*
X38758Y-51141D01*
X38758Y-51541D01*
X38301Y-51274D02*
X38225Y-51541D01*
X38148Y-51350D01*
X38072Y-51541D01*
X37996Y-51274D01*
X37844Y-51541D02*
X37844Y-51274D01*
X37844Y-51141D02*
X37863Y-51160D01*
X37844Y-51179D01*
X37825Y-51160D01*
X37844Y-51141D01*
X37844Y-51179D01*
X37711Y-51274D02*
X37559Y-51274D01*
X37654Y-51141D02*
X37654Y-51484D01*
X37635Y-51522D01*
X37597Y-51541D01*
X37559Y-51541D01*
X37425Y-51541D02*
X37425Y-51141D01*
X37253Y-51541D02*
X37253Y-51331D01*
X37272Y-51293D01*
X37310Y-51274D01*
X37368Y-51274D01*
X37406Y-51293D01*
X37425Y-51312D01*
X36777Y-51522D02*
X36739Y-51541D01*
X36663Y-51541D01*
X36624Y-51522D01*
X36605Y-51484D01*
X36605Y-51465D01*
X36624Y-51427D01*
X36663Y-51408D01*
X36720Y-51408D01*
X36758Y-51389D01*
X36777Y-51350D01*
X36777Y-51331D01*
X36758Y-51293D01*
X36720Y-51274D01*
X36663Y-51274D01*
X36624Y-51293D01*
X36377Y-51541D02*
X36415Y-51522D01*
X36434Y-51503D01*
X36453Y-51465D01*
X36453Y-51350D01*
X36434Y-51312D01*
X36415Y-51293D01*
X36377Y-51274D01*
X36319Y-51274D01*
X36281Y-51293D01*
X36262Y-51312D01*
X36243Y-51350D01*
X36243Y-51465D01*
X36262Y-51503D01*
X36281Y-51522D01*
X36319Y-51541D01*
X36377Y-51541D01*
X36129Y-51274D02*
X35977Y-51274D01*
X36072Y-51541D02*
X36072Y-51198D01*
X36053Y-51160D01*
X36015Y-51141D01*
X35977Y-51141D01*
X35900Y-51274D02*
X35748Y-51274D01*
X35843Y-51141D02*
X35843Y-51484D01*
X35824Y-51522D01*
X35786Y-51541D01*
X35748Y-51541D01*
X35614Y-51389D02*
X35309Y-51389D01*
X35138Y-51522D02*
X35100Y-51541D01*
X35024Y-51541D01*
X34985Y-51522D01*
X34966Y-51484D01*
X34966Y-51465D01*
X34985Y-51427D01*
X35024Y-51408D01*
X35081Y-51408D01*
X35119Y-51389D01*
X35138Y-51350D01*
X35138Y-51331D01*
X35119Y-51293D01*
X35081Y-51274D01*
X35024Y-51274D01*
X34985Y-51293D01*
X34852Y-51274D02*
X34700Y-51274D01*
X34795Y-51141D02*
X34795Y-51484D01*
X34776Y-51522D01*
X34738Y-51541D01*
X34700Y-51541D01*
X34394Y-51541D02*
X34394Y-51331D01*
X34413Y-51293D01*
X34451Y-51274D01*
X34528Y-51274D01*
X34566Y-51293D01*
X34394Y-51522D02*
X34432Y-51541D01*
X34528Y-51541D01*
X34566Y-51522D01*
X34585Y-51484D01*
X34585Y-51446D01*
X34566Y-51408D01*
X34528Y-51389D01*
X34432Y-51389D01*
X34394Y-51369D01*
X34204Y-51541D02*
X34204Y-51274D01*
X34204Y-51350D02*
X34185Y-51312D01*
X34166Y-51293D01*
X34128Y-51274D01*
X34089Y-51274D01*
X34013Y-51274D02*
X33861Y-51274D01*
X33956Y-51141D02*
X33956Y-51484D01*
X33937Y-51522D01*
X33899Y-51541D01*
X33861Y-51541D01*
X33708Y-51522D02*
X33708Y-51541D01*
X33727Y-51579D01*
X33746Y-51598D01*
X33022Y-51541D02*
X33251Y-51541D01*
X33137Y-51541D02*
X33137Y-51141D01*
X33175Y-51198D01*
X33213Y-51236D01*
X33251Y-51255D01*
X32775Y-51141D02*
X32736Y-51141D01*
X32698Y-51160D01*
X32679Y-51179D01*
X32660Y-51217D01*
X32641Y-51293D01*
X32641Y-51389D01*
X32660Y-51465D01*
X32679Y-51503D01*
X32698Y-51522D01*
X32736Y-51541D01*
X32775Y-51541D01*
X32813Y-51522D01*
X32832Y-51503D01*
X32851Y-51465D01*
X32870Y-51389D01*
X32870Y-51293D01*
X32851Y-51217D01*
X32832Y-51179D01*
X32813Y-51160D01*
X32775Y-51141D01*
X32470Y-51541D02*
X32470Y-51141D01*
X32432Y-51389D02*
X32317Y-51541D01*
X32317Y-51274D02*
X32470Y-51427D01*
X31879Y-51274D02*
X31803Y-51541D01*
X31726Y-51350D01*
X31650Y-51541D01*
X31574Y-51274D01*
X31422Y-51541D02*
X31422Y-51274D01*
X31422Y-51141D02*
X31441Y-51160D01*
X31422Y-51179D01*
X31403Y-51160D01*
X31422Y-51141D01*
X31422Y-51179D01*
X31289Y-51274D02*
X31137Y-51274D01*
X31232Y-51141D02*
X31232Y-51484D01*
X31213Y-51522D01*
X31175Y-51541D01*
X31137Y-51541D01*
X31003Y-51541D02*
X31003Y-51141D01*
X30831Y-51541D02*
X30831Y-51331D01*
X30850Y-51293D01*
X30888Y-51274D01*
X30946Y-51274D01*
X30984Y-51293D01*
X31003Y-51312D01*
X30183Y-51522D02*
X30221Y-51541D01*
X30298Y-51541D01*
X30336Y-51522D01*
X30355Y-51484D01*
X30355Y-51331D01*
X30336Y-51293D01*
X30298Y-51274D01*
X30221Y-51274D01*
X30183Y-51293D01*
X30164Y-51331D01*
X30164Y-51369D01*
X30355Y-51408D01*
X30031Y-51541D02*
X29821Y-51274D01*
X30031Y-51274D02*
X29821Y-51541D01*
X29726Y-51274D02*
X29574Y-51274D01*
X29669Y-51141D02*
X29669Y-51484D01*
X29650Y-51522D01*
X29612Y-51541D01*
X29574Y-51541D01*
X29440Y-51503D02*
X29421Y-51522D01*
X29440Y-51541D01*
X29459Y-51522D01*
X29440Y-51503D01*
X29440Y-51541D01*
X28945Y-51541D02*
X28945Y-51141D01*
X28792Y-51141D01*
X28754Y-51160D01*
X28735Y-51179D01*
X28716Y-51217D01*
X28716Y-51274D01*
X28735Y-51312D01*
X28754Y-51331D01*
X28792Y-51350D01*
X28945Y-51350D01*
X28583Y-51141D02*
X28488Y-51541D01*
X28411Y-51255D01*
X28335Y-51541D01*
X28240Y-51141D01*
X28088Y-51541D02*
X28088Y-51141D01*
X27954Y-51427D01*
X27821Y-51141D01*
X27821Y-51541D01*
X25814Y-48912D02*
X25814Y-48512D01*
X25585Y-48912D01*
X25585Y-48512D01*
X25166Y-48874D02*
X25185Y-48893D01*
X25242Y-48912D01*
X25280Y-48912D01*
X25338Y-48893D01*
X25376Y-48855D01*
X25395Y-48817D01*
X25414Y-48740D01*
X25414Y-48683D01*
X25395Y-48607D01*
X25376Y-48569D01*
X25338Y-48531D01*
X25280Y-48512D01*
X25242Y-48512D01*
X25185Y-48531D01*
X25166Y-48550D01*
X25928Y-49912D02*
X25928Y-49512D01*
X25833Y-49512D01*
X25775Y-49531D01*
X25737Y-49569D01*
X25718Y-49607D01*
X25699Y-49683D01*
X25699Y-49740D01*
X25718Y-49817D01*
X25737Y-49855D01*
X25775Y-49893D01*
X25833Y-49912D01*
X25928Y-49912D01*
X25528Y-49912D02*
X25528Y-49512D01*
X25338Y-49912D02*
X25338Y-49512D01*
X25204Y-49798D01*
X25071Y-49512D01*
X25071Y-49912D01*
X26033Y-47512D02*
X25900Y-47912D01*
X25766Y-47512D01*
X25404Y-47874D02*
X25423Y-47893D01*
X25480Y-47912D01*
X25518Y-47912D01*
X25576Y-47893D01*
X25614Y-47855D01*
X25633Y-47817D01*
X25652Y-47740D01*
X25652Y-47683D01*
X25633Y-47607D01*
X25614Y-47569D01*
X25576Y-47531D01*
X25518Y-47512D01*
X25480Y-47512D01*
X25423Y-47531D01*
X25404Y-47550D01*
X25004Y-47874D02*
X25023Y-47893D01*
X25080Y-47912D01*
X25118Y-47912D01*
X25176Y-47893D01*
X25214Y-47855D01*
X25233Y-47817D01*
X25252Y-47740D01*
X25252Y-47683D01*
X25233Y-47607D01*
X25214Y-47569D01*
X25176Y-47531D01*
X25118Y-47512D01*
X25080Y-47512D01*
X25023Y-47531D01*
X25004Y-47550D01*
X25804Y-45531D02*
X25842Y-45512D01*
X25899Y-45512D01*
X25957Y-45531D01*
X25995Y-45569D01*
X26014Y-45607D01*
X26033Y-45683D01*
X26033Y-45740D01*
X26014Y-45817D01*
X25995Y-45855D01*
X25957Y-45893D01*
X25899Y-45912D01*
X25861Y-45912D01*
X25804Y-45893D01*
X25785Y-45874D01*
X25785Y-45740D01*
X25861Y-45740D01*
X25614Y-45912D02*
X25614Y-45512D01*
X25385Y-45912D01*
X25385Y-45512D01*
X25195Y-45912D02*
X25195Y-45512D01*
X25100Y-45512D01*
X25042Y-45531D01*
X25004Y-45569D01*
X24985Y-45607D01*
X24966Y-45683D01*
X24966Y-45740D01*
X24985Y-45817D01*
X25004Y-45855D01*
X25042Y-45893D01*
X25100Y-45912D01*
X25195Y-45912D01*
X26033Y-46512D02*
X25900Y-46912D01*
X25766Y-46512D01*
X25404Y-46874D02*
X25423Y-46893D01*
X25480Y-46912D01*
X25518Y-46912D01*
X25576Y-46893D01*
X25614Y-46855D01*
X25633Y-46817D01*
X25652Y-46740D01*
X25652Y-46683D01*
X25633Y-46607D01*
X25614Y-46569D01*
X25576Y-46531D01*
X25518Y-46512D01*
X25480Y-46512D01*
X25423Y-46531D01*
X25404Y-46550D01*
X25004Y-46874D02*
X25023Y-46893D01*
X25080Y-46912D01*
X25118Y-46912D01*
X25176Y-46893D01*
X25214Y-46855D01*
X25233Y-46817D01*
X25252Y-46740D01*
X25252Y-46683D01*
X25233Y-46607D01*
X25214Y-46569D01*
X25176Y-46531D01*
X25118Y-46512D01*
X25080Y-46512D01*
X25023Y-46531D01*
X25004Y-46550D01*
X25804Y-44531D02*
X25842Y-44512D01*
X25899Y-44512D01*
X25957Y-44531D01*
X25995Y-44569D01*
X26014Y-44607D01*
X26033Y-44683D01*
X26033Y-44740D01*
X26014Y-44817D01*
X25995Y-44855D01*
X25957Y-44893D01*
X25899Y-44912D01*
X25861Y-44912D01*
X25804Y-44893D01*
X25785Y-44874D01*
X25785Y-44740D01*
X25861Y-44740D01*
X25614Y-44912D02*
X25614Y-44512D01*
X25385Y-44912D01*
X25385Y-44512D01*
X25195Y-44912D02*
X25195Y-44512D01*
X25100Y-44512D01*
X25042Y-44531D01*
X25004Y-44569D01*
X24985Y-44607D01*
X24966Y-44683D01*
X24966Y-44740D01*
X24985Y-44817D01*
X25004Y-44855D01*
X25042Y-44893D01*
X25100Y-44912D01*
X25195Y-44912D01*
G54D13*
G36*
X35828Y-54846D02*
X35818Y-54880D01*
X35800Y-54932D01*
X35774Y-54977D01*
X35742Y-55018D01*
X35704Y-55053D01*
X35660Y-55081D01*
X35610Y-55103D01*
X35592Y-55109D01*
X35579Y-55113D01*
X35579Y-53543D01*
X35579Y-53406D01*
X35579Y-53277D01*
X35579Y-53157D01*
X35579Y-53044D01*
X35578Y-52940D01*
X35578Y-52843D01*
X35578Y-52754D01*
X35578Y-52674D01*
X35578Y-52600D01*
X35578Y-52535D01*
X35577Y-52476D01*
X35577Y-52426D01*
X35577Y-52382D01*
X35576Y-52345D01*
X35576Y-52315D01*
X35575Y-52293D01*
X35575Y-52277D01*
X35575Y-52267D01*
X35574Y-52264D01*
X35564Y-52248D01*
X35549Y-52232D01*
X35533Y-52222D01*
X35530Y-52221D01*
X35525Y-52221D01*
X35517Y-52220D01*
X35506Y-52219D01*
X35492Y-52219D01*
X35474Y-52218D01*
X35453Y-52218D01*
X35426Y-52218D01*
X35395Y-52217D01*
X35359Y-52217D01*
X35318Y-52217D01*
X35270Y-52217D01*
X35216Y-52217D01*
X35156Y-52216D01*
X35089Y-52216D01*
X35015Y-52216D01*
X34933Y-52216D01*
X34843Y-52216D01*
X34780Y-52216D01*
X34041Y-52216D01*
X33483Y-52774D01*
X32925Y-53332D01*
X32925Y-54070D01*
X32925Y-54175D01*
X32925Y-54272D01*
X32925Y-54360D01*
X32926Y-54441D01*
X32926Y-54513D01*
X32926Y-54577D01*
X32926Y-54633D01*
X32927Y-54682D01*
X32927Y-54723D01*
X32927Y-54757D01*
X32928Y-54784D01*
X32929Y-54803D01*
X32929Y-54816D01*
X32930Y-54821D01*
X32930Y-54821D01*
X32939Y-54838D01*
X32954Y-54853D01*
X32970Y-54864D01*
X32972Y-54864D01*
X32977Y-54865D01*
X32985Y-54865D01*
X32995Y-54866D01*
X33009Y-54866D01*
X33026Y-54867D01*
X33047Y-54867D01*
X33072Y-54867D01*
X33101Y-54868D01*
X33135Y-54868D01*
X33174Y-54868D01*
X33217Y-54868D01*
X33266Y-54869D01*
X33321Y-54869D01*
X33381Y-54869D01*
X33448Y-54869D01*
X33520Y-54869D01*
X33600Y-54869D01*
X33686Y-54869D01*
X33780Y-54869D01*
X33881Y-54869D01*
X33990Y-54870D01*
X34107Y-54870D01*
X34232Y-54870D01*
X34251Y-54870D01*
X34388Y-54870D01*
X34517Y-54870D01*
X34638Y-54870D01*
X34750Y-54869D01*
X34855Y-54869D01*
X34951Y-54869D01*
X35040Y-54869D01*
X35121Y-54869D01*
X35194Y-54869D01*
X35260Y-54869D01*
X35318Y-54868D01*
X35369Y-54868D01*
X35413Y-54868D01*
X35449Y-54867D01*
X35479Y-54867D01*
X35502Y-54866D01*
X35518Y-54866D01*
X35528Y-54866D01*
X35530Y-54865D01*
X35547Y-54855D01*
X35563Y-54840D01*
X35573Y-54824D01*
X35573Y-54822D01*
X35574Y-54817D01*
X35574Y-54810D01*
X35575Y-54800D01*
X35575Y-54788D01*
X35576Y-54772D01*
X35576Y-54752D01*
X35577Y-54729D01*
X35577Y-54702D01*
X35577Y-54670D01*
X35577Y-54634D01*
X35578Y-54593D01*
X35578Y-54547D01*
X35578Y-54496D01*
X35578Y-54438D01*
X35578Y-54375D01*
X35578Y-54306D01*
X35578Y-54230D01*
X35579Y-54148D01*
X35579Y-54058D01*
X35579Y-53961D01*
X35579Y-53857D01*
X35579Y-53745D01*
X35579Y-53624D01*
X35579Y-53543D01*
X35579Y-55113D01*
X35560Y-55119D01*
X34271Y-55120D01*
X34167Y-55120D01*
X34065Y-55120D01*
X33964Y-55120D01*
X33867Y-55120D01*
X33773Y-55120D01*
X33682Y-55120D01*
X33595Y-55120D01*
X33512Y-55120D01*
X33433Y-55119D01*
X33359Y-55119D01*
X33290Y-55119D01*
X33227Y-55119D01*
X33170Y-55119D01*
X33118Y-55119D01*
X33073Y-55119D01*
X33035Y-55118D01*
X33004Y-55118D01*
X32981Y-55118D01*
X32965Y-55118D01*
X32958Y-55117D01*
X32957Y-55117D01*
X32907Y-55107D01*
X32860Y-55090D01*
X32817Y-55065D01*
X32778Y-55034D01*
X32744Y-54996D01*
X32716Y-54954D01*
X32694Y-54906D01*
X32685Y-54880D01*
X32676Y-54846D01*
X32676Y-54048D01*
X32676Y-53251D01*
X32687Y-53228D01*
X32689Y-53224D01*
X32693Y-53219D01*
X32698Y-53213D01*
X32706Y-53204D01*
X32716Y-53193D01*
X32728Y-53180D01*
X32743Y-53164D01*
X32761Y-53146D01*
X32782Y-53124D01*
X32806Y-53099D01*
X32834Y-53071D01*
X32866Y-53038D01*
X32902Y-53002D01*
X32943Y-52961D01*
X32988Y-52916D01*
X33038Y-52866D01*
X33093Y-52811D01*
X33153Y-52751D01*
X33218Y-52685D01*
X33290Y-52613D01*
X33308Y-52595D01*
X33381Y-52522D01*
X33449Y-52455D01*
X33511Y-52393D01*
X33567Y-52336D01*
X33619Y-52285D01*
X33666Y-52239D01*
X33708Y-52197D01*
X33745Y-52160D01*
X33779Y-52127D01*
X33808Y-52097D01*
X33834Y-52072D01*
X33856Y-52051D01*
X33876Y-52032D01*
X33892Y-52017D01*
X33905Y-52004D01*
X33916Y-51994D01*
X33925Y-51987D01*
X33931Y-51981D01*
X33936Y-51978D01*
X33939Y-51976D01*
X33960Y-51967D01*
X34757Y-51967D01*
X35555Y-51967D01*
X35589Y-51976D01*
X35641Y-51995D01*
X35686Y-52021D01*
X35727Y-52053D01*
X35761Y-52091D01*
X35790Y-52134D01*
X35811Y-52184D01*
X35818Y-52206D01*
X35828Y-52240D01*
X35828Y-53543D01*
X35828Y-54846D01*
X35828Y-54846D01*
X35828Y-54846D01*
G37*
G36*
X33596Y-52093D02*
X33592Y-52123D01*
X33582Y-52151D01*
X33577Y-52159D01*
X33573Y-52164D01*
X33563Y-52175D01*
X33547Y-52191D01*
X33527Y-52212D01*
X33502Y-52237D01*
X33474Y-52266D01*
X33441Y-52299D01*
X33405Y-52335D01*
X33367Y-52374D01*
X33326Y-52415D01*
X33282Y-52459D01*
X33237Y-52504D01*
X33219Y-52522D01*
X33164Y-52577D01*
X33114Y-52627D01*
X33070Y-52671D01*
X33031Y-52710D01*
X32996Y-52744D01*
X32966Y-52773D01*
X32941Y-52798D01*
X32919Y-52819D01*
X32901Y-52836D01*
X32886Y-52850D01*
X32874Y-52860D01*
X32865Y-52868D01*
X32858Y-52873D01*
X32854Y-52876D01*
X32853Y-52877D01*
X32828Y-52884D01*
X32802Y-52888D01*
X32778Y-52886D01*
X32775Y-52886D01*
X32746Y-52876D01*
X32720Y-52860D01*
X32700Y-52839D01*
X32697Y-52835D01*
X32693Y-52828D01*
X32689Y-52823D01*
X32686Y-52816D01*
X32683Y-52809D01*
X32681Y-52801D01*
X32679Y-52791D01*
X32678Y-52779D01*
X32676Y-52763D01*
X32675Y-52744D01*
X32675Y-52720D01*
X32674Y-52692D01*
X32674Y-52659D01*
X32674Y-52619D01*
X32674Y-52574D01*
X32674Y-52521D01*
X32674Y-52460D01*
X32674Y-52416D01*
X32674Y-52353D01*
X32675Y-52297D01*
X32675Y-52249D01*
X32675Y-52208D01*
X32676Y-52173D01*
X32676Y-52144D01*
X32676Y-52120D01*
X32677Y-52101D01*
X32677Y-52085D01*
X32678Y-52073D01*
X32679Y-52064D01*
X32680Y-52057D01*
X32681Y-52052D01*
X32682Y-52048D01*
X32683Y-52044D01*
X32684Y-52043D01*
X32701Y-52015D01*
X32721Y-51994D01*
X32746Y-51979D01*
X32771Y-51970D01*
X32777Y-51969D01*
X32784Y-51968D01*
X32793Y-51968D01*
X32805Y-51967D01*
X32821Y-51966D01*
X32840Y-51966D01*
X32863Y-51965D01*
X32892Y-51965D01*
X32926Y-51965D01*
X32966Y-51965D01*
X33013Y-51965D01*
X33067Y-51965D01*
X33129Y-51965D01*
X33150Y-51965D01*
X33504Y-51967D01*
X33523Y-51976D01*
X33545Y-51990D01*
X33565Y-52008D01*
X33581Y-52028D01*
X33584Y-52035D01*
X33593Y-52063D01*
X33596Y-52093D01*
X33596Y-52093D01*
X33596Y-52093D01*
G37*
G36*
X34112Y-54763D02*
X34009Y-54763D01*
X34009Y-54277D01*
X33117Y-54277D01*
X33117Y-54174D01*
X34112Y-54174D01*
X34112Y-54763D01*
X34112Y-54763D01*
X34112Y-54763D01*
G37*
G36*
X33497Y-54682D02*
X33147Y-54682D01*
X33147Y-54580D01*
X33497Y-54580D01*
X33497Y-54682D01*
X33497Y-54682D01*
X33497Y-54682D01*
G37*
G36*
X33907Y-54678D02*
X33647Y-54678D01*
X33647Y-54575D01*
X33907Y-54575D01*
X33907Y-54678D01*
X33907Y-54678D01*
X33907Y-54678D01*
G37*
G36*
X35489Y-54025D02*
X35244Y-54025D01*
X34998Y-54025D01*
X34998Y-54157D01*
X34998Y-54289D01*
X34947Y-54289D01*
X34896Y-54289D01*
X34895Y-54198D01*
X34894Y-54107D01*
X34814Y-54191D01*
X34734Y-54274D01*
X34734Y-54425D01*
X34734Y-54575D01*
X34793Y-54575D01*
X34853Y-54575D01*
X34853Y-54627D01*
X34853Y-54678D01*
X34674Y-54678D01*
X34495Y-54678D01*
X34495Y-54627D01*
X34495Y-54575D01*
X34563Y-54575D01*
X34631Y-54575D01*
X34632Y-54410D01*
X34632Y-54373D01*
X34632Y-54338D01*
X34633Y-54307D01*
X34633Y-54280D01*
X34634Y-54258D01*
X34634Y-54243D01*
X34635Y-54236D01*
X34635Y-54235D01*
X34638Y-54230D01*
X34647Y-54219D01*
X34660Y-54204D01*
X34677Y-54185D01*
X34698Y-54163D01*
X34720Y-54139D01*
X34738Y-54120D01*
X34763Y-54094D01*
X34786Y-54069D01*
X34808Y-54047D01*
X34826Y-54027D01*
X34841Y-54011D01*
X34852Y-53999D01*
X34856Y-53995D01*
X34874Y-53975D01*
X34766Y-53864D01*
X34741Y-53837D01*
X34717Y-53813D01*
X34696Y-53791D01*
X34678Y-53771D01*
X34663Y-53756D01*
X34653Y-53745D01*
X34649Y-53740D01*
X34645Y-53733D01*
X34642Y-53725D01*
X34641Y-53714D01*
X34640Y-53697D01*
X34640Y-53682D01*
X34640Y-53636D01*
X34303Y-53636D01*
X33967Y-53636D01*
X33967Y-53700D01*
X33967Y-53764D01*
X33864Y-53764D01*
X33864Y-53662D01*
X33864Y-53587D01*
X33864Y-53514D01*
X33630Y-53514D01*
X33397Y-53514D01*
X33356Y-53550D01*
X33341Y-53564D01*
X33328Y-53576D01*
X33320Y-53585D01*
X33316Y-53589D01*
X33316Y-53590D01*
X33319Y-53593D01*
X33327Y-53601D01*
X33339Y-53613D01*
X33354Y-53626D01*
X33355Y-53627D01*
X33395Y-53662D01*
X33630Y-53662D01*
X33864Y-53662D01*
X33864Y-53764D01*
X33660Y-53764D01*
X33354Y-53764D01*
X33258Y-53681D01*
X33234Y-53659D01*
X33212Y-53640D01*
X33193Y-53622D01*
X33178Y-53608D01*
X33167Y-53598D01*
X33162Y-53592D01*
X33162Y-53591D01*
X33165Y-53587D01*
X33174Y-53578D01*
X33187Y-53565D01*
X33205Y-53548D01*
X33225Y-53530D01*
X33248Y-53508D01*
X33258Y-53499D01*
X33354Y-53411D01*
X33660Y-53411D01*
X33967Y-53411D01*
X33967Y-53473D01*
X33967Y-53535D01*
X34303Y-53535D01*
X34640Y-53535D01*
X34640Y-53447D01*
X34640Y-53360D01*
X34572Y-53360D01*
X34503Y-53360D01*
X34503Y-53066D01*
X34503Y-52771D01*
X34567Y-52771D01*
X34631Y-52771D01*
X34631Y-52532D01*
X34631Y-52293D01*
X34683Y-52293D01*
X34734Y-52293D01*
X34734Y-52532D01*
X34734Y-52771D01*
X34798Y-52771D01*
X34862Y-52771D01*
X34862Y-53066D01*
X34862Y-53360D01*
X34802Y-53360D01*
X34759Y-53360D01*
X34759Y-53258D01*
X34759Y-53066D01*
X34759Y-52874D01*
X34683Y-52874D01*
X34606Y-52874D01*
X34606Y-53066D01*
X34606Y-53258D01*
X34683Y-53258D01*
X34759Y-53258D01*
X34759Y-53360D01*
X34742Y-53360D01*
X34742Y-53525D01*
X34743Y-53690D01*
X34819Y-53769D01*
X34896Y-53848D01*
X34896Y-53759D01*
X34896Y-53671D01*
X34947Y-53671D01*
X34998Y-53671D01*
X34998Y-53796D01*
X34998Y-53922D01*
X35244Y-53922D01*
X35489Y-53922D01*
X35489Y-53974D01*
X35489Y-54025D01*
X35489Y-54025D01*
X35489Y-54025D01*
G37*
G36*
X33565Y-54435D02*
X33147Y-54435D01*
X33147Y-54332D01*
X33565Y-54332D01*
X33565Y-54435D01*
X33565Y-54435D01*
X33565Y-54435D01*
G37*
G36*
X33941Y-54435D02*
X33647Y-54435D01*
X33647Y-54332D01*
X33941Y-54332D01*
X33941Y-54435D01*
X33941Y-54435D01*
X33941Y-54435D01*
G37*
%LPC*%
G54D14*
X41535Y-47744D03*
X41535Y-46744D03*
X41535Y-48744D03*
X41535Y-49744D03*
X41535Y-45744D03*
X41535Y-44744D03*
X26969Y-46744D03*
X26969Y-47744D03*
X26969Y-45744D03*
X26969Y-44744D03*
X26969Y-48744D03*
X26969Y-49744D03*
G54D15*
X25984Y-55512D03*
X42520Y-55512D03*
X42520Y-38976D03*
X25984Y-38976D03*
G54D16*
X31693Y-43524D03*
X36417Y-42598D03*
X28543Y-39764D03*
X28937Y-39764D03*
X29331Y-39764D03*
X28150Y-41339D03*
X30906Y-39764D03*
X28150Y-39764D03*
X30118Y-41339D03*
X29606Y-41339D03*
X30512Y-41339D03*
X30512Y-39764D03*
X29724Y-39764D03*
X29134Y-41339D03*
X30906Y-41339D03*
X30118Y-39764D03*
X39134Y-41339D03*
X37992Y-41339D03*
X40354Y-39764D03*
X39173Y-39764D03*
X38386Y-39764D03*
X38386Y-41339D03*
X37992Y-39764D03*
X38780Y-39764D03*
X38780Y-41339D03*
X39961Y-39764D03*
X37598Y-41339D03*
X40354Y-41339D03*
X39567Y-39764D03*
X37598Y-39764D03*
X39488Y-41339D03*
X39409Y-46457D03*
X38780Y-48031D03*
X39567Y-48031D03*
G54D17*
X32283Y-47244D03*
G54D16*
X37992Y-48031D03*
X37598Y-46457D03*
G54D17*
X36220Y-47244D03*
G54D16*
X39961Y-48031D03*
X38465Y-46457D03*
X37992Y-46457D03*
X38937Y-46457D03*
X40354Y-46457D03*
X39173Y-48031D03*
X40354Y-48031D03*
X37598Y-48031D03*
X38386Y-48031D03*
X28937Y-46457D03*
X28543Y-46457D03*
X29724Y-46457D03*
X29331Y-46457D03*
X30906Y-46457D03*
G54D17*
X28642Y-47244D03*
G54D16*
X30118Y-48031D03*
X28937Y-48031D03*
G54D17*
X28666Y-53937D03*
G54D16*
X29331Y-48031D03*
X30118Y-46457D03*
X30512Y-48031D03*
X30512Y-46457D03*
X29724Y-48031D03*
X28150Y-46457D03*
X30906Y-48031D03*
X28150Y-48031D03*
X29724Y-53150D03*
X28543Y-54724D03*
X29370Y-53150D03*
X28150Y-53150D03*
X28937Y-54724D03*
X30118Y-54724D03*
X29724Y-54724D03*
X30906Y-54724D03*
X28150Y-54724D03*
X30512Y-54724D03*
X30118Y-53150D03*
X30906Y-53150D03*
X29035Y-53150D03*
X30512Y-53150D03*
X29331Y-54724D03*
G54D17*
X35020Y-47697D03*
X39847Y-53937D03*
G54D16*
X37598Y-54724D03*
X38780Y-54724D03*
X39567Y-54724D03*
X39173Y-54724D03*
X37992Y-54724D03*
X40354Y-54724D03*
X39961Y-54724D03*
X38386Y-54724D03*
X38780Y-53150D03*
X37992Y-53150D03*
X39173Y-53150D03*
X40354Y-53150D03*
X37598Y-53150D03*
X38386Y-53150D03*
X39567Y-53150D03*
X36969Y-47874D03*
X36969Y-46614D03*
G54D17*
X42894Y-42421D03*
X26358Y-42421D03*
M02*
