G04 (created by PCBNEW (2013-01-21 BZR 3918)-testing) date Wed 23 Jan 2013 08:58:22 PM CET*
%MOIN*%
G04 Gerber Fmt 3.4, Leading zero omitted, Abs format*
%FSLAX34Y34*%
G01*
G70*
G90*
G04 APERTURE LIST*
%ADD10C,2.3622e-06*%
%ADD11C,0.008*%
%ADD12C,0.012*%
%ADD13C,0.0001*%
%ADD14C,0.16*%
%ADD15C,0.065*%
G04 APERTURE END LIST*
G54D10*
G54D11*
X40369Y-51264D02*
X40369Y-50814D01*
X40176Y-51264D02*
X40176Y-51029D01*
X40198Y-50986D01*
X40241Y-50964D01*
X40305Y-50964D01*
X40348Y-50986D01*
X40369Y-51007D01*
X40026Y-50964D02*
X39855Y-50964D01*
X39962Y-50814D02*
X39962Y-51200D01*
X39941Y-51243D01*
X39898Y-51264D01*
X39855Y-51264D01*
X39769Y-50964D02*
X39598Y-50964D01*
X39705Y-50814D02*
X39705Y-51200D01*
X39684Y-51243D01*
X39641Y-51264D01*
X39598Y-51264D01*
X39448Y-50964D02*
X39448Y-51414D01*
X39448Y-50986D02*
X39405Y-50964D01*
X39319Y-50964D01*
X39276Y-50986D01*
X39255Y-51007D01*
X39234Y-51050D01*
X39234Y-51179D01*
X39255Y-51221D01*
X39276Y-51243D01*
X39319Y-51264D01*
X39405Y-51264D01*
X39448Y-51243D01*
X39041Y-51221D02*
X39019Y-51243D01*
X39041Y-51264D01*
X39062Y-51243D01*
X39041Y-51221D01*
X39041Y-51264D01*
X39041Y-50986D02*
X39019Y-51007D01*
X39041Y-51029D01*
X39062Y-51007D01*
X39041Y-50986D01*
X39041Y-51029D01*
X38505Y-50793D02*
X38891Y-51371D01*
X38034Y-50793D02*
X38419Y-51371D01*
X37926Y-50964D02*
X37841Y-51264D01*
X37755Y-51050D01*
X37669Y-51264D01*
X37584Y-50964D01*
X37455Y-50964D02*
X37369Y-51264D01*
X37284Y-51050D01*
X37198Y-51264D01*
X37112Y-50964D01*
X36984Y-50964D02*
X36898Y-51264D01*
X36812Y-51050D01*
X36726Y-51264D01*
X36641Y-50964D01*
X36469Y-51221D02*
X36448Y-51243D01*
X36469Y-51264D01*
X36491Y-51243D01*
X36469Y-51221D01*
X36469Y-51264D01*
X36319Y-50964D02*
X36148Y-50964D01*
X36255Y-51264D02*
X36255Y-50879D01*
X36234Y-50836D01*
X36191Y-50814D01*
X36148Y-50814D01*
X35934Y-51264D02*
X35976Y-51243D01*
X35998Y-51200D01*
X35998Y-50814D01*
X35762Y-51264D02*
X35762Y-50964D01*
X35762Y-50814D02*
X35784Y-50836D01*
X35762Y-50857D01*
X35741Y-50836D01*
X35762Y-50814D01*
X35762Y-50857D01*
X35355Y-51243D02*
X35398Y-51264D01*
X35484Y-51264D01*
X35526Y-51243D01*
X35548Y-51221D01*
X35569Y-51179D01*
X35569Y-51050D01*
X35548Y-51007D01*
X35526Y-50986D01*
X35484Y-50964D01*
X35398Y-50964D01*
X35355Y-50986D01*
X35162Y-51264D02*
X35162Y-50814D01*
X35119Y-51093D02*
X34991Y-51264D01*
X34991Y-50964D02*
X35162Y-51136D01*
X34798Y-51264D02*
X34798Y-50964D01*
X34798Y-51050D02*
X34776Y-51007D01*
X34755Y-50986D01*
X34712Y-50964D01*
X34669Y-50964D01*
X34519Y-51221D02*
X34498Y-51243D01*
X34519Y-51264D01*
X34541Y-51243D01*
X34519Y-51221D01*
X34519Y-51264D01*
X34112Y-51243D02*
X34155Y-51264D01*
X34241Y-51264D01*
X34284Y-51243D01*
X34305Y-51221D01*
X34326Y-51179D01*
X34326Y-51050D01*
X34305Y-51007D01*
X34284Y-50986D01*
X34241Y-50964D01*
X34155Y-50964D01*
X34112Y-50986D01*
X33855Y-51264D02*
X33898Y-51243D01*
X33919Y-51221D01*
X33941Y-51179D01*
X33941Y-51050D01*
X33919Y-51007D01*
X33898Y-50986D01*
X33855Y-50964D01*
X33791Y-50964D01*
X33748Y-50986D01*
X33726Y-51007D01*
X33705Y-51050D01*
X33705Y-51179D01*
X33726Y-51221D01*
X33748Y-51243D01*
X33791Y-51264D01*
X33855Y-51264D01*
X33512Y-51264D02*
X33512Y-50964D01*
X33512Y-51007D02*
X33491Y-50986D01*
X33448Y-50964D01*
X33384Y-50964D01*
X33341Y-50986D01*
X33319Y-51029D01*
X33319Y-51264D01*
X33319Y-51029D02*
X33298Y-50986D01*
X33255Y-50964D01*
X33191Y-50964D01*
X33148Y-50986D01*
X33126Y-51029D01*
X33126Y-51264D01*
X32591Y-50793D02*
X32976Y-51371D01*
X32248Y-50964D02*
X32248Y-51329D01*
X32269Y-51371D01*
X32291Y-51393D01*
X32334Y-51414D01*
X32398Y-51414D01*
X32441Y-51393D01*
X32248Y-51243D02*
X32291Y-51264D01*
X32376Y-51264D01*
X32419Y-51243D01*
X32441Y-51221D01*
X32462Y-51179D01*
X32462Y-51050D01*
X32441Y-51007D01*
X32419Y-50986D01*
X32376Y-50964D01*
X32291Y-50964D01*
X32248Y-50986D01*
X32034Y-51264D02*
X32034Y-50964D01*
X32034Y-51050D02*
X32012Y-51007D01*
X31991Y-50986D01*
X31948Y-50964D01*
X31905Y-50964D01*
X31691Y-51264D02*
X31734Y-51243D01*
X31755Y-51221D01*
X31776Y-51179D01*
X31776Y-51050D01*
X31755Y-51007D01*
X31734Y-50986D01*
X31691Y-50964D01*
X31626Y-50964D01*
X31584Y-50986D01*
X31562Y-51007D01*
X31541Y-51050D01*
X31541Y-51179D01*
X31562Y-51221D01*
X31584Y-51243D01*
X31626Y-51264D01*
X31691Y-51264D01*
X31155Y-50964D02*
X31155Y-51264D01*
X31348Y-50964D02*
X31348Y-51200D01*
X31326Y-51243D01*
X31284Y-51264D01*
X31219Y-51264D01*
X31176Y-51243D01*
X31155Y-51221D01*
X30941Y-50964D02*
X30941Y-51414D01*
X30941Y-50986D02*
X30898Y-50964D01*
X30812Y-50964D01*
X30769Y-50986D01*
X30748Y-51007D01*
X30726Y-51050D01*
X30726Y-51179D01*
X30748Y-51221D01*
X30769Y-51243D01*
X30812Y-51264D01*
X30898Y-51264D01*
X30941Y-51243D01*
X30555Y-51243D02*
X30512Y-51264D01*
X30426Y-51264D01*
X30384Y-51243D01*
X30362Y-51200D01*
X30362Y-51179D01*
X30384Y-51136D01*
X30426Y-51114D01*
X30491Y-51114D01*
X30534Y-51093D01*
X30555Y-51050D01*
X30555Y-51029D01*
X30534Y-50986D01*
X30491Y-50964D01*
X30426Y-50964D01*
X30384Y-50986D01*
X29848Y-50793D02*
X30234Y-51371D01*
X29698Y-51264D02*
X29698Y-50814D01*
X29655Y-51093D02*
X29526Y-51264D01*
X29526Y-50964D02*
X29698Y-51136D01*
X29334Y-51264D02*
X29334Y-50964D01*
X29334Y-50814D02*
X29355Y-50836D01*
X29334Y-50857D01*
X29312Y-50836D01*
X29334Y-50814D01*
X29334Y-50857D01*
X28926Y-51243D02*
X28969Y-51264D01*
X29055Y-51264D01*
X29098Y-51243D01*
X29119Y-51221D01*
X29141Y-51179D01*
X29141Y-51050D01*
X29119Y-51007D01*
X29098Y-50986D01*
X29055Y-50964D01*
X28969Y-50964D01*
X28926Y-50986D01*
X28541Y-51264D02*
X28541Y-51029D01*
X28562Y-50986D01*
X28605Y-50964D01*
X28691Y-50964D01*
X28734Y-50986D01*
X28541Y-51243D02*
X28584Y-51264D01*
X28691Y-51264D01*
X28734Y-51243D01*
X28755Y-51200D01*
X28755Y-51157D01*
X28734Y-51114D01*
X28691Y-51093D01*
X28584Y-51093D01*
X28541Y-51071D01*
X28134Y-51264D02*
X28134Y-50814D01*
X28134Y-51243D02*
X28176Y-51264D01*
X28262Y-51264D01*
X28305Y-51243D01*
X28326Y-51221D01*
X28348Y-51179D01*
X28348Y-51050D01*
X28326Y-51007D01*
X28305Y-50986D01*
X28262Y-50964D01*
X28176Y-50964D01*
X28134Y-50986D01*
G54D12*
X38413Y-49057D02*
X38301Y-49451D01*
X38188Y-49170D01*
X38076Y-49451D01*
X37964Y-49057D01*
X37795Y-49057D02*
X37682Y-49451D01*
X37570Y-49170D01*
X37457Y-49451D01*
X37345Y-49057D01*
X37176Y-49057D02*
X37064Y-49451D01*
X36951Y-49170D01*
X36839Y-49451D01*
X36726Y-49057D01*
X36501Y-49395D02*
X36473Y-49423D01*
X36501Y-49451D01*
X36529Y-49423D01*
X36501Y-49395D01*
X36501Y-49451D01*
X36220Y-49451D02*
X36220Y-48861D01*
X36164Y-49226D02*
X35995Y-49451D01*
X35995Y-49057D02*
X36220Y-49282D01*
X35742Y-49451D02*
X35742Y-49057D01*
X35742Y-48861D02*
X35770Y-48889D01*
X35742Y-48917D01*
X35714Y-48889D01*
X35742Y-48861D01*
X35742Y-48917D01*
X35208Y-49423D02*
X35264Y-49451D01*
X35376Y-49451D01*
X35433Y-49423D01*
X35461Y-49395D01*
X35489Y-49339D01*
X35489Y-49170D01*
X35461Y-49114D01*
X35433Y-49086D01*
X35376Y-49057D01*
X35264Y-49057D01*
X35208Y-49086D01*
X34701Y-49451D02*
X34701Y-49142D01*
X34730Y-49086D01*
X34786Y-49057D01*
X34898Y-49057D01*
X34955Y-49086D01*
X34701Y-49423D02*
X34758Y-49451D01*
X34898Y-49451D01*
X34955Y-49423D01*
X34983Y-49367D01*
X34983Y-49311D01*
X34955Y-49254D01*
X34898Y-49226D01*
X34758Y-49226D01*
X34701Y-49198D01*
X34167Y-49451D02*
X34167Y-48861D01*
X34167Y-49423D02*
X34223Y-49451D01*
X34336Y-49451D01*
X34392Y-49423D01*
X34420Y-49395D01*
X34448Y-49339D01*
X34448Y-49170D01*
X34420Y-49114D01*
X34392Y-49086D01*
X34336Y-49057D01*
X34223Y-49057D01*
X34167Y-49086D01*
X33886Y-49226D02*
X33436Y-49226D01*
X33155Y-49057D02*
X33155Y-49648D01*
X33155Y-49086D02*
X33098Y-49057D01*
X32986Y-49057D01*
X32930Y-49086D01*
X32902Y-49114D01*
X32874Y-49170D01*
X32874Y-49339D01*
X32902Y-49395D01*
X32930Y-49423D01*
X32986Y-49451D01*
X33098Y-49451D01*
X33155Y-49423D01*
X32367Y-49423D02*
X32424Y-49451D01*
X32536Y-49451D01*
X32592Y-49423D01*
X32620Y-49395D01*
X32649Y-49339D01*
X32649Y-49170D01*
X32620Y-49114D01*
X32592Y-49086D01*
X32536Y-49057D01*
X32424Y-49057D01*
X32367Y-49086D01*
X32114Y-49451D02*
X32114Y-48861D01*
X32114Y-49086D02*
X32058Y-49057D01*
X31946Y-49057D01*
X31889Y-49086D01*
X31861Y-49114D01*
X31833Y-49170D01*
X31833Y-49339D01*
X31861Y-49395D01*
X31889Y-49423D01*
X31946Y-49451D01*
X32058Y-49451D01*
X32114Y-49423D01*
X31580Y-49395D02*
X31552Y-49423D01*
X31580Y-49451D01*
X31608Y-49423D01*
X31580Y-49395D01*
X31580Y-49451D01*
X31214Y-49451D02*
X31271Y-49423D01*
X31299Y-49395D01*
X31327Y-49339D01*
X31327Y-49170D01*
X31299Y-49114D01*
X31271Y-49086D01*
X31214Y-49057D01*
X31130Y-49057D01*
X31074Y-49086D01*
X31046Y-49114D01*
X31017Y-49170D01*
X31017Y-49339D01*
X31046Y-49395D01*
X31074Y-49423D01*
X31130Y-49451D01*
X31214Y-49451D01*
X30764Y-49451D02*
X30764Y-49057D01*
X30764Y-49170D02*
X30736Y-49114D01*
X30708Y-49086D01*
X30652Y-49057D01*
X30596Y-49057D01*
X30146Y-49057D02*
X30146Y-49535D01*
X30174Y-49592D01*
X30202Y-49620D01*
X30258Y-49648D01*
X30343Y-49648D01*
X30399Y-49620D01*
X30146Y-49423D02*
X30202Y-49451D01*
X30314Y-49451D01*
X30371Y-49423D01*
X30399Y-49395D01*
X30427Y-49339D01*
X30427Y-49170D01*
X30399Y-49114D01*
X30371Y-49086D01*
X30314Y-49057D01*
X30202Y-49057D01*
X30146Y-49086D01*
G54D11*
X43304Y-44530D02*
X43342Y-44511D01*
X43400Y-44511D01*
X43457Y-44530D01*
X43495Y-44569D01*
X43514Y-44607D01*
X43533Y-44683D01*
X43533Y-44740D01*
X43514Y-44816D01*
X43495Y-44854D01*
X43457Y-44892D01*
X43400Y-44911D01*
X43361Y-44911D01*
X43304Y-44892D01*
X43285Y-44873D01*
X43285Y-44740D01*
X43361Y-44740D01*
X43114Y-44911D02*
X43114Y-44511D01*
X42885Y-44911D01*
X42885Y-44511D01*
X42695Y-44911D02*
X42695Y-44511D01*
X42599Y-44511D01*
X42542Y-44530D01*
X42504Y-44569D01*
X42485Y-44607D01*
X42466Y-44683D01*
X42466Y-44740D01*
X42485Y-44816D01*
X42504Y-44854D01*
X42542Y-44892D01*
X42599Y-44911D01*
X42695Y-44911D01*
X43533Y-46511D02*
X43399Y-46911D01*
X43266Y-46511D01*
X42904Y-46873D02*
X42923Y-46892D01*
X42980Y-46911D01*
X43019Y-46911D01*
X43076Y-46892D01*
X43114Y-46854D01*
X43133Y-46816D01*
X43152Y-46740D01*
X43152Y-46683D01*
X43133Y-46607D01*
X43114Y-46569D01*
X43076Y-46530D01*
X43019Y-46511D01*
X42980Y-46511D01*
X42923Y-46530D01*
X42904Y-46550D01*
X42504Y-46873D02*
X42523Y-46892D01*
X42580Y-46911D01*
X42619Y-46911D01*
X42676Y-46892D01*
X42714Y-46854D01*
X42733Y-46816D01*
X42752Y-46740D01*
X42752Y-46683D01*
X42733Y-46607D01*
X42714Y-46569D01*
X42676Y-46530D01*
X42619Y-46511D01*
X42580Y-46511D01*
X42523Y-46530D01*
X42504Y-46550D01*
X43304Y-45530D02*
X43342Y-45511D01*
X43400Y-45511D01*
X43457Y-45530D01*
X43495Y-45569D01*
X43514Y-45607D01*
X43533Y-45683D01*
X43533Y-45740D01*
X43514Y-45816D01*
X43495Y-45854D01*
X43457Y-45892D01*
X43400Y-45911D01*
X43361Y-45911D01*
X43304Y-45892D01*
X43285Y-45873D01*
X43285Y-45740D01*
X43361Y-45740D01*
X43114Y-45911D02*
X43114Y-45511D01*
X42885Y-45911D01*
X42885Y-45511D01*
X42695Y-45911D02*
X42695Y-45511D01*
X42599Y-45511D01*
X42542Y-45530D01*
X42504Y-45569D01*
X42485Y-45607D01*
X42466Y-45683D01*
X42466Y-45740D01*
X42485Y-45816D01*
X42504Y-45854D01*
X42542Y-45892D01*
X42599Y-45911D01*
X42695Y-45911D01*
X43533Y-47511D02*
X43399Y-47911D01*
X43266Y-47511D01*
X42904Y-47873D02*
X42923Y-47892D01*
X42980Y-47911D01*
X43019Y-47911D01*
X43076Y-47892D01*
X43114Y-47854D01*
X43133Y-47816D01*
X43152Y-47740D01*
X43152Y-47683D01*
X43133Y-47607D01*
X43114Y-47569D01*
X43076Y-47530D01*
X43019Y-47511D01*
X42980Y-47511D01*
X42923Y-47530D01*
X42904Y-47550D01*
X42504Y-47873D02*
X42523Y-47892D01*
X42580Y-47911D01*
X42619Y-47911D01*
X42676Y-47892D01*
X42714Y-47854D01*
X42733Y-47816D01*
X42752Y-47740D01*
X42752Y-47683D01*
X42733Y-47607D01*
X42714Y-47569D01*
X42676Y-47530D01*
X42619Y-47511D01*
X42580Y-47511D01*
X42523Y-47530D01*
X42504Y-47550D01*
X43428Y-49911D02*
X43428Y-49511D01*
X43333Y-49511D01*
X43276Y-49530D01*
X43238Y-49569D01*
X43219Y-49607D01*
X43200Y-49683D01*
X43200Y-49740D01*
X43219Y-49816D01*
X43238Y-49854D01*
X43276Y-49892D01*
X43333Y-49911D01*
X43428Y-49911D01*
X43028Y-49911D02*
X43028Y-49511D01*
X42838Y-49911D02*
X42838Y-49511D01*
X42704Y-49797D01*
X42571Y-49511D01*
X42571Y-49911D01*
X43314Y-48911D02*
X43314Y-48511D01*
X43085Y-48911D01*
X43085Y-48511D01*
X42666Y-48873D02*
X42685Y-48892D01*
X42742Y-48911D01*
X42780Y-48911D01*
X42838Y-48892D01*
X42876Y-48854D01*
X42895Y-48816D01*
X42914Y-48740D01*
X42914Y-48683D01*
X42895Y-48607D01*
X42876Y-48569D01*
X42838Y-48530D01*
X42780Y-48511D01*
X42742Y-48511D01*
X42685Y-48530D01*
X42666Y-48550D01*
X37080Y-39200D02*
X36930Y-39650D01*
X36780Y-39200D01*
X36373Y-39607D02*
X36394Y-39629D01*
X36459Y-39650D01*
X36501Y-39650D01*
X36566Y-39629D01*
X36609Y-39586D01*
X36630Y-39543D01*
X36651Y-39457D01*
X36651Y-39393D01*
X36630Y-39307D01*
X36609Y-39264D01*
X36566Y-39222D01*
X36501Y-39200D01*
X36459Y-39200D01*
X36394Y-39222D01*
X36373Y-39243D01*
X35923Y-39607D02*
X35944Y-39629D01*
X36009Y-39650D01*
X36051Y-39650D01*
X36116Y-39629D01*
X36159Y-39586D01*
X36180Y-39543D01*
X36201Y-39457D01*
X36201Y-39393D01*
X36180Y-39307D01*
X36159Y-39264D01*
X36116Y-39222D01*
X36051Y-39200D01*
X36009Y-39200D01*
X35944Y-39222D01*
X35923Y-39243D01*
X35730Y-39607D02*
X35709Y-39629D01*
X35730Y-39650D01*
X35751Y-39629D01*
X35730Y-39607D01*
X35730Y-39650D01*
X35730Y-39372D02*
X35709Y-39393D01*
X35730Y-39414D01*
X35751Y-39393D01*
X35730Y-39372D01*
X35730Y-39414D01*
X34937Y-39650D02*
X35194Y-39650D01*
X35066Y-39650D02*
X35066Y-39200D01*
X35109Y-39264D01*
X35151Y-39307D01*
X35194Y-39329D01*
X34680Y-39393D02*
X34723Y-39372D01*
X34744Y-39350D01*
X34766Y-39307D01*
X34766Y-39286D01*
X34744Y-39243D01*
X34723Y-39222D01*
X34680Y-39200D01*
X34594Y-39200D01*
X34551Y-39222D01*
X34530Y-39243D01*
X34509Y-39286D01*
X34509Y-39307D01*
X34530Y-39350D01*
X34551Y-39372D01*
X34594Y-39393D01*
X34680Y-39393D01*
X34723Y-39414D01*
X34744Y-39436D01*
X34766Y-39479D01*
X34766Y-39564D01*
X34744Y-39607D01*
X34723Y-39629D01*
X34680Y-39650D01*
X34594Y-39650D01*
X34551Y-39629D01*
X34530Y-39607D01*
X34509Y-39564D01*
X34509Y-39479D01*
X34530Y-39436D01*
X34551Y-39414D01*
X34594Y-39393D01*
X34316Y-39479D02*
X33973Y-39479D01*
X33780Y-39243D02*
X33759Y-39222D01*
X33716Y-39200D01*
X33609Y-39200D01*
X33566Y-39222D01*
X33544Y-39243D01*
X33523Y-39286D01*
X33523Y-39329D01*
X33544Y-39393D01*
X33801Y-39650D01*
X33523Y-39650D01*
X33137Y-39350D02*
X33137Y-39650D01*
X33244Y-39179D02*
X33351Y-39500D01*
X33073Y-39500D01*
X32966Y-39200D02*
X32816Y-39650D01*
X32666Y-39200D01*
X32173Y-39650D02*
X32173Y-39200D01*
X32066Y-39200D01*
X32001Y-39222D01*
X31959Y-39264D01*
X31937Y-39307D01*
X31916Y-39393D01*
X31916Y-39457D01*
X31937Y-39543D01*
X31959Y-39586D01*
X32001Y-39629D01*
X32066Y-39650D01*
X32173Y-39650D01*
X31466Y-39607D02*
X31487Y-39629D01*
X31551Y-39650D01*
X31594Y-39650D01*
X31659Y-39629D01*
X31701Y-39586D01*
X31723Y-39543D01*
X31744Y-39457D01*
X31744Y-39393D01*
X31723Y-39307D01*
X31701Y-39264D01*
X31659Y-39222D01*
X31594Y-39200D01*
X31551Y-39200D01*
X31487Y-39222D01*
X31466Y-39243D01*
X38859Y-40360D02*
X38859Y-39910D01*
X38751Y-39910D01*
X38687Y-39932D01*
X38644Y-39974D01*
X38623Y-40017D01*
X38601Y-40103D01*
X38601Y-40167D01*
X38623Y-40253D01*
X38644Y-40296D01*
X38687Y-40339D01*
X38751Y-40360D01*
X38859Y-40360D01*
X38409Y-40360D02*
X38409Y-39910D01*
X38194Y-40360D02*
X38194Y-39910D01*
X38044Y-40232D01*
X37894Y-39910D01*
X37894Y-40360D01*
X37680Y-40317D02*
X37659Y-40339D01*
X37680Y-40360D01*
X37701Y-40339D01*
X37680Y-40317D01*
X37680Y-40360D01*
X37680Y-40082D02*
X37659Y-40103D01*
X37680Y-40124D01*
X37701Y-40103D01*
X37680Y-40082D01*
X37680Y-40124D01*
X36909Y-39910D02*
X37123Y-39910D01*
X37144Y-40124D01*
X37123Y-40103D01*
X37080Y-40082D01*
X36973Y-40082D01*
X36930Y-40103D01*
X36909Y-40124D01*
X36887Y-40167D01*
X36887Y-40274D01*
X36909Y-40317D01*
X36930Y-40339D01*
X36973Y-40360D01*
X37080Y-40360D01*
X37123Y-40339D01*
X37144Y-40317D01*
X36759Y-39910D02*
X36609Y-40360D01*
X36459Y-39910D01*
X35966Y-40360D02*
X35966Y-39910D01*
X35794Y-39910D01*
X35751Y-39932D01*
X35730Y-39953D01*
X35709Y-39996D01*
X35709Y-40060D01*
X35730Y-40103D01*
X35751Y-40124D01*
X35794Y-40146D01*
X35966Y-40146D01*
X35559Y-39910D02*
X35451Y-40360D01*
X35366Y-40039D01*
X35280Y-40360D01*
X35173Y-39910D01*
X35001Y-40360D02*
X35001Y-39910D01*
X34851Y-40232D01*
X34701Y-39910D01*
X34701Y-40360D01*
X34080Y-40360D02*
X34123Y-40339D01*
X34144Y-40317D01*
X34166Y-40274D01*
X34166Y-40146D01*
X34144Y-40103D01*
X34123Y-40082D01*
X34080Y-40060D01*
X34016Y-40060D01*
X33973Y-40082D01*
X33951Y-40103D01*
X33930Y-40146D01*
X33930Y-40274D01*
X33951Y-40317D01*
X33973Y-40339D01*
X34016Y-40360D01*
X34080Y-40360D01*
X33737Y-40360D02*
X33737Y-40060D01*
X33737Y-40146D02*
X33716Y-40103D01*
X33694Y-40082D01*
X33651Y-40060D01*
X33609Y-40060D01*
X33030Y-39910D02*
X32987Y-39910D01*
X32944Y-39932D01*
X32923Y-39953D01*
X32901Y-39996D01*
X32880Y-40082D01*
X32880Y-40189D01*
X32901Y-40274D01*
X32923Y-40317D01*
X32944Y-40339D01*
X32987Y-40360D01*
X33030Y-40360D01*
X33073Y-40339D01*
X33094Y-40317D01*
X33116Y-40274D01*
X33137Y-40189D01*
X33137Y-40082D01*
X33116Y-39996D01*
X33094Y-39953D01*
X33073Y-39932D01*
X33030Y-39910D01*
X32687Y-40189D02*
X32344Y-40189D01*
X32151Y-39953D02*
X32130Y-39932D01*
X32087Y-39910D01*
X31980Y-39910D01*
X31937Y-39932D01*
X31916Y-39953D01*
X31894Y-39996D01*
X31894Y-40039D01*
X31916Y-40103D01*
X32173Y-40360D01*
X31894Y-40360D01*
X31701Y-40317D02*
X31680Y-40339D01*
X31701Y-40360D01*
X31723Y-40339D01*
X31701Y-40317D01*
X31701Y-40360D01*
X31273Y-39910D02*
X31487Y-39910D01*
X31509Y-40124D01*
X31487Y-40103D01*
X31444Y-40082D01*
X31337Y-40082D01*
X31294Y-40103D01*
X31273Y-40124D01*
X31251Y-40167D01*
X31251Y-40274D01*
X31273Y-40317D01*
X31294Y-40339D01*
X31337Y-40360D01*
X31444Y-40360D01*
X31487Y-40339D01*
X31509Y-40317D01*
X31123Y-39910D02*
X30973Y-40360D01*
X30823Y-39910D01*
X30330Y-40360D02*
X30330Y-39910D01*
X30223Y-39910D01*
X30159Y-39932D01*
X30116Y-39974D01*
X30094Y-40017D01*
X30073Y-40103D01*
X30073Y-40167D01*
X30094Y-40253D01*
X30116Y-40296D01*
X30159Y-40339D01*
X30223Y-40360D01*
X30330Y-40360D01*
X29623Y-40317D02*
X29644Y-40339D01*
X29709Y-40360D01*
X29751Y-40360D01*
X29816Y-40339D01*
X29859Y-40296D01*
X29880Y-40253D01*
X29901Y-40167D01*
X29901Y-40103D01*
X29880Y-40017D01*
X29859Y-39974D01*
X29816Y-39932D01*
X29751Y-39910D01*
X29709Y-39910D01*
X29644Y-39932D01*
X29623Y-39953D01*
X41869Y-41737D02*
X41891Y-41759D01*
X41955Y-41780D01*
X41998Y-41780D01*
X42062Y-41759D01*
X42105Y-41716D01*
X42126Y-41673D01*
X42148Y-41587D01*
X42148Y-41523D01*
X42126Y-41437D01*
X42105Y-41394D01*
X42062Y-41352D01*
X41998Y-41330D01*
X41955Y-41330D01*
X41891Y-41352D01*
X41869Y-41373D01*
X41484Y-41330D02*
X41569Y-41330D01*
X41612Y-41352D01*
X41634Y-41373D01*
X41676Y-41437D01*
X41698Y-41523D01*
X41698Y-41694D01*
X41676Y-41737D01*
X41655Y-41759D01*
X41612Y-41780D01*
X41526Y-41780D01*
X41484Y-41759D01*
X41462Y-41737D01*
X41441Y-41694D01*
X41441Y-41587D01*
X41462Y-41544D01*
X41484Y-41523D01*
X41526Y-41502D01*
X41612Y-41502D01*
X41655Y-41523D01*
X41676Y-41544D01*
X41698Y-41587D01*
X41248Y-41737D02*
X41226Y-41759D01*
X41248Y-41780D01*
X41269Y-41759D01*
X41248Y-41737D01*
X41248Y-41780D01*
X41248Y-41502D02*
X41226Y-41523D01*
X41248Y-41544D01*
X41269Y-41523D01*
X41248Y-41502D01*
X41248Y-41544D01*
X40712Y-41759D02*
X40669Y-41780D01*
X40584Y-41780D01*
X40541Y-41759D01*
X40519Y-41716D01*
X40519Y-41694D01*
X40541Y-41652D01*
X40584Y-41630D01*
X40648Y-41630D01*
X40691Y-41609D01*
X40712Y-41566D01*
X40712Y-41544D01*
X40691Y-41502D01*
X40648Y-41480D01*
X40584Y-41480D01*
X40541Y-41502D01*
X40262Y-41780D02*
X40305Y-41759D01*
X40326Y-41737D01*
X40348Y-41694D01*
X40348Y-41566D01*
X40326Y-41523D01*
X40305Y-41502D01*
X40262Y-41480D01*
X40198Y-41480D01*
X40155Y-41502D01*
X40134Y-41523D01*
X40112Y-41566D01*
X40112Y-41694D01*
X40134Y-41737D01*
X40155Y-41759D01*
X40198Y-41780D01*
X40262Y-41780D01*
X39984Y-41480D02*
X39812Y-41480D01*
X39919Y-41780D02*
X39919Y-41394D01*
X39898Y-41352D01*
X39855Y-41330D01*
X39812Y-41330D01*
X39726Y-41480D02*
X39555Y-41480D01*
X39662Y-41330D02*
X39662Y-41716D01*
X39641Y-41759D01*
X39598Y-41780D01*
X39555Y-41780D01*
X39405Y-41609D02*
X39062Y-41609D01*
X38869Y-41759D02*
X38826Y-41780D01*
X38741Y-41780D01*
X38698Y-41759D01*
X38676Y-41716D01*
X38676Y-41694D01*
X38698Y-41652D01*
X38741Y-41630D01*
X38805Y-41630D01*
X38848Y-41609D01*
X38869Y-41566D01*
X38869Y-41544D01*
X38848Y-41502D01*
X38805Y-41480D01*
X38741Y-41480D01*
X38698Y-41502D01*
X38548Y-41480D02*
X38376Y-41480D01*
X38484Y-41330D02*
X38484Y-41716D01*
X38462Y-41759D01*
X38419Y-41780D01*
X38376Y-41780D01*
X38034Y-41780D02*
X38034Y-41544D01*
X38055Y-41502D01*
X38098Y-41480D01*
X38184Y-41480D01*
X38226Y-41502D01*
X38034Y-41759D02*
X38076Y-41780D01*
X38184Y-41780D01*
X38226Y-41759D01*
X38248Y-41716D01*
X38248Y-41673D01*
X38226Y-41630D01*
X38184Y-41609D01*
X38076Y-41609D01*
X38034Y-41587D01*
X37819Y-41780D02*
X37819Y-41480D01*
X37819Y-41566D02*
X37798Y-41523D01*
X37776Y-41502D01*
X37734Y-41480D01*
X37691Y-41480D01*
X37605Y-41480D02*
X37434Y-41480D01*
X37541Y-41330D02*
X37541Y-41716D01*
X37519Y-41759D01*
X37476Y-41780D01*
X37434Y-41780D01*
X37284Y-41737D02*
X37262Y-41759D01*
X37284Y-41780D01*
X37305Y-41759D01*
X37284Y-41737D01*
X37284Y-41780D01*
X37284Y-41502D02*
X37262Y-41523D01*
X37284Y-41544D01*
X37305Y-41523D01*
X37284Y-41502D01*
X37284Y-41544D01*
X36491Y-41780D02*
X36748Y-41780D01*
X36619Y-41780D02*
X36619Y-41330D01*
X36662Y-41394D01*
X36705Y-41437D01*
X36748Y-41459D01*
X36298Y-41737D02*
X36276Y-41759D01*
X36298Y-41780D01*
X36319Y-41759D01*
X36298Y-41737D01*
X36298Y-41780D01*
X36105Y-41373D02*
X36084Y-41352D01*
X36041Y-41330D01*
X35934Y-41330D01*
X35891Y-41352D01*
X35869Y-41373D01*
X35848Y-41416D01*
X35848Y-41459D01*
X35869Y-41523D01*
X36126Y-41780D01*
X35848Y-41780D01*
X35441Y-41330D02*
X35655Y-41330D01*
X35676Y-41544D01*
X35655Y-41523D01*
X35612Y-41502D01*
X35505Y-41502D01*
X35462Y-41523D01*
X35441Y-41544D01*
X35419Y-41587D01*
X35419Y-41694D01*
X35441Y-41737D01*
X35462Y-41759D01*
X35505Y-41780D01*
X35612Y-41780D01*
X35655Y-41759D01*
X35676Y-41737D01*
X35226Y-41480D02*
X35226Y-41930D01*
X35012Y-41716D02*
X34991Y-41759D01*
X34948Y-41780D01*
X35226Y-41716D02*
X35205Y-41759D01*
X35162Y-41780D01*
X35076Y-41780D01*
X35034Y-41759D01*
X35012Y-41716D01*
X35012Y-41480D01*
X34605Y-41544D02*
X34755Y-41544D01*
X34755Y-41780D02*
X34755Y-41330D01*
X34541Y-41330D01*
X34048Y-41309D02*
X34434Y-41887D01*
X33919Y-41759D02*
X33876Y-41780D01*
X33791Y-41780D01*
X33748Y-41759D01*
X33726Y-41716D01*
X33726Y-41694D01*
X33748Y-41652D01*
X33791Y-41630D01*
X33855Y-41630D01*
X33898Y-41609D01*
X33919Y-41566D01*
X33919Y-41544D01*
X33898Y-41502D01*
X33855Y-41480D01*
X33791Y-41480D01*
X33748Y-41502D01*
X33062Y-41952D02*
X33084Y-41930D01*
X33126Y-41866D01*
X33148Y-41823D01*
X33169Y-41759D01*
X33191Y-41652D01*
X33191Y-41566D01*
X33169Y-41459D01*
X33148Y-41394D01*
X33126Y-41352D01*
X33084Y-41287D01*
X33062Y-41266D01*
X32912Y-41759D02*
X32869Y-41780D01*
X32784Y-41780D01*
X32741Y-41759D01*
X32719Y-41716D01*
X32719Y-41694D01*
X32741Y-41652D01*
X32784Y-41630D01*
X32848Y-41630D01*
X32891Y-41609D01*
X32912Y-41566D01*
X32912Y-41544D01*
X32891Y-41502D01*
X32848Y-41480D01*
X32784Y-41480D01*
X32741Y-41502D01*
X32526Y-41780D02*
X32526Y-41330D01*
X32484Y-41609D02*
X32355Y-41780D01*
X32355Y-41480D02*
X32526Y-41652D01*
X32162Y-41780D02*
X32162Y-41480D01*
X32162Y-41330D02*
X32184Y-41352D01*
X32162Y-41373D01*
X32141Y-41352D01*
X32162Y-41330D01*
X32162Y-41373D01*
X31948Y-41480D02*
X31948Y-41930D01*
X31948Y-41502D02*
X31905Y-41480D01*
X31819Y-41480D01*
X31776Y-41502D01*
X31755Y-41523D01*
X31734Y-41566D01*
X31734Y-41694D01*
X31755Y-41737D01*
X31776Y-41759D01*
X31819Y-41780D01*
X31905Y-41780D01*
X31948Y-41759D01*
X31241Y-41480D02*
X31155Y-41780D01*
X31069Y-41566D01*
X30984Y-41780D01*
X30898Y-41480D01*
X30726Y-41780D02*
X30726Y-41480D01*
X30726Y-41330D02*
X30748Y-41352D01*
X30726Y-41373D01*
X30705Y-41352D01*
X30726Y-41330D01*
X30726Y-41373D01*
X30576Y-41480D02*
X30405Y-41480D01*
X30512Y-41330D02*
X30512Y-41716D01*
X30491Y-41759D01*
X30448Y-41780D01*
X30405Y-41780D01*
X30255Y-41780D02*
X30255Y-41330D01*
X30062Y-41780D02*
X30062Y-41544D01*
X30084Y-41502D01*
X30126Y-41480D01*
X30191Y-41480D01*
X30234Y-41502D01*
X30255Y-41523D01*
X29334Y-41759D02*
X29376Y-41780D01*
X29462Y-41780D01*
X29505Y-41759D01*
X29526Y-41716D01*
X29526Y-41544D01*
X29505Y-41502D01*
X29462Y-41480D01*
X29376Y-41480D01*
X29334Y-41502D01*
X29312Y-41544D01*
X29312Y-41587D01*
X29526Y-41630D01*
X29162Y-41780D02*
X28926Y-41480D01*
X29162Y-41480D02*
X28926Y-41780D01*
X28819Y-41480D02*
X28648Y-41480D01*
X28755Y-41330D02*
X28755Y-41716D01*
X28734Y-41759D01*
X28691Y-41780D01*
X28648Y-41780D01*
X28498Y-41737D02*
X28476Y-41759D01*
X28498Y-41780D01*
X28519Y-41759D01*
X28498Y-41737D01*
X28498Y-41780D01*
X27941Y-41780D02*
X27941Y-41330D01*
X27769Y-41330D01*
X27726Y-41352D01*
X27705Y-41373D01*
X27684Y-41416D01*
X27684Y-41480D01*
X27705Y-41523D01*
X27726Y-41544D01*
X27769Y-41566D01*
X27941Y-41566D01*
X27534Y-41330D02*
X27426Y-41780D01*
X27341Y-41459D01*
X27255Y-41780D01*
X27148Y-41330D01*
X26976Y-41780D02*
X26976Y-41330D01*
X26826Y-41652D01*
X26676Y-41330D01*
X26676Y-41780D01*
X26505Y-41952D02*
X26484Y-41930D01*
X26441Y-41866D01*
X26419Y-41823D01*
X26398Y-41759D01*
X26376Y-41652D01*
X26376Y-41566D01*
X26398Y-41459D01*
X26419Y-41394D01*
X26441Y-41352D01*
X26484Y-41287D01*
X26505Y-41266D01*
X41226Y-42490D02*
X41376Y-42276D01*
X41484Y-42490D02*
X41484Y-42040D01*
X41312Y-42040D01*
X41269Y-42062D01*
X41248Y-42083D01*
X41226Y-42126D01*
X41226Y-42190D01*
X41248Y-42233D01*
X41269Y-42254D01*
X41312Y-42276D01*
X41484Y-42276D01*
X41055Y-42083D02*
X41034Y-42062D01*
X40991Y-42040D01*
X40884Y-42040D01*
X40841Y-42062D01*
X40819Y-42083D01*
X40798Y-42126D01*
X40798Y-42169D01*
X40819Y-42233D01*
X41076Y-42490D01*
X40798Y-42490D01*
X40605Y-42447D02*
X40584Y-42469D01*
X40605Y-42490D01*
X40626Y-42469D01*
X40605Y-42447D01*
X40605Y-42490D01*
X40605Y-42212D02*
X40584Y-42233D01*
X40605Y-42254D01*
X40626Y-42233D01*
X40605Y-42212D01*
X40605Y-42254D01*
X39812Y-42490D02*
X40069Y-42490D01*
X39941Y-42490D02*
X39941Y-42040D01*
X39984Y-42104D01*
X40026Y-42147D01*
X40069Y-42169D01*
X39619Y-42490D02*
X39619Y-42040D01*
X39469Y-42362D01*
X39319Y-42040D01*
X39319Y-42490D01*
X38805Y-42190D02*
X38719Y-42490D01*
X38634Y-42276D01*
X38548Y-42490D01*
X38462Y-42190D01*
X38291Y-42490D02*
X38291Y-42190D01*
X38291Y-42040D02*
X38312Y-42062D01*
X38291Y-42083D01*
X38269Y-42062D01*
X38291Y-42040D01*
X38291Y-42083D01*
X38141Y-42190D02*
X37969Y-42190D01*
X38076Y-42040D02*
X38076Y-42426D01*
X38055Y-42469D01*
X38012Y-42490D01*
X37969Y-42490D01*
X37819Y-42490D02*
X37819Y-42040D01*
X37626Y-42490D02*
X37626Y-42254D01*
X37648Y-42212D01*
X37691Y-42190D01*
X37755Y-42190D01*
X37798Y-42212D01*
X37819Y-42233D01*
X37091Y-42469D02*
X37048Y-42490D01*
X36962Y-42490D01*
X36919Y-42469D01*
X36898Y-42426D01*
X36898Y-42404D01*
X36919Y-42362D01*
X36962Y-42340D01*
X37026Y-42340D01*
X37069Y-42319D01*
X37091Y-42276D01*
X37091Y-42254D01*
X37069Y-42212D01*
X37026Y-42190D01*
X36962Y-42190D01*
X36919Y-42212D01*
X36641Y-42490D02*
X36684Y-42469D01*
X36705Y-42447D01*
X36726Y-42404D01*
X36726Y-42276D01*
X36705Y-42233D01*
X36684Y-42212D01*
X36641Y-42190D01*
X36576Y-42190D01*
X36534Y-42212D01*
X36512Y-42233D01*
X36491Y-42276D01*
X36491Y-42404D01*
X36512Y-42447D01*
X36534Y-42469D01*
X36576Y-42490D01*
X36641Y-42490D01*
X36362Y-42190D02*
X36191Y-42190D01*
X36298Y-42490D02*
X36298Y-42104D01*
X36276Y-42062D01*
X36234Y-42040D01*
X36191Y-42040D01*
X36105Y-42190D02*
X35934Y-42190D01*
X36041Y-42040D02*
X36041Y-42426D01*
X36019Y-42469D01*
X35976Y-42490D01*
X35934Y-42490D01*
X35784Y-42319D02*
X35441Y-42319D01*
X35248Y-42469D02*
X35205Y-42490D01*
X35119Y-42490D01*
X35076Y-42469D01*
X35055Y-42426D01*
X35055Y-42404D01*
X35076Y-42362D01*
X35119Y-42340D01*
X35184Y-42340D01*
X35226Y-42319D01*
X35248Y-42276D01*
X35248Y-42254D01*
X35226Y-42212D01*
X35184Y-42190D01*
X35119Y-42190D01*
X35076Y-42212D01*
X34926Y-42190D02*
X34755Y-42190D01*
X34862Y-42040D02*
X34862Y-42426D01*
X34841Y-42469D01*
X34798Y-42490D01*
X34755Y-42490D01*
X34412Y-42490D02*
X34412Y-42254D01*
X34434Y-42212D01*
X34476Y-42190D01*
X34562Y-42190D01*
X34605Y-42212D01*
X34412Y-42469D02*
X34455Y-42490D01*
X34562Y-42490D01*
X34605Y-42469D01*
X34626Y-42426D01*
X34626Y-42383D01*
X34605Y-42340D01*
X34562Y-42319D01*
X34455Y-42319D01*
X34412Y-42297D01*
X34198Y-42490D02*
X34198Y-42190D01*
X34198Y-42276D02*
X34176Y-42233D01*
X34155Y-42212D01*
X34112Y-42190D01*
X34069Y-42190D01*
X33984Y-42190D02*
X33812Y-42190D01*
X33919Y-42040D02*
X33919Y-42426D01*
X33898Y-42469D01*
X33855Y-42490D01*
X33812Y-42490D01*
X33641Y-42469D02*
X33641Y-42490D01*
X33662Y-42533D01*
X33684Y-42554D01*
X32869Y-42490D02*
X33126Y-42490D01*
X32998Y-42490D02*
X32998Y-42040D01*
X33041Y-42104D01*
X33084Y-42147D01*
X33126Y-42169D01*
X32591Y-42040D02*
X32548Y-42040D01*
X32505Y-42062D01*
X32484Y-42083D01*
X32462Y-42126D01*
X32441Y-42212D01*
X32441Y-42319D01*
X32462Y-42404D01*
X32484Y-42447D01*
X32505Y-42469D01*
X32548Y-42490D01*
X32591Y-42490D01*
X32634Y-42469D01*
X32655Y-42447D01*
X32676Y-42404D01*
X32698Y-42319D01*
X32698Y-42212D01*
X32676Y-42126D01*
X32655Y-42083D01*
X32634Y-42062D01*
X32591Y-42040D01*
X32248Y-42490D02*
X32248Y-42040D01*
X32205Y-42319D02*
X32076Y-42490D01*
X32076Y-42190D02*
X32248Y-42362D01*
X31584Y-42190D02*
X31498Y-42490D01*
X31412Y-42276D01*
X31326Y-42490D01*
X31241Y-42190D01*
X31069Y-42490D02*
X31069Y-42190D01*
X31069Y-42040D02*
X31091Y-42062D01*
X31069Y-42083D01*
X31048Y-42062D01*
X31069Y-42040D01*
X31069Y-42083D01*
X30919Y-42190D02*
X30748Y-42190D01*
X30855Y-42040D02*
X30855Y-42426D01*
X30834Y-42469D01*
X30791Y-42490D01*
X30748Y-42490D01*
X30598Y-42490D02*
X30598Y-42040D01*
X30405Y-42490D02*
X30405Y-42254D01*
X30426Y-42212D01*
X30469Y-42190D01*
X30534Y-42190D01*
X30576Y-42212D01*
X30598Y-42233D01*
X29676Y-42469D02*
X29719Y-42490D01*
X29805Y-42490D01*
X29848Y-42469D01*
X29869Y-42426D01*
X29869Y-42254D01*
X29848Y-42212D01*
X29805Y-42190D01*
X29719Y-42190D01*
X29676Y-42212D01*
X29655Y-42254D01*
X29655Y-42297D01*
X29869Y-42340D01*
X29505Y-42490D02*
X29269Y-42190D01*
X29505Y-42190D02*
X29269Y-42490D01*
X29162Y-42190D02*
X28991Y-42190D01*
X29098Y-42040D02*
X29098Y-42426D01*
X29076Y-42469D01*
X29034Y-42490D01*
X28991Y-42490D01*
X28841Y-42447D02*
X28819Y-42469D01*
X28841Y-42490D01*
X28862Y-42469D01*
X28841Y-42447D01*
X28841Y-42490D01*
X28284Y-42490D02*
X28284Y-42040D01*
X28112Y-42040D01*
X28069Y-42062D01*
X28048Y-42083D01*
X28026Y-42126D01*
X28026Y-42190D01*
X28048Y-42233D01*
X28069Y-42254D01*
X28112Y-42276D01*
X28284Y-42276D01*
X27876Y-42040D02*
X27769Y-42490D01*
X27684Y-42169D01*
X27598Y-42490D01*
X27491Y-42040D01*
X27319Y-42490D02*
X27319Y-42040D01*
X27169Y-42362D01*
X27019Y-42040D01*
X27019Y-42490D01*
X25814Y-48911D02*
X25814Y-48511D01*
X25585Y-48911D01*
X25585Y-48511D01*
X25166Y-48873D02*
X25185Y-48892D01*
X25242Y-48911D01*
X25280Y-48911D01*
X25338Y-48892D01*
X25376Y-48854D01*
X25395Y-48816D01*
X25414Y-48740D01*
X25414Y-48683D01*
X25395Y-48607D01*
X25376Y-48569D01*
X25338Y-48530D01*
X25280Y-48511D01*
X25242Y-48511D01*
X25185Y-48530D01*
X25166Y-48550D01*
X25928Y-49911D02*
X25928Y-49511D01*
X25833Y-49511D01*
X25776Y-49530D01*
X25738Y-49569D01*
X25719Y-49607D01*
X25700Y-49683D01*
X25700Y-49740D01*
X25719Y-49816D01*
X25738Y-49854D01*
X25776Y-49892D01*
X25833Y-49911D01*
X25928Y-49911D01*
X25528Y-49911D02*
X25528Y-49511D01*
X25338Y-49911D02*
X25338Y-49511D01*
X25204Y-49797D01*
X25071Y-49511D01*
X25071Y-49911D01*
X26033Y-47511D02*
X25899Y-47911D01*
X25766Y-47511D01*
X25404Y-47873D02*
X25423Y-47892D01*
X25480Y-47911D01*
X25519Y-47911D01*
X25576Y-47892D01*
X25614Y-47854D01*
X25633Y-47816D01*
X25652Y-47740D01*
X25652Y-47683D01*
X25633Y-47607D01*
X25614Y-47569D01*
X25576Y-47530D01*
X25519Y-47511D01*
X25480Y-47511D01*
X25423Y-47530D01*
X25404Y-47550D01*
X25004Y-47873D02*
X25023Y-47892D01*
X25080Y-47911D01*
X25119Y-47911D01*
X25176Y-47892D01*
X25214Y-47854D01*
X25233Y-47816D01*
X25252Y-47740D01*
X25252Y-47683D01*
X25233Y-47607D01*
X25214Y-47569D01*
X25176Y-47530D01*
X25119Y-47511D01*
X25080Y-47511D01*
X25023Y-47530D01*
X25004Y-47550D01*
X25804Y-45530D02*
X25842Y-45511D01*
X25900Y-45511D01*
X25957Y-45530D01*
X25995Y-45569D01*
X26014Y-45607D01*
X26033Y-45683D01*
X26033Y-45740D01*
X26014Y-45816D01*
X25995Y-45854D01*
X25957Y-45892D01*
X25900Y-45911D01*
X25861Y-45911D01*
X25804Y-45892D01*
X25785Y-45873D01*
X25785Y-45740D01*
X25861Y-45740D01*
X25614Y-45911D02*
X25614Y-45511D01*
X25385Y-45911D01*
X25385Y-45511D01*
X25195Y-45911D02*
X25195Y-45511D01*
X25099Y-45511D01*
X25042Y-45530D01*
X25004Y-45569D01*
X24985Y-45607D01*
X24966Y-45683D01*
X24966Y-45740D01*
X24985Y-45816D01*
X25004Y-45854D01*
X25042Y-45892D01*
X25099Y-45911D01*
X25195Y-45911D01*
X26033Y-46511D02*
X25899Y-46911D01*
X25766Y-46511D01*
X25404Y-46873D02*
X25423Y-46892D01*
X25480Y-46911D01*
X25519Y-46911D01*
X25576Y-46892D01*
X25614Y-46854D01*
X25633Y-46816D01*
X25652Y-46740D01*
X25652Y-46683D01*
X25633Y-46607D01*
X25614Y-46569D01*
X25576Y-46530D01*
X25519Y-46511D01*
X25480Y-46511D01*
X25423Y-46530D01*
X25404Y-46550D01*
X25004Y-46873D02*
X25023Y-46892D01*
X25080Y-46911D01*
X25119Y-46911D01*
X25176Y-46892D01*
X25214Y-46854D01*
X25233Y-46816D01*
X25252Y-46740D01*
X25252Y-46683D01*
X25233Y-46607D01*
X25214Y-46569D01*
X25176Y-46530D01*
X25119Y-46511D01*
X25080Y-46511D01*
X25023Y-46530D01*
X25004Y-46550D01*
X25804Y-44530D02*
X25842Y-44511D01*
X25900Y-44511D01*
X25957Y-44530D01*
X25995Y-44569D01*
X26014Y-44607D01*
X26033Y-44683D01*
X26033Y-44740D01*
X26014Y-44816D01*
X25995Y-44854D01*
X25957Y-44892D01*
X25900Y-44911D01*
X25861Y-44911D01*
X25804Y-44892D01*
X25785Y-44873D01*
X25785Y-44740D01*
X25861Y-44740D01*
X25614Y-44911D02*
X25614Y-44511D01*
X25385Y-44911D01*
X25385Y-44511D01*
X25195Y-44911D02*
X25195Y-44511D01*
X25099Y-44511D01*
X25042Y-44530D01*
X25004Y-44569D01*
X24985Y-44607D01*
X24966Y-44683D01*
X24966Y-44740D01*
X24985Y-44816D01*
X25004Y-44854D01*
X25042Y-44892D01*
X25099Y-44911D01*
X25195Y-44911D01*
G54D13*
G36*
X35827Y-48054D02*
X35817Y-48088D01*
X35799Y-48140D01*
X35773Y-48185D01*
X35741Y-48226D01*
X35703Y-48261D01*
X35659Y-48289D01*
X35609Y-48311D01*
X35591Y-48317D01*
X35578Y-48321D01*
X35578Y-46751D01*
X35578Y-46614D01*
X35578Y-46485D01*
X35578Y-46365D01*
X35578Y-46252D01*
X35577Y-46148D01*
X35577Y-46051D01*
X35577Y-45962D01*
X35577Y-45882D01*
X35577Y-45808D01*
X35577Y-45743D01*
X35576Y-45684D01*
X35576Y-45634D01*
X35576Y-45590D01*
X35575Y-45553D01*
X35575Y-45523D01*
X35574Y-45501D01*
X35574Y-45485D01*
X35574Y-45475D01*
X35573Y-45472D01*
X35563Y-45456D01*
X35548Y-45440D01*
X35532Y-45430D01*
X35529Y-45429D01*
X35524Y-45429D01*
X35516Y-45428D01*
X35505Y-45427D01*
X35491Y-45427D01*
X35473Y-45426D01*
X35452Y-45426D01*
X35425Y-45426D01*
X35394Y-45425D01*
X35358Y-45425D01*
X35317Y-45425D01*
X35269Y-45425D01*
X35215Y-45425D01*
X35155Y-45424D01*
X35088Y-45424D01*
X35014Y-45424D01*
X34932Y-45424D01*
X34842Y-45424D01*
X34779Y-45424D01*
X34040Y-45424D01*
X33482Y-45982D01*
X32924Y-46540D01*
X32924Y-47278D01*
X32924Y-47383D01*
X32924Y-47480D01*
X32924Y-47568D01*
X32925Y-47649D01*
X32925Y-47721D01*
X32925Y-47785D01*
X32925Y-47841D01*
X32926Y-47890D01*
X32926Y-47931D01*
X32926Y-47965D01*
X32927Y-47992D01*
X32928Y-48011D01*
X32928Y-48024D01*
X32929Y-48029D01*
X32929Y-48029D01*
X32938Y-48046D01*
X32953Y-48061D01*
X32969Y-48072D01*
X32971Y-48072D01*
X32976Y-48073D01*
X32984Y-48073D01*
X32994Y-48074D01*
X33008Y-48074D01*
X33025Y-48075D01*
X33046Y-48075D01*
X33071Y-48075D01*
X33100Y-48076D01*
X33134Y-48076D01*
X33173Y-48076D01*
X33216Y-48076D01*
X33265Y-48077D01*
X33320Y-48077D01*
X33380Y-48077D01*
X33447Y-48077D01*
X33519Y-48077D01*
X33599Y-48077D01*
X33685Y-48077D01*
X33779Y-48077D01*
X33880Y-48077D01*
X33989Y-48078D01*
X34106Y-48078D01*
X34231Y-48078D01*
X34250Y-48078D01*
X34387Y-48078D01*
X34516Y-48078D01*
X34637Y-48078D01*
X34749Y-48077D01*
X34854Y-48077D01*
X34950Y-48077D01*
X35039Y-48077D01*
X35120Y-48077D01*
X35193Y-48077D01*
X35259Y-48077D01*
X35317Y-48076D01*
X35368Y-48076D01*
X35412Y-48076D01*
X35448Y-48075D01*
X35478Y-48075D01*
X35501Y-48074D01*
X35517Y-48074D01*
X35527Y-48074D01*
X35529Y-48073D01*
X35546Y-48063D01*
X35562Y-48048D01*
X35572Y-48032D01*
X35572Y-48030D01*
X35573Y-48025D01*
X35573Y-48018D01*
X35574Y-48008D01*
X35574Y-47996D01*
X35575Y-47980D01*
X35575Y-47960D01*
X35576Y-47937D01*
X35576Y-47910D01*
X35576Y-47878D01*
X35576Y-47842D01*
X35577Y-47801D01*
X35577Y-47755D01*
X35577Y-47704D01*
X35577Y-47646D01*
X35577Y-47583D01*
X35577Y-47514D01*
X35577Y-47438D01*
X35578Y-47356D01*
X35578Y-47266D01*
X35578Y-47169D01*
X35578Y-47065D01*
X35578Y-46953D01*
X35578Y-46832D01*
X35578Y-46751D01*
X35578Y-48321D01*
X35559Y-48327D01*
X34270Y-48328D01*
X34166Y-48328D01*
X34064Y-48328D01*
X33963Y-48328D01*
X33866Y-48328D01*
X33772Y-48328D01*
X33681Y-48328D01*
X33594Y-48328D01*
X33511Y-48328D01*
X33432Y-48327D01*
X33358Y-48327D01*
X33289Y-48327D01*
X33226Y-48327D01*
X33169Y-48327D01*
X33117Y-48327D01*
X33072Y-48327D01*
X33034Y-48326D01*
X33003Y-48326D01*
X32980Y-48326D01*
X32964Y-48326D01*
X32957Y-48325D01*
X32956Y-48325D01*
X32906Y-48315D01*
X32859Y-48298D01*
X32816Y-48273D01*
X32777Y-48242D01*
X32743Y-48204D01*
X32715Y-48162D01*
X32693Y-48114D01*
X32684Y-48088D01*
X32675Y-48054D01*
X32675Y-47256D01*
X32675Y-46459D01*
X32686Y-46436D01*
X32688Y-46432D01*
X32692Y-46427D01*
X32697Y-46421D01*
X32705Y-46412D01*
X32715Y-46401D01*
X32727Y-46388D01*
X32742Y-46372D01*
X32760Y-46354D01*
X32781Y-46332D01*
X32805Y-46307D01*
X32833Y-46279D01*
X32865Y-46246D01*
X32901Y-46210D01*
X32942Y-46169D01*
X32987Y-46124D01*
X33037Y-46074D01*
X33092Y-46019D01*
X33152Y-45959D01*
X33217Y-45893D01*
X33289Y-45821D01*
X33307Y-45803D01*
X33380Y-45730D01*
X33448Y-45663D01*
X33510Y-45601D01*
X33566Y-45544D01*
X33618Y-45493D01*
X33665Y-45447D01*
X33707Y-45405D01*
X33744Y-45368D01*
X33778Y-45335D01*
X33807Y-45305D01*
X33833Y-45280D01*
X33855Y-45259D01*
X33875Y-45240D01*
X33891Y-45225D01*
X33904Y-45212D01*
X33915Y-45202D01*
X33924Y-45195D01*
X33930Y-45189D01*
X33935Y-45186D01*
X33938Y-45184D01*
X33959Y-45175D01*
X34756Y-45175D01*
X35554Y-45175D01*
X35588Y-45184D01*
X35640Y-45203D01*
X35685Y-45229D01*
X35726Y-45261D01*
X35760Y-45299D01*
X35789Y-45342D01*
X35810Y-45392D01*
X35817Y-45414D01*
X35827Y-45448D01*
X35827Y-46751D01*
X35827Y-48054D01*
X35827Y-48054D01*
X35827Y-48054D01*
G37*
G36*
X33595Y-45301D02*
X33591Y-45331D01*
X33581Y-45359D01*
X33576Y-45367D01*
X33572Y-45372D01*
X33562Y-45383D01*
X33546Y-45399D01*
X33526Y-45420D01*
X33501Y-45445D01*
X33473Y-45474D01*
X33440Y-45507D01*
X33404Y-45543D01*
X33366Y-45582D01*
X33325Y-45623D01*
X33281Y-45667D01*
X33236Y-45712D01*
X33218Y-45730D01*
X33163Y-45785D01*
X33113Y-45835D01*
X33069Y-45879D01*
X33030Y-45918D01*
X32995Y-45952D01*
X32965Y-45981D01*
X32940Y-46006D01*
X32918Y-46027D01*
X32900Y-46044D01*
X32885Y-46058D01*
X32873Y-46068D01*
X32864Y-46076D01*
X32857Y-46081D01*
X32853Y-46084D01*
X32852Y-46085D01*
X32827Y-46092D01*
X32801Y-46096D01*
X32777Y-46094D01*
X32774Y-46094D01*
X32745Y-46084D01*
X32719Y-46068D01*
X32699Y-46047D01*
X32696Y-46043D01*
X32692Y-46036D01*
X32688Y-46031D01*
X32685Y-46024D01*
X32682Y-46017D01*
X32680Y-46009D01*
X32678Y-45999D01*
X32677Y-45987D01*
X32675Y-45971D01*
X32674Y-45952D01*
X32674Y-45928D01*
X32673Y-45900D01*
X32673Y-45867D01*
X32673Y-45827D01*
X32673Y-45782D01*
X32673Y-45729D01*
X32673Y-45668D01*
X32673Y-45624D01*
X32673Y-45561D01*
X32674Y-45505D01*
X32674Y-45457D01*
X32674Y-45416D01*
X32675Y-45381D01*
X32675Y-45352D01*
X32675Y-45328D01*
X32676Y-45309D01*
X32676Y-45293D01*
X32677Y-45281D01*
X32678Y-45272D01*
X32679Y-45265D01*
X32680Y-45260D01*
X32681Y-45256D01*
X32682Y-45252D01*
X32683Y-45251D01*
X32700Y-45223D01*
X32720Y-45202D01*
X32745Y-45187D01*
X32770Y-45178D01*
X32776Y-45177D01*
X32783Y-45176D01*
X32792Y-45176D01*
X32804Y-45175D01*
X32820Y-45174D01*
X32839Y-45174D01*
X32862Y-45173D01*
X32891Y-45173D01*
X32925Y-45173D01*
X32965Y-45173D01*
X33012Y-45173D01*
X33066Y-45173D01*
X33128Y-45173D01*
X33149Y-45173D01*
X33503Y-45175D01*
X33522Y-45184D01*
X33544Y-45198D01*
X33564Y-45216D01*
X33580Y-45236D01*
X33583Y-45243D01*
X33592Y-45271D01*
X33595Y-45301D01*
X33595Y-45301D01*
X33595Y-45301D01*
G37*
G36*
X34111Y-47971D02*
X34008Y-47971D01*
X34008Y-47485D01*
X33116Y-47485D01*
X33116Y-47382D01*
X34111Y-47382D01*
X34111Y-47971D01*
X34111Y-47971D01*
X34111Y-47971D01*
G37*
G36*
X33496Y-47890D02*
X33146Y-47890D01*
X33146Y-47788D01*
X33496Y-47788D01*
X33496Y-47890D01*
X33496Y-47890D01*
X33496Y-47890D01*
G37*
G36*
X33906Y-47886D02*
X33646Y-47886D01*
X33646Y-47783D01*
X33906Y-47783D01*
X33906Y-47886D01*
X33906Y-47886D01*
X33906Y-47886D01*
G37*
G36*
X35488Y-47233D02*
X35243Y-47233D01*
X34997Y-47233D01*
X34997Y-47365D01*
X34997Y-47497D01*
X34946Y-47497D01*
X34895Y-47497D01*
X34894Y-47406D01*
X34893Y-47315D01*
X34813Y-47399D01*
X34733Y-47482D01*
X34733Y-47633D01*
X34733Y-47783D01*
X34792Y-47783D01*
X34852Y-47783D01*
X34852Y-47835D01*
X34852Y-47886D01*
X34673Y-47886D01*
X34494Y-47886D01*
X34494Y-47835D01*
X34494Y-47783D01*
X34562Y-47783D01*
X34630Y-47783D01*
X34631Y-47618D01*
X34631Y-47581D01*
X34631Y-47546D01*
X34632Y-47515D01*
X34632Y-47488D01*
X34633Y-47466D01*
X34633Y-47451D01*
X34634Y-47444D01*
X34634Y-47443D01*
X34637Y-47438D01*
X34646Y-47427D01*
X34659Y-47412D01*
X34676Y-47393D01*
X34697Y-47371D01*
X34719Y-47347D01*
X34737Y-47328D01*
X34762Y-47302D01*
X34785Y-47277D01*
X34807Y-47255D01*
X34825Y-47235D01*
X34840Y-47219D01*
X34851Y-47207D01*
X34855Y-47203D01*
X34873Y-47183D01*
X34765Y-47072D01*
X34740Y-47045D01*
X34716Y-47021D01*
X34695Y-46999D01*
X34677Y-46979D01*
X34662Y-46964D01*
X34652Y-46953D01*
X34648Y-46948D01*
X34644Y-46941D01*
X34641Y-46933D01*
X34640Y-46922D01*
X34639Y-46905D01*
X34639Y-46890D01*
X34639Y-46844D01*
X34302Y-46844D01*
X33966Y-46844D01*
X33966Y-46908D01*
X33966Y-46972D01*
X33863Y-46972D01*
X33863Y-46870D01*
X33863Y-46795D01*
X33863Y-46722D01*
X33629Y-46722D01*
X33396Y-46722D01*
X33355Y-46758D01*
X33340Y-46772D01*
X33327Y-46784D01*
X33319Y-46793D01*
X33315Y-46797D01*
X33315Y-46798D01*
X33318Y-46801D01*
X33326Y-46809D01*
X33338Y-46821D01*
X33353Y-46834D01*
X33354Y-46835D01*
X33394Y-46870D01*
X33629Y-46870D01*
X33863Y-46870D01*
X33863Y-46972D01*
X33659Y-46972D01*
X33353Y-46972D01*
X33257Y-46889D01*
X33233Y-46867D01*
X33211Y-46848D01*
X33192Y-46830D01*
X33177Y-46816D01*
X33166Y-46806D01*
X33161Y-46800D01*
X33161Y-46799D01*
X33164Y-46795D01*
X33173Y-46786D01*
X33186Y-46773D01*
X33204Y-46756D01*
X33224Y-46738D01*
X33247Y-46716D01*
X33257Y-46707D01*
X33353Y-46619D01*
X33659Y-46619D01*
X33966Y-46619D01*
X33966Y-46681D01*
X33966Y-46743D01*
X34302Y-46743D01*
X34639Y-46743D01*
X34639Y-46655D01*
X34639Y-46568D01*
X34571Y-46568D01*
X34502Y-46568D01*
X34502Y-46274D01*
X34502Y-45979D01*
X34566Y-45979D01*
X34630Y-45979D01*
X34630Y-45740D01*
X34630Y-45501D01*
X34682Y-45501D01*
X34733Y-45501D01*
X34733Y-45740D01*
X34733Y-45979D01*
X34797Y-45979D01*
X34861Y-45979D01*
X34861Y-46274D01*
X34861Y-46568D01*
X34801Y-46568D01*
X34758Y-46568D01*
X34758Y-46466D01*
X34758Y-46274D01*
X34758Y-46082D01*
X34682Y-46082D01*
X34605Y-46082D01*
X34605Y-46274D01*
X34605Y-46466D01*
X34682Y-46466D01*
X34758Y-46466D01*
X34758Y-46568D01*
X34741Y-46568D01*
X34741Y-46733D01*
X34742Y-46898D01*
X34818Y-46977D01*
X34895Y-47056D01*
X34895Y-46967D01*
X34895Y-46879D01*
X34946Y-46879D01*
X34997Y-46879D01*
X34997Y-47004D01*
X34997Y-47130D01*
X35243Y-47130D01*
X35488Y-47130D01*
X35488Y-47182D01*
X35488Y-47233D01*
X35488Y-47233D01*
X35488Y-47233D01*
G37*
G36*
X33564Y-47643D02*
X33146Y-47643D01*
X33146Y-47540D01*
X33564Y-47540D01*
X33564Y-47643D01*
X33564Y-47643D01*
X33564Y-47643D01*
G37*
G36*
X33940Y-47643D02*
X33646Y-47643D01*
X33646Y-47540D01*
X33940Y-47540D01*
X33940Y-47643D01*
X33940Y-47643D01*
X33940Y-47643D01*
G37*
%LPC*%
G54D14*
X42520Y-38976D03*
X25984Y-55512D03*
X42520Y-55512D03*
X25984Y-38976D03*
G54D15*
X26969Y-46744D03*
X26969Y-47744D03*
X26969Y-45744D03*
X26969Y-44744D03*
X26969Y-48744D03*
X26969Y-49744D03*
X41535Y-47744D03*
X41535Y-46744D03*
X41535Y-48744D03*
X41535Y-49744D03*
X41535Y-45744D03*
X41535Y-44744D03*
M02*
