%FSLAX34Y34*%
G04 Gerber Fmt 3.4, Leading zero omitted, Abs format*
G04 (created by PCBNEW 52ca2e1517-product) date Tue 14 Jan 2014 02:24:46 PM CET*
%MOIN*%
G01*
G70*
G90*
G04 APERTURE LIST*
%ADD10C,0.005906*%
%ADD11R,0.025000X0.025000*%
%ADD12C,0.065000*%
%ADD13C,0.160000*%
%ADD14C,0.025000*%
%ADD15C,0.028000*%
%ADD16C,0.007874*%
G04 APERTURE END LIST*
G54D10*
G54D11*
X34054Y-43936D03*
X34448Y-43936D03*
X34408Y-43621D03*
X34094Y-43621D03*
X34251Y-43818D03*
X34251Y-44015D03*
G54D12*
X26969Y-46744D03*
X26969Y-47744D03*
X26969Y-45744D03*
X26969Y-44744D03*
X26969Y-48744D03*
X26969Y-49744D03*
X41535Y-47744D03*
X41535Y-46744D03*
X41535Y-48744D03*
X41535Y-49744D03*
X41535Y-45744D03*
X41535Y-44744D03*
G54D13*
X42520Y-38976D03*
X25984Y-55512D03*
X42520Y-55512D03*
X25984Y-38976D03*
G54D14*
X36988Y-49744D03*
X36076Y-42983D03*
X34802Y-41929D03*
X36950Y-43926D03*
X35950Y-43926D03*
X42894Y-41339D03*
X26358Y-41339D03*
X42894Y-42421D03*
X26358Y-42421D03*
G54D15*
X36988Y-49744D02*
X36988Y-49744D01*
X36988Y-49744D02*
X36988Y-49744D01*
X36988Y-49744D02*
X36988Y-49744D01*
X36633Y-49744D02*
X36633Y-49744D01*
X36633Y-49744D02*
X36633Y-49744D01*
X36633Y-49744D02*
X36633Y-49744D01*
X37401Y-49744D02*
X37401Y-49744D01*
X26969Y-49744D02*
X36633Y-49744D01*
X36633Y-49744D02*
X36988Y-49744D01*
X36988Y-49744D02*
X37401Y-49744D01*
X37401Y-49744D02*
X41535Y-49744D01*
X36079Y-42980D02*
X36080Y-42980D01*
X36076Y-42983D02*
X36079Y-42980D01*
X34800Y-41932D02*
X34800Y-41940D01*
X34802Y-41929D02*
X34800Y-41932D01*
X36944Y-43920D02*
X36940Y-43920D01*
X36950Y-43926D02*
X36944Y-43920D01*
X35960Y-43920D02*
X35956Y-43920D01*
X35956Y-43920D02*
X35950Y-43926D01*
X42895Y-41340D02*
X42900Y-41340D01*
X42894Y-41339D02*
X42895Y-41340D01*
X26359Y-41340D02*
X26360Y-41340D01*
X26358Y-41339D02*
X26359Y-41340D01*
X34251Y-43818D02*
X34251Y-44744D01*
X34251Y-44744D02*
X34251Y-44685D01*
X26969Y-44744D02*
X34251Y-44744D01*
X34251Y-44744D02*
X41535Y-44744D01*
X41535Y-43780D02*
X41535Y-44744D01*
X42894Y-42421D02*
X41535Y-43780D01*
X26969Y-43032D02*
X26969Y-44744D01*
X26358Y-42421D02*
X26969Y-43032D01*
X26969Y-45744D02*
X26969Y-44744D01*
X41342Y-45551D02*
X41535Y-45744D01*
X41535Y-44744D02*
X41535Y-44724D01*
X41535Y-44744D02*
X41535Y-45744D01*
X26969Y-47744D02*
X26468Y-47744D01*
X42232Y-47744D02*
X41535Y-47744D01*
X42913Y-48425D02*
X42232Y-47744D01*
X42913Y-50590D02*
X42913Y-48425D01*
X41929Y-51574D02*
X42913Y-50590D01*
X26574Y-51574D02*
X41929Y-51574D01*
X25590Y-50590D02*
X26574Y-51574D01*
X25590Y-48622D02*
X25590Y-50590D01*
X26468Y-47744D02*
X25590Y-48622D01*
G54D10*
G36*
X43858Y-40622D02*
X43858Y-45687D01*
X43851Y-45758D01*
X43831Y-45824D01*
X43798Y-45885D01*
X43754Y-45939D01*
X43700Y-45983D01*
X43639Y-46016D01*
X43573Y-46036D01*
X43502Y-46043D01*
X25001Y-46043D01*
X24930Y-46036D01*
X24864Y-46016D01*
X24803Y-45983D01*
X24749Y-45939D01*
X24705Y-45885D01*
X24672Y-45824D01*
X24652Y-45758D01*
X24645Y-45687D01*
X24645Y-40622D01*
X26141Y-40622D01*
X26141Y-40500D01*
X26396Y-40455D01*
X26676Y-40346D01*
X26929Y-40186D01*
X27146Y-39979D01*
X27319Y-39734D01*
X27441Y-39460D01*
X27507Y-39168D01*
X27508Y-39133D01*
X27629Y-39133D01*
X27629Y-37637D01*
X40874Y-37637D01*
X40874Y-39133D01*
X40995Y-39133D01*
X41043Y-39399D01*
X41154Y-39677D01*
X41316Y-39929D01*
X41524Y-40145D01*
X41770Y-40316D01*
X42045Y-40436D01*
X42338Y-40500D01*
X42362Y-40501D01*
X42362Y-40622D01*
X43858Y-40622D01*
X43858Y-40622D01*
G37*
G54D16*
X43858Y-40622D02*
X43858Y-45687D01*
X43851Y-45758D01*
X43831Y-45824D01*
X43798Y-45885D01*
X43754Y-45939D01*
X43700Y-45983D01*
X43639Y-46016D01*
X43573Y-46036D01*
X43502Y-46043D01*
X25001Y-46043D01*
X24930Y-46036D01*
X24864Y-46016D01*
X24803Y-45983D01*
X24749Y-45939D01*
X24705Y-45885D01*
X24672Y-45824D01*
X24652Y-45758D01*
X24645Y-45687D01*
X24645Y-40622D01*
X26141Y-40622D01*
X26141Y-40500D01*
X26396Y-40455D01*
X26676Y-40346D01*
X26929Y-40186D01*
X27146Y-39979D01*
X27319Y-39734D01*
X27441Y-39460D01*
X27507Y-39168D01*
X27508Y-39133D01*
X27629Y-39133D01*
X27629Y-37637D01*
X40874Y-37637D01*
X40874Y-39133D01*
X40995Y-39133D01*
X41043Y-39399D01*
X41154Y-39677D01*
X41316Y-39929D01*
X41524Y-40145D01*
X41770Y-40316D01*
X42045Y-40436D01*
X42338Y-40500D01*
X42362Y-40501D01*
X42362Y-40622D01*
X43858Y-40622D01*
G54D10*
G36*
X43858Y-53866D02*
X42362Y-53866D01*
X42362Y-53986D01*
X42086Y-54038D01*
X42017Y-54066D01*
X42017Y-49696D01*
X42017Y-48696D01*
X41999Y-48603D01*
X41963Y-48516D01*
X41910Y-48437D01*
X41844Y-48370D01*
X41765Y-48317D01*
X41678Y-48280D01*
X41585Y-48261D01*
X41491Y-48261D01*
X41398Y-48278D01*
X41310Y-48314D01*
X41231Y-48366D01*
X41163Y-48432D01*
X41110Y-48510D01*
X41072Y-48597D01*
X41053Y-48689D01*
X41051Y-48784D01*
X41068Y-48877D01*
X41103Y-48965D01*
X41155Y-49045D01*
X41220Y-49113D01*
X41298Y-49167D01*
X41385Y-49205D01*
X41477Y-49225D01*
X41572Y-49227D01*
X41665Y-49210D01*
X41753Y-49176D01*
X41833Y-49126D01*
X41902Y-49060D01*
X41956Y-48983D01*
X41995Y-48897D01*
X42015Y-48804D01*
X42017Y-48696D01*
X42017Y-49696D01*
X41999Y-49603D01*
X41963Y-49516D01*
X41910Y-49437D01*
X41844Y-49370D01*
X41765Y-49317D01*
X41678Y-49280D01*
X41585Y-49261D01*
X41491Y-49261D01*
X41398Y-49278D01*
X41310Y-49314D01*
X41231Y-49366D01*
X41163Y-49432D01*
X41153Y-49446D01*
X37401Y-49446D01*
X36988Y-49446D01*
X36633Y-49446D01*
X27451Y-49446D01*
X27451Y-48696D01*
X27433Y-48603D01*
X27397Y-48516D01*
X27344Y-48437D01*
X27278Y-48370D01*
X27199Y-48317D01*
X27112Y-48280D01*
X27019Y-48261D01*
X26925Y-48261D01*
X26832Y-48278D01*
X26744Y-48314D01*
X26665Y-48366D01*
X26597Y-48432D01*
X26544Y-48510D01*
X26506Y-48597D01*
X26487Y-48689D01*
X26485Y-48784D01*
X26502Y-48877D01*
X26537Y-48965D01*
X26589Y-49045D01*
X26654Y-49113D01*
X26732Y-49167D01*
X26819Y-49205D01*
X26911Y-49225D01*
X27006Y-49227D01*
X27099Y-49210D01*
X27187Y-49176D01*
X27267Y-49126D01*
X27336Y-49060D01*
X27390Y-48983D01*
X27429Y-48897D01*
X27449Y-48804D01*
X27451Y-48696D01*
X27451Y-49446D01*
X27350Y-49446D01*
X27344Y-49437D01*
X27278Y-49370D01*
X27199Y-49317D01*
X27112Y-49280D01*
X27019Y-49261D01*
X26925Y-49261D01*
X26832Y-49278D01*
X26744Y-49314D01*
X26665Y-49366D01*
X26597Y-49432D01*
X26544Y-49510D01*
X26506Y-49597D01*
X26487Y-49689D01*
X26485Y-49784D01*
X26502Y-49877D01*
X26537Y-49965D01*
X26589Y-50045D01*
X26654Y-50113D01*
X26732Y-50167D01*
X26819Y-50205D01*
X26911Y-50225D01*
X27006Y-50227D01*
X27099Y-50210D01*
X27187Y-50176D01*
X27267Y-50126D01*
X27336Y-50060D01*
X27349Y-50041D01*
X36630Y-50041D01*
X36631Y-50041D01*
X36632Y-50041D01*
X36633Y-50041D01*
X36985Y-50041D01*
X36986Y-50041D01*
X36987Y-50041D01*
X36988Y-50041D01*
X37398Y-50041D01*
X37399Y-50041D01*
X37400Y-50041D01*
X37401Y-50041D01*
X41152Y-50041D01*
X41155Y-50045D01*
X41220Y-50113D01*
X41298Y-50167D01*
X41385Y-50205D01*
X41477Y-50225D01*
X41572Y-50227D01*
X41665Y-50210D01*
X41753Y-50176D01*
X41833Y-50126D01*
X41902Y-50060D01*
X41956Y-49983D01*
X41995Y-49897D01*
X42015Y-49804D01*
X42017Y-49696D01*
X42017Y-54066D01*
X41808Y-54151D01*
X41557Y-54315D01*
X41343Y-54524D01*
X41174Y-54772D01*
X41056Y-55047D01*
X40993Y-55340D01*
X40993Y-55354D01*
X40874Y-55354D01*
X40874Y-56850D01*
X27629Y-56850D01*
X27629Y-55354D01*
X27510Y-55354D01*
X27454Y-55068D01*
X27339Y-54791D01*
X27174Y-54541D01*
X26962Y-54328D01*
X26714Y-54161D01*
X26438Y-54044D01*
X26144Y-53984D01*
X26141Y-53984D01*
X26141Y-53866D01*
X24645Y-53866D01*
X24645Y-46793D01*
X24652Y-46722D01*
X24672Y-46655D01*
X24705Y-46594D01*
X24749Y-46540D01*
X24803Y-46496D01*
X24864Y-46464D01*
X24930Y-46444D01*
X25001Y-46437D01*
X43502Y-46437D01*
X43573Y-46444D01*
X43639Y-46464D01*
X43700Y-46496D01*
X43754Y-46540D01*
X43798Y-46594D01*
X43831Y-46655D01*
X43851Y-46722D01*
X43858Y-46793D01*
X43858Y-53866D01*
X43858Y-53866D01*
G37*
G54D16*
X43858Y-53866D02*
X42362Y-53866D01*
X42362Y-53986D01*
X42086Y-54038D01*
X42017Y-54066D01*
X42017Y-49696D01*
X42017Y-48696D01*
X41999Y-48603D01*
X41963Y-48516D01*
X41910Y-48437D01*
X41844Y-48370D01*
X41765Y-48317D01*
X41678Y-48280D01*
X41585Y-48261D01*
X41491Y-48261D01*
X41398Y-48278D01*
X41310Y-48314D01*
X41231Y-48366D01*
X41163Y-48432D01*
X41110Y-48510D01*
X41072Y-48597D01*
X41053Y-48689D01*
X41051Y-48784D01*
X41068Y-48877D01*
X41103Y-48965D01*
X41155Y-49045D01*
X41220Y-49113D01*
X41298Y-49167D01*
X41385Y-49205D01*
X41477Y-49225D01*
X41572Y-49227D01*
X41665Y-49210D01*
X41753Y-49176D01*
X41833Y-49126D01*
X41902Y-49060D01*
X41956Y-48983D01*
X41995Y-48897D01*
X42015Y-48804D01*
X42017Y-48696D01*
X42017Y-49696D01*
X41999Y-49603D01*
X41963Y-49516D01*
X41910Y-49437D01*
X41844Y-49370D01*
X41765Y-49317D01*
X41678Y-49280D01*
X41585Y-49261D01*
X41491Y-49261D01*
X41398Y-49278D01*
X41310Y-49314D01*
X41231Y-49366D01*
X41163Y-49432D01*
X41153Y-49446D01*
X37401Y-49446D01*
X36988Y-49446D01*
X36633Y-49446D01*
X27451Y-49446D01*
X27451Y-48696D01*
X27433Y-48603D01*
X27397Y-48516D01*
X27344Y-48437D01*
X27278Y-48370D01*
X27199Y-48317D01*
X27112Y-48280D01*
X27019Y-48261D01*
X26925Y-48261D01*
X26832Y-48278D01*
X26744Y-48314D01*
X26665Y-48366D01*
X26597Y-48432D01*
X26544Y-48510D01*
X26506Y-48597D01*
X26487Y-48689D01*
X26485Y-48784D01*
X26502Y-48877D01*
X26537Y-48965D01*
X26589Y-49045D01*
X26654Y-49113D01*
X26732Y-49167D01*
X26819Y-49205D01*
X26911Y-49225D01*
X27006Y-49227D01*
X27099Y-49210D01*
X27187Y-49176D01*
X27267Y-49126D01*
X27336Y-49060D01*
X27390Y-48983D01*
X27429Y-48897D01*
X27449Y-48804D01*
X27451Y-48696D01*
X27451Y-49446D01*
X27350Y-49446D01*
X27344Y-49437D01*
X27278Y-49370D01*
X27199Y-49317D01*
X27112Y-49280D01*
X27019Y-49261D01*
X26925Y-49261D01*
X26832Y-49278D01*
X26744Y-49314D01*
X26665Y-49366D01*
X26597Y-49432D01*
X26544Y-49510D01*
X26506Y-49597D01*
X26487Y-49689D01*
X26485Y-49784D01*
X26502Y-49877D01*
X26537Y-49965D01*
X26589Y-50045D01*
X26654Y-50113D01*
X26732Y-50167D01*
X26819Y-50205D01*
X26911Y-50225D01*
X27006Y-50227D01*
X27099Y-50210D01*
X27187Y-50176D01*
X27267Y-50126D01*
X27336Y-50060D01*
X27349Y-50041D01*
X36630Y-50041D01*
X36631Y-50041D01*
X36632Y-50041D01*
X36633Y-50041D01*
X36985Y-50041D01*
X36986Y-50041D01*
X36987Y-50041D01*
X36988Y-50041D01*
X37398Y-50041D01*
X37399Y-50041D01*
X37400Y-50041D01*
X37401Y-50041D01*
X41152Y-50041D01*
X41155Y-50045D01*
X41220Y-50113D01*
X41298Y-50167D01*
X41385Y-50205D01*
X41477Y-50225D01*
X41572Y-50227D01*
X41665Y-50210D01*
X41753Y-50176D01*
X41833Y-50126D01*
X41902Y-50060D01*
X41956Y-49983D01*
X41995Y-49897D01*
X42015Y-49804D01*
X42017Y-49696D01*
X42017Y-54066D01*
X41808Y-54151D01*
X41557Y-54315D01*
X41343Y-54524D01*
X41174Y-54772D01*
X41056Y-55047D01*
X40993Y-55340D01*
X40993Y-55354D01*
X40874Y-55354D01*
X40874Y-56850D01*
X27629Y-56850D01*
X27629Y-55354D01*
X27510Y-55354D01*
X27454Y-55068D01*
X27339Y-54791D01*
X27174Y-54541D01*
X26962Y-54328D01*
X26714Y-54161D01*
X26438Y-54044D01*
X26144Y-53984D01*
X26141Y-53984D01*
X26141Y-53866D01*
X24645Y-53866D01*
X24645Y-46793D01*
X24652Y-46722D01*
X24672Y-46655D01*
X24705Y-46594D01*
X24749Y-46540D01*
X24803Y-46496D01*
X24864Y-46464D01*
X24930Y-46444D01*
X25001Y-46437D01*
X43502Y-46437D01*
X43573Y-46444D01*
X43639Y-46464D01*
X43700Y-46496D01*
X43754Y-46540D01*
X43798Y-46594D01*
X43831Y-46655D01*
X43851Y-46722D01*
X43858Y-46793D01*
X43858Y-53866D01*
M02*
