G04 (created by PCBNEW-RS274X (2012-jan-04)-stable) date Mon 29 Oct 2012 04:53:34 AM CET*
G01*
G70*
G90*
%MOIN*%
G04 Gerber Fmt 3.4, Leading zero omitted, Abs format*
%FSLAX34Y34*%
G04 APERTURE LIST*
%ADD10C,0.006000*%
%ADD11C,0.008000*%
%ADD12C,0.075000*%
%ADD13C,0.160000*%
G04 APERTURE END LIST*
G54D10*
G54D11*
X43304Y-44531D02*
X43342Y-44512D01*
X43399Y-44512D01*
X43457Y-44531D01*
X43495Y-44569D01*
X43514Y-44607D01*
X43533Y-44683D01*
X43533Y-44740D01*
X43514Y-44817D01*
X43495Y-44855D01*
X43457Y-44893D01*
X43399Y-44912D01*
X43361Y-44912D01*
X43304Y-44893D01*
X43285Y-44874D01*
X43285Y-44740D01*
X43361Y-44740D01*
X43114Y-44912D02*
X43114Y-44512D01*
X42885Y-44912D01*
X42885Y-44512D01*
X42695Y-44912D02*
X42695Y-44512D01*
X42600Y-44512D01*
X42542Y-44531D01*
X42504Y-44569D01*
X42485Y-44607D01*
X42466Y-44683D01*
X42466Y-44740D01*
X42485Y-44817D01*
X42504Y-44855D01*
X42542Y-44893D01*
X42600Y-44912D01*
X42695Y-44912D01*
X43533Y-46512D02*
X43400Y-46912D01*
X43266Y-46512D01*
X42904Y-46874D02*
X42923Y-46893D01*
X42980Y-46912D01*
X43018Y-46912D01*
X43076Y-46893D01*
X43114Y-46855D01*
X43133Y-46817D01*
X43152Y-46740D01*
X43152Y-46683D01*
X43133Y-46607D01*
X43114Y-46569D01*
X43076Y-46531D01*
X43018Y-46512D01*
X42980Y-46512D01*
X42923Y-46531D01*
X42904Y-46550D01*
X42504Y-46874D02*
X42523Y-46893D01*
X42580Y-46912D01*
X42618Y-46912D01*
X42676Y-46893D01*
X42714Y-46855D01*
X42733Y-46817D01*
X42752Y-46740D01*
X42752Y-46683D01*
X42733Y-46607D01*
X42714Y-46569D01*
X42676Y-46531D01*
X42618Y-46512D01*
X42580Y-46512D01*
X42523Y-46531D01*
X42504Y-46550D01*
X43304Y-45531D02*
X43342Y-45512D01*
X43399Y-45512D01*
X43457Y-45531D01*
X43495Y-45569D01*
X43514Y-45607D01*
X43533Y-45683D01*
X43533Y-45740D01*
X43514Y-45817D01*
X43495Y-45855D01*
X43457Y-45893D01*
X43399Y-45912D01*
X43361Y-45912D01*
X43304Y-45893D01*
X43285Y-45874D01*
X43285Y-45740D01*
X43361Y-45740D01*
X43114Y-45912D02*
X43114Y-45512D01*
X42885Y-45912D01*
X42885Y-45512D01*
X42695Y-45912D02*
X42695Y-45512D01*
X42600Y-45512D01*
X42542Y-45531D01*
X42504Y-45569D01*
X42485Y-45607D01*
X42466Y-45683D01*
X42466Y-45740D01*
X42485Y-45817D01*
X42504Y-45855D01*
X42542Y-45893D01*
X42600Y-45912D01*
X42695Y-45912D01*
X43533Y-47512D02*
X43400Y-47912D01*
X43266Y-47512D01*
X42904Y-47874D02*
X42923Y-47893D01*
X42980Y-47912D01*
X43018Y-47912D01*
X43076Y-47893D01*
X43114Y-47855D01*
X43133Y-47817D01*
X43152Y-47740D01*
X43152Y-47683D01*
X43133Y-47607D01*
X43114Y-47569D01*
X43076Y-47531D01*
X43018Y-47512D01*
X42980Y-47512D01*
X42923Y-47531D01*
X42904Y-47550D01*
X42504Y-47874D02*
X42523Y-47893D01*
X42580Y-47912D01*
X42618Y-47912D01*
X42676Y-47893D01*
X42714Y-47855D01*
X42733Y-47817D01*
X42752Y-47740D01*
X42752Y-47683D01*
X42733Y-47607D01*
X42714Y-47569D01*
X42676Y-47531D01*
X42618Y-47512D01*
X42580Y-47512D01*
X42523Y-47531D01*
X42504Y-47550D01*
X43428Y-49912D02*
X43428Y-49512D01*
X43333Y-49512D01*
X43275Y-49531D01*
X43237Y-49569D01*
X43218Y-49607D01*
X43199Y-49683D01*
X43199Y-49740D01*
X43218Y-49817D01*
X43237Y-49855D01*
X43275Y-49893D01*
X43333Y-49912D01*
X43428Y-49912D01*
X43028Y-49912D02*
X43028Y-49512D01*
X42838Y-49912D02*
X42838Y-49512D01*
X42704Y-49798D01*
X42571Y-49512D01*
X42571Y-49912D01*
X43314Y-48912D02*
X43314Y-48512D01*
X43085Y-48912D01*
X43085Y-48512D01*
X42666Y-48874D02*
X42685Y-48893D01*
X42742Y-48912D01*
X42780Y-48912D01*
X42838Y-48893D01*
X42876Y-48855D01*
X42895Y-48817D01*
X42914Y-48740D01*
X42914Y-48683D01*
X42895Y-48607D01*
X42876Y-48569D01*
X42838Y-48531D01*
X42780Y-48512D01*
X42742Y-48512D01*
X42685Y-48531D01*
X42666Y-48550D01*
X36138Y-50057D02*
X36005Y-50457D01*
X35871Y-50057D01*
X35509Y-50419D02*
X35528Y-50438D01*
X35585Y-50457D01*
X35623Y-50457D01*
X35681Y-50438D01*
X35719Y-50400D01*
X35738Y-50362D01*
X35757Y-50285D01*
X35757Y-50228D01*
X35738Y-50152D01*
X35719Y-50114D01*
X35681Y-50076D01*
X35623Y-50057D01*
X35585Y-50057D01*
X35528Y-50076D01*
X35509Y-50095D01*
X35109Y-50419D02*
X35128Y-50438D01*
X35185Y-50457D01*
X35223Y-50457D01*
X35281Y-50438D01*
X35319Y-50400D01*
X35338Y-50362D01*
X35357Y-50285D01*
X35357Y-50228D01*
X35338Y-50152D01*
X35319Y-50114D01*
X35281Y-50076D01*
X35223Y-50057D01*
X35185Y-50057D01*
X35128Y-50076D01*
X35109Y-50095D01*
X34938Y-50419D02*
X34919Y-50438D01*
X34938Y-50457D01*
X34957Y-50438D01*
X34938Y-50419D01*
X34938Y-50457D01*
X34938Y-50209D02*
X34919Y-50228D01*
X34938Y-50247D01*
X34957Y-50228D01*
X34938Y-50209D01*
X34938Y-50247D01*
X34462Y-50095D02*
X34443Y-50076D01*
X34405Y-50057D01*
X34309Y-50057D01*
X34271Y-50076D01*
X34252Y-50095D01*
X34233Y-50133D01*
X34233Y-50171D01*
X34252Y-50228D01*
X34481Y-50457D01*
X34233Y-50457D01*
X33890Y-50190D02*
X33890Y-50457D01*
X33986Y-50038D02*
X34081Y-50324D01*
X33833Y-50324D01*
X33738Y-50057D02*
X33605Y-50457D01*
X33471Y-50057D01*
X33033Y-50457D02*
X33033Y-50057D01*
X32938Y-50057D01*
X32880Y-50076D01*
X32842Y-50114D01*
X32823Y-50152D01*
X32804Y-50228D01*
X32804Y-50285D01*
X32823Y-50362D01*
X32842Y-50400D01*
X32880Y-50438D01*
X32938Y-50457D01*
X33033Y-50457D01*
X32404Y-50419D02*
X32423Y-50438D01*
X32480Y-50457D01*
X32518Y-50457D01*
X32576Y-50438D01*
X32614Y-50400D01*
X32633Y-50362D01*
X32652Y-50285D01*
X32652Y-50228D01*
X32633Y-50152D01*
X32614Y-50114D01*
X32576Y-50076D01*
X32518Y-50057D01*
X32480Y-50057D01*
X32423Y-50076D01*
X32404Y-50095D01*
X36099Y-51097D02*
X36099Y-50697D01*
X36004Y-50697D01*
X35946Y-50716D01*
X35908Y-50754D01*
X35889Y-50792D01*
X35870Y-50868D01*
X35870Y-50925D01*
X35889Y-51002D01*
X35908Y-51040D01*
X35946Y-51078D01*
X36004Y-51097D01*
X36099Y-51097D01*
X35699Y-51097D02*
X35699Y-50697D01*
X35509Y-51097D02*
X35509Y-50697D01*
X35375Y-50983D01*
X35242Y-50697D01*
X35242Y-51097D01*
X35052Y-51059D02*
X35033Y-51078D01*
X35052Y-51097D01*
X35071Y-51078D01*
X35052Y-51059D01*
X35052Y-51097D01*
X35052Y-50849D02*
X35033Y-50868D01*
X35052Y-50887D01*
X35071Y-50868D01*
X35052Y-50849D01*
X35052Y-50887D01*
X34366Y-50697D02*
X34557Y-50697D01*
X34576Y-50887D01*
X34557Y-50868D01*
X34519Y-50849D01*
X34423Y-50849D01*
X34385Y-50868D01*
X34366Y-50887D01*
X34347Y-50925D01*
X34347Y-51021D01*
X34366Y-51059D01*
X34385Y-51078D01*
X34423Y-51097D01*
X34519Y-51097D01*
X34557Y-51078D01*
X34576Y-51059D01*
X34233Y-50697D02*
X34100Y-51097D01*
X33966Y-50697D01*
X33528Y-51097D02*
X33528Y-50697D01*
X33375Y-50697D01*
X33337Y-50716D01*
X33318Y-50735D01*
X33299Y-50773D01*
X33299Y-50830D01*
X33318Y-50868D01*
X33337Y-50887D01*
X33375Y-50906D01*
X33528Y-50906D01*
X33166Y-50697D02*
X33071Y-51097D01*
X32994Y-50811D01*
X32918Y-51097D01*
X32823Y-50697D01*
X32671Y-51097D02*
X32671Y-50697D01*
X32537Y-50983D01*
X32404Y-50697D01*
X32404Y-51097D01*
X37358Y-51718D02*
X37320Y-51737D01*
X37244Y-51737D01*
X37205Y-51718D01*
X37186Y-51680D01*
X37186Y-51661D01*
X37205Y-51623D01*
X37244Y-51604D01*
X37301Y-51604D01*
X37339Y-51585D01*
X37358Y-51546D01*
X37358Y-51527D01*
X37339Y-51489D01*
X37301Y-51470D01*
X37244Y-51470D01*
X37205Y-51489D01*
X36958Y-51737D02*
X36996Y-51718D01*
X37015Y-51699D01*
X37034Y-51661D01*
X37034Y-51546D01*
X37015Y-51508D01*
X36996Y-51489D01*
X36958Y-51470D01*
X36900Y-51470D01*
X36862Y-51489D01*
X36843Y-51508D01*
X36824Y-51546D01*
X36824Y-51661D01*
X36843Y-51699D01*
X36862Y-51718D01*
X36900Y-51737D01*
X36958Y-51737D01*
X36710Y-51470D02*
X36558Y-51470D01*
X36653Y-51737D02*
X36653Y-51394D01*
X36634Y-51356D01*
X36596Y-51337D01*
X36558Y-51337D01*
X36481Y-51470D02*
X36329Y-51470D01*
X36424Y-51337D02*
X36424Y-51680D01*
X36405Y-51718D01*
X36367Y-51737D01*
X36329Y-51737D01*
X36195Y-51585D02*
X35890Y-51585D01*
X35719Y-51718D02*
X35681Y-51737D01*
X35605Y-51737D01*
X35566Y-51718D01*
X35547Y-51680D01*
X35547Y-51661D01*
X35566Y-51623D01*
X35605Y-51604D01*
X35662Y-51604D01*
X35700Y-51585D01*
X35719Y-51546D01*
X35719Y-51527D01*
X35700Y-51489D01*
X35662Y-51470D01*
X35605Y-51470D01*
X35566Y-51489D01*
X35433Y-51470D02*
X35281Y-51470D01*
X35376Y-51337D02*
X35376Y-51680D01*
X35357Y-51718D01*
X35319Y-51737D01*
X35281Y-51737D01*
X34975Y-51737D02*
X34975Y-51527D01*
X34994Y-51489D01*
X35032Y-51470D01*
X35109Y-51470D01*
X35147Y-51489D01*
X34975Y-51718D02*
X35013Y-51737D01*
X35109Y-51737D01*
X35147Y-51718D01*
X35166Y-51680D01*
X35166Y-51642D01*
X35147Y-51604D01*
X35109Y-51585D01*
X35013Y-51585D01*
X34975Y-51565D01*
X34785Y-51737D02*
X34785Y-51470D01*
X34785Y-51546D02*
X34766Y-51508D01*
X34747Y-51489D01*
X34709Y-51470D01*
X34670Y-51470D01*
X34594Y-51470D02*
X34442Y-51470D01*
X34537Y-51337D02*
X34537Y-51680D01*
X34518Y-51718D01*
X34480Y-51737D01*
X34442Y-51737D01*
X34308Y-51699D02*
X34289Y-51718D01*
X34308Y-51737D01*
X34327Y-51718D01*
X34308Y-51699D01*
X34308Y-51737D01*
X34308Y-51489D02*
X34289Y-51508D01*
X34308Y-51527D01*
X34327Y-51508D01*
X34308Y-51489D01*
X34308Y-51527D01*
X33603Y-51737D02*
X33832Y-51737D01*
X33718Y-51737D02*
X33718Y-51337D01*
X33756Y-51394D01*
X33794Y-51432D01*
X33832Y-51451D01*
X33432Y-51699D02*
X33413Y-51718D01*
X33432Y-51737D01*
X33451Y-51718D01*
X33432Y-51699D01*
X33432Y-51737D01*
X33261Y-51375D02*
X33242Y-51356D01*
X33204Y-51337D01*
X33108Y-51337D01*
X33070Y-51356D01*
X33051Y-51375D01*
X33032Y-51413D01*
X33032Y-51451D01*
X33051Y-51508D01*
X33280Y-51737D01*
X33032Y-51737D01*
X32670Y-51337D02*
X32861Y-51337D01*
X32880Y-51527D01*
X32861Y-51508D01*
X32823Y-51489D01*
X32727Y-51489D01*
X32689Y-51508D01*
X32670Y-51527D01*
X32651Y-51565D01*
X32651Y-51661D01*
X32670Y-51699D01*
X32689Y-51718D01*
X32727Y-51737D01*
X32823Y-51737D01*
X32861Y-51718D01*
X32880Y-51699D01*
X32480Y-51470D02*
X32480Y-51870D01*
X32289Y-51680D02*
X32270Y-51718D01*
X32232Y-51737D01*
X32480Y-51680D02*
X32461Y-51718D01*
X32423Y-51737D01*
X32346Y-51737D01*
X32308Y-51718D01*
X32289Y-51680D01*
X32289Y-51470D01*
X31927Y-51527D02*
X32061Y-51527D01*
X32061Y-51737D02*
X32061Y-51337D01*
X31870Y-51337D01*
X31432Y-51318D02*
X31775Y-51832D01*
X31318Y-51718D02*
X31280Y-51737D01*
X31204Y-51737D01*
X31165Y-51718D01*
X31146Y-51680D01*
X31146Y-51661D01*
X31165Y-51623D01*
X31204Y-51604D01*
X31261Y-51604D01*
X31299Y-51585D01*
X31318Y-51546D01*
X31318Y-51527D01*
X31299Y-51489D01*
X31261Y-51470D01*
X31204Y-51470D01*
X31165Y-51489D01*
X25814Y-48912D02*
X25814Y-48512D01*
X25585Y-48912D01*
X25585Y-48512D01*
X25166Y-48874D02*
X25185Y-48893D01*
X25242Y-48912D01*
X25280Y-48912D01*
X25338Y-48893D01*
X25376Y-48855D01*
X25395Y-48817D01*
X25414Y-48740D01*
X25414Y-48683D01*
X25395Y-48607D01*
X25376Y-48569D01*
X25338Y-48531D01*
X25280Y-48512D01*
X25242Y-48512D01*
X25185Y-48531D01*
X25166Y-48550D01*
X25928Y-49912D02*
X25928Y-49512D01*
X25833Y-49512D01*
X25775Y-49531D01*
X25737Y-49569D01*
X25718Y-49607D01*
X25699Y-49683D01*
X25699Y-49740D01*
X25718Y-49817D01*
X25737Y-49855D01*
X25775Y-49893D01*
X25833Y-49912D01*
X25928Y-49912D01*
X25528Y-49912D02*
X25528Y-49512D01*
X25338Y-49912D02*
X25338Y-49512D01*
X25204Y-49798D01*
X25071Y-49512D01*
X25071Y-49912D01*
X26033Y-47512D02*
X25900Y-47912D01*
X25766Y-47512D01*
X25404Y-47874D02*
X25423Y-47893D01*
X25480Y-47912D01*
X25518Y-47912D01*
X25576Y-47893D01*
X25614Y-47855D01*
X25633Y-47817D01*
X25652Y-47740D01*
X25652Y-47683D01*
X25633Y-47607D01*
X25614Y-47569D01*
X25576Y-47531D01*
X25518Y-47512D01*
X25480Y-47512D01*
X25423Y-47531D01*
X25404Y-47550D01*
X25004Y-47874D02*
X25023Y-47893D01*
X25080Y-47912D01*
X25118Y-47912D01*
X25176Y-47893D01*
X25214Y-47855D01*
X25233Y-47817D01*
X25252Y-47740D01*
X25252Y-47683D01*
X25233Y-47607D01*
X25214Y-47569D01*
X25176Y-47531D01*
X25118Y-47512D01*
X25080Y-47512D01*
X25023Y-47531D01*
X25004Y-47550D01*
X25804Y-45531D02*
X25842Y-45512D01*
X25899Y-45512D01*
X25957Y-45531D01*
X25995Y-45569D01*
X26014Y-45607D01*
X26033Y-45683D01*
X26033Y-45740D01*
X26014Y-45817D01*
X25995Y-45855D01*
X25957Y-45893D01*
X25899Y-45912D01*
X25861Y-45912D01*
X25804Y-45893D01*
X25785Y-45874D01*
X25785Y-45740D01*
X25861Y-45740D01*
X25614Y-45912D02*
X25614Y-45512D01*
X25385Y-45912D01*
X25385Y-45512D01*
X25195Y-45912D02*
X25195Y-45512D01*
X25100Y-45512D01*
X25042Y-45531D01*
X25004Y-45569D01*
X24985Y-45607D01*
X24966Y-45683D01*
X24966Y-45740D01*
X24985Y-45817D01*
X25004Y-45855D01*
X25042Y-45893D01*
X25100Y-45912D01*
X25195Y-45912D01*
X26033Y-46512D02*
X25900Y-46912D01*
X25766Y-46512D01*
X25404Y-46874D02*
X25423Y-46893D01*
X25480Y-46912D01*
X25518Y-46912D01*
X25576Y-46893D01*
X25614Y-46855D01*
X25633Y-46817D01*
X25652Y-46740D01*
X25652Y-46683D01*
X25633Y-46607D01*
X25614Y-46569D01*
X25576Y-46531D01*
X25518Y-46512D01*
X25480Y-46512D01*
X25423Y-46531D01*
X25404Y-46550D01*
X25004Y-46874D02*
X25023Y-46893D01*
X25080Y-46912D01*
X25118Y-46912D01*
X25176Y-46893D01*
X25214Y-46855D01*
X25233Y-46817D01*
X25252Y-46740D01*
X25252Y-46683D01*
X25233Y-46607D01*
X25214Y-46569D01*
X25176Y-46531D01*
X25118Y-46512D01*
X25080Y-46512D01*
X25023Y-46531D01*
X25004Y-46550D01*
X25804Y-44531D02*
X25842Y-44512D01*
X25899Y-44512D01*
X25957Y-44531D01*
X25995Y-44569D01*
X26014Y-44607D01*
X26033Y-44683D01*
X26033Y-44740D01*
X26014Y-44817D01*
X25995Y-44855D01*
X25957Y-44893D01*
X25899Y-44912D01*
X25861Y-44912D01*
X25804Y-44893D01*
X25785Y-44874D01*
X25785Y-44740D01*
X25861Y-44740D01*
X25614Y-44912D02*
X25614Y-44512D01*
X25385Y-44912D01*
X25385Y-44512D01*
X25195Y-44912D02*
X25195Y-44512D01*
X25100Y-44512D01*
X25042Y-44531D01*
X25004Y-44569D01*
X24985Y-44607D01*
X24966Y-44683D01*
X24966Y-44740D01*
X24985Y-44817D01*
X25004Y-44855D01*
X25042Y-44893D01*
X25100Y-44912D01*
X25195Y-44912D01*
%LPC*%
G54D12*
X41535Y-47744D03*
X41535Y-46744D03*
X41535Y-48744D03*
X41535Y-49744D03*
X41535Y-45744D03*
X41535Y-44744D03*
X26969Y-46744D03*
X26969Y-47744D03*
X26969Y-45744D03*
X26969Y-44744D03*
X26969Y-48744D03*
X26969Y-49744D03*
G54D13*
X25984Y-55512D03*
X42520Y-55512D03*
X42520Y-38976D03*
X25984Y-38976D03*
M02*
