G04 (created by PCBNEW-RS274X (2012-jan-04)-stable) date Thu 25 Oct 2012 07:38:53 PM CEST*
G01*
G70*
G90*
%MOIN*%
G04 Gerber Fmt 3.4, Leading zero omitted, Abs format*
%FSLAX34Y34*%
G04 APERTURE LIST*
%ADD10C,0.006000*%
%ADD11C,0.008000*%
%ADD12C,0.075000*%
%ADD13C,0.160000*%
G04 APERTURE END LIST*
G54D10*
G54D11*
X43304Y-44531D02*
X43342Y-44512D01*
X43399Y-44512D01*
X43457Y-44531D01*
X43495Y-44569D01*
X43514Y-44607D01*
X43533Y-44683D01*
X43533Y-44740D01*
X43514Y-44817D01*
X43495Y-44855D01*
X43457Y-44893D01*
X43399Y-44912D01*
X43361Y-44912D01*
X43304Y-44893D01*
X43285Y-44874D01*
X43285Y-44740D01*
X43361Y-44740D01*
X43114Y-44912D02*
X43114Y-44512D01*
X42885Y-44912D01*
X42885Y-44512D01*
X42695Y-44912D02*
X42695Y-44512D01*
X42600Y-44512D01*
X42542Y-44531D01*
X42504Y-44569D01*
X42485Y-44607D01*
X42466Y-44683D01*
X42466Y-44740D01*
X42485Y-44817D01*
X42504Y-44855D01*
X42542Y-44893D01*
X42600Y-44912D01*
X42695Y-44912D01*
X43533Y-46512D02*
X43400Y-46912D01*
X43266Y-46512D01*
X42904Y-46874D02*
X42923Y-46893D01*
X42980Y-46912D01*
X43018Y-46912D01*
X43076Y-46893D01*
X43114Y-46855D01*
X43133Y-46817D01*
X43152Y-46740D01*
X43152Y-46683D01*
X43133Y-46607D01*
X43114Y-46569D01*
X43076Y-46531D01*
X43018Y-46512D01*
X42980Y-46512D01*
X42923Y-46531D01*
X42904Y-46550D01*
X42504Y-46874D02*
X42523Y-46893D01*
X42580Y-46912D01*
X42618Y-46912D01*
X42676Y-46893D01*
X42714Y-46855D01*
X42733Y-46817D01*
X42752Y-46740D01*
X42752Y-46683D01*
X42733Y-46607D01*
X42714Y-46569D01*
X42676Y-46531D01*
X42618Y-46512D01*
X42580Y-46512D01*
X42523Y-46531D01*
X42504Y-46550D01*
X43304Y-45531D02*
X43342Y-45512D01*
X43399Y-45512D01*
X43457Y-45531D01*
X43495Y-45569D01*
X43514Y-45607D01*
X43533Y-45683D01*
X43533Y-45740D01*
X43514Y-45817D01*
X43495Y-45855D01*
X43457Y-45893D01*
X43399Y-45912D01*
X43361Y-45912D01*
X43304Y-45893D01*
X43285Y-45874D01*
X43285Y-45740D01*
X43361Y-45740D01*
X43114Y-45912D02*
X43114Y-45512D01*
X42885Y-45912D01*
X42885Y-45512D01*
X42695Y-45912D02*
X42695Y-45512D01*
X42600Y-45512D01*
X42542Y-45531D01*
X42504Y-45569D01*
X42485Y-45607D01*
X42466Y-45683D01*
X42466Y-45740D01*
X42485Y-45817D01*
X42504Y-45855D01*
X42542Y-45893D01*
X42600Y-45912D01*
X42695Y-45912D01*
X43533Y-47512D02*
X43400Y-47912D01*
X43266Y-47512D01*
X42904Y-47874D02*
X42923Y-47893D01*
X42980Y-47912D01*
X43018Y-47912D01*
X43076Y-47893D01*
X43114Y-47855D01*
X43133Y-47817D01*
X43152Y-47740D01*
X43152Y-47683D01*
X43133Y-47607D01*
X43114Y-47569D01*
X43076Y-47531D01*
X43018Y-47512D01*
X42980Y-47512D01*
X42923Y-47531D01*
X42904Y-47550D01*
X42504Y-47874D02*
X42523Y-47893D01*
X42580Y-47912D01*
X42618Y-47912D01*
X42676Y-47893D01*
X42714Y-47855D01*
X42733Y-47817D01*
X42752Y-47740D01*
X42752Y-47683D01*
X42733Y-47607D01*
X42714Y-47569D01*
X42676Y-47531D01*
X42618Y-47512D01*
X42580Y-47512D01*
X42523Y-47531D01*
X42504Y-47550D01*
X43428Y-49912D02*
X43428Y-49512D01*
X43333Y-49512D01*
X43275Y-49531D01*
X43237Y-49569D01*
X43218Y-49607D01*
X43199Y-49683D01*
X43199Y-49740D01*
X43218Y-49817D01*
X43237Y-49855D01*
X43275Y-49893D01*
X43333Y-49912D01*
X43428Y-49912D01*
X43028Y-49912D02*
X43028Y-49512D01*
X42838Y-49912D02*
X42838Y-49512D01*
X42704Y-49798D01*
X42571Y-49512D01*
X42571Y-49912D01*
X43314Y-48912D02*
X43314Y-48512D01*
X43085Y-48912D01*
X43085Y-48512D01*
X42666Y-48874D02*
X42685Y-48893D01*
X42742Y-48912D01*
X42780Y-48912D01*
X42838Y-48893D01*
X42876Y-48855D01*
X42895Y-48817D01*
X42914Y-48740D01*
X42914Y-48683D01*
X42895Y-48607D01*
X42876Y-48569D01*
X42838Y-48531D01*
X42780Y-48512D01*
X42742Y-48512D01*
X42685Y-48531D01*
X42666Y-48550D01*
X36138Y-45825D02*
X36005Y-46225D01*
X35871Y-45825D01*
X35509Y-46187D02*
X35528Y-46206D01*
X35585Y-46225D01*
X35623Y-46225D01*
X35681Y-46206D01*
X35719Y-46168D01*
X35738Y-46130D01*
X35757Y-46053D01*
X35757Y-45996D01*
X35738Y-45920D01*
X35719Y-45882D01*
X35681Y-45844D01*
X35623Y-45825D01*
X35585Y-45825D01*
X35528Y-45844D01*
X35509Y-45863D01*
X35109Y-46187D02*
X35128Y-46206D01*
X35185Y-46225D01*
X35223Y-46225D01*
X35281Y-46206D01*
X35319Y-46168D01*
X35338Y-46130D01*
X35357Y-46053D01*
X35357Y-45996D01*
X35338Y-45920D01*
X35319Y-45882D01*
X35281Y-45844D01*
X35223Y-45825D01*
X35185Y-45825D01*
X35128Y-45844D01*
X35109Y-45863D01*
X34938Y-46187D02*
X34919Y-46206D01*
X34938Y-46225D01*
X34957Y-46206D01*
X34938Y-46187D01*
X34938Y-46225D01*
X34938Y-45977D02*
X34919Y-45996D01*
X34938Y-46015D01*
X34957Y-45996D01*
X34938Y-45977D01*
X34938Y-46015D01*
X34462Y-45863D02*
X34443Y-45844D01*
X34405Y-45825D01*
X34309Y-45825D01*
X34271Y-45844D01*
X34252Y-45863D01*
X34233Y-45901D01*
X34233Y-45939D01*
X34252Y-45996D01*
X34481Y-46225D01*
X34233Y-46225D01*
X33890Y-45958D02*
X33890Y-46225D01*
X33986Y-45806D02*
X34081Y-46092D01*
X33833Y-46092D01*
X33738Y-45825D02*
X33605Y-46225D01*
X33471Y-45825D01*
X33033Y-46225D02*
X33033Y-45825D01*
X32938Y-45825D01*
X32880Y-45844D01*
X32842Y-45882D01*
X32823Y-45920D01*
X32804Y-45996D01*
X32804Y-46053D01*
X32823Y-46130D01*
X32842Y-46168D01*
X32880Y-46206D01*
X32938Y-46225D01*
X33033Y-46225D01*
X32404Y-46187D02*
X32423Y-46206D01*
X32480Y-46225D01*
X32518Y-46225D01*
X32576Y-46206D01*
X32614Y-46168D01*
X32633Y-46130D01*
X32652Y-46053D01*
X32652Y-45996D01*
X32633Y-45920D01*
X32614Y-45882D01*
X32576Y-45844D01*
X32518Y-45825D01*
X32480Y-45825D01*
X32423Y-45844D01*
X32404Y-45863D01*
X36099Y-46865D02*
X36099Y-46465D01*
X36004Y-46465D01*
X35946Y-46484D01*
X35908Y-46522D01*
X35889Y-46560D01*
X35870Y-46636D01*
X35870Y-46693D01*
X35889Y-46770D01*
X35908Y-46808D01*
X35946Y-46846D01*
X36004Y-46865D01*
X36099Y-46865D01*
X35699Y-46865D02*
X35699Y-46465D01*
X35509Y-46865D02*
X35509Y-46465D01*
X35375Y-46751D01*
X35242Y-46465D01*
X35242Y-46865D01*
X35052Y-46827D02*
X35033Y-46846D01*
X35052Y-46865D01*
X35071Y-46846D01*
X35052Y-46827D01*
X35052Y-46865D01*
X35052Y-46617D02*
X35033Y-46636D01*
X35052Y-46655D01*
X35071Y-46636D01*
X35052Y-46617D01*
X35052Y-46655D01*
X34366Y-46465D02*
X34557Y-46465D01*
X34576Y-46655D01*
X34557Y-46636D01*
X34519Y-46617D01*
X34423Y-46617D01*
X34385Y-46636D01*
X34366Y-46655D01*
X34347Y-46693D01*
X34347Y-46789D01*
X34366Y-46827D01*
X34385Y-46846D01*
X34423Y-46865D01*
X34519Y-46865D01*
X34557Y-46846D01*
X34576Y-46827D01*
X34233Y-46465D02*
X34100Y-46865D01*
X33966Y-46465D01*
X33528Y-46865D02*
X33528Y-46465D01*
X33375Y-46465D01*
X33337Y-46484D01*
X33318Y-46503D01*
X33299Y-46541D01*
X33299Y-46598D01*
X33318Y-46636D01*
X33337Y-46655D01*
X33375Y-46674D01*
X33528Y-46674D01*
X33166Y-46465D02*
X33071Y-46865D01*
X32994Y-46579D01*
X32918Y-46865D01*
X32823Y-46465D01*
X32671Y-46865D02*
X32671Y-46465D01*
X32537Y-46751D01*
X32404Y-46465D01*
X32404Y-46865D01*
X25814Y-48912D02*
X25814Y-48512D01*
X25585Y-48912D01*
X25585Y-48512D01*
X25166Y-48874D02*
X25185Y-48893D01*
X25242Y-48912D01*
X25280Y-48912D01*
X25338Y-48893D01*
X25376Y-48855D01*
X25395Y-48817D01*
X25414Y-48740D01*
X25414Y-48683D01*
X25395Y-48607D01*
X25376Y-48569D01*
X25338Y-48531D01*
X25280Y-48512D01*
X25242Y-48512D01*
X25185Y-48531D01*
X25166Y-48550D01*
X25928Y-49912D02*
X25928Y-49512D01*
X25833Y-49512D01*
X25775Y-49531D01*
X25737Y-49569D01*
X25718Y-49607D01*
X25699Y-49683D01*
X25699Y-49740D01*
X25718Y-49817D01*
X25737Y-49855D01*
X25775Y-49893D01*
X25833Y-49912D01*
X25928Y-49912D01*
X25528Y-49912D02*
X25528Y-49512D01*
X25338Y-49912D02*
X25338Y-49512D01*
X25204Y-49798D01*
X25071Y-49512D01*
X25071Y-49912D01*
X26033Y-47512D02*
X25900Y-47912D01*
X25766Y-47512D01*
X25404Y-47874D02*
X25423Y-47893D01*
X25480Y-47912D01*
X25518Y-47912D01*
X25576Y-47893D01*
X25614Y-47855D01*
X25633Y-47817D01*
X25652Y-47740D01*
X25652Y-47683D01*
X25633Y-47607D01*
X25614Y-47569D01*
X25576Y-47531D01*
X25518Y-47512D01*
X25480Y-47512D01*
X25423Y-47531D01*
X25404Y-47550D01*
X25004Y-47874D02*
X25023Y-47893D01*
X25080Y-47912D01*
X25118Y-47912D01*
X25176Y-47893D01*
X25214Y-47855D01*
X25233Y-47817D01*
X25252Y-47740D01*
X25252Y-47683D01*
X25233Y-47607D01*
X25214Y-47569D01*
X25176Y-47531D01*
X25118Y-47512D01*
X25080Y-47512D01*
X25023Y-47531D01*
X25004Y-47550D01*
X25804Y-45531D02*
X25842Y-45512D01*
X25899Y-45512D01*
X25957Y-45531D01*
X25995Y-45569D01*
X26014Y-45607D01*
X26033Y-45683D01*
X26033Y-45740D01*
X26014Y-45817D01*
X25995Y-45855D01*
X25957Y-45893D01*
X25899Y-45912D01*
X25861Y-45912D01*
X25804Y-45893D01*
X25785Y-45874D01*
X25785Y-45740D01*
X25861Y-45740D01*
X25614Y-45912D02*
X25614Y-45512D01*
X25385Y-45912D01*
X25385Y-45512D01*
X25195Y-45912D02*
X25195Y-45512D01*
X25100Y-45512D01*
X25042Y-45531D01*
X25004Y-45569D01*
X24985Y-45607D01*
X24966Y-45683D01*
X24966Y-45740D01*
X24985Y-45817D01*
X25004Y-45855D01*
X25042Y-45893D01*
X25100Y-45912D01*
X25195Y-45912D01*
X26033Y-46512D02*
X25900Y-46912D01*
X25766Y-46512D01*
X25404Y-46874D02*
X25423Y-46893D01*
X25480Y-46912D01*
X25518Y-46912D01*
X25576Y-46893D01*
X25614Y-46855D01*
X25633Y-46817D01*
X25652Y-46740D01*
X25652Y-46683D01*
X25633Y-46607D01*
X25614Y-46569D01*
X25576Y-46531D01*
X25518Y-46512D01*
X25480Y-46512D01*
X25423Y-46531D01*
X25404Y-46550D01*
X25004Y-46874D02*
X25023Y-46893D01*
X25080Y-46912D01*
X25118Y-46912D01*
X25176Y-46893D01*
X25214Y-46855D01*
X25233Y-46817D01*
X25252Y-46740D01*
X25252Y-46683D01*
X25233Y-46607D01*
X25214Y-46569D01*
X25176Y-46531D01*
X25118Y-46512D01*
X25080Y-46512D01*
X25023Y-46531D01*
X25004Y-46550D01*
X25804Y-44531D02*
X25842Y-44512D01*
X25899Y-44512D01*
X25957Y-44531D01*
X25995Y-44569D01*
X26014Y-44607D01*
X26033Y-44683D01*
X26033Y-44740D01*
X26014Y-44817D01*
X25995Y-44855D01*
X25957Y-44893D01*
X25899Y-44912D01*
X25861Y-44912D01*
X25804Y-44893D01*
X25785Y-44874D01*
X25785Y-44740D01*
X25861Y-44740D01*
X25614Y-44912D02*
X25614Y-44512D01*
X25385Y-44912D01*
X25385Y-44512D01*
X25195Y-44912D02*
X25195Y-44512D01*
X25100Y-44512D01*
X25042Y-44531D01*
X25004Y-44569D01*
X24985Y-44607D01*
X24966Y-44683D01*
X24966Y-44740D01*
X24985Y-44817D01*
X25004Y-44855D01*
X25042Y-44893D01*
X25100Y-44912D01*
X25195Y-44912D01*
%LPC*%
G54D12*
X41535Y-47744D03*
X41535Y-46744D03*
X41535Y-48744D03*
X41535Y-49744D03*
X41535Y-45744D03*
X41535Y-44744D03*
X26969Y-46744D03*
X26969Y-47744D03*
X26969Y-45744D03*
X26969Y-44744D03*
X26969Y-48744D03*
X26969Y-49744D03*
G54D13*
X25984Y-55512D03*
X42520Y-55512D03*
X42520Y-38976D03*
X25984Y-38976D03*
M02*
