%FSLAX34Y34*%
G04 Gerber Fmt 3.4, Leading zero omitted, Abs format*
G04 (created by PCBNEW (2014-03-18 BZR 4753)-product) date Wed 19 Mar 2014 07:54:14 PM CET*
%MOIN*%
G01*
G70*
G90*
G04 APERTURE LIST*
%ADD10C,0.005906*%
%ADD11R,0.027600X0.063000*%
%ADD12R,0.039400X0.086600*%
%ADD13R,0.070900X0.133900*%
%ADD14R,0.025000X0.025000*%
%ADD15R,0.090551X0.060236*%
%ADD16R,0.124016X0.027559*%
%ADD17R,0.090551X0.022835*%
%ADD18R,0.059000X0.051100*%
%ADD19R,0.098400X0.177200*%
%ADD20C,0.065000*%
%ADD21R,0.070866X0.070866*%
%ADD22R,0.051100X0.059000*%
%ADD23R,0.039370X0.055118*%
%ADD24R,0.031496X0.039370*%
%ADD25R,0.070900X0.062900*%
%ADD26C,0.025000*%
%ADD27C,0.035000*%
%ADD28C,0.008000*%
%ADD29C,0.028000*%
%ADD30C,0.020000*%
%ADD31C,0.007874*%
G04 APERTURE END LIST*
G54D10*
G54D11*
X33660Y-44645D03*
G54D12*
X34251Y-44527D03*
G54D11*
X34842Y-44645D03*
X34842Y-43149D03*
X33660Y-43149D03*
G54D13*
X34251Y-43503D03*
G54D14*
X34054Y-43936D03*
X34448Y-43936D03*
X34408Y-43621D03*
X34094Y-43621D03*
X34251Y-43818D03*
X34251Y-44015D03*
G54D15*
X29528Y-46995D03*
G54D16*
X29528Y-46578D03*
G54D17*
X29528Y-47677D03*
G54D16*
X29528Y-47905D03*
G54D18*
X38090Y-44665D03*
X38090Y-43917D03*
G54D19*
X35019Y-47244D03*
X33485Y-47244D03*
G54D20*
X41535Y-47744D03*
X41535Y-46744D03*
X41535Y-48744D03*
X41535Y-49744D03*
X41535Y-45744D03*
X41535Y-44744D03*
G54D21*
X32618Y-44527D03*
X32618Y-43188D03*
G54D22*
X33877Y-41929D03*
X34625Y-41929D03*
G54D23*
X36075Y-42983D03*
G54D24*
X36824Y-42983D03*
G54D23*
X36450Y-42116D03*
G54D22*
X42146Y-42421D03*
X42894Y-42421D03*
X42146Y-41339D03*
X42894Y-41339D03*
X25610Y-42421D03*
X26358Y-42421D03*
X25610Y-41339D03*
X26358Y-41339D03*
G54D15*
X29528Y-53688D03*
G54D16*
X29528Y-53271D03*
G54D17*
X29528Y-54370D03*
G54D16*
X29528Y-54598D03*
G54D15*
X38976Y-40799D03*
G54D16*
X38976Y-41216D03*
G54D17*
X38976Y-40117D03*
G54D16*
X38976Y-39889D03*
G54D15*
X38976Y-54185D03*
G54D16*
X38976Y-54602D03*
G54D17*
X38976Y-53503D03*
G54D16*
X38976Y-53275D03*
G54D15*
X38976Y-47492D03*
G54D16*
X38976Y-47909D03*
G54D17*
X38976Y-46810D03*
G54D16*
X38976Y-46582D03*
G54D15*
X29528Y-40302D03*
G54D16*
X29528Y-39885D03*
G54D17*
X29528Y-40984D03*
G54D16*
X29528Y-41212D03*
G54D18*
X36950Y-44674D03*
X36950Y-43926D03*
X35950Y-44674D03*
X35950Y-43926D03*
G54D25*
X28937Y-44417D03*
X28937Y-43299D03*
X30118Y-44417D03*
X30118Y-43299D03*
G54D20*
X26969Y-46744D03*
X26969Y-47744D03*
X26969Y-45744D03*
X26969Y-44744D03*
X26969Y-48744D03*
X26969Y-49744D03*
G54D26*
X30157Y-40472D03*
X29842Y-40472D03*
X30472Y-40472D03*
X30472Y-40157D03*
X30472Y-39842D03*
X30472Y-39527D03*
X30157Y-39527D03*
X29842Y-39527D03*
X29212Y-39527D03*
X28897Y-39527D03*
X28582Y-39527D03*
X28582Y-39842D03*
X28582Y-40157D03*
X29527Y-39527D03*
X28582Y-40472D03*
X28897Y-40472D03*
X29212Y-40472D03*
X29527Y-40472D03*
X28897Y-40157D03*
X29212Y-40157D03*
X29527Y-40157D03*
X29842Y-40157D03*
X30157Y-40157D03*
X30157Y-39842D03*
X29842Y-39842D03*
X29527Y-39842D03*
X28897Y-39842D03*
X29212Y-39842D03*
X38661Y-41574D03*
X38346Y-41574D03*
X38031Y-41574D03*
X38031Y-41259D03*
X38031Y-40944D03*
X38031Y-40629D03*
X38346Y-40629D03*
X38661Y-40629D03*
X38976Y-40629D03*
X39291Y-40629D03*
X39606Y-40629D03*
X39921Y-40629D03*
X39921Y-40944D03*
X39921Y-41259D03*
X39921Y-41574D03*
X39606Y-41574D03*
X39291Y-41574D03*
X38976Y-41574D03*
X38346Y-40944D03*
X38661Y-40944D03*
X38976Y-40944D03*
X39291Y-40944D03*
X39606Y-40944D03*
X39606Y-41259D03*
X39291Y-41259D03*
X38976Y-41259D03*
X38661Y-41259D03*
X38346Y-41259D03*
X39291Y-47322D03*
X38976Y-47322D03*
X38661Y-47322D03*
X38346Y-47322D03*
X38031Y-47322D03*
X38031Y-47637D03*
X38031Y-47952D03*
X38031Y-48267D03*
X38346Y-48267D03*
X38661Y-48267D03*
X39606Y-47322D03*
X39921Y-47322D03*
X39921Y-47637D03*
X39921Y-47952D03*
X39921Y-48267D03*
X39606Y-48267D03*
X39291Y-48267D03*
X38976Y-48267D03*
X38346Y-47637D03*
X38661Y-47637D03*
X38976Y-47637D03*
X39291Y-47637D03*
X39606Y-47637D03*
X39606Y-47952D03*
X39291Y-47952D03*
X38976Y-47952D03*
X38661Y-47952D03*
X38346Y-47952D03*
X39291Y-54015D03*
X38976Y-54015D03*
X38661Y-54015D03*
X38346Y-54015D03*
X38031Y-54015D03*
X38031Y-54330D03*
X38031Y-54645D03*
X38031Y-54960D03*
X38346Y-54960D03*
X38661Y-54960D03*
X39606Y-54015D03*
X39921Y-54015D03*
X39921Y-54330D03*
X39921Y-54645D03*
X39921Y-54960D03*
X39606Y-54960D03*
X39291Y-54960D03*
X38976Y-54960D03*
X38346Y-54330D03*
X38661Y-54330D03*
X38976Y-54330D03*
X39291Y-54330D03*
X39606Y-54330D03*
X39606Y-54645D03*
X39291Y-54645D03*
X38976Y-54645D03*
X38661Y-54645D03*
X38346Y-54645D03*
X29212Y-53858D03*
X29527Y-53858D03*
X29842Y-53858D03*
X30157Y-53858D03*
X28582Y-53858D03*
X28582Y-53543D03*
X28582Y-53228D03*
X28582Y-52913D03*
X28897Y-52913D03*
X29212Y-52913D03*
X29527Y-52913D03*
X28897Y-53858D03*
X30472Y-53858D03*
X30472Y-53543D03*
X30472Y-53228D03*
X30472Y-52913D03*
X30157Y-52913D03*
X29842Y-52913D03*
X28897Y-53543D03*
X29212Y-53543D03*
X29527Y-53543D03*
X29842Y-53543D03*
X30157Y-53543D03*
X28897Y-53228D03*
X29212Y-53228D03*
X29527Y-53228D03*
X29842Y-53228D03*
X30157Y-53228D03*
X28897Y-47165D03*
X29212Y-47165D03*
X29527Y-47165D03*
X29842Y-47165D03*
X30157Y-47165D03*
X29527Y-46220D03*
X29212Y-46220D03*
X28897Y-46220D03*
X28582Y-46220D03*
X28582Y-46535D03*
X28582Y-47165D03*
X30472Y-46850D03*
X30472Y-46535D03*
X30472Y-46220D03*
X30157Y-46220D03*
X29842Y-46220D03*
X30472Y-47165D03*
X28897Y-46850D03*
X29212Y-46850D03*
X29527Y-46850D03*
X29842Y-46850D03*
X30157Y-46850D03*
X28582Y-46850D03*
X28897Y-46535D03*
X29212Y-46535D03*
X29527Y-46535D03*
X29842Y-46535D03*
X30157Y-46535D03*
X37401Y-48681D03*
G54D27*
X42894Y-42421D03*
X26358Y-42421D03*
X26358Y-41339D03*
X42894Y-41339D03*
X35950Y-43926D03*
X36950Y-43926D03*
G54D26*
X36075Y-42983D03*
G54D28*
X29528Y-41216D02*
X29528Y-40984D01*
G54D29*
X29527Y-43299D02*
X30118Y-43299D01*
X28937Y-43299D02*
X29527Y-43299D01*
X29527Y-41212D02*
X29528Y-41212D01*
X29527Y-43299D02*
X29527Y-41212D01*
X31129Y-43299D02*
X32125Y-42303D01*
X32125Y-42303D02*
X32834Y-42303D01*
X32834Y-42303D02*
X33287Y-41850D01*
X33287Y-41850D02*
X33287Y-41515D01*
X33287Y-41515D02*
X33503Y-41299D01*
X33503Y-41299D02*
X35039Y-41299D01*
X35039Y-41299D02*
X35196Y-41456D01*
X35196Y-41456D02*
X35196Y-43031D01*
X35196Y-43031D02*
X35078Y-43149D01*
X35078Y-43149D02*
X34842Y-43149D01*
X30118Y-43299D02*
X31129Y-43299D01*
X29528Y-39528D02*
X29527Y-39527D01*
X29528Y-39885D02*
X29528Y-39528D01*
X29842Y-40472D02*
X29673Y-40302D01*
X29673Y-40302D02*
X29528Y-40302D01*
X29842Y-40472D02*
X29528Y-40302D01*
X30472Y-40472D02*
X30157Y-40472D01*
X30472Y-39842D02*
X30472Y-40157D01*
X30157Y-39527D02*
X30472Y-39527D01*
X29527Y-39527D02*
X29842Y-39527D01*
X29527Y-39921D02*
X29528Y-39885D01*
X29527Y-39527D02*
X29527Y-39921D01*
X28897Y-39527D02*
X29212Y-39527D01*
X28582Y-39842D02*
X28582Y-39527D01*
X28582Y-40472D02*
X28582Y-40157D01*
X29212Y-40472D02*
X28897Y-40472D01*
X29528Y-40472D02*
X29527Y-40472D01*
X29528Y-40302D02*
X29528Y-40472D01*
G54D30*
X38976Y-39889D02*
X38976Y-40117D01*
G54D29*
X29528Y-39015D02*
X29528Y-39885D01*
X38976Y-39889D02*
X38976Y-38976D01*
X38779Y-38779D02*
X38976Y-38976D01*
X29763Y-38779D02*
X38779Y-38779D01*
X29763Y-38779D02*
X29528Y-39015D01*
X29527Y-40157D02*
X29212Y-40157D01*
X30157Y-40157D02*
X29842Y-40157D01*
X29842Y-39842D02*
X30157Y-39842D01*
X29212Y-39842D02*
X29527Y-39842D01*
X28582Y-39842D02*
X28897Y-39842D01*
X38976Y-46578D02*
X38976Y-41212D01*
G54D28*
X38976Y-40799D02*
X38976Y-41212D01*
X38976Y-46578D02*
X38976Y-46810D01*
G54D29*
X38346Y-41574D02*
X38031Y-41574D01*
X38031Y-41259D02*
X38031Y-40944D01*
X38031Y-40629D02*
X38346Y-40629D01*
X38661Y-40629D02*
X38976Y-40629D01*
X39291Y-40629D02*
X39606Y-40629D01*
X38976Y-41216D02*
X38976Y-41574D01*
X39921Y-40944D02*
X39921Y-40629D01*
X39921Y-41574D02*
X39921Y-41259D01*
X39291Y-41574D02*
X39606Y-41574D01*
X38976Y-41574D02*
X38976Y-41574D01*
X38976Y-41574D02*
X38661Y-41574D01*
G54D28*
X38346Y-40944D02*
X38661Y-40944D01*
X38976Y-40944D02*
X39291Y-40944D01*
X39606Y-40944D02*
X39606Y-41259D01*
X39291Y-41259D02*
X39055Y-41259D01*
X39055Y-41259D02*
X38976Y-41259D01*
X38661Y-41259D02*
X38346Y-41259D01*
G54D29*
X38976Y-47322D02*
X38661Y-47322D01*
X38346Y-47322D02*
X38031Y-47322D01*
X38031Y-47637D02*
X38031Y-47952D01*
X38031Y-48267D02*
X38346Y-48267D01*
X38661Y-48267D02*
X38976Y-48267D01*
X38976Y-47909D02*
X38976Y-48267D01*
X39921Y-47637D02*
X39921Y-47322D01*
X39921Y-48267D02*
X39921Y-47952D01*
X39291Y-48267D02*
X39606Y-48267D01*
X38976Y-48267D02*
X38976Y-48267D01*
X39606Y-47322D02*
X39291Y-47322D01*
X38976Y-47909D02*
X38976Y-53275D01*
G54D28*
X38976Y-53275D02*
X38976Y-53503D01*
X38346Y-47637D02*
X38661Y-47637D01*
X38976Y-47637D02*
X39291Y-47637D01*
X39606Y-47637D02*
X39606Y-47952D01*
X39291Y-47952D02*
X38976Y-47952D01*
X38661Y-47952D02*
X38346Y-47952D01*
G54D29*
X38976Y-54015D02*
X38661Y-54015D01*
X38346Y-54015D02*
X38031Y-54015D01*
X38031Y-54330D02*
X38031Y-54645D01*
X38031Y-54960D02*
X38346Y-54960D01*
X38661Y-54960D02*
X38976Y-54960D01*
X39921Y-54330D02*
X39921Y-54015D01*
X39921Y-54960D02*
X39921Y-54645D01*
X39291Y-54960D02*
X39606Y-54960D01*
X38976Y-54602D02*
X38976Y-54960D01*
X38976Y-54960D02*
X38976Y-54960D01*
X39606Y-54015D02*
X39291Y-54015D01*
G54D28*
X29528Y-54598D02*
X29528Y-54370D01*
G54D29*
X29528Y-55551D02*
X29685Y-55708D01*
X29685Y-55708D02*
X38759Y-55708D01*
X38759Y-55708D02*
X38976Y-55492D01*
X38976Y-55492D02*
X38976Y-54602D01*
X29528Y-54598D02*
X29528Y-55551D01*
G54D28*
X38346Y-54330D02*
X38661Y-54330D01*
X38976Y-54330D02*
X39291Y-54330D01*
X39606Y-54330D02*
X39606Y-54645D01*
X39291Y-54645D02*
X38976Y-54645D01*
X38661Y-54645D02*
X38346Y-54645D01*
G54D29*
X29527Y-53858D02*
X29842Y-53858D01*
X30157Y-53858D02*
X30472Y-53858D01*
X28582Y-53543D02*
X28582Y-53858D01*
X28582Y-52913D02*
X28582Y-53228D01*
X29212Y-52913D02*
X28897Y-52913D01*
X29527Y-52913D02*
X29842Y-52913D01*
X30472Y-53228D02*
X30472Y-53543D01*
X30157Y-52913D02*
X30472Y-52913D01*
X29528Y-53271D02*
X29528Y-52913D01*
X29528Y-52913D02*
X29527Y-52913D01*
X28897Y-53858D02*
X29212Y-53858D01*
G54D30*
X29528Y-47677D02*
X29528Y-47905D01*
G54D29*
X29528Y-47905D02*
X29528Y-53271D01*
G54D28*
X28897Y-53543D02*
X29212Y-53543D01*
X29527Y-53543D02*
X29842Y-53543D01*
X29212Y-53228D02*
X29527Y-53228D01*
X29842Y-53228D02*
X30157Y-53228D01*
X28582Y-53228D02*
X28897Y-53228D01*
G54D29*
X33236Y-46995D02*
X33485Y-47244D01*
G54D28*
X29528Y-46995D02*
X29528Y-46582D01*
G54D29*
X29212Y-47165D02*
X29527Y-47165D01*
X29842Y-47165D02*
X30157Y-47165D01*
X29212Y-46220D02*
X28897Y-46220D01*
X28582Y-46220D02*
X28582Y-46535D01*
X29527Y-46220D02*
X29842Y-46220D01*
X30157Y-46220D02*
X30472Y-46220D01*
X30472Y-46850D02*
X30472Y-46535D01*
X29528Y-46578D02*
X29528Y-46220D01*
X29528Y-46220D02*
X29527Y-46220D01*
X28582Y-47165D02*
X28897Y-47165D01*
G54D28*
X29212Y-46850D02*
X29527Y-46850D01*
X29842Y-46850D02*
X30157Y-46850D01*
X28582Y-46850D02*
X28897Y-46850D01*
G54D29*
X29528Y-46995D02*
X33236Y-46995D01*
G54D28*
X28897Y-46535D02*
X29212Y-46535D01*
X29527Y-46535D02*
X29842Y-46535D01*
G54D30*
X38090Y-45374D02*
X38090Y-44665D01*
X37401Y-45629D02*
X37401Y-48681D01*
X37460Y-45570D02*
X37401Y-45629D01*
X37893Y-45570D02*
X37460Y-45570D01*
X38090Y-45374D02*
X37893Y-45570D01*
G54D29*
X33542Y-44527D02*
X33660Y-44645D01*
X32618Y-44527D02*
X33542Y-44527D01*
X32657Y-45452D02*
X32618Y-45413D01*
X32618Y-45413D02*
X32618Y-44527D01*
X35019Y-47244D02*
X35019Y-46042D01*
X34429Y-45452D02*
X35019Y-46042D01*
X34429Y-45452D02*
X32657Y-45452D01*
X35921Y-44645D02*
X35950Y-44674D01*
X34842Y-44645D02*
X35921Y-44645D01*
X35950Y-44674D02*
X36950Y-44674D01*
X36950Y-44674D02*
X37074Y-44674D01*
G54D30*
X38070Y-43897D02*
X38090Y-43917D01*
X36450Y-42116D02*
X36939Y-42116D01*
X38070Y-43897D02*
X38090Y-43917D01*
X38070Y-43248D02*
X38070Y-43897D01*
X36939Y-42116D02*
X38070Y-43248D01*
X37432Y-44674D02*
X37539Y-44566D01*
X37539Y-44566D02*
X37539Y-43996D01*
X37539Y-43996D02*
X37618Y-43917D01*
X37618Y-43917D02*
X38090Y-43917D01*
X36950Y-44674D02*
X37432Y-44674D01*
G54D29*
X34251Y-44527D02*
X34251Y-43503D01*
X34350Y-43503D02*
X34251Y-43503D01*
X34303Y-43503D02*
X34726Y-43926D01*
X34726Y-43926D02*
X35950Y-43926D01*
X34251Y-43503D02*
X34303Y-43503D01*
X34251Y-42814D02*
X34625Y-42440D01*
X34625Y-42440D02*
X34625Y-41929D01*
X34251Y-43503D02*
X34251Y-42814D01*
X41535Y-47244D02*
X42717Y-47244D01*
X41535Y-47244D02*
X41535Y-47744D01*
X26969Y-47744D02*
X26969Y-47244D01*
X42146Y-42421D02*
X42146Y-44114D01*
X42146Y-44114D02*
X42717Y-44685D01*
X42717Y-44685D02*
X42717Y-47244D01*
X41535Y-47244D02*
X41535Y-46744D01*
X26969Y-47244D02*
X26969Y-46744D01*
X25610Y-41339D02*
X25610Y-42421D01*
X42146Y-41339D02*
X42146Y-42421D01*
X26969Y-47244D02*
X25610Y-47244D01*
X25610Y-43897D02*
X25610Y-47244D01*
X25610Y-42421D02*
X25610Y-43897D01*
X33621Y-43188D02*
X33660Y-43149D01*
X32618Y-43188D02*
X33621Y-43188D01*
X33660Y-42638D02*
X33877Y-42421D01*
X33877Y-42421D02*
X33877Y-41929D01*
X33660Y-43149D02*
X33660Y-42638D01*
X29527Y-44417D02*
X30118Y-44417D01*
X28937Y-44417D02*
X29527Y-44417D01*
X30602Y-44417D02*
X31830Y-43188D01*
X31830Y-43188D02*
X32618Y-43188D01*
X30118Y-44417D02*
X30602Y-44417D01*
X29507Y-43897D02*
X29507Y-44417D01*
X29507Y-44417D02*
X29527Y-44397D01*
X29527Y-44397D02*
X29527Y-44417D01*
X25610Y-43897D02*
X29507Y-43897D01*
G54D10*
G36*
X40314Y-41631D02*
X40307Y-41702D01*
X40287Y-41769D01*
X40255Y-41830D01*
X40211Y-41884D01*
X40157Y-41928D01*
X40096Y-41961D01*
X40029Y-41981D01*
X39958Y-41988D01*
X37994Y-41988D01*
X37923Y-41981D01*
X37856Y-41961D01*
X37795Y-41928D01*
X37741Y-41884D01*
X37697Y-41830D01*
X37664Y-41769D01*
X37644Y-41702D01*
X37637Y-41631D01*
X37637Y-39470D01*
X37644Y-39399D01*
X37664Y-39332D01*
X37697Y-39271D01*
X37741Y-39218D01*
X37795Y-39174D01*
X37856Y-39141D01*
X37923Y-39121D01*
X37994Y-39114D01*
X38678Y-39114D01*
X38678Y-39594D01*
X38340Y-39594D01*
X38309Y-39600D01*
X38281Y-39612D01*
X38255Y-39629D01*
X38233Y-39651D01*
X38216Y-39677D01*
X38204Y-39705D01*
X38198Y-39736D01*
X38198Y-39767D01*
X38198Y-40042D01*
X38204Y-40073D01*
X38216Y-40101D01*
X38233Y-40127D01*
X38255Y-40149D01*
X38281Y-40166D01*
X38309Y-40178D01*
X38340Y-40184D01*
X38365Y-40184D01*
X38365Y-40247D01*
X38371Y-40278D01*
X38383Y-40306D01*
X38400Y-40332D01*
X38422Y-40354D01*
X38448Y-40371D01*
X38477Y-40383D01*
X38507Y-40389D01*
X38538Y-40389D01*
X39444Y-40389D01*
X39474Y-40383D01*
X39503Y-40371D01*
X39529Y-40354D01*
X39551Y-40332D01*
X39568Y-40306D01*
X39580Y-40278D01*
X39586Y-40247D01*
X39586Y-40216D01*
X39586Y-40184D01*
X39611Y-40184D01*
X39642Y-40178D01*
X39670Y-40166D01*
X39696Y-40149D01*
X39718Y-40127D01*
X39735Y-40101D01*
X39747Y-40073D01*
X39753Y-40042D01*
X39753Y-40011D01*
X39753Y-39736D01*
X39747Y-39705D01*
X39735Y-39677D01*
X39718Y-39651D01*
X39696Y-39629D01*
X39670Y-39612D01*
X39642Y-39600D01*
X39611Y-39594D01*
X39580Y-39594D01*
X39273Y-39594D01*
X39273Y-39114D01*
X39958Y-39114D01*
X40029Y-39121D01*
X40096Y-39141D01*
X40157Y-39174D01*
X40211Y-39218D01*
X40255Y-39271D01*
X40287Y-39332D01*
X40307Y-39399D01*
X40314Y-39470D01*
X40314Y-41631D01*
X40314Y-41631D01*
G37*
G54D31*
X40314Y-41631D02*
X40307Y-41702D01*
X40287Y-41769D01*
X40255Y-41830D01*
X40211Y-41884D01*
X40157Y-41928D01*
X40096Y-41961D01*
X40029Y-41981D01*
X39958Y-41988D01*
X37994Y-41988D01*
X37923Y-41981D01*
X37856Y-41961D01*
X37795Y-41928D01*
X37741Y-41884D01*
X37697Y-41830D01*
X37664Y-41769D01*
X37644Y-41702D01*
X37637Y-41631D01*
X37637Y-39470D01*
X37644Y-39399D01*
X37664Y-39332D01*
X37697Y-39271D01*
X37741Y-39218D01*
X37795Y-39174D01*
X37856Y-39141D01*
X37923Y-39121D01*
X37994Y-39114D01*
X38678Y-39114D01*
X38678Y-39594D01*
X38340Y-39594D01*
X38309Y-39600D01*
X38281Y-39612D01*
X38255Y-39629D01*
X38233Y-39651D01*
X38216Y-39677D01*
X38204Y-39705D01*
X38198Y-39736D01*
X38198Y-39767D01*
X38198Y-40042D01*
X38204Y-40073D01*
X38216Y-40101D01*
X38233Y-40127D01*
X38255Y-40149D01*
X38281Y-40166D01*
X38309Y-40178D01*
X38340Y-40184D01*
X38365Y-40184D01*
X38365Y-40247D01*
X38371Y-40278D01*
X38383Y-40306D01*
X38400Y-40332D01*
X38422Y-40354D01*
X38448Y-40371D01*
X38477Y-40383D01*
X38507Y-40389D01*
X38538Y-40389D01*
X39444Y-40389D01*
X39474Y-40383D01*
X39503Y-40371D01*
X39529Y-40354D01*
X39551Y-40332D01*
X39568Y-40306D01*
X39580Y-40278D01*
X39586Y-40247D01*
X39586Y-40216D01*
X39586Y-40184D01*
X39611Y-40184D01*
X39642Y-40178D01*
X39670Y-40166D01*
X39696Y-40149D01*
X39718Y-40127D01*
X39735Y-40101D01*
X39747Y-40073D01*
X39753Y-40042D01*
X39753Y-40011D01*
X39753Y-39736D01*
X39747Y-39705D01*
X39735Y-39677D01*
X39718Y-39651D01*
X39696Y-39629D01*
X39670Y-39612D01*
X39642Y-39600D01*
X39611Y-39594D01*
X39580Y-39594D01*
X39273Y-39594D01*
X39273Y-39114D01*
X39958Y-39114D01*
X40029Y-39121D01*
X40096Y-39141D01*
X40157Y-39174D01*
X40211Y-39218D01*
X40255Y-39271D01*
X40287Y-39332D01*
X40307Y-39399D01*
X40314Y-39470D01*
X40314Y-41631D01*
G54D10*
G36*
X40314Y-48324D02*
X40307Y-48395D01*
X40287Y-48462D01*
X40255Y-48523D01*
X40211Y-48577D01*
X40157Y-48621D01*
X40096Y-48653D01*
X40029Y-48674D01*
X39958Y-48681D01*
X37994Y-48681D01*
X37923Y-48674D01*
X37856Y-48653D01*
X37795Y-48621D01*
X37741Y-48577D01*
X37697Y-48523D01*
X37664Y-48462D01*
X37659Y-48442D01*
X37659Y-46045D01*
X37664Y-46025D01*
X37697Y-45964D01*
X37741Y-45911D01*
X37795Y-45866D01*
X37856Y-45834D01*
X37876Y-45828D01*
X37893Y-45828D01*
X37917Y-45826D01*
X37941Y-45823D01*
X37942Y-45823D01*
X37943Y-45823D01*
X37966Y-45816D01*
X37989Y-45809D01*
X37990Y-45809D01*
X37991Y-45808D01*
X37995Y-45807D01*
X38678Y-45807D01*
X38678Y-46287D01*
X38340Y-46287D01*
X38309Y-46293D01*
X38281Y-46305D01*
X38255Y-46322D01*
X38233Y-46344D01*
X38216Y-46370D01*
X38204Y-46398D01*
X38198Y-46429D01*
X38198Y-46460D01*
X38198Y-46735D01*
X38204Y-46766D01*
X38216Y-46794D01*
X38233Y-46820D01*
X38255Y-46842D01*
X38281Y-46859D01*
X38309Y-46871D01*
X38340Y-46877D01*
X38365Y-46877D01*
X38365Y-46940D01*
X38371Y-46971D01*
X38383Y-46999D01*
X38400Y-47025D01*
X38422Y-47047D01*
X38448Y-47064D01*
X38477Y-47076D01*
X38507Y-47082D01*
X38538Y-47082D01*
X39444Y-47082D01*
X39474Y-47076D01*
X39503Y-47064D01*
X39529Y-47047D01*
X39551Y-47025D01*
X39568Y-46999D01*
X39580Y-46971D01*
X39586Y-46940D01*
X39586Y-46909D01*
X39586Y-46877D01*
X39611Y-46877D01*
X39642Y-46871D01*
X39670Y-46859D01*
X39696Y-46842D01*
X39718Y-46820D01*
X39735Y-46794D01*
X39747Y-46766D01*
X39753Y-46735D01*
X39753Y-46704D01*
X39753Y-46429D01*
X39747Y-46398D01*
X39735Y-46370D01*
X39718Y-46344D01*
X39696Y-46322D01*
X39670Y-46305D01*
X39642Y-46293D01*
X39611Y-46287D01*
X39580Y-46287D01*
X39273Y-46287D01*
X39273Y-45807D01*
X39958Y-45807D01*
X40029Y-45814D01*
X40096Y-45834D01*
X40157Y-45866D01*
X40211Y-45911D01*
X40255Y-45964D01*
X40287Y-46025D01*
X40307Y-46092D01*
X40314Y-46163D01*
X40314Y-48324D01*
X40314Y-48324D01*
G37*
G54D31*
X40314Y-48324D02*
X40307Y-48395D01*
X40287Y-48462D01*
X40255Y-48523D01*
X40211Y-48577D01*
X40157Y-48621D01*
X40096Y-48653D01*
X40029Y-48674D01*
X39958Y-48681D01*
X37994Y-48681D01*
X37923Y-48674D01*
X37856Y-48653D01*
X37795Y-48621D01*
X37741Y-48577D01*
X37697Y-48523D01*
X37664Y-48462D01*
X37659Y-48442D01*
X37659Y-46045D01*
X37664Y-46025D01*
X37697Y-45964D01*
X37741Y-45911D01*
X37795Y-45866D01*
X37856Y-45834D01*
X37876Y-45828D01*
X37893Y-45828D01*
X37917Y-45826D01*
X37941Y-45823D01*
X37942Y-45823D01*
X37943Y-45823D01*
X37966Y-45816D01*
X37989Y-45809D01*
X37990Y-45809D01*
X37991Y-45808D01*
X37995Y-45807D01*
X38678Y-45807D01*
X38678Y-46287D01*
X38340Y-46287D01*
X38309Y-46293D01*
X38281Y-46305D01*
X38255Y-46322D01*
X38233Y-46344D01*
X38216Y-46370D01*
X38204Y-46398D01*
X38198Y-46429D01*
X38198Y-46460D01*
X38198Y-46735D01*
X38204Y-46766D01*
X38216Y-46794D01*
X38233Y-46820D01*
X38255Y-46842D01*
X38281Y-46859D01*
X38309Y-46871D01*
X38340Y-46877D01*
X38365Y-46877D01*
X38365Y-46940D01*
X38371Y-46971D01*
X38383Y-46999D01*
X38400Y-47025D01*
X38422Y-47047D01*
X38448Y-47064D01*
X38477Y-47076D01*
X38507Y-47082D01*
X38538Y-47082D01*
X39444Y-47082D01*
X39474Y-47076D01*
X39503Y-47064D01*
X39529Y-47047D01*
X39551Y-47025D01*
X39568Y-46999D01*
X39580Y-46971D01*
X39586Y-46940D01*
X39586Y-46909D01*
X39586Y-46877D01*
X39611Y-46877D01*
X39642Y-46871D01*
X39670Y-46859D01*
X39696Y-46842D01*
X39718Y-46820D01*
X39735Y-46794D01*
X39747Y-46766D01*
X39753Y-46735D01*
X39753Y-46704D01*
X39753Y-46429D01*
X39747Y-46398D01*
X39735Y-46370D01*
X39718Y-46344D01*
X39696Y-46322D01*
X39670Y-46305D01*
X39642Y-46293D01*
X39611Y-46287D01*
X39580Y-46287D01*
X39273Y-46287D01*
X39273Y-45807D01*
X39958Y-45807D01*
X40029Y-45814D01*
X40096Y-45834D01*
X40157Y-45866D01*
X40211Y-45911D01*
X40255Y-45964D01*
X40287Y-46025D01*
X40307Y-46092D01*
X40314Y-46163D01*
X40314Y-48324D01*
G54D10*
G36*
X30866Y-48324D02*
X30859Y-48395D01*
X30838Y-48462D01*
X30806Y-48523D01*
X30762Y-48577D01*
X30708Y-48621D01*
X30647Y-48653D01*
X30580Y-48674D01*
X30509Y-48681D01*
X29825Y-48681D01*
X29825Y-48200D01*
X30163Y-48200D01*
X30194Y-48194D01*
X30222Y-48182D01*
X30248Y-48165D01*
X30270Y-48143D01*
X30287Y-48117D01*
X30299Y-48089D01*
X30305Y-48058D01*
X30305Y-48027D01*
X30305Y-47752D01*
X30299Y-47721D01*
X30287Y-47693D01*
X30270Y-47667D01*
X30248Y-47645D01*
X30222Y-47628D01*
X30194Y-47616D01*
X30163Y-47610D01*
X30138Y-47610D01*
X30138Y-47547D01*
X30132Y-47516D01*
X30120Y-47488D01*
X30103Y-47462D01*
X30081Y-47440D01*
X30055Y-47423D01*
X30026Y-47411D01*
X29996Y-47405D01*
X29965Y-47405D01*
X29059Y-47405D01*
X29029Y-47411D01*
X29000Y-47423D01*
X28974Y-47440D01*
X28952Y-47462D01*
X28935Y-47488D01*
X28923Y-47516D01*
X28917Y-47547D01*
X28917Y-47578D01*
X28917Y-47610D01*
X28892Y-47610D01*
X28861Y-47616D01*
X28833Y-47628D01*
X28807Y-47645D01*
X28785Y-47667D01*
X28768Y-47693D01*
X28756Y-47721D01*
X28750Y-47752D01*
X28750Y-47783D01*
X28750Y-48058D01*
X28756Y-48089D01*
X28768Y-48117D01*
X28785Y-48143D01*
X28807Y-48165D01*
X28833Y-48182D01*
X28861Y-48194D01*
X28892Y-48200D01*
X28923Y-48200D01*
X29230Y-48200D01*
X29230Y-48681D01*
X28545Y-48681D01*
X28474Y-48674D01*
X28407Y-48653D01*
X28346Y-48621D01*
X28292Y-48577D01*
X28248Y-48523D01*
X28216Y-48462D01*
X28195Y-48395D01*
X28188Y-48324D01*
X28188Y-46163D01*
X28195Y-46092D01*
X28216Y-46025D01*
X28248Y-45964D01*
X28292Y-45911D01*
X28346Y-45866D01*
X28407Y-45834D01*
X28474Y-45814D01*
X28545Y-45807D01*
X30509Y-45807D01*
X30580Y-45814D01*
X30647Y-45834D01*
X30708Y-45866D01*
X30762Y-45911D01*
X30806Y-45964D01*
X30838Y-46025D01*
X30859Y-46092D01*
X30866Y-46163D01*
X30866Y-48324D01*
X30866Y-48324D01*
G37*
G54D31*
X30866Y-48324D02*
X30859Y-48395D01*
X30838Y-48462D01*
X30806Y-48523D01*
X30762Y-48577D01*
X30708Y-48621D01*
X30647Y-48653D01*
X30580Y-48674D01*
X30509Y-48681D01*
X29825Y-48681D01*
X29825Y-48200D01*
X30163Y-48200D01*
X30194Y-48194D01*
X30222Y-48182D01*
X30248Y-48165D01*
X30270Y-48143D01*
X30287Y-48117D01*
X30299Y-48089D01*
X30305Y-48058D01*
X30305Y-48027D01*
X30305Y-47752D01*
X30299Y-47721D01*
X30287Y-47693D01*
X30270Y-47667D01*
X30248Y-47645D01*
X30222Y-47628D01*
X30194Y-47616D01*
X30163Y-47610D01*
X30138Y-47610D01*
X30138Y-47547D01*
X30132Y-47516D01*
X30120Y-47488D01*
X30103Y-47462D01*
X30081Y-47440D01*
X30055Y-47423D01*
X30026Y-47411D01*
X29996Y-47405D01*
X29965Y-47405D01*
X29059Y-47405D01*
X29029Y-47411D01*
X29000Y-47423D01*
X28974Y-47440D01*
X28952Y-47462D01*
X28935Y-47488D01*
X28923Y-47516D01*
X28917Y-47547D01*
X28917Y-47578D01*
X28917Y-47610D01*
X28892Y-47610D01*
X28861Y-47616D01*
X28833Y-47628D01*
X28807Y-47645D01*
X28785Y-47667D01*
X28768Y-47693D01*
X28756Y-47721D01*
X28750Y-47752D01*
X28750Y-47783D01*
X28750Y-48058D01*
X28756Y-48089D01*
X28768Y-48117D01*
X28785Y-48143D01*
X28807Y-48165D01*
X28833Y-48182D01*
X28861Y-48194D01*
X28892Y-48200D01*
X28923Y-48200D01*
X29230Y-48200D01*
X29230Y-48681D01*
X28545Y-48681D01*
X28474Y-48674D01*
X28407Y-48653D01*
X28346Y-48621D01*
X28292Y-48577D01*
X28248Y-48523D01*
X28216Y-48462D01*
X28195Y-48395D01*
X28188Y-48324D01*
X28188Y-46163D01*
X28195Y-46092D01*
X28216Y-46025D01*
X28248Y-45964D01*
X28292Y-45911D01*
X28346Y-45866D01*
X28407Y-45834D01*
X28474Y-45814D01*
X28545Y-45807D01*
X30509Y-45807D01*
X30580Y-45814D01*
X30647Y-45834D01*
X30708Y-45866D01*
X30762Y-45911D01*
X30806Y-45964D01*
X30838Y-46025D01*
X30859Y-46092D01*
X30866Y-46163D01*
X30866Y-48324D01*
G54D10*
G36*
X30866Y-55017D02*
X30859Y-55088D01*
X30838Y-55155D01*
X30806Y-55216D01*
X30762Y-55270D01*
X30708Y-55314D01*
X30647Y-55346D01*
X30580Y-55367D01*
X30509Y-55374D01*
X29825Y-55374D01*
X29825Y-54893D01*
X30163Y-54893D01*
X30194Y-54887D01*
X30222Y-54875D01*
X30248Y-54858D01*
X30270Y-54836D01*
X30287Y-54810D01*
X30299Y-54782D01*
X30305Y-54751D01*
X30305Y-54720D01*
X30305Y-54445D01*
X30299Y-54414D01*
X30287Y-54386D01*
X30270Y-54360D01*
X30248Y-54338D01*
X30222Y-54321D01*
X30194Y-54309D01*
X30163Y-54303D01*
X30138Y-54303D01*
X30138Y-54240D01*
X30132Y-54209D01*
X30120Y-54181D01*
X30103Y-54155D01*
X30081Y-54133D01*
X30055Y-54116D01*
X30026Y-54104D01*
X29996Y-54098D01*
X29965Y-54098D01*
X29059Y-54098D01*
X29029Y-54104D01*
X29000Y-54116D01*
X28974Y-54133D01*
X28952Y-54155D01*
X28935Y-54181D01*
X28923Y-54209D01*
X28917Y-54240D01*
X28917Y-54271D01*
X28917Y-54303D01*
X28892Y-54303D01*
X28861Y-54309D01*
X28833Y-54321D01*
X28807Y-54338D01*
X28785Y-54360D01*
X28768Y-54386D01*
X28756Y-54414D01*
X28750Y-54445D01*
X28750Y-54476D01*
X28750Y-54751D01*
X28756Y-54782D01*
X28768Y-54810D01*
X28785Y-54836D01*
X28807Y-54858D01*
X28833Y-54875D01*
X28861Y-54887D01*
X28892Y-54893D01*
X28923Y-54893D01*
X29230Y-54893D01*
X29230Y-55374D01*
X28545Y-55374D01*
X28474Y-55367D01*
X28407Y-55346D01*
X28346Y-55314D01*
X28292Y-55270D01*
X28248Y-55216D01*
X28216Y-55155D01*
X28195Y-55088D01*
X28188Y-55017D01*
X28188Y-52856D01*
X28195Y-52785D01*
X28216Y-52718D01*
X28248Y-52657D01*
X28292Y-52603D01*
X28346Y-52559D01*
X28407Y-52527D01*
X28474Y-52506D01*
X28545Y-52500D01*
X30509Y-52500D01*
X30580Y-52506D01*
X30647Y-52527D01*
X30708Y-52559D01*
X30762Y-52603D01*
X30806Y-52657D01*
X30838Y-52718D01*
X30859Y-52785D01*
X30866Y-52856D01*
X30866Y-55017D01*
X30866Y-55017D01*
G37*
G54D31*
X30866Y-55017D02*
X30859Y-55088D01*
X30838Y-55155D01*
X30806Y-55216D01*
X30762Y-55270D01*
X30708Y-55314D01*
X30647Y-55346D01*
X30580Y-55367D01*
X30509Y-55374D01*
X29825Y-55374D01*
X29825Y-54893D01*
X30163Y-54893D01*
X30194Y-54887D01*
X30222Y-54875D01*
X30248Y-54858D01*
X30270Y-54836D01*
X30287Y-54810D01*
X30299Y-54782D01*
X30305Y-54751D01*
X30305Y-54720D01*
X30305Y-54445D01*
X30299Y-54414D01*
X30287Y-54386D01*
X30270Y-54360D01*
X30248Y-54338D01*
X30222Y-54321D01*
X30194Y-54309D01*
X30163Y-54303D01*
X30138Y-54303D01*
X30138Y-54240D01*
X30132Y-54209D01*
X30120Y-54181D01*
X30103Y-54155D01*
X30081Y-54133D01*
X30055Y-54116D01*
X30026Y-54104D01*
X29996Y-54098D01*
X29965Y-54098D01*
X29059Y-54098D01*
X29029Y-54104D01*
X29000Y-54116D01*
X28974Y-54133D01*
X28952Y-54155D01*
X28935Y-54181D01*
X28923Y-54209D01*
X28917Y-54240D01*
X28917Y-54271D01*
X28917Y-54303D01*
X28892Y-54303D01*
X28861Y-54309D01*
X28833Y-54321D01*
X28807Y-54338D01*
X28785Y-54360D01*
X28768Y-54386D01*
X28756Y-54414D01*
X28750Y-54445D01*
X28750Y-54476D01*
X28750Y-54751D01*
X28756Y-54782D01*
X28768Y-54810D01*
X28785Y-54836D01*
X28807Y-54858D01*
X28833Y-54875D01*
X28861Y-54887D01*
X28892Y-54893D01*
X28923Y-54893D01*
X29230Y-54893D01*
X29230Y-55374D01*
X28545Y-55374D01*
X28474Y-55367D01*
X28407Y-55346D01*
X28346Y-55314D01*
X28292Y-55270D01*
X28248Y-55216D01*
X28216Y-55155D01*
X28195Y-55088D01*
X28188Y-55017D01*
X28188Y-52856D01*
X28195Y-52785D01*
X28216Y-52718D01*
X28248Y-52657D01*
X28292Y-52603D01*
X28346Y-52559D01*
X28407Y-52527D01*
X28474Y-52506D01*
X28545Y-52500D01*
X30509Y-52500D01*
X30580Y-52506D01*
X30647Y-52527D01*
X30708Y-52559D01*
X30762Y-52603D01*
X30806Y-52657D01*
X30838Y-52718D01*
X30859Y-52785D01*
X30866Y-52856D01*
X30866Y-55017D01*
G54D10*
G36*
X40314Y-55017D02*
X40307Y-55088D01*
X40287Y-55155D01*
X40255Y-55216D01*
X40211Y-55270D01*
X40157Y-55314D01*
X40096Y-55346D01*
X40029Y-55367D01*
X39958Y-55374D01*
X37994Y-55374D01*
X37923Y-55367D01*
X37856Y-55346D01*
X37795Y-55314D01*
X37741Y-55270D01*
X37697Y-55216D01*
X37664Y-55155D01*
X37644Y-55088D01*
X37637Y-55017D01*
X37637Y-52856D01*
X37644Y-52785D01*
X37664Y-52718D01*
X37697Y-52657D01*
X37741Y-52603D01*
X37795Y-52559D01*
X37856Y-52527D01*
X37923Y-52506D01*
X37994Y-52500D01*
X38678Y-52500D01*
X38678Y-52980D01*
X38340Y-52980D01*
X38309Y-52986D01*
X38281Y-52998D01*
X38255Y-53015D01*
X38233Y-53037D01*
X38216Y-53063D01*
X38204Y-53091D01*
X38198Y-53122D01*
X38198Y-53153D01*
X38198Y-53428D01*
X38204Y-53459D01*
X38216Y-53487D01*
X38233Y-53513D01*
X38255Y-53535D01*
X38281Y-53552D01*
X38309Y-53564D01*
X38340Y-53570D01*
X38365Y-53570D01*
X38365Y-53633D01*
X38371Y-53664D01*
X38383Y-53692D01*
X38400Y-53718D01*
X38422Y-53740D01*
X38448Y-53757D01*
X38477Y-53769D01*
X38507Y-53775D01*
X38538Y-53775D01*
X39444Y-53775D01*
X39474Y-53769D01*
X39503Y-53757D01*
X39529Y-53740D01*
X39551Y-53718D01*
X39568Y-53692D01*
X39580Y-53664D01*
X39586Y-53633D01*
X39586Y-53602D01*
X39586Y-53570D01*
X39611Y-53570D01*
X39642Y-53564D01*
X39670Y-53552D01*
X39696Y-53535D01*
X39718Y-53513D01*
X39735Y-53487D01*
X39747Y-53459D01*
X39753Y-53428D01*
X39753Y-53397D01*
X39753Y-53122D01*
X39747Y-53091D01*
X39735Y-53063D01*
X39718Y-53037D01*
X39696Y-53015D01*
X39670Y-52998D01*
X39642Y-52986D01*
X39611Y-52980D01*
X39580Y-52980D01*
X39273Y-52980D01*
X39273Y-52500D01*
X39958Y-52500D01*
X40029Y-52506D01*
X40096Y-52527D01*
X40157Y-52559D01*
X40211Y-52603D01*
X40255Y-52657D01*
X40287Y-52718D01*
X40307Y-52785D01*
X40314Y-52856D01*
X40314Y-55017D01*
X40314Y-55017D01*
G37*
G54D31*
X40314Y-55017D02*
X40307Y-55088D01*
X40287Y-55155D01*
X40255Y-55216D01*
X40211Y-55270D01*
X40157Y-55314D01*
X40096Y-55346D01*
X40029Y-55367D01*
X39958Y-55374D01*
X37994Y-55374D01*
X37923Y-55367D01*
X37856Y-55346D01*
X37795Y-55314D01*
X37741Y-55270D01*
X37697Y-55216D01*
X37664Y-55155D01*
X37644Y-55088D01*
X37637Y-55017D01*
X37637Y-52856D01*
X37644Y-52785D01*
X37664Y-52718D01*
X37697Y-52657D01*
X37741Y-52603D01*
X37795Y-52559D01*
X37856Y-52527D01*
X37923Y-52506D01*
X37994Y-52500D01*
X38678Y-52500D01*
X38678Y-52980D01*
X38340Y-52980D01*
X38309Y-52986D01*
X38281Y-52998D01*
X38255Y-53015D01*
X38233Y-53037D01*
X38216Y-53063D01*
X38204Y-53091D01*
X38198Y-53122D01*
X38198Y-53153D01*
X38198Y-53428D01*
X38204Y-53459D01*
X38216Y-53487D01*
X38233Y-53513D01*
X38255Y-53535D01*
X38281Y-53552D01*
X38309Y-53564D01*
X38340Y-53570D01*
X38365Y-53570D01*
X38365Y-53633D01*
X38371Y-53664D01*
X38383Y-53692D01*
X38400Y-53718D01*
X38422Y-53740D01*
X38448Y-53757D01*
X38477Y-53769D01*
X38507Y-53775D01*
X38538Y-53775D01*
X39444Y-53775D01*
X39474Y-53769D01*
X39503Y-53757D01*
X39529Y-53740D01*
X39551Y-53718D01*
X39568Y-53692D01*
X39580Y-53664D01*
X39586Y-53633D01*
X39586Y-53602D01*
X39586Y-53570D01*
X39611Y-53570D01*
X39642Y-53564D01*
X39670Y-53552D01*
X39696Y-53535D01*
X39718Y-53513D01*
X39735Y-53487D01*
X39747Y-53459D01*
X39753Y-53428D01*
X39753Y-53397D01*
X39753Y-53122D01*
X39747Y-53091D01*
X39735Y-53063D01*
X39718Y-53037D01*
X39696Y-53015D01*
X39670Y-52998D01*
X39642Y-52986D01*
X39611Y-52980D01*
X39580Y-52980D01*
X39273Y-52980D01*
X39273Y-52500D01*
X39958Y-52500D01*
X40029Y-52506D01*
X40096Y-52527D01*
X40157Y-52559D01*
X40211Y-52603D01*
X40255Y-52657D01*
X40287Y-52718D01*
X40307Y-52785D01*
X40314Y-52856D01*
X40314Y-55017D01*
G54D10*
G36*
X43858Y-53866D02*
X43014Y-53866D01*
X43014Y-47244D01*
X43014Y-44685D01*
X43011Y-44657D01*
X43009Y-44630D01*
X43008Y-44628D01*
X43008Y-44627D01*
X43000Y-44600D01*
X42993Y-44574D01*
X42992Y-44573D01*
X42992Y-44571D01*
X42979Y-44547D01*
X42966Y-44522D01*
X42965Y-44521D01*
X42964Y-44520D01*
X42947Y-44499D01*
X42930Y-44477D01*
X42928Y-44475D01*
X42928Y-44475D01*
X42928Y-44475D01*
X42927Y-44474D01*
X42443Y-43990D01*
X42443Y-42868D01*
X42447Y-42867D01*
X42476Y-42855D01*
X42501Y-42838D01*
X42523Y-42816D01*
X42541Y-42790D01*
X42552Y-42761D01*
X42558Y-42731D01*
X42558Y-42700D01*
X42558Y-42110D01*
X42552Y-42080D01*
X42541Y-42051D01*
X42523Y-42025D01*
X42501Y-42003D01*
X42476Y-41986D01*
X42447Y-41974D01*
X42443Y-41973D01*
X42443Y-41786D01*
X42447Y-41785D01*
X42476Y-41773D01*
X42501Y-41756D01*
X42523Y-41734D01*
X42541Y-41708D01*
X42552Y-41679D01*
X42558Y-41649D01*
X42558Y-41618D01*
X42558Y-41028D01*
X42552Y-40998D01*
X42541Y-40969D01*
X42523Y-40943D01*
X42501Y-40921D01*
X42476Y-40904D01*
X42447Y-40892D01*
X42417Y-40886D01*
X42385Y-40886D01*
X41874Y-40886D01*
X41844Y-40892D01*
X41815Y-40904D01*
X41790Y-40921D01*
X41768Y-40943D01*
X41750Y-40969D01*
X41739Y-40998D01*
X41733Y-41028D01*
X41733Y-41059D01*
X41733Y-41649D01*
X41739Y-41679D01*
X41750Y-41708D01*
X41768Y-41734D01*
X41790Y-41756D01*
X41815Y-41773D01*
X41844Y-41785D01*
X41848Y-41786D01*
X41848Y-41973D01*
X41844Y-41974D01*
X41815Y-41986D01*
X41790Y-42003D01*
X41768Y-42025D01*
X41750Y-42051D01*
X41739Y-42080D01*
X41733Y-42110D01*
X41733Y-42141D01*
X41733Y-42731D01*
X41739Y-42761D01*
X41750Y-42790D01*
X41768Y-42816D01*
X41790Y-42838D01*
X41815Y-42855D01*
X41844Y-42867D01*
X41848Y-42868D01*
X41848Y-44114D01*
X41851Y-44141D01*
X41853Y-44168D01*
X41854Y-44170D01*
X41854Y-44171D01*
X41862Y-44198D01*
X41869Y-44224D01*
X41870Y-44225D01*
X41870Y-44227D01*
X41883Y-44251D01*
X41896Y-44276D01*
X41897Y-44277D01*
X41898Y-44278D01*
X41915Y-44299D01*
X41932Y-44321D01*
X41934Y-44323D01*
X41934Y-44323D01*
X41934Y-44323D01*
X41935Y-44324D01*
X42419Y-44808D01*
X42419Y-46946D01*
X41972Y-46946D01*
X41995Y-46897D01*
X42015Y-46804D01*
X42017Y-46696D01*
X41999Y-46603D01*
X41963Y-46516D01*
X41910Y-46437D01*
X41844Y-46370D01*
X41765Y-46317D01*
X41678Y-46280D01*
X41585Y-46261D01*
X41491Y-46261D01*
X41398Y-46278D01*
X41310Y-46314D01*
X41231Y-46366D01*
X41163Y-46432D01*
X41110Y-46510D01*
X41072Y-46597D01*
X41053Y-46689D01*
X41051Y-46784D01*
X41068Y-46877D01*
X41103Y-46965D01*
X41155Y-47045D01*
X41220Y-47113D01*
X41237Y-47124D01*
X41237Y-47244D01*
X41237Y-47362D01*
X41231Y-47366D01*
X41163Y-47432D01*
X41110Y-47510D01*
X41072Y-47597D01*
X41053Y-47689D01*
X41051Y-47784D01*
X41068Y-47877D01*
X41103Y-47965D01*
X41155Y-48045D01*
X41220Y-48113D01*
X41298Y-48167D01*
X41385Y-48205D01*
X41477Y-48225D01*
X41572Y-48227D01*
X41665Y-48210D01*
X41753Y-48176D01*
X41833Y-48126D01*
X41902Y-48060D01*
X41956Y-47983D01*
X41995Y-47897D01*
X42015Y-47804D01*
X42017Y-47696D01*
X41999Y-47603D01*
X41973Y-47541D01*
X42717Y-47541D01*
X42744Y-47538D01*
X42772Y-47536D01*
X42773Y-47535D01*
X42774Y-47535D01*
X42801Y-47527D01*
X42828Y-47519D01*
X42829Y-47519D01*
X42830Y-47519D01*
X42855Y-47505D01*
X42879Y-47492D01*
X42880Y-47492D01*
X42881Y-47491D01*
X42903Y-47474D01*
X42925Y-47456D01*
X42925Y-47455D01*
X42926Y-47455D01*
X42944Y-47433D01*
X42962Y-47412D01*
X42962Y-47411D01*
X42963Y-47410D01*
X42976Y-47385D01*
X42990Y-47361D01*
X42990Y-47360D01*
X42991Y-47359D01*
X42999Y-47332D01*
X43007Y-47305D01*
X43008Y-47304D01*
X43008Y-47303D01*
X43011Y-47275D01*
X43014Y-47248D01*
X43014Y-47246D01*
X43014Y-47246D01*
X43014Y-47246D01*
X43014Y-47244D01*
X43014Y-53866D01*
X42362Y-53866D01*
X42362Y-53878D01*
X42056Y-53937D01*
X42017Y-53952D01*
X42017Y-49696D01*
X42017Y-48696D01*
X41999Y-48603D01*
X41963Y-48516D01*
X41910Y-48437D01*
X41844Y-48370D01*
X41765Y-48317D01*
X41678Y-48280D01*
X41585Y-48261D01*
X41491Y-48261D01*
X41398Y-48278D01*
X41310Y-48314D01*
X41231Y-48366D01*
X41163Y-48432D01*
X41110Y-48510D01*
X41072Y-48597D01*
X41053Y-48689D01*
X41051Y-48784D01*
X41068Y-48877D01*
X41103Y-48965D01*
X41155Y-49045D01*
X41220Y-49113D01*
X41298Y-49167D01*
X41385Y-49205D01*
X41477Y-49225D01*
X41572Y-49227D01*
X41665Y-49210D01*
X41753Y-49176D01*
X41833Y-49126D01*
X41902Y-49060D01*
X41956Y-48983D01*
X41995Y-48897D01*
X42015Y-48804D01*
X42017Y-48696D01*
X42017Y-49696D01*
X41999Y-49603D01*
X41963Y-49516D01*
X41910Y-49437D01*
X41844Y-49370D01*
X41765Y-49317D01*
X41678Y-49280D01*
X41585Y-49261D01*
X41491Y-49261D01*
X41398Y-49278D01*
X41310Y-49314D01*
X41231Y-49366D01*
X41163Y-49432D01*
X41110Y-49510D01*
X41072Y-49597D01*
X41053Y-49689D01*
X41051Y-49784D01*
X41068Y-49877D01*
X41103Y-49965D01*
X41155Y-50045D01*
X41220Y-50113D01*
X41298Y-50167D01*
X41385Y-50205D01*
X41477Y-50225D01*
X41572Y-50227D01*
X41665Y-50210D01*
X41753Y-50176D01*
X41833Y-50126D01*
X41902Y-50060D01*
X41956Y-49983D01*
X41995Y-49897D01*
X42015Y-49804D01*
X42017Y-49696D01*
X42017Y-53952D01*
X41759Y-54057D01*
X41491Y-54232D01*
X41262Y-54456D01*
X41081Y-54721D01*
X40955Y-55015D01*
X40888Y-55328D01*
X40888Y-55354D01*
X40874Y-55354D01*
X40874Y-56850D01*
X40551Y-56850D01*
X40551Y-55179D01*
X40551Y-52694D01*
X40543Y-52612D01*
X40518Y-52531D01*
X40478Y-52456D01*
X40424Y-52390D01*
X40358Y-52336D01*
X40283Y-52296D01*
X40202Y-52271D01*
X40120Y-52263D01*
X39273Y-52263D01*
X39273Y-48917D01*
X40120Y-48917D01*
X40202Y-48909D01*
X40283Y-48884D01*
X40358Y-48844D01*
X40424Y-48790D01*
X40478Y-48724D01*
X40518Y-48650D01*
X40543Y-48568D01*
X40551Y-48486D01*
X40551Y-46002D01*
X40543Y-45919D01*
X40518Y-45838D01*
X40478Y-45763D01*
X40424Y-45697D01*
X40358Y-45643D01*
X40283Y-45603D01*
X40202Y-45579D01*
X40120Y-45570D01*
X39273Y-45570D01*
X39273Y-42224D01*
X40120Y-42224D01*
X40202Y-42216D01*
X40283Y-42191D01*
X40358Y-42151D01*
X40424Y-42097D01*
X40478Y-42032D01*
X40518Y-41957D01*
X40543Y-41875D01*
X40551Y-41793D01*
X40551Y-39309D01*
X40543Y-39226D01*
X40518Y-39145D01*
X40478Y-39070D01*
X40424Y-39004D01*
X40358Y-38950D01*
X40283Y-38910D01*
X40202Y-38886D01*
X40120Y-38877D01*
X39255Y-38877D01*
X39252Y-38865D01*
X39251Y-38864D01*
X39251Y-38862D01*
X39238Y-38838D01*
X39225Y-38813D01*
X39224Y-38812D01*
X39223Y-38811D01*
X39206Y-38790D01*
X39189Y-38768D01*
X39187Y-38766D01*
X39187Y-38766D01*
X39187Y-38766D01*
X39186Y-38765D01*
X38989Y-38569D01*
X38968Y-38551D01*
X38947Y-38534D01*
X38946Y-38533D01*
X38945Y-38532D01*
X38920Y-38519D01*
X38896Y-38506D01*
X38895Y-38505D01*
X38893Y-38504D01*
X38867Y-38496D01*
X38841Y-38488D01*
X38839Y-38488D01*
X38838Y-38487D01*
X38810Y-38485D01*
X38783Y-38482D01*
X38780Y-38482D01*
X38780Y-38482D01*
X38780Y-38482D01*
X38779Y-38482D01*
X29763Y-38482D01*
X29736Y-38484D01*
X29709Y-38487D01*
X29707Y-38487D01*
X29705Y-38487D01*
X29679Y-38495D01*
X29653Y-38503D01*
X29651Y-38504D01*
X29650Y-38504D01*
X29626Y-38517D01*
X29601Y-38530D01*
X29600Y-38531D01*
X29599Y-38531D01*
X29577Y-38549D01*
X29556Y-38566D01*
X29554Y-38568D01*
X29554Y-38568D01*
X29554Y-38568D01*
X29553Y-38569D01*
X29317Y-38804D01*
X29300Y-38826D01*
X29282Y-38847D01*
X29281Y-38848D01*
X29280Y-38849D01*
X29267Y-38874D01*
X29265Y-38877D01*
X28383Y-38877D01*
X28301Y-38886D01*
X28220Y-38910D01*
X28145Y-38950D01*
X28079Y-39004D01*
X28025Y-39070D01*
X27985Y-39145D01*
X27960Y-39226D01*
X27952Y-39309D01*
X27952Y-41793D01*
X27960Y-41875D01*
X27985Y-41957D01*
X28025Y-42032D01*
X28079Y-42097D01*
X28145Y-42151D01*
X28220Y-42191D01*
X28301Y-42216D01*
X28383Y-42224D01*
X29230Y-42224D01*
X29230Y-42827D01*
X28566Y-42827D01*
X28536Y-42833D01*
X28507Y-42845D01*
X28482Y-42862D01*
X28460Y-42884D01*
X28442Y-42910D01*
X28431Y-42938D01*
X28425Y-42969D01*
X28425Y-43000D01*
X28425Y-43600D01*
X25907Y-43600D01*
X25907Y-42868D01*
X25911Y-42867D01*
X25940Y-42855D01*
X25965Y-42838D01*
X25987Y-42816D01*
X26005Y-42790D01*
X26016Y-42761D01*
X26022Y-42731D01*
X26022Y-42700D01*
X26022Y-42110D01*
X26016Y-42080D01*
X26005Y-42051D01*
X25987Y-42025D01*
X25965Y-42003D01*
X25940Y-41986D01*
X25911Y-41974D01*
X25907Y-41973D01*
X25907Y-41786D01*
X25911Y-41785D01*
X25940Y-41773D01*
X25965Y-41756D01*
X25987Y-41734D01*
X26005Y-41708D01*
X26016Y-41679D01*
X26022Y-41649D01*
X26022Y-41618D01*
X26022Y-41028D01*
X26016Y-40998D01*
X26005Y-40969D01*
X25987Y-40943D01*
X25965Y-40921D01*
X25940Y-40904D01*
X25911Y-40892D01*
X25881Y-40886D01*
X25849Y-40886D01*
X25338Y-40886D01*
X25308Y-40892D01*
X25279Y-40904D01*
X25254Y-40921D01*
X25232Y-40943D01*
X25214Y-40969D01*
X25203Y-40998D01*
X25197Y-41028D01*
X25197Y-41059D01*
X25197Y-41649D01*
X25203Y-41679D01*
X25214Y-41708D01*
X25232Y-41734D01*
X25254Y-41756D01*
X25279Y-41773D01*
X25308Y-41785D01*
X25312Y-41786D01*
X25312Y-41973D01*
X25308Y-41974D01*
X25279Y-41986D01*
X25254Y-42003D01*
X25232Y-42025D01*
X25214Y-42051D01*
X25203Y-42080D01*
X25197Y-42110D01*
X25197Y-42141D01*
X25197Y-42731D01*
X25203Y-42761D01*
X25214Y-42790D01*
X25232Y-42816D01*
X25254Y-42838D01*
X25279Y-42855D01*
X25308Y-42867D01*
X25312Y-42868D01*
X25312Y-43897D01*
X25312Y-47244D01*
X25315Y-47271D01*
X25317Y-47299D01*
X25318Y-47300D01*
X25318Y-47301D01*
X25326Y-47328D01*
X25334Y-47355D01*
X25334Y-47356D01*
X25334Y-47357D01*
X25348Y-47382D01*
X25361Y-47406D01*
X25361Y-47407D01*
X25362Y-47408D01*
X25379Y-47430D01*
X25397Y-47452D01*
X25398Y-47452D01*
X25398Y-47453D01*
X25420Y-47471D01*
X25441Y-47489D01*
X25442Y-47489D01*
X25443Y-47490D01*
X25468Y-47503D01*
X25492Y-47517D01*
X25493Y-47517D01*
X25494Y-47518D01*
X25521Y-47526D01*
X25548Y-47534D01*
X25549Y-47535D01*
X25550Y-47535D01*
X25578Y-47538D01*
X25605Y-47541D01*
X25607Y-47541D01*
X25607Y-47541D01*
X25607Y-47541D01*
X25610Y-47541D01*
X26530Y-47541D01*
X26506Y-47597D01*
X26487Y-47689D01*
X26485Y-47784D01*
X26502Y-47877D01*
X26537Y-47965D01*
X26589Y-48045D01*
X26654Y-48113D01*
X26732Y-48167D01*
X26819Y-48205D01*
X26911Y-48225D01*
X27006Y-48227D01*
X27099Y-48210D01*
X27187Y-48176D01*
X27267Y-48126D01*
X27336Y-48060D01*
X27390Y-47983D01*
X27429Y-47897D01*
X27449Y-47804D01*
X27451Y-47696D01*
X27433Y-47603D01*
X27397Y-47516D01*
X27344Y-47437D01*
X27278Y-47370D01*
X27266Y-47362D01*
X27266Y-47244D01*
X27266Y-47126D01*
X27267Y-47126D01*
X27336Y-47060D01*
X27390Y-46983D01*
X27429Y-46897D01*
X27449Y-46804D01*
X27451Y-46696D01*
X27433Y-46603D01*
X27397Y-46516D01*
X27344Y-46437D01*
X27278Y-46370D01*
X27199Y-46317D01*
X27112Y-46280D01*
X27019Y-46261D01*
X26925Y-46261D01*
X26832Y-46278D01*
X26744Y-46314D01*
X26665Y-46366D01*
X26597Y-46432D01*
X26544Y-46510D01*
X26506Y-46597D01*
X26487Y-46689D01*
X26485Y-46784D01*
X26502Y-46877D01*
X26530Y-46946D01*
X25907Y-46946D01*
X25907Y-44195D01*
X28425Y-44195D01*
X28425Y-44747D01*
X28431Y-44777D01*
X28442Y-44806D01*
X28460Y-44832D01*
X28482Y-44854D01*
X28507Y-44871D01*
X28536Y-44883D01*
X28566Y-44889D01*
X28598Y-44889D01*
X29307Y-44889D01*
X29337Y-44883D01*
X29366Y-44871D01*
X29391Y-44854D01*
X29413Y-44832D01*
X29431Y-44806D01*
X29442Y-44777D01*
X29448Y-44747D01*
X29448Y-44716D01*
X29448Y-44714D01*
X29527Y-44714D01*
X29606Y-44714D01*
X29606Y-44747D01*
X29612Y-44777D01*
X29624Y-44806D01*
X29641Y-44832D01*
X29663Y-44854D01*
X29689Y-44871D01*
X29717Y-44883D01*
X29748Y-44889D01*
X29779Y-44889D01*
X30488Y-44889D01*
X30518Y-44883D01*
X30547Y-44871D01*
X30572Y-44854D01*
X30594Y-44832D01*
X30612Y-44806D01*
X30624Y-44777D01*
X30630Y-44747D01*
X30630Y-44716D01*
X30630Y-44712D01*
X30657Y-44709D01*
X30658Y-44709D01*
X30660Y-44709D01*
X30686Y-44701D01*
X30712Y-44693D01*
X30714Y-44692D01*
X30715Y-44692D01*
X30740Y-44679D01*
X30764Y-44666D01*
X30765Y-44665D01*
X30767Y-44665D01*
X30788Y-44647D01*
X30809Y-44630D01*
X30811Y-44628D01*
X30812Y-44628D01*
X30812Y-44628D01*
X30812Y-44627D01*
X31102Y-44338D01*
X31953Y-43486D01*
X32106Y-43486D01*
X32106Y-43558D01*
X32112Y-43589D01*
X32124Y-43617D01*
X32141Y-43643D01*
X32163Y-43665D01*
X32189Y-43682D01*
X32217Y-43694D01*
X32248Y-43700D01*
X32279Y-43700D01*
X32987Y-43700D01*
X33018Y-43694D01*
X33047Y-43682D01*
X33072Y-43665D01*
X33094Y-43643D01*
X33111Y-43617D01*
X33123Y-43589D01*
X33129Y-43558D01*
X33129Y-43527D01*
X33129Y-43486D01*
X33366Y-43486D01*
X33371Y-43510D01*
X33383Y-43539D01*
X33400Y-43565D01*
X33422Y-43586D01*
X33448Y-43604D01*
X33477Y-43616D01*
X33507Y-43622D01*
X33538Y-43622D01*
X33814Y-43622D01*
X33844Y-43616D01*
X33873Y-43604D01*
X33899Y-43586D01*
X33921Y-43565D01*
X33938Y-43539D01*
X33950Y-43510D01*
X33956Y-43480D01*
X33956Y-43449D01*
X33956Y-43171D01*
X33958Y-43153D01*
X33958Y-43150D01*
X33958Y-43150D01*
X33958Y-43150D01*
X33958Y-43149D01*
X33958Y-42761D01*
X34088Y-42631D01*
X34105Y-42610D01*
X34123Y-42589D01*
X34124Y-42587D01*
X34125Y-42586D01*
X34138Y-42562D01*
X34151Y-42538D01*
X34151Y-42536D01*
X34152Y-42535D01*
X34160Y-42509D01*
X34168Y-42483D01*
X34169Y-42481D01*
X34169Y-42480D01*
X34172Y-42452D01*
X34175Y-42425D01*
X34175Y-42422D01*
X34175Y-42422D01*
X34175Y-42422D01*
X34175Y-42421D01*
X34175Y-42376D01*
X34179Y-42375D01*
X34208Y-42363D01*
X34233Y-42346D01*
X34255Y-42324D01*
X34273Y-42298D01*
X34284Y-42270D01*
X34290Y-42239D01*
X34290Y-42208D01*
X34290Y-41618D01*
X34286Y-41596D01*
X34899Y-41596D01*
X34899Y-42677D01*
X34689Y-42677D01*
X34659Y-42683D01*
X34630Y-42695D01*
X34604Y-42712D01*
X34582Y-42734D01*
X34565Y-42760D01*
X34553Y-42788D01*
X34547Y-42819D01*
X34547Y-42850D01*
X34547Y-43128D01*
X34545Y-43147D01*
X34547Y-43169D01*
X34547Y-43480D01*
X34553Y-43510D01*
X34565Y-43539D01*
X34582Y-43565D01*
X34604Y-43586D01*
X34630Y-43604D01*
X34659Y-43616D01*
X34689Y-43622D01*
X34720Y-43622D01*
X34996Y-43622D01*
X35026Y-43616D01*
X35055Y-43604D01*
X35081Y-43586D01*
X35103Y-43565D01*
X35120Y-43539D01*
X35132Y-43510D01*
X35138Y-43480D01*
X35138Y-43449D01*
X35138Y-43440D01*
X35162Y-43433D01*
X35189Y-43425D01*
X35190Y-43425D01*
X35192Y-43424D01*
X35216Y-43411D01*
X35240Y-43399D01*
X35241Y-43398D01*
X35243Y-43397D01*
X35264Y-43380D01*
X35286Y-43362D01*
X35288Y-43360D01*
X35288Y-43360D01*
X35288Y-43360D01*
X35289Y-43359D01*
X35407Y-43241D01*
X35424Y-43220D01*
X35442Y-43199D01*
X35443Y-43198D01*
X35444Y-43196D01*
X35457Y-43172D01*
X35470Y-43148D01*
X35470Y-43147D01*
X35471Y-43145D01*
X35479Y-43119D01*
X35487Y-43093D01*
X35488Y-43091D01*
X35488Y-43090D01*
X35491Y-43062D01*
X35494Y-43035D01*
X35494Y-43032D01*
X35494Y-43032D01*
X35494Y-43032D01*
X35494Y-43031D01*
X35494Y-41456D01*
X35491Y-41429D01*
X35489Y-41401D01*
X35488Y-41400D01*
X35488Y-41398D01*
X35480Y-41372D01*
X35473Y-41346D01*
X35472Y-41344D01*
X35471Y-41343D01*
X35458Y-41319D01*
X35446Y-41294D01*
X35445Y-41293D01*
X35444Y-41292D01*
X35427Y-41270D01*
X35410Y-41249D01*
X35407Y-41247D01*
X35407Y-41247D01*
X35407Y-41247D01*
X35407Y-41246D01*
X35249Y-41088D01*
X35228Y-41071D01*
X35207Y-41053D01*
X35206Y-41053D01*
X35204Y-41052D01*
X35180Y-41039D01*
X35156Y-41025D01*
X35155Y-41025D01*
X35153Y-41024D01*
X35127Y-41016D01*
X35101Y-41008D01*
X35099Y-41008D01*
X35098Y-41007D01*
X35070Y-41004D01*
X35043Y-41001D01*
X35040Y-41001D01*
X35040Y-41001D01*
X35040Y-41001D01*
X35039Y-41001D01*
X33503Y-41001D01*
X33476Y-41004D01*
X33449Y-41006D01*
X33447Y-41007D01*
X33446Y-41007D01*
X33419Y-41015D01*
X33393Y-41023D01*
X33392Y-41023D01*
X33390Y-41024D01*
X33366Y-41037D01*
X33341Y-41049D01*
X33340Y-41050D01*
X33339Y-41051D01*
X33317Y-41068D01*
X33296Y-41085D01*
X33294Y-41088D01*
X33294Y-41088D01*
X33294Y-41088D01*
X33293Y-41088D01*
X33077Y-41305D01*
X33059Y-41326D01*
X33041Y-41347D01*
X33041Y-41349D01*
X33040Y-41350D01*
X33027Y-41374D01*
X33013Y-41398D01*
X33013Y-41400D01*
X33012Y-41401D01*
X33004Y-41427D01*
X32996Y-41453D01*
X32996Y-41455D01*
X32995Y-41456D01*
X32993Y-41484D01*
X32989Y-41511D01*
X32989Y-41514D01*
X32989Y-41514D01*
X32989Y-41514D01*
X32989Y-41515D01*
X32989Y-41727D01*
X32711Y-42005D01*
X32125Y-42005D01*
X32098Y-42008D01*
X32071Y-42010D01*
X32069Y-42011D01*
X32068Y-42011D01*
X32041Y-42019D01*
X32015Y-42026D01*
X32014Y-42027D01*
X32012Y-42028D01*
X31988Y-42041D01*
X31963Y-42053D01*
X31962Y-42054D01*
X31961Y-42055D01*
X31940Y-42072D01*
X31918Y-42089D01*
X31916Y-42092D01*
X31916Y-42092D01*
X31916Y-42092D01*
X31915Y-42092D01*
X31102Y-42906D01*
X31006Y-43001D01*
X30630Y-43001D01*
X30630Y-42969D01*
X30624Y-42938D01*
X30612Y-42910D01*
X30594Y-42884D01*
X30572Y-42862D01*
X30547Y-42845D01*
X30518Y-42833D01*
X30488Y-42827D01*
X30457Y-42827D01*
X29825Y-42827D01*
X29825Y-42224D01*
X30671Y-42224D01*
X30753Y-42216D01*
X30835Y-42191D01*
X30909Y-42151D01*
X30975Y-42097D01*
X31029Y-42032D01*
X31069Y-41957D01*
X31094Y-41875D01*
X31102Y-41793D01*
X31102Y-39309D01*
X31094Y-39226D01*
X31069Y-39145D01*
X31033Y-39077D01*
X37470Y-39077D01*
X37434Y-39145D01*
X37409Y-39226D01*
X37401Y-39309D01*
X37401Y-41793D01*
X37409Y-41875D01*
X37434Y-41957D01*
X37474Y-42032D01*
X37528Y-42097D01*
X37593Y-42151D01*
X37668Y-42191D01*
X37750Y-42216D01*
X37832Y-42224D01*
X38678Y-42224D01*
X38678Y-45570D01*
X38257Y-45570D01*
X38272Y-45556D01*
X38287Y-45537D01*
X38303Y-45519D01*
X38303Y-45518D01*
X38304Y-45517D01*
X38315Y-45496D01*
X38327Y-45475D01*
X38327Y-45474D01*
X38328Y-45472D01*
X38335Y-45450D01*
X38342Y-45427D01*
X38342Y-45426D01*
X38342Y-45424D01*
X38345Y-45401D01*
X38348Y-45377D01*
X38348Y-45374D01*
X38348Y-45374D01*
X38348Y-45374D01*
X38348Y-45374D01*
X38348Y-45078D01*
X38401Y-45078D01*
X38431Y-45072D01*
X38460Y-45060D01*
X38485Y-45043D01*
X38507Y-45021D01*
X38525Y-44995D01*
X38536Y-44966D01*
X38543Y-44936D01*
X38543Y-44905D01*
X38543Y-44394D01*
X38536Y-44363D01*
X38525Y-44335D01*
X38507Y-44309D01*
X38489Y-44291D01*
X38507Y-44273D01*
X38525Y-44247D01*
X38536Y-44218D01*
X38543Y-44188D01*
X38543Y-44157D01*
X38543Y-43646D01*
X38536Y-43615D01*
X38525Y-43587D01*
X38507Y-43561D01*
X38485Y-43539D01*
X38460Y-43522D01*
X38431Y-43510D01*
X38401Y-43504D01*
X38370Y-43504D01*
X38328Y-43504D01*
X38328Y-43248D01*
X38326Y-43224D01*
X38323Y-43200D01*
X38323Y-43199D01*
X38323Y-43198D01*
X38316Y-43175D01*
X38309Y-43152D01*
X38309Y-43151D01*
X38308Y-43149D01*
X38297Y-43128D01*
X38286Y-43107D01*
X38285Y-43106D01*
X38285Y-43105D01*
X38270Y-43087D01*
X38255Y-43068D01*
X38253Y-43066D01*
X38253Y-43066D01*
X38253Y-43066D01*
X38252Y-43065D01*
X37121Y-41934D01*
X37103Y-41919D01*
X37085Y-41904D01*
X37084Y-41903D01*
X37082Y-41902D01*
X37062Y-41891D01*
X37041Y-41880D01*
X37039Y-41879D01*
X37038Y-41879D01*
X37015Y-41872D01*
X36993Y-41865D01*
X36991Y-41864D01*
X36990Y-41864D01*
X36967Y-41862D01*
X36943Y-41859D01*
X36940Y-41859D01*
X36940Y-41859D01*
X36940Y-41859D01*
X36939Y-41859D01*
X36804Y-41859D01*
X36804Y-41825D01*
X36798Y-41795D01*
X36786Y-41766D01*
X36769Y-41740D01*
X36747Y-41719D01*
X36721Y-41701D01*
X36692Y-41689D01*
X36662Y-41683D01*
X36631Y-41683D01*
X36237Y-41683D01*
X36207Y-41689D01*
X36178Y-41701D01*
X36152Y-41719D01*
X36130Y-41740D01*
X36113Y-41766D01*
X36101Y-41795D01*
X36095Y-41825D01*
X36095Y-41856D01*
X36095Y-42408D01*
X36101Y-42438D01*
X36113Y-42467D01*
X36130Y-42492D01*
X36152Y-42514D01*
X36178Y-42532D01*
X36207Y-42543D01*
X36237Y-42550D01*
X36268Y-42550D01*
X36662Y-42550D01*
X36692Y-42543D01*
X36721Y-42532D01*
X36747Y-42514D01*
X36769Y-42492D01*
X36786Y-42467D01*
X36798Y-42438D01*
X36804Y-42408D01*
X36804Y-42377D01*
X36804Y-42374D01*
X36833Y-42374D01*
X37813Y-43354D01*
X37813Y-43504D01*
X37780Y-43504D01*
X37749Y-43510D01*
X37720Y-43522D01*
X37695Y-43539D01*
X37673Y-43561D01*
X37655Y-43587D01*
X37644Y-43615D01*
X37638Y-43646D01*
X37638Y-43659D01*
X37618Y-43659D01*
X37594Y-43662D01*
X37570Y-43664D01*
X37569Y-43664D01*
X37568Y-43664D01*
X37545Y-43671D01*
X37522Y-43678D01*
X37521Y-43678D01*
X37519Y-43679D01*
X37499Y-43690D01*
X37477Y-43701D01*
X37476Y-43702D01*
X37475Y-43702D01*
X37457Y-43717D01*
X37438Y-43732D01*
X37436Y-43734D01*
X37436Y-43734D01*
X37436Y-43734D01*
X37436Y-43735D01*
X37357Y-43813D01*
X37342Y-43832D01*
X37326Y-43850D01*
X37326Y-43851D01*
X37325Y-43852D01*
X37314Y-43873D01*
X37302Y-43894D01*
X37302Y-43895D01*
X37301Y-43897D01*
X37294Y-43919D01*
X37287Y-43942D01*
X37287Y-43943D01*
X37286Y-43945D01*
X37284Y-43968D01*
X37281Y-43992D01*
X37281Y-43995D01*
X37281Y-43995D01*
X37281Y-43995D01*
X37281Y-43996D01*
X37281Y-44265D01*
X37260Y-44261D01*
X37229Y-44261D01*
X37138Y-44261D01*
X37138Y-43195D01*
X37138Y-43164D01*
X37138Y-42770D01*
X37132Y-42740D01*
X37121Y-42711D01*
X37103Y-42685D01*
X37081Y-42663D01*
X37056Y-42646D01*
X37027Y-42634D01*
X36997Y-42628D01*
X36965Y-42628D01*
X36651Y-42628D01*
X36620Y-42634D01*
X36591Y-42646D01*
X36566Y-42663D01*
X36544Y-42685D01*
X36526Y-42711D01*
X36515Y-42740D01*
X36509Y-42770D01*
X36509Y-42801D01*
X36509Y-43195D01*
X36515Y-43225D01*
X36526Y-43254D01*
X36544Y-43280D01*
X36566Y-43302D01*
X36591Y-43319D01*
X36620Y-43331D01*
X36651Y-43337D01*
X36682Y-43337D01*
X36997Y-43337D01*
X37027Y-43331D01*
X37056Y-43319D01*
X37081Y-43302D01*
X37103Y-43280D01*
X37121Y-43254D01*
X37132Y-43225D01*
X37138Y-43195D01*
X37138Y-44261D01*
X36639Y-44261D01*
X36609Y-44267D01*
X36580Y-44278D01*
X36554Y-44296D01*
X36532Y-44318D01*
X36515Y-44343D01*
X36503Y-44372D01*
X36502Y-44376D01*
X36397Y-44376D01*
X36396Y-44372D01*
X36384Y-44343D01*
X36367Y-44318D01*
X36345Y-44296D01*
X36319Y-44278D01*
X36290Y-44267D01*
X36260Y-44261D01*
X36229Y-44261D01*
X35639Y-44261D01*
X35609Y-44267D01*
X35580Y-44278D01*
X35554Y-44296D01*
X35532Y-44318D01*
X35515Y-44343D01*
X35513Y-44348D01*
X35177Y-44348D01*
X35177Y-44311D01*
X35169Y-44273D01*
X35154Y-44237D01*
X35133Y-44205D01*
X35106Y-44178D01*
X35073Y-44156D01*
X35038Y-44141D01*
X35000Y-44134D01*
X34961Y-44134D01*
X34685Y-44134D01*
X34647Y-44141D01*
X34611Y-44156D01*
X34579Y-44178D01*
X34552Y-44205D01*
X34530Y-44237D01*
X34516Y-44273D01*
X34508Y-44311D01*
X34508Y-44349D01*
X34508Y-44979D01*
X34516Y-45017D01*
X34530Y-45053D01*
X34552Y-45085D01*
X34579Y-45113D01*
X34611Y-45134D01*
X34647Y-45149D01*
X34685Y-45157D01*
X34724Y-45157D01*
X35000Y-45157D01*
X35038Y-45149D01*
X35073Y-45134D01*
X35106Y-45113D01*
X35133Y-45085D01*
X35154Y-45053D01*
X35169Y-45017D01*
X35177Y-44979D01*
X35177Y-44943D01*
X35497Y-44943D01*
X35497Y-44945D01*
X35503Y-44975D01*
X35515Y-45004D01*
X35532Y-45029D01*
X35554Y-45051D01*
X35580Y-45069D01*
X35609Y-45080D01*
X35639Y-45086D01*
X35670Y-45086D01*
X36260Y-45086D01*
X36290Y-45080D01*
X36319Y-45069D01*
X36345Y-45051D01*
X36367Y-45029D01*
X36384Y-45004D01*
X36396Y-44975D01*
X36397Y-44971D01*
X36502Y-44971D01*
X36503Y-44975D01*
X36515Y-45004D01*
X36532Y-45029D01*
X36554Y-45051D01*
X36580Y-45069D01*
X36609Y-45080D01*
X36639Y-45086D01*
X36670Y-45086D01*
X37260Y-45086D01*
X37290Y-45080D01*
X37319Y-45069D01*
X37345Y-45051D01*
X37367Y-45029D01*
X37384Y-45004D01*
X37396Y-44975D01*
X37402Y-44945D01*
X37402Y-44931D01*
X37432Y-44931D01*
X37455Y-44929D01*
X37479Y-44927D01*
X37480Y-44926D01*
X37482Y-44926D01*
X37505Y-44919D01*
X37527Y-44913D01*
X37529Y-44912D01*
X37530Y-44912D01*
X37551Y-44900D01*
X37572Y-44889D01*
X37573Y-44889D01*
X37574Y-44888D01*
X37593Y-44873D01*
X37611Y-44858D01*
X37613Y-44856D01*
X37613Y-44856D01*
X37613Y-44856D01*
X37614Y-44856D01*
X37638Y-44832D01*
X37638Y-44936D01*
X37644Y-44966D01*
X37655Y-44995D01*
X37673Y-45021D01*
X37695Y-45043D01*
X37720Y-45060D01*
X37749Y-45072D01*
X37780Y-45078D01*
X37811Y-45078D01*
X37833Y-45078D01*
X37833Y-45267D01*
X37787Y-45313D01*
X37460Y-45313D01*
X37436Y-45315D01*
X37413Y-45317D01*
X37411Y-45318D01*
X37410Y-45318D01*
X37387Y-45325D01*
X37365Y-45331D01*
X37363Y-45332D01*
X37362Y-45332D01*
X37341Y-45343D01*
X37320Y-45354D01*
X37319Y-45355D01*
X37318Y-45356D01*
X37299Y-45371D01*
X37281Y-45386D01*
X37279Y-45388D01*
X37279Y-45388D01*
X37279Y-45388D01*
X37278Y-45388D01*
X37219Y-45447D01*
X37204Y-45466D01*
X37189Y-45484D01*
X37188Y-45485D01*
X37187Y-45486D01*
X37176Y-45507D01*
X37164Y-45528D01*
X37164Y-45529D01*
X37163Y-45530D01*
X37156Y-45553D01*
X37149Y-45576D01*
X37149Y-45577D01*
X37149Y-45579D01*
X37146Y-45602D01*
X37144Y-45626D01*
X37144Y-45628D01*
X37144Y-45629D01*
X37144Y-45629D01*
X37144Y-45629D01*
X37144Y-48564D01*
X37131Y-48595D01*
X37119Y-48649D01*
X37118Y-48704D01*
X37128Y-48759D01*
X37149Y-48810D01*
X37179Y-48857D01*
X37217Y-48897D01*
X37263Y-48928D01*
X37313Y-48951D01*
X37367Y-48962D01*
X37423Y-48964D01*
X37477Y-48954D01*
X37529Y-48934D01*
X37576Y-48904D01*
X37616Y-48866D01*
X37621Y-48859D01*
X37668Y-48884D01*
X37750Y-48909D01*
X37832Y-48917D01*
X38678Y-48917D01*
X38678Y-52263D01*
X37832Y-52263D01*
X37750Y-52271D01*
X37668Y-52296D01*
X37593Y-52336D01*
X37528Y-52390D01*
X37474Y-52456D01*
X37434Y-52531D01*
X37409Y-52612D01*
X37401Y-52694D01*
X37401Y-55179D01*
X37409Y-55261D01*
X37434Y-55342D01*
X37470Y-55411D01*
X31102Y-55411D01*
X31033Y-55411D01*
X31069Y-55342D01*
X31094Y-55261D01*
X31102Y-55179D01*
X31102Y-52694D01*
X31094Y-52612D01*
X31069Y-52531D01*
X31029Y-52456D01*
X30975Y-52390D01*
X30909Y-52336D01*
X30835Y-52296D01*
X30753Y-52271D01*
X30671Y-52263D01*
X29825Y-52263D01*
X29825Y-48917D01*
X30671Y-48917D01*
X30753Y-48909D01*
X30835Y-48884D01*
X30909Y-48844D01*
X30975Y-48790D01*
X31029Y-48724D01*
X31069Y-48650D01*
X31094Y-48568D01*
X31102Y-48486D01*
X31102Y-47293D01*
X32697Y-47293D01*
X32697Y-48159D01*
X32708Y-48216D01*
X32731Y-48269D01*
X32763Y-48318D01*
X32804Y-48359D01*
X32853Y-48391D01*
X32906Y-48414D01*
X32963Y-48425D01*
X33022Y-48425D01*
X34006Y-48425D01*
X34063Y-48414D01*
X34116Y-48391D01*
X34165Y-48359D01*
X34206Y-48318D01*
X34238Y-48269D01*
X34252Y-48237D01*
X34265Y-48269D01*
X34297Y-48318D01*
X34338Y-48359D01*
X34387Y-48391D01*
X34440Y-48414D01*
X34497Y-48425D01*
X34556Y-48425D01*
X35540Y-48425D01*
X35597Y-48414D01*
X35650Y-48391D01*
X35699Y-48359D01*
X35740Y-48318D01*
X35772Y-48269D01*
X35795Y-48216D01*
X35806Y-48159D01*
X35806Y-48100D01*
X35806Y-46328D01*
X35795Y-46271D01*
X35772Y-46218D01*
X35740Y-46169D01*
X35699Y-46128D01*
X35650Y-46096D01*
X35597Y-46073D01*
X35540Y-46062D01*
X35481Y-46062D01*
X35316Y-46062D01*
X35316Y-46042D01*
X35313Y-46015D01*
X35311Y-45987D01*
X35310Y-45986D01*
X35310Y-45984D01*
X35302Y-45958D01*
X35295Y-45932D01*
X35294Y-45930D01*
X35294Y-45929D01*
X35281Y-45905D01*
X35268Y-45880D01*
X35267Y-45879D01*
X35266Y-45877D01*
X35249Y-45856D01*
X35232Y-45835D01*
X35230Y-45833D01*
X35230Y-45833D01*
X35230Y-45832D01*
X35229Y-45832D01*
X34639Y-45242D01*
X34618Y-45224D01*
X34597Y-45207D01*
X34595Y-45206D01*
X34594Y-45205D01*
X34570Y-45192D01*
X34546Y-45179D01*
X34544Y-45178D01*
X34543Y-45178D01*
X34517Y-45170D01*
X34490Y-45161D01*
X34489Y-45161D01*
X34487Y-45161D01*
X34460Y-45158D01*
X34433Y-45155D01*
X34430Y-45155D01*
X34430Y-45155D01*
X34430Y-45155D01*
X34429Y-45155D01*
X33827Y-45155D01*
X33856Y-45149D01*
X33891Y-45134D01*
X33924Y-45113D01*
X33951Y-45085D01*
X33972Y-45053D01*
X33987Y-45017D01*
X33995Y-44979D01*
X33995Y-44941D01*
X33995Y-44311D01*
X33987Y-44273D01*
X33972Y-44237D01*
X33951Y-44205D01*
X33924Y-44178D01*
X33891Y-44156D01*
X33856Y-44141D01*
X33818Y-44134D01*
X33779Y-44134D01*
X33503Y-44134D01*
X33465Y-44141D01*
X33429Y-44156D01*
X33397Y-44178D01*
X33370Y-44205D01*
X33353Y-44230D01*
X33129Y-44230D01*
X33129Y-44157D01*
X33123Y-44127D01*
X33111Y-44098D01*
X33094Y-44072D01*
X33072Y-44050D01*
X33047Y-44033D01*
X33018Y-44021D01*
X32987Y-44015D01*
X32956Y-44015D01*
X32248Y-44015D01*
X32217Y-44021D01*
X32189Y-44033D01*
X32163Y-44050D01*
X32141Y-44072D01*
X32124Y-44098D01*
X32112Y-44127D01*
X32106Y-44157D01*
X32106Y-44188D01*
X32106Y-44897D01*
X32112Y-44927D01*
X32124Y-44956D01*
X32141Y-44982D01*
X32163Y-45004D01*
X32189Y-45021D01*
X32217Y-45033D01*
X32248Y-45039D01*
X32279Y-45039D01*
X32320Y-45039D01*
X32320Y-45413D01*
X32323Y-45440D01*
X32325Y-45468D01*
X32326Y-45469D01*
X32326Y-45471D01*
X32334Y-45497D01*
X32341Y-45523D01*
X32342Y-45525D01*
X32343Y-45526D01*
X32355Y-45551D01*
X32368Y-45575D01*
X32369Y-45576D01*
X32370Y-45578D01*
X32387Y-45599D01*
X32404Y-45620D01*
X32406Y-45622D01*
X32407Y-45623D01*
X32407Y-45623D01*
X32407Y-45623D01*
X32447Y-45663D01*
X32468Y-45680D01*
X32489Y-45698D01*
X32490Y-45698D01*
X32491Y-45699D01*
X32516Y-45712D01*
X32540Y-45726D01*
X32541Y-45726D01*
X32543Y-45727D01*
X32569Y-45735D01*
X32595Y-45743D01*
X32597Y-45743D01*
X32598Y-45744D01*
X32626Y-45747D01*
X32653Y-45750D01*
X32656Y-45750D01*
X32656Y-45750D01*
X32656Y-45750D01*
X32657Y-45750D01*
X34305Y-45750D01*
X34618Y-46062D01*
X34497Y-46062D01*
X34440Y-46073D01*
X34387Y-46096D01*
X34338Y-46128D01*
X34297Y-46169D01*
X34265Y-46218D01*
X34252Y-46250D01*
X34238Y-46218D01*
X34206Y-46169D01*
X34165Y-46128D01*
X34116Y-46096D01*
X34063Y-46073D01*
X34006Y-46062D01*
X33947Y-46062D01*
X32963Y-46062D01*
X32906Y-46073D01*
X32853Y-46096D01*
X32804Y-46128D01*
X32763Y-46169D01*
X32731Y-46218D01*
X32708Y-46271D01*
X32697Y-46328D01*
X32697Y-46387D01*
X32697Y-46698D01*
X31102Y-46698D01*
X31102Y-46002D01*
X31094Y-45919D01*
X31069Y-45838D01*
X31029Y-45763D01*
X30975Y-45697D01*
X30909Y-45643D01*
X30835Y-45603D01*
X30753Y-45579D01*
X30671Y-45570D01*
X28383Y-45570D01*
X28301Y-45579D01*
X28220Y-45603D01*
X28145Y-45643D01*
X28079Y-45697D01*
X28025Y-45763D01*
X27985Y-45838D01*
X27960Y-45919D01*
X27952Y-46002D01*
X27952Y-48486D01*
X27960Y-48568D01*
X27985Y-48650D01*
X28025Y-48724D01*
X28079Y-48790D01*
X28145Y-48844D01*
X28220Y-48884D01*
X28301Y-48909D01*
X28383Y-48917D01*
X29230Y-48917D01*
X29230Y-52263D01*
X28383Y-52263D01*
X28301Y-52271D01*
X28220Y-52296D01*
X28145Y-52336D01*
X28079Y-52390D01*
X28025Y-52456D01*
X27985Y-52531D01*
X27960Y-52612D01*
X27952Y-52694D01*
X27952Y-55179D01*
X27960Y-55261D01*
X27985Y-55342D01*
X28025Y-55417D01*
X28079Y-55483D01*
X28145Y-55537D01*
X28220Y-55577D01*
X28301Y-55602D01*
X28383Y-55610D01*
X29236Y-55610D01*
X29244Y-55635D01*
X29251Y-55662D01*
X29252Y-55663D01*
X29252Y-55664D01*
X29265Y-55689D01*
X29278Y-55713D01*
X29279Y-55714D01*
X29280Y-55716D01*
X29297Y-55737D01*
X29314Y-55759D01*
X29316Y-55761D01*
X29316Y-55761D01*
X29316Y-55761D01*
X29317Y-55761D01*
X29474Y-55919D01*
X29495Y-55936D01*
X29516Y-55954D01*
X29518Y-55954D01*
X29519Y-55955D01*
X29543Y-55968D01*
X29567Y-55982D01*
X29569Y-55982D01*
X29570Y-55983D01*
X29596Y-55991D01*
X29623Y-55999D01*
X29624Y-55999D01*
X29626Y-56000D01*
X29653Y-56003D01*
X29680Y-56006D01*
X29683Y-56006D01*
X29684Y-56006D01*
X29684Y-56006D01*
X29685Y-56006D01*
X31102Y-56006D01*
X38759Y-56006D01*
X38787Y-56003D01*
X38814Y-56001D01*
X38816Y-56000D01*
X38817Y-56000D01*
X38843Y-55992D01*
X38870Y-55984D01*
X38871Y-55984D01*
X38873Y-55983D01*
X38897Y-55970D01*
X38921Y-55958D01*
X38923Y-55957D01*
X38924Y-55956D01*
X38945Y-55939D01*
X38967Y-55921D01*
X38969Y-55919D01*
X38969Y-55919D01*
X38969Y-55919D01*
X38970Y-55919D01*
X39186Y-55702D01*
X39203Y-55681D01*
X39221Y-55660D01*
X39222Y-55659D01*
X39223Y-55657D01*
X39236Y-55633D01*
X39249Y-55610D01*
X40120Y-55610D01*
X40202Y-55602D01*
X40283Y-55577D01*
X40358Y-55537D01*
X40424Y-55483D01*
X40478Y-55417D01*
X40518Y-55342D01*
X40543Y-55261D01*
X40551Y-55179D01*
X40551Y-56850D01*
X40511Y-56850D01*
X31102Y-56850D01*
X31062Y-56850D01*
X27629Y-56850D01*
X27629Y-55354D01*
X27617Y-55354D01*
X27617Y-55351D01*
X27555Y-55037D01*
X27451Y-54784D01*
X27451Y-49696D01*
X27451Y-48696D01*
X27433Y-48603D01*
X27397Y-48516D01*
X27344Y-48437D01*
X27278Y-48370D01*
X27199Y-48317D01*
X27112Y-48280D01*
X27019Y-48261D01*
X26925Y-48261D01*
X26832Y-48278D01*
X26744Y-48314D01*
X26665Y-48366D01*
X26597Y-48432D01*
X26544Y-48510D01*
X26506Y-48597D01*
X26487Y-48689D01*
X26485Y-48784D01*
X26502Y-48877D01*
X26537Y-48965D01*
X26589Y-49045D01*
X26654Y-49113D01*
X26732Y-49167D01*
X26819Y-49205D01*
X26911Y-49225D01*
X27006Y-49227D01*
X27099Y-49210D01*
X27187Y-49176D01*
X27267Y-49126D01*
X27336Y-49060D01*
X27390Y-48983D01*
X27429Y-48897D01*
X27449Y-48804D01*
X27451Y-48696D01*
X27451Y-49696D01*
X27433Y-49603D01*
X27397Y-49516D01*
X27344Y-49437D01*
X27278Y-49370D01*
X27199Y-49317D01*
X27112Y-49280D01*
X27019Y-49261D01*
X26925Y-49261D01*
X26832Y-49278D01*
X26744Y-49314D01*
X26665Y-49366D01*
X26597Y-49432D01*
X26544Y-49510D01*
X26506Y-49597D01*
X26487Y-49689D01*
X26485Y-49784D01*
X26502Y-49877D01*
X26537Y-49965D01*
X26589Y-50045D01*
X26654Y-50113D01*
X26732Y-50167D01*
X26819Y-50205D01*
X26911Y-50225D01*
X27006Y-50227D01*
X27099Y-50210D01*
X27187Y-50176D01*
X27267Y-50126D01*
X27336Y-50060D01*
X27390Y-49983D01*
X27429Y-49897D01*
X27449Y-49804D01*
X27451Y-49696D01*
X27451Y-54784D01*
X27433Y-54741D01*
X27256Y-54474D01*
X27030Y-54246D01*
X26764Y-54067D01*
X26469Y-53943D01*
X26155Y-53879D01*
X26141Y-53879D01*
X26141Y-53866D01*
X24645Y-53866D01*
X24645Y-46082D01*
X24645Y-46082D01*
X24645Y-40622D01*
X26141Y-40622D01*
X26141Y-40607D01*
X26425Y-40557D01*
X26724Y-40441D01*
X26994Y-40269D01*
X27226Y-40048D01*
X27411Y-39786D01*
X27541Y-39494D01*
X27612Y-39181D01*
X27613Y-39133D01*
X27629Y-39133D01*
X27629Y-37637D01*
X40874Y-37637D01*
X40874Y-39133D01*
X40887Y-39133D01*
X40941Y-39428D01*
X41059Y-39726D01*
X41233Y-39995D01*
X41455Y-40226D01*
X41719Y-40409D01*
X42012Y-40537D01*
X42325Y-40606D01*
X42362Y-40606D01*
X42362Y-40622D01*
X43858Y-40622D01*
X43858Y-46082D01*
X43858Y-46082D01*
X43858Y-53866D01*
X43858Y-53866D01*
G37*
G54D31*
X43858Y-53866D02*
X43014Y-53866D01*
X43014Y-47244D01*
X43014Y-44685D01*
X43011Y-44657D01*
X43009Y-44630D01*
X43008Y-44628D01*
X43008Y-44627D01*
X43000Y-44600D01*
X42993Y-44574D01*
X42992Y-44573D01*
X42992Y-44571D01*
X42979Y-44547D01*
X42966Y-44522D01*
X42965Y-44521D01*
X42964Y-44520D01*
X42947Y-44499D01*
X42930Y-44477D01*
X42928Y-44475D01*
X42928Y-44475D01*
X42928Y-44475D01*
X42927Y-44474D01*
X42443Y-43990D01*
X42443Y-42868D01*
X42447Y-42867D01*
X42476Y-42855D01*
X42501Y-42838D01*
X42523Y-42816D01*
X42541Y-42790D01*
X42552Y-42761D01*
X42558Y-42731D01*
X42558Y-42700D01*
X42558Y-42110D01*
X42552Y-42080D01*
X42541Y-42051D01*
X42523Y-42025D01*
X42501Y-42003D01*
X42476Y-41986D01*
X42447Y-41974D01*
X42443Y-41973D01*
X42443Y-41786D01*
X42447Y-41785D01*
X42476Y-41773D01*
X42501Y-41756D01*
X42523Y-41734D01*
X42541Y-41708D01*
X42552Y-41679D01*
X42558Y-41649D01*
X42558Y-41618D01*
X42558Y-41028D01*
X42552Y-40998D01*
X42541Y-40969D01*
X42523Y-40943D01*
X42501Y-40921D01*
X42476Y-40904D01*
X42447Y-40892D01*
X42417Y-40886D01*
X42385Y-40886D01*
X41874Y-40886D01*
X41844Y-40892D01*
X41815Y-40904D01*
X41790Y-40921D01*
X41768Y-40943D01*
X41750Y-40969D01*
X41739Y-40998D01*
X41733Y-41028D01*
X41733Y-41059D01*
X41733Y-41649D01*
X41739Y-41679D01*
X41750Y-41708D01*
X41768Y-41734D01*
X41790Y-41756D01*
X41815Y-41773D01*
X41844Y-41785D01*
X41848Y-41786D01*
X41848Y-41973D01*
X41844Y-41974D01*
X41815Y-41986D01*
X41790Y-42003D01*
X41768Y-42025D01*
X41750Y-42051D01*
X41739Y-42080D01*
X41733Y-42110D01*
X41733Y-42141D01*
X41733Y-42731D01*
X41739Y-42761D01*
X41750Y-42790D01*
X41768Y-42816D01*
X41790Y-42838D01*
X41815Y-42855D01*
X41844Y-42867D01*
X41848Y-42868D01*
X41848Y-44114D01*
X41851Y-44141D01*
X41853Y-44168D01*
X41854Y-44170D01*
X41854Y-44171D01*
X41862Y-44198D01*
X41869Y-44224D01*
X41870Y-44225D01*
X41870Y-44227D01*
X41883Y-44251D01*
X41896Y-44276D01*
X41897Y-44277D01*
X41898Y-44278D01*
X41915Y-44299D01*
X41932Y-44321D01*
X41934Y-44323D01*
X41934Y-44323D01*
X41934Y-44323D01*
X41935Y-44324D01*
X42419Y-44808D01*
X42419Y-46946D01*
X41972Y-46946D01*
X41995Y-46897D01*
X42015Y-46804D01*
X42017Y-46696D01*
X41999Y-46603D01*
X41963Y-46516D01*
X41910Y-46437D01*
X41844Y-46370D01*
X41765Y-46317D01*
X41678Y-46280D01*
X41585Y-46261D01*
X41491Y-46261D01*
X41398Y-46278D01*
X41310Y-46314D01*
X41231Y-46366D01*
X41163Y-46432D01*
X41110Y-46510D01*
X41072Y-46597D01*
X41053Y-46689D01*
X41051Y-46784D01*
X41068Y-46877D01*
X41103Y-46965D01*
X41155Y-47045D01*
X41220Y-47113D01*
X41237Y-47124D01*
X41237Y-47244D01*
X41237Y-47362D01*
X41231Y-47366D01*
X41163Y-47432D01*
X41110Y-47510D01*
X41072Y-47597D01*
X41053Y-47689D01*
X41051Y-47784D01*
X41068Y-47877D01*
X41103Y-47965D01*
X41155Y-48045D01*
X41220Y-48113D01*
X41298Y-48167D01*
X41385Y-48205D01*
X41477Y-48225D01*
X41572Y-48227D01*
X41665Y-48210D01*
X41753Y-48176D01*
X41833Y-48126D01*
X41902Y-48060D01*
X41956Y-47983D01*
X41995Y-47897D01*
X42015Y-47804D01*
X42017Y-47696D01*
X41999Y-47603D01*
X41973Y-47541D01*
X42717Y-47541D01*
X42744Y-47538D01*
X42772Y-47536D01*
X42773Y-47535D01*
X42774Y-47535D01*
X42801Y-47527D01*
X42828Y-47519D01*
X42829Y-47519D01*
X42830Y-47519D01*
X42855Y-47505D01*
X42879Y-47492D01*
X42880Y-47492D01*
X42881Y-47491D01*
X42903Y-47474D01*
X42925Y-47456D01*
X42925Y-47455D01*
X42926Y-47455D01*
X42944Y-47433D01*
X42962Y-47412D01*
X42962Y-47411D01*
X42963Y-47410D01*
X42976Y-47385D01*
X42990Y-47361D01*
X42990Y-47360D01*
X42991Y-47359D01*
X42999Y-47332D01*
X43007Y-47305D01*
X43008Y-47304D01*
X43008Y-47303D01*
X43011Y-47275D01*
X43014Y-47248D01*
X43014Y-47246D01*
X43014Y-47246D01*
X43014Y-47246D01*
X43014Y-47244D01*
X43014Y-53866D01*
X42362Y-53866D01*
X42362Y-53878D01*
X42056Y-53937D01*
X42017Y-53952D01*
X42017Y-49696D01*
X42017Y-48696D01*
X41999Y-48603D01*
X41963Y-48516D01*
X41910Y-48437D01*
X41844Y-48370D01*
X41765Y-48317D01*
X41678Y-48280D01*
X41585Y-48261D01*
X41491Y-48261D01*
X41398Y-48278D01*
X41310Y-48314D01*
X41231Y-48366D01*
X41163Y-48432D01*
X41110Y-48510D01*
X41072Y-48597D01*
X41053Y-48689D01*
X41051Y-48784D01*
X41068Y-48877D01*
X41103Y-48965D01*
X41155Y-49045D01*
X41220Y-49113D01*
X41298Y-49167D01*
X41385Y-49205D01*
X41477Y-49225D01*
X41572Y-49227D01*
X41665Y-49210D01*
X41753Y-49176D01*
X41833Y-49126D01*
X41902Y-49060D01*
X41956Y-48983D01*
X41995Y-48897D01*
X42015Y-48804D01*
X42017Y-48696D01*
X42017Y-49696D01*
X41999Y-49603D01*
X41963Y-49516D01*
X41910Y-49437D01*
X41844Y-49370D01*
X41765Y-49317D01*
X41678Y-49280D01*
X41585Y-49261D01*
X41491Y-49261D01*
X41398Y-49278D01*
X41310Y-49314D01*
X41231Y-49366D01*
X41163Y-49432D01*
X41110Y-49510D01*
X41072Y-49597D01*
X41053Y-49689D01*
X41051Y-49784D01*
X41068Y-49877D01*
X41103Y-49965D01*
X41155Y-50045D01*
X41220Y-50113D01*
X41298Y-50167D01*
X41385Y-50205D01*
X41477Y-50225D01*
X41572Y-50227D01*
X41665Y-50210D01*
X41753Y-50176D01*
X41833Y-50126D01*
X41902Y-50060D01*
X41956Y-49983D01*
X41995Y-49897D01*
X42015Y-49804D01*
X42017Y-49696D01*
X42017Y-53952D01*
X41759Y-54057D01*
X41491Y-54232D01*
X41262Y-54456D01*
X41081Y-54721D01*
X40955Y-55015D01*
X40888Y-55328D01*
X40888Y-55354D01*
X40874Y-55354D01*
X40874Y-56850D01*
X40551Y-56850D01*
X40551Y-55179D01*
X40551Y-52694D01*
X40543Y-52612D01*
X40518Y-52531D01*
X40478Y-52456D01*
X40424Y-52390D01*
X40358Y-52336D01*
X40283Y-52296D01*
X40202Y-52271D01*
X40120Y-52263D01*
X39273Y-52263D01*
X39273Y-48917D01*
X40120Y-48917D01*
X40202Y-48909D01*
X40283Y-48884D01*
X40358Y-48844D01*
X40424Y-48790D01*
X40478Y-48724D01*
X40518Y-48650D01*
X40543Y-48568D01*
X40551Y-48486D01*
X40551Y-46002D01*
X40543Y-45919D01*
X40518Y-45838D01*
X40478Y-45763D01*
X40424Y-45697D01*
X40358Y-45643D01*
X40283Y-45603D01*
X40202Y-45579D01*
X40120Y-45570D01*
X39273Y-45570D01*
X39273Y-42224D01*
X40120Y-42224D01*
X40202Y-42216D01*
X40283Y-42191D01*
X40358Y-42151D01*
X40424Y-42097D01*
X40478Y-42032D01*
X40518Y-41957D01*
X40543Y-41875D01*
X40551Y-41793D01*
X40551Y-39309D01*
X40543Y-39226D01*
X40518Y-39145D01*
X40478Y-39070D01*
X40424Y-39004D01*
X40358Y-38950D01*
X40283Y-38910D01*
X40202Y-38886D01*
X40120Y-38877D01*
X39255Y-38877D01*
X39252Y-38865D01*
X39251Y-38864D01*
X39251Y-38862D01*
X39238Y-38838D01*
X39225Y-38813D01*
X39224Y-38812D01*
X39223Y-38811D01*
X39206Y-38790D01*
X39189Y-38768D01*
X39187Y-38766D01*
X39187Y-38766D01*
X39187Y-38766D01*
X39186Y-38765D01*
X38989Y-38569D01*
X38968Y-38551D01*
X38947Y-38534D01*
X38946Y-38533D01*
X38945Y-38532D01*
X38920Y-38519D01*
X38896Y-38506D01*
X38895Y-38505D01*
X38893Y-38504D01*
X38867Y-38496D01*
X38841Y-38488D01*
X38839Y-38488D01*
X38838Y-38487D01*
X38810Y-38485D01*
X38783Y-38482D01*
X38780Y-38482D01*
X38780Y-38482D01*
X38780Y-38482D01*
X38779Y-38482D01*
X29763Y-38482D01*
X29736Y-38484D01*
X29709Y-38487D01*
X29707Y-38487D01*
X29705Y-38487D01*
X29679Y-38495D01*
X29653Y-38503D01*
X29651Y-38504D01*
X29650Y-38504D01*
X29626Y-38517D01*
X29601Y-38530D01*
X29600Y-38531D01*
X29599Y-38531D01*
X29577Y-38549D01*
X29556Y-38566D01*
X29554Y-38568D01*
X29554Y-38568D01*
X29554Y-38568D01*
X29553Y-38569D01*
X29317Y-38804D01*
X29300Y-38826D01*
X29282Y-38847D01*
X29281Y-38848D01*
X29280Y-38849D01*
X29267Y-38874D01*
X29265Y-38877D01*
X28383Y-38877D01*
X28301Y-38886D01*
X28220Y-38910D01*
X28145Y-38950D01*
X28079Y-39004D01*
X28025Y-39070D01*
X27985Y-39145D01*
X27960Y-39226D01*
X27952Y-39309D01*
X27952Y-41793D01*
X27960Y-41875D01*
X27985Y-41957D01*
X28025Y-42032D01*
X28079Y-42097D01*
X28145Y-42151D01*
X28220Y-42191D01*
X28301Y-42216D01*
X28383Y-42224D01*
X29230Y-42224D01*
X29230Y-42827D01*
X28566Y-42827D01*
X28536Y-42833D01*
X28507Y-42845D01*
X28482Y-42862D01*
X28460Y-42884D01*
X28442Y-42910D01*
X28431Y-42938D01*
X28425Y-42969D01*
X28425Y-43000D01*
X28425Y-43600D01*
X25907Y-43600D01*
X25907Y-42868D01*
X25911Y-42867D01*
X25940Y-42855D01*
X25965Y-42838D01*
X25987Y-42816D01*
X26005Y-42790D01*
X26016Y-42761D01*
X26022Y-42731D01*
X26022Y-42700D01*
X26022Y-42110D01*
X26016Y-42080D01*
X26005Y-42051D01*
X25987Y-42025D01*
X25965Y-42003D01*
X25940Y-41986D01*
X25911Y-41974D01*
X25907Y-41973D01*
X25907Y-41786D01*
X25911Y-41785D01*
X25940Y-41773D01*
X25965Y-41756D01*
X25987Y-41734D01*
X26005Y-41708D01*
X26016Y-41679D01*
X26022Y-41649D01*
X26022Y-41618D01*
X26022Y-41028D01*
X26016Y-40998D01*
X26005Y-40969D01*
X25987Y-40943D01*
X25965Y-40921D01*
X25940Y-40904D01*
X25911Y-40892D01*
X25881Y-40886D01*
X25849Y-40886D01*
X25338Y-40886D01*
X25308Y-40892D01*
X25279Y-40904D01*
X25254Y-40921D01*
X25232Y-40943D01*
X25214Y-40969D01*
X25203Y-40998D01*
X25197Y-41028D01*
X25197Y-41059D01*
X25197Y-41649D01*
X25203Y-41679D01*
X25214Y-41708D01*
X25232Y-41734D01*
X25254Y-41756D01*
X25279Y-41773D01*
X25308Y-41785D01*
X25312Y-41786D01*
X25312Y-41973D01*
X25308Y-41974D01*
X25279Y-41986D01*
X25254Y-42003D01*
X25232Y-42025D01*
X25214Y-42051D01*
X25203Y-42080D01*
X25197Y-42110D01*
X25197Y-42141D01*
X25197Y-42731D01*
X25203Y-42761D01*
X25214Y-42790D01*
X25232Y-42816D01*
X25254Y-42838D01*
X25279Y-42855D01*
X25308Y-42867D01*
X25312Y-42868D01*
X25312Y-43897D01*
X25312Y-47244D01*
X25315Y-47271D01*
X25317Y-47299D01*
X25318Y-47300D01*
X25318Y-47301D01*
X25326Y-47328D01*
X25334Y-47355D01*
X25334Y-47356D01*
X25334Y-47357D01*
X25348Y-47382D01*
X25361Y-47406D01*
X25361Y-47407D01*
X25362Y-47408D01*
X25379Y-47430D01*
X25397Y-47452D01*
X25398Y-47452D01*
X25398Y-47453D01*
X25420Y-47471D01*
X25441Y-47489D01*
X25442Y-47489D01*
X25443Y-47490D01*
X25468Y-47503D01*
X25492Y-47517D01*
X25493Y-47517D01*
X25494Y-47518D01*
X25521Y-47526D01*
X25548Y-47534D01*
X25549Y-47535D01*
X25550Y-47535D01*
X25578Y-47538D01*
X25605Y-47541D01*
X25607Y-47541D01*
X25607Y-47541D01*
X25607Y-47541D01*
X25610Y-47541D01*
X26530Y-47541D01*
X26506Y-47597D01*
X26487Y-47689D01*
X26485Y-47784D01*
X26502Y-47877D01*
X26537Y-47965D01*
X26589Y-48045D01*
X26654Y-48113D01*
X26732Y-48167D01*
X26819Y-48205D01*
X26911Y-48225D01*
X27006Y-48227D01*
X27099Y-48210D01*
X27187Y-48176D01*
X27267Y-48126D01*
X27336Y-48060D01*
X27390Y-47983D01*
X27429Y-47897D01*
X27449Y-47804D01*
X27451Y-47696D01*
X27433Y-47603D01*
X27397Y-47516D01*
X27344Y-47437D01*
X27278Y-47370D01*
X27266Y-47362D01*
X27266Y-47244D01*
X27266Y-47126D01*
X27267Y-47126D01*
X27336Y-47060D01*
X27390Y-46983D01*
X27429Y-46897D01*
X27449Y-46804D01*
X27451Y-46696D01*
X27433Y-46603D01*
X27397Y-46516D01*
X27344Y-46437D01*
X27278Y-46370D01*
X27199Y-46317D01*
X27112Y-46280D01*
X27019Y-46261D01*
X26925Y-46261D01*
X26832Y-46278D01*
X26744Y-46314D01*
X26665Y-46366D01*
X26597Y-46432D01*
X26544Y-46510D01*
X26506Y-46597D01*
X26487Y-46689D01*
X26485Y-46784D01*
X26502Y-46877D01*
X26530Y-46946D01*
X25907Y-46946D01*
X25907Y-44195D01*
X28425Y-44195D01*
X28425Y-44747D01*
X28431Y-44777D01*
X28442Y-44806D01*
X28460Y-44832D01*
X28482Y-44854D01*
X28507Y-44871D01*
X28536Y-44883D01*
X28566Y-44889D01*
X28598Y-44889D01*
X29307Y-44889D01*
X29337Y-44883D01*
X29366Y-44871D01*
X29391Y-44854D01*
X29413Y-44832D01*
X29431Y-44806D01*
X29442Y-44777D01*
X29448Y-44747D01*
X29448Y-44716D01*
X29448Y-44714D01*
X29527Y-44714D01*
X29606Y-44714D01*
X29606Y-44747D01*
X29612Y-44777D01*
X29624Y-44806D01*
X29641Y-44832D01*
X29663Y-44854D01*
X29689Y-44871D01*
X29717Y-44883D01*
X29748Y-44889D01*
X29779Y-44889D01*
X30488Y-44889D01*
X30518Y-44883D01*
X30547Y-44871D01*
X30572Y-44854D01*
X30594Y-44832D01*
X30612Y-44806D01*
X30624Y-44777D01*
X30630Y-44747D01*
X30630Y-44716D01*
X30630Y-44712D01*
X30657Y-44709D01*
X30658Y-44709D01*
X30660Y-44709D01*
X30686Y-44701D01*
X30712Y-44693D01*
X30714Y-44692D01*
X30715Y-44692D01*
X30740Y-44679D01*
X30764Y-44666D01*
X30765Y-44665D01*
X30767Y-44665D01*
X30788Y-44647D01*
X30809Y-44630D01*
X30811Y-44628D01*
X30812Y-44628D01*
X30812Y-44628D01*
X30812Y-44627D01*
X31102Y-44338D01*
X31953Y-43486D01*
X32106Y-43486D01*
X32106Y-43558D01*
X32112Y-43589D01*
X32124Y-43617D01*
X32141Y-43643D01*
X32163Y-43665D01*
X32189Y-43682D01*
X32217Y-43694D01*
X32248Y-43700D01*
X32279Y-43700D01*
X32987Y-43700D01*
X33018Y-43694D01*
X33047Y-43682D01*
X33072Y-43665D01*
X33094Y-43643D01*
X33111Y-43617D01*
X33123Y-43589D01*
X33129Y-43558D01*
X33129Y-43527D01*
X33129Y-43486D01*
X33366Y-43486D01*
X33371Y-43510D01*
X33383Y-43539D01*
X33400Y-43565D01*
X33422Y-43586D01*
X33448Y-43604D01*
X33477Y-43616D01*
X33507Y-43622D01*
X33538Y-43622D01*
X33814Y-43622D01*
X33844Y-43616D01*
X33873Y-43604D01*
X33899Y-43586D01*
X33921Y-43565D01*
X33938Y-43539D01*
X33950Y-43510D01*
X33956Y-43480D01*
X33956Y-43449D01*
X33956Y-43171D01*
X33958Y-43153D01*
X33958Y-43150D01*
X33958Y-43150D01*
X33958Y-43150D01*
X33958Y-43149D01*
X33958Y-42761D01*
X34088Y-42631D01*
X34105Y-42610D01*
X34123Y-42589D01*
X34124Y-42587D01*
X34125Y-42586D01*
X34138Y-42562D01*
X34151Y-42538D01*
X34151Y-42536D01*
X34152Y-42535D01*
X34160Y-42509D01*
X34168Y-42483D01*
X34169Y-42481D01*
X34169Y-42480D01*
X34172Y-42452D01*
X34175Y-42425D01*
X34175Y-42422D01*
X34175Y-42422D01*
X34175Y-42422D01*
X34175Y-42421D01*
X34175Y-42376D01*
X34179Y-42375D01*
X34208Y-42363D01*
X34233Y-42346D01*
X34255Y-42324D01*
X34273Y-42298D01*
X34284Y-42270D01*
X34290Y-42239D01*
X34290Y-42208D01*
X34290Y-41618D01*
X34286Y-41596D01*
X34899Y-41596D01*
X34899Y-42677D01*
X34689Y-42677D01*
X34659Y-42683D01*
X34630Y-42695D01*
X34604Y-42712D01*
X34582Y-42734D01*
X34565Y-42760D01*
X34553Y-42788D01*
X34547Y-42819D01*
X34547Y-42850D01*
X34547Y-43128D01*
X34545Y-43147D01*
X34547Y-43169D01*
X34547Y-43480D01*
X34553Y-43510D01*
X34565Y-43539D01*
X34582Y-43565D01*
X34604Y-43586D01*
X34630Y-43604D01*
X34659Y-43616D01*
X34689Y-43622D01*
X34720Y-43622D01*
X34996Y-43622D01*
X35026Y-43616D01*
X35055Y-43604D01*
X35081Y-43586D01*
X35103Y-43565D01*
X35120Y-43539D01*
X35132Y-43510D01*
X35138Y-43480D01*
X35138Y-43449D01*
X35138Y-43440D01*
X35162Y-43433D01*
X35189Y-43425D01*
X35190Y-43425D01*
X35192Y-43424D01*
X35216Y-43411D01*
X35240Y-43399D01*
X35241Y-43398D01*
X35243Y-43397D01*
X35264Y-43380D01*
X35286Y-43362D01*
X35288Y-43360D01*
X35288Y-43360D01*
X35288Y-43360D01*
X35289Y-43359D01*
X35407Y-43241D01*
X35424Y-43220D01*
X35442Y-43199D01*
X35443Y-43198D01*
X35444Y-43196D01*
X35457Y-43172D01*
X35470Y-43148D01*
X35470Y-43147D01*
X35471Y-43145D01*
X35479Y-43119D01*
X35487Y-43093D01*
X35488Y-43091D01*
X35488Y-43090D01*
X35491Y-43062D01*
X35494Y-43035D01*
X35494Y-43032D01*
X35494Y-43032D01*
X35494Y-43032D01*
X35494Y-43031D01*
X35494Y-41456D01*
X35491Y-41429D01*
X35489Y-41401D01*
X35488Y-41400D01*
X35488Y-41398D01*
X35480Y-41372D01*
X35473Y-41346D01*
X35472Y-41344D01*
X35471Y-41343D01*
X35458Y-41319D01*
X35446Y-41294D01*
X35445Y-41293D01*
X35444Y-41292D01*
X35427Y-41270D01*
X35410Y-41249D01*
X35407Y-41247D01*
X35407Y-41247D01*
X35407Y-41247D01*
X35407Y-41246D01*
X35249Y-41088D01*
X35228Y-41071D01*
X35207Y-41053D01*
X35206Y-41053D01*
X35204Y-41052D01*
X35180Y-41039D01*
X35156Y-41025D01*
X35155Y-41025D01*
X35153Y-41024D01*
X35127Y-41016D01*
X35101Y-41008D01*
X35099Y-41008D01*
X35098Y-41007D01*
X35070Y-41004D01*
X35043Y-41001D01*
X35040Y-41001D01*
X35040Y-41001D01*
X35040Y-41001D01*
X35039Y-41001D01*
X33503Y-41001D01*
X33476Y-41004D01*
X33449Y-41006D01*
X33447Y-41007D01*
X33446Y-41007D01*
X33419Y-41015D01*
X33393Y-41023D01*
X33392Y-41023D01*
X33390Y-41024D01*
X33366Y-41037D01*
X33341Y-41049D01*
X33340Y-41050D01*
X33339Y-41051D01*
X33317Y-41068D01*
X33296Y-41085D01*
X33294Y-41088D01*
X33294Y-41088D01*
X33294Y-41088D01*
X33293Y-41088D01*
X33077Y-41305D01*
X33059Y-41326D01*
X33041Y-41347D01*
X33041Y-41349D01*
X33040Y-41350D01*
X33027Y-41374D01*
X33013Y-41398D01*
X33013Y-41400D01*
X33012Y-41401D01*
X33004Y-41427D01*
X32996Y-41453D01*
X32996Y-41455D01*
X32995Y-41456D01*
X32993Y-41484D01*
X32989Y-41511D01*
X32989Y-41514D01*
X32989Y-41514D01*
X32989Y-41514D01*
X32989Y-41515D01*
X32989Y-41727D01*
X32711Y-42005D01*
X32125Y-42005D01*
X32098Y-42008D01*
X32071Y-42010D01*
X32069Y-42011D01*
X32068Y-42011D01*
X32041Y-42019D01*
X32015Y-42026D01*
X32014Y-42027D01*
X32012Y-42028D01*
X31988Y-42041D01*
X31963Y-42053D01*
X31962Y-42054D01*
X31961Y-42055D01*
X31940Y-42072D01*
X31918Y-42089D01*
X31916Y-42092D01*
X31916Y-42092D01*
X31916Y-42092D01*
X31915Y-42092D01*
X31102Y-42906D01*
X31006Y-43001D01*
X30630Y-43001D01*
X30630Y-42969D01*
X30624Y-42938D01*
X30612Y-42910D01*
X30594Y-42884D01*
X30572Y-42862D01*
X30547Y-42845D01*
X30518Y-42833D01*
X30488Y-42827D01*
X30457Y-42827D01*
X29825Y-42827D01*
X29825Y-42224D01*
X30671Y-42224D01*
X30753Y-42216D01*
X30835Y-42191D01*
X30909Y-42151D01*
X30975Y-42097D01*
X31029Y-42032D01*
X31069Y-41957D01*
X31094Y-41875D01*
X31102Y-41793D01*
X31102Y-39309D01*
X31094Y-39226D01*
X31069Y-39145D01*
X31033Y-39077D01*
X37470Y-39077D01*
X37434Y-39145D01*
X37409Y-39226D01*
X37401Y-39309D01*
X37401Y-41793D01*
X37409Y-41875D01*
X37434Y-41957D01*
X37474Y-42032D01*
X37528Y-42097D01*
X37593Y-42151D01*
X37668Y-42191D01*
X37750Y-42216D01*
X37832Y-42224D01*
X38678Y-42224D01*
X38678Y-45570D01*
X38257Y-45570D01*
X38272Y-45556D01*
X38287Y-45537D01*
X38303Y-45519D01*
X38303Y-45518D01*
X38304Y-45517D01*
X38315Y-45496D01*
X38327Y-45475D01*
X38327Y-45474D01*
X38328Y-45472D01*
X38335Y-45450D01*
X38342Y-45427D01*
X38342Y-45426D01*
X38342Y-45424D01*
X38345Y-45401D01*
X38348Y-45377D01*
X38348Y-45374D01*
X38348Y-45374D01*
X38348Y-45374D01*
X38348Y-45374D01*
X38348Y-45078D01*
X38401Y-45078D01*
X38431Y-45072D01*
X38460Y-45060D01*
X38485Y-45043D01*
X38507Y-45021D01*
X38525Y-44995D01*
X38536Y-44966D01*
X38543Y-44936D01*
X38543Y-44905D01*
X38543Y-44394D01*
X38536Y-44363D01*
X38525Y-44335D01*
X38507Y-44309D01*
X38489Y-44291D01*
X38507Y-44273D01*
X38525Y-44247D01*
X38536Y-44218D01*
X38543Y-44188D01*
X38543Y-44157D01*
X38543Y-43646D01*
X38536Y-43615D01*
X38525Y-43587D01*
X38507Y-43561D01*
X38485Y-43539D01*
X38460Y-43522D01*
X38431Y-43510D01*
X38401Y-43504D01*
X38370Y-43504D01*
X38328Y-43504D01*
X38328Y-43248D01*
X38326Y-43224D01*
X38323Y-43200D01*
X38323Y-43199D01*
X38323Y-43198D01*
X38316Y-43175D01*
X38309Y-43152D01*
X38309Y-43151D01*
X38308Y-43149D01*
X38297Y-43128D01*
X38286Y-43107D01*
X38285Y-43106D01*
X38285Y-43105D01*
X38270Y-43087D01*
X38255Y-43068D01*
X38253Y-43066D01*
X38253Y-43066D01*
X38253Y-43066D01*
X38252Y-43065D01*
X37121Y-41934D01*
X37103Y-41919D01*
X37085Y-41904D01*
X37084Y-41903D01*
X37082Y-41902D01*
X37062Y-41891D01*
X37041Y-41880D01*
X37039Y-41879D01*
X37038Y-41879D01*
X37015Y-41872D01*
X36993Y-41865D01*
X36991Y-41864D01*
X36990Y-41864D01*
X36967Y-41862D01*
X36943Y-41859D01*
X36940Y-41859D01*
X36940Y-41859D01*
X36940Y-41859D01*
X36939Y-41859D01*
X36804Y-41859D01*
X36804Y-41825D01*
X36798Y-41795D01*
X36786Y-41766D01*
X36769Y-41740D01*
X36747Y-41719D01*
X36721Y-41701D01*
X36692Y-41689D01*
X36662Y-41683D01*
X36631Y-41683D01*
X36237Y-41683D01*
X36207Y-41689D01*
X36178Y-41701D01*
X36152Y-41719D01*
X36130Y-41740D01*
X36113Y-41766D01*
X36101Y-41795D01*
X36095Y-41825D01*
X36095Y-41856D01*
X36095Y-42408D01*
X36101Y-42438D01*
X36113Y-42467D01*
X36130Y-42492D01*
X36152Y-42514D01*
X36178Y-42532D01*
X36207Y-42543D01*
X36237Y-42550D01*
X36268Y-42550D01*
X36662Y-42550D01*
X36692Y-42543D01*
X36721Y-42532D01*
X36747Y-42514D01*
X36769Y-42492D01*
X36786Y-42467D01*
X36798Y-42438D01*
X36804Y-42408D01*
X36804Y-42377D01*
X36804Y-42374D01*
X36833Y-42374D01*
X37813Y-43354D01*
X37813Y-43504D01*
X37780Y-43504D01*
X37749Y-43510D01*
X37720Y-43522D01*
X37695Y-43539D01*
X37673Y-43561D01*
X37655Y-43587D01*
X37644Y-43615D01*
X37638Y-43646D01*
X37638Y-43659D01*
X37618Y-43659D01*
X37594Y-43662D01*
X37570Y-43664D01*
X37569Y-43664D01*
X37568Y-43664D01*
X37545Y-43671D01*
X37522Y-43678D01*
X37521Y-43678D01*
X37519Y-43679D01*
X37499Y-43690D01*
X37477Y-43701D01*
X37476Y-43702D01*
X37475Y-43702D01*
X37457Y-43717D01*
X37438Y-43732D01*
X37436Y-43734D01*
X37436Y-43734D01*
X37436Y-43734D01*
X37436Y-43735D01*
X37357Y-43813D01*
X37342Y-43832D01*
X37326Y-43850D01*
X37326Y-43851D01*
X37325Y-43852D01*
X37314Y-43873D01*
X37302Y-43894D01*
X37302Y-43895D01*
X37301Y-43897D01*
X37294Y-43919D01*
X37287Y-43942D01*
X37287Y-43943D01*
X37286Y-43945D01*
X37284Y-43968D01*
X37281Y-43992D01*
X37281Y-43995D01*
X37281Y-43995D01*
X37281Y-43995D01*
X37281Y-43996D01*
X37281Y-44265D01*
X37260Y-44261D01*
X37229Y-44261D01*
X37138Y-44261D01*
X37138Y-43195D01*
X37138Y-43164D01*
X37138Y-42770D01*
X37132Y-42740D01*
X37121Y-42711D01*
X37103Y-42685D01*
X37081Y-42663D01*
X37056Y-42646D01*
X37027Y-42634D01*
X36997Y-42628D01*
X36965Y-42628D01*
X36651Y-42628D01*
X36620Y-42634D01*
X36591Y-42646D01*
X36566Y-42663D01*
X36544Y-42685D01*
X36526Y-42711D01*
X36515Y-42740D01*
X36509Y-42770D01*
X36509Y-42801D01*
X36509Y-43195D01*
X36515Y-43225D01*
X36526Y-43254D01*
X36544Y-43280D01*
X36566Y-43302D01*
X36591Y-43319D01*
X36620Y-43331D01*
X36651Y-43337D01*
X36682Y-43337D01*
X36997Y-43337D01*
X37027Y-43331D01*
X37056Y-43319D01*
X37081Y-43302D01*
X37103Y-43280D01*
X37121Y-43254D01*
X37132Y-43225D01*
X37138Y-43195D01*
X37138Y-44261D01*
X36639Y-44261D01*
X36609Y-44267D01*
X36580Y-44278D01*
X36554Y-44296D01*
X36532Y-44318D01*
X36515Y-44343D01*
X36503Y-44372D01*
X36502Y-44376D01*
X36397Y-44376D01*
X36396Y-44372D01*
X36384Y-44343D01*
X36367Y-44318D01*
X36345Y-44296D01*
X36319Y-44278D01*
X36290Y-44267D01*
X36260Y-44261D01*
X36229Y-44261D01*
X35639Y-44261D01*
X35609Y-44267D01*
X35580Y-44278D01*
X35554Y-44296D01*
X35532Y-44318D01*
X35515Y-44343D01*
X35513Y-44348D01*
X35177Y-44348D01*
X35177Y-44311D01*
X35169Y-44273D01*
X35154Y-44237D01*
X35133Y-44205D01*
X35106Y-44178D01*
X35073Y-44156D01*
X35038Y-44141D01*
X35000Y-44134D01*
X34961Y-44134D01*
X34685Y-44134D01*
X34647Y-44141D01*
X34611Y-44156D01*
X34579Y-44178D01*
X34552Y-44205D01*
X34530Y-44237D01*
X34516Y-44273D01*
X34508Y-44311D01*
X34508Y-44349D01*
X34508Y-44979D01*
X34516Y-45017D01*
X34530Y-45053D01*
X34552Y-45085D01*
X34579Y-45113D01*
X34611Y-45134D01*
X34647Y-45149D01*
X34685Y-45157D01*
X34724Y-45157D01*
X35000Y-45157D01*
X35038Y-45149D01*
X35073Y-45134D01*
X35106Y-45113D01*
X35133Y-45085D01*
X35154Y-45053D01*
X35169Y-45017D01*
X35177Y-44979D01*
X35177Y-44943D01*
X35497Y-44943D01*
X35497Y-44945D01*
X35503Y-44975D01*
X35515Y-45004D01*
X35532Y-45029D01*
X35554Y-45051D01*
X35580Y-45069D01*
X35609Y-45080D01*
X35639Y-45086D01*
X35670Y-45086D01*
X36260Y-45086D01*
X36290Y-45080D01*
X36319Y-45069D01*
X36345Y-45051D01*
X36367Y-45029D01*
X36384Y-45004D01*
X36396Y-44975D01*
X36397Y-44971D01*
X36502Y-44971D01*
X36503Y-44975D01*
X36515Y-45004D01*
X36532Y-45029D01*
X36554Y-45051D01*
X36580Y-45069D01*
X36609Y-45080D01*
X36639Y-45086D01*
X36670Y-45086D01*
X37260Y-45086D01*
X37290Y-45080D01*
X37319Y-45069D01*
X37345Y-45051D01*
X37367Y-45029D01*
X37384Y-45004D01*
X37396Y-44975D01*
X37402Y-44945D01*
X37402Y-44931D01*
X37432Y-44931D01*
X37455Y-44929D01*
X37479Y-44927D01*
X37480Y-44926D01*
X37482Y-44926D01*
X37505Y-44919D01*
X37527Y-44913D01*
X37529Y-44912D01*
X37530Y-44912D01*
X37551Y-44900D01*
X37572Y-44889D01*
X37573Y-44889D01*
X37574Y-44888D01*
X37593Y-44873D01*
X37611Y-44858D01*
X37613Y-44856D01*
X37613Y-44856D01*
X37613Y-44856D01*
X37614Y-44856D01*
X37638Y-44832D01*
X37638Y-44936D01*
X37644Y-44966D01*
X37655Y-44995D01*
X37673Y-45021D01*
X37695Y-45043D01*
X37720Y-45060D01*
X37749Y-45072D01*
X37780Y-45078D01*
X37811Y-45078D01*
X37833Y-45078D01*
X37833Y-45267D01*
X37787Y-45313D01*
X37460Y-45313D01*
X37436Y-45315D01*
X37413Y-45317D01*
X37411Y-45318D01*
X37410Y-45318D01*
X37387Y-45325D01*
X37365Y-45331D01*
X37363Y-45332D01*
X37362Y-45332D01*
X37341Y-45343D01*
X37320Y-45354D01*
X37319Y-45355D01*
X37318Y-45356D01*
X37299Y-45371D01*
X37281Y-45386D01*
X37279Y-45388D01*
X37279Y-45388D01*
X37279Y-45388D01*
X37278Y-45388D01*
X37219Y-45447D01*
X37204Y-45466D01*
X37189Y-45484D01*
X37188Y-45485D01*
X37187Y-45486D01*
X37176Y-45507D01*
X37164Y-45528D01*
X37164Y-45529D01*
X37163Y-45530D01*
X37156Y-45553D01*
X37149Y-45576D01*
X37149Y-45577D01*
X37149Y-45579D01*
X37146Y-45602D01*
X37144Y-45626D01*
X37144Y-45628D01*
X37144Y-45629D01*
X37144Y-45629D01*
X37144Y-45629D01*
X37144Y-48564D01*
X37131Y-48595D01*
X37119Y-48649D01*
X37118Y-48704D01*
X37128Y-48759D01*
X37149Y-48810D01*
X37179Y-48857D01*
X37217Y-48897D01*
X37263Y-48928D01*
X37313Y-48951D01*
X37367Y-48962D01*
X37423Y-48964D01*
X37477Y-48954D01*
X37529Y-48934D01*
X37576Y-48904D01*
X37616Y-48866D01*
X37621Y-48859D01*
X37668Y-48884D01*
X37750Y-48909D01*
X37832Y-48917D01*
X38678Y-48917D01*
X38678Y-52263D01*
X37832Y-52263D01*
X37750Y-52271D01*
X37668Y-52296D01*
X37593Y-52336D01*
X37528Y-52390D01*
X37474Y-52456D01*
X37434Y-52531D01*
X37409Y-52612D01*
X37401Y-52694D01*
X37401Y-55179D01*
X37409Y-55261D01*
X37434Y-55342D01*
X37470Y-55411D01*
X31102Y-55411D01*
X31033Y-55411D01*
X31069Y-55342D01*
X31094Y-55261D01*
X31102Y-55179D01*
X31102Y-52694D01*
X31094Y-52612D01*
X31069Y-52531D01*
X31029Y-52456D01*
X30975Y-52390D01*
X30909Y-52336D01*
X30835Y-52296D01*
X30753Y-52271D01*
X30671Y-52263D01*
X29825Y-52263D01*
X29825Y-48917D01*
X30671Y-48917D01*
X30753Y-48909D01*
X30835Y-48884D01*
X30909Y-48844D01*
X30975Y-48790D01*
X31029Y-48724D01*
X31069Y-48650D01*
X31094Y-48568D01*
X31102Y-48486D01*
X31102Y-47293D01*
X32697Y-47293D01*
X32697Y-48159D01*
X32708Y-48216D01*
X32731Y-48269D01*
X32763Y-48318D01*
X32804Y-48359D01*
X32853Y-48391D01*
X32906Y-48414D01*
X32963Y-48425D01*
X33022Y-48425D01*
X34006Y-48425D01*
X34063Y-48414D01*
X34116Y-48391D01*
X34165Y-48359D01*
X34206Y-48318D01*
X34238Y-48269D01*
X34252Y-48237D01*
X34265Y-48269D01*
X34297Y-48318D01*
X34338Y-48359D01*
X34387Y-48391D01*
X34440Y-48414D01*
X34497Y-48425D01*
X34556Y-48425D01*
X35540Y-48425D01*
X35597Y-48414D01*
X35650Y-48391D01*
X35699Y-48359D01*
X35740Y-48318D01*
X35772Y-48269D01*
X35795Y-48216D01*
X35806Y-48159D01*
X35806Y-48100D01*
X35806Y-46328D01*
X35795Y-46271D01*
X35772Y-46218D01*
X35740Y-46169D01*
X35699Y-46128D01*
X35650Y-46096D01*
X35597Y-46073D01*
X35540Y-46062D01*
X35481Y-46062D01*
X35316Y-46062D01*
X35316Y-46042D01*
X35313Y-46015D01*
X35311Y-45987D01*
X35310Y-45986D01*
X35310Y-45984D01*
X35302Y-45958D01*
X35295Y-45932D01*
X35294Y-45930D01*
X35294Y-45929D01*
X35281Y-45905D01*
X35268Y-45880D01*
X35267Y-45879D01*
X35266Y-45877D01*
X35249Y-45856D01*
X35232Y-45835D01*
X35230Y-45833D01*
X35230Y-45833D01*
X35230Y-45832D01*
X35229Y-45832D01*
X34639Y-45242D01*
X34618Y-45224D01*
X34597Y-45207D01*
X34595Y-45206D01*
X34594Y-45205D01*
X34570Y-45192D01*
X34546Y-45179D01*
X34544Y-45178D01*
X34543Y-45178D01*
X34517Y-45170D01*
X34490Y-45161D01*
X34489Y-45161D01*
X34487Y-45161D01*
X34460Y-45158D01*
X34433Y-45155D01*
X34430Y-45155D01*
X34430Y-45155D01*
X34430Y-45155D01*
X34429Y-45155D01*
X33827Y-45155D01*
X33856Y-45149D01*
X33891Y-45134D01*
X33924Y-45113D01*
X33951Y-45085D01*
X33972Y-45053D01*
X33987Y-45017D01*
X33995Y-44979D01*
X33995Y-44941D01*
X33995Y-44311D01*
X33987Y-44273D01*
X33972Y-44237D01*
X33951Y-44205D01*
X33924Y-44178D01*
X33891Y-44156D01*
X33856Y-44141D01*
X33818Y-44134D01*
X33779Y-44134D01*
X33503Y-44134D01*
X33465Y-44141D01*
X33429Y-44156D01*
X33397Y-44178D01*
X33370Y-44205D01*
X33353Y-44230D01*
X33129Y-44230D01*
X33129Y-44157D01*
X33123Y-44127D01*
X33111Y-44098D01*
X33094Y-44072D01*
X33072Y-44050D01*
X33047Y-44033D01*
X33018Y-44021D01*
X32987Y-44015D01*
X32956Y-44015D01*
X32248Y-44015D01*
X32217Y-44021D01*
X32189Y-44033D01*
X32163Y-44050D01*
X32141Y-44072D01*
X32124Y-44098D01*
X32112Y-44127D01*
X32106Y-44157D01*
X32106Y-44188D01*
X32106Y-44897D01*
X32112Y-44927D01*
X32124Y-44956D01*
X32141Y-44982D01*
X32163Y-45004D01*
X32189Y-45021D01*
X32217Y-45033D01*
X32248Y-45039D01*
X32279Y-45039D01*
X32320Y-45039D01*
X32320Y-45413D01*
X32323Y-45440D01*
X32325Y-45468D01*
X32326Y-45469D01*
X32326Y-45471D01*
X32334Y-45497D01*
X32341Y-45523D01*
X32342Y-45525D01*
X32343Y-45526D01*
X32355Y-45551D01*
X32368Y-45575D01*
X32369Y-45576D01*
X32370Y-45578D01*
X32387Y-45599D01*
X32404Y-45620D01*
X32406Y-45622D01*
X32407Y-45623D01*
X32407Y-45623D01*
X32407Y-45623D01*
X32447Y-45663D01*
X32468Y-45680D01*
X32489Y-45698D01*
X32490Y-45698D01*
X32491Y-45699D01*
X32516Y-45712D01*
X32540Y-45726D01*
X32541Y-45726D01*
X32543Y-45727D01*
X32569Y-45735D01*
X32595Y-45743D01*
X32597Y-45743D01*
X32598Y-45744D01*
X32626Y-45747D01*
X32653Y-45750D01*
X32656Y-45750D01*
X32656Y-45750D01*
X32656Y-45750D01*
X32657Y-45750D01*
X34305Y-45750D01*
X34618Y-46062D01*
X34497Y-46062D01*
X34440Y-46073D01*
X34387Y-46096D01*
X34338Y-46128D01*
X34297Y-46169D01*
X34265Y-46218D01*
X34252Y-46250D01*
X34238Y-46218D01*
X34206Y-46169D01*
X34165Y-46128D01*
X34116Y-46096D01*
X34063Y-46073D01*
X34006Y-46062D01*
X33947Y-46062D01*
X32963Y-46062D01*
X32906Y-46073D01*
X32853Y-46096D01*
X32804Y-46128D01*
X32763Y-46169D01*
X32731Y-46218D01*
X32708Y-46271D01*
X32697Y-46328D01*
X32697Y-46387D01*
X32697Y-46698D01*
X31102Y-46698D01*
X31102Y-46002D01*
X31094Y-45919D01*
X31069Y-45838D01*
X31029Y-45763D01*
X30975Y-45697D01*
X30909Y-45643D01*
X30835Y-45603D01*
X30753Y-45579D01*
X30671Y-45570D01*
X28383Y-45570D01*
X28301Y-45579D01*
X28220Y-45603D01*
X28145Y-45643D01*
X28079Y-45697D01*
X28025Y-45763D01*
X27985Y-45838D01*
X27960Y-45919D01*
X27952Y-46002D01*
X27952Y-48486D01*
X27960Y-48568D01*
X27985Y-48650D01*
X28025Y-48724D01*
X28079Y-48790D01*
X28145Y-48844D01*
X28220Y-48884D01*
X28301Y-48909D01*
X28383Y-48917D01*
X29230Y-48917D01*
X29230Y-52263D01*
X28383Y-52263D01*
X28301Y-52271D01*
X28220Y-52296D01*
X28145Y-52336D01*
X28079Y-52390D01*
X28025Y-52456D01*
X27985Y-52531D01*
X27960Y-52612D01*
X27952Y-52694D01*
X27952Y-55179D01*
X27960Y-55261D01*
X27985Y-55342D01*
X28025Y-55417D01*
X28079Y-55483D01*
X28145Y-55537D01*
X28220Y-55577D01*
X28301Y-55602D01*
X28383Y-55610D01*
X29236Y-55610D01*
X29244Y-55635D01*
X29251Y-55662D01*
X29252Y-55663D01*
X29252Y-55664D01*
X29265Y-55689D01*
X29278Y-55713D01*
X29279Y-55714D01*
X29280Y-55716D01*
X29297Y-55737D01*
X29314Y-55759D01*
X29316Y-55761D01*
X29316Y-55761D01*
X29316Y-55761D01*
X29317Y-55761D01*
X29474Y-55919D01*
X29495Y-55936D01*
X29516Y-55954D01*
X29518Y-55954D01*
X29519Y-55955D01*
X29543Y-55968D01*
X29567Y-55982D01*
X29569Y-55982D01*
X29570Y-55983D01*
X29596Y-55991D01*
X29623Y-55999D01*
X29624Y-55999D01*
X29626Y-56000D01*
X29653Y-56003D01*
X29680Y-56006D01*
X29683Y-56006D01*
X29684Y-56006D01*
X29684Y-56006D01*
X29685Y-56006D01*
X31102Y-56006D01*
X38759Y-56006D01*
X38787Y-56003D01*
X38814Y-56001D01*
X38816Y-56000D01*
X38817Y-56000D01*
X38843Y-55992D01*
X38870Y-55984D01*
X38871Y-55984D01*
X38873Y-55983D01*
X38897Y-55970D01*
X38921Y-55958D01*
X38923Y-55957D01*
X38924Y-55956D01*
X38945Y-55939D01*
X38967Y-55921D01*
X38969Y-55919D01*
X38969Y-55919D01*
X38969Y-55919D01*
X38970Y-55919D01*
X39186Y-55702D01*
X39203Y-55681D01*
X39221Y-55660D01*
X39222Y-55659D01*
X39223Y-55657D01*
X39236Y-55633D01*
X39249Y-55610D01*
X40120Y-55610D01*
X40202Y-55602D01*
X40283Y-55577D01*
X40358Y-55537D01*
X40424Y-55483D01*
X40478Y-55417D01*
X40518Y-55342D01*
X40543Y-55261D01*
X40551Y-55179D01*
X40551Y-56850D01*
X40511Y-56850D01*
X31102Y-56850D01*
X31062Y-56850D01*
X27629Y-56850D01*
X27629Y-55354D01*
X27617Y-55354D01*
X27617Y-55351D01*
X27555Y-55037D01*
X27451Y-54784D01*
X27451Y-49696D01*
X27451Y-48696D01*
X27433Y-48603D01*
X27397Y-48516D01*
X27344Y-48437D01*
X27278Y-48370D01*
X27199Y-48317D01*
X27112Y-48280D01*
X27019Y-48261D01*
X26925Y-48261D01*
X26832Y-48278D01*
X26744Y-48314D01*
X26665Y-48366D01*
X26597Y-48432D01*
X26544Y-48510D01*
X26506Y-48597D01*
X26487Y-48689D01*
X26485Y-48784D01*
X26502Y-48877D01*
X26537Y-48965D01*
X26589Y-49045D01*
X26654Y-49113D01*
X26732Y-49167D01*
X26819Y-49205D01*
X26911Y-49225D01*
X27006Y-49227D01*
X27099Y-49210D01*
X27187Y-49176D01*
X27267Y-49126D01*
X27336Y-49060D01*
X27390Y-48983D01*
X27429Y-48897D01*
X27449Y-48804D01*
X27451Y-48696D01*
X27451Y-49696D01*
X27433Y-49603D01*
X27397Y-49516D01*
X27344Y-49437D01*
X27278Y-49370D01*
X27199Y-49317D01*
X27112Y-49280D01*
X27019Y-49261D01*
X26925Y-49261D01*
X26832Y-49278D01*
X26744Y-49314D01*
X26665Y-49366D01*
X26597Y-49432D01*
X26544Y-49510D01*
X26506Y-49597D01*
X26487Y-49689D01*
X26485Y-49784D01*
X26502Y-49877D01*
X26537Y-49965D01*
X26589Y-50045D01*
X26654Y-50113D01*
X26732Y-50167D01*
X26819Y-50205D01*
X26911Y-50225D01*
X27006Y-50227D01*
X27099Y-50210D01*
X27187Y-50176D01*
X27267Y-50126D01*
X27336Y-50060D01*
X27390Y-49983D01*
X27429Y-49897D01*
X27449Y-49804D01*
X27451Y-49696D01*
X27451Y-54784D01*
X27433Y-54741D01*
X27256Y-54474D01*
X27030Y-54246D01*
X26764Y-54067D01*
X26469Y-53943D01*
X26155Y-53879D01*
X26141Y-53879D01*
X26141Y-53866D01*
X24645Y-53866D01*
X24645Y-46082D01*
X24645Y-46082D01*
X24645Y-40622D01*
X26141Y-40622D01*
X26141Y-40607D01*
X26425Y-40557D01*
X26724Y-40441D01*
X26994Y-40269D01*
X27226Y-40048D01*
X27411Y-39786D01*
X27541Y-39494D01*
X27612Y-39181D01*
X27613Y-39133D01*
X27629Y-39133D01*
X27629Y-37637D01*
X40874Y-37637D01*
X40874Y-39133D01*
X40887Y-39133D01*
X40941Y-39428D01*
X41059Y-39726D01*
X41233Y-39995D01*
X41455Y-40226D01*
X41719Y-40409D01*
X42012Y-40537D01*
X42325Y-40606D01*
X42362Y-40606D01*
X42362Y-40622D01*
X43858Y-40622D01*
X43858Y-46082D01*
X43858Y-46082D01*
X43858Y-53866D01*
G54D10*
G36*
X30866Y-41631D02*
X30859Y-41702D01*
X30838Y-41769D01*
X30806Y-41830D01*
X30762Y-41884D01*
X30708Y-41928D01*
X30647Y-41961D01*
X30580Y-41981D01*
X30509Y-41988D01*
X29825Y-41988D01*
X29825Y-41507D01*
X30163Y-41507D01*
X30194Y-41501D01*
X30222Y-41489D01*
X30248Y-41472D01*
X30270Y-41450D01*
X30287Y-41424D01*
X30299Y-41396D01*
X30305Y-41365D01*
X30305Y-41334D01*
X30305Y-41059D01*
X30299Y-41028D01*
X30287Y-41000D01*
X30270Y-40974D01*
X30248Y-40952D01*
X30222Y-40935D01*
X30194Y-40923D01*
X30163Y-40917D01*
X30138Y-40917D01*
X30138Y-40854D01*
X30132Y-40823D01*
X30120Y-40795D01*
X30103Y-40769D01*
X30081Y-40747D01*
X30055Y-40730D01*
X30026Y-40718D01*
X29996Y-40712D01*
X29965Y-40712D01*
X29059Y-40712D01*
X29029Y-40718D01*
X29000Y-40730D01*
X28974Y-40747D01*
X28952Y-40769D01*
X28935Y-40795D01*
X28923Y-40823D01*
X28917Y-40854D01*
X28917Y-40885D01*
X28917Y-40917D01*
X28892Y-40917D01*
X28861Y-40923D01*
X28833Y-40935D01*
X28807Y-40952D01*
X28785Y-40974D01*
X28768Y-41000D01*
X28756Y-41028D01*
X28750Y-41059D01*
X28750Y-41090D01*
X28750Y-41365D01*
X28756Y-41396D01*
X28768Y-41424D01*
X28785Y-41450D01*
X28807Y-41472D01*
X28833Y-41489D01*
X28861Y-41501D01*
X28892Y-41507D01*
X28923Y-41507D01*
X29230Y-41507D01*
X29230Y-41988D01*
X28545Y-41988D01*
X28474Y-41981D01*
X28407Y-41961D01*
X28346Y-41928D01*
X28292Y-41884D01*
X28248Y-41830D01*
X28216Y-41769D01*
X28195Y-41702D01*
X28188Y-41631D01*
X28188Y-39470D01*
X28195Y-39399D01*
X28216Y-39332D01*
X28248Y-39271D01*
X28292Y-39218D01*
X28346Y-39174D01*
X28407Y-39141D01*
X28474Y-39121D01*
X28545Y-39114D01*
X30509Y-39114D01*
X30580Y-39121D01*
X30647Y-39141D01*
X30708Y-39174D01*
X30762Y-39218D01*
X30806Y-39271D01*
X30838Y-39332D01*
X30859Y-39399D01*
X30866Y-39470D01*
X30866Y-41631D01*
X30866Y-41631D01*
G37*
G54D31*
X30866Y-41631D02*
X30859Y-41702D01*
X30838Y-41769D01*
X30806Y-41830D01*
X30762Y-41884D01*
X30708Y-41928D01*
X30647Y-41961D01*
X30580Y-41981D01*
X30509Y-41988D01*
X29825Y-41988D01*
X29825Y-41507D01*
X30163Y-41507D01*
X30194Y-41501D01*
X30222Y-41489D01*
X30248Y-41472D01*
X30270Y-41450D01*
X30287Y-41424D01*
X30299Y-41396D01*
X30305Y-41365D01*
X30305Y-41334D01*
X30305Y-41059D01*
X30299Y-41028D01*
X30287Y-41000D01*
X30270Y-40974D01*
X30248Y-40952D01*
X30222Y-40935D01*
X30194Y-40923D01*
X30163Y-40917D01*
X30138Y-40917D01*
X30138Y-40854D01*
X30132Y-40823D01*
X30120Y-40795D01*
X30103Y-40769D01*
X30081Y-40747D01*
X30055Y-40730D01*
X30026Y-40718D01*
X29996Y-40712D01*
X29965Y-40712D01*
X29059Y-40712D01*
X29029Y-40718D01*
X29000Y-40730D01*
X28974Y-40747D01*
X28952Y-40769D01*
X28935Y-40795D01*
X28923Y-40823D01*
X28917Y-40854D01*
X28917Y-40885D01*
X28917Y-40917D01*
X28892Y-40917D01*
X28861Y-40923D01*
X28833Y-40935D01*
X28807Y-40952D01*
X28785Y-40974D01*
X28768Y-41000D01*
X28756Y-41028D01*
X28750Y-41059D01*
X28750Y-41090D01*
X28750Y-41365D01*
X28756Y-41396D01*
X28768Y-41424D01*
X28785Y-41450D01*
X28807Y-41472D01*
X28833Y-41489D01*
X28861Y-41501D01*
X28892Y-41507D01*
X28923Y-41507D01*
X29230Y-41507D01*
X29230Y-41988D01*
X28545Y-41988D01*
X28474Y-41981D01*
X28407Y-41961D01*
X28346Y-41928D01*
X28292Y-41884D01*
X28248Y-41830D01*
X28216Y-41769D01*
X28195Y-41702D01*
X28188Y-41631D01*
X28188Y-39470D01*
X28195Y-39399D01*
X28216Y-39332D01*
X28248Y-39271D01*
X28292Y-39218D01*
X28346Y-39174D01*
X28407Y-39141D01*
X28474Y-39121D01*
X28545Y-39114D01*
X30509Y-39114D01*
X30580Y-39121D01*
X30647Y-39141D01*
X30708Y-39174D01*
X30762Y-39218D01*
X30806Y-39271D01*
X30838Y-39332D01*
X30859Y-39399D01*
X30866Y-39470D01*
X30866Y-41631D01*
M02*
