M48
INCH,TZ
T1C0.013
T2C0.020
T3C0.032
T4C0.120
%
G90
G05
T1
X026358Y-042421
X028150Y-039764
X028150Y-041339
X028150Y-046457
X028150Y-048031
X028150Y-053150
X028150Y-054724
X028543Y-039764
X028543Y-046457
X028543Y-054724
X028937Y-039764
X028937Y-046457
X028937Y-048031
X028937Y-054724
X029035Y-053150
X029331Y-039764
X029331Y-041339
X029331Y-046457
X029331Y-048031
X029331Y-054724
X029370Y-053150
X029724Y-039764
X029724Y-041339
X029724Y-046457
X029724Y-048031
X029724Y-053150
X029724Y-054724
X030118Y-039764
X030118Y-041339
X030118Y-046457
X030118Y-048031
X030118Y-053150
X030118Y-054724
X030512Y-039764
X030512Y-041339
X030512Y-043504
X030512Y-046457
X030512Y-048031
X030512Y-053150
X030512Y-054724
X030906Y-039764
X030906Y-041339
X030906Y-046457
X030906Y-048031
X030906Y-053150
X030906Y-054724
X035551Y-043780
X035551Y-044174
X035945Y-043780
X035945Y-044174
X037008Y-043307
X037598Y-039764
X037598Y-041339
X037598Y-046457
X037598Y-048031
X037598Y-053150
X037598Y-054724
X037992Y-039764
X037992Y-041339
X037992Y-046457
X037992Y-048031
X037992Y-053150
X037992Y-054724
X038386Y-039764
X038386Y-041339
X038386Y-046457
X038386Y-048031
X038386Y-053150
X038386Y-054724
X038780Y-039764
X038780Y-041339
X038780Y-046457
X038780Y-048031
X038780Y-053150
X038780Y-054724
X039173Y-039764
X039173Y-041339
X039173Y-045276
X039173Y-046457
X039173Y-048031
X039173Y-053150
X039173Y-054724
X039567Y-039764
X039567Y-041339
X039567Y-048031
X039567Y-053150
X039567Y-054724
X039961Y-039764
X039961Y-048031
X039961Y-054724
X040354Y-039764
X040354Y-041339
X040354Y-046457
X040354Y-048031
X040354Y-053150
X040354Y-054724
X040551Y-045276
X042894Y-042421
T2
X028642Y-047244
X028666Y-053937
X032283Y-047244
X035039Y-048327
X036220Y-047244
X039847Y-053937
T3
X026969Y-044744
X026969Y-045744
X026969Y-046744
X026969Y-047744
X026969Y-048744
X026969Y-049744
X041535Y-044744
X041535Y-045744
X041535Y-046744
X041535Y-047744
X041535Y-048744
X041535Y-049744
T4
X025984Y-038976
X025984Y-055512
X042520Y-038976
X042520Y-055512
T0
M30
