%FSLAX34Y34*%
G04 Gerber Fmt 3.4, Leading zero omitted, Abs format*
G04 (created by PCBNEW (2014-03-05 BZR 4734)-product) date Thu 06 Mar 2014 08:16:33 PM CET*
%MOIN*%
G01*
G70*
G90*
G04 APERTURE LIST*
%ADD10C,0.005906*%
%ADD11R,0.027600X0.063000*%
%ADD12R,0.039400X0.086600*%
%ADD13R,0.070900X0.133900*%
%ADD14R,0.025000X0.025000*%
%ADD15R,0.090551X0.060236*%
%ADD16R,0.124016X0.027559*%
%ADD17R,0.090551X0.022835*%
%ADD18R,0.059000X0.051100*%
%ADD19R,0.098400X0.177200*%
%ADD20C,0.065000*%
%ADD21R,0.070866X0.070866*%
%ADD22R,0.051100X0.059000*%
%ADD23R,0.039370X0.055118*%
%ADD24R,0.031496X0.039370*%
%ADD25R,0.070900X0.062900*%
%ADD26C,0.025000*%
%ADD27C,0.035000*%
%ADD28C,0.028000*%
%ADD29C,0.008000*%
%ADD30C,0.020000*%
%ADD31C,0.007874*%
G04 APERTURE END LIST*
G54D10*
G54D11*
X33660Y-44645D03*
G54D12*
X34251Y-44527D03*
G54D11*
X34842Y-44645D03*
X34842Y-43149D03*
X33660Y-43149D03*
G54D13*
X34251Y-43503D03*
G54D14*
X34054Y-43936D03*
X34448Y-43936D03*
X34408Y-43621D03*
X34094Y-43621D03*
X34251Y-43818D03*
X34251Y-44015D03*
G54D15*
X29528Y-46995D03*
G54D16*
X29528Y-46578D03*
G54D17*
X29528Y-47677D03*
G54D16*
X29528Y-47905D03*
G54D18*
X38208Y-44665D03*
X38208Y-43917D03*
G54D19*
X35019Y-47244D03*
X33485Y-47244D03*
G54D20*
X26969Y-46744D03*
X26969Y-47744D03*
X26969Y-45744D03*
X26969Y-44744D03*
X26969Y-48744D03*
X26969Y-49744D03*
X41535Y-47744D03*
X41535Y-46744D03*
X41535Y-48744D03*
X41535Y-49744D03*
X41535Y-45744D03*
X41535Y-44744D03*
G54D21*
X32618Y-44527D03*
X32618Y-43188D03*
G54D22*
X33877Y-41929D03*
X34625Y-41929D03*
G54D23*
X36075Y-42983D03*
G54D24*
X36824Y-42983D03*
G54D23*
X36450Y-42116D03*
G54D22*
X42146Y-42421D03*
X42894Y-42421D03*
X42146Y-41339D03*
X42894Y-41339D03*
X25610Y-42421D03*
X26358Y-42421D03*
X25610Y-41339D03*
X26358Y-41339D03*
G54D15*
X29528Y-53688D03*
G54D16*
X29528Y-53271D03*
G54D17*
X29528Y-54370D03*
G54D16*
X29528Y-54598D03*
G54D15*
X38976Y-40799D03*
G54D16*
X38976Y-41216D03*
G54D17*
X38976Y-40117D03*
G54D16*
X38976Y-39889D03*
G54D15*
X38976Y-54185D03*
G54D16*
X38976Y-54602D03*
G54D17*
X38976Y-53503D03*
G54D16*
X38976Y-53275D03*
G54D15*
X38976Y-47492D03*
G54D16*
X38976Y-47909D03*
G54D17*
X38976Y-46810D03*
G54D16*
X38976Y-46582D03*
G54D15*
X29528Y-40302D03*
G54D16*
X29528Y-39885D03*
G54D17*
X29528Y-40984D03*
G54D16*
X29528Y-41212D03*
G54D18*
X36950Y-44674D03*
X36950Y-43926D03*
X35950Y-44674D03*
X35950Y-43926D03*
G54D25*
X28937Y-44417D03*
X28937Y-43299D03*
X30118Y-44417D03*
X30118Y-43299D03*
G54D26*
X29527Y-39527D03*
X29212Y-39527D03*
X28897Y-39527D03*
X28582Y-39527D03*
X28582Y-39842D03*
X28582Y-40157D03*
X28582Y-40472D03*
X28897Y-40472D03*
X29212Y-40472D03*
X29527Y-40472D03*
X29842Y-39527D03*
X30157Y-39527D03*
X30472Y-39527D03*
X30472Y-39842D03*
X30472Y-40157D03*
X30472Y-40472D03*
X30157Y-40472D03*
X29842Y-40472D03*
X38976Y-41574D03*
X39291Y-41574D03*
X39606Y-41574D03*
X39921Y-41574D03*
X39921Y-41259D03*
X39921Y-40944D03*
X39921Y-40629D03*
X39606Y-40629D03*
X39291Y-40629D03*
X38976Y-40629D03*
X38661Y-40629D03*
X38346Y-40629D03*
X38031Y-40629D03*
X38031Y-40944D03*
X38031Y-41259D03*
X38031Y-41574D03*
X38346Y-41574D03*
X38661Y-41574D03*
X38976Y-48267D03*
X39291Y-48267D03*
X39606Y-48267D03*
X39921Y-48267D03*
X39921Y-47952D03*
X39921Y-47637D03*
X39921Y-47322D03*
X39606Y-47322D03*
X38661Y-48267D03*
X38346Y-48267D03*
X38031Y-48267D03*
X38031Y-47952D03*
X38031Y-47637D03*
X38031Y-47322D03*
X38346Y-47322D03*
X38661Y-47322D03*
X38976Y-47322D03*
X39291Y-47322D03*
X38976Y-54960D03*
X39291Y-54960D03*
X39606Y-54960D03*
X39921Y-54960D03*
X39921Y-54645D03*
X39921Y-54330D03*
X39921Y-54015D03*
X39606Y-54015D03*
X38661Y-54960D03*
X38346Y-54960D03*
X38031Y-54960D03*
X38031Y-54645D03*
X38031Y-54330D03*
X38031Y-54015D03*
X38346Y-54015D03*
X38661Y-54015D03*
X38976Y-54015D03*
X39291Y-54015D03*
X29842Y-52913D03*
X30157Y-52913D03*
X30472Y-52913D03*
X30472Y-53228D03*
X30472Y-53543D03*
X30472Y-53858D03*
X28897Y-53858D03*
X29527Y-52913D03*
X29212Y-52913D03*
X28897Y-52913D03*
X28582Y-52913D03*
X28582Y-53228D03*
X28582Y-53543D03*
X28582Y-53858D03*
X30157Y-53858D03*
X29842Y-53858D03*
X29527Y-53858D03*
X29212Y-53858D03*
X30472Y-47165D03*
X29842Y-46220D03*
X30157Y-46220D03*
X30472Y-46220D03*
X30472Y-46535D03*
X30472Y-46850D03*
X28582Y-47165D03*
X28582Y-46850D03*
X28582Y-46535D03*
X28582Y-46220D03*
X28897Y-46220D03*
X29212Y-46220D03*
X29527Y-46220D03*
X30157Y-47165D03*
X29842Y-47165D03*
X29527Y-47165D03*
X29212Y-47165D03*
X28897Y-47165D03*
X37244Y-49350D03*
X36075Y-42983D03*
G54D27*
X36950Y-43926D03*
X35950Y-43926D03*
X42894Y-41339D03*
X26358Y-41339D03*
X26358Y-42421D03*
X42894Y-42421D03*
G54D28*
X30992Y-43299D02*
X31129Y-43299D01*
X30118Y-43299D02*
X30992Y-43299D01*
X35078Y-43149D02*
X34842Y-43149D01*
X35196Y-43031D02*
X35078Y-43149D01*
X35196Y-41456D02*
X35196Y-43031D01*
X35039Y-41299D02*
X35196Y-41456D01*
X33503Y-41299D02*
X35039Y-41299D01*
X33287Y-41515D02*
X33503Y-41299D01*
X33287Y-41850D02*
X33287Y-41515D01*
X32834Y-42303D02*
X33287Y-41850D01*
X32125Y-42303D02*
X32834Y-42303D01*
X31129Y-43299D02*
X32125Y-42303D01*
X29527Y-43299D02*
X29527Y-41212D01*
X29527Y-41212D02*
X29528Y-41212D01*
X28937Y-43299D02*
X29527Y-43299D01*
X29527Y-43299D02*
X30118Y-43299D01*
G54D29*
X29528Y-41216D02*
X29528Y-40984D01*
G54D30*
X38976Y-39889D02*
X38976Y-40117D01*
G54D28*
X29528Y-39885D02*
X29528Y-39015D01*
X38976Y-38976D02*
X38976Y-39889D01*
X38779Y-38779D02*
X38976Y-38976D01*
X29763Y-38779D02*
X38779Y-38779D01*
X29528Y-39015D02*
X29763Y-38779D01*
X29528Y-40302D02*
X29528Y-40472D01*
X28897Y-39527D02*
X29212Y-39527D01*
X28582Y-39842D02*
X28582Y-39527D01*
X28582Y-40472D02*
X28582Y-40157D01*
X29212Y-40472D02*
X28897Y-40472D01*
X29528Y-40472D02*
X29527Y-40472D01*
X29527Y-39527D02*
X29527Y-39921D01*
X29527Y-39921D02*
X29528Y-39885D01*
X29527Y-39527D02*
X29842Y-39527D01*
X30157Y-39527D02*
X30472Y-39527D01*
X30472Y-39842D02*
X30472Y-40157D01*
X30472Y-40472D02*
X30157Y-40472D01*
X29842Y-40472D02*
X29528Y-40302D01*
X29673Y-40302D02*
X29528Y-40302D01*
X29842Y-40472D02*
X29673Y-40302D01*
X29528Y-39885D02*
X29528Y-39528D01*
X29528Y-39528D02*
X29527Y-39527D01*
X38976Y-41574D02*
X38661Y-41574D01*
X38976Y-41574D02*
X38976Y-41574D01*
X39291Y-41574D02*
X39606Y-41574D01*
X39921Y-41574D02*
X39921Y-41259D01*
X39921Y-40944D02*
X39921Y-40629D01*
X38976Y-41216D02*
X38976Y-41574D01*
X39291Y-40629D02*
X39606Y-40629D01*
X38661Y-40629D02*
X38976Y-40629D01*
X38031Y-40629D02*
X38346Y-40629D01*
X38031Y-41259D02*
X38031Y-40944D01*
X38346Y-41574D02*
X38031Y-41574D01*
G54D29*
X38976Y-46578D02*
X38976Y-46810D01*
X38976Y-40799D02*
X38976Y-41212D01*
G54D28*
X38976Y-46578D02*
X38976Y-41212D01*
X39606Y-47322D02*
X39291Y-47322D01*
X38976Y-48267D02*
X38976Y-48267D01*
X39291Y-48267D02*
X39606Y-48267D01*
X39921Y-48267D02*
X39921Y-47952D01*
X39921Y-47637D02*
X39921Y-47322D01*
X38976Y-47909D02*
X38976Y-48267D01*
X38661Y-48267D02*
X38976Y-48267D01*
X38031Y-48267D02*
X38346Y-48267D01*
X38031Y-47637D02*
X38031Y-47952D01*
X38346Y-47322D02*
X38031Y-47322D01*
X38976Y-47322D02*
X38661Y-47322D01*
G54D29*
X38976Y-53271D02*
X38976Y-53503D01*
X38976Y-47492D02*
X38976Y-47905D01*
G54D28*
X38976Y-53271D02*
X38976Y-47905D01*
X29528Y-54598D02*
X29528Y-55551D01*
X38976Y-55492D02*
X38976Y-54602D01*
X38759Y-55708D02*
X38976Y-55492D01*
X29685Y-55708D02*
X38759Y-55708D01*
X29528Y-55551D02*
X29685Y-55708D01*
G54D29*
X29528Y-54598D02*
X29528Y-54370D01*
G54D28*
X39606Y-54015D02*
X39291Y-54015D01*
X38976Y-54960D02*
X38976Y-54960D01*
X38976Y-54602D02*
X38976Y-54960D01*
X39291Y-54960D02*
X39606Y-54960D01*
X39921Y-54960D02*
X39921Y-54645D01*
X39921Y-54330D02*
X39921Y-54015D01*
X38661Y-54960D02*
X38976Y-54960D01*
X38031Y-54960D02*
X38346Y-54960D01*
X38031Y-54330D02*
X38031Y-54645D01*
X38346Y-54015D02*
X38031Y-54015D01*
X38976Y-54015D02*
X38661Y-54015D01*
X28897Y-53858D02*
X29212Y-53858D01*
X29528Y-52913D02*
X29527Y-52913D01*
X29528Y-53271D02*
X29528Y-52913D01*
X30157Y-52913D02*
X30472Y-52913D01*
X30472Y-53228D02*
X30472Y-53543D01*
X29527Y-52913D02*
X29842Y-52913D01*
X29212Y-52913D02*
X28897Y-52913D01*
X28582Y-52913D02*
X28582Y-53228D01*
X28582Y-53543D02*
X28582Y-53858D01*
X30157Y-53858D02*
X30472Y-53858D01*
X29527Y-53858D02*
X29842Y-53858D01*
G54D29*
X29528Y-47909D02*
X29528Y-47677D01*
G54D28*
X29528Y-53275D02*
X29528Y-47909D01*
G54D29*
X29528Y-53688D02*
X29528Y-53275D01*
G54D28*
X28582Y-47165D02*
X28897Y-47165D01*
X29528Y-46220D02*
X29527Y-46220D01*
X29528Y-46578D02*
X29528Y-46220D01*
X30472Y-46850D02*
X30472Y-46535D01*
X30157Y-46220D02*
X30472Y-46220D01*
X29527Y-46220D02*
X29842Y-46220D01*
X28582Y-46220D02*
X28582Y-46535D01*
X29212Y-46220D02*
X28897Y-46220D01*
X29842Y-47165D02*
X30157Y-47165D01*
X29212Y-47165D02*
X29527Y-47165D01*
G54D29*
X29528Y-46995D02*
X29528Y-46582D01*
G54D28*
X29528Y-46995D02*
X33236Y-46995D01*
X33236Y-46995D02*
X33485Y-47244D01*
G54D30*
X38208Y-44665D02*
X38208Y-44940D01*
X37244Y-45492D02*
X37244Y-49350D01*
X37362Y-45374D02*
X37244Y-45492D01*
X37775Y-45374D02*
X37362Y-45374D01*
X38208Y-44940D02*
X37775Y-45374D01*
G54D28*
X34429Y-45452D02*
X32657Y-45452D01*
X34429Y-45452D02*
X35019Y-46042D01*
X35019Y-47244D02*
X35019Y-46042D01*
X32618Y-45413D02*
X32618Y-44527D01*
X32657Y-45452D02*
X32618Y-45413D01*
X32618Y-44527D02*
X33542Y-44527D01*
X33542Y-44527D02*
X33660Y-44645D01*
G54D30*
X36950Y-44674D02*
X37491Y-44674D01*
X37775Y-43917D02*
X38208Y-43917D01*
X37598Y-44094D02*
X37775Y-43917D01*
X37598Y-44566D02*
X37598Y-44094D01*
X37491Y-44674D02*
X37598Y-44566D01*
X36450Y-42116D02*
X37235Y-42116D01*
X37235Y-42116D02*
X38208Y-43090D01*
X38208Y-43090D02*
X38208Y-43917D01*
X38188Y-43897D02*
X38208Y-43917D01*
G54D28*
X36950Y-44674D02*
X37074Y-44674D01*
X35950Y-44674D02*
X36950Y-44674D01*
X34842Y-44645D02*
X35921Y-44645D01*
X35921Y-44645D02*
X35950Y-44674D01*
X34251Y-43503D02*
X34251Y-42814D01*
X34625Y-42440D02*
X34625Y-41929D01*
X34251Y-42814D02*
X34625Y-42440D01*
X34251Y-43503D02*
X34303Y-43503D01*
X34726Y-43926D02*
X35950Y-43926D01*
X34303Y-43503D02*
X34726Y-43926D01*
X34350Y-43503D02*
X34251Y-43503D01*
X34251Y-44527D02*
X34251Y-43503D01*
X25610Y-43897D02*
X29507Y-43897D01*
X29527Y-44397D02*
X29527Y-44417D01*
X29507Y-44417D02*
X29527Y-44397D01*
X29507Y-43897D02*
X29507Y-44417D01*
X30118Y-44417D02*
X30602Y-44417D01*
X31830Y-43188D02*
X32618Y-43188D01*
X30602Y-44417D02*
X31830Y-43188D01*
X28937Y-44417D02*
X29527Y-44417D01*
X29527Y-44417D02*
X30118Y-44417D01*
X33660Y-43149D02*
X33660Y-42638D01*
X33877Y-42421D02*
X33877Y-41929D01*
X33660Y-42638D02*
X33877Y-42421D01*
X32618Y-43188D02*
X33621Y-43188D01*
X33621Y-43188D02*
X33660Y-43149D01*
X25610Y-42421D02*
X25610Y-43897D01*
X25610Y-43897D02*
X25610Y-47244D01*
X26969Y-47244D02*
X25610Y-47244D01*
X42146Y-41339D02*
X42146Y-42421D01*
X25610Y-41339D02*
X25610Y-42421D01*
X26969Y-47244D02*
X26969Y-46744D01*
X41535Y-47244D02*
X41535Y-46744D01*
X42717Y-44685D02*
X42717Y-47244D01*
X42146Y-44114D02*
X42717Y-44685D01*
X42146Y-42421D02*
X42146Y-44114D01*
X26969Y-47744D02*
X26969Y-47244D01*
X41535Y-47244D02*
X41535Y-47744D01*
X41535Y-47244D02*
X42717Y-47244D01*
G54D10*
G36*
X43858Y-53866D02*
X43014Y-53866D01*
X43014Y-47244D01*
X43014Y-44685D01*
X43011Y-44657D01*
X43009Y-44630D01*
X43008Y-44628D01*
X43008Y-44627D01*
X43000Y-44600D01*
X42993Y-44574D01*
X42992Y-44573D01*
X42992Y-44571D01*
X42979Y-44547D01*
X42966Y-44522D01*
X42965Y-44521D01*
X42964Y-44520D01*
X42947Y-44499D01*
X42930Y-44477D01*
X42928Y-44475D01*
X42928Y-44475D01*
X42928Y-44475D01*
X42927Y-44474D01*
X42443Y-43990D01*
X42443Y-42868D01*
X42447Y-42867D01*
X42476Y-42855D01*
X42501Y-42838D01*
X42523Y-42816D01*
X42541Y-42790D01*
X42552Y-42761D01*
X42558Y-42731D01*
X42558Y-42700D01*
X42558Y-42110D01*
X42552Y-42080D01*
X42541Y-42051D01*
X42523Y-42025D01*
X42501Y-42003D01*
X42476Y-41986D01*
X42447Y-41974D01*
X42443Y-41973D01*
X42443Y-41786D01*
X42447Y-41785D01*
X42476Y-41773D01*
X42501Y-41756D01*
X42523Y-41734D01*
X42541Y-41708D01*
X42552Y-41679D01*
X42558Y-41649D01*
X42558Y-41618D01*
X42558Y-41028D01*
X42552Y-40998D01*
X42541Y-40969D01*
X42523Y-40943D01*
X42501Y-40921D01*
X42476Y-40904D01*
X42447Y-40892D01*
X42417Y-40886D01*
X42385Y-40886D01*
X41874Y-40886D01*
X41844Y-40892D01*
X41815Y-40904D01*
X41790Y-40921D01*
X41768Y-40943D01*
X41750Y-40969D01*
X41739Y-40998D01*
X41733Y-41028D01*
X41733Y-41059D01*
X41733Y-41649D01*
X41739Y-41679D01*
X41750Y-41708D01*
X41768Y-41734D01*
X41790Y-41756D01*
X41815Y-41773D01*
X41844Y-41785D01*
X41848Y-41786D01*
X41848Y-41973D01*
X41844Y-41974D01*
X41815Y-41986D01*
X41790Y-42003D01*
X41768Y-42025D01*
X41750Y-42051D01*
X41739Y-42080D01*
X41733Y-42110D01*
X41733Y-42141D01*
X41733Y-42731D01*
X41739Y-42761D01*
X41750Y-42790D01*
X41768Y-42816D01*
X41790Y-42838D01*
X41815Y-42855D01*
X41844Y-42867D01*
X41848Y-42868D01*
X41848Y-44114D01*
X41851Y-44141D01*
X41853Y-44168D01*
X41854Y-44170D01*
X41854Y-44171D01*
X41862Y-44198D01*
X41869Y-44224D01*
X41870Y-44225D01*
X41870Y-44227D01*
X41883Y-44251D01*
X41896Y-44276D01*
X41897Y-44277D01*
X41898Y-44278D01*
X41915Y-44299D01*
X41932Y-44321D01*
X41934Y-44323D01*
X41934Y-44323D01*
X41934Y-44323D01*
X41935Y-44324D01*
X42419Y-44808D01*
X42419Y-46946D01*
X41972Y-46946D01*
X41995Y-46897D01*
X42015Y-46804D01*
X42017Y-46696D01*
X41999Y-46603D01*
X41963Y-46516D01*
X41910Y-46437D01*
X41844Y-46370D01*
X41765Y-46317D01*
X41678Y-46280D01*
X41585Y-46261D01*
X41491Y-46261D01*
X41398Y-46278D01*
X41310Y-46314D01*
X41231Y-46366D01*
X41163Y-46432D01*
X41110Y-46510D01*
X41072Y-46597D01*
X41053Y-46689D01*
X41051Y-46784D01*
X41068Y-46877D01*
X41103Y-46965D01*
X41155Y-47045D01*
X41220Y-47113D01*
X41237Y-47124D01*
X41237Y-47244D01*
X41237Y-47362D01*
X41231Y-47366D01*
X41163Y-47432D01*
X41110Y-47510D01*
X41072Y-47597D01*
X41053Y-47689D01*
X41051Y-47784D01*
X41068Y-47877D01*
X41103Y-47965D01*
X41155Y-48045D01*
X41220Y-48113D01*
X41298Y-48167D01*
X41385Y-48205D01*
X41477Y-48225D01*
X41572Y-48227D01*
X41665Y-48210D01*
X41753Y-48176D01*
X41833Y-48126D01*
X41902Y-48060D01*
X41956Y-47983D01*
X41995Y-47897D01*
X42015Y-47804D01*
X42017Y-47696D01*
X41999Y-47603D01*
X41973Y-47541D01*
X42717Y-47541D01*
X42744Y-47538D01*
X42772Y-47536D01*
X42773Y-47535D01*
X42774Y-47535D01*
X42801Y-47527D01*
X42828Y-47519D01*
X42829Y-47519D01*
X42830Y-47519D01*
X42855Y-47505D01*
X42879Y-47492D01*
X42880Y-47492D01*
X42881Y-47491D01*
X42903Y-47474D01*
X42925Y-47456D01*
X42925Y-47455D01*
X42926Y-47455D01*
X42944Y-47433D01*
X42962Y-47412D01*
X42962Y-47411D01*
X42963Y-47410D01*
X42976Y-47385D01*
X42990Y-47361D01*
X42990Y-47360D01*
X42991Y-47359D01*
X42999Y-47332D01*
X43007Y-47305D01*
X43008Y-47304D01*
X43008Y-47303D01*
X43011Y-47275D01*
X43014Y-47248D01*
X43014Y-47246D01*
X43014Y-47246D01*
X43014Y-47246D01*
X43014Y-47244D01*
X43014Y-53866D01*
X42362Y-53866D01*
X42362Y-53878D01*
X42056Y-53937D01*
X42017Y-53952D01*
X42017Y-49696D01*
X42017Y-48696D01*
X41999Y-48603D01*
X41963Y-48516D01*
X41910Y-48437D01*
X41844Y-48370D01*
X41765Y-48317D01*
X41678Y-48280D01*
X41585Y-48261D01*
X41491Y-48261D01*
X41398Y-48278D01*
X41310Y-48314D01*
X41231Y-48366D01*
X41163Y-48432D01*
X41110Y-48510D01*
X41072Y-48597D01*
X41053Y-48689D01*
X41051Y-48784D01*
X41068Y-48877D01*
X41103Y-48965D01*
X41155Y-49045D01*
X41220Y-49113D01*
X41298Y-49167D01*
X41385Y-49205D01*
X41477Y-49225D01*
X41572Y-49227D01*
X41665Y-49210D01*
X41753Y-49176D01*
X41833Y-49126D01*
X41902Y-49060D01*
X41956Y-48983D01*
X41995Y-48897D01*
X42015Y-48804D01*
X42017Y-48696D01*
X42017Y-49696D01*
X41999Y-49603D01*
X41963Y-49516D01*
X41910Y-49437D01*
X41844Y-49370D01*
X41765Y-49317D01*
X41678Y-49280D01*
X41585Y-49261D01*
X41491Y-49261D01*
X41398Y-49278D01*
X41310Y-49314D01*
X41231Y-49366D01*
X41163Y-49432D01*
X41110Y-49510D01*
X41072Y-49597D01*
X41053Y-49689D01*
X41051Y-49784D01*
X41068Y-49877D01*
X41103Y-49965D01*
X41155Y-50045D01*
X41220Y-50113D01*
X41298Y-50167D01*
X41385Y-50205D01*
X41477Y-50225D01*
X41572Y-50227D01*
X41665Y-50210D01*
X41753Y-50176D01*
X41833Y-50126D01*
X41902Y-50060D01*
X41956Y-49983D01*
X41995Y-49897D01*
X42015Y-49804D01*
X42017Y-49696D01*
X42017Y-53952D01*
X41759Y-54057D01*
X41491Y-54232D01*
X41262Y-54456D01*
X41081Y-54721D01*
X40955Y-55015D01*
X40888Y-55328D01*
X40888Y-55354D01*
X40874Y-55354D01*
X40874Y-56850D01*
X40551Y-56850D01*
X40551Y-55179D01*
X40551Y-39309D01*
X40543Y-39226D01*
X40518Y-39145D01*
X40478Y-39070D01*
X40424Y-39004D01*
X40358Y-38950D01*
X40283Y-38910D01*
X40202Y-38886D01*
X40120Y-38877D01*
X39255Y-38877D01*
X39252Y-38865D01*
X39251Y-38864D01*
X39251Y-38862D01*
X39238Y-38838D01*
X39225Y-38813D01*
X39224Y-38812D01*
X39223Y-38811D01*
X39206Y-38790D01*
X39189Y-38768D01*
X39187Y-38766D01*
X39187Y-38766D01*
X39187Y-38766D01*
X39186Y-38765D01*
X38989Y-38569D01*
X38968Y-38551D01*
X38947Y-38534D01*
X38946Y-38533D01*
X38945Y-38532D01*
X38920Y-38519D01*
X38896Y-38506D01*
X38895Y-38505D01*
X38893Y-38504D01*
X38867Y-38496D01*
X38841Y-38488D01*
X38839Y-38488D01*
X38838Y-38487D01*
X38810Y-38485D01*
X38783Y-38482D01*
X38780Y-38482D01*
X38780Y-38482D01*
X38780Y-38482D01*
X38779Y-38482D01*
X29763Y-38482D01*
X29736Y-38484D01*
X29709Y-38487D01*
X29707Y-38487D01*
X29705Y-38487D01*
X29679Y-38495D01*
X29653Y-38503D01*
X29651Y-38504D01*
X29650Y-38504D01*
X29626Y-38517D01*
X29601Y-38530D01*
X29600Y-38531D01*
X29599Y-38531D01*
X29577Y-38549D01*
X29556Y-38566D01*
X29554Y-38568D01*
X29554Y-38568D01*
X29554Y-38568D01*
X29553Y-38569D01*
X29317Y-38804D01*
X29300Y-38826D01*
X29282Y-38847D01*
X29281Y-38848D01*
X29280Y-38849D01*
X29267Y-38874D01*
X29265Y-38877D01*
X28383Y-38877D01*
X28301Y-38886D01*
X28220Y-38910D01*
X28145Y-38950D01*
X28079Y-39004D01*
X28025Y-39070D01*
X27985Y-39145D01*
X27960Y-39226D01*
X27952Y-39309D01*
X27952Y-43600D01*
X25907Y-43600D01*
X25907Y-42868D01*
X25911Y-42867D01*
X25940Y-42855D01*
X25965Y-42838D01*
X25987Y-42816D01*
X26005Y-42790D01*
X26016Y-42761D01*
X26022Y-42731D01*
X26022Y-42700D01*
X26022Y-42110D01*
X26016Y-42080D01*
X26005Y-42051D01*
X25987Y-42025D01*
X25965Y-42003D01*
X25940Y-41986D01*
X25911Y-41974D01*
X25907Y-41973D01*
X25907Y-41786D01*
X25911Y-41785D01*
X25940Y-41773D01*
X25965Y-41756D01*
X25987Y-41734D01*
X26005Y-41708D01*
X26016Y-41679D01*
X26022Y-41649D01*
X26022Y-41618D01*
X26022Y-41028D01*
X26016Y-40998D01*
X26005Y-40969D01*
X25987Y-40943D01*
X25965Y-40921D01*
X25940Y-40904D01*
X25911Y-40892D01*
X25881Y-40886D01*
X25849Y-40886D01*
X25338Y-40886D01*
X25308Y-40892D01*
X25279Y-40904D01*
X25254Y-40921D01*
X25232Y-40943D01*
X25214Y-40969D01*
X25203Y-40998D01*
X25197Y-41028D01*
X25197Y-41059D01*
X25197Y-41649D01*
X25203Y-41679D01*
X25214Y-41708D01*
X25232Y-41734D01*
X25254Y-41756D01*
X25279Y-41773D01*
X25308Y-41785D01*
X25312Y-41786D01*
X25312Y-41973D01*
X25308Y-41974D01*
X25279Y-41986D01*
X25254Y-42003D01*
X25232Y-42025D01*
X25214Y-42051D01*
X25203Y-42080D01*
X25197Y-42110D01*
X25197Y-42141D01*
X25197Y-42731D01*
X25203Y-42761D01*
X25214Y-42790D01*
X25232Y-42816D01*
X25254Y-42838D01*
X25279Y-42855D01*
X25308Y-42867D01*
X25312Y-42868D01*
X25312Y-43897D01*
X25312Y-47244D01*
X25315Y-47271D01*
X25317Y-47299D01*
X25318Y-47300D01*
X25318Y-47301D01*
X25326Y-47328D01*
X25334Y-47355D01*
X25334Y-47356D01*
X25334Y-47357D01*
X25348Y-47382D01*
X25361Y-47406D01*
X25361Y-47407D01*
X25362Y-47408D01*
X25379Y-47430D01*
X25397Y-47452D01*
X25398Y-47452D01*
X25398Y-47453D01*
X25420Y-47471D01*
X25441Y-47489D01*
X25442Y-47489D01*
X25443Y-47490D01*
X25468Y-47503D01*
X25492Y-47517D01*
X25493Y-47517D01*
X25494Y-47518D01*
X25521Y-47526D01*
X25548Y-47534D01*
X25549Y-47535D01*
X25550Y-47535D01*
X25578Y-47538D01*
X25605Y-47541D01*
X25607Y-47541D01*
X25607Y-47541D01*
X25607Y-47541D01*
X25610Y-47541D01*
X26530Y-47541D01*
X26506Y-47597D01*
X26487Y-47689D01*
X26485Y-47784D01*
X26502Y-47877D01*
X26537Y-47965D01*
X26589Y-48045D01*
X26654Y-48113D01*
X26732Y-48167D01*
X26819Y-48205D01*
X26911Y-48225D01*
X27006Y-48227D01*
X27099Y-48210D01*
X27187Y-48176D01*
X27267Y-48126D01*
X27336Y-48060D01*
X27390Y-47983D01*
X27429Y-47897D01*
X27449Y-47804D01*
X27451Y-47696D01*
X27433Y-47603D01*
X27397Y-47516D01*
X27344Y-47437D01*
X27278Y-47370D01*
X27266Y-47362D01*
X27266Y-47244D01*
X27266Y-47126D01*
X27267Y-47126D01*
X27336Y-47060D01*
X27390Y-46983D01*
X27429Y-46897D01*
X27449Y-46804D01*
X27451Y-46696D01*
X27433Y-46603D01*
X27397Y-46516D01*
X27344Y-46437D01*
X27278Y-46370D01*
X27199Y-46317D01*
X27112Y-46280D01*
X27019Y-46261D01*
X26925Y-46261D01*
X26832Y-46278D01*
X26744Y-46314D01*
X26665Y-46366D01*
X26597Y-46432D01*
X26544Y-46510D01*
X26506Y-46597D01*
X26487Y-46689D01*
X26485Y-46784D01*
X26502Y-46877D01*
X26530Y-46946D01*
X25907Y-46946D01*
X25907Y-44195D01*
X27952Y-44195D01*
X27952Y-55179D01*
X27960Y-55261D01*
X27985Y-55342D01*
X28025Y-55417D01*
X28079Y-55483D01*
X28145Y-55537D01*
X28220Y-55577D01*
X28301Y-55602D01*
X28383Y-55610D01*
X29236Y-55610D01*
X29244Y-55635D01*
X29251Y-55662D01*
X29252Y-55663D01*
X29252Y-55664D01*
X29265Y-55689D01*
X29278Y-55713D01*
X29279Y-55714D01*
X29280Y-55716D01*
X29297Y-55737D01*
X29314Y-55759D01*
X29316Y-55761D01*
X29316Y-55761D01*
X29316Y-55761D01*
X29317Y-55761D01*
X29474Y-55919D01*
X29495Y-55936D01*
X29516Y-55954D01*
X29518Y-55954D01*
X29519Y-55955D01*
X29543Y-55968D01*
X29567Y-55982D01*
X29569Y-55982D01*
X29570Y-55983D01*
X29596Y-55991D01*
X29623Y-55999D01*
X29624Y-55999D01*
X29626Y-56000D01*
X29653Y-56003D01*
X29680Y-56006D01*
X29683Y-56006D01*
X29684Y-56006D01*
X29684Y-56006D01*
X29685Y-56006D01*
X38759Y-56006D01*
X38787Y-56003D01*
X38814Y-56001D01*
X38816Y-56000D01*
X38817Y-56000D01*
X38843Y-55992D01*
X38870Y-55984D01*
X38871Y-55984D01*
X38873Y-55983D01*
X38897Y-55970D01*
X38921Y-55958D01*
X38923Y-55957D01*
X38924Y-55956D01*
X38945Y-55939D01*
X38967Y-55921D01*
X38969Y-55919D01*
X38969Y-55919D01*
X38969Y-55919D01*
X38970Y-55919D01*
X39186Y-55702D01*
X39203Y-55681D01*
X39221Y-55660D01*
X39222Y-55659D01*
X39223Y-55657D01*
X39236Y-55633D01*
X39249Y-55610D01*
X40120Y-55610D01*
X40202Y-55602D01*
X40283Y-55577D01*
X40358Y-55537D01*
X40424Y-55483D01*
X40478Y-55417D01*
X40518Y-55342D01*
X40543Y-55261D01*
X40551Y-55179D01*
X40551Y-56850D01*
X40511Y-56850D01*
X27629Y-56850D01*
X27629Y-55354D01*
X27617Y-55354D01*
X27617Y-55351D01*
X27555Y-55037D01*
X27451Y-54784D01*
X27451Y-49696D01*
X27451Y-48696D01*
X27433Y-48603D01*
X27397Y-48516D01*
X27344Y-48437D01*
X27278Y-48370D01*
X27199Y-48317D01*
X27112Y-48280D01*
X27019Y-48261D01*
X26925Y-48261D01*
X26832Y-48278D01*
X26744Y-48314D01*
X26665Y-48366D01*
X26597Y-48432D01*
X26544Y-48510D01*
X26506Y-48597D01*
X26487Y-48689D01*
X26485Y-48784D01*
X26502Y-48877D01*
X26537Y-48965D01*
X26589Y-49045D01*
X26654Y-49113D01*
X26732Y-49167D01*
X26819Y-49205D01*
X26911Y-49225D01*
X27006Y-49227D01*
X27099Y-49210D01*
X27187Y-49176D01*
X27267Y-49126D01*
X27336Y-49060D01*
X27390Y-48983D01*
X27429Y-48897D01*
X27449Y-48804D01*
X27451Y-48696D01*
X27451Y-49696D01*
X27433Y-49603D01*
X27397Y-49516D01*
X27344Y-49437D01*
X27278Y-49370D01*
X27199Y-49317D01*
X27112Y-49280D01*
X27019Y-49261D01*
X26925Y-49261D01*
X26832Y-49278D01*
X26744Y-49314D01*
X26665Y-49366D01*
X26597Y-49432D01*
X26544Y-49510D01*
X26506Y-49597D01*
X26487Y-49689D01*
X26485Y-49784D01*
X26502Y-49877D01*
X26537Y-49965D01*
X26589Y-50045D01*
X26654Y-50113D01*
X26732Y-50167D01*
X26819Y-50205D01*
X26911Y-50225D01*
X27006Y-50227D01*
X27099Y-50210D01*
X27187Y-50176D01*
X27267Y-50126D01*
X27336Y-50060D01*
X27390Y-49983D01*
X27429Y-49897D01*
X27449Y-49804D01*
X27451Y-49696D01*
X27451Y-54784D01*
X27433Y-54741D01*
X27256Y-54474D01*
X27030Y-54246D01*
X26764Y-54067D01*
X26469Y-53943D01*
X26155Y-53879D01*
X26141Y-53879D01*
X26141Y-53866D01*
X24645Y-53866D01*
X24645Y-40622D01*
X26141Y-40622D01*
X26141Y-40607D01*
X26425Y-40557D01*
X26724Y-40441D01*
X26994Y-40269D01*
X27226Y-40048D01*
X27411Y-39786D01*
X27541Y-39494D01*
X27612Y-39181D01*
X27613Y-39133D01*
X27629Y-39133D01*
X27629Y-37637D01*
X40874Y-37637D01*
X40874Y-39133D01*
X40887Y-39133D01*
X40941Y-39428D01*
X41059Y-39726D01*
X41233Y-39995D01*
X41455Y-40226D01*
X41719Y-40409D01*
X42012Y-40537D01*
X42325Y-40606D01*
X42362Y-40606D01*
X42362Y-40622D01*
X43858Y-40622D01*
X43858Y-53866D01*
X43858Y-53866D01*
G37*
G54D31*
X43858Y-53866D02*
X43014Y-53866D01*
X43014Y-47244D01*
X43014Y-44685D01*
X43011Y-44657D01*
X43009Y-44630D01*
X43008Y-44628D01*
X43008Y-44627D01*
X43000Y-44600D01*
X42993Y-44574D01*
X42992Y-44573D01*
X42992Y-44571D01*
X42979Y-44547D01*
X42966Y-44522D01*
X42965Y-44521D01*
X42964Y-44520D01*
X42947Y-44499D01*
X42930Y-44477D01*
X42928Y-44475D01*
X42928Y-44475D01*
X42928Y-44475D01*
X42927Y-44474D01*
X42443Y-43990D01*
X42443Y-42868D01*
X42447Y-42867D01*
X42476Y-42855D01*
X42501Y-42838D01*
X42523Y-42816D01*
X42541Y-42790D01*
X42552Y-42761D01*
X42558Y-42731D01*
X42558Y-42700D01*
X42558Y-42110D01*
X42552Y-42080D01*
X42541Y-42051D01*
X42523Y-42025D01*
X42501Y-42003D01*
X42476Y-41986D01*
X42447Y-41974D01*
X42443Y-41973D01*
X42443Y-41786D01*
X42447Y-41785D01*
X42476Y-41773D01*
X42501Y-41756D01*
X42523Y-41734D01*
X42541Y-41708D01*
X42552Y-41679D01*
X42558Y-41649D01*
X42558Y-41618D01*
X42558Y-41028D01*
X42552Y-40998D01*
X42541Y-40969D01*
X42523Y-40943D01*
X42501Y-40921D01*
X42476Y-40904D01*
X42447Y-40892D01*
X42417Y-40886D01*
X42385Y-40886D01*
X41874Y-40886D01*
X41844Y-40892D01*
X41815Y-40904D01*
X41790Y-40921D01*
X41768Y-40943D01*
X41750Y-40969D01*
X41739Y-40998D01*
X41733Y-41028D01*
X41733Y-41059D01*
X41733Y-41649D01*
X41739Y-41679D01*
X41750Y-41708D01*
X41768Y-41734D01*
X41790Y-41756D01*
X41815Y-41773D01*
X41844Y-41785D01*
X41848Y-41786D01*
X41848Y-41973D01*
X41844Y-41974D01*
X41815Y-41986D01*
X41790Y-42003D01*
X41768Y-42025D01*
X41750Y-42051D01*
X41739Y-42080D01*
X41733Y-42110D01*
X41733Y-42141D01*
X41733Y-42731D01*
X41739Y-42761D01*
X41750Y-42790D01*
X41768Y-42816D01*
X41790Y-42838D01*
X41815Y-42855D01*
X41844Y-42867D01*
X41848Y-42868D01*
X41848Y-44114D01*
X41851Y-44141D01*
X41853Y-44168D01*
X41854Y-44170D01*
X41854Y-44171D01*
X41862Y-44198D01*
X41869Y-44224D01*
X41870Y-44225D01*
X41870Y-44227D01*
X41883Y-44251D01*
X41896Y-44276D01*
X41897Y-44277D01*
X41898Y-44278D01*
X41915Y-44299D01*
X41932Y-44321D01*
X41934Y-44323D01*
X41934Y-44323D01*
X41934Y-44323D01*
X41935Y-44324D01*
X42419Y-44808D01*
X42419Y-46946D01*
X41972Y-46946D01*
X41995Y-46897D01*
X42015Y-46804D01*
X42017Y-46696D01*
X41999Y-46603D01*
X41963Y-46516D01*
X41910Y-46437D01*
X41844Y-46370D01*
X41765Y-46317D01*
X41678Y-46280D01*
X41585Y-46261D01*
X41491Y-46261D01*
X41398Y-46278D01*
X41310Y-46314D01*
X41231Y-46366D01*
X41163Y-46432D01*
X41110Y-46510D01*
X41072Y-46597D01*
X41053Y-46689D01*
X41051Y-46784D01*
X41068Y-46877D01*
X41103Y-46965D01*
X41155Y-47045D01*
X41220Y-47113D01*
X41237Y-47124D01*
X41237Y-47244D01*
X41237Y-47362D01*
X41231Y-47366D01*
X41163Y-47432D01*
X41110Y-47510D01*
X41072Y-47597D01*
X41053Y-47689D01*
X41051Y-47784D01*
X41068Y-47877D01*
X41103Y-47965D01*
X41155Y-48045D01*
X41220Y-48113D01*
X41298Y-48167D01*
X41385Y-48205D01*
X41477Y-48225D01*
X41572Y-48227D01*
X41665Y-48210D01*
X41753Y-48176D01*
X41833Y-48126D01*
X41902Y-48060D01*
X41956Y-47983D01*
X41995Y-47897D01*
X42015Y-47804D01*
X42017Y-47696D01*
X41999Y-47603D01*
X41973Y-47541D01*
X42717Y-47541D01*
X42744Y-47538D01*
X42772Y-47536D01*
X42773Y-47535D01*
X42774Y-47535D01*
X42801Y-47527D01*
X42828Y-47519D01*
X42829Y-47519D01*
X42830Y-47519D01*
X42855Y-47505D01*
X42879Y-47492D01*
X42880Y-47492D01*
X42881Y-47491D01*
X42903Y-47474D01*
X42925Y-47456D01*
X42925Y-47455D01*
X42926Y-47455D01*
X42944Y-47433D01*
X42962Y-47412D01*
X42962Y-47411D01*
X42963Y-47410D01*
X42976Y-47385D01*
X42990Y-47361D01*
X42990Y-47360D01*
X42991Y-47359D01*
X42999Y-47332D01*
X43007Y-47305D01*
X43008Y-47304D01*
X43008Y-47303D01*
X43011Y-47275D01*
X43014Y-47248D01*
X43014Y-47246D01*
X43014Y-47246D01*
X43014Y-47246D01*
X43014Y-47244D01*
X43014Y-53866D01*
X42362Y-53866D01*
X42362Y-53878D01*
X42056Y-53937D01*
X42017Y-53952D01*
X42017Y-49696D01*
X42017Y-48696D01*
X41999Y-48603D01*
X41963Y-48516D01*
X41910Y-48437D01*
X41844Y-48370D01*
X41765Y-48317D01*
X41678Y-48280D01*
X41585Y-48261D01*
X41491Y-48261D01*
X41398Y-48278D01*
X41310Y-48314D01*
X41231Y-48366D01*
X41163Y-48432D01*
X41110Y-48510D01*
X41072Y-48597D01*
X41053Y-48689D01*
X41051Y-48784D01*
X41068Y-48877D01*
X41103Y-48965D01*
X41155Y-49045D01*
X41220Y-49113D01*
X41298Y-49167D01*
X41385Y-49205D01*
X41477Y-49225D01*
X41572Y-49227D01*
X41665Y-49210D01*
X41753Y-49176D01*
X41833Y-49126D01*
X41902Y-49060D01*
X41956Y-48983D01*
X41995Y-48897D01*
X42015Y-48804D01*
X42017Y-48696D01*
X42017Y-49696D01*
X41999Y-49603D01*
X41963Y-49516D01*
X41910Y-49437D01*
X41844Y-49370D01*
X41765Y-49317D01*
X41678Y-49280D01*
X41585Y-49261D01*
X41491Y-49261D01*
X41398Y-49278D01*
X41310Y-49314D01*
X41231Y-49366D01*
X41163Y-49432D01*
X41110Y-49510D01*
X41072Y-49597D01*
X41053Y-49689D01*
X41051Y-49784D01*
X41068Y-49877D01*
X41103Y-49965D01*
X41155Y-50045D01*
X41220Y-50113D01*
X41298Y-50167D01*
X41385Y-50205D01*
X41477Y-50225D01*
X41572Y-50227D01*
X41665Y-50210D01*
X41753Y-50176D01*
X41833Y-50126D01*
X41902Y-50060D01*
X41956Y-49983D01*
X41995Y-49897D01*
X42015Y-49804D01*
X42017Y-49696D01*
X42017Y-53952D01*
X41759Y-54057D01*
X41491Y-54232D01*
X41262Y-54456D01*
X41081Y-54721D01*
X40955Y-55015D01*
X40888Y-55328D01*
X40888Y-55354D01*
X40874Y-55354D01*
X40874Y-56850D01*
X40551Y-56850D01*
X40551Y-55179D01*
X40551Y-39309D01*
X40543Y-39226D01*
X40518Y-39145D01*
X40478Y-39070D01*
X40424Y-39004D01*
X40358Y-38950D01*
X40283Y-38910D01*
X40202Y-38886D01*
X40120Y-38877D01*
X39255Y-38877D01*
X39252Y-38865D01*
X39251Y-38864D01*
X39251Y-38862D01*
X39238Y-38838D01*
X39225Y-38813D01*
X39224Y-38812D01*
X39223Y-38811D01*
X39206Y-38790D01*
X39189Y-38768D01*
X39187Y-38766D01*
X39187Y-38766D01*
X39187Y-38766D01*
X39186Y-38765D01*
X38989Y-38569D01*
X38968Y-38551D01*
X38947Y-38534D01*
X38946Y-38533D01*
X38945Y-38532D01*
X38920Y-38519D01*
X38896Y-38506D01*
X38895Y-38505D01*
X38893Y-38504D01*
X38867Y-38496D01*
X38841Y-38488D01*
X38839Y-38488D01*
X38838Y-38487D01*
X38810Y-38485D01*
X38783Y-38482D01*
X38780Y-38482D01*
X38780Y-38482D01*
X38780Y-38482D01*
X38779Y-38482D01*
X29763Y-38482D01*
X29736Y-38484D01*
X29709Y-38487D01*
X29707Y-38487D01*
X29705Y-38487D01*
X29679Y-38495D01*
X29653Y-38503D01*
X29651Y-38504D01*
X29650Y-38504D01*
X29626Y-38517D01*
X29601Y-38530D01*
X29600Y-38531D01*
X29599Y-38531D01*
X29577Y-38549D01*
X29556Y-38566D01*
X29554Y-38568D01*
X29554Y-38568D01*
X29554Y-38568D01*
X29553Y-38569D01*
X29317Y-38804D01*
X29300Y-38826D01*
X29282Y-38847D01*
X29281Y-38848D01*
X29280Y-38849D01*
X29267Y-38874D01*
X29265Y-38877D01*
X28383Y-38877D01*
X28301Y-38886D01*
X28220Y-38910D01*
X28145Y-38950D01*
X28079Y-39004D01*
X28025Y-39070D01*
X27985Y-39145D01*
X27960Y-39226D01*
X27952Y-39309D01*
X27952Y-43600D01*
X25907Y-43600D01*
X25907Y-42868D01*
X25911Y-42867D01*
X25940Y-42855D01*
X25965Y-42838D01*
X25987Y-42816D01*
X26005Y-42790D01*
X26016Y-42761D01*
X26022Y-42731D01*
X26022Y-42700D01*
X26022Y-42110D01*
X26016Y-42080D01*
X26005Y-42051D01*
X25987Y-42025D01*
X25965Y-42003D01*
X25940Y-41986D01*
X25911Y-41974D01*
X25907Y-41973D01*
X25907Y-41786D01*
X25911Y-41785D01*
X25940Y-41773D01*
X25965Y-41756D01*
X25987Y-41734D01*
X26005Y-41708D01*
X26016Y-41679D01*
X26022Y-41649D01*
X26022Y-41618D01*
X26022Y-41028D01*
X26016Y-40998D01*
X26005Y-40969D01*
X25987Y-40943D01*
X25965Y-40921D01*
X25940Y-40904D01*
X25911Y-40892D01*
X25881Y-40886D01*
X25849Y-40886D01*
X25338Y-40886D01*
X25308Y-40892D01*
X25279Y-40904D01*
X25254Y-40921D01*
X25232Y-40943D01*
X25214Y-40969D01*
X25203Y-40998D01*
X25197Y-41028D01*
X25197Y-41059D01*
X25197Y-41649D01*
X25203Y-41679D01*
X25214Y-41708D01*
X25232Y-41734D01*
X25254Y-41756D01*
X25279Y-41773D01*
X25308Y-41785D01*
X25312Y-41786D01*
X25312Y-41973D01*
X25308Y-41974D01*
X25279Y-41986D01*
X25254Y-42003D01*
X25232Y-42025D01*
X25214Y-42051D01*
X25203Y-42080D01*
X25197Y-42110D01*
X25197Y-42141D01*
X25197Y-42731D01*
X25203Y-42761D01*
X25214Y-42790D01*
X25232Y-42816D01*
X25254Y-42838D01*
X25279Y-42855D01*
X25308Y-42867D01*
X25312Y-42868D01*
X25312Y-43897D01*
X25312Y-47244D01*
X25315Y-47271D01*
X25317Y-47299D01*
X25318Y-47300D01*
X25318Y-47301D01*
X25326Y-47328D01*
X25334Y-47355D01*
X25334Y-47356D01*
X25334Y-47357D01*
X25348Y-47382D01*
X25361Y-47406D01*
X25361Y-47407D01*
X25362Y-47408D01*
X25379Y-47430D01*
X25397Y-47452D01*
X25398Y-47452D01*
X25398Y-47453D01*
X25420Y-47471D01*
X25441Y-47489D01*
X25442Y-47489D01*
X25443Y-47490D01*
X25468Y-47503D01*
X25492Y-47517D01*
X25493Y-47517D01*
X25494Y-47518D01*
X25521Y-47526D01*
X25548Y-47534D01*
X25549Y-47535D01*
X25550Y-47535D01*
X25578Y-47538D01*
X25605Y-47541D01*
X25607Y-47541D01*
X25607Y-47541D01*
X25607Y-47541D01*
X25610Y-47541D01*
X26530Y-47541D01*
X26506Y-47597D01*
X26487Y-47689D01*
X26485Y-47784D01*
X26502Y-47877D01*
X26537Y-47965D01*
X26589Y-48045D01*
X26654Y-48113D01*
X26732Y-48167D01*
X26819Y-48205D01*
X26911Y-48225D01*
X27006Y-48227D01*
X27099Y-48210D01*
X27187Y-48176D01*
X27267Y-48126D01*
X27336Y-48060D01*
X27390Y-47983D01*
X27429Y-47897D01*
X27449Y-47804D01*
X27451Y-47696D01*
X27433Y-47603D01*
X27397Y-47516D01*
X27344Y-47437D01*
X27278Y-47370D01*
X27266Y-47362D01*
X27266Y-47244D01*
X27266Y-47126D01*
X27267Y-47126D01*
X27336Y-47060D01*
X27390Y-46983D01*
X27429Y-46897D01*
X27449Y-46804D01*
X27451Y-46696D01*
X27433Y-46603D01*
X27397Y-46516D01*
X27344Y-46437D01*
X27278Y-46370D01*
X27199Y-46317D01*
X27112Y-46280D01*
X27019Y-46261D01*
X26925Y-46261D01*
X26832Y-46278D01*
X26744Y-46314D01*
X26665Y-46366D01*
X26597Y-46432D01*
X26544Y-46510D01*
X26506Y-46597D01*
X26487Y-46689D01*
X26485Y-46784D01*
X26502Y-46877D01*
X26530Y-46946D01*
X25907Y-46946D01*
X25907Y-44195D01*
X27952Y-44195D01*
X27952Y-55179D01*
X27960Y-55261D01*
X27985Y-55342D01*
X28025Y-55417D01*
X28079Y-55483D01*
X28145Y-55537D01*
X28220Y-55577D01*
X28301Y-55602D01*
X28383Y-55610D01*
X29236Y-55610D01*
X29244Y-55635D01*
X29251Y-55662D01*
X29252Y-55663D01*
X29252Y-55664D01*
X29265Y-55689D01*
X29278Y-55713D01*
X29279Y-55714D01*
X29280Y-55716D01*
X29297Y-55737D01*
X29314Y-55759D01*
X29316Y-55761D01*
X29316Y-55761D01*
X29316Y-55761D01*
X29317Y-55761D01*
X29474Y-55919D01*
X29495Y-55936D01*
X29516Y-55954D01*
X29518Y-55954D01*
X29519Y-55955D01*
X29543Y-55968D01*
X29567Y-55982D01*
X29569Y-55982D01*
X29570Y-55983D01*
X29596Y-55991D01*
X29623Y-55999D01*
X29624Y-55999D01*
X29626Y-56000D01*
X29653Y-56003D01*
X29680Y-56006D01*
X29683Y-56006D01*
X29684Y-56006D01*
X29684Y-56006D01*
X29685Y-56006D01*
X38759Y-56006D01*
X38787Y-56003D01*
X38814Y-56001D01*
X38816Y-56000D01*
X38817Y-56000D01*
X38843Y-55992D01*
X38870Y-55984D01*
X38871Y-55984D01*
X38873Y-55983D01*
X38897Y-55970D01*
X38921Y-55958D01*
X38923Y-55957D01*
X38924Y-55956D01*
X38945Y-55939D01*
X38967Y-55921D01*
X38969Y-55919D01*
X38969Y-55919D01*
X38969Y-55919D01*
X38970Y-55919D01*
X39186Y-55702D01*
X39203Y-55681D01*
X39221Y-55660D01*
X39222Y-55659D01*
X39223Y-55657D01*
X39236Y-55633D01*
X39249Y-55610D01*
X40120Y-55610D01*
X40202Y-55602D01*
X40283Y-55577D01*
X40358Y-55537D01*
X40424Y-55483D01*
X40478Y-55417D01*
X40518Y-55342D01*
X40543Y-55261D01*
X40551Y-55179D01*
X40551Y-56850D01*
X40511Y-56850D01*
X27629Y-56850D01*
X27629Y-55354D01*
X27617Y-55354D01*
X27617Y-55351D01*
X27555Y-55037D01*
X27451Y-54784D01*
X27451Y-49696D01*
X27451Y-48696D01*
X27433Y-48603D01*
X27397Y-48516D01*
X27344Y-48437D01*
X27278Y-48370D01*
X27199Y-48317D01*
X27112Y-48280D01*
X27019Y-48261D01*
X26925Y-48261D01*
X26832Y-48278D01*
X26744Y-48314D01*
X26665Y-48366D01*
X26597Y-48432D01*
X26544Y-48510D01*
X26506Y-48597D01*
X26487Y-48689D01*
X26485Y-48784D01*
X26502Y-48877D01*
X26537Y-48965D01*
X26589Y-49045D01*
X26654Y-49113D01*
X26732Y-49167D01*
X26819Y-49205D01*
X26911Y-49225D01*
X27006Y-49227D01*
X27099Y-49210D01*
X27187Y-49176D01*
X27267Y-49126D01*
X27336Y-49060D01*
X27390Y-48983D01*
X27429Y-48897D01*
X27449Y-48804D01*
X27451Y-48696D01*
X27451Y-49696D01*
X27433Y-49603D01*
X27397Y-49516D01*
X27344Y-49437D01*
X27278Y-49370D01*
X27199Y-49317D01*
X27112Y-49280D01*
X27019Y-49261D01*
X26925Y-49261D01*
X26832Y-49278D01*
X26744Y-49314D01*
X26665Y-49366D01*
X26597Y-49432D01*
X26544Y-49510D01*
X26506Y-49597D01*
X26487Y-49689D01*
X26485Y-49784D01*
X26502Y-49877D01*
X26537Y-49965D01*
X26589Y-50045D01*
X26654Y-50113D01*
X26732Y-50167D01*
X26819Y-50205D01*
X26911Y-50225D01*
X27006Y-50227D01*
X27099Y-50210D01*
X27187Y-50176D01*
X27267Y-50126D01*
X27336Y-50060D01*
X27390Y-49983D01*
X27429Y-49897D01*
X27449Y-49804D01*
X27451Y-49696D01*
X27451Y-54784D01*
X27433Y-54741D01*
X27256Y-54474D01*
X27030Y-54246D01*
X26764Y-54067D01*
X26469Y-53943D01*
X26155Y-53879D01*
X26141Y-53879D01*
X26141Y-53866D01*
X24645Y-53866D01*
X24645Y-40622D01*
X26141Y-40622D01*
X26141Y-40607D01*
X26425Y-40557D01*
X26724Y-40441D01*
X26994Y-40269D01*
X27226Y-40048D01*
X27411Y-39786D01*
X27541Y-39494D01*
X27612Y-39181D01*
X27613Y-39133D01*
X27629Y-39133D01*
X27629Y-37637D01*
X40874Y-37637D01*
X40874Y-39133D01*
X40887Y-39133D01*
X40941Y-39428D01*
X41059Y-39726D01*
X41233Y-39995D01*
X41455Y-40226D01*
X41719Y-40409D01*
X42012Y-40537D01*
X42325Y-40606D01*
X42362Y-40606D01*
X42362Y-40622D01*
X43858Y-40622D01*
X43858Y-53866D01*
G54D10*
G36*
X30866Y-41629D02*
X30838Y-41769D01*
X30761Y-41883D01*
X30647Y-41960D01*
X30507Y-41988D01*
X29825Y-41988D01*
X29825Y-41507D01*
X30179Y-41507D01*
X30237Y-41483D01*
X30281Y-41439D01*
X30305Y-41381D01*
X30305Y-41318D01*
X30305Y-41043D01*
X30281Y-40985D01*
X30237Y-40941D01*
X30179Y-40917D01*
X30138Y-40917D01*
X30138Y-40838D01*
X30114Y-40780D01*
X30069Y-40736D01*
X30012Y-40712D01*
X29949Y-40712D01*
X29043Y-40712D01*
X28986Y-40736D01*
X28941Y-40780D01*
X28917Y-40838D01*
X28917Y-40901D01*
X28917Y-40917D01*
X28876Y-40917D01*
X28818Y-40941D01*
X28774Y-40985D01*
X28750Y-41043D01*
X28750Y-41105D01*
X28750Y-41381D01*
X28774Y-41439D01*
X28818Y-41483D01*
X28876Y-41507D01*
X28939Y-41507D01*
X29230Y-41507D01*
X29230Y-41988D01*
X28547Y-41988D01*
X28408Y-41960D01*
X28293Y-41883D01*
X28216Y-41769D01*
X28188Y-41629D01*
X28188Y-39472D01*
X28216Y-39333D01*
X28293Y-39218D01*
X28408Y-39141D01*
X28547Y-39114D01*
X30507Y-39114D01*
X30647Y-39141D01*
X30761Y-39218D01*
X30838Y-39333D01*
X30866Y-39472D01*
X30866Y-41629D01*
X30866Y-41629D01*
G37*
G54D31*
X30866Y-41629D02*
X30838Y-41769D01*
X30761Y-41883D01*
X30647Y-41960D01*
X30507Y-41988D01*
X29825Y-41988D01*
X29825Y-41507D01*
X30179Y-41507D01*
X30237Y-41483D01*
X30281Y-41439D01*
X30305Y-41381D01*
X30305Y-41318D01*
X30305Y-41043D01*
X30281Y-40985D01*
X30237Y-40941D01*
X30179Y-40917D01*
X30138Y-40917D01*
X30138Y-40838D01*
X30114Y-40780D01*
X30069Y-40736D01*
X30012Y-40712D01*
X29949Y-40712D01*
X29043Y-40712D01*
X28986Y-40736D01*
X28941Y-40780D01*
X28917Y-40838D01*
X28917Y-40901D01*
X28917Y-40917D01*
X28876Y-40917D01*
X28818Y-40941D01*
X28774Y-40985D01*
X28750Y-41043D01*
X28750Y-41105D01*
X28750Y-41381D01*
X28774Y-41439D01*
X28818Y-41483D01*
X28876Y-41507D01*
X28939Y-41507D01*
X29230Y-41507D01*
X29230Y-41988D01*
X28547Y-41988D01*
X28408Y-41960D01*
X28293Y-41883D01*
X28216Y-41769D01*
X28188Y-41629D01*
X28188Y-39472D01*
X28216Y-39333D01*
X28293Y-39218D01*
X28408Y-39141D01*
X28547Y-39114D01*
X30507Y-39114D01*
X30647Y-39141D01*
X30761Y-39218D01*
X30838Y-39333D01*
X30866Y-39472D01*
X30866Y-41629D01*
G54D10*
G36*
X40314Y-41631D02*
X40307Y-41702D01*
X40287Y-41769D01*
X40255Y-41830D01*
X40211Y-41884D01*
X40157Y-41928D01*
X40096Y-41961D01*
X40029Y-41981D01*
X39958Y-41988D01*
X37994Y-41988D01*
X37923Y-41981D01*
X37856Y-41961D01*
X37795Y-41928D01*
X37741Y-41884D01*
X37697Y-41830D01*
X37664Y-41769D01*
X37644Y-41702D01*
X37637Y-41631D01*
X37637Y-39470D01*
X37644Y-39399D01*
X37664Y-39332D01*
X37697Y-39271D01*
X37741Y-39218D01*
X37795Y-39174D01*
X37856Y-39141D01*
X37923Y-39121D01*
X37994Y-39114D01*
X38678Y-39114D01*
X38678Y-39594D01*
X38340Y-39594D01*
X38309Y-39600D01*
X38281Y-39612D01*
X38255Y-39629D01*
X38233Y-39651D01*
X38216Y-39677D01*
X38204Y-39705D01*
X38198Y-39736D01*
X38198Y-39767D01*
X38198Y-40042D01*
X38204Y-40073D01*
X38216Y-40101D01*
X38233Y-40127D01*
X38255Y-40149D01*
X38281Y-40166D01*
X38309Y-40178D01*
X38340Y-40184D01*
X38365Y-40184D01*
X38365Y-40247D01*
X38371Y-40278D01*
X38383Y-40306D01*
X38400Y-40332D01*
X38422Y-40354D01*
X38448Y-40371D01*
X38477Y-40383D01*
X38507Y-40389D01*
X38538Y-40389D01*
X39444Y-40389D01*
X39474Y-40383D01*
X39503Y-40371D01*
X39529Y-40354D01*
X39551Y-40332D01*
X39568Y-40306D01*
X39580Y-40278D01*
X39586Y-40247D01*
X39586Y-40216D01*
X39586Y-40184D01*
X39611Y-40184D01*
X39642Y-40178D01*
X39670Y-40166D01*
X39696Y-40149D01*
X39718Y-40127D01*
X39735Y-40101D01*
X39747Y-40073D01*
X39753Y-40042D01*
X39753Y-40011D01*
X39753Y-39736D01*
X39747Y-39705D01*
X39735Y-39677D01*
X39718Y-39651D01*
X39696Y-39629D01*
X39670Y-39612D01*
X39642Y-39600D01*
X39611Y-39594D01*
X39580Y-39594D01*
X39273Y-39594D01*
X39273Y-39114D01*
X39958Y-39114D01*
X40029Y-39121D01*
X40096Y-39141D01*
X40157Y-39174D01*
X40211Y-39218D01*
X40255Y-39271D01*
X40287Y-39332D01*
X40307Y-39399D01*
X40314Y-39470D01*
X40314Y-41631D01*
X40314Y-41631D01*
G37*
G54D31*
X40314Y-41631D02*
X40307Y-41702D01*
X40287Y-41769D01*
X40255Y-41830D01*
X40211Y-41884D01*
X40157Y-41928D01*
X40096Y-41961D01*
X40029Y-41981D01*
X39958Y-41988D01*
X37994Y-41988D01*
X37923Y-41981D01*
X37856Y-41961D01*
X37795Y-41928D01*
X37741Y-41884D01*
X37697Y-41830D01*
X37664Y-41769D01*
X37644Y-41702D01*
X37637Y-41631D01*
X37637Y-39470D01*
X37644Y-39399D01*
X37664Y-39332D01*
X37697Y-39271D01*
X37741Y-39218D01*
X37795Y-39174D01*
X37856Y-39141D01*
X37923Y-39121D01*
X37994Y-39114D01*
X38678Y-39114D01*
X38678Y-39594D01*
X38340Y-39594D01*
X38309Y-39600D01*
X38281Y-39612D01*
X38255Y-39629D01*
X38233Y-39651D01*
X38216Y-39677D01*
X38204Y-39705D01*
X38198Y-39736D01*
X38198Y-39767D01*
X38198Y-40042D01*
X38204Y-40073D01*
X38216Y-40101D01*
X38233Y-40127D01*
X38255Y-40149D01*
X38281Y-40166D01*
X38309Y-40178D01*
X38340Y-40184D01*
X38365Y-40184D01*
X38365Y-40247D01*
X38371Y-40278D01*
X38383Y-40306D01*
X38400Y-40332D01*
X38422Y-40354D01*
X38448Y-40371D01*
X38477Y-40383D01*
X38507Y-40389D01*
X38538Y-40389D01*
X39444Y-40389D01*
X39474Y-40383D01*
X39503Y-40371D01*
X39529Y-40354D01*
X39551Y-40332D01*
X39568Y-40306D01*
X39580Y-40278D01*
X39586Y-40247D01*
X39586Y-40216D01*
X39586Y-40184D01*
X39611Y-40184D01*
X39642Y-40178D01*
X39670Y-40166D01*
X39696Y-40149D01*
X39718Y-40127D01*
X39735Y-40101D01*
X39747Y-40073D01*
X39753Y-40042D01*
X39753Y-40011D01*
X39753Y-39736D01*
X39747Y-39705D01*
X39735Y-39677D01*
X39718Y-39651D01*
X39696Y-39629D01*
X39670Y-39612D01*
X39642Y-39600D01*
X39611Y-39594D01*
X39580Y-39594D01*
X39273Y-39594D01*
X39273Y-39114D01*
X39958Y-39114D01*
X40029Y-39121D01*
X40096Y-39141D01*
X40157Y-39174D01*
X40211Y-39218D01*
X40255Y-39271D01*
X40287Y-39332D01*
X40307Y-39399D01*
X40314Y-39470D01*
X40314Y-41631D01*
G54D10*
G36*
X40314Y-48324D02*
X40307Y-48395D01*
X40287Y-48462D01*
X40255Y-48523D01*
X40211Y-48577D01*
X40157Y-48621D01*
X40096Y-48653D01*
X40029Y-48674D01*
X39958Y-48681D01*
X37994Y-48681D01*
X37923Y-48674D01*
X37856Y-48653D01*
X37795Y-48621D01*
X37741Y-48577D01*
X37697Y-48523D01*
X37664Y-48462D01*
X37644Y-48395D01*
X37637Y-48324D01*
X37637Y-46163D01*
X37644Y-46092D01*
X37664Y-46025D01*
X37697Y-45964D01*
X37741Y-45911D01*
X37795Y-45866D01*
X37856Y-45834D01*
X37923Y-45814D01*
X37994Y-45807D01*
X38678Y-45807D01*
X38678Y-46287D01*
X38340Y-46287D01*
X38309Y-46293D01*
X38281Y-46305D01*
X38255Y-46322D01*
X38233Y-46344D01*
X38216Y-46370D01*
X38204Y-46398D01*
X38198Y-46429D01*
X38198Y-46460D01*
X38198Y-46735D01*
X38204Y-46766D01*
X38216Y-46794D01*
X38233Y-46820D01*
X38255Y-46842D01*
X38281Y-46859D01*
X38309Y-46871D01*
X38340Y-46877D01*
X38365Y-46877D01*
X38365Y-46940D01*
X38371Y-46971D01*
X38383Y-46999D01*
X38400Y-47025D01*
X38422Y-47047D01*
X38448Y-47064D01*
X38477Y-47076D01*
X38507Y-47082D01*
X38538Y-47082D01*
X39444Y-47082D01*
X39474Y-47076D01*
X39503Y-47064D01*
X39529Y-47047D01*
X39551Y-47025D01*
X39568Y-46999D01*
X39580Y-46971D01*
X39586Y-46940D01*
X39586Y-46909D01*
X39586Y-46877D01*
X39611Y-46877D01*
X39642Y-46871D01*
X39670Y-46859D01*
X39696Y-46842D01*
X39718Y-46820D01*
X39735Y-46794D01*
X39747Y-46766D01*
X39753Y-46735D01*
X39753Y-46704D01*
X39753Y-46429D01*
X39747Y-46398D01*
X39735Y-46370D01*
X39718Y-46344D01*
X39696Y-46322D01*
X39670Y-46305D01*
X39642Y-46293D01*
X39611Y-46287D01*
X39580Y-46287D01*
X39273Y-46287D01*
X39273Y-45807D01*
X39958Y-45807D01*
X40029Y-45814D01*
X40096Y-45834D01*
X40157Y-45866D01*
X40211Y-45911D01*
X40255Y-45964D01*
X40287Y-46025D01*
X40307Y-46092D01*
X40314Y-46163D01*
X40314Y-48324D01*
X40314Y-48324D01*
G37*
G54D31*
X40314Y-48324D02*
X40307Y-48395D01*
X40287Y-48462D01*
X40255Y-48523D01*
X40211Y-48577D01*
X40157Y-48621D01*
X40096Y-48653D01*
X40029Y-48674D01*
X39958Y-48681D01*
X37994Y-48681D01*
X37923Y-48674D01*
X37856Y-48653D01*
X37795Y-48621D01*
X37741Y-48577D01*
X37697Y-48523D01*
X37664Y-48462D01*
X37644Y-48395D01*
X37637Y-48324D01*
X37637Y-46163D01*
X37644Y-46092D01*
X37664Y-46025D01*
X37697Y-45964D01*
X37741Y-45911D01*
X37795Y-45866D01*
X37856Y-45834D01*
X37923Y-45814D01*
X37994Y-45807D01*
X38678Y-45807D01*
X38678Y-46287D01*
X38340Y-46287D01*
X38309Y-46293D01*
X38281Y-46305D01*
X38255Y-46322D01*
X38233Y-46344D01*
X38216Y-46370D01*
X38204Y-46398D01*
X38198Y-46429D01*
X38198Y-46460D01*
X38198Y-46735D01*
X38204Y-46766D01*
X38216Y-46794D01*
X38233Y-46820D01*
X38255Y-46842D01*
X38281Y-46859D01*
X38309Y-46871D01*
X38340Y-46877D01*
X38365Y-46877D01*
X38365Y-46940D01*
X38371Y-46971D01*
X38383Y-46999D01*
X38400Y-47025D01*
X38422Y-47047D01*
X38448Y-47064D01*
X38477Y-47076D01*
X38507Y-47082D01*
X38538Y-47082D01*
X39444Y-47082D01*
X39474Y-47076D01*
X39503Y-47064D01*
X39529Y-47047D01*
X39551Y-47025D01*
X39568Y-46999D01*
X39580Y-46971D01*
X39586Y-46940D01*
X39586Y-46909D01*
X39586Y-46877D01*
X39611Y-46877D01*
X39642Y-46871D01*
X39670Y-46859D01*
X39696Y-46842D01*
X39718Y-46820D01*
X39735Y-46794D01*
X39747Y-46766D01*
X39753Y-46735D01*
X39753Y-46704D01*
X39753Y-46429D01*
X39747Y-46398D01*
X39735Y-46370D01*
X39718Y-46344D01*
X39696Y-46322D01*
X39670Y-46305D01*
X39642Y-46293D01*
X39611Y-46287D01*
X39580Y-46287D01*
X39273Y-46287D01*
X39273Y-45807D01*
X39958Y-45807D01*
X40029Y-45814D01*
X40096Y-45834D01*
X40157Y-45866D01*
X40211Y-45911D01*
X40255Y-45964D01*
X40287Y-46025D01*
X40307Y-46092D01*
X40314Y-46163D01*
X40314Y-48324D01*
G54D10*
G36*
X30866Y-48324D02*
X30859Y-48395D01*
X30838Y-48462D01*
X30806Y-48523D01*
X30762Y-48577D01*
X30708Y-48621D01*
X30647Y-48653D01*
X30580Y-48674D01*
X30509Y-48681D01*
X29825Y-48681D01*
X29825Y-48200D01*
X30163Y-48200D01*
X30194Y-48194D01*
X30222Y-48182D01*
X30248Y-48165D01*
X30270Y-48143D01*
X30287Y-48117D01*
X30299Y-48089D01*
X30305Y-48058D01*
X30305Y-48027D01*
X30305Y-47752D01*
X30299Y-47721D01*
X30287Y-47693D01*
X30270Y-47667D01*
X30248Y-47645D01*
X30222Y-47628D01*
X30194Y-47616D01*
X30163Y-47610D01*
X30138Y-47610D01*
X30138Y-47547D01*
X30132Y-47516D01*
X30120Y-47488D01*
X30103Y-47462D01*
X30081Y-47440D01*
X30055Y-47423D01*
X30026Y-47411D01*
X29996Y-47405D01*
X29965Y-47405D01*
X29059Y-47405D01*
X29029Y-47411D01*
X29000Y-47423D01*
X28974Y-47440D01*
X28952Y-47462D01*
X28935Y-47488D01*
X28923Y-47516D01*
X28917Y-47547D01*
X28917Y-47578D01*
X28917Y-47610D01*
X28892Y-47610D01*
X28861Y-47616D01*
X28833Y-47628D01*
X28807Y-47645D01*
X28785Y-47667D01*
X28768Y-47693D01*
X28756Y-47721D01*
X28750Y-47752D01*
X28750Y-47783D01*
X28750Y-48058D01*
X28756Y-48089D01*
X28768Y-48117D01*
X28785Y-48143D01*
X28807Y-48165D01*
X28833Y-48182D01*
X28861Y-48194D01*
X28892Y-48200D01*
X28923Y-48200D01*
X29230Y-48200D01*
X29230Y-48681D01*
X28545Y-48681D01*
X28474Y-48674D01*
X28407Y-48653D01*
X28346Y-48621D01*
X28292Y-48577D01*
X28248Y-48523D01*
X28216Y-48462D01*
X28195Y-48395D01*
X28188Y-48324D01*
X28188Y-46163D01*
X28195Y-46092D01*
X28216Y-46025D01*
X28248Y-45964D01*
X28292Y-45911D01*
X28346Y-45866D01*
X28407Y-45834D01*
X28474Y-45814D01*
X28545Y-45807D01*
X30509Y-45807D01*
X30580Y-45814D01*
X30647Y-45834D01*
X30708Y-45866D01*
X30762Y-45911D01*
X30806Y-45964D01*
X30838Y-46025D01*
X30859Y-46092D01*
X30866Y-46163D01*
X30866Y-48324D01*
X30866Y-48324D01*
G37*
G54D31*
X30866Y-48324D02*
X30859Y-48395D01*
X30838Y-48462D01*
X30806Y-48523D01*
X30762Y-48577D01*
X30708Y-48621D01*
X30647Y-48653D01*
X30580Y-48674D01*
X30509Y-48681D01*
X29825Y-48681D01*
X29825Y-48200D01*
X30163Y-48200D01*
X30194Y-48194D01*
X30222Y-48182D01*
X30248Y-48165D01*
X30270Y-48143D01*
X30287Y-48117D01*
X30299Y-48089D01*
X30305Y-48058D01*
X30305Y-48027D01*
X30305Y-47752D01*
X30299Y-47721D01*
X30287Y-47693D01*
X30270Y-47667D01*
X30248Y-47645D01*
X30222Y-47628D01*
X30194Y-47616D01*
X30163Y-47610D01*
X30138Y-47610D01*
X30138Y-47547D01*
X30132Y-47516D01*
X30120Y-47488D01*
X30103Y-47462D01*
X30081Y-47440D01*
X30055Y-47423D01*
X30026Y-47411D01*
X29996Y-47405D01*
X29965Y-47405D01*
X29059Y-47405D01*
X29029Y-47411D01*
X29000Y-47423D01*
X28974Y-47440D01*
X28952Y-47462D01*
X28935Y-47488D01*
X28923Y-47516D01*
X28917Y-47547D01*
X28917Y-47578D01*
X28917Y-47610D01*
X28892Y-47610D01*
X28861Y-47616D01*
X28833Y-47628D01*
X28807Y-47645D01*
X28785Y-47667D01*
X28768Y-47693D01*
X28756Y-47721D01*
X28750Y-47752D01*
X28750Y-47783D01*
X28750Y-48058D01*
X28756Y-48089D01*
X28768Y-48117D01*
X28785Y-48143D01*
X28807Y-48165D01*
X28833Y-48182D01*
X28861Y-48194D01*
X28892Y-48200D01*
X28923Y-48200D01*
X29230Y-48200D01*
X29230Y-48681D01*
X28545Y-48681D01*
X28474Y-48674D01*
X28407Y-48653D01*
X28346Y-48621D01*
X28292Y-48577D01*
X28248Y-48523D01*
X28216Y-48462D01*
X28195Y-48395D01*
X28188Y-48324D01*
X28188Y-46163D01*
X28195Y-46092D01*
X28216Y-46025D01*
X28248Y-45964D01*
X28292Y-45911D01*
X28346Y-45866D01*
X28407Y-45834D01*
X28474Y-45814D01*
X28545Y-45807D01*
X30509Y-45807D01*
X30580Y-45814D01*
X30647Y-45834D01*
X30708Y-45866D01*
X30762Y-45911D01*
X30806Y-45964D01*
X30838Y-46025D01*
X30859Y-46092D01*
X30866Y-46163D01*
X30866Y-48324D01*
G54D10*
G36*
X30866Y-55017D02*
X30859Y-55088D01*
X30838Y-55155D01*
X30806Y-55216D01*
X30762Y-55270D01*
X30708Y-55314D01*
X30647Y-55346D01*
X30580Y-55367D01*
X30509Y-55374D01*
X29825Y-55374D01*
X29825Y-54893D01*
X30163Y-54893D01*
X30194Y-54887D01*
X30222Y-54875D01*
X30248Y-54858D01*
X30270Y-54836D01*
X30287Y-54810D01*
X30299Y-54782D01*
X30305Y-54751D01*
X30305Y-54720D01*
X30305Y-54445D01*
X30299Y-54414D01*
X30287Y-54386D01*
X30270Y-54360D01*
X30248Y-54338D01*
X30222Y-54321D01*
X30194Y-54309D01*
X30163Y-54303D01*
X30138Y-54303D01*
X30138Y-54240D01*
X30132Y-54209D01*
X30120Y-54181D01*
X30103Y-54155D01*
X30081Y-54133D01*
X30055Y-54116D01*
X30026Y-54104D01*
X29996Y-54098D01*
X29965Y-54098D01*
X29059Y-54098D01*
X29029Y-54104D01*
X29000Y-54116D01*
X28974Y-54133D01*
X28952Y-54155D01*
X28935Y-54181D01*
X28923Y-54209D01*
X28917Y-54240D01*
X28917Y-54271D01*
X28917Y-54303D01*
X28892Y-54303D01*
X28861Y-54309D01*
X28833Y-54321D01*
X28807Y-54338D01*
X28785Y-54360D01*
X28768Y-54386D01*
X28756Y-54414D01*
X28750Y-54445D01*
X28750Y-54476D01*
X28750Y-54751D01*
X28756Y-54782D01*
X28768Y-54810D01*
X28785Y-54836D01*
X28807Y-54858D01*
X28833Y-54875D01*
X28861Y-54887D01*
X28892Y-54893D01*
X28923Y-54893D01*
X29230Y-54893D01*
X29230Y-55374D01*
X28545Y-55374D01*
X28474Y-55367D01*
X28407Y-55346D01*
X28346Y-55314D01*
X28292Y-55270D01*
X28248Y-55216D01*
X28216Y-55155D01*
X28195Y-55088D01*
X28188Y-55017D01*
X28188Y-52856D01*
X28195Y-52785D01*
X28216Y-52718D01*
X28248Y-52657D01*
X28292Y-52603D01*
X28346Y-52559D01*
X28407Y-52527D01*
X28474Y-52506D01*
X28545Y-52500D01*
X30509Y-52500D01*
X30580Y-52506D01*
X30647Y-52527D01*
X30708Y-52559D01*
X30762Y-52603D01*
X30806Y-52657D01*
X30838Y-52718D01*
X30859Y-52785D01*
X30866Y-52856D01*
X30866Y-55017D01*
X30866Y-55017D01*
G37*
G54D31*
X30866Y-55017D02*
X30859Y-55088D01*
X30838Y-55155D01*
X30806Y-55216D01*
X30762Y-55270D01*
X30708Y-55314D01*
X30647Y-55346D01*
X30580Y-55367D01*
X30509Y-55374D01*
X29825Y-55374D01*
X29825Y-54893D01*
X30163Y-54893D01*
X30194Y-54887D01*
X30222Y-54875D01*
X30248Y-54858D01*
X30270Y-54836D01*
X30287Y-54810D01*
X30299Y-54782D01*
X30305Y-54751D01*
X30305Y-54720D01*
X30305Y-54445D01*
X30299Y-54414D01*
X30287Y-54386D01*
X30270Y-54360D01*
X30248Y-54338D01*
X30222Y-54321D01*
X30194Y-54309D01*
X30163Y-54303D01*
X30138Y-54303D01*
X30138Y-54240D01*
X30132Y-54209D01*
X30120Y-54181D01*
X30103Y-54155D01*
X30081Y-54133D01*
X30055Y-54116D01*
X30026Y-54104D01*
X29996Y-54098D01*
X29965Y-54098D01*
X29059Y-54098D01*
X29029Y-54104D01*
X29000Y-54116D01*
X28974Y-54133D01*
X28952Y-54155D01*
X28935Y-54181D01*
X28923Y-54209D01*
X28917Y-54240D01*
X28917Y-54271D01*
X28917Y-54303D01*
X28892Y-54303D01*
X28861Y-54309D01*
X28833Y-54321D01*
X28807Y-54338D01*
X28785Y-54360D01*
X28768Y-54386D01*
X28756Y-54414D01*
X28750Y-54445D01*
X28750Y-54476D01*
X28750Y-54751D01*
X28756Y-54782D01*
X28768Y-54810D01*
X28785Y-54836D01*
X28807Y-54858D01*
X28833Y-54875D01*
X28861Y-54887D01*
X28892Y-54893D01*
X28923Y-54893D01*
X29230Y-54893D01*
X29230Y-55374D01*
X28545Y-55374D01*
X28474Y-55367D01*
X28407Y-55346D01*
X28346Y-55314D01*
X28292Y-55270D01*
X28248Y-55216D01*
X28216Y-55155D01*
X28195Y-55088D01*
X28188Y-55017D01*
X28188Y-52856D01*
X28195Y-52785D01*
X28216Y-52718D01*
X28248Y-52657D01*
X28292Y-52603D01*
X28346Y-52559D01*
X28407Y-52527D01*
X28474Y-52506D01*
X28545Y-52500D01*
X30509Y-52500D01*
X30580Y-52506D01*
X30647Y-52527D01*
X30708Y-52559D01*
X30762Y-52603D01*
X30806Y-52657D01*
X30838Y-52718D01*
X30859Y-52785D01*
X30866Y-52856D01*
X30866Y-55017D01*
G54D10*
G36*
X40314Y-55017D02*
X40307Y-55088D01*
X40287Y-55155D01*
X40255Y-55216D01*
X40211Y-55270D01*
X40157Y-55314D01*
X40096Y-55346D01*
X40029Y-55367D01*
X39958Y-55374D01*
X37994Y-55374D01*
X37923Y-55367D01*
X37856Y-55346D01*
X37795Y-55314D01*
X37741Y-55270D01*
X37697Y-55216D01*
X37664Y-55155D01*
X37644Y-55088D01*
X37637Y-55017D01*
X37637Y-52856D01*
X37644Y-52785D01*
X37664Y-52718D01*
X37697Y-52657D01*
X37741Y-52603D01*
X37795Y-52559D01*
X37856Y-52527D01*
X37923Y-52506D01*
X37994Y-52500D01*
X38678Y-52500D01*
X38678Y-52980D01*
X38340Y-52980D01*
X38309Y-52986D01*
X38281Y-52998D01*
X38255Y-53015D01*
X38233Y-53037D01*
X38216Y-53063D01*
X38204Y-53091D01*
X38198Y-53122D01*
X38198Y-53153D01*
X38198Y-53428D01*
X38204Y-53459D01*
X38216Y-53487D01*
X38233Y-53513D01*
X38255Y-53535D01*
X38281Y-53552D01*
X38309Y-53564D01*
X38340Y-53570D01*
X38365Y-53570D01*
X38365Y-53633D01*
X38371Y-53664D01*
X38383Y-53692D01*
X38400Y-53718D01*
X38422Y-53740D01*
X38448Y-53757D01*
X38477Y-53769D01*
X38507Y-53775D01*
X38538Y-53775D01*
X39444Y-53775D01*
X39474Y-53769D01*
X39503Y-53757D01*
X39529Y-53740D01*
X39551Y-53718D01*
X39568Y-53692D01*
X39580Y-53664D01*
X39586Y-53633D01*
X39586Y-53602D01*
X39586Y-53570D01*
X39611Y-53570D01*
X39642Y-53564D01*
X39670Y-53552D01*
X39696Y-53535D01*
X39718Y-53513D01*
X39735Y-53487D01*
X39747Y-53459D01*
X39753Y-53428D01*
X39753Y-53397D01*
X39753Y-53122D01*
X39747Y-53091D01*
X39735Y-53063D01*
X39718Y-53037D01*
X39696Y-53015D01*
X39670Y-52998D01*
X39642Y-52986D01*
X39611Y-52980D01*
X39580Y-52980D01*
X39273Y-52980D01*
X39273Y-52500D01*
X39958Y-52500D01*
X40029Y-52506D01*
X40096Y-52527D01*
X40157Y-52559D01*
X40211Y-52603D01*
X40255Y-52657D01*
X40287Y-52718D01*
X40307Y-52785D01*
X40314Y-52856D01*
X40314Y-55017D01*
X40314Y-55017D01*
G37*
G54D31*
X40314Y-55017D02*
X40307Y-55088D01*
X40287Y-55155D01*
X40255Y-55216D01*
X40211Y-55270D01*
X40157Y-55314D01*
X40096Y-55346D01*
X40029Y-55367D01*
X39958Y-55374D01*
X37994Y-55374D01*
X37923Y-55367D01*
X37856Y-55346D01*
X37795Y-55314D01*
X37741Y-55270D01*
X37697Y-55216D01*
X37664Y-55155D01*
X37644Y-55088D01*
X37637Y-55017D01*
X37637Y-52856D01*
X37644Y-52785D01*
X37664Y-52718D01*
X37697Y-52657D01*
X37741Y-52603D01*
X37795Y-52559D01*
X37856Y-52527D01*
X37923Y-52506D01*
X37994Y-52500D01*
X38678Y-52500D01*
X38678Y-52980D01*
X38340Y-52980D01*
X38309Y-52986D01*
X38281Y-52998D01*
X38255Y-53015D01*
X38233Y-53037D01*
X38216Y-53063D01*
X38204Y-53091D01*
X38198Y-53122D01*
X38198Y-53153D01*
X38198Y-53428D01*
X38204Y-53459D01*
X38216Y-53487D01*
X38233Y-53513D01*
X38255Y-53535D01*
X38281Y-53552D01*
X38309Y-53564D01*
X38340Y-53570D01*
X38365Y-53570D01*
X38365Y-53633D01*
X38371Y-53664D01*
X38383Y-53692D01*
X38400Y-53718D01*
X38422Y-53740D01*
X38448Y-53757D01*
X38477Y-53769D01*
X38507Y-53775D01*
X38538Y-53775D01*
X39444Y-53775D01*
X39474Y-53769D01*
X39503Y-53757D01*
X39529Y-53740D01*
X39551Y-53718D01*
X39568Y-53692D01*
X39580Y-53664D01*
X39586Y-53633D01*
X39586Y-53602D01*
X39586Y-53570D01*
X39611Y-53570D01*
X39642Y-53564D01*
X39670Y-53552D01*
X39696Y-53535D01*
X39718Y-53513D01*
X39735Y-53487D01*
X39747Y-53459D01*
X39753Y-53428D01*
X39753Y-53397D01*
X39753Y-53122D01*
X39747Y-53091D01*
X39735Y-53063D01*
X39718Y-53037D01*
X39696Y-53015D01*
X39670Y-52998D01*
X39642Y-52986D01*
X39611Y-52980D01*
X39580Y-52980D01*
X39273Y-52980D01*
X39273Y-52500D01*
X39958Y-52500D01*
X40029Y-52506D01*
X40096Y-52527D01*
X40157Y-52559D01*
X40211Y-52603D01*
X40255Y-52657D01*
X40287Y-52718D01*
X40307Y-52785D01*
X40314Y-52856D01*
X40314Y-55017D01*
M02*
