G04 (created by PCBNEW-RS274X (2012-jan-04)-stable) date Mon 29 Oct 2012 09:14:22 AM CET*
G01*
G70*
G90*
%MOIN*%
G04 Gerber Fmt 3.4, Leading zero omitted, Abs format*
%FSLAX34Y34*%
G04 APERTURE LIST*
%ADD10C,0.006000*%
%ADD11C,0.010000*%
%ADD12C,0.008000*%
%ADD13C,0.015000*%
%ADD14C,0.002600*%
%ADD15C,0.004000*%
%ADD16C,0.000100*%
%ADD17C,0.002000*%
%ADD18R,0.063000X0.061000*%
%ADD19R,0.025600X0.033900*%
%ADD20R,0.066900X0.033900*%
%ADD21R,0.027600X0.063000*%
%ADD22R,0.039400X0.086600*%
%ADD23R,0.070900X0.133900*%
%ADD24C,0.075000*%
%ADD25R,0.098400X0.177200*%
%ADD26C,0.160000*%
%ADD27R,0.059000X0.051100*%
%ADD28R,0.108300X0.108300*%
%ADD29R,0.051100X0.059000*%
%ADD30R,0.062900X0.070800*%
G04 APERTURE END LIST*
G54D10*
G54D11*
X38937Y-43780D02*
X38622Y-43543D01*
X38937Y-43307D02*
X38937Y-43780D01*
X38622Y-43543D02*
X38937Y-43307D01*
G54D12*
X39249Y-43647D02*
X39287Y-43666D01*
X39363Y-43666D01*
X39402Y-43647D01*
X39421Y-43609D01*
X39421Y-43590D01*
X39402Y-43552D01*
X39363Y-43533D01*
X39306Y-43533D01*
X39268Y-43514D01*
X39249Y-43475D01*
X39249Y-43456D01*
X39268Y-43418D01*
X39306Y-43399D01*
X39363Y-43399D01*
X39402Y-43418D01*
X39649Y-43666D02*
X39611Y-43647D01*
X39592Y-43628D01*
X39573Y-43590D01*
X39573Y-43475D01*
X39592Y-43437D01*
X39611Y-43418D01*
X39649Y-43399D01*
X39707Y-43399D01*
X39745Y-43418D01*
X39764Y-43437D01*
X39783Y-43475D01*
X39783Y-43590D01*
X39764Y-43628D01*
X39745Y-43647D01*
X39707Y-43666D01*
X39649Y-43666D01*
X39897Y-43399D02*
X40049Y-43399D01*
X39954Y-43666D02*
X39954Y-43323D01*
X39973Y-43285D01*
X40011Y-43266D01*
X40049Y-43266D01*
X40126Y-43399D02*
X40278Y-43399D01*
X40183Y-43266D02*
X40183Y-43609D01*
X40202Y-43647D01*
X40240Y-43666D01*
X40278Y-43666D01*
X40412Y-43514D02*
X40717Y-43514D01*
X40888Y-43647D02*
X40926Y-43666D01*
X41002Y-43666D01*
X41041Y-43647D01*
X41060Y-43609D01*
X41060Y-43590D01*
X41041Y-43552D01*
X41002Y-43533D01*
X40945Y-43533D01*
X40907Y-43514D01*
X40888Y-43475D01*
X40888Y-43456D01*
X40907Y-43418D01*
X40945Y-43399D01*
X41002Y-43399D01*
X41041Y-43418D01*
X41174Y-43399D02*
X41326Y-43399D01*
X41231Y-43266D02*
X41231Y-43609D01*
X41250Y-43647D01*
X41288Y-43666D01*
X41326Y-43666D01*
X41632Y-43666D02*
X41632Y-43456D01*
X41613Y-43418D01*
X41575Y-43399D01*
X41498Y-43399D01*
X41460Y-43418D01*
X41632Y-43647D02*
X41594Y-43666D01*
X41498Y-43666D01*
X41460Y-43647D01*
X41441Y-43609D01*
X41441Y-43571D01*
X41460Y-43533D01*
X41498Y-43514D01*
X41594Y-43514D01*
X41632Y-43494D01*
X41822Y-43666D02*
X41822Y-43399D01*
X41822Y-43475D02*
X41841Y-43437D01*
X41860Y-43418D01*
X41898Y-43399D01*
X41937Y-43399D01*
X42013Y-43399D02*
X42165Y-43399D01*
X42070Y-43266D02*
X42070Y-43609D01*
X42089Y-43647D01*
X42127Y-43666D01*
X42165Y-43666D01*
X39383Y-44458D02*
X39363Y-44439D01*
X39325Y-44382D01*
X39306Y-44344D01*
X39287Y-44287D01*
X39268Y-44192D01*
X39268Y-44115D01*
X39287Y-44020D01*
X39306Y-43963D01*
X39325Y-43925D01*
X39363Y-43868D01*
X39383Y-43849D01*
X39592Y-44306D02*
X39554Y-44287D01*
X39535Y-44268D01*
X39516Y-44230D01*
X39516Y-44115D01*
X39535Y-44077D01*
X39554Y-44058D01*
X39592Y-44039D01*
X39650Y-44039D01*
X39688Y-44058D01*
X39707Y-44077D01*
X39726Y-44115D01*
X39726Y-44230D01*
X39707Y-44268D01*
X39688Y-44287D01*
X39650Y-44306D01*
X39592Y-44306D01*
X39897Y-44039D02*
X39897Y-44439D01*
X39897Y-44058D02*
X39935Y-44039D01*
X40012Y-44039D01*
X40050Y-44058D01*
X40069Y-44077D01*
X40088Y-44115D01*
X40088Y-44230D01*
X40069Y-44268D01*
X40050Y-44287D01*
X40012Y-44306D01*
X39935Y-44306D01*
X39897Y-44287D01*
X40202Y-44039D02*
X40354Y-44039D01*
X40259Y-43906D02*
X40259Y-44249D01*
X40278Y-44287D01*
X40316Y-44306D01*
X40354Y-44306D01*
X40488Y-44268D02*
X40507Y-44287D01*
X40488Y-44306D01*
X40469Y-44287D01*
X40488Y-44268D01*
X40488Y-44306D01*
X40640Y-44458D02*
X40659Y-44439D01*
X40697Y-44382D01*
X40716Y-44344D01*
X40735Y-44287D01*
X40754Y-44192D01*
X40754Y-44115D01*
X40735Y-44020D01*
X40716Y-43963D01*
X40697Y-43925D01*
X40659Y-43868D01*
X40640Y-43849D01*
G54D13*
X43999Y-55512D02*
X43970Y-55799D01*
X43887Y-56075D01*
X43751Y-56330D01*
X43569Y-56554D01*
X43347Y-56738D01*
X43093Y-56875D01*
X42817Y-56960D01*
X42530Y-56990D01*
X42243Y-56964D01*
X41966Y-56883D01*
X41711Y-56749D01*
X41486Y-56568D01*
X41300Y-56347D01*
X41161Y-56094D01*
X41074Y-55819D01*
X41042Y-55532D01*
X41066Y-55246D01*
X41145Y-54968D01*
X41277Y-54711D01*
X41457Y-54485D01*
X41676Y-54298D01*
X41928Y-54157D01*
X42203Y-54068D01*
X42490Y-54034D01*
X42776Y-54056D01*
X43054Y-54134D01*
X43312Y-54264D01*
X43539Y-54441D01*
X43728Y-54660D01*
X43871Y-54911D01*
X43962Y-55185D01*
X43998Y-55471D01*
X43999Y-55512D01*
X43996Y-38976D02*
X43967Y-39262D01*
X43884Y-39538D01*
X43749Y-39792D01*
X43567Y-40016D01*
X43345Y-40199D01*
X43091Y-40336D01*
X42816Y-40421D01*
X42530Y-40451D01*
X42244Y-40425D01*
X41968Y-40344D01*
X41712Y-40211D01*
X41488Y-40030D01*
X41303Y-39809D01*
X41164Y-39557D01*
X41077Y-39282D01*
X41045Y-38996D01*
X41069Y-38710D01*
X41148Y-38433D01*
X41280Y-38177D01*
X41459Y-37951D01*
X41678Y-37764D01*
X41930Y-37624D01*
X42204Y-37535D01*
X42490Y-37501D01*
X42776Y-37523D01*
X43053Y-37600D01*
X43310Y-37730D01*
X43537Y-37908D01*
X43726Y-38126D01*
X43868Y-38376D01*
X43959Y-38649D01*
X43995Y-38935D01*
X43996Y-38976D01*
X27460Y-55512D02*
X27431Y-55798D01*
X27348Y-56074D01*
X27213Y-56328D01*
X27031Y-56552D01*
X26809Y-56735D01*
X26555Y-56872D01*
X26280Y-56957D01*
X25994Y-56987D01*
X25708Y-56961D01*
X25432Y-56880D01*
X25176Y-56747D01*
X24952Y-56566D01*
X24767Y-56345D01*
X24628Y-56093D01*
X24541Y-55818D01*
X24509Y-55532D01*
X24533Y-55246D01*
X24612Y-54969D01*
X24744Y-54713D01*
X24923Y-54487D01*
X25142Y-54300D01*
X25394Y-54160D01*
X25668Y-54071D01*
X25954Y-54037D01*
X26240Y-54059D01*
X26517Y-54136D01*
X26774Y-54266D01*
X27001Y-54444D01*
X27190Y-54662D01*
X27332Y-54912D01*
X27423Y-55185D01*
X27459Y-55471D01*
X27460Y-55512D01*
X27460Y-38976D02*
X27431Y-39262D01*
X27348Y-39538D01*
X27213Y-39792D01*
X27031Y-40016D01*
X26809Y-40199D01*
X26555Y-40336D01*
X26280Y-40421D01*
X25994Y-40451D01*
X25708Y-40425D01*
X25432Y-40344D01*
X25176Y-40211D01*
X24952Y-40030D01*
X24767Y-39809D01*
X24628Y-39557D01*
X24541Y-39282D01*
X24509Y-38996D01*
X24533Y-38710D01*
X24612Y-38433D01*
X24744Y-38177D01*
X24923Y-37951D01*
X25142Y-37764D01*
X25394Y-37624D01*
X25668Y-37535D01*
X25954Y-37501D01*
X26240Y-37523D01*
X26517Y-37600D01*
X26774Y-37730D01*
X27001Y-37908D01*
X27190Y-38126D01*
X27332Y-38376D01*
X27423Y-38649D01*
X27459Y-38935D01*
X27460Y-38976D01*
G54D12*
X32211Y-38351D02*
X32020Y-38351D01*
X32020Y-37951D01*
X32344Y-38141D02*
X32478Y-38141D01*
X32535Y-38351D02*
X32344Y-38351D01*
X32344Y-37951D01*
X32535Y-37951D01*
X32706Y-38351D02*
X32706Y-37951D01*
X32801Y-37951D01*
X32859Y-37970D01*
X32897Y-38008D01*
X32916Y-38046D01*
X32935Y-38122D01*
X32935Y-38179D01*
X32916Y-38256D01*
X32897Y-38294D01*
X32859Y-38332D01*
X32801Y-38351D01*
X32706Y-38351D01*
X33392Y-38332D02*
X33449Y-38351D01*
X33545Y-38351D01*
X33583Y-38332D01*
X33602Y-38313D01*
X33621Y-38275D01*
X33621Y-38237D01*
X33602Y-38199D01*
X33583Y-38179D01*
X33545Y-38160D01*
X33468Y-38141D01*
X33430Y-38122D01*
X33411Y-38103D01*
X33392Y-38065D01*
X33392Y-38027D01*
X33411Y-37989D01*
X33430Y-37970D01*
X33468Y-37951D01*
X33564Y-37951D01*
X33621Y-37970D01*
X33964Y-38084D02*
X33964Y-38484D01*
X33964Y-38332D02*
X33926Y-38351D01*
X33849Y-38351D01*
X33811Y-38332D01*
X33792Y-38313D01*
X33773Y-38275D01*
X33773Y-38160D01*
X33792Y-38122D01*
X33811Y-38103D01*
X33849Y-38084D01*
X33926Y-38084D01*
X33964Y-38103D01*
X34326Y-38084D02*
X34326Y-38351D01*
X34154Y-38084D02*
X34154Y-38294D01*
X34173Y-38332D01*
X34211Y-38351D01*
X34269Y-38351D01*
X34307Y-38332D01*
X34326Y-38313D01*
X34688Y-38351D02*
X34688Y-38141D01*
X34669Y-38103D01*
X34631Y-38084D01*
X34554Y-38084D01*
X34516Y-38103D01*
X34688Y-38332D02*
X34650Y-38351D01*
X34554Y-38351D01*
X34516Y-38332D01*
X34497Y-38294D01*
X34497Y-38256D01*
X34516Y-38218D01*
X34554Y-38199D01*
X34650Y-38199D01*
X34688Y-38179D01*
X34878Y-38351D02*
X34878Y-38084D01*
X34878Y-38160D02*
X34897Y-38122D01*
X34916Y-38103D01*
X34954Y-38084D01*
X34993Y-38084D01*
X35279Y-38332D02*
X35241Y-38351D01*
X35164Y-38351D01*
X35126Y-38332D01*
X35107Y-38294D01*
X35107Y-38141D01*
X35126Y-38103D01*
X35164Y-38084D01*
X35241Y-38084D01*
X35279Y-38103D01*
X35298Y-38141D01*
X35298Y-38179D01*
X35107Y-38218D01*
X35717Y-37951D02*
X35850Y-38351D01*
X35984Y-37951D01*
X36193Y-37951D02*
X36232Y-37951D01*
X36270Y-37970D01*
X36289Y-37989D01*
X36308Y-38027D01*
X36327Y-38103D01*
X36327Y-38199D01*
X36308Y-38275D01*
X36289Y-38313D01*
X36270Y-38332D01*
X36232Y-38351D01*
X36193Y-38351D01*
X36155Y-38332D01*
X36136Y-38313D01*
X36117Y-38275D01*
X36098Y-38199D01*
X36098Y-38103D01*
X36117Y-38027D01*
X36136Y-37989D01*
X36155Y-37970D01*
X36193Y-37951D01*
X36498Y-38313D02*
X36517Y-38332D01*
X36498Y-38351D01*
X36479Y-38332D01*
X36498Y-38313D01*
X36498Y-38351D01*
X36898Y-38351D02*
X36669Y-38351D01*
X36783Y-38351D02*
X36783Y-37951D01*
X36745Y-38008D01*
X36707Y-38046D01*
X36669Y-38065D01*
X29954Y-56050D02*
X29973Y-56031D01*
X30011Y-56012D01*
X30107Y-56012D01*
X30145Y-56031D01*
X30164Y-56050D01*
X30183Y-56088D01*
X30183Y-56126D01*
X30164Y-56183D01*
X29935Y-56412D01*
X30183Y-56412D01*
X30430Y-56012D02*
X30469Y-56012D01*
X30507Y-56031D01*
X30526Y-56050D01*
X30545Y-56088D01*
X30564Y-56164D01*
X30564Y-56260D01*
X30545Y-56336D01*
X30526Y-56374D01*
X30507Y-56393D01*
X30469Y-56412D01*
X30430Y-56412D01*
X30392Y-56393D01*
X30373Y-56374D01*
X30354Y-56336D01*
X30335Y-56260D01*
X30335Y-56164D01*
X30354Y-56088D01*
X30373Y-56050D01*
X30392Y-56031D01*
X30430Y-56012D01*
X30945Y-56412D02*
X30716Y-56412D01*
X30830Y-56412D02*
X30830Y-56012D01*
X30792Y-56069D01*
X30754Y-56107D01*
X30716Y-56126D01*
X31097Y-56050D02*
X31116Y-56031D01*
X31154Y-56012D01*
X31250Y-56012D01*
X31288Y-56031D01*
X31307Y-56050D01*
X31326Y-56088D01*
X31326Y-56126D01*
X31307Y-56183D01*
X31078Y-56412D01*
X31326Y-56412D01*
X31802Y-56260D02*
X32107Y-56260D01*
X32602Y-56412D02*
X32602Y-56012D01*
X32602Y-56164D02*
X32640Y-56145D01*
X32717Y-56145D01*
X32755Y-56164D01*
X32774Y-56183D01*
X32793Y-56221D01*
X32793Y-56336D01*
X32774Y-56374D01*
X32755Y-56393D01*
X32717Y-56412D01*
X32640Y-56412D01*
X32602Y-56393D01*
X33021Y-56412D02*
X32983Y-56393D01*
X32964Y-56355D01*
X32964Y-56012D01*
X33231Y-56412D02*
X33193Y-56393D01*
X33174Y-56374D01*
X33155Y-56336D01*
X33155Y-56221D01*
X33174Y-56183D01*
X33193Y-56164D01*
X33231Y-56145D01*
X33289Y-56145D01*
X33327Y-56164D01*
X33346Y-56183D01*
X33365Y-56221D01*
X33365Y-56336D01*
X33346Y-56374D01*
X33327Y-56393D01*
X33289Y-56412D01*
X33231Y-56412D01*
X33708Y-56145D02*
X33708Y-56469D01*
X33689Y-56507D01*
X33670Y-56526D01*
X33631Y-56545D01*
X33574Y-56545D01*
X33536Y-56526D01*
X33708Y-56393D02*
X33670Y-56412D01*
X33593Y-56412D01*
X33555Y-56393D01*
X33536Y-56374D01*
X33517Y-56336D01*
X33517Y-56221D01*
X33536Y-56183D01*
X33555Y-56164D01*
X33593Y-56145D01*
X33670Y-56145D01*
X33708Y-56164D01*
X33898Y-56374D02*
X33917Y-56393D01*
X33898Y-56412D01*
X33879Y-56393D01*
X33898Y-56374D01*
X33898Y-56412D01*
X34069Y-56393D02*
X34107Y-56412D01*
X34183Y-56412D01*
X34222Y-56393D01*
X34241Y-56355D01*
X34241Y-56336D01*
X34222Y-56298D01*
X34183Y-56279D01*
X34126Y-56279D01*
X34088Y-56260D01*
X34069Y-56221D01*
X34069Y-56202D01*
X34088Y-56164D01*
X34126Y-56145D01*
X34183Y-56145D01*
X34222Y-56164D01*
X34412Y-56145D02*
X34412Y-56545D01*
X34412Y-56164D02*
X34450Y-56145D01*
X34527Y-56145D01*
X34565Y-56164D01*
X34584Y-56183D01*
X34603Y-56221D01*
X34603Y-56336D01*
X34584Y-56374D01*
X34565Y-56393D01*
X34527Y-56412D01*
X34450Y-56412D01*
X34412Y-56393D01*
X34774Y-56412D02*
X34774Y-56145D01*
X34774Y-56012D02*
X34755Y-56031D01*
X34774Y-56050D01*
X34793Y-56031D01*
X34774Y-56012D01*
X34774Y-56050D01*
X34907Y-56145D02*
X35059Y-56145D01*
X34964Y-56012D02*
X34964Y-56355D01*
X34983Y-56393D01*
X35021Y-56412D01*
X35059Y-56412D01*
X35155Y-56145D02*
X35365Y-56145D01*
X35155Y-56412D01*
X35365Y-56412D01*
X35670Y-56393D02*
X35632Y-56412D01*
X35555Y-56412D01*
X35517Y-56393D01*
X35498Y-56355D01*
X35498Y-56202D01*
X35517Y-56164D01*
X35555Y-56145D01*
X35632Y-56145D01*
X35670Y-56164D01*
X35689Y-56202D01*
X35689Y-56240D01*
X35498Y-56279D01*
X35860Y-56145D02*
X35860Y-56412D01*
X35860Y-56183D02*
X35879Y-56164D01*
X35917Y-56145D01*
X35975Y-56145D01*
X36013Y-56164D01*
X36032Y-56202D01*
X36032Y-56412D01*
X36222Y-56145D02*
X36222Y-56545D01*
X36222Y-56164D02*
X36260Y-56145D01*
X36337Y-56145D01*
X36375Y-56164D01*
X36394Y-56183D01*
X36413Y-56221D01*
X36413Y-56336D01*
X36394Y-56374D01*
X36375Y-56393D01*
X36337Y-56412D01*
X36260Y-56412D01*
X36222Y-56393D01*
X36527Y-56145D02*
X36679Y-56145D01*
X36584Y-56412D02*
X36584Y-56069D01*
X36603Y-56031D01*
X36641Y-56012D01*
X36679Y-56012D01*
X36966Y-56393D02*
X36928Y-56412D01*
X36851Y-56412D01*
X36813Y-56393D01*
X36794Y-56355D01*
X36794Y-56202D01*
X36813Y-56164D01*
X36851Y-56145D01*
X36928Y-56145D01*
X36966Y-56164D01*
X36985Y-56202D01*
X36985Y-56240D01*
X36794Y-56279D01*
X37156Y-56412D02*
X37156Y-56145D01*
X37156Y-56012D02*
X37137Y-56031D01*
X37156Y-56050D01*
X37175Y-56031D01*
X37156Y-56012D01*
X37156Y-56050D01*
X37403Y-56412D02*
X37365Y-56393D01*
X37346Y-56355D01*
X37346Y-56012D01*
X37556Y-56374D02*
X37575Y-56393D01*
X37556Y-56412D01*
X37537Y-56393D01*
X37556Y-56374D01*
X37556Y-56412D01*
X37803Y-56412D02*
X37765Y-56393D01*
X37746Y-56374D01*
X37727Y-56336D01*
X37727Y-56221D01*
X37746Y-56183D01*
X37765Y-56164D01*
X37803Y-56145D01*
X37861Y-56145D01*
X37899Y-56164D01*
X37918Y-56183D01*
X37937Y-56221D01*
X37937Y-56336D01*
X37918Y-56374D01*
X37899Y-56393D01*
X37861Y-56412D01*
X37803Y-56412D01*
X38108Y-56412D02*
X38108Y-56145D01*
X38108Y-56221D02*
X38127Y-56183D01*
X38146Y-56164D01*
X38184Y-56145D01*
X38223Y-56145D01*
X38528Y-56145D02*
X38528Y-56469D01*
X38509Y-56507D01*
X38490Y-56526D01*
X38451Y-56545D01*
X38394Y-56545D01*
X38356Y-56526D01*
X38528Y-56393D02*
X38490Y-56412D01*
X38413Y-56412D01*
X38375Y-56393D01*
X38356Y-56374D01*
X38337Y-56336D01*
X38337Y-56221D01*
X38356Y-56183D01*
X38375Y-56164D01*
X38413Y-56145D01*
X38490Y-56145D01*
X38528Y-56164D01*
G54D13*
X30119Y-40551D02*
X28937Y-40551D01*
X29292Y-40866D02*
X29292Y-40236D01*
X28937Y-41063D02*
X28937Y-40039D01*
X30119Y-41063D02*
X30119Y-40039D01*
X29764Y-40551D02*
X29764Y-40236D01*
X29764Y-40551D02*
X29764Y-40866D01*
X29725Y-40551D02*
X29292Y-40866D01*
X29292Y-40236D02*
X29725Y-40551D01*
X30907Y-41063D02*
X28151Y-41063D01*
X28151Y-41063D02*
X28151Y-40039D01*
X28151Y-40039D02*
X30907Y-40039D01*
X30907Y-40039D02*
X30907Y-41063D01*
X34803Y-42796D02*
X36693Y-42796D01*
X36693Y-42796D02*
X36693Y-45316D01*
X36693Y-45316D02*
X34803Y-45316D01*
X34803Y-45316D02*
X34803Y-42796D01*
X43070Y-44244D02*
X43070Y-50244D01*
X42086Y-50244D02*
X43070Y-50244D01*
X42086Y-44244D02*
X43070Y-44244D01*
X42086Y-50244D02*
X42086Y-44244D01*
X43070Y-44744D02*
X45433Y-44744D01*
X43070Y-45744D02*
X45433Y-45744D01*
X43070Y-46744D02*
X45433Y-46744D01*
X45433Y-47744D02*
X43070Y-47744D01*
X43070Y-48744D02*
X45433Y-48744D01*
X43070Y-49744D02*
X45433Y-49744D01*
X42086Y-45244D02*
X43070Y-45244D01*
X42086Y-46244D02*
X43070Y-46244D01*
X42086Y-49244D02*
X43070Y-49244D01*
X42086Y-48244D02*
X43070Y-48244D01*
X42086Y-47244D02*
X43070Y-47244D01*
X26536Y-44244D02*
X23347Y-44244D01*
X23347Y-44244D02*
X23347Y-50244D01*
X23347Y-50244D02*
X26536Y-50244D01*
X26536Y-44244D02*
X26536Y-50244D01*
G54D14*
X33312Y-47894D02*
X33687Y-47894D01*
X33687Y-47894D02*
X33687Y-46595D01*
X33312Y-46595D02*
X33687Y-46595D01*
X33312Y-47894D02*
X33312Y-46595D01*
X34822Y-47894D02*
X35196Y-47894D01*
X35196Y-47894D02*
X35196Y-46595D01*
X34822Y-46595D02*
X35196Y-46595D01*
X34822Y-47894D02*
X34822Y-46595D01*
G54D15*
X33672Y-46614D02*
X34832Y-46614D01*
X33682Y-47874D02*
X34832Y-47874D01*
G54D13*
X26884Y-55512D02*
X26866Y-55686D01*
X26816Y-55854D01*
X26733Y-56010D01*
X26622Y-56146D01*
X26487Y-56258D01*
X26332Y-56341D01*
X26164Y-56393D01*
X25990Y-56411D01*
X25816Y-56396D01*
X25647Y-56346D01*
X25492Y-56265D01*
X25355Y-56155D01*
X25242Y-56020D01*
X25157Y-55866D01*
X25104Y-55699D01*
X25085Y-55524D01*
X25099Y-55350D01*
X25148Y-55181D01*
X25228Y-55025D01*
X25337Y-54887D01*
X25471Y-54773D01*
X25624Y-54688D01*
X25791Y-54633D01*
X25966Y-54613D01*
X26140Y-54626D01*
X26309Y-54673D01*
X26466Y-54753D01*
X26604Y-54861D01*
X26719Y-54994D01*
X26806Y-55146D01*
X26861Y-55313D01*
X26883Y-55487D01*
X26884Y-55512D01*
X43420Y-55512D02*
X43402Y-55686D01*
X43352Y-55854D01*
X43269Y-56010D01*
X43158Y-56146D01*
X43023Y-56258D01*
X42868Y-56341D01*
X42700Y-56393D01*
X42526Y-56411D01*
X42352Y-56396D01*
X42183Y-56346D01*
X42028Y-56265D01*
X41891Y-56155D01*
X41778Y-56020D01*
X41693Y-55866D01*
X41640Y-55699D01*
X41621Y-55524D01*
X41635Y-55350D01*
X41684Y-55181D01*
X41764Y-55025D01*
X41873Y-54887D01*
X42007Y-54773D01*
X42160Y-54688D01*
X42327Y-54633D01*
X42502Y-54613D01*
X42676Y-54626D01*
X42845Y-54673D01*
X43002Y-54753D01*
X43140Y-54861D01*
X43255Y-54994D01*
X43342Y-55146D01*
X43397Y-55313D01*
X43419Y-55487D01*
X43420Y-55512D01*
X43420Y-38976D02*
X43402Y-39150D01*
X43352Y-39318D01*
X43269Y-39474D01*
X43158Y-39610D01*
X43023Y-39722D01*
X42868Y-39805D01*
X42700Y-39857D01*
X42526Y-39875D01*
X42352Y-39860D01*
X42183Y-39810D01*
X42028Y-39729D01*
X41891Y-39619D01*
X41778Y-39484D01*
X41693Y-39330D01*
X41640Y-39163D01*
X41621Y-38988D01*
X41635Y-38814D01*
X41684Y-38645D01*
X41764Y-38489D01*
X41873Y-38351D01*
X42007Y-38237D01*
X42160Y-38152D01*
X42327Y-38097D01*
X42502Y-38077D01*
X42676Y-38090D01*
X42845Y-38137D01*
X43002Y-38217D01*
X43140Y-38325D01*
X43255Y-38458D01*
X43342Y-38610D01*
X43397Y-38777D01*
X43419Y-38951D01*
X43420Y-38976D01*
X26884Y-38976D02*
X26866Y-39150D01*
X26816Y-39318D01*
X26733Y-39474D01*
X26622Y-39610D01*
X26487Y-39722D01*
X26332Y-39805D01*
X26164Y-39857D01*
X25990Y-39875D01*
X25816Y-39860D01*
X25647Y-39810D01*
X25492Y-39729D01*
X25355Y-39619D01*
X25242Y-39484D01*
X25157Y-39330D01*
X25104Y-39163D01*
X25085Y-38988D01*
X25099Y-38814D01*
X25148Y-38645D01*
X25228Y-38489D01*
X25337Y-38351D01*
X25471Y-38237D01*
X25624Y-38152D01*
X25791Y-38097D01*
X25966Y-38077D01*
X26140Y-38090D01*
X26309Y-38137D01*
X26466Y-38217D01*
X26604Y-38325D01*
X26719Y-38458D01*
X26806Y-38610D01*
X26861Y-38777D01*
X26883Y-38951D01*
X26884Y-38976D01*
G54D16*
G36*
X33652Y-41535D02*
X33666Y-41527D01*
X33697Y-41508D01*
X33741Y-41479D01*
X33793Y-41445D01*
X33845Y-41409D01*
X33888Y-41381D01*
X33918Y-41361D01*
X33930Y-41354D01*
X33937Y-41357D01*
X33962Y-41369D01*
X33997Y-41387D01*
X34018Y-41398D01*
X34051Y-41412D01*
X34068Y-41415D01*
X34070Y-41411D01*
X34082Y-41386D01*
X34101Y-41343D01*
X34126Y-41286D01*
X34155Y-41219D01*
X34185Y-41147D01*
X34216Y-41074D01*
X34245Y-41004D01*
X34270Y-40941D01*
X34291Y-40889D01*
X34305Y-40854D01*
X34310Y-40839D01*
X34308Y-40835D01*
X34292Y-40819D01*
X34263Y-40798D01*
X34201Y-40747D01*
X34139Y-40671D01*
X34102Y-40584D01*
X34089Y-40487D01*
X34100Y-40397D01*
X34135Y-40311D01*
X34195Y-40234D01*
X34268Y-40176D01*
X34353Y-40140D01*
X34449Y-40128D01*
X34540Y-40138D01*
X34628Y-40173D01*
X34706Y-40232D01*
X34739Y-40270D01*
X34784Y-40348D01*
X34809Y-40432D01*
X34812Y-40454D01*
X34808Y-40546D01*
X34781Y-40634D01*
X34732Y-40713D01*
X34665Y-40778D01*
X34656Y-40784D01*
X34625Y-40808D01*
X34604Y-40824D01*
X34587Y-40837D01*
X34705Y-41120D01*
X34724Y-41165D01*
X34756Y-41243D01*
X34784Y-41309D01*
X34807Y-41362D01*
X34823Y-41398D01*
X34830Y-41412D01*
X34830Y-41413D01*
X34841Y-41415D01*
X34862Y-41407D01*
X34902Y-41388D01*
X34928Y-41374D01*
X34958Y-41360D01*
X34972Y-41354D01*
X34983Y-41361D01*
X35012Y-41379D01*
X35054Y-41407D01*
X35105Y-41442D01*
X35153Y-41475D01*
X35197Y-41504D01*
X35229Y-41525D01*
X35245Y-41533D01*
X35247Y-41533D01*
X35261Y-41525D01*
X35287Y-41504D01*
X35325Y-41468D01*
X35380Y-41414D01*
X35388Y-41405D01*
X35433Y-41360D01*
X35469Y-41322D01*
X35494Y-41294D01*
X35503Y-41282D01*
X35503Y-41282D01*
X35495Y-41267D01*
X35474Y-41234D01*
X35445Y-41189D01*
X35409Y-41137D01*
X35315Y-41001D01*
X35367Y-40872D01*
X35383Y-40833D01*
X35403Y-40785D01*
X35418Y-40751D01*
X35425Y-40736D01*
X35439Y-40731D01*
X35474Y-40723D01*
X35525Y-40712D01*
X35586Y-40701D01*
X35644Y-40690D01*
X35696Y-40680D01*
X35734Y-40673D01*
X35751Y-40670D01*
X35755Y-40667D01*
X35759Y-40659D01*
X35761Y-40641D01*
X35762Y-40609D01*
X35763Y-40559D01*
X35763Y-40487D01*
X35763Y-40479D01*
X35762Y-40410D01*
X35761Y-40355D01*
X35759Y-40319D01*
X35757Y-40305D01*
X35757Y-40305D01*
X35740Y-40301D01*
X35703Y-40293D01*
X35651Y-40283D01*
X35589Y-40271D01*
X35585Y-40270D01*
X35523Y-40258D01*
X35470Y-40247D01*
X35434Y-40239D01*
X35419Y-40234D01*
X35415Y-40230D01*
X35403Y-40205D01*
X35385Y-40167D01*
X35364Y-40120D01*
X35344Y-40071D01*
X35327Y-40027D01*
X35315Y-39994D01*
X35311Y-39979D01*
X35311Y-39979D01*
X35321Y-39964D01*
X35342Y-39932D01*
X35372Y-39887D01*
X35409Y-39834D01*
X35411Y-39830D01*
X35447Y-39778D01*
X35476Y-39733D01*
X35495Y-39701D01*
X35503Y-39687D01*
X35502Y-39686D01*
X35491Y-39671D01*
X35464Y-39641D01*
X35426Y-39601D01*
X35380Y-39554D01*
X35365Y-39540D01*
X35314Y-39490D01*
X35278Y-39457D01*
X35256Y-39440D01*
X35246Y-39436D01*
X35245Y-39436D01*
X35229Y-39446D01*
X35196Y-39468D01*
X35151Y-39498D01*
X35098Y-39534D01*
X35094Y-39537D01*
X35042Y-39573D01*
X34998Y-39602D01*
X34967Y-39623D01*
X34953Y-39631D01*
X34951Y-39631D01*
X34929Y-39625D01*
X34892Y-39612D01*
X34846Y-39594D01*
X34797Y-39574D01*
X34753Y-39556D01*
X34720Y-39541D01*
X34705Y-39532D01*
X34704Y-39531D01*
X34699Y-39512D01*
X34690Y-39473D01*
X34678Y-39419D01*
X34666Y-39354D01*
X34664Y-39344D01*
X34652Y-39281D01*
X34642Y-39230D01*
X34635Y-39194D01*
X34631Y-39179D01*
X34622Y-39177D01*
X34592Y-39175D01*
X34545Y-39174D01*
X34489Y-39173D01*
X34429Y-39173D01*
X34371Y-39175D01*
X34322Y-39176D01*
X34286Y-39179D01*
X34271Y-39182D01*
X34271Y-39183D01*
X34265Y-39202D01*
X34257Y-39241D01*
X34246Y-39296D01*
X34233Y-39360D01*
X34231Y-39372D01*
X34219Y-39434D01*
X34209Y-39485D01*
X34201Y-39521D01*
X34197Y-39535D01*
X34192Y-39538D01*
X34166Y-39549D01*
X34124Y-39566D01*
X34072Y-39587D01*
X33952Y-39636D01*
X33804Y-39535D01*
X33791Y-39526D01*
X33738Y-39489D01*
X33694Y-39460D01*
X33664Y-39441D01*
X33651Y-39434D01*
X33650Y-39434D01*
X33635Y-39447D01*
X33606Y-39474D01*
X33566Y-39513D01*
X33520Y-39560D01*
X33485Y-39594D01*
X33445Y-39635D01*
X33419Y-39663D01*
X33405Y-39681D01*
X33400Y-39692D01*
X33401Y-39699D01*
X33411Y-39714D01*
X33432Y-39747D01*
X33463Y-39791D01*
X33499Y-39844D01*
X33528Y-39887D01*
X33560Y-39937D01*
X33581Y-39972D01*
X33588Y-39989D01*
X33586Y-39997D01*
X33576Y-40025D01*
X33559Y-40069D01*
X33536Y-40121D01*
X33485Y-40238D01*
X33409Y-40253D01*
X33362Y-40261D01*
X33297Y-40274D01*
X33235Y-40286D01*
X33138Y-40305D01*
X33135Y-40661D01*
X33150Y-40667D01*
X33164Y-40671D01*
X33200Y-40679D01*
X33251Y-40689D01*
X33312Y-40700D01*
X33363Y-40710D01*
X33415Y-40720D01*
X33453Y-40727D01*
X33469Y-40731D01*
X33473Y-40736D01*
X33486Y-40761D01*
X33505Y-40801D01*
X33525Y-40849D01*
X33546Y-40899D01*
X33564Y-40945D01*
X33577Y-40980D01*
X33582Y-40999D01*
X33575Y-41012D01*
X33555Y-41043D01*
X33527Y-41086D01*
X33491Y-41138D01*
X33456Y-41189D01*
X33426Y-41234D01*
X33406Y-41265D01*
X33397Y-41280D01*
X33401Y-41290D01*
X33422Y-41315D01*
X33461Y-41355D01*
X33519Y-41412D01*
X33528Y-41421D01*
X33574Y-41466D01*
X33613Y-41502D01*
X33640Y-41526D01*
X33652Y-41535D01*
X33652Y-41535D01*
G37*
G36*
X34696Y-54966D02*
X34725Y-54962D01*
X34753Y-54953D01*
X34765Y-54947D01*
X34790Y-54929D01*
X34810Y-54907D01*
X34825Y-54883D01*
X34835Y-54856D01*
X34839Y-54827D01*
X34838Y-54798D01*
X34831Y-54769D01*
X34818Y-54742D01*
X34810Y-54730D01*
X34797Y-54716D01*
X34784Y-54704D01*
X34771Y-54694D01*
X34767Y-54692D01*
X34742Y-54680D01*
X34716Y-54674D01*
X34686Y-54672D01*
X34677Y-54673D01*
X34660Y-54675D01*
X34646Y-54679D01*
X34631Y-54685D01*
X34614Y-54695D01*
X34590Y-54714D01*
X34570Y-54737D01*
X34556Y-54764D01*
X34552Y-54777D01*
X34548Y-54791D01*
X34546Y-54803D01*
X34546Y-54804D01*
X34546Y-54804D01*
X34545Y-54798D01*
X34544Y-54797D01*
X34540Y-54779D01*
X34533Y-54759D01*
X34524Y-54742D01*
X34508Y-54720D01*
X34485Y-54700D01*
X34459Y-54685D01*
X34430Y-54675D01*
X34399Y-54672D01*
X34391Y-54672D01*
X34368Y-54675D01*
X34346Y-54681D01*
X34342Y-54683D01*
X34317Y-54697D01*
X34295Y-54715D01*
X34276Y-54737D01*
X34263Y-54762D01*
X34255Y-54788D01*
X34254Y-54789D01*
X34253Y-54796D01*
X34252Y-54799D01*
X34252Y-54799D01*
X34251Y-54795D01*
X34249Y-54788D01*
X34249Y-54785D01*
X34240Y-54760D01*
X34226Y-54735D01*
X34207Y-54713D01*
X34190Y-54698D01*
X34164Y-54683D01*
X34136Y-54675D01*
X34105Y-54672D01*
X34083Y-54674D01*
X34053Y-54681D01*
X34027Y-54694D01*
X34003Y-54713D01*
X33984Y-54736D01*
X33981Y-54740D01*
X33975Y-54751D01*
X33970Y-54760D01*
X33968Y-54767D01*
X33964Y-54780D01*
X33961Y-54793D01*
X33959Y-54802D01*
X33959Y-54804D01*
X33958Y-54804D01*
X33957Y-54798D01*
X33954Y-54782D01*
X33947Y-54762D01*
X33938Y-54744D01*
X33921Y-54720D01*
X33898Y-54700D01*
X33872Y-54685D01*
X33843Y-54675D01*
X33812Y-54672D01*
X33785Y-54674D01*
X33756Y-54682D01*
X33730Y-54696D01*
X33706Y-54717D01*
X33695Y-54729D01*
X33684Y-54746D01*
X33675Y-54764D01*
X33669Y-54780D01*
X33665Y-54809D01*
X33666Y-54838D01*
X33672Y-54865D01*
X33683Y-54891D01*
X33700Y-54914D01*
X33720Y-54934D01*
X33743Y-54949D01*
X33770Y-54960D01*
X33800Y-54965D01*
X33803Y-54965D01*
X33833Y-54964D01*
X33861Y-54957D01*
X33888Y-54944D01*
X33897Y-54938D01*
X33917Y-54921D01*
X33934Y-54900D01*
X33946Y-54878D01*
X33950Y-54870D01*
X33953Y-54857D01*
X33957Y-54844D01*
X33958Y-54835D01*
X33958Y-54829D01*
X33959Y-54834D01*
X33959Y-54839D01*
X33962Y-54852D01*
X33967Y-54867D01*
X33971Y-54879D01*
X33978Y-54892D01*
X33996Y-54917D01*
X34019Y-54937D01*
X34045Y-54953D01*
X34074Y-54963D01*
X34079Y-54964D01*
X34099Y-54965D01*
X34120Y-54965D01*
X34139Y-54962D01*
X34159Y-54956D01*
X34187Y-54941D01*
X34211Y-54921D01*
X34212Y-54920D01*
X34229Y-54898D01*
X34242Y-54874D01*
X34249Y-54849D01*
X34250Y-54848D01*
X34251Y-54841D01*
X34252Y-54838D01*
X34253Y-54840D01*
X34254Y-54846D01*
X34254Y-54848D01*
X34258Y-54863D01*
X34265Y-54880D01*
X34273Y-54896D01*
X34286Y-54914D01*
X34309Y-54935D01*
X34335Y-54951D01*
X34364Y-54962D01*
X34369Y-54963D01*
X34389Y-54965D01*
X34410Y-54965D01*
X34429Y-54963D01*
X34446Y-54958D01*
X34473Y-54945D01*
X34497Y-54927D01*
X34518Y-54905D01*
X34533Y-54879D01*
X34536Y-54871D01*
X34540Y-54857D01*
X34543Y-54844D01*
X34545Y-54835D01*
X34545Y-54833D01*
X34545Y-54833D01*
X34546Y-54839D01*
X34547Y-54840D01*
X34551Y-54858D01*
X34558Y-54878D01*
X34567Y-54895D01*
X34571Y-54901D01*
X34590Y-54923D01*
X34613Y-54942D01*
X34638Y-54956D01*
X34666Y-54963D01*
X34696Y-54966D01*
X34696Y-54966D01*
G37*
G36*
X33508Y-54672D02*
X33526Y-54671D01*
X33543Y-54669D01*
X33563Y-54664D01*
X33590Y-54652D01*
X33615Y-54635D01*
X33635Y-54613D01*
X33650Y-54587D01*
X33660Y-54559D01*
X33664Y-54530D01*
X33662Y-54500D01*
X33655Y-54472D01*
X33641Y-54445D01*
X33623Y-54422D01*
X33599Y-54402D01*
X33592Y-54398D01*
X33563Y-54385D01*
X33534Y-54378D01*
X33503Y-54378D01*
X33473Y-54384D01*
X33449Y-54394D01*
X33424Y-54411D01*
X33402Y-54433D01*
X33386Y-54459D01*
X33374Y-54489D01*
X33372Y-54503D01*
X33371Y-54522D01*
X33371Y-54541D01*
X33374Y-54557D01*
X33375Y-54563D01*
X33387Y-54592D01*
X33404Y-54618D01*
X33426Y-54640D01*
X33453Y-54657D01*
X33466Y-54662D01*
X33482Y-54668D01*
X33498Y-54671D01*
X33508Y-54672D01*
X33508Y-54672D01*
G37*
G36*
X34990Y-54672D02*
X35020Y-54668D01*
X35049Y-54658D01*
X35077Y-54641D01*
X35082Y-54636D01*
X35103Y-54615D01*
X35119Y-54589D01*
X35130Y-54561D01*
X35132Y-54546D01*
X35133Y-54527D01*
X35133Y-54508D01*
X35130Y-54492D01*
X35129Y-54485D01*
X35117Y-54456D01*
X35100Y-54431D01*
X35079Y-54410D01*
X35053Y-54394D01*
X35025Y-54383D01*
X34995Y-54378D01*
X34983Y-54377D01*
X34954Y-54381D01*
X34926Y-54390D01*
X34901Y-54405D01*
X34880Y-54424D01*
X34862Y-54446D01*
X34849Y-54472D01*
X34842Y-54501D01*
X34840Y-54531D01*
X34842Y-54549D01*
X34845Y-54565D01*
X34851Y-54582D01*
X34863Y-54605D01*
X34882Y-54628D01*
X34905Y-54647D01*
X34931Y-54661D01*
X34960Y-54669D01*
X34990Y-54672D01*
X34990Y-54672D01*
G37*
G36*
X33215Y-54377D02*
X33236Y-54377D01*
X33254Y-54375D01*
X33275Y-54368D01*
X33302Y-54354D01*
X33327Y-54334D01*
X33343Y-54316D01*
X33358Y-54291D01*
X33367Y-54262D01*
X33369Y-54250D01*
X33370Y-54233D01*
X33370Y-54215D01*
X33368Y-54200D01*
X33365Y-54191D01*
X33354Y-54162D01*
X33337Y-54137D01*
X33315Y-54115D01*
X33288Y-54099D01*
X33278Y-54094D01*
X33259Y-54088D01*
X33240Y-54085D01*
X33218Y-54084D01*
X33204Y-54085D01*
X33188Y-54087D01*
X33174Y-54092D01*
X33158Y-54099D01*
X33148Y-54104D01*
X33124Y-54122D01*
X33104Y-54145D01*
X33088Y-54172D01*
X33079Y-54202D01*
X33078Y-54208D01*
X33077Y-54226D01*
X33077Y-54244D01*
X33079Y-54260D01*
X33081Y-54270D01*
X33093Y-54299D01*
X33110Y-54324D01*
X33131Y-54345D01*
X33157Y-54362D01*
X33187Y-54373D01*
X33196Y-54375D01*
X33215Y-54377D01*
X33215Y-54377D01*
G37*
G36*
X34395Y-54377D02*
X34424Y-54375D01*
X34452Y-54368D01*
X34469Y-54360D01*
X34494Y-54342D01*
X34515Y-54321D01*
X34531Y-54295D01*
X34541Y-54266D01*
X34543Y-54260D01*
X34546Y-54236D01*
X34545Y-54214D01*
X34539Y-54188D01*
X34527Y-54159D01*
X34510Y-54135D01*
X34488Y-54114D01*
X34462Y-54098D01*
X34432Y-54087D01*
X34413Y-54083D01*
X34423Y-54081D01*
X34425Y-54081D01*
X34446Y-54076D01*
X34468Y-54066D01*
X34489Y-54053D01*
X34492Y-54050D01*
X34513Y-54028D01*
X34529Y-54004D01*
X34540Y-53976D01*
X34545Y-53948D01*
X34544Y-53919D01*
X34538Y-53890D01*
X34525Y-53863D01*
X34525Y-53862D01*
X34506Y-53837D01*
X34484Y-53818D01*
X34459Y-53804D01*
X34432Y-53795D01*
X34404Y-53791D01*
X34376Y-53792D01*
X34348Y-53799D01*
X34321Y-53812D01*
X34297Y-53831D01*
X34284Y-53845D01*
X34270Y-53866D01*
X34259Y-53889D01*
X34254Y-53911D01*
X34253Y-53916D01*
X34252Y-53919D01*
X34251Y-53917D01*
X34250Y-53911D01*
X34245Y-53891D01*
X34236Y-53870D01*
X34224Y-53850D01*
X34217Y-53841D01*
X34194Y-53820D01*
X34169Y-53805D01*
X34141Y-53795D01*
X34111Y-53790D01*
X34081Y-53793D01*
X34062Y-53797D01*
X34034Y-53809D01*
X34010Y-53826D01*
X33989Y-53848D01*
X33973Y-53873D01*
X33963Y-53902D01*
X33960Y-53917D01*
X33959Y-53947D01*
X33964Y-53976D01*
X33975Y-54004D01*
X33991Y-54028D01*
X34012Y-54050D01*
X34038Y-54067D01*
X34050Y-54072D01*
X34063Y-54077D01*
X34076Y-54081D01*
X34086Y-54082D01*
X34087Y-54083D01*
X34087Y-54083D01*
X34080Y-54085D01*
X34066Y-54089D01*
X34046Y-54096D01*
X34029Y-54105D01*
X34020Y-54111D01*
X34000Y-54128D01*
X33983Y-54149D01*
X33970Y-54171D01*
X33963Y-54195D01*
X33959Y-54222D01*
X33959Y-54247D01*
X33960Y-54253D01*
X33968Y-54283D01*
X33982Y-54310D01*
X34002Y-54334D01*
X34018Y-54349D01*
X34045Y-54365D01*
X34074Y-54375D01*
X34085Y-54376D01*
X34101Y-54377D01*
X34118Y-54376D01*
X34134Y-54375D01*
X34145Y-54372D01*
X34155Y-54369D01*
X34184Y-54355D01*
X34208Y-54336D01*
X34228Y-54312D01*
X34235Y-54300D01*
X34244Y-54280D01*
X34249Y-54261D01*
X34250Y-54260D01*
X34251Y-54253D01*
X34252Y-54250D01*
X34252Y-54250D01*
X34252Y-54211D01*
X34252Y-54211D01*
X34251Y-54208D01*
X34249Y-54200D01*
X34249Y-54198D01*
X34240Y-54172D01*
X34226Y-54147D01*
X34207Y-54125D01*
X34185Y-54107D01*
X34160Y-54094D01*
X34159Y-54093D01*
X34146Y-54089D01*
X34133Y-54086D01*
X34120Y-54083D01*
X34133Y-54081D01*
X34150Y-54077D01*
X34176Y-54065D01*
X34201Y-54048D01*
X34221Y-54028D01*
X34237Y-54003D01*
X34242Y-53991D01*
X34247Y-53976D01*
X34250Y-53963D01*
X34251Y-53958D01*
X34252Y-53955D01*
X34253Y-53957D01*
X34254Y-53963D01*
X34256Y-53974D01*
X34261Y-53989D01*
X34267Y-54003D01*
X34276Y-54019D01*
X34295Y-54041D01*
X34318Y-54060D01*
X34344Y-54073D01*
X34372Y-54081D01*
X34385Y-54083D01*
X34371Y-54086D01*
X34369Y-54086D01*
X34356Y-54090D01*
X34344Y-54094D01*
X34341Y-54095D01*
X34317Y-54108D01*
X34295Y-54127D01*
X34276Y-54149D01*
X34263Y-54174D01*
X34255Y-54200D01*
X34254Y-54201D01*
X34253Y-54208D01*
X34252Y-54211D01*
X34252Y-54250D01*
X34252Y-54250D01*
X34253Y-54254D01*
X34255Y-54261D01*
X34260Y-54280D01*
X34272Y-54306D01*
X34290Y-54330D01*
X34312Y-54349D01*
X34338Y-54364D01*
X34338Y-54365D01*
X34365Y-54374D01*
X34395Y-54377D01*
X34395Y-54377D01*
G37*
G36*
X35270Y-54377D02*
X35294Y-54377D01*
X35315Y-54374D01*
X35329Y-54369D01*
X35357Y-54356D01*
X35381Y-54338D01*
X35401Y-54316D01*
X35415Y-54290D01*
X35424Y-54261D01*
X35428Y-54231D01*
X35427Y-54218D01*
X35422Y-54188D01*
X35410Y-54160D01*
X35391Y-54134D01*
X35386Y-54128D01*
X35366Y-54110D01*
X35341Y-54097D01*
X35315Y-54087D01*
X35314Y-54087D01*
X35292Y-54084D01*
X35269Y-54084D01*
X35247Y-54087D01*
X35238Y-54090D01*
X35211Y-54101D01*
X35186Y-54118D01*
X35166Y-54138D01*
X35150Y-54163D01*
X35139Y-54189D01*
X35134Y-54218D01*
X35134Y-54247D01*
X35141Y-54277D01*
X35151Y-54299D01*
X35168Y-54325D01*
X35190Y-54346D01*
X35215Y-54362D01*
X35244Y-54373D01*
X35247Y-54374D01*
X35270Y-54377D01*
X35270Y-54377D01*
G37*
G36*
X33816Y-53497D02*
X33845Y-53493D01*
X33873Y-53483D01*
X33887Y-53476D01*
X33900Y-53467D01*
X33914Y-53454D01*
X33929Y-53438D01*
X33944Y-53413D01*
X33954Y-53385D01*
X33956Y-53377D01*
X33958Y-53357D01*
X33958Y-53336D01*
X33956Y-53318D01*
X33948Y-53294D01*
X33934Y-53268D01*
X33916Y-53246D01*
X33913Y-53243D01*
X33899Y-53232D01*
X33884Y-53222D01*
X33869Y-53214D01*
X33864Y-53212D01*
X33852Y-53208D01*
X33840Y-53205D01*
X33831Y-53204D01*
X33826Y-53203D01*
X33832Y-53202D01*
X33839Y-53200D01*
X33848Y-53198D01*
X33858Y-53195D01*
X33881Y-53185D01*
X33902Y-53171D01*
X33920Y-53155D01*
X33923Y-53152D01*
X33940Y-53126D01*
X33952Y-53098D01*
X33958Y-53069D01*
X33958Y-53040D01*
X33957Y-53033D01*
X33949Y-53003D01*
X33935Y-52976D01*
X33915Y-52952D01*
X33897Y-52936D01*
X33872Y-52921D01*
X33843Y-52911D01*
X33837Y-52910D01*
X33817Y-52909D01*
X33796Y-52909D01*
X33778Y-52912D01*
X33761Y-52917D01*
X33734Y-52930D01*
X33710Y-52949D01*
X33691Y-52971D01*
X33676Y-52996D01*
X33668Y-53024D01*
X33667Y-53028D01*
X33665Y-53035D01*
X33663Y-53037D01*
X33663Y-53034D01*
X33662Y-53028D01*
X33659Y-53016D01*
X33655Y-53003D01*
X33650Y-52991D01*
X33645Y-52983D01*
X33627Y-52957D01*
X33604Y-52937D01*
X33579Y-52921D01*
X33550Y-52912D01*
X33519Y-52909D01*
X33494Y-52910D01*
X33466Y-52917D01*
X33440Y-52930D01*
X33425Y-52941D01*
X33404Y-52962D01*
X33387Y-52987D01*
X33376Y-53014D01*
X33371Y-53043D01*
X33371Y-53072D01*
X33377Y-53100D01*
X33390Y-53128D01*
X33407Y-53153D01*
X33430Y-53173D01*
X33456Y-53189D01*
X33486Y-53199D01*
X33503Y-53203D01*
X33494Y-53204D01*
X33487Y-53205D01*
X33464Y-53212D01*
X33440Y-53224D01*
X33419Y-53240D01*
X33402Y-53258D01*
X33392Y-53274D01*
X33381Y-53294D01*
X33374Y-53313D01*
X33372Y-53329D01*
X33371Y-53348D01*
X33371Y-53366D01*
X33374Y-53382D01*
X33379Y-53399D01*
X33392Y-53427D01*
X33411Y-53451D01*
X33435Y-53471D01*
X33462Y-53485D01*
X33493Y-53495D01*
X33500Y-53496D01*
X33518Y-53496D01*
X33537Y-53495D01*
X33554Y-53492D01*
X33566Y-53488D01*
X33594Y-53475D01*
X33618Y-53457D01*
X33638Y-53434D01*
X33652Y-53408D01*
X33662Y-53379D01*
X33662Y-53376D01*
X33664Y-53370D01*
X33665Y-53370D01*
X33665Y-53330D01*
X33663Y-53329D01*
X33662Y-53323D01*
X33662Y-53321D01*
X33657Y-53302D01*
X33647Y-53281D01*
X33635Y-53262D01*
X33626Y-53251D01*
X33603Y-53230D01*
X33577Y-53215D01*
X33547Y-53205D01*
X33533Y-53203D01*
X33543Y-53200D01*
X33552Y-53199D01*
X33561Y-53196D01*
X33567Y-53194D01*
X33594Y-53181D01*
X33618Y-53163D01*
X33637Y-53140D01*
X33652Y-53115D01*
X33661Y-53087D01*
X33663Y-53079D01*
X33664Y-53075D01*
X33666Y-53078D01*
X33668Y-53087D01*
X33668Y-53088D01*
X33672Y-53103D01*
X33680Y-53121D01*
X33689Y-53137D01*
X33696Y-53146D01*
X33709Y-53160D01*
X33724Y-53174D01*
X33738Y-53183D01*
X33739Y-53184D01*
X33762Y-53194D01*
X33786Y-53201D01*
X33796Y-53203D01*
X33784Y-53205D01*
X33758Y-53212D01*
X33732Y-53226D01*
X33709Y-53244D01*
X33690Y-53266D01*
X33685Y-53274D01*
X33678Y-53288D01*
X33672Y-53303D01*
X33668Y-53316D01*
X33666Y-53326D01*
X33666Y-53326D01*
X33665Y-53330D01*
X33665Y-53370D01*
X33665Y-53370D01*
X33667Y-53377D01*
X33669Y-53385D01*
X33671Y-53395D01*
X33677Y-53410D01*
X33692Y-53435D01*
X33711Y-53457D01*
X33734Y-53474D01*
X33760Y-53487D01*
X33787Y-53494D01*
X33816Y-53497D01*
X33816Y-53497D01*
G37*
G36*
X34700Y-53497D02*
X34729Y-53492D01*
X34757Y-53482D01*
X34781Y-53466D01*
X34803Y-53446D01*
X34820Y-53422D01*
X34833Y-53395D01*
X34835Y-53385D01*
X34837Y-53377D01*
X34837Y-53375D01*
X34839Y-53370D01*
X34839Y-53370D01*
X34839Y-53329D01*
X34838Y-53325D01*
X34835Y-53314D01*
X34830Y-53298D01*
X34817Y-53271D01*
X34799Y-53248D01*
X34777Y-53229D01*
X34751Y-53214D01*
X34722Y-53205D01*
X34708Y-53203D01*
X34718Y-53201D01*
X34719Y-53200D01*
X34743Y-53193D01*
X34766Y-53183D01*
X34775Y-53177D01*
X34790Y-53165D01*
X34804Y-53150D01*
X34815Y-53137D01*
X34823Y-53123D01*
X34831Y-53105D01*
X34836Y-53087D01*
X34838Y-53079D01*
X34839Y-53075D01*
X34841Y-53078D01*
X34843Y-53086D01*
X34848Y-53106D01*
X34862Y-53133D01*
X34881Y-53157D01*
X34903Y-53176D01*
X34930Y-53191D01*
X34961Y-53200D01*
X34971Y-53203D01*
X34957Y-53205D01*
X34943Y-53209D01*
X34915Y-53221D01*
X34890Y-53239D01*
X34869Y-53262D01*
X34863Y-53270D01*
X34855Y-53283D01*
X34848Y-53299D01*
X34845Y-53310D01*
X34842Y-53321D01*
X34842Y-53322D01*
X34841Y-53328D01*
X34839Y-53329D01*
X34839Y-53370D01*
X34840Y-53371D01*
X34842Y-53378D01*
X34845Y-53388D01*
X34853Y-53410D01*
X34865Y-53431D01*
X34873Y-53443D01*
X34895Y-53464D01*
X34921Y-53481D01*
X34951Y-53492D01*
X34964Y-53495D01*
X34984Y-53496D01*
X35005Y-53495D01*
X35023Y-53492D01*
X35025Y-53492D01*
X35054Y-53480D01*
X35080Y-53463D01*
X35102Y-53441D01*
X35118Y-53415D01*
X35130Y-53385D01*
X35132Y-53372D01*
X35133Y-53352D01*
X35133Y-53331D01*
X35130Y-53313D01*
X35124Y-53297D01*
X35114Y-53276D01*
X35102Y-53258D01*
X35089Y-53244D01*
X35071Y-53229D01*
X35052Y-53218D01*
X35045Y-53214D01*
X35031Y-53209D01*
X35017Y-53205D01*
X35006Y-53204D01*
X35005Y-53203D01*
X35009Y-53202D01*
X35018Y-53199D01*
X35035Y-53194D01*
X35054Y-53186D01*
X35070Y-53177D01*
X35073Y-53175D01*
X35092Y-53157D01*
X35109Y-53137D01*
X35122Y-53115D01*
X35126Y-53104D01*
X35132Y-53074D01*
X35133Y-53044D01*
X35128Y-53015D01*
X35126Y-53008D01*
X35114Y-52981D01*
X35096Y-52957D01*
X35073Y-52937D01*
X35047Y-52921D01*
X35018Y-52911D01*
X35014Y-52911D01*
X34994Y-52909D01*
X34972Y-52909D01*
X34953Y-52912D01*
X34948Y-52913D01*
X34919Y-52925D01*
X34893Y-52942D01*
X34872Y-52964D01*
X34854Y-52991D01*
X34851Y-52999D01*
X34846Y-53012D01*
X34843Y-53025D01*
X34841Y-53034D01*
X34841Y-53036D01*
X34840Y-53037D01*
X34838Y-53033D01*
X34837Y-53025D01*
X34831Y-53005D01*
X34819Y-52979D01*
X34801Y-52956D01*
X34779Y-52936D01*
X34753Y-52921D01*
X34753Y-52921D01*
X34726Y-52912D01*
X34696Y-52909D01*
X34667Y-52911D01*
X34639Y-52918D01*
X34622Y-52926D01*
X34597Y-52944D01*
X34576Y-52965D01*
X34560Y-52991D01*
X34550Y-53020D01*
X34548Y-53026D01*
X34545Y-53050D01*
X34546Y-53072D01*
X34552Y-53100D01*
X34565Y-53128D01*
X34582Y-53152D01*
X34605Y-53173D01*
X34631Y-53189D01*
X34661Y-53199D01*
X34668Y-53201D01*
X34673Y-53203D01*
X34673Y-53204D01*
X34664Y-53205D01*
X34647Y-53209D01*
X34629Y-53217D01*
X34612Y-53227D01*
X34595Y-53239D01*
X34574Y-53262D01*
X34559Y-53289D01*
X34557Y-53293D01*
X34548Y-53322D01*
X34546Y-53352D01*
X34549Y-53382D01*
X34559Y-53411D01*
X34565Y-53424D01*
X34575Y-53437D01*
X34587Y-53451D01*
X34588Y-53452D01*
X34612Y-53472D01*
X34638Y-53486D01*
X34668Y-53494D01*
X34670Y-53495D01*
X34700Y-53497D01*
X34700Y-53497D01*
G37*
G54D14*
X31968Y-43738D02*
X31968Y-43483D01*
X31968Y-43483D02*
X31417Y-43483D01*
X31417Y-43738D02*
X31417Y-43483D01*
X31968Y-43738D02*
X31417Y-43738D01*
X31968Y-44318D02*
X31968Y-44062D01*
X31968Y-44062D02*
X31417Y-44062D01*
X31417Y-44318D02*
X31417Y-44062D01*
X31968Y-44318D02*
X31417Y-44318D01*
X31889Y-43976D02*
X31889Y-43820D01*
X31889Y-43820D02*
X31497Y-43820D01*
X31497Y-43976D02*
X31497Y-43820D01*
X31889Y-43976D02*
X31497Y-43976D01*
G54D10*
X31443Y-44059D02*
X31443Y-43737D01*
X31943Y-44059D02*
X31943Y-43737D01*
G54D17*
X31306Y-44674D02*
X31306Y-43122D01*
X31306Y-43122D02*
X32080Y-43122D01*
X32080Y-43122D02*
X32080Y-44674D01*
X32080Y-44674D02*
X31306Y-44674D01*
G54D13*
X28937Y-47244D02*
X30119Y-47244D01*
X29764Y-46929D02*
X29764Y-47559D01*
X30119Y-46732D02*
X30119Y-47756D01*
X28937Y-46732D02*
X28937Y-47756D01*
X29292Y-47244D02*
X29292Y-47559D01*
X29292Y-47244D02*
X29292Y-46929D01*
X29331Y-47244D02*
X29764Y-46929D01*
X29764Y-47559D02*
X29331Y-47244D01*
X28149Y-46732D02*
X30905Y-46732D01*
X30905Y-46732D02*
X30905Y-47756D01*
X30905Y-47756D02*
X28149Y-47756D01*
X28149Y-47756D02*
X28149Y-46732D01*
X38385Y-47244D02*
X39567Y-47244D01*
X39212Y-46929D02*
X39212Y-47559D01*
X39567Y-46732D02*
X39567Y-47756D01*
X38385Y-46732D02*
X38385Y-47756D01*
X38740Y-47244D02*
X38740Y-47559D01*
X38740Y-47244D02*
X38740Y-46929D01*
X38779Y-47244D02*
X39212Y-46929D01*
X39212Y-47559D02*
X38779Y-47244D01*
X37597Y-46732D02*
X40353Y-46732D01*
X40353Y-46732D02*
X40353Y-47756D01*
X40353Y-47756D02*
X37597Y-47756D01*
X37597Y-47756D02*
X37597Y-46732D01*
X30119Y-53937D02*
X28937Y-53937D01*
X29292Y-54252D02*
X29292Y-53622D01*
X28937Y-54449D02*
X28937Y-53425D01*
X30119Y-54449D02*
X30119Y-53425D01*
X29764Y-53937D02*
X29764Y-53622D01*
X29764Y-53937D02*
X29764Y-54252D01*
X29725Y-53937D02*
X29292Y-54252D01*
X29292Y-53622D02*
X29725Y-53937D01*
X30907Y-54449D02*
X28151Y-54449D01*
X28151Y-54449D02*
X28151Y-53425D01*
X28151Y-53425D02*
X30907Y-53425D01*
X30907Y-53425D02*
X30907Y-54449D01*
X39567Y-53937D02*
X38385Y-53937D01*
X38740Y-54252D02*
X38740Y-53622D01*
X38385Y-54449D02*
X38385Y-53425D01*
X39567Y-54449D02*
X39567Y-53425D01*
X39212Y-53937D02*
X39212Y-53622D01*
X39212Y-53937D02*
X39212Y-54252D01*
X39173Y-53937D02*
X38740Y-54252D01*
X38740Y-53622D02*
X39173Y-53937D01*
X40355Y-54449D02*
X37599Y-54449D01*
X37599Y-54449D02*
X37599Y-53425D01*
X37599Y-53425D02*
X40355Y-53425D01*
X40355Y-53425D02*
X40355Y-54449D01*
X39567Y-40551D02*
X38385Y-40551D01*
X38740Y-40866D02*
X38740Y-40236D01*
X38385Y-41063D02*
X38385Y-40039D01*
X39567Y-41063D02*
X39567Y-40039D01*
X39212Y-40551D02*
X39212Y-40236D01*
X39212Y-40551D02*
X39212Y-40866D01*
X39173Y-40551D02*
X38740Y-40866D01*
X38740Y-40236D02*
X39173Y-40551D01*
X40355Y-41063D02*
X37599Y-41063D01*
X37599Y-41063D02*
X37599Y-40039D01*
X37599Y-40039D02*
X40355Y-40039D01*
X40355Y-40039D02*
X40355Y-41063D01*
X33032Y-44804D02*
X33032Y-45000D01*
X33032Y-45000D02*
X33898Y-45000D01*
X33898Y-45000D02*
X33898Y-44804D01*
X33032Y-42992D02*
X33032Y-42796D01*
X33032Y-42796D02*
X33898Y-42796D01*
X33898Y-42796D02*
X33898Y-42992D01*
X33465Y-44134D02*
X33465Y-44804D01*
X32914Y-43622D02*
X34016Y-43622D01*
X33465Y-43544D02*
X33465Y-42992D01*
X33465Y-43584D02*
X32914Y-44135D01*
X32914Y-44134D02*
X34016Y-44134D01*
X34016Y-44134D02*
X33465Y-43583D01*
X32678Y-44804D02*
X32678Y-42992D01*
X32678Y-42992D02*
X34252Y-42992D01*
X34252Y-42992D02*
X34252Y-44804D01*
X34252Y-44804D02*
X32678Y-44804D01*
G54D14*
X25555Y-41624D02*
X25850Y-41624D01*
X25850Y-41624D02*
X25850Y-41054D01*
X25555Y-41054D02*
X25850Y-41054D01*
X25555Y-41624D02*
X25555Y-41054D01*
X26124Y-41624D02*
X26419Y-41624D01*
X26419Y-41624D02*
X26419Y-41054D01*
X26124Y-41054D02*
X26419Y-41054D01*
X26124Y-41624D02*
X26124Y-41054D01*
X25945Y-41496D02*
X26023Y-41496D01*
X26023Y-41496D02*
X26023Y-41182D01*
X25945Y-41182D02*
X26023Y-41182D01*
X25945Y-41496D02*
X25945Y-41182D01*
G54D17*
X25208Y-40952D02*
X26760Y-40952D01*
X26760Y-41726D02*
X25208Y-41726D01*
X25208Y-41726D02*
X25208Y-40952D01*
G54D15*
X25834Y-41080D02*
X26134Y-41080D01*
X25844Y-41598D02*
X26134Y-41598D01*
G54D17*
X26760Y-40952D02*
X26760Y-41726D01*
G54D14*
X25555Y-42706D02*
X25850Y-42706D01*
X25850Y-42706D02*
X25850Y-42136D01*
X25555Y-42136D02*
X25850Y-42136D01*
X25555Y-42706D02*
X25555Y-42136D01*
X26124Y-42706D02*
X26419Y-42706D01*
X26419Y-42706D02*
X26419Y-42136D01*
X26124Y-42136D02*
X26419Y-42136D01*
X26124Y-42706D02*
X26124Y-42136D01*
X25945Y-42578D02*
X26023Y-42578D01*
X26023Y-42578D02*
X26023Y-42264D01*
X25945Y-42264D02*
X26023Y-42264D01*
X25945Y-42578D02*
X25945Y-42264D01*
G54D17*
X25208Y-42034D02*
X26760Y-42034D01*
X26760Y-42808D02*
X25208Y-42808D01*
X25208Y-42808D02*
X25208Y-42034D01*
G54D15*
X25834Y-42162D02*
X26134Y-42162D01*
X25844Y-42680D02*
X26134Y-42680D01*
G54D17*
X26760Y-42034D02*
X26760Y-42808D01*
G54D14*
X42091Y-41624D02*
X42386Y-41624D01*
X42386Y-41624D02*
X42386Y-41054D01*
X42091Y-41054D02*
X42386Y-41054D01*
X42091Y-41624D02*
X42091Y-41054D01*
X42660Y-41624D02*
X42955Y-41624D01*
X42955Y-41624D02*
X42955Y-41054D01*
X42660Y-41054D02*
X42955Y-41054D01*
X42660Y-41624D02*
X42660Y-41054D01*
X42481Y-41496D02*
X42559Y-41496D01*
X42559Y-41496D02*
X42559Y-41182D01*
X42481Y-41182D02*
X42559Y-41182D01*
X42481Y-41496D02*
X42481Y-41182D01*
G54D17*
X41744Y-40952D02*
X43296Y-40952D01*
X43296Y-41726D02*
X41744Y-41726D01*
X41744Y-41726D02*
X41744Y-40952D01*
G54D15*
X42370Y-41080D02*
X42670Y-41080D01*
X42380Y-41598D02*
X42670Y-41598D01*
G54D17*
X43296Y-40952D02*
X43296Y-41726D01*
G54D14*
X42091Y-42706D02*
X42386Y-42706D01*
X42386Y-42706D02*
X42386Y-42136D01*
X42091Y-42136D02*
X42386Y-42136D01*
X42091Y-42706D02*
X42091Y-42136D01*
X42660Y-42706D02*
X42955Y-42706D01*
X42955Y-42706D02*
X42955Y-42136D01*
X42660Y-42136D02*
X42955Y-42136D01*
X42660Y-42706D02*
X42660Y-42136D01*
X42481Y-42578D02*
X42559Y-42578D01*
X42559Y-42578D02*
X42559Y-42264D01*
X42481Y-42264D02*
X42559Y-42264D01*
X42481Y-42578D02*
X42481Y-42264D01*
G54D17*
X41744Y-42034D02*
X43296Y-42034D01*
X43296Y-42808D02*
X41744Y-42808D01*
X41744Y-42808D02*
X41744Y-42034D01*
G54D15*
X42370Y-42162D02*
X42670Y-42162D01*
X42380Y-42680D02*
X42670Y-42680D01*
G54D17*
X43296Y-42034D02*
X43296Y-42808D01*
G54D14*
X35078Y-42422D02*
X35374Y-42422D01*
X35374Y-42422D02*
X35374Y-41753D01*
X35078Y-41753D02*
X35374Y-41753D01*
X35078Y-42422D02*
X35078Y-41753D01*
X36122Y-42421D02*
X36418Y-42421D01*
X36418Y-42421D02*
X36418Y-41752D01*
X36122Y-41752D02*
X36418Y-41752D01*
X36122Y-42421D02*
X36122Y-41752D01*
X35670Y-42244D02*
X35826Y-42244D01*
X35826Y-42244D02*
X35826Y-41930D01*
X35670Y-41930D02*
X35826Y-41930D01*
X35670Y-42244D02*
X35670Y-41930D01*
G54D17*
X34775Y-41700D02*
X36721Y-41700D01*
X36721Y-42474D02*
X34775Y-42474D01*
X34775Y-42474D02*
X34775Y-41700D01*
X36721Y-41700D02*
X36721Y-42474D01*
G54D15*
X35369Y-41778D02*
X36127Y-41778D01*
X35369Y-42396D02*
X36127Y-42396D01*
G54D14*
X38106Y-44046D02*
X37811Y-44046D01*
X37811Y-44046D02*
X37811Y-44616D01*
X38106Y-44616D02*
X37811Y-44616D01*
X38106Y-44046D02*
X38106Y-44616D01*
X37537Y-44046D02*
X37242Y-44046D01*
X37242Y-44046D02*
X37242Y-44616D01*
X37537Y-44616D02*
X37242Y-44616D01*
X37537Y-44046D02*
X37537Y-44616D01*
X37716Y-44174D02*
X37638Y-44174D01*
X37638Y-44174D02*
X37638Y-44488D01*
X37716Y-44488D02*
X37638Y-44488D01*
X37716Y-44174D02*
X37716Y-44488D01*
G54D17*
X38453Y-44718D02*
X36901Y-44718D01*
X36901Y-43944D02*
X38453Y-43944D01*
X38453Y-43944D02*
X38453Y-44718D01*
G54D15*
X37827Y-44590D02*
X37527Y-44590D01*
X37817Y-44072D02*
X37527Y-44072D01*
G54D17*
X36901Y-44718D02*
X36901Y-43944D01*
G54D14*
X38106Y-43219D02*
X37811Y-43219D01*
X37811Y-43219D02*
X37811Y-43789D01*
X38106Y-43789D02*
X37811Y-43789D01*
X38106Y-43219D02*
X38106Y-43789D01*
X37537Y-43219D02*
X37242Y-43219D01*
X37242Y-43219D02*
X37242Y-43789D01*
X37537Y-43789D02*
X37242Y-43789D01*
X37537Y-43219D02*
X37537Y-43789D01*
X37716Y-43347D02*
X37638Y-43347D01*
X37638Y-43347D02*
X37638Y-43661D01*
X37716Y-43661D02*
X37638Y-43661D01*
X37716Y-43347D02*
X37716Y-43661D01*
G54D17*
X38453Y-43891D02*
X36901Y-43891D01*
X36901Y-43117D02*
X38453Y-43117D01*
X38453Y-43117D02*
X38453Y-43891D01*
G54D15*
X37827Y-43763D02*
X37527Y-43763D01*
X37817Y-43245D02*
X37527Y-43245D01*
G54D17*
X36901Y-43891D02*
X36901Y-43117D01*
G54D12*
X35423Y-45628D02*
X35423Y-45952D01*
X35442Y-45990D01*
X35461Y-46009D01*
X35499Y-46028D01*
X35576Y-46028D01*
X35614Y-46009D01*
X35633Y-45990D01*
X35652Y-45952D01*
X35652Y-45628D01*
X36052Y-46028D02*
X35823Y-46028D01*
X35937Y-46028D02*
X35937Y-45628D01*
X35899Y-45685D01*
X35861Y-45723D01*
X35823Y-45742D01*
X34186Y-48784D02*
X33995Y-48784D01*
X33995Y-48384D01*
X34529Y-48784D02*
X34300Y-48784D01*
X34414Y-48784D02*
X34414Y-48384D01*
X34376Y-48441D01*
X34338Y-48479D01*
X34300Y-48498D01*
X30871Y-44507D02*
X30680Y-44641D01*
X30871Y-44736D02*
X30471Y-44736D01*
X30471Y-44583D01*
X30490Y-44545D01*
X30509Y-44526D01*
X30547Y-44507D01*
X30604Y-44507D01*
X30642Y-44526D01*
X30661Y-44545D01*
X30680Y-44583D01*
X30680Y-44736D01*
X30909Y-44431D02*
X30909Y-44126D01*
X30833Y-43802D02*
X30852Y-43821D01*
X30871Y-43878D01*
X30871Y-43916D01*
X30852Y-43974D01*
X30814Y-44012D01*
X30776Y-44031D01*
X30699Y-44050D01*
X30642Y-44050D01*
X30566Y-44031D01*
X30528Y-44012D01*
X30490Y-43974D01*
X30471Y-43916D01*
X30471Y-43878D01*
X30490Y-43821D01*
X30509Y-43802D01*
X30852Y-43650D02*
X30871Y-43593D01*
X30871Y-43497D01*
X30852Y-43459D01*
X30833Y-43440D01*
X30795Y-43421D01*
X30757Y-43421D01*
X30719Y-43440D01*
X30699Y-43459D01*
X30680Y-43497D01*
X30661Y-43574D01*
X30642Y-43612D01*
X30623Y-43631D01*
X30585Y-43650D01*
X30547Y-43650D01*
X30509Y-43631D01*
X30490Y-43612D01*
X30471Y-43574D01*
X30471Y-43478D01*
X30490Y-43421D01*
X30871Y-43040D02*
X30871Y-43269D01*
X30871Y-43155D02*
X30471Y-43155D01*
X30528Y-43193D01*
X30566Y-43231D01*
X30585Y-43269D01*
X32979Y-42091D02*
X32979Y-41691D01*
X33074Y-41691D01*
X33132Y-41710D01*
X33170Y-41748D01*
X33189Y-41786D01*
X33208Y-41862D01*
X33208Y-41919D01*
X33189Y-41996D01*
X33170Y-42034D01*
X33132Y-42072D01*
X33074Y-42091D01*
X32979Y-42091D01*
X33360Y-42072D02*
X33417Y-42091D01*
X33513Y-42091D01*
X33551Y-42072D01*
X33570Y-42053D01*
X33589Y-42015D01*
X33589Y-41977D01*
X33570Y-41939D01*
X33551Y-41919D01*
X33513Y-41900D01*
X33436Y-41881D01*
X33398Y-41862D01*
X33379Y-41843D01*
X33360Y-41805D01*
X33360Y-41767D01*
X33379Y-41729D01*
X33398Y-41710D01*
X33436Y-41691D01*
X33532Y-41691D01*
X33589Y-41710D01*
X33970Y-42091D02*
X33741Y-42091D01*
X33855Y-42091D02*
X33855Y-41691D01*
X33817Y-41748D01*
X33779Y-41786D01*
X33741Y-41805D01*
X27099Y-41463D02*
X27080Y-41482D01*
X27023Y-41501D01*
X26985Y-41501D01*
X26927Y-41482D01*
X26889Y-41444D01*
X26870Y-41406D01*
X26851Y-41329D01*
X26851Y-41272D01*
X26870Y-41196D01*
X26889Y-41158D01*
X26927Y-41120D01*
X26985Y-41101D01*
X27023Y-41101D01*
X27080Y-41120D01*
X27099Y-41139D01*
X27251Y-41139D02*
X27270Y-41120D01*
X27308Y-41101D01*
X27404Y-41101D01*
X27442Y-41120D01*
X27461Y-41139D01*
X27480Y-41177D01*
X27480Y-41215D01*
X27461Y-41272D01*
X27232Y-41501D01*
X27480Y-41501D01*
X27099Y-42545D02*
X27080Y-42564D01*
X27023Y-42583D01*
X26985Y-42583D01*
X26927Y-42564D01*
X26889Y-42526D01*
X26870Y-42488D01*
X26851Y-42411D01*
X26851Y-42354D01*
X26870Y-42278D01*
X26889Y-42240D01*
X26927Y-42202D01*
X26985Y-42183D01*
X27023Y-42183D01*
X27080Y-42202D01*
X27099Y-42221D01*
X27232Y-42183D02*
X27480Y-42183D01*
X27346Y-42335D01*
X27404Y-42335D01*
X27442Y-42354D01*
X27461Y-42373D01*
X27480Y-42411D01*
X27480Y-42507D01*
X27461Y-42545D01*
X27442Y-42564D01*
X27404Y-42583D01*
X27289Y-42583D01*
X27251Y-42564D01*
X27232Y-42545D01*
X41273Y-41463D02*
X41254Y-41482D01*
X41197Y-41501D01*
X41159Y-41501D01*
X41101Y-41482D01*
X41063Y-41444D01*
X41044Y-41406D01*
X41025Y-41329D01*
X41025Y-41272D01*
X41044Y-41196D01*
X41063Y-41158D01*
X41101Y-41120D01*
X41159Y-41101D01*
X41197Y-41101D01*
X41254Y-41120D01*
X41273Y-41139D01*
X41616Y-41234D02*
X41616Y-41501D01*
X41520Y-41082D02*
X41425Y-41368D01*
X41673Y-41368D01*
X41273Y-42545D02*
X41254Y-42564D01*
X41197Y-42583D01*
X41159Y-42583D01*
X41101Y-42564D01*
X41063Y-42526D01*
X41044Y-42488D01*
X41025Y-42411D01*
X41025Y-42354D01*
X41044Y-42278D01*
X41063Y-42240D01*
X41101Y-42202D01*
X41159Y-42183D01*
X41197Y-42183D01*
X41254Y-42202D01*
X41273Y-42221D01*
X41635Y-42183D02*
X41444Y-42183D01*
X41425Y-42373D01*
X41444Y-42354D01*
X41482Y-42335D01*
X41578Y-42335D01*
X41616Y-42354D01*
X41635Y-42373D01*
X41654Y-42411D01*
X41654Y-42507D01*
X41635Y-42545D01*
X41616Y-42564D01*
X41578Y-42583D01*
X41482Y-42583D01*
X41444Y-42564D01*
X41425Y-42545D01*
X36253Y-41463D02*
X36234Y-41482D01*
X36177Y-41501D01*
X36139Y-41501D01*
X36081Y-41482D01*
X36043Y-41444D01*
X36024Y-41406D01*
X36005Y-41329D01*
X36005Y-41272D01*
X36024Y-41196D01*
X36043Y-41158D01*
X36081Y-41120D01*
X36139Y-41101D01*
X36177Y-41101D01*
X36234Y-41120D01*
X36253Y-41139D01*
X36634Y-41501D02*
X36405Y-41501D01*
X36519Y-41501D02*
X36519Y-41101D01*
X36481Y-41158D01*
X36443Y-41196D01*
X36405Y-41215D01*
X37611Y-45360D02*
X37592Y-45379D01*
X37535Y-45398D01*
X37497Y-45398D01*
X37439Y-45379D01*
X37401Y-45341D01*
X37382Y-45303D01*
X37363Y-45226D01*
X37363Y-45169D01*
X37382Y-45093D01*
X37401Y-45055D01*
X37439Y-45017D01*
X37497Y-44998D01*
X37535Y-44998D01*
X37592Y-45017D01*
X37611Y-45036D01*
X37954Y-44998D02*
X37877Y-44998D01*
X37839Y-45017D01*
X37820Y-45036D01*
X37782Y-45093D01*
X37763Y-45169D01*
X37763Y-45322D01*
X37782Y-45360D01*
X37801Y-45379D01*
X37839Y-45398D01*
X37916Y-45398D01*
X37954Y-45379D01*
X37973Y-45360D01*
X37992Y-45322D01*
X37992Y-45226D01*
X37973Y-45188D01*
X37954Y-45169D01*
X37916Y-45150D01*
X37839Y-45150D01*
X37801Y-45169D01*
X37782Y-45188D01*
X37763Y-45226D01*
X37611Y-42919D02*
X37592Y-42938D01*
X37535Y-42957D01*
X37497Y-42957D01*
X37439Y-42938D01*
X37401Y-42900D01*
X37382Y-42862D01*
X37363Y-42785D01*
X37363Y-42728D01*
X37382Y-42652D01*
X37401Y-42614D01*
X37439Y-42576D01*
X37497Y-42557D01*
X37535Y-42557D01*
X37592Y-42576D01*
X37611Y-42595D01*
X37744Y-42557D02*
X38011Y-42557D01*
X37839Y-42957D01*
%LPC*%
G54D18*
X30399Y-40551D03*
X28666Y-40551D03*
G54D19*
X29103Y-40551D03*
G54D20*
X29764Y-40551D03*
G54D21*
X35157Y-44804D03*
G54D22*
X35748Y-44686D03*
G54D21*
X36339Y-44804D03*
X36339Y-43308D03*
X35157Y-43308D03*
G54D23*
X35748Y-43662D03*
G54D24*
X41535Y-47744D03*
X41535Y-46744D03*
X41535Y-48744D03*
X41535Y-49744D03*
X41535Y-45744D03*
X41535Y-44744D03*
X26969Y-46744D03*
X26969Y-47744D03*
X26969Y-45744D03*
X26969Y-44744D03*
X26969Y-48744D03*
X26969Y-49744D03*
G54D25*
X33485Y-47244D03*
X35019Y-47244D03*
G54D26*
X25984Y-55512D03*
X42520Y-55512D03*
X42520Y-38976D03*
X25984Y-38976D03*
G54D27*
X31693Y-44272D03*
X31693Y-43524D03*
G54D18*
X28657Y-47244D03*
X30390Y-47244D03*
G54D19*
X29953Y-47244D03*
G54D20*
X29292Y-47244D03*
G54D18*
X38105Y-47244D03*
X39838Y-47244D03*
G54D19*
X39401Y-47244D03*
G54D20*
X38740Y-47244D03*
G54D18*
X30399Y-53937D03*
X28666Y-53937D03*
G54D19*
X29103Y-53937D03*
G54D20*
X29764Y-53937D03*
G54D18*
X39847Y-53937D03*
X38114Y-53937D03*
G54D19*
X38551Y-53937D03*
G54D20*
X39212Y-53937D03*
G54D18*
X39847Y-40551D03*
X38114Y-40551D03*
G54D19*
X38551Y-40551D03*
G54D20*
X39212Y-40551D03*
G54D28*
X33465Y-44882D03*
X33465Y-42914D03*
G54D29*
X25610Y-41339D03*
X26358Y-41339D03*
X25610Y-42421D03*
X26358Y-42421D03*
X42146Y-41339D03*
X42894Y-41339D03*
X42146Y-42421D03*
X42894Y-42421D03*
G54D30*
X35197Y-42087D03*
X36299Y-42087D03*
G54D29*
X38051Y-44331D03*
X37303Y-44331D03*
X38051Y-43504D03*
X37303Y-43504D03*
M02*
