M48
METRIC,TZ
T1C0.330
T2C0.508
T3C1.016
T4C3.000
%
G90
G05
T1
X072600Y-100400
X072600Y-101200
X072600Y-102000
X072600Y-102800
X072600Y-117400
X072600Y-118200
X072600Y-119000
X072600Y-119800
X072600Y-134400
X072600Y-135200
X072600Y-136000
X072600Y-136800
X073400Y-100400
X073400Y-102800
X073400Y-117400
X073400Y-119800
X073400Y-134400
X073400Y-136800
X074200Y-100400
X074200Y-102800
X074200Y-117400
X074200Y-119800
X074200Y-134400
X074200Y-136800
X075000Y-100400
X075000Y-102800
X075000Y-117400
X075000Y-119800
X075000Y-134400
X075000Y-136800
X075800Y-100400
X075800Y-102800
X075800Y-117400
X075800Y-119800
X075800Y-134400
X075800Y-136800
X076600Y-100400
X076600Y-102800
X076600Y-117400
X076600Y-119800
X076600Y-134400
X076600Y-136800
X077400Y-100400
X077400Y-101200
X077400Y-102000
X077400Y-102800
X077400Y-117400
X077400Y-118200
X077400Y-119000
X077400Y-119800
X077400Y-134400
X077400Y-135200
X077400Y-136000
X077400Y-136800
X086500Y-111599
X086601Y-110799
X087000Y-111299
X087000Y-111800
X087399Y-110799
X087500Y-111599
X091633Y-109177
X095000Y-123650
X096600Y-103200
X096600Y-104000
X096600Y-104800
X096600Y-105600
X096600Y-120200
X096600Y-121000
X096600Y-121800
X096600Y-122600
X096600Y-137200
X096600Y-138000
X096600Y-138800
X096600Y-139600
X097400Y-103200
X097400Y-105600
X097400Y-120200
X097400Y-122600
X097400Y-137200
X097400Y-139600
X098200Y-103200
X098200Y-105600
X098200Y-120200
X098200Y-122600
X098200Y-137200
X098200Y-139600
X099000Y-103200
X099000Y-105600
X099000Y-120200
X099000Y-122600
X099000Y-137200
X099000Y-139600
X099800Y-103200
X099800Y-105600
X099800Y-120200
X099800Y-122600
X099800Y-137200
X099800Y-139600
X100600Y-103200
X100600Y-105600
X100600Y-120200
X100600Y-122600
X100600Y-137200
X100600Y-139600
X101400Y-103200
X101400Y-104000
X101400Y-104800
X101400Y-105600
X101400Y-120200
X101400Y-121000
X101400Y-121800
X101400Y-122600
X101400Y-137200
X101400Y-138000
X101400Y-138800
X101400Y-139600
T2
X066949Y-105001
X066949Y-107749
X091313Y-111572
X093853Y-111572
X108951Y-105001
X108951Y-107749
T3
X068501Y-113650
X068501Y-116190
X068501Y-118730
X068501Y-121270
X068501Y-123810
X068501Y-126350
X105499Y-113650
X105499Y-116190
X105499Y-118730
X105499Y-121270
X105499Y-123810
X105499Y-126350
T4
X065999Y-098999
X065999Y-141000
X108001Y-098999
X108001Y-141000
T0
M30
