%FSLAX34Y34*%
G04 Gerber Fmt 3.4, Leading zero omitted, Abs format*
G04 (created by PCBNEW (2014-03-03 BZR 4732)-product) date Wed 05 Mar 2014 04:21:36 PM CET*
%MOIN*%
G01*
G70*
G90*
G04 APERTURE LIST*
%ADD10C,0.005906*%
%ADD11C,0.008000*%
%ADD12C,0.007874*%
%ADD13C,0.000100*%
%ADD14C,0.002600*%
%ADD15C,0.004000*%
%ADD16R,0.027600X0.063000*%
%ADD17R,0.039400X0.086600*%
%ADD18R,0.070900X0.133900*%
%ADD19R,0.025000X0.025000*%
%ADD20R,0.098400X0.177200*%
%ADD21C,0.065000*%
%ADD22C,0.118110*%
%ADD23R,0.059000X0.051100*%
%ADD24R,0.070866X0.070866*%
%ADD25R,0.051100X0.059000*%
%ADD26R,0.039370X0.055118*%
%ADD27R,0.090551X0.060236*%
%ADD28R,0.124016X0.027559*%
%ADD29R,0.090551X0.022835*%
G04 APERTURE END LIST*
G54D10*
G54D11*
X29956Y-56216D02*
X29975Y-56197D01*
X30013Y-56178D01*
X30109Y-56178D01*
X30147Y-56197D01*
X30166Y-56216D01*
X30185Y-56254D01*
X30185Y-56292D01*
X30166Y-56350D01*
X29937Y-56578D01*
X30185Y-56578D01*
X30432Y-56178D02*
X30471Y-56178D01*
X30509Y-56197D01*
X30528Y-56216D01*
X30547Y-56254D01*
X30566Y-56330D01*
X30566Y-56426D01*
X30547Y-56502D01*
X30528Y-56540D01*
X30509Y-56559D01*
X30471Y-56578D01*
X30432Y-56578D01*
X30394Y-56559D01*
X30375Y-56540D01*
X30356Y-56502D01*
X30337Y-56426D01*
X30337Y-56330D01*
X30356Y-56254D01*
X30375Y-56216D01*
X30394Y-56197D01*
X30432Y-56178D01*
X30947Y-56578D02*
X30718Y-56578D01*
X30832Y-56578D02*
X30832Y-56178D01*
X30794Y-56235D01*
X30756Y-56273D01*
X30718Y-56292D01*
X31290Y-56311D02*
X31290Y-56578D01*
X31194Y-56159D02*
X31099Y-56445D01*
X31347Y-56445D01*
X31804Y-56426D02*
X32109Y-56426D01*
X32604Y-56578D02*
X32604Y-56178D01*
X32604Y-56330D02*
X32642Y-56311D01*
X32718Y-56311D01*
X32756Y-56330D01*
X32775Y-56350D01*
X32794Y-56388D01*
X32794Y-56502D01*
X32775Y-56540D01*
X32756Y-56559D01*
X32718Y-56578D01*
X32642Y-56578D01*
X32604Y-56559D01*
X33023Y-56578D02*
X32985Y-56559D01*
X32966Y-56521D01*
X32966Y-56178D01*
X33232Y-56578D02*
X33194Y-56559D01*
X33175Y-56540D01*
X33156Y-56502D01*
X33156Y-56388D01*
X33175Y-56350D01*
X33194Y-56330D01*
X33232Y-56311D01*
X33290Y-56311D01*
X33328Y-56330D01*
X33347Y-56350D01*
X33366Y-56388D01*
X33366Y-56502D01*
X33347Y-56540D01*
X33328Y-56559D01*
X33290Y-56578D01*
X33232Y-56578D01*
X33709Y-56311D02*
X33709Y-56635D01*
X33690Y-56673D01*
X33671Y-56692D01*
X33632Y-56711D01*
X33575Y-56711D01*
X33537Y-56692D01*
X33709Y-56559D02*
X33671Y-56578D01*
X33594Y-56578D01*
X33556Y-56559D01*
X33537Y-56540D01*
X33518Y-56502D01*
X33518Y-56388D01*
X33537Y-56350D01*
X33556Y-56330D01*
X33594Y-56311D01*
X33671Y-56311D01*
X33709Y-56330D01*
X33899Y-56540D02*
X33918Y-56559D01*
X33899Y-56578D01*
X33880Y-56559D01*
X33899Y-56540D01*
X33899Y-56578D01*
X34071Y-56559D02*
X34109Y-56578D01*
X34185Y-56578D01*
X34223Y-56559D01*
X34242Y-56521D01*
X34242Y-56502D01*
X34223Y-56464D01*
X34185Y-56445D01*
X34128Y-56445D01*
X34090Y-56426D01*
X34071Y-56388D01*
X34071Y-56369D01*
X34090Y-56330D01*
X34128Y-56311D01*
X34185Y-56311D01*
X34223Y-56330D01*
X34413Y-56311D02*
X34413Y-56711D01*
X34413Y-56330D02*
X34451Y-56311D01*
X34528Y-56311D01*
X34566Y-56330D01*
X34585Y-56350D01*
X34604Y-56388D01*
X34604Y-56502D01*
X34585Y-56540D01*
X34566Y-56559D01*
X34528Y-56578D01*
X34451Y-56578D01*
X34413Y-56559D01*
X34775Y-56578D02*
X34775Y-56311D01*
X34775Y-56178D02*
X34756Y-56197D01*
X34775Y-56216D01*
X34794Y-56197D01*
X34775Y-56178D01*
X34775Y-56216D01*
X34909Y-56311D02*
X35061Y-56311D01*
X34966Y-56178D02*
X34966Y-56521D01*
X34985Y-56559D01*
X35023Y-56578D01*
X35061Y-56578D01*
X35156Y-56311D02*
X35366Y-56311D01*
X35156Y-56578D01*
X35366Y-56578D01*
X35671Y-56559D02*
X35632Y-56578D01*
X35556Y-56578D01*
X35518Y-56559D01*
X35499Y-56521D01*
X35499Y-56369D01*
X35518Y-56330D01*
X35556Y-56311D01*
X35632Y-56311D01*
X35671Y-56330D01*
X35690Y-56369D01*
X35690Y-56407D01*
X35499Y-56445D01*
X35861Y-56311D02*
X35861Y-56578D01*
X35861Y-56350D02*
X35880Y-56330D01*
X35918Y-56311D01*
X35975Y-56311D01*
X36013Y-56330D01*
X36032Y-56369D01*
X36032Y-56578D01*
X36223Y-56311D02*
X36223Y-56711D01*
X36223Y-56330D02*
X36261Y-56311D01*
X36337Y-56311D01*
X36375Y-56330D01*
X36394Y-56350D01*
X36413Y-56388D01*
X36413Y-56502D01*
X36394Y-56540D01*
X36375Y-56559D01*
X36337Y-56578D01*
X36261Y-56578D01*
X36223Y-56559D01*
X36528Y-56311D02*
X36680Y-56311D01*
X36585Y-56578D02*
X36585Y-56235D01*
X36604Y-56197D01*
X36642Y-56178D01*
X36680Y-56178D01*
X36966Y-56559D02*
X36928Y-56578D01*
X36851Y-56578D01*
X36813Y-56559D01*
X36794Y-56521D01*
X36794Y-56369D01*
X36813Y-56330D01*
X36851Y-56311D01*
X36928Y-56311D01*
X36966Y-56330D01*
X36985Y-56369D01*
X36985Y-56407D01*
X36794Y-56445D01*
X37156Y-56578D02*
X37156Y-56311D01*
X37156Y-56178D02*
X37137Y-56197D01*
X37156Y-56216D01*
X37175Y-56197D01*
X37156Y-56178D01*
X37156Y-56216D01*
X37404Y-56578D02*
X37366Y-56559D01*
X37347Y-56521D01*
X37347Y-56178D01*
X37556Y-56540D02*
X37575Y-56559D01*
X37556Y-56578D01*
X37537Y-56559D01*
X37556Y-56540D01*
X37556Y-56578D01*
X37804Y-56578D02*
X37766Y-56559D01*
X37747Y-56540D01*
X37728Y-56502D01*
X37728Y-56388D01*
X37747Y-56350D01*
X37766Y-56330D01*
X37804Y-56311D01*
X37861Y-56311D01*
X37899Y-56330D01*
X37918Y-56350D01*
X37937Y-56388D01*
X37937Y-56502D01*
X37918Y-56540D01*
X37899Y-56559D01*
X37861Y-56578D01*
X37804Y-56578D01*
X38109Y-56578D02*
X38109Y-56311D01*
X38109Y-56388D02*
X38128Y-56350D01*
X38147Y-56330D01*
X38185Y-56311D01*
X38223Y-56311D01*
X38528Y-56311D02*
X38528Y-56635D01*
X38509Y-56673D01*
X38490Y-56692D01*
X38451Y-56711D01*
X38394Y-56711D01*
X38356Y-56692D01*
X38528Y-56559D02*
X38490Y-56578D01*
X38413Y-56578D01*
X38375Y-56559D01*
X38356Y-56540D01*
X38337Y-56502D01*
X38337Y-56388D01*
X38356Y-56350D01*
X38375Y-56330D01*
X38413Y-56311D01*
X38490Y-56311D01*
X38528Y-56330D01*
G54D12*
X43999Y-55512D02*
G75*
G03X43999Y-55512I-1479J0D01*
G74*
G01*
X43996Y-38976D02*
G75*
G03X43996Y-38976I-1476J0D01*
G74*
G01*
X27460Y-55512D02*
G75*
G03X27460Y-55512I-1476J0D01*
G74*
G01*
X27460Y-38976D02*
G75*
G03X27460Y-38976I-1476J0D01*
G74*
G01*
G54D11*
X31934Y-38232D02*
X31744Y-38232D01*
X31744Y-37832D01*
X32067Y-38022D02*
X32201Y-38022D01*
X32258Y-38232D02*
X32067Y-38232D01*
X32067Y-37832D01*
X32258Y-37832D01*
X32429Y-38232D02*
X32429Y-37832D01*
X32525Y-37832D01*
X32582Y-37851D01*
X32620Y-37889D01*
X32639Y-37927D01*
X32658Y-38003D01*
X32658Y-38060D01*
X32639Y-38136D01*
X32620Y-38174D01*
X32582Y-38213D01*
X32525Y-38232D01*
X32429Y-38232D01*
X33115Y-38213D02*
X33172Y-38232D01*
X33267Y-38232D01*
X33305Y-38213D01*
X33325Y-38194D01*
X33344Y-38155D01*
X33344Y-38117D01*
X33325Y-38079D01*
X33305Y-38060D01*
X33267Y-38041D01*
X33191Y-38022D01*
X33153Y-38003D01*
X33134Y-37984D01*
X33115Y-37946D01*
X33115Y-37908D01*
X33134Y-37870D01*
X33153Y-37851D01*
X33191Y-37832D01*
X33286Y-37832D01*
X33344Y-37851D01*
X33686Y-37965D02*
X33686Y-38365D01*
X33686Y-38213D02*
X33648Y-38232D01*
X33572Y-38232D01*
X33534Y-38213D01*
X33515Y-38194D01*
X33496Y-38155D01*
X33496Y-38041D01*
X33515Y-38003D01*
X33534Y-37984D01*
X33572Y-37965D01*
X33648Y-37965D01*
X33686Y-37984D01*
X34048Y-37965D02*
X34048Y-38232D01*
X33877Y-37965D02*
X33877Y-38174D01*
X33896Y-38213D01*
X33934Y-38232D01*
X33991Y-38232D01*
X34029Y-38213D01*
X34048Y-38194D01*
X34410Y-38232D02*
X34410Y-38022D01*
X34391Y-37984D01*
X34353Y-37965D01*
X34277Y-37965D01*
X34239Y-37984D01*
X34410Y-38213D02*
X34372Y-38232D01*
X34277Y-38232D01*
X34239Y-38213D01*
X34220Y-38174D01*
X34220Y-38136D01*
X34239Y-38098D01*
X34277Y-38079D01*
X34372Y-38079D01*
X34410Y-38060D01*
X34601Y-38232D02*
X34601Y-37965D01*
X34601Y-38041D02*
X34620Y-38003D01*
X34639Y-37984D01*
X34677Y-37965D01*
X34715Y-37965D01*
X35001Y-38213D02*
X34963Y-38232D01*
X34886Y-38232D01*
X34848Y-38213D01*
X34829Y-38174D01*
X34829Y-38022D01*
X34848Y-37984D01*
X34886Y-37965D01*
X34963Y-37965D01*
X35001Y-37984D01*
X35020Y-38022D01*
X35020Y-38060D01*
X34829Y-38098D01*
X35439Y-37832D02*
X35572Y-38232D01*
X35705Y-37832D01*
X36048Y-38232D02*
X35820Y-38232D01*
X35934Y-38232D02*
X35934Y-37832D01*
X35896Y-37889D01*
X35858Y-37927D01*
X35820Y-37946D01*
X36220Y-38194D02*
X36239Y-38213D01*
X36220Y-38232D01*
X36201Y-38213D01*
X36220Y-38194D01*
X36220Y-38232D01*
X36620Y-38232D02*
X36391Y-38232D01*
X36505Y-38232D02*
X36505Y-37832D01*
X36467Y-37889D01*
X36429Y-37927D01*
X36391Y-37946D01*
X36791Y-38194D02*
X36810Y-38213D01*
X36791Y-38232D01*
X36772Y-38213D01*
X36791Y-38194D01*
X36791Y-38232D01*
X37153Y-38232D02*
X37153Y-38022D01*
X37134Y-37984D01*
X37096Y-37965D01*
X37020Y-37965D01*
X36982Y-37984D01*
X37153Y-38213D02*
X37115Y-38232D01*
X37020Y-38232D01*
X36982Y-38213D01*
X36963Y-38174D01*
X36963Y-38136D01*
X36982Y-38098D01*
X37020Y-38079D01*
X37115Y-38079D01*
X37153Y-38060D01*
G54D12*
X33306Y-42637D02*
X35196Y-42637D01*
X35196Y-42637D02*
X35196Y-45157D01*
X35196Y-45157D02*
X33306Y-45157D01*
X33306Y-45157D02*
X33306Y-42637D01*
G54D13*
G36*
X33536Y-40834D02*
X33548Y-40828D01*
X33573Y-40812D01*
X33610Y-40788D01*
X33653Y-40759D01*
X33697Y-40729D01*
X33732Y-40705D01*
X33757Y-40689D01*
X33768Y-40684D01*
X33773Y-40686D01*
X33794Y-40696D01*
X33824Y-40711D01*
X33841Y-40720D01*
X33869Y-40732D01*
X33882Y-40734D01*
X33885Y-40731D01*
X33895Y-40710D01*
X33910Y-40674D01*
X33931Y-40626D01*
X33955Y-40571D01*
X33980Y-40511D01*
X34006Y-40450D01*
X34030Y-40391D01*
X34051Y-40339D01*
X34068Y-40296D01*
X34080Y-40267D01*
X34084Y-40254D01*
X34083Y-40251D01*
X34069Y-40238D01*
X34045Y-40220D01*
X33993Y-40178D01*
X33942Y-40114D01*
X33911Y-40041D01*
X33900Y-39961D01*
X33909Y-39886D01*
X33939Y-39814D01*
X33989Y-39750D01*
X34049Y-39702D01*
X34120Y-39671D01*
X34200Y-39662D01*
X34276Y-39670D01*
X34349Y-39699D01*
X34414Y-39748D01*
X34441Y-39780D01*
X34479Y-39845D01*
X34500Y-39915D01*
X34503Y-39933D01*
X34499Y-40010D01*
X34477Y-40083D01*
X34436Y-40149D01*
X34380Y-40203D01*
X34373Y-40209D01*
X34346Y-40228D01*
X34329Y-40242D01*
X34315Y-40253D01*
X34413Y-40489D01*
X34429Y-40526D01*
X34456Y-40591D01*
X34479Y-40646D01*
X34498Y-40690D01*
X34511Y-40720D01*
X34517Y-40732D01*
X34518Y-40732D01*
X34526Y-40734D01*
X34544Y-40727D01*
X34577Y-40711D01*
X34599Y-40700D01*
X34624Y-40688D01*
X34635Y-40684D01*
X34645Y-40689D01*
X34669Y-40704D01*
X34704Y-40728D01*
X34746Y-40757D01*
X34786Y-40784D01*
X34823Y-40808D01*
X34850Y-40825D01*
X34863Y-40832D01*
X34865Y-40832D01*
X34877Y-40826D01*
X34898Y-40808D01*
X34930Y-40778D01*
X34976Y-40733D01*
X34983Y-40726D01*
X35020Y-40688D01*
X35050Y-40656D01*
X35071Y-40634D01*
X35078Y-40623D01*
X35078Y-40623D01*
X35071Y-40610D01*
X35054Y-40584D01*
X35030Y-40546D01*
X35000Y-40502D01*
X34922Y-40389D01*
X34965Y-40282D01*
X34978Y-40249D01*
X34995Y-40209D01*
X35007Y-40181D01*
X35013Y-40168D01*
X35025Y-40164D01*
X35054Y-40157D01*
X35097Y-40148D01*
X35148Y-40139D01*
X35196Y-40130D01*
X35239Y-40122D01*
X35271Y-40116D01*
X35285Y-40113D01*
X35289Y-40111D01*
X35291Y-40104D01*
X35293Y-40089D01*
X35294Y-40063D01*
X35295Y-40021D01*
X35295Y-39961D01*
X35295Y-39954D01*
X35294Y-39896D01*
X35293Y-39851D01*
X35292Y-39821D01*
X35290Y-39809D01*
X35290Y-39809D01*
X35276Y-39806D01*
X35245Y-39799D01*
X35202Y-39791D01*
X35150Y-39781D01*
X35146Y-39780D01*
X35095Y-39770D01*
X35051Y-39761D01*
X35021Y-39754D01*
X35008Y-39750D01*
X35005Y-39746D01*
X34995Y-39726D01*
X34980Y-39694D01*
X34963Y-39655D01*
X34946Y-39614D01*
X34931Y-39578D01*
X34921Y-39550D01*
X34918Y-39538D01*
X34919Y-39538D01*
X34926Y-39525D01*
X34944Y-39498D01*
X34969Y-39461D01*
X35000Y-39417D01*
X35002Y-39414D01*
X35032Y-39370D01*
X35056Y-39333D01*
X35072Y-39306D01*
X35078Y-39294D01*
X35078Y-39294D01*
X35068Y-39281D01*
X35046Y-39256D01*
X35014Y-39222D01*
X34975Y-39184D01*
X34963Y-39172D01*
X34921Y-39130D01*
X34891Y-39103D01*
X34873Y-39088D01*
X34864Y-39085D01*
X34863Y-39085D01*
X34850Y-39093D01*
X34823Y-39111D01*
X34785Y-39137D01*
X34741Y-39167D01*
X34738Y-39169D01*
X34694Y-39199D01*
X34657Y-39224D01*
X34631Y-39241D01*
X34620Y-39248D01*
X34618Y-39248D01*
X34600Y-39242D01*
X34569Y-39231D01*
X34531Y-39217D01*
X34490Y-39200D01*
X34454Y-39185D01*
X34426Y-39172D01*
X34413Y-39165D01*
X34413Y-39164D01*
X34408Y-39149D01*
X34400Y-39116D01*
X34391Y-39071D01*
X34381Y-39017D01*
X34379Y-39008D01*
X34369Y-38956D01*
X34361Y-38913D01*
X34355Y-38883D01*
X34352Y-38871D01*
X34344Y-38869D01*
X34319Y-38867D01*
X34280Y-38866D01*
X34233Y-38866D01*
X34184Y-38866D01*
X34135Y-38867D01*
X34094Y-38869D01*
X34064Y-38871D01*
X34052Y-38873D01*
X34052Y-38874D01*
X34047Y-38890D01*
X34040Y-38923D01*
X34031Y-38968D01*
X34020Y-39022D01*
X34018Y-39032D01*
X34009Y-39084D01*
X34000Y-39126D01*
X33994Y-39156D01*
X33990Y-39167D01*
X33986Y-39170D01*
X33964Y-39179D01*
X33929Y-39194D01*
X33886Y-39211D01*
X33786Y-39252D01*
X33663Y-39167D01*
X33651Y-39160D01*
X33607Y-39130D01*
X33571Y-39105D01*
X33546Y-39089D01*
X33535Y-39083D01*
X33534Y-39084D01*
X33522Y-39094D01*
X33498Y-39117D01*
X33464Y-39150D01*
X33426Y-39188D01*
X33397Y-39217D01*
X33363Y-39251D01*
X33342Y-39274D01*
X33330Y-39289D01*
X33326Y-39298D01*
X33327Y-39304D01*
X33335Y-39317D01*
X33353Y-39344D01*
X33378Y-39381D01*
X33408Y-39425D01*
X33433Y-39461D01*
X33459Y-39502D01*
X33477Y-39532D01*
X33483Y-39546D01*
X33481Y-39552D01*
X33473Y-39576D01*
X33458Y-39613D01*
X33440Y-39656D01*
X33397Y-39753D01*
X33333Y-39766D01*
X33294Y-39773D01*
X33240Y-39783D01*
X33189Y-39793D01*
X33108Y-39809D01*
X33105Y-40105D01*
X33117Y-40111D01*
X33129Y-40114D01*
X33159Y-40121D01*
X33202Y-40129D01*
X33252Y-40139D01*
X33295Y-40147D01*
X33339Y-40155D01*
X33370Y-40161D01*
X33384Y-40164D01*
X33387Y-40168D01*
X33398Y-40189D01*
X33413Y-40223D01*
X33430Y-40263D01*
X33448Y-40304D01*
X33463Y-40343D01*
X33474Y-40372D01*
X33478Y-40387D01*
X33472Y-40398D01*
X33455Y-40424D01*
X33431Y-40460D01*
X33402Y-40503D01*
X33373Y-40546D01*
X33348Y-40583D01*
X33331Y-40609D01*
X33323Y-40621D01*
X33327Y-40630D01*
X33344Y-40650D01*
X33377Y-40684D01*
X33425Y-40732D01*
X33433Y-40739D01*
X33471Y-40776D01*
X33504Y-40806D01*
X33526Y-40826D01*
X33536Y-40834D01*
X33536Y-40834D01*
G37*
G36*
X34622Y-54794D02*
X34646Y-54791D01*
X34669Y-54783D01*
X34679Y-54778D01*
X34700Y-54764D01*
X34717Y-54746D01*
X34729Y-54725D01*
X34738Y-54702D01*
X34741Y-54679D01*
X34741Y-54655D01*
X34735Y-54631D01*
X34724Y-54607D01*
X34717Y-54598D01*
X34706Y-54586D01*
X34695Y-54576D01*
X34685Y-54568D01*
X34681Y-54566D01*
X34660Y-54556D01*
X34638Y-54551D01*
X34614Y-54550D01*
X34606Y-54550D01*
X34592Y-54552D01*
X34580Y-54555D01*
X34567Y-54561D01*
X34553Y-54568D01*
X34533Y-54584D01*
X34517Y-54604D01*
X34505Y-54626D01*
X34502Y-54637D01*
X34498Y-54649D01*
X34497Y-54658D01*
X34497Y-54659D01*
X34497Y-54660D01*
X34496Y-54655D01*
X34496Y-54654D01*
X34492Y-54638D01*
X34486Y-54622D01*
X34479Y-54608D01*
X34465Y-54590D01*
X34446Y-54573D01*
X34425Y-54560D01*
X34401Y-54552D01*
X34375Y-54549D01*
X34368Y-54550D01*
X34349Y-54552D01*
X34330Y-54557D01*
X34327Y-54559D01*
X34306Y-54570D01*
X34288Y-54585D01*
X34272Y-54604D01*
X34261Y-54624D01*
X34254Y-54646D01*
X34254Y-54647D01*
X34253Y-54653D01*
X34252Y-54655D01*
X34252Y-54655D01*
X34251Y-54652D01*
X34250Y-54646D01*
X34249Y-54644D01*
X34242Y-54622D01*
X34230Y-54602D01*
X34214Y-54583D01*
X34200Y-54571D01*
X34179Y-54559D01*
X34155Y-54552D01*
X34129Y-54549D01*
X34111Y-54551D01*
X34087Y-54557D01*
X34064Y-54568D01*
X34045Y-54584D01*
X34029Y-54603D01*
X34027Y-54606D01*
X34021Y-54615D01*
X34017Y-54623D01*
X34015Y-54628D01*
X34012Y-54639D01*
X34009Y-54650D01*
X34008Y-54658D01*
X34008Y-54659D01*
X34007Y-54659D01*
X34007Y-54654D01*
X34004Y-54641D01*
X33998Y-54624D01*
X33990Y-54609D01*
X33976Y-54589D01*
X33957Y-54572D01*
X33935Y-54560D01*
X33911Y-54552D01*
X33886Y-54549D01*
X33863Y-54551D01*
X33839Y-54558D01*
X33817Y-54570D01*
X33797Y-54587D01*
X33788Y-54597D01*
X33778Y-54611D01*
X33771Y-54626D01*
X33767Y-54639D01*
X33763Y-54664D01*
X33763Y-54688D01*
X33769Y-54711D01*
X33778Y-54732D01*
X33792Y-54751D01*
X33808Y-54768D01*
X33828Y-54780D01*
X33851Y-54789D01*
X33876Y-54794D01*
X33878Y-54794D01*
X33903Y-54793D01*
X33926Y-54787D01*
X33949Y-54776D01*
X33957Y-54771D01*
X33973Y-54757D01*
X33987Y-54739D01*
X33997Y-54721D01*
X34000Y-54714D01*
X34003Y-54703D01*
X34006Y-54693D01*
X34007Y-54685D01*
X34007Y-54680D01*
X34008Y-54685D01*
X34008Y-54688D01*
X34011Y-54700D01*
X34014Y-54712D01*
X34018Y-54722D01*
X34024Y-54733D01*
X34039Y-54753D01*
X34058Y-54770D01*
X34079Y-54783D01*
X34104Y-54792D01*
X34108Y-54792D01*
X34125Y-54794D01*
X34142Y-54793D01*
X34158Y-54791D01*
X34175Y-54786D01*
X34198Y-54774D01*
X34218Y-54757D01*
X34219Y-54756D01*
X34233Y-54738D01*
X34244Y-54718D01*
X34250Y-54697D01*
X34250Y-54696D01*
X34252Y-54690D01*
X34252Y-54688D01*
X34252Y-54689D01*
X34253Y-54695D01*
X34254Y-54696D01*
X34257Y-54709D01*
X34263Y-54723D01*
X34270Y-54736D01*
X34281Y-54751D01*
X34299Y-54769D01*
X34321Y-54782D01*
X34345Y-54791D01*
X34349Y-54792D01*
X34366Y-54794D01*
X34384Y-54794D01*
X34399Y-54792D01*
X34413Y-54788D01*
X34436Y-54777D01*
X34456Y-54762D01*
X34473Y-54744D01*
X34486Y-54722D01*
X34489Y-54715D01*
X34492Y-54704D01*
X34495Y-54693D01*
X34496Y-54685D01*
X34496Y-54684D01*
X34496Y-54683D01*
X34497Y-54688D01*
X34497Y-54689D01*
X34501Y-54705D01*
X34507Y-54721D01*
X34514Y-54735D01*
X34518Y-54740D01*
X34533Y-54759D01*
X34553Y-54774D01*
X34574Y-54786D01*
X34597Y-54792D01*
X34622Y-54794D01*
X34622Y-54794D01*
G37*
G36*
X33632Y-54549D02*
X33647Y-54549D01*
X33661Y-54547D01*
X33678Y-54543D01*
X33701Y-54533D01*
X33721Y-54518D01*
X33738Y-54500D01*
X33751Y-54479D01*
X33759Y-54456D01*
X33762Y-54431D01*
X33761Y-54406D01*
X33754Y-54382D01*
X33743Y-54361D01*
X33728Y-54341D01*
X33708Y-54325D01*
X33702Y-54321D01*
X33678Y-54310D01*
X33654Y-54305D01*
X33628Y-54304D01*
X33603Y-54310D01*
X33583Y-54318D01*
X33562Y-54332D01*
X33544Y-54350D01*
X33530Y-54372D01*
X33521Y-54397D01*
X33519Y-54409D01*
X33518Y-54425D01*
X33518Y-54440D01*
X33520Y-54454D01*
X33521Y-54458D01*
X33531Y-54483D01*
X33545Y-54505D01*
X33564Y-54523D01*
X33586Y-54537D01*
X33597Y-54541D01*
X33611Y-54546D01*
X33624Y-54548D01*
X33632Y-54549D01*
X33632Y-54549D01*
G37*
G36*
X34867Y-54549D02*
X34892Y-54546D01*
X34916Y-54537D01*
X34939Y-54523D01*
X34944Y-54520D01*
X34961Y-54502D01*
X34974Y-54481D01*
X34983Y-54457D01*
X34985Y-54444D01*
X34986Y-54428D01*
X34986Y-54413D01*
X34984Y-54400D01*
X34982Y-54394D01*
X34973Y-54370D01*
X34958Y-54349D01*
X34941Y-54331D01*
X34920Y-54317D01*
X34896Y-54308D01*
X34871Y-54304D01*
X34861Y-54304D01*
X34837Y-54307D01*
X34814Y-54315D01*
X34793Y-54327D01*
X34775Y-54342D01*
X34760Y-54361D01*
X34750Y-54383D01*
X34743Y-54407D01*
X34742Y-54432D01*
X34743Y-54447D01*
X34746Y-54460D01*
X34751Y-54475D01*
X34761Y-54493D01*
X34777Y-54513D01*
X34796Y-54528D01*
X34818Y-54540D01*
X34842Y-54547D01*
X34867Y-54549D01*
X34867Y-54549D01*
G37*
G36*
X33388Y-54303D02*
X33405Y-54303D01*
X33421Y-54302D01*
X33438Y-54296D01*
X33461Y-54285D01*
X33481Y-54268D01*
X33494Y-54253D01*
X33507Y-54232D01*
X33515Y-54208D01*
X33516Y-54198D01*
X33517Y-54184D01*
X33517Y-54169D01*
X33515Y-54156D01*
X33513Y-54149D01*
X33503Y-54125D01*
X33489Y-54103D01*
X33471Y-54086D01*
X33449Y-54072D01*
X33441Y-54068D01*
X33425Y-54063D01*
X33409Y-54060D01*
X33390Y-54060D01*
X33379Y-54060D01*
X33366Y-54062D01*
X33354Y-54066D01*
X33340Y-54072D01*
X33332Y-54076D01*
X33312Y-54091D01*
X33295Y-54110D01*
X33282Y-54132D01*
X33274Y-54157D01*
X33274Y-54163D01*
X33273Y-54178D01*
X33273Y-54193D01*
X33275Y-54206D01*
X33277Y-54214D01*
X33286Y-54238D01*
X33300Y-54260D01*
X33318Y-54277D01*
X33340Y-54291D01*
X33365Y-54300D01*
X33372Y-54302D01*
X33388Y-54303D01*
X33388Y-54303D01*
G37*
G36*
X34371Y-54304D02*
X34396Y-54302D01*
X34419Y-54296D01*
X34432Y-54289D01*
X34453Y-54275D01*
X34471Y-54257D01*
X34484Y-54235D01*
X34493Y-54211D01*
X34494Y-54206D01*
X34497Y-54186D01*
X34496Y-54167D01*
X34491Y-54146D01*
X34481Y-54122D01*
X34467Y-54102D01*
X34449Y-54084D01*
X34427Y-54071D01*
X34402Y-54062D01*
X34386Y-54058D01*
X34394Y-54057D01*
X34396Y-54057D01*
X34414Y-54052D01*
X34432Y-54044D01*
X34449Y-54033D01*
X34452Y-54031D01*
X34470Y-54013D01*
X34483Y-53992D01*
X34492Y-53970D01*
X34496Y-53946D01*
X34496Y-53922D01*
X34490Y-53898D01*
X34480Y-53875D01*
X34479Y-53874D01*
X34464Y-53854D01*
X34445Y-53838D01*
X34425Y-53826D01*
X34402Y-53818D01*
X34379Y-53815D01*
X34355Y-53816D01*
X34332Y-53822D01*
X34310Y-53833D01*
X34290Y-53848D01*
X34279Y-53860D01*
X34267Y-53878D01*
X34258Y-53897D01*
X34253Y-53915D01*
X34253Y-53920D01*
X34252Y-53922D01*
X34252Y-53921D01*
X34251Y-53915D01*
X34246Y-53899D01*
X34239Y-53881D01*
X34229Y-53865D01*
X34223Y-53857D01*
X34204Y-53840D01*
X34183Y-53827D01*
X34159Y-53818D01*
X34135Y-53815D01*
X34109Y-53817D01*
X34094Y-53820D01*
X34071Y-53830D01*
X34050Y-53845D01*
X34033Y-53863D01*
X34020Y-53884D01*
X34011Y-53908D01*
X34009Y-53920D01*
X34008Y-53945D01*
X34012Y-53969D01*
X34021Y-53992D01*
X34034Y-54013D01*
X34052Y-54031D01*
X34074Y-54045D01*
X34084Y-54050D01*
X34095Y-54054D01*
X34106Y-54057D01*
X34113Y-54058D01*
X34114Y-54058D01*
X34114Y-54059D01*
X34109Y-54060D01*
X34097Y-54064D01*
X34080Y-54070D01*
X34066Y-54077D01*
X34059Y-54082D01*
X34042Y-54096D01*
X34028Y-54114D01*
X34017Y-54132D01*
X34011Y-54152D01*
X34008Y-54174D01*
X34008Y-54196D01*
X34009Y-54200D01*
X34016Y-54225D01*
X34027Y-54248D01*
X34044Y-54268D01*
X34057Y-54280D01*
X34079Y-54293D01*
X34103Y-54302D01*
X34113Y-54303D01*
X34126Y-54303D01*
X34140Y-54303D01*
X34153Y-54302D01*
X34163Y-54300D01*
X34171Y-54297D01*
X34195Y-54285D01*
X34215Y-54269D01*
X34232Y-54249D01*
X34238Y-54240D01*
X34245Y-54223D01*
X34250Y-54207D01*
X34250Y-54206D01*
X34252Y-54200D01*
X34252Y-54198D01*
X34252Y-54198D01*
X34252Y-54165D01*
X34252Y-54165D01*
X34251Y-54162D01*
X34250Y-54156D01*
X34250Y-54155D01*
X34242Y-54133D01*
X34231Y-54112D01*
X34215Y-54094D01*
X34196Y-54078D01*
X34176Y-54068D01*
X34174Y-54067D01*
X34163Y-54064D01*
X34153Y-54061D01*
X34142Y-54059D01*
X34153Y-54057D01*
X34167Y-54053D01*
X34189Y-54044D01*
X34209Y-54030D01*
X34226Y-54012D01*
X34239Y-53992D01*
X34244Y-53982D01*
X34248Y-53969D01*
X34251Y-53959D01*
X34251Y-53954D01*
X34252Y-53952D01*
X34252Y-53953D01*
X34253Y-53959D01*
X34255Y-53968D01*
X34260Y-53980D01*
X34265Y-53992D01*
X34272Y-54005D01*
X34288Y-54024D01*
X34307Y-54039D01*
X34329Y-54050D01*
X34352Y-54057D01*
X34362Y-54059D01*
X34351Y-54061D01*
X34350Y-54061D01*
X34339Y-54064D01*
X34329Y-54068D01*
X34326Y-54069D01*
X34306Y-54080D01*
X34287Y-54095D01*
X34272Y-54114D01*
X34261Y-54134D01*
X34254Y-54156D01*
X34254Y-54157D01*
X34253Y-54163D01*
X34252Y-54165D01*
X34252Y-54198D01*
X34252Y-54198D01*
X34253Y-54201D01*
X34254Y-54207D01*
X34258Y-54223D01*
X34269Y-54245D01*
X34284Y-54264D01*
X34302Y-54281D01*
X34323Y-54293D01*
X34323Y-54293D01*
X34346Y-54301D01*
X34371Y-54304D01*
X34371Y-54304D01*
G37*
G36*
X35100Y-54303D02*
X35120Y-54303D01*
X35138Y-54301D01*
X35150Y-54297D01*
X35173Y-54286D01*
X35193Y-54271D01*
X35209Y-54253D01*
X35221Y-54231D01*
X35229Y-54207D01*
X35232Y-54182D01*
X35231Y-54171D01*
X35227Y-54146D01*
X35217Y-54123D01*
X35201Y-54101D01*
X35197Y-54096D01*
X35180Y-54081D01*
X35159Y-54070D01*
X35138Y-54062D01*
X35137Y-54062D01*
X35119Y-54060D01*
X35099Y-54060D01*
X35081Y-54062D01*
X35074Y-54064D01*
X35051Y-54074D01*
X35030Y-54088D01*
X35014Y-54105D01*
X35000Y-54125D01*
X34991Y-54147D01*
X34987Y-54171D01*
X34987Y-54195D01*
X34993Y-54220D01*
X35001Y-54239D01*
X35015Y-54260D01*
X35033Y-54278D01*
X35055Y-54291D01*
X35078Y-54300D01*
X35081Y-54301D01*
X35100Y-54303D01*
X35100Y-54303D01*
G37*
G36*
X33889Y-53570D02*
X33913Y-53567D01*
X33937Y-53559D01*
X33948Y-53553D01*
X33959Y-53545D01*
X33970Y-53535D01*
X33983Y-53521D01*
X33996Y-53501D01*
X34004Y-53477D01*
X34005Y-53470D01*
X34007Y-53454D01*
X34007Y-53437D01*
X34005Y-53421D01*
X33999Y-53401D01*
X33987Y-53380D01*
X33972Y-53361D01*
X33970Y-53359D01*
X33958Y-53350D01*
X33945Y-53341D01*
X33933Y-53334D01*
X33929Y-53333D01*
X33919Y-53330D01*
X33909Y-53327D01*
X33901Y-53326D01*
X33897Y-53326D01*
X33902Y-53324D01*
X33908Y-53323D01*
X33915Y-53321D01*
X33924Y-53319D01*
X33943Y-53310D01*
X33961Y-53299D01*
X33975Y-53285D01*
X33978Y-53283D01*
X33992Y-53261D01*
X34002Y-53238D01*
X34007Y-53214D01*
X34007Y-53189D01*
X34006Y-53183D01*
X33999Y-53158D01*
X33988Y-53136D01*
X33971Y-53116D01*
X33956Y-53103D01*
X33935Y-53090D01*
X33911Y-53082D01*
X33906Y-53081D01*
X33890Y-53080D01*
X33872Y-53081D01*
X33857Y-53083D01*
X33843Y-53087D01*
X33820Y-53098D01*
X33801Y-53113D01*
X33785Y-53132D01*
X33772Y-53153D01*
X33765Y-53177D01*
X33765Y-53180D01*
X33763Y-53185D01*
X33762Y-53187D01*
X33761Y-53185D01*
X33761Y-53180D01*
X33758Y-53170D01*
X33754Y-53159D01*
X33750Y-53149D01*
X33746Y-53142D01*
X33731Y-53120D01*
X33712Y-53103D01*
X33691Y-53091D01*
X33667Y-53083D01*
X33641Y-53080D01*
X33621Y-53081D01*
X33597Y-53087D01*
X33576Y-53098D01*
X33563Y-53107D01*
X33545Y-53125D01*
X33532Y-53145D01*
X33522Y-53168D01*
X33518Y-53192D01*
X33518Y-53217D01*
X33523Y-53240D01*
X33534Y-53263D01*
X33548Y-53284D01*
X33567Y-53301D01*
X33589Y-53314D01*
X33614Y-53322D01*
X33628Y-53326D01*
X33620Y-53326D01*
X33615Y-53327D01*
X33595Y-53333D01*
X33576Y-53343D01*
X33558Y-53356D01*
X33544Y-53371D01*
X33535Y-53384D01*
X33527Y-53401D01*
X33521Y-53417D01*
X33519Y-53430D01*
X33518Y-53446D01*
X33518Y-53462D01*
X33520Y-53474D01*
X33524Y-53489D01*
X33536Y-53512D01*
X33551Y-53532D01*
X33571Y-53549D01*
X33594Y-53561D01*
X33619Y-53568D01*
X33626Y-53569D01*
X33641Y-53570D01*
X33657Y-53569D01*
X33670Y-53566D01*
X33681Y-53563D01*
X33703Y-53552D01*
X33724Y-53537D01*
X33740Y-53518D01*
X33752Y-53496D01*
X33760Y-53472D01*
X33761Y-53470D01*
X33762Y-53465D01*
X33763Y-53465D01*
X33763Y-53431D01*
X33762Y-53430D01*
X33760Y-53425D01*
X33760Y-53424D01*
X33756Y-53408D01*
X33748Y-53390D01*
X33738Y-53374D01*
X33731Y-53365D01*
X33712Y-53348D01*
X33689Y-53335D01*
X33665Y-53327D01*
X33653Y-53325D01*
X33661Y-53323D01*
X33668Y-53322D01*
X33677Y-53319D01*
X33681Y-53318D01*
X33704Y-53307D01*
X33723Y-53292D01*
X33740Y-53273D01*
X33752Y-53252D01*
X33760Y-53229D01*
X33761Y-53222D01*
X33762Y-53219D01*
X33764Y-53221D01*
X33765Y-53229D01*
X33765Y-53229D01*
X33769Y-53242D01*
X33775Y-53257D01*
X33783Y-53270D01*
X33789Y-53278D01*
X33800Y-53290D01*
X33812Y-53301D01*
X33824Y-53309D01*
X33825Y-53309D01*
X33844Y-53318D01*
X33864Y-53323D01*
X33872Y-53325D01*
X33862Y-53327D01*
X33841Y-53333D01*
X33819Y-53344D01*
X33799Y-53360D01*
X33784Y-53378D01*
X33780Y-53385D01*
X33774Y-53396D01*
X33769Y-53409D01*
X33765Y-53420D01*
X33764Y-53428D01*
X33764Y-53428D01*
X33763Y-53431D01*
X33763Y-53465D01*
X33763Y-53465D01*
X33764Y-53471D01*
X33766Y-53477D01*
X33768Y-53485D01*
X33773Y-53498D01*
X33785Y-53519D01*
X33801Y-53537D01*
X33821Y-53552D01*
X33842Y-53562D01*
X33865Y-53568D01*
X33889Y-53570D01*
X33889Y-53570D01*
G37*
G36*
X34625Y-53570D02*
X34650Y-53566D01*
X34672Y-53558D01*
X34693Y-53545D01*
X34711Y-53528D01*
X34725Y-53508D01*
X34736Y-53485D01*
X34738Y-53477D01*
X34740Y-53471D01*
X34740Y-53469D01*
X34741Y-53464D01*
X34741Y-53464D01*
X34741Y-53430D01*
X34740Y-53427D01*
X34738Y-53418D01*
X34734Y-53404D01*
X34723Y-53382D01*
X34708Y-53363D01*
X34689Y-53347D01*
X34668Y-53335D01*
X34644Y-53327D01*
X34632Y-53325D01*
X34640Y-53323D01*
X34641Y-53323D01*
X34661Y-53317D01*
X34680Y-53309D01*
X34688Y-53304D01*
X34700Y-53294D01*
X34712Y-53282D01*
X34721Y-53270D01*
X34728Y-53259D01*
X34734Y-53244D01*
X34739Y-53229D01*
X34740Y-53222D01*
X34741Y-53219D01*
X34743Y-53221D01*
X34744Y-53228D01*
X34749Y-53244D01*
X34760Y-53267D01*
X34776Y-53287D01*
X34795Y-53303D01*
X34817Y-53316D01*
X34843Y-53323D01*
X34851Y-53325D01*
X34839Y-53327D01*
X34828Y-53330D01*
X34804Y-53340D01*
X34783Y-53355D01*
X34766Y-53374D01*
X34761Y-53381D01*
X34754Y-53392D01*
X34749Y-53406D01*
X34746Y-53414D01*
X34744Y-53424D01*
X34744Y-53424D01*
X34742Y-53429D01*
X34741Y-53430D01*
X34741Y-53464D01*
X34742Y-53465D01*
X34744Y-53471D01*
X34746Y-53480D01*
X34753Y-53498D01*
X34762Y-53516D01*
X34769Y-53525D01*
X34788Y-53543D01*
X34809Y-53557D01*
X34834Y-53566D01*
X34845Y-53568D01*
X34862Y-53570D01*
X34879Y-53569D01*
X34894Y-53566D01*
X34896Y-53566D01*
X34920Y-53556D01*
X34942Y-53542D01*
X34960Y-53524D01*
X34974Y-53502D01*
X34983Y-53477D01*
X34985Y-53466D01*
X34986Y-53450D01*
X34986Y-53432D01*
X34983Y-53417D01*
X34979Y-53404D01*
X34970Y-53387D01*
X34960Y-53371D01*
X34949Y-53359D01*
X34934Y-53347D01*
X34919Y-53338D01*
X34913Y-53335D01*
X34901Y-53330D01*
X34889Y-53327D01*
X34880Y-53326D01*
X34880Y-53326D01*
X34883Y-53324D01*
X34890Y-53322D01*
X34904Y-53318D01*
X34920Y-53311D01*
X34933Y-53304D01*
X34936Y-53302D01*
X34952Y-53287D01*
X34966Y-53270D01*
X34977Y-53252D01*
X34980Y-53243D01*
X34986Y-53218D01*
X34986Y-53193D01*
X34982Y-53168D01*
X34980Y-53163D01*
X34970Y-53140D01*
X34955Y-53120D01*
X34936Y-53104D01*
X34914Y-53091D01*
X34890Y-53082D01*
X34887Y-53082D01*
X34870Y-53080D01*
X34852Y-53081D01*
X34836Y-53083D01*
X34832Y-53084D01*
X34808Y-53094D01*
X34786Y-53108D01*
X34768Y-53126D01*
X34754Y-53149D01*
X34751Y-53156D01*
X34747Y-53167D01*
X34744Y-53177D01*
X34743Y-53185D01*
X34743Y-53186D01*
X34742Y-53187D01*
X34741Y-53184D01*
X34739Y-53177D01*
X34734Y-53160D01*
X34724Y-53139D01*
X34709Y-53120D01*
X34691Y-53103D01*
X34669Y-53091D01*
X34669Y-53090D01*
X34647Y-53083D01*
X34622Y-53080D01*
X34597Y-53082D01*
X34574Y-53088D01*
X34561Y-53095D01*
X34540Y-53109D01*
X34522Y-53127D01*
X34509Y-53149D01*
X34500Y-53173D01*
X34499Y-53178D01*
X34496Y-53198D01*
X34497Y-53217D01*
X34502Y-53239D01*
X34512Y-53263D01*
X34527Y-53283D01*
X34546Y-53300D01*
X34568Y-53314D01*
X34593Y-53322D01*
X34598Y-53324D01*
X34603Y-53325D01*
X34603Y-53326D01*
X34595Y-53327D01*
X34581Y-53331D01*
X34566Y-53337D01*
X34552Y-53345D01*
X34538Y-53356D01*
X34521Y-53374D01*
X34507Y-53397D01*
X34506Y-53401D01*
X34499Y-53425D01*
X34497Y-53450D01*
X34499Y-53475D01*
X34508Y-53498D01*
X34513Y-53509D01*
X34521Y-53521D01*
X34531Y-53532D01*
X34532Y-53533D01*
X34552Y-53550D01*
X34573Y-53561D01*
X34598Y-53568D01*
X34601Y-53569D01*
X34625Y-53570D01*
X34625Y-53570D01*
G37*
G54D14*
X35192Y-46594D02*
X34817Y-46594D01*
X34817Y-46594D02*
X34817Y-47893D01*
X35192Y-47893D02*
X34817Y-47893D01*
X35192Y-46594D02*
X35192Y-47893D01*
X33682Y-46594D02*
X33308Y-46594D01*
X33308Y-46594D02*
X33308Y-47893D01*
X33682Y-47893D02*
X33308Y-47893D01*
X33682Y-46594D02*
X33682Y-47893D01*
G54D15*
X34832Y-47874D02*
X33672Y-47874D01*
X34822Y-46614D02*
X33672Y-46614D01*
G54D12*
X26536Y-44244D02*
X23347Y-44244D01*
X23347Y-44244D02*
X23347Y-50244D01*
X23347Y-50244D02*
X26536Y-50244D01*
X26536Y-44244D02*
X26536Y-50244D01*
X43070Y-44244D02*
X43070Y-50244D01*
X42086Y-50244D02*
X43070Y-50244D01*
X42086Y-44244D02*
X43070Y-44244D01*
X42086Y-50244D02*
X42086Y-44244D01*
X43070Y-44744D02*
X45433Y-44744D01*
X43070Y-45744D02*
X45433Y-45744D01*
X43070Y-46744D02*
X45433Y-46744D01*
X45433Y-47744D02*
X43070Y-47744D01*
X43070Y-48744D02*
X45433Y-48744D01*
X43070Y-49744D02*
X45433Y-49744D01*
X42086Y-45244D02*
X43070Y-45244D01*
X42086Y-46244D02*
X43070Y-46244D01*
X42086Y-49244D02*
X43070Y-49244D01*
X42086Y-48244D02*
X43070Y-48244D01*
X42086Y-47244D02*
X43070Y-47244D01*
X43420Y-38976D02*
G75*
G03X43420Y-38976I-900J0D01*
G74*
G01*
X26884Y-55512D02*
G75*
G03X26884Y-55512I-900J0D01*
G74*
G01*
X43420Y-55512D02*
G75*
G03X43420Y-55512I-900J0D01*
G74*
G01*
X26884Y-38976D02*
G75*
G03X26884Y-38976I-900J0D01*
G74*
G01*
X29802Y-43639D02*
X29802Y-43384D01*
X29802Y-43384D02*
X29251Y-43384D01*
X29251Y-43639D02*
X29251Y-43384D01*
X29802Y-43639D02*
X29251Y-43639D01*
X29802Y-44219D02*
X29802Y-43963D01*
X29802Y-43963D02*
X29251Y-43963D01*
X29251Y-44219D02*
X29251Y-43963D01*
X29802Y-44219D02*
X29251Y-44219D01*
X29723Y-43877D02*
X29723Y-43721D01*
X29723Y-43721D02*
X29331Y-43721D01*
X29331Y-43877D02*
X29331Y-43721D01*
X29723Y-43877D02*
X29331Y-43877D01*
X29277Y-43960D02*
X29277Y-43638D01*
X29777Y-43960D02*
X29777Y-43638D01*
X29140Y-44575D02*
X29140Y-43023D01*
X29140Y-43023D02*
X29914Y-43023D01*
X29914Y-43023D02*
X29914Y-44575D01*
X29914Y-44575D02*
X29140Y-44575D01*
X32618Y-44232D02*
X32618Y-44015D01*
X32618Y-43740D02*
X32618Y-43484D01*
X32618Y-43799D02*
X32401Y-44015D01*
X32401Y-44015D02*
X32834Y-44015D01*
X32834Y-44015D02*
X32618Y-43799D01*
X32401Y-43740D02*
X32834Y-43740D01*
X32381Y-43287D02*
X32381Y-43110D01*
X32381Y-43110D02*
X32854Y-43110D01*
X32854Y-43110D02*
X32854Y-43287D01*
X32381Y-44429D02*
X32381Y-44606D01*
X32381Y-44606D02*
X32854Y-44606D01*
X32854Y-44606D02*
X32854Y-44429D01*
X32244Y-44429D02*
X32244Y-43287D01*
X32244Y-43287D02*
X32992Y-43287D01*
X32992Y-43287D02*
X32992Y-44429D01*
X32992Y-44429D02*
X32244Y-44429D01*
X35039Y-41496D02*
X33464Y-41496D01*
X35039Y-41496D02*
X35039Y-42362D01*
X35039Y-42362D02*
X33464Y-42362D01*
X33464Y-42362D02*
X33464Y-41496D01*
X37198Y-41683D02*
X37198Y-43416D01*
X37198Y-43416D02*
X35701Y-43416D01*
X35701Y-43416D02*
X35701Y-41683D01*
X35701Y-41683D02*
X37198Y-41683D01*
X36360Y-42270D02*
X36540Y-42270D01*
X36540Y-42270D02*
X36540Y-42041D01*
X36360Y-42041D02*
X36540Y-42041D01*
X36360Y-42270D02*
X36360Y-42041D01*
X36730Y-43059D02*
X36910Y-43059D01*
X36910Y-43059D02*
X36910Y-42830D01*
X36730Y-42830D02*
X36910Y-42830D01*
X36730Y-43059D02*
X36730Y-42830D01*
X35990Y-43059D02*
X36170Y-43059D01*
X36170Y-43059D02*
X36170Y-42830D01*
X35990Y-42830D02*
X36170Y-42830D01*
X35990Y-43059D02*
X35990Y-42830D01*
X36254Y-42668D02*
X36646Y-42668D01*
X36646Y-42668D02*
X36646Y-42432D01*
X36254Y-42432D02*
X36646Y-42432D01*
X36254Y-42668D02*
X36254Y-42432D01*
X37009Y-42291D02*
X37009Y-42809D01*
X37009Y-42809D02*
X35891Y-42809D01*
X35891Y-42809D02*
X35891Y-42291D01*
X35891Y-42291D02*
X37009Y-42291D01*
X36516Y-43512D02*
X36516Y-45087D01*
X36516Y-43512D02*
X37383Y-43512D01*
X37383Y-43512D02*
X37383Y-45087D01*
X37383Y-45087D02*
X36516Y-45087D01*
X36225Y-44140D02*
X36225Y-43885D01*
X36225Y-43885D02*
X35674Y-43885D01*
X35674Y-44140D02*
X35674Y-43885D01*
X36225Y-44140D02*
X35674Y-44140D01*
X36225Y-44720D02*
X36225Y-44464D01*
X36225Y-44464D02*
X35674Y-44464D01*
X35674Y-44720D02*
X35674Y-44464D01*
X36225Y-44720D02*
X35674Y-44720D01*
X36146Y-44378D02*
X36146Y-44222D01*
X36146Y-44222D02*
X35754Y-44222D01*
X35754Y-44378D02*
X35754Y-44222D01*
X36146Y-44378D02*
X35754Y-44378D01*
X35700Y-44461D02*
X35700Y-44139D01*
X36200Y-44461D02*
X36200Y-44139D01*
X35563Y-45076D02*
X35563Y-43524D01*
X35563Y-43524D02*
X36337Y-43524D01*
X36337Y-43524D02*
X36337Y-45076D01*
X36337Y-45076D02*
X35563Y-45076D01*
X36849Y-47103D02*
X36849Y-46848D01*
X36849Y-46848D02*
X36298Y-46848D01*
X36298Y-47103D02*
X36298Y-46848D01*
X36849Y-47103D02*
X36298Y-47103D01*
X36849Y-47683D02*
X36849Y-47427D01*
X36849Y-47427D02*
X36298Y-47427D01*
X36298Y-47683D02*
X36298Y-47427D01*
X36849Y-47683D02*
X36298Y-47683D01*
X36770Y-47341D02*
X36770Y-47185D01*
X36770Y-47185D02*
X36378Y-47185D01*
X36378Y-47341D02*
X36378Y-47185D01*
X36770Y-47341D02*
X36378Y-47341D01*
X36324Y-47424D02*
X36324Y-47102D01*
X36824Y-47424D02*
X36824Y-47102D01*
X36187Y-48039D02*
X36187Y-46487D01*
X36187Y-46487D02*
X36961Y-46487D01*
X36961Y-46487D02*
X36961Y-48039D01*
X36961Y-48039D02*
X36187Y-48039D01*
X43307Y-41987D02*
X41732Y-41987D01*
X43307Y-41987D02*
X43307Y-42854D01*
X43307Y-42854D02*
X41732Y-42854D01*
X41732Y-42854D02*
X41732Y-41987D01*
X43307Y-40905D02*
X41732Y-40905D01*
X43307Y-40905D02*
X43307Y-41772D01*
X43307Y-41772D02*
X41732Y-41772D01*
X41732Y-41772D02*
X41732Y-40905D01*
X26771Y-41987D02*
X25196Y-41987D01*
X26771Y-41987D02*
X26771Y-42854D01*
X26771Y-42854D02*
X25196Y-42854D01*
X25196Y-42854D02*
X25196Y-41987D01*
X26771Y-40905D02*
X25196Y-40905D01*
X26771Y-40905D02*
X26771Y-41772D01*
X26771Y-41772D02*
X25196Y-41772D01*
X25196Y-41772D02*
X25196Y-40905D01*
X30512Y-52952D02*
X30512Y-54921D01*
X30512Y-54921D02*
X28543Y-54921D01*
X28543Y-54921D02*
X28543Y-53149D01*
X28543Y-53149D02*
X28740Y-52952D01*
X28740Y-52952D02*
X30512Y-52952D01*
X37991Y-41535D02*
X37991Y-39566D01*
X37991Y-39566D02*
X39960Y-39566D01*
X39960Y-39566D02*
X39960Y-41338D01*
X39960Y-41338D02*
X39763Y-41535D01*
X39763Y-41535D02*
X37991Y-41535D01*
X37991Y-54921D02*
X37991Y-52952D01*
X37991Y-52952D02*
X39960Y-52952D01*
X39960Y-52952D02*
X39960Y-54724D01*
X39960Y-54724D02*
X39763Y-54921D01*
X39763Y-54921D02*
X37991Y-54921D01*
X37991Y-48228D02*
X37991Y-46259D01*
X37991Y-46259D02*
X39960Y-46259D01*
X39960Y-46259D02*
X39960Y-48031D01*
X39960Y-48031D02*
X39763Y-48228D01*
X39763Y-48228D02*
X37991Y-48228D01*
X30512Y-46259D02*
X30512Y-48228D01*
X30512Y-48228D02*
X28543Y-48228D01*
X28543Y-48228D02*
X28543Y-46456D01*
X28543Y-46456D02*
X28740Y-46259D01*
X28740Y-46259D02*
X30512Y-46259D01*
X30512Y-39566D02*
X30512Y-41535D01*
X30512Y-41535D02*
X28543Y-41535D01*
X28543Y-41535D02*
X28543Y-39763D01*
X28543Y-39763D02*
X28740Y-39566D01*
X28740Y-39566D02*
X30512Y-39566D01*
G54D11*
X34185Y-48999D02*
X33994Y-48999D01*
X33994Y-48599D01*
X34528Y-48999D02*
X34299Y-48999D01*
X34413Y-48999D02*
X34413Y-48599D01*
X34375Y-48656D01*
X34337Y-48695D01*
X34299Y-48714D01*
G54D12*
X28927Y-42638D02*
X28796Y-42451D01*
X28702Y-42638D02*
X28702Y-42245D01*
X28852Y-42245D01*
X28890Y-42263D01*
X28908Y-42282D01*
X28927Y-42320D01*
X28927Y-42376D01*
X28908Y-42413D01*
X28890Y-42432D01*
X28852Y-42451D01*
X28702Y-42451D01*
X29002Y-42676D02*
X29302Y-42676D01*
X29621Y-42601D02*
X29602Y-42619D01*
X29546Y-42638D01*
X29508Y-42638D01*
X29452Y-42619D01*
X29415Y-42582D01*
X29396Y-42544D01*
X29377Y-42470D01*
X29377Y-42413D01*
X29396Y-42338D01*
X29415Y-42301D01*
X29452Y-42263D01*
X29508Y-42245D01*
X29546Y-42245D01*
X29602Y-42263D01*
X29621Y-42282D01*
X29771Y-42619D02*
X29827Y-42638D01*
X29921Y-42638D01*
X29958Y-42619D01*
X29977Y-42601D01*
X29996Y-42563D01*
X29996Y-42526D01*
X29977Y-42488D01*
X29958Y-42470D01*
X29921Y-42451D01*
X29846Y-42432D01*
X29808Y-42413D01*
X29790Y-42395D01*
X29771Y-42357D01*
X29771Y-42320D01*
X29790Y-42282D01*
X29808Y-42263D01*
X29846Y-42245D01*
X29940Y-42245D01*
X29996Y-42263D01*
X30371Y-42638D02*
X30146Y-42638D01*
X30258Y-42638D02*
X30258Y-42245D01*
X30221Y-42301D01*
X30183Y-42338D01*
X30146Y-42357D01*
X32140Y-42579D02*
X32140Y-42185D01*
X32233Y-42185D01*
X32290Y-42204D01*
X32327Y-42242D01*
X32346Y-42279D01*
X32365Y-42354D01*
X32365Y-42410D01*
X32346Y-42485D01*
X32327Y-42523D01*
X32290Y-42560D01*
X32233Y-42579D01*
X32140Y-42579D01*
X32514Y-42560D02*
X32571Y-42579D01*
X32664Y-42579D01*
X32702Y-42560D01*
X32721Y-42542D01*
X32739Y-42504D01*
X32739Y-42467D01*
X32721Y-42429D01*
X32702Y-42410D01*
X32664Y-42392D01*
X32589Y-42373D01*
X32552Y-42354D01*
X32533Y-42335D01*
X32514Y-42298D01*
X32514Y-42260D01*
X32533Y-42223D01*
X32552Y-42204D01*
X32589Y-42185D01*
X32683Y-42185D01*
X32739Y-42204D01*
X33114Y-42579D02*
X32889Y-42579D01*
X33002Y-42579D02*
X33002Y-42185D01*
X32964Y-42242D01*
X32927Y-42279D01*
X32889Y-42298D01*
X34186Y-41313D02*
X34167Y-41332D01*
X34111Y-41351D01*
X34073Y-41351D01*
X34017Y-41332D01*
X33980Y-41295D01*
X33961Y-41257D01*
X33942Y-41182D01*
X33942Y-41126D01*
X33961Y-41051D01*
X33980Y-41013D01*
X34017Y-40976D01*
X34073Y-40957D01*
X34111Y-40957D01*
X34167Y-40976D01*
X34186Y-40995D01*
X34561Y-41351D02*
X34336Y-41351D01*
X34448Y-41351D02*
X34448Y-40957D01*
X34411Y-41013D01*
X34373Y-41051D01*
X34336Y-41070D01*
X35971Y-41547D02*
X35971Y-41153D01*
X36065Y-41153D01*
X36121Y-41172D01*
X36159Y-41209D01*
X36178Y-41247D01*
X36196Y-41322D01*
X36196Y-41378D01*
X36178Y-41453D01*
X36159Y-41490D01*
X36121Y-41528D01*
X36065Y-41547D01*
X35971Y-41547D01*
X36328Y-41153D02*
X36590Y-41153D01*
X36328Y-41547D01*
X36590Y-41547D01*
X36946Y-41547D02*
X36721Y-41547D01*
X36834Y-41547D02*
X36834Y-41153D01*
X36796Y-41209D01*
X36759Y-41247D01*
X36721Y-41265D01*
X36883Y-45652D02*
X36864Y-45671D01*
X36808Y-45689D01*
X36770Y-45689D01*
X36714Y-45671D01*
X36676Y-45633D01*
X36658Y-45596D01*
X36639Y-45521D01*
X36639Y-45464D01*
X36658Y-45389D01*
X36676Y-45352D01*
X36714Y-45314D01*
X36770Y-45296D01*
X36808Y-45296D01*
X36864Y-45314D01*
X36883Y-45333D01*
X37220Y-45296D02*
X37145Y-45296D01*
X37108Y-45314D01*
X37089Y-45333D01*
X37051Y-45389D01*
X37033Y-45464D01*
X37033Y-45614D01*
X37051Y-45652D01*
X37070Y-45671D01*
X37108Y-45689D01*
X37183Y-45689D01*
X37220Y-45671D01*
X37239Y-45652D01*
X37258Y-45614D01*
X37258Y-45521D01*
X37239Y-45483D01*
X37220Y-45464D01*
X37183Y-45446D01*
X37108Y-45446D01*
X37070Y-45464D01*
X37051Y-45483D01*
X37033Y-45521D01*
X35898Y-45689D02*
X35767Y-45502D01*
X35673Y-45689D02*
X35673Y-45296D01*
X35823Y-45296D01*
X35861Y-45314D01*
X35880Y-45333D01*
X35898Y-45371D01*
X35898Y-45427D01*
X35880Y-45464D01*
X35861Y-45483D01*
X35823Y-45502D01*
X35673Y-45502D01*
X36273Y-45689D02*
X36048Y-45689D01*
X36161Y-45689D02*
X36161Y-45296D01*
X36123Y-45352D01*
X36086Y-45389D01*
X36048Y-45408D01*
X36528Y-48583D02*
X36397Y-48396D01*
X36303Y-48583D02*
X36303Y-48189D01*
X36453Y-48189D01*
X36491Y-48208D01*
X36510Y-48227D01*
X36528Y-48264D01*
X36528Y-48321D01*
X36510Y-48358D01*
X36491Y-48377D01*
X36453Y-48396D01*
X36303Y-48396D01*
X36678Y-48227D02*
X36697Y-48208D01*
X36735Y-48189D01*
X36828Y-48189D01*
X36866Y-48208D01*
X36885Y-48227D01*
X36903Y-48264D01*
X36903Y-48302D01*
X36885Y-48358D01*
X36660Y-48583D01*
X36903Y-48583D01*
X41135Y-42561D02*
X41116Y-42580D01*
X41060Y-42599D01*
X41022Y-42599D01*
X40966Y-42580D01*
X40928Y-42543D01*
X40910Y-42505D01*
X40891Y-42430D01*
X40891Y-42374D01*
X40910Y-42299D01*
X40928Y-42261D01*
X40966Y-42224D01*
X41022Y-42205D01*
X41060Y-42205D01*
X41116Y-42224D01*
X41135Y-42243D01*
X41491Y-42205D02*
X41303Y-42205D01*
X41285Y-42393D01*
X41303Y-42374D01*
X41341Y-42355D01*
X41435Y-42355D01*
X41472Y-42374D01*
X41491Y-42393D01*
X41510Y-42430D01*
X41510Y-42524D01*
X41491Y-42561D01*
X41472Y-42580D01*
X41435Y-42599D01*
X41341Y-42599D01*
X41303Y-42580D01*
X41285Y-42561D01*
X41135Y-41479D02*
X41116Y-41497D01*
X41060Y-41516D01*
X41022Y-41516D01*
X40966Y-41497D01*
X40928Y-41460D01*
X40910Y-41422D01*
X40891Y-41347D01*
X40891Y-41291D01*
X40910Y-41216D01*
X40928Y-41179D01*
X40966Y-41141D01*
X41022Y-41122D01*
X41060Y-41122D01*
X41116Y-41141D01*
X41135Y-41160D01*
X41472Y-41254D02*
X41472Y-41516D01*
X41378Y-41104D02*
X41285Y-41385D01*
X41528Y-41385D01*
X27198Y-42561D02*
X27179Y-42580D01*
X27123Y-42599D01*
X27085Y-42599D01*
X27029Y-42580D01*
X26991Y-42543D01*
X26973Y-42505D01*
X26954Y-42430D01*
X26954Y-42374D01*
X26973Y-42299D01*
X26991Y-42261D01*
X27029Y-42224D01*
X27085Y-42205D01*
X27123Y-42205D01*
X27179Y-42224D01*
X27198Y-42243D01*
X27329Y-42205D02*
X27573Y-42205D01*
X27441Y-42355D01*
X27498Y-42355D01*
X27535Y-42374D01*
X27554Y-42393D01*
X27573Y-42430D01*
X27573Y-42524D01*
X27554Y-42561D01*
X27535Y-42580D01*
X27498Y-42599D01*
X27385Y-42599D01*
X27348Y-42580D01*
X27329Y-42561D01*
X27198Y-41479D02*
X27179Y-41497D01*
X27123Y-41516D01*
X27085Y-41516D01*
X27029Y-41497D01*
X26991Y-41460D01*
X26973Y-41422D01*
X26954Y-41347D01*
X26954Y-41291D01*
X26973Y-41216D01*
X26991Y-41179D01*
X27029Y-41141D01*
X27085Y-41122D01*
X27123Y-41122D01*
X27179Y-41141D01*
X27198Y-41160D01*
X27348Y-41160D02*
X27366Y-41141D01*
X27404Y-41122D01*
X27498Y-41122D01*
X27535Y-41141D01*
X27554Y-41160D01*
X27573Y-41197D01*
X27573Y-41235D01*
X27554Y-41291D01*
X27329Y-41516D01*
X27573Y-41516D01*
%LPC*%
G54D16*
X33660Y-44645D03*
G54D17*
X34251Y-44527D03*
G54D16*
X34842Y-44645D03*
X34842Y-43149D03*
X33660Y-43149D03*
G54D18*
X34251Y-43503D03*
G54D19*
X34054Y-43936D03*
X34448Y-43936D03*
X34408Y-43621D03*
X34094Y-43621D03*
X34251Y-43818D03*
X34251Y-44015D03*
G54D20*
X35019Y-47244D03*
X33485Y-47244D03*
G54D21*
X26969Y-46744D03*
X26969Y-47744D03*
X26969Y-45744D03*
X26969Y-44744D03*
X26969Y-48744D03*
X26969Y-49744D03*
X41535Y-47744D03*
X41535Y-46744D03*
X41535Y-48744D03*
X41535Y-49744D03*
X41535Y-45744D03*
X41535Y-44744D03*
G54D22*
X42520Y-38976D03*
X25984Y-55512D03*
X42520Y-55512D03*
X25984Y-38976D03*
G54D23*
X29527Y-44173D03*
X29527Y-43425D03*
G54D24*
X32618Y-44527D03*
X32618Y-43188D03*
G54D25*
X33877Y-41929D03*
X34625Y-41929D03*
G54D26*
X36075Y-42983D03*
X36824Y-42983D03*
X36450Y-42116D03*
G54D23*
X36950Y-44674D03*
X36950Y-43926D03*
X35950Y-44674D03*
X35950Y-43926D03*
X36574Y-47637D03*
X36574Y-46889D03*
G54D25*
X42146Y-42421D03*
X42894Y-42421D03*
X42146Y-41339D03*
X42894Y-41339D03*
X25610Y-42421D03*
X26358Y-42421D03*
X25610Y-41339D03*
X26358Y-41339D03*
G54D27*
X29528Y-53688D03*
G54D28*
X29528Y-53271D03*
G54D29*
X29528Y-54370D03*
G54D28*
X29528Y-54598D03*
G54D27*
X38976Y-40799D03*
G54D28*
X38976Y-41216D03*
G54D29*
X38976Y-40117D03*
G54D28*
X38976Y-39889D03*
G54D27*
X38976Y-54185D03*
G54D28*
X38976Y-54602D03*
G54D29*
X38976Y-53503D03*
G54D28*
X38976Y-53275D03*
G54D27*
X38976Y-47492D03*
G54D28*
X38976Y-47909D03*
G54D29*
X38976Y-46810D03*
G54D28*
X38976Y-46582D03*
G54D27*
X29528Y-46995D03*
G54D28*
X29528Y-46578D03*
G54D29*
X29528Y-47677D03*
G54D28*
X29528Y-47905D03*
G54D27*
X29528Y-40302D03*
G54D28*
X29528Y-39885D03*
G54D29*
X29528Y-40984D03*
G54D28*
X29528Y-41212D03*
M02*
