%FSLAX46Y46*%
G04 Gerber Fmt 4.6, Leading zero omitted, Abs format (unit mm)*
G04 Created by KiCad (PCBNEW (2014-09-13 BZR 5129)-product) date Sat 13 Sep 2014 09:07:37 PM CEST*
%MOMM*%
G01*
G04 APERTURE LIST*
%ADD10C,0.150000*%
%ADD11C,0.200000*%
%ADD12C,0.304800*%
%ADD13C,0.203200*%
%ADD14C,0.002540*%
%ADD15C,1.651000*%
%ADD16C,3.000000*%
G04 APERTURE END LIST*
D10*
D11*
X104642859Y-108357143D02*
X104690478Y-108404762D01*
X104833335Y-108452381D01*
X104928573Y-108452381D01*
X105071431Y-108404762D01*
X105166669Y-108309524D01*
X105214288Y-108214286D01*
X105261907Y-108023810D01*
X105261907Y-107880952D01*
X105214288Y-107690476D01*
X105166669Y-107595238D01*
X105071431Y-107500000D01*
X104928573Y-107452381D01*
X104833335Y-107452381D01*
X104690478Y-107500000D01*
X104642859Y-107547619D01*
X103785716Y-107452381D02*
X103976193Y-107452381D01*
X104071431Y-107500000D01*
X104119050Y-107547619D01*
X104214288Y-107690476D01*
X104261907Y-107880952D01*
X104261907Y-108261905D01*
X104214288Y-108357143D01*
X104166669Y-108404762D01*
X104071431Y-108452381D01*
X103880954Y-108452381D01*
X103785716Y-108404762D01*
X103738097Y-108357143D01*
X103690478Y-108261905D01*
X103690478Y-108023810D01*
X103738097Y-107928571D01*
X103785716Y-107880952D01*
X103880954Y-107833333D01*
X104071431Y-107833333D01*
X104166669Y-107880952D01*
X104214288Y-107928571D01*
X104261907Y-108023810D01*
X103261907Y-108357143D02*
X103214288Y-108404762D01*
X103261907Y-108452381D01*
X103309526Y-108404762D01*
X103261907Y-108357143D01*
X103261907Y-108452381D01*
X103261907Y-107833333D02*
X103214288Y-107880952D01*
X103261907Y-107928571D01*
X103309526Y-107880952D01*
X103261907Y-107833333D01*
X103261907Y-107928571D01*
X102071431Y-108404762D02*
X101976193Y-108452381D01*
X101785717Y-108452381D01*
X101690478Y-108404762D01*
X101642859Y-108309524D01*
X101642859Y-108261905D01*
X101690478Y-108166667D01*
X101785717Y-108119048D01*
X101928574Y-108119048D01*
X102023812Y-108071429D01*
X102071431Y-107976190D01*
X102071431Y-107928571D01*
X102023812Y-107833333D01*
X101928574Y-107785714D01*
X101785717Y-107785714D01*
X101690478Y-107833333D01*
X101071431Y-108452381D02*
X101166669Y-108404762D01*
X101214288Y-108357143D01*
X101261907Y-108261905D01*
X101261907Y-107976190D01*
X101214288Y-107880952D01*
X101166669Y-107833333D01*
X101071431Y-107785714D01*
X100928573Y-107785714D01*
X100833335Y-107833333D01*
X100785716Y-107880952D01*
X100738097Y-107976190D01*
X100738097Y-108261905D01*
X100785716Y-108357143D01*
X100833335Y-108404762D01*
X100928573Y-108452381D01*
X101071431Y-108452381D01*
X100452383Y-107785714D02*
X100071431Y-107785714D01*
X100309526Y-108452381D02*
X100309526Y-107595238D01*
X100261907Y-107500000D01*
X100166669Y-107452381D01*
X100071431Y-107452381D01*
X99880954Y-107785714D02*
X99500002Y-107785714D01*
X99738097Y-107452381D02*
X99738097Y-108309524D01*
X99690478Y-108404762D01*
X99595240Y-108452381D01*
X99500002Y-108452381D01*
X99166668Y-108071429D02*
X98404763Y-108071429D01*
X97976192Y-108404762D02*
X97880954Y-108452381D01*
X97690478Y-108452381D01*
X97595239Y-108404762D01*
X97547620Y-108309524D01*
X97547620Y-108261905D01*
X97595239Y-108166667D01*
X97690478Y-108119048D01*
X97833335Y-108119048D01*
X97928573Y-108071429D01*
X97976192Y-107976190D01*
X97976192Y-107928571D01*
X97928573Y-107833333D01*
X97833335Y-107785714D01*
X97690478Y-107785714D01*
X97595239Y-107833333D01*
X97261906Y-107785714D02*
X96880954Y-107785714D01*
X97119049Y-107452381D02*
X97119049Y-108309524D01*
X97071430Y-108404762D01*
X96976192Y-108452381D01*
X96880954Y-108452381D01*
X96119048Y-108452381D02*
X96119048Y-107928571D01*
X96166667Y-107833333D01*
X96261905Y-107785714D01*
X96452382Y-107785714D01*
X96547620Y-107833333D01*
X96119048Y-108404762D02*
X96214286Y-108452381D01*
X96452382Y-108452381D01*
X96547620Y-108404762D01*
X96595239Y-108309524D01*
X96595239Y-108214286D01*
X96547620Y-108119048D01*
X96452382Y-108071429D01*
X96214286Y-108071429D01*
X96119048Y-108023810D01*
X95642858Y-108452381D02*
X95642858Y-107785714D01*
X95642858Y-107976190D02*
X95595239Y-107880952D01*
X95547620Y-107833333D01*
X95452382Y-107785714D01*
X95357143Y-107785714D01*
X95166667Y-107785714D02*
X94785715Y-107785714D01*
X95023810Y-107452381D02*
X95023810Y-108309524D01*
X94976191Y-108404762D01*
X94880953Y-108452381D01*
X94785715Y-108452381D01*
X94452381Y-108357143D02*
X94404762Y-108404762D01*
X94452381Y-108452381D01*
X94500000Y-108404762D01*
X94452381Y-108357143D01*
X94452381Y-108452381D01*
X94452381Y-107833333D02*
X94404762Y-107880952D01*
X94452381Y-107928571D01*
X94500000Y-107880952D01*
X94452381Y-107833333D01*
X94452381Y-107928571D01*
X92690476Y-108452381D02*
X93261905Y-108452381D01*
X92976191Y-108452381D02*
X92976191Y-107452381D01*
X93071429Y-107595238D01*
X93166667Y-107690476D01*
X93261905Y-107738095D01*
X92261905Y-108357143D02*
X92214286Y-108404762D01*
X92261905Y-108452381D01*
X92309524Y-108404762D01*
X92261905Y-108357143D01*
X92261905Y-108452381D01*
X91833334Y-107547619D02*
X91785715Y-107500000D01*
X91690477Y-107452381D01*
X91452381Y-107452381D01*
X91357143Y-107500000D01*
X91309524Y-107547619D01*
X91261905Y-107642857D01*
X91261905Y-107738095D01*
X91309524Y-107880952D01*
X91880953Y-108452381D01*
X91261905Y-108452381D01*
X90357143Y-107452381D02*
X90833334Y-107452381D01*
X90880953Y-107928571D01*
X90833334Y-107880952D01*
X90738096Y-107833333D01*
X90500000Y-107833333D01*
X90404762Y-107880952D01*
X90357143Y-107928571D01*
X90309524Y-108023810D01*
X90309524Y-108261905D01*
X90357143Y-108357143D01*
X90404762Y-108404762D01*
X90500000Y-108452381D01*
X90738096Y-108452381D01*
X90833334Y-108404762D01*
X90880953Y-108357143D01*
X89880953Y-107785714D02*
X89880953Y-108785714D01*
X89404762Y-108309524D02*
X89357143Y-108404762D01*
X89261905Y-108452381D01*
X89880953Y-108309524D02*
X89833334Y-108404762D01*
X89738096Y-108452381D01*
X89547619Y-108452381D01*
X89452381Y-108404762D01*
X89404762Y-108309524D01*
X89404762Y-107785714D01*
X88500000Y-107928571D02*
X88833334Y-107928571D01*
X88833334Y-108452381D02*
X88833334Y-107452381D01*
X88357143Y-107452381D01*
X87261905Y-107404762D02*
X88119048Y-108690476D01*
X86976191Y-108404762D02*
X86880953Y-108452381D01*
X86690477Y-108452381D01*
X86595238Y-108404762D01*
X86547619Y-108309524D01*
X86547619Y-108261905D01*
X86595238Y-108166667D01*
X86690477Y-108119048D01*
X86833334Y-108119048D01*
X86928572Y-108071429D01*
X86976191Y-107976190D01*
X86976191Y-107928571D01*
X86928572Y-107833333D01*
X86833334Y-107785714D01*
X86690477Y-107785714D01*
X86595238Y-107833333D01*
X85071428Y-108833333D02*
X85119048Y-108785714D01*
X85214286Y-108642857D01*
X85261905Y-108547619D01*
X85309524Y-108404762D01*
X85357143Y-108166667D01*
X85357143Y-107976190D01*
X85309524Y-107738095D01*
X85261905Y-107595238D01*
X85214286Y-107500000D01*
X85119048Y-107357143D01*
X85071428Y-107309524D01*
X84690476Y-108452381D02*
X84690476Y-107785714D01*
X84690476Y-107976190D02*
X84642857Y-107880952D01*
X84595238Y-107833333D01*
X84500000Y-107785714D01*
X84404761Y-107785714D01*
X83690475Y-108404762D02*
X83785713Y-108452381D01*
X83976190Y-108452381D01*
X84071428Y-108404762D01*
X84119047Y-108309524D01*
X84119047Y-107928571D01*
X84071428Y-107833333D01*
X83976190Y-107785714D01*
X83785713Y-107785714D01*
X83690475Y-107833333D01*
X83642856Y-107928571D01*
X83642856Y-108023810D01*
X84119047Y-108119048D01*
X83214285Y-108452381D02*
X83214285Y-107785714D01*
X83214285Y-107880952D02*
X83166666Y-107833333D01*
X83071428Y-107785714D01*
X82928570Y-107785714D01*
X82833332Y-107833333D01*
X82785713Y-107928571D01*
X82785713Y-108452381D01*
X82785713Y-107928571D02*
X82738094Y-107833333D01*
X82642856Y-107785714D01*
X82499999Y-107785714D01*
X82404761Y-107833333D01*
X82357142Y-107928571D01*
X82357142Y-108452381D01*
X81738095Y-108452381D02*
X81833333Y-108404762D01*
X81880952Y-108357143D01*
X81928571Y-108261905D01*
X81928571Y-107976190D01*
X81880952Y-107880952D01*
X81833333Y-107833333D01*
X81738095Y-107785714D01*
X81595237Y-107785714D01*
X81499999Y-107833333D01*
X81452380Y-107880952D01*
X81404761Y-107976190D01*
X81404761Y-108261905D01*
X81452380Y-108357143D01*
X81499999Y-108404762D01*
X81595237Y-108452381D01*
X81738095Y-108452381D01*
X81071428Y-107785714D02*
X80833333Y-108452381D01*
X80595237Y-107785714D01*
X79833332Y-108404762D02*
X79928570Y-108452381D01*
X80119047Y-108452381D01*
X80214285Y-108404762D01*
X80261904Y-108309524D01*
X80261904Y-107928571D01*
X80214285Y-107833333D01*
X80119047Y-107785714D01*
X79928570Y-107785714D01*
X79833332Y-107833333D01*
X79785713Y-107928571D01*
X79785713Y-108023810D01*
X80261904Y-108119048D01*
X78738094Y-107785714D02*
X78357142Y-107785714D01*
X78595237Y-108452381D02*
X78595237Y-107595238D01*
X78547618Y-107500000D01*
X78452380Y-107452381D01*
X78357142Y-107452381D01*
X77880951Y-108452381D02*
X77976189Y-108404762D01*
X78023808Y-108357143D01*
X78071427Y-108261905D01*
X78071427Y-107976190D01*
X78023808Y-107880952D01*
X77976189Y-107833333D01*
X77880951Y-107785714D01*
X77738093Y-107785714D01*
X77642855Y-107833333D01*
X77595236Y-107880952D01*
X77547617Y-107976190D01*
X77547617Y-108261905D01*
X77595236Y-108357143D01*
X77642855Y-108404762D01*
X77738093Y-108452381D01*
X77880951Y-108452381D01*
X77119046Y-108452381D02*
X77119046Y-107785714D01*
X77119046Y-107976190D02*
X77071427Y-107880952D01*
X77023808Y-107833333D01*
X76928570Y-107785714D01*
X76833331Y-107785714D01*
X75357140Y-108404762D02*
X75452378Y-108452381D01*
X75642855Y-108452381D01*
X75738093Y-108404762D01*
X75785712Y-108309524D01*
X75785712Y-107928571D01*
X75738093Y-107833333D01*
X75642855Y-107785714D01*
X75452378Y-107785714D01*
X75357140Y-107833333D01*
X75309521Y-107928571D01*
X75309521Y-108023810D01*
X75785712Y-108119048D01*
X74976188Y-108452381D02*
X74452378Y-107785714D01*
X74976188Y-107785714D02*
X74452378Y-108452381D01*
X74214283Y-107785714D02*
X73833331Y-107785714D01*
X74071426Y-107452381D02*
X74071426Y-108309524D01*
X74023807Y-108404762D01*
X73928569Y-108452381D01*
X73833331Y-108452381D01*
X73499997Y-108357143D02*
X73452378Y-108404762D01*
X73499997Y-108452381D01*
X73547616Y-108404762D01*
X73499997Y-108357143D01*
X73499997Y-108452381D01*
X72261902Y-108452381D02*
X72261902Y-107452381D01*
X71880949Y-107452381D01*
X71785711Y-107500000D01*
X71738092Y-107547619D01*
X71690473Y-107642857D01*
X71690473Y-107785714D01*
X71738092Y-107880952D01*
X71785711Y-107928571D01*
X71880949Y-107976190D01*
X72261902Y-107976190D01*
X71357140Y-107452381D02*
X71119045Y-108452381D01*
X70928568Y-107738095D01*
X70738092Y-108452381D01*
X70499997Y-107452381D01*
X70119045Y-108452381D02*
X70119045Y-107452381D01*
X69785711Y-108166667D01*
X69452378Y-107452381D01*
X69452378Y-108452381D01*
X69071426Y-108833333D02*
X69023807Y-108785714D01*
X68928569Y-108642857D01*
X68880950Y-108547619D01*
X68833331Y-108404762D01*
X68785712Y-108166667D01*
X68785712Y-107976190D01*
X68833331Y-107738095D01*
X68880950Y-107595238D01*
X68928569Y-107500000D01*
X69023807Y-107357143D01*
X69071426Y-107309524D01*
X102500001Y-110052381D02*
X102833335Y-109576190D01*
X103071430Y-110052381D02*
X103071430Y-109052381D01*
X102690477Y-109052381D01*
X102595239Y-109100000D01*
X102547620Y-109147619D01*
X102500001Y-109242857D01*
X102500001Y-109385714D01*
X102547620Y-109480952D01*
X102595239Y-109528571D01*
X102690477Y-109576190D01*
X103071430Y-109576190D01*
X101547620Y-110052381D02*
X102119049Y-110052381D01*
X101833335Y-110052381D02*
X101833335Y-109052381D01*
X101928573Y-109195238D01*
X102023811Y-109290476D01*
X102119049Y-109338095D01*
X101119049Y-109957143D02*
X101071430Y-110004762D01*
X101119049Y-110052381D01*
X101166668Y-110004762D01*
X101119049Y-109957143D01*
X101119049Y-110052381D01*
X101119049Y-109433333D02*
X101071430Y-109480952D01*
X101119049Y-109528571D01*
X101166668Y-109480952D01*
X101119049Y-109433333D01*
X101119049Y-109528571D01*
X99357144Y-110052381D02*
X99928573Y-110052381D01*
X99642859Y-110052381D02*
X99642859Y-109052381D01*
X99738097Y-109195238D01*
X99833335Y-109290476D01*
X99928573Y-109338095D01*
X98928573Y-110052381D02*
X98928573Y-109052381D01*
X98595239Y-109766667D01*
X98261906Y-109052381D01*
X98261906Y-110052381D01*
X97119049Y-109385714D02*
X96928573Y-110052381D01*
X96738096Y-109576190D01*
X96547620Y-110052381D01*
X96357144Y-109385714D01*
X95976192Y-110052381D02*
X95976192Y-109385714D01*
X95976192Y-109052381D02*
X96023811Y-109100000D01*
X95976192Y-109147619D01*
X95928573Y-109100000D01*
X95976192Y-109052381D01*
X95976192Y-109147619D01*
X95642859Y-109385714D02*
X95261907Y-109385714D01*
X95500002Y-109052381D02*
X95500002Y-109909524D01*
X95452383Y-110004762D01*
X95357145Y-110052381D01*
X95261907Y-110052381D01*
X94928573Y-110052381D02*
X94928573Y-109052381D01*
X94500001Y-110052381D02*
X94500001Y-109528571D01*
X94547620Y-109433333D01*
X94642858Y-109385714D01*
X94785716Y-109385714D01*
X94880954Y-109433333D01*
X94928573Y-109480952D01*
X93309525Y-110004762D02*
X93214287Y-110052381D01*
X93023811Y-110052381D01*
X92928572Y-110004762D01*
X92880953Y-109909524D01*
X92880953Y-109861905D01*
X92928572Y-109766667D01*
X93023811Y-109719048D01*
X93166668Y-109719048D01*
X93261906Y-109671429D01*
X93309525Y-109576190D01*
X93309525Y-109528571D01*
X93261906Y-109433333D01*
X93166668Y-109385714D01*
X93023811Y-109385714D01*
X92928572Y-109433333D01*
X92309525Y-110052381D02*
X92404763Y-110004762D01*
X92452382Y-109957143D01*
X92500001Y-109861905D01*
X92500001Y-109576190D01*
X92452382Y-109480952D01*
X92404763Y-109433333D01*
X92309525Y-109385714D01*
X92166667Y-109385714D01*
X92071429Y-109433333D01*
X92023810Y-109480952D01*
X91976191Y-109576190D01*
X91976191Y-109861905D01*
X92023810Y-109957143D01*
X92071429Y-110004762D01*
X92166667Y-110052381D01*
X92309525Y-110052381D01*
X91690477Y-109385714D02*
X91309525Y-109385714D01*
X91547620Y-110052381D02*
X91547620Y-109195238D01*
X91500001Y-109100000D01*
X91404763Y-109052381D01*
X91309525Y-109052381D01*
X91119048Y-109385714D02*
X90738096Y-109385714D01*
X90976191Y-109052381D02*
X90976191Y-109909524D01*
X90928572Y-110004762D01*
X90833334Y-110052381D01*
X90738096Y-110052381D01*
X90404762Y-109671429D02*
X89642857Y-109671429D01*
X89214286Y-110004762D02*
X89119048Y-110052381D01*
X88928572Y-110052381D01*
X88833333Y-110004762D01*
X88785714Y-109909524D01*
X88785714Y-109861905D01*
X88833333Y-109766667D01*
X88928572Y-109719048D01*
X89071429Y-109719048D01*
X89166667Y-109671429D01*
X89214286Y-109576190D01*
X89214286Y-109528571D01*
X89166667Y-109433333D01*
X89071429Y-109385714D01*
X88928572Y-109385714D01*
X88833333Y-109433333D01*
X88500000Y-109385714D02*
X88119048Y-109385714D01*
X88357143Y-109052381D02*
X88357143Y-109909524D01*
X88309524Y-110004762D01*
X88214286Y-110052381D01*
X88119048Y-110052381D01*
X87357142Y-110052381D02*
X87357142Y-109528571D01*
X87404761Y-109433333D01*
X87499999Y-109385714D01*
X87690476Y-109385714D01*
X87785714Y-109433333D01*
X87357142Y-110004762D02*
X87452380Y-110052381D01*
X87690476Y-110052381D01*
X87785714Y-110004762D01*
X87833333Y-109909524D01*
X87833333Y-109814286D01*
X87785714Y-109719048D01*
X87690476Y-109671429D01*
X87452380Y-109671429D01*
X87357142Y-109623810D01*
X86880952Y-110052381D02*
X86880952Y-109385714D01*
X86880952Y-109576190D02*
X86833333Y-109480952D01*
X86785714Y-109433333D01*
X86690476Y-109385714D01*
X86595237Y-109385714D01*
X86404761Y-109385714D02*
X86023809Y-109385714D01*
X86261904Y-109052381D02*
X86261904Y-109909524D01*
X86214285Y-110004762D01*
X86119047Y-110052381D01*
X86023809Y-110052381D01*
X85642856Y-110004762D02*
X85642856Y-110052381D01*
X85690475Y-110147619D01*
X85738094Y-110195238D01*
X83928570Y-110052381D02*
X84499999Y-110052381D01*
X84214285Y-110052381D02*
X84214285Y-109052381D01*
X84309523Y-109195238D01*
X84404761Y-109290476D01*
X84499999Y-109338095D01*
X83309523Y-109052381D02*
X83214284Y-109052381D01*
X83119046Y-109100000D01*
X83071427Y-109147619D01*
X83023808Y-109242857D01*
X82976189Y-109433333D01*
X82976189Y-109671429D01*
X83023808Y-109861905D01*
X83071427Y-109957143D01*
X83119046Y-110004762D01*
X83214284Y-110052381D01*
X83309523Y-110052381D01*
X83404761Y-110004762D01*
X83452380Y-109957143D01*
X83499999Y-109861905D01*
X83547618Y-109671429D01*
X83547618Y-109433333D01*
X83499999Y-109242857D01*
X83452380Y-109147619D01*
X83404761Y-109100000D01*
X83309523Y-109052381D01*
X82547618Y-110052381D02*
X82547618Y-109052381D01*
X82452380Y-109671429D02*
X82166665Y-110052381D01*
X82166665Y-109385714D02*
X82547618Y-109766667D01*
X81071427Y-109385714D02*
X80880951Y-110052381D01*
X80690474Y-109576190D01*
X80499998Y-110052381D01*
X80309522Y-109385714D01*
X79928570Y-110052381D02*
X79928570Y-109385714D01*
X79928570Y-109052381D02*
X79976189Y-109100000D01*
X79928570Y-109147619D01*
X79880951Y-109100000D01*
X79928570Y-109052381D01*
X79928570Y-109147619D01*
X79595237Y-109385714D02*
X79214285Y-109385714D01*
X79452380Y-109052381D02*
X79452380Y-109909524D01*
X79404761Y-110004762D01*
X79309523Y-110052381D01*
X79214285Y-110052381D01*
X78880951Y-110052381D02*
X78880951Y-109052381D01*
X78452379Y-110052381D02*
X78452379Y-109528571D01*
X78499998Y-109433333D01*
X78595236Y-109385714D01*
X78738094Y-109385714D01*
X78833332Y-109433333D01*
X78880951Y-109480952D01*
X76833331Y-110004762D02*
X76928569Y-110052381D01*
X77119046Y-110052381D01*
X77214284Y-110004762D01*
X77261903Y-109909524D01*
X77261903Y-109528571D01*
X77214284Y-109433333D01*
X77119046Y-109385714D01*
X76928569Y-109385714D01*
X76833331Y-109433333D01*
X76785712Y-109528571D01*
X76785712Y-109623810D01*
X77261903Y-109719048D01*
X76452379Y-110052381D02*
X75928569Y-109385714D01*
X76452379Y-109385714D02*
X75928569Y-110052381D01*
X75690474Y-109385714D02*
X75309522Y-109385714D01*
X75547617Y-109052381D02*
X75547617Y-109909524D01*
X75499998Y-110004762D01*
X75404760Y-110052381D01*
X75309522Y-110052381D01*
X74976188Y-109957143D02*
X74928569Y-110004762D01*
X74976188Y-110052381D01*
X75023807Y-110004762D01*
X74976188Y-109957143D01*
X74976188Y-110052381D01*
X73738093Y-110052381D02*
X73738093Y-109052381D01*
X73357140Y-109052381D01*
X73261902Y-109100000D01*
X73214283Y-109147619D01*
X73166664Y-109242857D01*
X73166664Y-109385714D01*
X73214283Y-109480952D01*
X73261902Y-109528571D01*
X73357140Y-109576190D01*
X73738093Y-109576190D01*
X72833331Y-109052381D02*
X72595236Y-110052381D01*
X72404759Y-109338095D01*
X72214283Y-110052381D01*
X71976188Y-109052381D01*
X71595236Y-110052381D02*
X71595236Y-109052381D01*
X71261902Y-109766667D01*
X70928569Y-109052381D01*
X70928569Y-110052381D01*
X85085714Y-126552381D02*
X85561905Y-126552381D01*
X85561905Y-125552381D01*
X84228571Y-126552381D02*
X84800000Y-126552381D01*
X84514286Y-126552381D02*
X84514286Y-125552381D01*
X84609524Y-125695238D01*
X84704762Y-125790476D01*
X84800000Y-125838095D01*
X83800000Y-126457143D02*
X83752381Y-126504762D01*
X83800000Y-126552381D01*
X83847619Y-126504762D01*
X83800000Y-126457143D01*
X83800000Y-126552381D01*
X83800000Y-125933333D02*
X83752381Y-125980952D01*
X83800000Y-126028571D01*
X83847619Y-125980952D01*
X83800000Y-125933333D01*
X83800000Y-126028571D01*
X82038095Y-126552381D02*
X82609524Y-126552381D01*
X82323810Y-126552381D02*
X82323810Y-125552381D01*
X82419048Y-125695238D01*
X82514286Y-125790476D01*
X82609524Y-125838095D01*
X81419048Y-125552381D02*
X81323809Y-125552381D01*
X81228571Y-125600000D01*
X81180952Y-125647619D01*
X81133333Y-125742857D01*
X81085714Y-125933333D01*
X81085714Y-126171429D01*
X81133333Y-126361905D01*
X81180952Y-126457143D01*
X81228571Y-126504762D01*
X81323809Y-126552381D01*
X81419048Y-126552381D01*
X81514286Y-126504762D01*
X81561905Y-126457143D01*
X81609524Y-126361905D01*
X81657143Y-126171429D01*
X81657143Y-125933333D01*
X81609524Y-125742857D01*
X81561905Y-125647619D01*
X81514286Y-125600000D01*
X81419048Y-125552381D01*
X80466667Y-125552381D02*
X80371428Y-125552381D01*
X80276190Y-125600000D01*
X80228571Y-125647619D01*
X80180952Y-125742857D01*
X80133333Y-125933333D01*
X80133333Y-126171429D01*
X80180952Y-126361905D01*
X80228571Y-126457143D01*
X80276190Y-126504762D01*
X80371428Y-126552381D01*
X80466667Y-126552381D01*
X80561905Y-126504762D01*
X80609524Y-126457143D01*
X80657143Y-126361905D01*
X80704762Y-126171429D01*
X80704762Y-125933333D01*
X80657143Y-125742857D01*
X80609524Y-125647619D01*
X80561905Y-125600000D01*
X80466667Y-125552381D01*
X79704762Y-125885714D02*
X79704762Y-126885714D01*
X79228571Y-126409524D02*
X79180952Y-126504762D01*
X79085714Y-126552381D01*
X79704762Y-126409524D02*
X79657143Y-126504762D01*
X79561905Y-126552381D01*
X79371428Y-126552381D01*
X79276190Y-126504762D01*
X79228571Y-126409524D01*
X79228571Y-125885714D01*
X78657143Y-126552381D02*
X78657143Y-125552381D01*
X78657143Y-126028571D02*
X78085714Y-126028571D01*
X78085714Y-126552381D02*
X78085714Y-125552381D01*
X84990476Y-128152381D02*
X85323810Y-127676190D01*
X85561905Y-128152381D02*
X85561905Y-127152381D01*
X85180952Y-127152381D01*
X85085714Y-127200000D01*
X85038095Y-127247619D01*
X84990476Y-127342857D01*
X84990476Y-127485714D01*
X85038095Y-127580952D01*
X85085714Y-127628571D01*
X85180952Y-127676190D01*
X85561905Y-127676190D01*
X83990476Y-128057143D02*
X84038095Y-128104762D01*
X84180952Y-128152381D01*
X84276190Y-128152381D01*
X84419048Y-128104762D01*
X84514286Y-128009524D01*
X84561905Y-127914286D01*
X84609524Y-127723810D01*
X84609524Y-127580952D01*
X84561905Y-127390476D01*
X84514286Y-127295238D01*
X84419048Y-127200000D01*
X84276190Y-127152381D01*
X84180952Y-127152381D01*
X84038095Y-127200000D01*
X83990476Y-127247619D01*
X83609524Y-128104762D02*
X83466667Y-128152381D01*
X83228571Y-128152381D01*
X83133333Y-128104762D01*
X83085714Y-128057143D01*
X83038095Y-127961905D01*
X83038095Y-127866667D01*
X83085714Y-127771429D01*
X83133333Y-127723810D01*
X83228571Y-127676190D01*
X83419048Y-127628571D01*
X83514286Y-127580952D01*
X83561905Y-127533333D01*
X83609524Y-127438095D01*
X83609524Y-127342857D01*
X83561905Y-127247619D01*
X83514286Y-127200000D01*
X83419048Y-127152381D01*
X83180952Y-127152381D01*
X83038095Y-127200000D01*
X82847619Y-128247619D02*
X82085714Y-128247619D01*
X81323809Y-128152381D02*
X81895238Y-128152381D01*
X81609524Y-128152381D02*
X81609524Y-127152381D01*
X81704762Y-127295238D01*
X81800000Y-127390476D01*
X81895238Y-127438095D01*
X80895238Y-128057143D02*
X80847619Y-128104762D01*
X80895238Y-128152381D01*
X80942857Y-128104762D01*
X80895238Y-128057143D01*
X80895238Y-128152381D01*
X80895238Y-127533333D02*
X80847619Y-127580952D01*
X80895238Y-127628571D01*
X80942857Y-127580952D01*
X80895238Y-127533333D01*
X80895238Y-127628571D01*
X79466667Y-127152381D02*
X79371428Y-127152381D01*
X79276190Y-127200000D01*
X79228571Y-127247619D01*
X79180952Y-127342857D01*
X79133333Y-127533333D01*
X79133333Y-127771429D01*
X79180952Y-127961905D01*
X79228571Y-128057143D01*
X79276190Y-128104762D01*
X79371428Y-128152381D01*
X79466667Y-128152381D01*
X79561905Y-128104762D01*
X79609524Y-128057143D01*
X79657143Y-127961905D01*
X79704762Y-127771429D01*
X79704762Y-127533333D01*
X79657143Y-127342857D01*
X79609524Y-127247619D01*
X79561905Y-127200000D01*
X79466667Y-127152381D01*
X78704762Y-128057143D02*
X78657143Y-128104762D01*
X78704762Y-128152381D01*
X78752381Y-128104762D01*
X78704762Y-128057143D01*
X78704762Y-128152381D01*
X77752381Y-127152381D02*
X78228572Y-127152381D01*
X78276191Y-127628571D01*
X78228572Y-127580952D01*
X78133334Y-127533333D01*
X77895238Y-127533333D01*
X77800000Y-127580952D01*
X77752381Y-127628571D01*
X77704762Y-127723810D01*
X77704762Y-127961905D01*
X77752381Y-128057143D01*
X77800000Y-128104762D01*
X77895238Y-128152381D01*
X78133334Y-128152381D01*
X78228572Y-128104762D01*
X78276191Y-128057143D01*
X76704762Y-128152381D02*
X77038096Y-127676190D01*
X77276191Y-128152381D02*
X77276191Y-127152381D01*
X76895238Y-127152381D01*
X76800000Y-127200000D01*
X76752381Y-127247619D01*
X76704762Y-127342857D01*
X76704762Y-127485714D01*
X76752381Y-127580952D01*
X76800000Y-127628571D01*
X76895238Y-127676190D01*
X77276191Y-127676190D01*
X76276191Y-127771429D02*
X75514286Y-127771429D01*
X75038096Y-127485714D02*
X74276191Y-127771429D01*
X75038096Y-128057143D01*
X73609525Y-127152381D02*
X73514286Y-127152381D01*
X73419048Y-127200000D01*
X73371429Y-127247619D01*
X73323810Y-127342857D01*
X73276191Y-127533333D01*
X73276191Y-127771429D01*
X73323810Y-127961905D01*
X73371429Y-128057143D01*
X73419048Y-128104762D01*
X73514286Y-128152381D01*
X73609525Y-128152381D01*
X73704763Y-128104762D01*
X73752382Y-128057143D01*
X73800001Y-127961905D01*
X73847620Y-127771429D01*
X73847620Y-127533333D01*
X73800001Y-127342857D01*
X73752382Y-127247619D01*
X73704763Y-127200000D01*
X73609525Y-127152381D01*
X72847620Y-128057143D02*
X72800001Y-128104762D01*
X72847620Y-128152381D01*
X72895239Y-128104762D01*
X72847620Y-128057143D01*
X72847620Y-128152381D01*
X72419049Y-127247619D02*
X72371430Y-127200000D01*
X72276192Y-127152381D01*
X72038096Y-127152381D01*
X71942858Y-127200000D01*
X71895239Y-127247619D01*
X71847620Y-127342857D01*
X71847620Y-127438095D01*
X71895239Y-127580952D01*
X72466668Y-128152381D01*
X71847620Y-128152381D01*
X71466668Y-127866667D02*
X70990477Y-127866667D01*
X71561906Y-128152381D02*
X71228573Y-127152381D01*
X70895239Y-128152381D01*
X85561905Y-129752381D02*
X85561905Y-128752381D01*
X85323810Y-128752381D01*
X85180952Y-128800000D01*
X85085714Y-128895238D01*
X85038095Y-128990476D01*
X84990476Y-129180952D01*
X84990476Y-129323810D01*
X85038095Y-129514286D01*
X85085714Y-129609524D01*
X85180952Y-129704762D01*
X85323810Y-129752381D01*
X85561905Y-129752381D01*
X84038095Y-129752381D02*
X84609524Y-129752381D01*
X84323810Y-129752381D02*
X84323810Y-128752381D01*
X84419048Y-128895238D01*
X84514286Y-128990476D01*
X84609524Y-129038095D01*
X83609524Y-129657143D02*
X83561905Y-129704762D01*
X83609524Y-129752381D01*
X83657143Y-129704762D01*
X83609524Y-129657143D01*
X83609524Y-129752381D01*
X83133334Y-129657143D02*
X83085715Y-129704762D01*
X83133334Y-129752381D01*
X83180953Y-129704762D01*
X83133334Y-129657143D01*
X83133334Y-129752381D01*
X82657144Y-129657143D02*
X82609525Y-129704762D01*
X82657144Y-129752381D01*
X82704763Y-129704762D01*
X82657144Y-129657143D01*
X82657144Y-129752381D01*
X82180954Y-129657143D02*
X82133335Y-129704762D01*
X82180954Y-129752381D01*
X82228573Y-129704762D01*
X82180954Y-129657143D01*
X82180954Y-129752381D01*
X82180954Y-129133333D02*
X82133335Y-129180952D01*
X82180954Y-129228571D01*
X82228573Y-129180952D01*
X82180954Y-129133333D01*
X82180954Y-129228571D01*
X80942859Y-129752381D02*
X80942859Y-128752381D01*
X80371430Y-129752381D01*
X80371430Y-128752381D01*
X79895240Y-129752381D02*
X79895240Y-129085714D01*
X79895240Y-128752381D02*
X79942859Y-128800000D01*
X79895240Y-128847619D01*
X79847621Y-128800000D01*
X79895240Y-128752381D01*
X79895240Y-128847619D01*
X78990478Y-129704762D02*
X79085716Y-129752381D01*
X79276193Y-129752381D01*
X79371431Y-129704762D01*
X79419050Y-129657143D01*
X79466669Y-129561905D01*
X79466669Y-129276190D01*
X79419050Y-129180952D01*
X79371431Y-129133333D01*
X79276193Y-129085714D01*
X79085716Y-129085714D01*
X78990478Y-129133333D01*
X78561907Y-129752381D02*
X78561907Y-128752381D01*
X78133335Y-129752381D02*
X78133335Y-129228571D01*
X78180954Y-129133333D01*
X78276192Y-129085714D01*
X78419050Y-129085714D01*
X78514288Y-129133333D01*
X78561907Y-129180952D01*
X77657145Y-129752381D02*
X77657145Y-129085714D01*
X77657145Y-128752381D02*
X77704764Y-128800000D01*
X77657145Y-128847619D01*
X77609526Y-128800000D01*
X77657145Y-128752381D01*
X77657145Y-128847619D01*
X76752383Y-129752381D02*
X76752383Y-129228571D01*
X76800002Y-129133333D01*
X76895240Y-129085714D01*
X77085717Y-129085714D01*
X77180955Y-129133333D01*
X76752383Y-129704762D02*
X76847621Y-129752381D01*
X77085717Y-129752381D01*
X77180955Y-129704762D01*
X77228574Y-129609524D01*
X77228574Y-129514286D01*
X77180955Y-129419048D01*
X77085717Y-129371429D01*
X76847621Y-129371429D01*
X76752383Y-129323810D01*
X85561905Y-131352381D02*
X85561905Y-130352381D01*
X84990476Y-131352381D01*
X84990476Y-130352381D01*
X84657143Y-130352381D02*
X84085714Y-130352381D01*
X84371429Y-131352381D02*
X84371429Y-130352381D01*
X83800000Y-130447619D02*
X83752381Y-130400000D01*
X83657143Y-130352381D01*
X83419047Y-130352381D01*
X83323809Y-130400000D01*
X83276190Y-130447619D01*
X83228571Y-130542857D01*
X83228571Y-130638095D01*
X83276190Y-130780952D01*
X83847619Y-131352381D01*
X83228571Y-131352381D01*
X82895238Y-131352381D02*
X82371428Y-130685714D01*
X82895238Y-130685714D02*
X82371428Y-131352381D01*
X82085714Y-130352381D02*
X81419047Y-130352381D01*
X81847619Y-131352381D01*
X80561904Y-130352381D02*
X81038095Y-130352381D01*
X81085714Y-130828571D01*
X81038095Y-130780952D01*
X80942857Y-130733333D01*
X80704761Y-130733333D01*
X80609523Y-130780952D01*
X80561904Y-130828571D01*
X80514285Y-130923810D01*
X80514285Y-131161905D01*
X80561904Y-131257143D01*
X80609523Y-131304762D01*
X80704761Y-131352381D01*
X80942857Y-131352381D01*
X81038095Y-131304762D01*
X81085714Y-131257143D01*
X80180952Y-130352381D02*
X79514285Y-130352381D01*
X79942857Y-131352381D01*
X79133333Y-131352381D02*
X79133333Y-130352381D01*
X78895238Y-130352381D01*
X78752380Y-130400000D01*
X78657142Y-130495238D01*
X78609523Y-130590476D01*
X78561904Y-130780952D01*
X78561904Y-130923810D01*
X78609523Y-131114286D01*
X78657142Y-131209524D01*
X78752380Y-131304762D01*
X78895238Y-131352381D01*
X79133333Y-131352381D01*
X78276190Y-130352381D02*
X77704761Y-130352381D01*
X77990476Y-131352381D02*
X77990476Y-130352381D01*
X76228570Y-131304762D02*
X76323808Y-131352381D01*
X76514285Y-131352381D01*
X76609523Y-131304762D01*
X76657142Y-131209524D01*
X76657142Y-130828571D01*
X76609523Y-130733333D01*
X76514285Y-130685714D01*
X76323808Y-130685714D01*
X76228570Y-130733333D01*
X76180951Y-130828571D01*
X76180951Y-130923810D01*
X76657142Y-131019048D01*
X75323808Y-130685714D02*
X75323808Y-131685714D01*
X75323808Y-131304762D02*
X75419046Y-131352381D01*
X75609523Y-131352381D01*
X75704761Y-131304762D01*
X75752380Y-131257143D01*
X75799999Y-131161905D01*
X75799999Y-130876190D01*
X75752380Y-130780952D01*
X75704761Y-130733333D01*
X75609523Y-130685714D01*
X75419046Y-130685714D01*
X75323808Y-130733333D01*
X74419046Y-130685714D02*
X74419046Y-131352381D01*
X74847618Y-130685714D02*
X74847618Y-131209524D01*
X74799999Y-131304762D01*
X74704761Y-131352381D01*
X74561903Y-131352381D01*
X74466665Y-131304762D01*
X74419046Y-131257143D01*
X73942856Y-131352381D02*
X73942856Y-130685714D01*
X73942856Y-130352381D02*
X73990475Y-130400000D01*
X73942856Y-130447619D01*
X73895237Y-130400000D01*
X73942856Y-130352381D01*
X73942856Y-130447619D01*
X73561904Y-130685714D02*
X73323809Y-131352381D01*
X73085713Y-130685714D01*
X72704761Y-131257143D02*
X72657142Y-131304762D01*
X72704761Y-131352381D01*
X72752380Y-131304762D01*
X72704761Y-131257143D01*
X72704761Y-131352381D01*
X101711905Y-125552381D02*
X101711905Y-126361905D01*
X101664286Y-126457143D01*
X101616667Y-126504762D01*
X101521429Y-126552381D01*
X101330952Y-126552381D01*
X101235714Y-126504762D01*
X101188095Y-126457143D01*
X101140476Y-126361905D01*
X101140476Y-125552381D01*
X100140476Y-126552381D02*
X100711905Y-126552381D01*
X100426191Y-126552381D02*
X100426191Y-125552381D01*
X100521429Y-125695238D01*
X100616667Y-125790476D01*
X100711905Y-125838095D01*
X99711905Y-126457143D02*
X99664286Y-126504762D01*
X99711905Y-126552381D01*
X99759524Y-126504762D01*
X99711905Y-126457143D01*
X99711905Y-126552381D01*
X99711905Y-125933333D02*
X99664286Y-125980952D01*
X99711905Y-126028571D01*
X99759524Y-125980952D01*
X99711905Y-125933333D01*
X99711905Y-126028571D01*
X98473810Y-126552381D02*
X98473810Y-125552381D01*
X98092857Y-125552381D01*
X97997619Y-125600000D01*
X97950000Y-125647619D01*
X97902381Y-125742857D01*
X97902381Y-125885714D01*
X97950000Y-125980952D01*
X97997619Y-126028571D01*
X98092857Y-126076190D01*
X98473810Y-126076190D01*
X97616667Y-125552381D02*
X97045238Y-125552381D01*
X97330953Y-126552381D02*
X97330953Y-125552381D01*
X96283333Y-125885714D02*
X96283333Y-126552381D01*
X96521429Y-125504762D02*
X96759524Y-126219048D01*
X96140476Y-126219048D01*
X95235714Y-126552381D02*
X95807143Y-126552381D01*
X95521429Y-126552381D02*
X95521429Y-125552381D01*
X95616667Y-125695238D01*
X95711905Y-125790476D01*
X95807143Y-125838095D01*
X94283333Y-126552381D02*
X94854762Y-126552381D01*
X94569048Y-126552381D02*
X94569048Y-125552381D01*
X94664286Y-125695238D01*
X94759524Y-125790476D01*
X94854762Y-125838095D01*
X93378571Y-125552381D02*
X93854762Y-125552381D01*
X93902381Y-126028571D01*
X93854762Y-125980952D01*
X93759524Y-125933333D01*
X93521428Y-125933333D01*
X93426190Y-125980952D01*
X93378571Y-126028571D01*
X93330952Y-126123810D01*
X93330952Y-126361905D01*
X93378571Y-126457143D01*
X93426190Y-126504762D01*
X93521428Y-126552381D01*
X93759524Y-126552381D01*
X93854762Y-126504762D01*
X93902381Y-126457143D01*
X101711905Y-128152381D02*
X101711905Y-127152381D01*
X101473810Y-127152381D01*
X101330952Y-127200000D01*
X101235714Y-127295238D01*
X101188095Y-127390476D01*
X101140476Y-127580952D01*
X101140476Y-127723810D01*
X101188095Y-127914286D01*
X101235714Y-128009524D01*
X101330952Y-128104762D01*
X101473810Y-128152381D01*
X101711905Y-128152381D01*
X100759524Y-128104762D02*
X100616667Y-128152381D01*
X100378571Y-128152381D01*
X100283333Y-128104762D01*
X100235714Y-128057143D01*
X100188095Y-127961905D01*
X100188095Y-127866667D01*
X100235714Y-127771429D01*
X100283333Y-127723810D01*
X100378571Y-127676190D01*
X100569048Y-127628571D01*
X100664286Y-127580952D01*
X100711905Y-127533333D01*
X100759524Y-127438095D01*
X100759524Y-127342857D01*
X100711905Y-127247619D01*
X100664286Y-127200000D01*
X100569048Y-127152381D01*
X100330952Y-127152381D01*
X100188095Y-127200000D01*
X99235714Y-128152381D02*
X99807143Y-128152381D01*
X99521429Y-128152381D02*
X99521429Y-127152381D01*
X99616667Y-127295238D01*
X99711905Y-127390476D01*
X99807143Y-127438095D01*
X98807143Y-128057143D02*
X98759524Y-128104762D01*
X98807143Y-128152381D01*
X98854762Y-128104762D01*
X98807143Y-128057143D01*
X98807143Y-128152381D01*
X98807143Y-127533333D02*
X98759524Y-127580952D01*
X98807143Y-127628571D01*
X98854762Y-127580952D01*
X98807143Y-127533333D01*
X98807143Y-127628571D01*
X97616667Y-128104762D02*
X97473810Y-128152381D01*
X97235714Y-128152381D01*
X97140476Y-128104762D01*
X97092857Y-128057143D01*
X97045238Y-127961905D01*
X97045238Y-127866667D01*
X97092857Y-127771429D01*
X97140476Y-127723810D01*
X97235714Y-127676190D01*
X97426191Y-127628571D01*
X97521429Y-127580952D01*
X97569048Y-127533333D01*
X97616667Y-127438095D01*
X97616667Y-127342857D01*
X97569048Y-127247619D01*
X97521429Y-127200000D01*
X97426191Y-127152381D01*
X97188095Y-127152381D01*
X97045238Y-127200000D01*
X96664286Y-128104762D02*
X96521429Y-128152381D01*
X96283333Y-128152381D01*
X96188095Y-128104762D01*
X96140476Y-128057143D01*
X96092857Y-127961905D01*
X96092857Y-127866667D01*
X96140476Y-127771429D01*
X96188095Y-127723810D01*
X96283333Y-127676190D01*
X96473810Y-127628571D01*
X96569048Y-127580952D01*
X96616667Y-127533333D01*
X96664286Y-127438095D01*
X96664286Y-127342857D01*
X96616667Y-127247619D01*
X96569048Y-127200000D01*
X96473810Y-127152381D01*
X96235714Y-127152381D01*
X96092857Y-127200000D01*
X95140476Y-128152381D02*
X95711905Y-128152381D01*
X95426191Y-128152381D02*
X95426191Y-127152381D01*
X95521429Y-127295238D01*
X95616667Y-127390476D01*
X95711905Y-127438095D01*
X94283333Y-127485714D02*
X94283333Y-128152381D01*
X94521429Y-127104762D02*
X94759524Y-127819048D01*
X94140476Y-127819048D01*
X93283333Y-128152381D02*
X93759524Y-128152381D01*
X93759524Y-127152381D01*
X101711905Y-129752381D02*
X101711905Y-128752381D01*
X101473810Y-128752381D01*
X101330952Y-128800000D01*
X101235714Y-128895238D01*
X101188095Y-128990476D01*
X101140476Y-129180952D01*
X101140476Y-129323810D01*
X101188095Y-129514286D01*
X101235714Y-129609524D01*
X101330952Y-129704762D01*
X101473810Y-129752381D01*
X101711905Y-129752381D01*
X100807143Y-128752381D02*
X100140476Y-128752381D01*
X100807143Y-129752381D01*
X100140476Y-129752381D01*
X99235714Y-129752381D02*
X99807143Y-129752381D01*
X99521429Y-129752381D02*
X99521429Y-128752381D01*
X99616667Y-128895238D01*
X99711905Y-128990476D01*
X99807143Y-129038095D01*
X98807143Y-129657143D02*
X98759524Y-129704762D01*
X98807143Y-129752381D01*
X98854762Y-129704762D01*
X98807143Y-129657143D01*
X98807143Y-129752381D01*
X98807143Y-129133333D02*
X98759524Y-129180952D01*
X98807143Y-129228571D01*
X98854762Y-129180952D01*
X98807143Y-129133333D01*
X98807143Y-129228571D01*
X97235714Y-129228571D02*
X97092857Y-129276190D01*
X97045238Y-129323810D01*
X96997619Y-129419048D01*
X96997619Y-129561905D01*
X97045238Y-129657143D01*
X97092857Y-129704762D01*
X97188095Y-129752381D01*
X97569048Y-129752381D01*
X97569048Y-128752381D01*
X97235714Y-128752381D01*
X97140476Y-128800000D01*
X97092857Y-128847619D01*
X97045238Y-128942857D01*
X97045238Y-129038095D01*
X97092857Y-129133333D01*
X97140476Y-129180952D01*
X97235714Y-129228571D01*
X97569048Y-129228571D01*
X96664286Y-128752381D02*
X95997619Y-128752381D01*
X96664286Y-129752381D01*
X95997619Y-129752381D01*
X95711905Y-128752381D02*
X95045238Y-129752381D01*
X95045238Y-128752381D02*
X95711905Y-129752381D01*
X94521429Y-129180952D02*
X94616667Y-129133333D01*
X94664286Y-129085714D01*
X94711905Y-128990476D01*
X94711905Y-128942857D01*
X94664286Y-128847619D01*
X94616667Y-128800000D01*
X94521429Y-128752381D01*
X94330952Y-128752381D01*
X94235714Y-128800000D01*
X94188095Y-128847619D01*
X94140476Y-128942857D01*
X94140476Y-128990476D01*
X94188095Y-129085714D01*
X94235714Y-129133333D01*
X94330952Y-129180952D01*
X94521429Y-129180952D01*
X94616667Y-129228571D01*
X94664286Y-129276190D01*
X94711905Y-129371429D01*
X94711905Y-129561905D01*
X94664286Y-129657143D01*
X94616667Y-129704762D01*
X94521429Y-129752381D01*
X94330952Y-129752381D01*
X94235714Y-129704762D01*
X94188095Y-129657143D01*
X94140476Y-129561905D01*
X94140476Y-129371429D01*
X94188095Y-129276190D01*
X94235714Y-129228571D01*
X94330952Y-129180952D01*
X93283333Y-129085714D02*
X93283333Y-129752381D01*
X93521429Y-128704762D02*
X93759524Y-129419048D01*
X93140476Y-129419048D01*
X92188095Y-129657143D02*
X92235714Y-129704762D01*
X92378571Y-129752381D01*
X92473809Y-129752381D01*
X92616667Y-129704762D01*
X92711905Y-129609524D01*
X92759524Y-129514286D01*
X92807143Y-129323810D01*
X92807143Y-129180952D01*
X92759524Y-128990476D01*
X92711905Y-128895238D01*
X92616667Y-128800000D01*
X92473809Y-128752381D01*
X92378571Y-128752381D01*
X92235714Y-128800000D01*
X92188095Y-128847619D01*
X91997619Y-129847619D02*
X91235714Y-129847619D01*
X90521428Y-128752381D02*
X90997619Y-128752381D01*
X91045238Y-129228571D01*
X90997619Y-129180952D01*
X90902381Y-129133333D01*
X90664285Y-129133333D01*
X90569047Y-129180952D01*
X90521428Y-129228571D01*
X90473809Y-129323810D01*
X90473809Y-129561905D01*
X90521428Y-129657143D01*
X90569047Y-129704762D01*
X90664285Y-129752381D01*
X90902381Y-129752381D01*
X90997619Y-129704762D01*
X91045238Y-129657143D01*
X90188095Y-128752381D02*
X89854762Y-129752381D01*
X89521428Y-128752381D01*
X88664285Y-129752381D02*
X89235714Y-129752381D01*
X88950000Y-129752381D02*
X88950000Y-128752381D01*
X89045238Y-128895238D01*
X89140476Y-128990476D01*
X89235714Y-129038095D01*
X101140476Y-131352381D02*
X101473810Y-130876190D01*
X101711905Y-131352381D02*
X101711905Y-130352381D01*
X101330952Y-130352381D01*
X101235714Y-130400000D01*
X101188095Y-130447619D01*
X101140476Y-130542857D01*
X101140476Y-130685714D01*
X101188095Y-130780952D01*
X101235714Y-130828571D01*
X101330952Y-130876190D01*
X101711905Y-130876190D01*
X100759524Y-130447619D02*
X100711905Y-130400000D01*
X100616667Y-130352381D01*
X100378571Y-130352381D01*
X100283333Y-130400000D01*
X100235714Y-130447619D01*
X100188095Y-130542857D01*
X100188095Y-130638095D01*
X100235714Y-130780952D01*
X100807143Y-131352381D01*
X100188095Y-131352381D01*
X99759524Y-131257143D02*
X99711905Y-131304762D01*
X99759524Y-131352381D01*
X99807143Y-131304762D01*
X99759524Y-131257143D01*
X99759524Y-131352381D01*
X99759524Y-130733333D02*
X99711905Y-130780952D01*
X99759524Y-130828571D01*
X99807143Y-130780952D01*
X99759524Y-130733333D01*
X99759524Y-130828571D01*
X97997619Y-131352381D02*
X98569048Y-131352381D01*
X98283334Y-131352381D02*
X98283334Y-130352381D01*
X98378572Y-130495238D01*
X98473810Y-130590476D01*
X98569048Y-130638095D01*
X97569048Y-131352381D02*
X97569048Y-130352381D01*
X97473810Y-130971429D02*
X97188095Y-131352381D01*
X97188095Y-130685714D02*
X97569048Y-131066667D01*
D12*
X97571429Y-113628571D02*
X97285715Y-114628571D01*
X97000001Y-113914286D01*
X96714286Y-114628571D01*
X96428572Y-113628571D01*
X96000000Y-113628571D02*
X95714286Y-114628571D01*
X95428572Y-113914286D01*
X95142857Y-114628571D01*
X94857143Y-113628571D01*
X94428571Y-113628571D02*
X94142857Y-114628571D01*
X93857143Y-113914286D01*
X93571428Y-114628571D01*
X93285714Y-113628571D01*
X92714285Y-114485714D02*
X92642857Y-114557143D01*
X92714285Y-114628571D01*
X92785714Y-114557143D01*
X92714285Y-114485714D01*
X92714285Y-114628571D01*
X91999999Y-114628571D02*
X91999999Y-113128571D01*
X91857142Y-114057143D02*
X91428571Y-114628571D01*
X91428571Y-113628571D02*
X91999999Y-114200000D01*
X90785713Y-114628571D02*
X90785713Y-113628571D01*
X90785713Y-113128571D02*
X90857142Y-113200000D01*
X90785713Y-113271429D01*
X90714285Y-113200000D01*
X90785713Y-113128571D01*
X90785713Y-113271429D01*
X89428570Y-114557143D02*
X89571427Y-114628571D01*
X89857141Y-114628571D01*
X89999999Y-114557143D01*
X90071427Y-114485714D01*
X90142856Y-114342857D01*
X90142856Y-113914286D01*
X90071427Y-113771429D01*
X89999999Y-113700000D01*
X89857141Y-113628571D01*
X89571427Y-113628571D01*
X89428570Y-113700000D01*
X88142856Y-114628571D02*
X88142856Y-113842857D01*
X88214285Y-113700000D01*
X88357142Y-113628571D01*
X88642856Y-113628571D01*
X88785713Y-113700000D01*
X88142856Y-114557143D02*
X88285713Y-114628571D01*
X88642856Y-114628571D01*
X88785713Y-114557143D01*
X88857142Y-114414286D01*
X88857142Y-114271429D01*
X88785713Y-114128571D01*
X88642856Y-114057143D01*
X88285713Y-114057143D01*
X88142856Y-113985714D01*
X86785713Y-114628571D02*
X86785713Y-113128571D01*
X86785713Y-114557143D02*
X86928570Y-114628571D01*
X87214284Y-114628571D01*
X87357142Y-114557143D01*
X87428570Y-114485714D01*
X87499999Y-114342857D01*
X87499999Y-113914286D01*
X87428570Y-113771429D01*
X87357142Y-113700000D01*
X87214284Y-113628571D01*
X86928570Y-113628571D01*
X86785713Y-113700000D01*
X86071427Y-114057143D02*
X84928570Y-114057143D01*
X84214284Y-113628571D02*
X84214284Y-115128571D01*
X84214284Y-113700000D02*
X84071427Y-113628571D01*
X83785713Y-113628571D01*
X83642856Y-113700000D01*
X83571427Y-113771429D01*
X83499998Y-113914286D01*
X83499998Y-114342857D01*
X83571427Y-114485714D01*
X83642856Y-114557143D01*
X83785713Y-114628571D01*
X84071427Y-114628571D01*
X84214284Y-114557143D01*
X82214284Y-114557143D02*
X82357141Y-114628571D01*
X82642855Y-114628571D01*
X82785713Y-114557143D01*
X82857141Y-114485714D01*
X82928570Y-114342857D01*
X82928570Y-113914286D01*
X82857141Y-113771429D01*
X82785713Y-113700000D01*
X82642855Y-113628571D01*
X82357141Y-113628571D01*
X82214284Y-113700000D01*
X81571427Y-114628571D02*
X81571427Y-113128571D01*
X81571427Y-113700000D02*
X81428570Y-113628571D01*
X81142856Y-113628571D01*
X80999999Y-113700000D01*
X80928570Y-113771429D01*
X80857141Y-113914286D01*
X80857141Y-114342857D01*
X80928570Y-114485714D01*
X80999999Y-114557143D01*
X81142856Y-114628571D01*
X81428570Y-114628571D01*
X81571427Y-114557143D01*
X80214284Y-114485714D02*
X80142856Y-114557143D01*
X80214284Y-114628571D01*
X80285713Y-114557143D01*
X80214284Y-114485714D01*
X80214284Y-114628571D01*
X79285712Y-114628571D02*
X79428570Y-114557143D01*
X79499998Y-114485714D01*
X79571427Y-114342857D01*
X79571427Y-113914286D01*
X79499998Y-113771429D01*
X79428570Y-113700000D01*
X79285712Y-113628571D01*
X79071427Y-113628571D01*
X78928570Y-113700000D01*
X78857141Y-113771429D01*
X78785712Y-113914286D01*
X78785712Y-114342857D01*
X78857141Y-114485714D01*
X78928570Y-114557143D01*
X79071427Y-114628571D01*
X79285712Y-114628571D01*
X78142855Y-114628571D02*
X78142855Y-113628571D01*
X78142855Y-113914286D02*
X78071427Y-113771429D01*
X77999998Y-113700000D01*
X77857141Y-113628571D01*
X77714284Y-113628571D01*
X76571427Y-113628571D02*
X76571427Y-114842857D01*
X76642856Y-114985714D01*
X76714284Y-115057143D01*
X76857141Y-115128571D01*
X77071427Y-115128571D01*
X77214284Y-115057143D01*
X76571427Y-114557143D02*
X76714284Y-114628571D01*
X76999998Y-114628571D01*
X77142856Y-114557143D01*
X77214284Y-114485714D01*
X77285713Y-114342857D01*
X77285713Y-113914286D01*
X77214284Y-113771429D01*
X77142856Y-113700000D01*
X76999998Y-113628571D01*
X76714284Y-113628571D01*
X76571427Y-113700000D01*
D13*
X109994095Y-113157000D02*
X110090857Y-113108619D01*
X110236000Y-113108619D01*
X110381142Y-113157000D01*
X110477904Y-113253762D01*
X110526285Y-113350524D01*
X110574666Y-113544048D01*
X110574666Y-113689190D01*
X110526285Y-113882714D01*
X110477904Y-113979476D01*
X110381142Y-114076238D01*
X110236000Y-114124619D01*
X110139238Y-114124619D01*
X109994095Y-114076238D01*
X109945714Y-114027857D01*
X109945714Y-113689190D01*
X110139238Y-113689190D01*
X109510285Y-114124619D02*
X109510285Y-113108619D01*
X108929714Y-114124619D01*
X108929714Y-113108619D01*
X108445904Y-114124619D02*
X108445904Y-113108619D01*
X108203999Y-113108619D01*
X108058857Y-113157000D01*
X107962095Y-113253762D01*
X107913714Y-113350524D01*
X107865333Y-113544048D01*
X107865333Y-113689190D01*
X107913714Y-113882714D01*
X107962095Y-113979476D01*
X108058857Y-114076238D01*
X108203999Y-114124619D01*
X108445904Y-114124619D01*
X110574666Y-118188619D02*
X110235999Y-119204619D01*
X109897333Y-118188619D01*
X108978095Y-119107857D02*
X109026476Y-119156238D01*
X109171619Y-119204619D01*
X109268381Y-119204619D01*
X109413523Y-119156238D01*
X109510285Y-119059476D01*
X109558666Y-118962714D01*
X109607047Y-118769190D01*
X109607047Y-118624048D01*
X109558666Y-118430524D01*
X109510285Y-118333762D01*
X109413523Y-118237000D01*
X109268381Y-118188619D01*
X109171619Y-118188619D01*
X109026476Y-118237000D01*
X108978095Y-118285381D01*
X107962095Y-119107857D02*
X108010476Y-119156238D01*
X108155619Y-119204619D01*
X108252381Y-119204619D01*
X108397523Y-119156238D01*
X108494285Y-119059476D01*
X108542666Y-118962714D01*
X108591047Y-118769190D01*
X108591047Y-118624048D01*
X108542666Y-118430524D01*
X108494285Y-118333762D01*
X108397523Y-118237000D01*
X108252381Y-118188619D01*
X108155619Y-118188619D01*
X108010476Y-118237000D01*
X107962095Y-118285381D01*
X109994095Y-115697000D02*
X110090857Y-115648619D01*
X110236000Y-115648619D01*
X110381142Y-115697000D01*
X110477904Y-115793762D01*
X110526285Y-115890524D01*
X110574666Y-116084048D01*
X110574666Y-116229190D01*
X110526285Y-116422714D01*
X110477904Y-116519476D01*
X110381142Y-116616238D01*
X110236000Y-116664619D01*
X110139238Y-116664619D01*
X109994095Y-116616238D01*
X109945714Y-116567857D01*
X109945714Y-116229190D01*
X110139238Y-116229190D01*
X109510285Y-116664619D02*
X109510285Y-115648619D01*
X108929714Y-116664619D01*
X108929714Y-115648619D01*
X108445904Y-116664619D02*
X108445904Y-115648619D01*
X108203999Y-115648619D01*
X108058857Y-115697000D01*
X107962095Y-115793762D01*
X107913714Y-115890524D01*
X107865333Y-116084048D01*
X107865333Y-116229190D01*
X107913714Y-116422714D01*
X107962095Y-116519476D01*
X108058857Y-116616238D01*
X108203999Y-116664619D01*
X108445904Y-116664619D01*
X110574666Y-120728619D02*
X110235999Y-121744619D01*
X109897333Y-120728619D01*
X108978095Y-121647857D02*
X109026476Y-121696238D01*
X109171619Y-121744619D01*
X109268381Y-121744619D01*
X109413523Y-121696238D01*
X109510285Y-121599476D01*
X109558666Y-121502714D01*
X109607047Y-121309190D01*
X109607047Y-121164048D01*
X109558666Y-120970524D01*
X109510285Y-120873762D01*
X109413523Y-120777000D01*
X109268381Y-120728619D01*
X109171619Y-120728619D01*
X109026476Y-120777000D01*
X108978095Y-120825381D01*
X107962095Y-121647857D02*
X108010476Y-121696238D01*
X108155619Y-121744619D01*
X108252381Y-121744619D01*
X108397523Y-121696238D01*
X108494285Y-121599476D01*
X108542666Y-121502714D01*
X108591047Y-121309190D01*
X108591047Y-121164048D01*
X108542666Y-120970524D01*
X108494285Y-120873762D01*
X108397523Y-120777000D01*
X108252381Y-120728619D01*
X108155619Y-120728619D01*
X108010476Y-120777000D01*
X107962095Y-120825381D01*
X110308571Y-126824619D02*
X110308571Y-125808619D01*
X110066666Y-125808619D01*
X109921524Y-125857000D01*
X109824762Y-125953762D01*
X109776381Y-126050524D01*
X109728000Y-126244048D01*
X109728000Y-126389190D01*
X109776381Y-126582714D01*
X109824762Y-126679476D01*
X109921524Y-126776238D01*
X110066666Y-126824619D01*
X110308571Y-126824619D01*
X109292571Y-126824619D02*
X109292571Y-125808619D01*
X108808761Y-126824619D02*
X108808761Y-125808619D01*
X108470095Y-126534333D01*
X108131428Y-125808619D01*
X108131428Y-126824619D01*
X110308571Y-124284619D02*
X110308571Y-123268619D01*
X110066666Y-123268619D01*
X109921524Y-123317000D01*
X109824762Y-123413762D01*
X109776381Y-123510524D01*
X109728000Y-123704048D01*
X109728000Y-123849190D01*
X109776381Y-124042714D01*
X109824762Y-124139476D01*
X109921524Y-124236238D01*
X110066666Y-124284619D01*
X110308571Y-124284619D01*
X109292571Y-124284619D02*
X109292571Y-123268619D01*
X108808761Y-124284619D02*
X108808761Y-123268619D01*
X108470095Y-123994333D01*
X108131428Y-123268619D01*
X108131428Y-124284619D01*
X94184570Y-95822371D02*
X93803570Y-96965371D01*
X93422570Y-95822371D01*
X92388427Y-96856514D02*
X92442856Y-96910943D01*
X92606142Y-96965371D01*
X92714999Y-96965371D01*
X92878284Y-96910943D01*
X92987142Y-96802086D01*
X93041570Y-96693229D01*
X93095999Y-96475514D01*
X93095999Y-96312229D01*
X93041570Y-96094514D01*
X92987142Y-95985657D01*
X92878284Y-95876800D01*
X92714999Y-95822371D01*
X92606142Y-95822371D01*
X92442856Y-95876800D01*
X92388427Y-95931229D01*
X91245427Y-96856514D02*
X91299856Y-96910943D01*
X91463142Y-96965371D01*
X91571999Y-96965371D01*
X91735284Y-96910943D01*
X91844142Y-96802086D01*
X91898570Y-96693229D01*
X91952999Y-96475514D01*
X91952999Y-96312229D01*
X91898570Y-96094514D01*
X91844142Y-95985657D01*
X91735284Y-95876800D01*
X91571999Y-95822371D01*
X91463142Y-95822371D01*
X91299856Y-95876800D01*
X91245427Y-95931229D01*
X90755570Y-96856514D02*
X90701142Y-96910943D01*
X90755570Y-96965371D01*
X90809999Y-96910943D01*
X90755570Y-96856514D01*
X90755570Y-96965371D01*
X90755570Y-96257800D02*
X90701142Y-96312229D01*
X90755570Y-96366657D01*
X90809999Y-96312229D01*
X90755570Y-96257800D01*
X90755570Y-96366657D01*
X88741713Y-96965371D02*
X89394856Y-96965371D01*
X89068284Y-96965371D02*
X89068284Y-95822371D01*
X89177141Y-95985657D01*
X89285999Y-96094514D01*
X89394856Y-96148943D01*
X88088570Y-96312229D02*
X88197428Y-96257800D01*
X88251856Y-96203371D01*
X88306285Y-96094514D01*
X88306285Y-96040086D01*
X88251856Y-95931229D01*
X88197428Y-95876800D01*
X88088570Y-95822371D01*
X87870856Y-95822371D01*
X87761999Y-95876800D01*
X87707570Y-95931229D01*
X87653142Y-96040086D01*
X87653142Y-96094514D01*
X87707570Y-96203371D01*
X87761999Y-96257800D01*
X87870856Y-96312229D01*
X88088570Y-96312229D01*
X88197428Y-96366657D01*
X88251856Y-96421086D01*
X88306285Y-96529943D01*
X88306285Y-96747657D01*
X88251856Y-96856514D01*
X88197428Y-96910943D01*
X88088570Y-96965371D01*
X87870856Y-96965371D01*
X87761999Y-96910943D01*
X87707570Y-96856514D01*
X87653142Y-96747657D01*
X87653142Y-96529943D01*
X87707570Y-96421086D01*
X87761999Y-96366657D01*
X87870856Y-96312229D01*
X87163285Y-96529943D02*
X86292428Y-96529943D01*
X85802571Y-95931229D02*
X85748142Y-95876800D01*
X85639285Y-95822371D01*
X85367142Y-95822371D01*
X85258285Y-95876800D01*
X85203856Y-95931229D01*
X85149428Y-96040086D01*
X85149428Y-96148943D01*
X85203856Y-96312229D01*
X85856999Y-96965371D01*
X85149428Y-96965371D01*
X84169714Y-96203371D02*
X84169714Y-96965371D01*
X84441857Y-95767943D02*
X84714000Y-96584371D01*
X84006428Y-96584371D01*
X83734286Y-95822371D02*
X83353286Y-96965371D01*
X82972286Y-95822371D01*
X81720429Y-96965371D02*
X81720429Y-95822371D01*
X81448286Y-95822371D01*
X81285001Y-95876800D01*
X81176143Y-95985657D01*
X81121715Y-96094514D01*
X81067286Y-96312229D01*
X81067286Y-96475514D01*
X81121715Y-96693229D01*
X81176143Y-96802086D01*
X81285001Y-96910943D01*
X81448286Y-96965371D01*
X81720429Y-96965371D01*
X79924286Y-96856514D02*
X79978715Y-96910943D01*
X80142001Y-96965371D01*
X80250858Y-96965371D01*
X80414143Y-96910943D01*
X80523001Y-96802086D01*
X80577429Y-96693229D01*
X80631858Y-96475514D01*
X80631858Y-96312229D01*
X80577429Y-96094514D01*
X80523001Y-95985657D01*
X80414143Y-95876800D01*
X80250858Y-95822371D01*
X80142001Y-95822371D01*
X79978715Y-95876800D01*
X79924286Y-95931229D01*
X98702142Y-98768771D02*
X98702142Y-97625771D01*
X98429999Y-97625771D01*
X98266714Y-97680200D01*
X98157856Y-97789057D01*
X98103428Y-97897914D01*
X98048999Y-98115629D01*
X98048999Y-98278914D01*
X98103428Y-98496629D01*
X98157856Y-98605486D01*
X98266714Y-98714343D01*
X98429999Y-98768771D01*
X98702142Y-98768771D01*
X97559142Y-98768771D02*
X97559142Y-97625771D01*
X97014856Y-98768771D02*
X97014856Y-97625771D01*
X96633856Y-98442200D01*
X96252856Y-97625771D01*
X96252856Y-98768771D01*
X95708570Y-98659914D02*
X95654142Y-98714343D01*
X95708570Y-98768771D01*
X95762999Y-98714343D01*
X95708570Y-98659914D01*
X95708570Y-98768771D01*
X95708570Y-98061200D02*
X95654142Y-98115629D01*
X95708570Y-98170057D01*
X95762999Y-98115629D01*
X95708570Y-98061200D01*
X95708570Y-98170057D01*
X93749141Y-97625771D02*
X94293427Y-97625771D01*
X94347856Y-98170057D01*
X94293427Y-98115629D01*
X94184570Y-98061200D01*
X93912427Y-98061200D01*
X93803570Y-98115629D01*
X93749141Y-98170057D01*
X93694713Y-98278914D01*
X93694713Y-98551057D01*
X93749141Y-98659914D01*
X93803570Y-98714343D01*
X93912427Y-98768771D01*
X94184570Y-98768771D01*
X94293427Y-98714343D01*
X94347856Y-98659914D01*
X93368142Y-97625771D02*
X92987142Y-98768771D01*
X92606142Y-97625771D01*
X91354285Y-98768771D02*
X91354285Y-97625771D01*
X90918857Y-97625771D01*
X90809999Y-97680200D01*
X90755571Y-97734629D01*
X90701142Y-97843486D01*
X90701142Y-98006771D01*
X90755571Y-98115629D01*
X90809999Y-98170057D01*
X90918857Y-98224486D01*
X91354285Y-98224486D01*
X90320142Y-97625771D02*
X90047999Y-98768771D01*
X89830285Y-97952343D01*
X89612571Y-98768771D01*
X89340428Y-97625771D01*
X88904999Y-98768771D02*
X88904999Y-97625771D01*
X88523999Y-98442200D01*
X88142999Y-97625771D01*
X88142999Y-98768771D01*
X86564570Y-98768771D02*
X86673428Y-98714343D01*
X86727856Y-98659914D01*
X86782285Y-98551057D01*
X86782285Y-98224486D01*
X86727856Y-98115629D01*
X86673428Y-98061200D01*
X86564570Y-98006771D01*
X86401285Y-98006771D01*
X86292428Y-98061200D01*
X86237999Y-98115629D01*
X86183570Y-98224486D01*
X86183570Y-98551057D01*
X86237999Y-98659914D01*
X86292428Y-98714343D01*
X86401285Y-98768771D01*
X86564570Y-98768771D01*
X85693713Y-98768771D02*
X85693713Y-98006771D01*
X85693713Y-98224486D02*
X85639285Y-98115629D01*
X85584856Y-98061200D01*
X85475999Y-98006771D01*
X85367142Y-98006771D01*
X83897571Y-97625771D02*
X83788714Y-97625771D01*
X83679857Y-97680200D01*
X83625428Y-97734629D01*
X83570999Y-97843486D01*
X83516571Y-98061200D01*
X83516571Y-98333343D01*
X83570999Y-98551057D01*
X83625428Y-98659914D01*
X83679857Y-98714343D01*
X83788714Y-98768771D01*
X83897571Y-98768771D01*
X84006428Y-98714343D01*
X84060857Y-98659914D01*
X84115285Y-98551057D01*
X84169714Y-98333343D01*
X84169714Y-98061200D01*
X84115285Y-97843486D01*
X84060857Y-97734629D01*
X84006428Y-97680200D01*
X83897571Y-97625771D01*
X83026714Y-98333343D02*
X82155857Y-98333343D01*
X81666000Y-97734629D02*
X81611571Y-97680200D01*
X81502714Y-97625771D01*
X81230571Y-97625771D01*
X81121714Y-97680200D01*
X81067285Y-97734629D01*
X81012857Y-97843486D01*
X81012857Y-97952343D01*
X81067285Y-98115629D01*
X81720428Y-98768771D01*
X81012857Y-98768771D01*
X80523000Y-98659914D02*
X80468572Y-98714343D01*
X80523000Y-98768771D01*
X80577429Y-98714343D01*
X80523000Y-98659914D01*
X80523000Y-98768771D01*
X79434428Y-97625771D02*
X79978714Y-97625771D01*
X80033143Y-98170057D01*
X79978714Y-98115629D01*
X79869857Y-98061200D01*
X79597714Y-98061200D01*
X79488857Y-98115629D01*
X79434428Y-98170057D01*
X79380000Y-98278914D01*
X79380000Y-98551057D01*
X79434428Y-98659914D01*
X79488857Y-98714343D01*
X79597714Y-98768771D01*
X79869857Y-98768771D01*
X79978714Y-98714343D01*
X80033143Y-98659914D01*
X79053429Y-97625771D02*
X78672429Y-98768771D01*
X78291429Y-97625771D01*
X77039572Y-98768771D02*
X77039572Y-97625771D01*
X76767429Y-97625771D01*
X76604144Y-97680200D01*
X76495286Y-97789057D01*
X76440858Y-97897914D01*
X76386429Y-98115629D01*
X76386429Y-98278914D01*
X76440858Y-98496629D01*
X76495286Y-98605486D01*
X76604144Y-98714343D01*
X76767429Y-98768771D01*
X77039572Y-98768771D01*
X75243429Y-98659914D02*
X75297858Y-98714343D01*
X75461144Y-98768771D01*
X75570001Y-98768771D01*
X75733286Y-98714343D01*
X75842144Y-98605486D01*
X75896572Y-98496629D01*
X75951001Y-98278914D01*
X75951001Y-98115629D01*
X75896572Y-97897914D01*
X75842144Y-97789057D01*
X75733286Y-97680200D01*
X75570001Y-97625771D01*
X75461144Y-97625771D01*
X75297858Y-97680200D01*
X75243429Y-97734629D01*
X65858571Y-124284619D02*
X65858571Y-123268619D01*
X65616666Y-123268619D01*
X65471524Y-123317000D01*
X65374762Y-123413762D01*
X65326381Y-123510524D01*
X65278000Y-123704048D01*
X65278000Y-123849190D01*
X65326381Y-124042714D01*
X65374762Y-124139476D01*
X65471524Y-124236238D01*
X65616666Y-124284619D01*
X65858571Y-124284619D01*
X64842571Y-124284619D02*
X64842571Y-123268619D01*
X64358761Y-124284619D02*
X64358761Y-123268619D01*
X64020095Y-123994333D01*
X63681428Y-123268619D01*
X63681428Y-124284619D01*
X65858571Y-126824619D02*
X65858571Y-125808619D01*
X65616666Y-125808619D01*
X65471524Y-125857000D01*
X65374762Y-125953762D01*
X65326381Y-126050524D01*
X65278000Y-126244048D01*
X65278000Y-126389190D01*
X65326381Y-126582714D01*
X65374762Y-126679476D01*
X65471524Y-126776238D01*
X65616666Y-126824619D01*
X65858571Y-126824619D01*
X64842571Y-126824619D02*
X64842571Y-125808619D01*
X64358761Y-126824619D02*
X64358761Y-125808619D01*
X64020095Y-126534333D01*
X63681428Y-125808619D01*
X63681428Y-126824619D01*
X66124666Y-120728619D02*
X65785999Y-121744619D01*
X65447333Y-120728619D01*
X64528095Y-121647857D02*
X64576476Y-121696238D01*
X64721619Y-121744619D01*
X64818381Y-121744619D01*
X64963523Y-121696238D01*
X65060285Y-121599476D01*
X65108666Y-121502714D01*
X65157047Y-121309190D01*
X65157047Y-121164048D01*
X65108666Y-120970524D01*
X65060285Y-120873762D01*
X64963523Y-120777000D01*
X64818381Y-120728619D01*
X64721619Y-120728619D01*
X64576476Y-120777000D01*
X64528095Y-120825381D01*
X63512095Y-121647857D02*
X63560476Y-121696238D01*
X63705619Y-121744619D01*
X63802381Y-121744619D01*
X63947523Y-121696238D01*
X64044285Y-121599476D01*
X64092666Y-121502714D01*
X64141047Y-121309190D01*
X64141047Y-121164048D01*
X64092666Y-120970524D01*
X64044285Y-120873762D01*
X63947523Y-120777000D01*
X63802381Y-120728619D01*
X63705619Y-120728619D01*
X63560476Y-120777000D01*
X63512095Y-120825381D01*
X65544095Y-115697000D02*
X65640857Y-115648619D01*
X65786000Y-115648619D01*
X65931142Y-115697000D01*
X66027904Y-115793762D01*
X66076285Y-115890524D01*
X66124666Y-116084048D01*
X66124666Y-116229190D01*
X66076285Y-116422714D01*
X66027904Y-116519476D01*
X65931142Y-116616238D01*
X65786000Y-116664619D01*
X65689238Y-116664619D01*
X65544095Y-116616238D01*
X65495714Y-116567857D01*
X65495714Y-116229190D01*
X65689238Y-116229190D01*
X65060285Y-116664619D02*
X65060285Y-115648619D01*
X64479714Y-116664619D01*
X64479714Y-115648619D01*
X63995904Y-116664619D02*
X63995904Y-115648619D01*
X63753999Y-115648619D01*
X63608857Y-115697000D01*
X63512095Y-115793762D01*
X63463714Y-115890524D01*
X63415333Y-116084048D01*
X63415333Y-116229190D01*
X63463714Y-116422714D01*
X63512095Y-116519476D01*
X63608857Y-116616238D01*
X63753999Y-116664619D01*
X63995904Y-116664619D01*
X66124666Y-118188619D02*
X65785999Y-119204619D01*
X65447333Y-118188619D01*
X64528095Y-119107857D02*
X64576476Y-119156238D01*
X64721619Y-119204619D01*
X64818381Y-119204619D01*
X64963523Y-119156238D01*
X65060285Y-119059476D01*
X65108666Y-118962714D01*
X65157047Y-118769190D01*
X65157047Y-118624048D01*
X65108666Y-118430524D01*
X65060285Y-118333762D01*
X64963523Y-118237000D01*
X64818381Y-118188619D01*
X64721619Y-118188619D01*
X64576476Y-118237000D01*
X64528095Y-118285381D01*
X63512095Y-119107857D02*
X63560476Y-119156238D01*
X63705619Y-119204619D01*
X63802381Y-119204619D01*
X63947523Y-119156238D01*
X64044285Y-119059476D01*
X64092666Y-118962714D01*
X64141047Y-118769190D01*
X64141047Y-118624048D01*
X64092666Y-118430524D01*
X64044285Y-118333762D01*
X63947523Y-118237000D01*
X63802381Y-118188619D01*
X63705619Y-118188619D01*
X63560476Y-118237000D01*
X63512095Y-118285381D01*
X65544095Y-113157000D02*
X65640857Y-113108619D01*
X65786000Y-113108619D01*
X65931142Y-113157000D01*
X66027904Y-113253762D01*
X66076285Y-113350524D01*
X66124666Y-113544048D01*
X66124666Y-113689190D01*
X66076285Y-113882714D01*
X66027904Y-113979476D01*
X65931142Y-114076238D01*
X65786000Y-114124619D01*
X65689238Y-114124619D01*
X65544095Y-114076238D01*
X65495714Y-114027857D01*
X65495714Y-113689190D01*
X65689238Y-113689190D01*
X65060285Y-114124619D02*
X65060285Y-113108619D01*
X64479714Y-114124619D01*
X64479714Y-113108619D01*
X63995904Y-114124619D02*
X63995904Y-113108619D01*
X63753999Y-113108619D01*
X63608857Y-113157000D01*
X63512095Y-113253762D01*
X63463714Y-113350524D01*
X63415333Y-113544048D01*
X63415333Y-113689190D01*
X63463714Y-113882714D01*
X63512095Y-113979476D01*
X63608857Y-114076238D01*
X63753999Y-114124619D01*
X63995904Y-114124619D01*
D14*
G36*
X89748860Y-120304800D02*
X89748860Y-120309880D01*
X89751400Y-120320040D01*
X89753940Y-120335280D01*
X89756480Y-120353060D01*
X89759020Y-120363220D01*
X89769180Y-120406400D01*
X89779340Y-120447040D01*
X89789500Y-120487680D01*
X89802200Y-120525780D01*
X89817440Y-120563880D01*
X89832680Y-120607060D01*
X89850460Y-120650240D01*
X89873320Y-120698500D01*
X89893640Y-120749300D01*
X89913960Y-120795020D01*
X89934280Y-120833120D01*
X89949520Y-120868680D01*
X89962220Y-120901700D01*
X89974920Y-120932180D01*
X89987620Y-120960120D01*
X89997780Y-120985520D01*
X90005400Y-121008380D01*
X90013020Y-121026160D01*
X90018100Y-121043940D01*
X90023180Y-121061720D01*
X90030800Y-121076960D01*
X90035880Y-121097280D01*
X90043500Y-121120140D01*
X90051120Y-121145540D01*
X90058740Y-121178560D01*
X90068900Y-121211580D01*
X90079060Y-121252220D01*
X90089220Y-121287780D01*
X90099380Y-121320800D01*
X90107000Y-121346200D01*
X90117160Y-121371600D01*
X90127320Y-121397000D01*
X90137480Y-121422400D01*
X90150180Y-121450340D01*
X90155260Y-121463040D01*
X90178120Y-121511300D01*
X90200980Y-121557020D01*
X90226380Y-121600200D01*
X90251780Y-121640840D01*
X90274640Y-121676400D01*
X90294960Y-121701800D01*
X90315280Y-121724660D01*
X90338140Y-121750060D01*
X90361000Y-121772920D01*
X90383860Y-121795780D01*
X90404180Y-121813560D01*
X90404180Y-121813560D01*
X90454980Y-121849120D01*
X90510860Y-121882140D01*
X90571820Y-121910080D01*
X90637860Y-121932940D01*
X90708980Y-121953260D01*
X90787720Y-121971040D01*
X90841060Y-121978660D01*
X90876620Y-121983740D01*
X90917260Y-121988820D01*
X90960440Y-121991360D01*
X91006160Y-121996440D01*
X91051880Y-121998980D01*
X91097600Y-122001520D01*
X91138240Y-122004060D01*
X91176340Y-122004060D01*
X91209360Y-122004060D01*
X91227140Y-122004060D01*
X91262700Y-122004060D01*
X91224600Y-121978660D01*
X91145860Y-121925320D01*
X91067120Y-121864360D01*
X90993460Y-121798320D01*
X90922340Y-121724660D01*
X90856300Y-121645920D01*
X90838520Y-121623060D01*
X90777560Y-121534160D01*
X90721680Y-121440180D01*
X90670880Y-121341120D01*
X90627700Y-121239520D01*
X90589600Y-121132840D01*
X90561660Y-121026160D01*
X90541340Y-120937260D01*
X90536260Y-120911860D01*
X90533720Y-120889000D01*
X90531180Y-120866140D01*
X90526100Y-120845820D01*
X90526100Y-120828040D01*
X90523560Y-120815340D01*
X90523560Y-120807720D01*
X90523560Y-120807720D01*
X90528640Y-120807720D01*
X90538800Y-120815340D01*
X90551500Y-120825500D01*
X90569280Y-120840740D01*
X90592140Y-120861060D01*
X90602300Y-120871220D01*
X90637860Y-120901700D01*
X90670880Y-120927100D01*
X90701360Y-120947420D01*
X90734380Y-120962660D01*
X90769940Y-120975360D01*
X90802960Y-120985520D01*
X90820740Y-120990600D01*
X90841060Y-120993140D01*
X90861380Y-120995680D01*
X90879160Y-120998220D01*
X90894400Y-121000760D01*
X90902020Y-121000760D01*
X90907100Y-120998220D01*
X90904560Y-120993140D01*
X90902020Y-120982980D01*
X90896940Y-120970280D01*
X90891860Y-120960120D01*
X90871540Y-120906780D01*
X90851220Y-120845820D01*
X90833440Y-120782320D01*
X90815660Y-120713740D01*
X90800420Y-120642620D01*
X90785180Y-120574040D01*
X90775020Y-120502920D01*
X90764860Y-120436880D01*
X90759780Y-120375920D01*
X90757240Y-120335280D01*
X90757240Y-120312420D01*
X90757240Y-120292100D01*
X90757240Y-120276860D01*
X90757240Y-120266700D01*
X90757240Y-120264160D01*
X90759780Y-120266700D01*
X90764860Y-120279400D01*
X90769940Y-120294640D01*
X90777560Y-120314960D01*
X90785180Y-120337820D01*
X90792800Y-120355600D01*
X90808040Y-120393700D01*
X90820740Y-120426720D01*
X90830900Y-120454660D01*
X90841060Y-120477520D01*
X90848680Y-120495300D01*
X90856300Y-120513080D01*
X90866460Y-120525780D01*
X90869000Y-120530860D01*
X90884240Y-120553720D01*
X90902020Y-120574040D01*
X90922340Y-120589280D01*
X90937580Y-120599440D01*
X90952820Y-120607060D01*
X90970600Y-120612140D01*
X90988380Y-120617220D01*
X91003620Y-120619760D01*
X91006160Y-120619760D01*
X91011240Y-120619760D01*
X91016320Y-120617220D01*
X91016320Y-120609600D01*
X91018860Y-120599440D01*
X91018860Y-120594360D01*
X91021400Y-120568960D01*
X91026480Y-120541020D01*
X91031560Y-120508000D01*
X91039180Y-120474980D01*
X91044260Y-120441960D01*
X91051880Y-120411480D01*
X91054420Y-120401320D01*
X91077280Y-120314960D01*
X91107760Y-120231140D01*
X91140780Y-120149860D01*
X91178880Y-120076200D01*
X91219520Y-120005080D01*
X91234760Y-119984760D01*
X91250000Y-119964440D01*
X91260160Y-119946660D01*
X91272860Y-119931420D01*
X91280480Y-119921260D01*
X91285560Y-119916180D01*
X91285560Y-119916180D01*
X91285560Y-119918720D01*
X91285560Y-119928880D01*
X91283020Y-119944120D01*
X91280480Y-119959360D01*
X91270320Y-120025400D01*
X91262700Y-120101600D01*
X91257620Y-120180340D01*
X91257620Y-120261620D01*
X91260160Y-120345440D01*
X91265240Y-120426720D01*
X91272860Y-120508000D01*
X91283020Y-120586740D01*
X91285560Y-120596900D01*
X91290640Y-120627380D01*
X91293180Y-120650240D01*
X91298260Y-120668020D01*
X91300800Y-120680720D01*
X91303340Y-120685800D01*
X91303340Y-120690880D01*
X91305880Y-120690880D01*
X91310960Y-120688340D01*
X91321120Y-120680720D01*
X91333820Y-120670560D01*
X91349060Y-120655320D01*
X91366840Y-120640080D01*
X91384620Y-120622300D01*
X91404940Y-120604520D01*
X91420180Y-120586740D01*
X91422720Y-120586740D01*
X91473520Y-120530860D01*
X91519240Y-120474980D01*
X91554800Y-120421640D01*
X91582740Y-120368300D01*
X91597980Y-120337820D01*
X91603060Y-120322580D01*
X91608140Y-120309880D01*
X91610680Y-120304800D01*
X91610680Y-120304800D01*
X91613220Y-120304800D01*
X91618300Y-120314960D01*
X91623380Y-120327660D01*
X91631000Y-120342900D01*
X91636080Y-120358140D01*
X91641160Y-120375920D01*
X91646240Y-120388620D01*
X91651320Y-120414020D01*
X91656400Y-120436880D01*
X91661480Y-120462280D01*
X91664020Y-120487680D01*
X91666560Y-120518160D01*
X91669100Y-120553720D01*
X91671640Y-120594360D01*
X91671640Y-120622300D01*
X91671640Y-120678180D01*
X91671640Y-120728980D01*
X91669100Y-120777240D01*
X91666560Y-120822960D01*
X91661480Y-120871220D01*
X91656400Y-120924560D01*
X91653860Y-120939800D01*
X91643700Y-121016000D01*
X91633540Y-121082040D01*
X91620840Y-121143000D01*
X91605600Y-121201420D01*
X91603060Y-121214120D01*
X91600520Y-121221740D01*
X91615760Y-121214120D01*
X91648780Y-121191260D01*
X91679260Y-121170940D01*
X91702120Y-121148080D01*
X91722440Y-121127760D01*
X91740220Y-121102360D01*
X91755460Y-121071880D01*
X91763080Y-121051560D01*
X91768160Y-121043940D01*
X91773240Y-121028700D01*
X91783400Y-121008380D01*
X91791020Y-120982980D01*
X91803720Y-120955040D01*
X91813880Y-120924560D01*
X91826580Y-120894080D01*
X91839280Y-120863600D01*
X91849440Y-120833120D01*
X91859600Y-120805180D01*
X91869760Y-120779780D01*
X91872300Y-120777240D01*
X91877380Y-120764540D01*
X91879920Y-120756920D01*
X91882460Y-120754380D01*
X91885000Y-120759460D01*
X91885000Y-120769620D01*
X91887540Y-120784860D01*
X91892620Y-120805180D01*
X91895160Y-120830580D01*
X91897700Y-120855980D01*
X91897700Y-120883920D01*
X91900240Y-120911860D01*
X91902780Y-120924560D01*
X91902780Y-121021080D01*
X91900240Y-121120140D01*
X91887540Y-121224280D01*
X91869760Y-121325880D01*
X91846900Y-121432560D01*
X91816420Y-121536700D01*
X91780860Y-121640840D01*
X91755460Y-121706880D01*
X91740220Y-121742440D01*
X91719900Y-121780540D01*
X91702120Y-121821180D01*
X91681800Y-121861820D01*
X91661480Y-121899920D01*
X91641160Y-121935480D01*
X91633540Y-121948180D01*
X91620840Y-121968500D01*
X91613220Y-121983740D01*
X91605600Y-121993900D01*
X91600520Y-122001520D01*
X91600520Y-122004060D01*
X91605600Y-122004060D01*
X91615760Y-122004060D01*
X91631000Y-122001520D01*
X91653860Y-121998980D01*
X91669100Y-121996440D01*
X91760540Y-121978660D01*
X91844360Y-121958340D01*
X91923100Y-121932940D01*
X91994220Y-121902460D01*
X92060260Y-121866900D01*
X92118680Y-121826260D01*
X92172020Y-121780540D01*
X92202500Y-121752600D01*
X92240600Y-121711960D01*
X92271080Y-121671320D01*
X92299020Y-121628140D01*
X92326960Y-121582420D01*
X92337120Y-121562100D01*
X92352360Y-121529080D01*
X92367600Y-121496060D01*
X92380300Y-121463040D01*
X92393000Y-121427480D01*
X92405700Y-121389380D01*
X92415860Y-121348740D01*
X92428560Y-121305560D01*
X92438720Y-121257300D01*
X92451420Y-121203960D01*
X92461580Y-121145540D01*
X92474280Y-121082040D01*
X92486980Y-121008380D01*
X92494600Y-120957580D01*
X92507300Y-120891540D01*
X92517460Y-120833120D01*
X92525080Y-120779780D01*
X92535240Y-120731520D01*
X92542860Y-120690880D01*
X92550480Y-120650240D01*
X92558100Y-120617220D01*
X92565720Y-120584200D01*
X92570800Y-120553720D01*
X92578420Y-120523240D01*
X92588580Y-120492760D01*
X92596200Y-120464820D01*
X92619060Y-120391160D01*
X92644460Y-120320040D01*
X92674940Y-120251460D01*
X92705420Y-120187960D01*
X92725740Y-120147320D01*
X92735900Y-120129540D01*
X92743520Y-120114300D01*
X92748600Y-120104140D01*
X92751140Y-120099060D01*
X92751140Y-120099060D01*
X92746060Y-120099060D01*
X92735900Y-120099060D01*
X92718120Y-120101600D01*
X92700340Y-120104140D01*
X92677480Y-120106680D01*
X92657160Y-120109220D01*
X92641920Y-120111760D01*
X92601280Y-120119380D01*
X92558100Y-120129540D01*
X92509840Y-120142240D01*
X92464120Y-120154940D01*
X92418400Y-120167640D01*
X92375220Y-120180340D01*
X92334580Y-120193040D01*
X92301560Y-120205740D01*
X92288860Y-120213360D01*
X92276160Y-120215900D01*
X92268540Y-120220980D01*
X92266000Y-120220980D01*
X92263460Y-120215900D01*
X92258380Y-120205740D01*
X92253300Y-120190500D01*
X92248220Y-120172720D01*
X92240600Y-120152400D01*
X92238060Y-120134620D01*
X92227900Y-120073660D01*
X92222820Y-120015240D01*
X92225360Y-119956820D01*
X92232980Y-119893320D01*
X92248220Y-119829820D01*
X92268540Y-119763780D01*
X92281240Y-119730760D01*
X92288860Y-119715520D01*
X92299020Y-119692660D01*
X92311720Y-119664720D01*
X92326960Y-119631700D01*
X92344740Y-119596140D01*
X92362520Y-119558040D01*
X92382840Y-119519940D01*
X92403160Y-119479300D01*
X92426020Y-119438660D01*
X92443800Y-119400560D01*
X92451420Y-119387860D01*
X92456500Y-119375160D01*
X92459040Y-119367540D01*
X92459040Y-119367540D01*
X92453960Y-119365000D01*
X92441260Y-119365000D01*
X92426020Y-119367540D01*
X92405700Y-119370080D01*
X92385380Y-119372620D01*
X92365060Y-119375160D01*
X92344740Y-119380240D01*
X92334580Y-119382780D01*
X92281240Y-119398020D01*
X92222820Y-119420880D01*
X92161860Y-119448820D01*
X92098360Y-119481840D01*
X92034860Y-119519940D01*
X91968820Y-119563120D01*
X91910400Y-119603760D01*
X91895160Y-119616460D01*
X91879920Y-119626620D01*
X91869760Y-119634240D01*
X91864680Y-119636780D01*
X91864680Y-119636780D01*
X91862140Y-119631700D01*
X91859600Y-119619000D01*
X91857060Y-119598680D01*
X91854520Y-119575820D01*
X91851980Y-119547880D01*
X91846900Y-119519940D01*
X91844360Y-119486920D01*
X91841820Y-119453900D01*
X91839280Y-119423420D01*
X91836740Y-119395480D01*
X91834200Y-119311660D01*
X91836740Y-119232920D01*
X91844360Y-119156720D01*
X91854520Y-119085600D01*
X91869760Y-119022100D01*
X91877380Y-118991620D01*
X91887540Y-118963680D01*
X91900240Y-118938280D01*
X91912940Y-118910340D01*
X91928180Y-118882400D01*
X91948500Y-118851920D01*
X91968820Y-118821440D01*
X91991680Y-118788420D01*
X92009460Y-118760480D01*
X92024700Y-118737620D01*
X92034860Y-118719840D01*
X92045020Y-118704600D01*
X92050100Y-118696980D01*
X92055180Y-118689360D01*
X92057720Y-118684280D01*
X92060260Y-118681740D01*
X92060260Y-118679200D01*
X92055180Y-118676660D01*
X92045020Y-118676660D01*
X92032320Y-118676660D01*
X92014540Y-118676660D01*
X91994220Y-118676660D01*
X91976440Y-118679200D01*
X91958660Y-118681740D01*
X91951040Y-118684280D01*
X91907860Y-118699520D01*
X91867220Y-118719840D01*
X91824040Y-118750320D01*
X91785940Y-118788420D01*
X91745300Y-118831600D01*
X91709740Y-118879860D01*
X91674180Y-118935740D01*
X91641160Y-118996700D01*
X91623380Y-119039880D01*
X91615760Y-119052580D01*
X91610680Y-119060200D01*
X91608140Y-119065280D01*
X91608140Y-119065280D01*
X91605600Y-119057660D01*
X91600520Y-119042420D01*
X91595440Y-119024640D01*
X91590360Y-119001780D01*
X91585280Y-118978920D01*
X91585280Y-118973840D01*
X91582740Y-118950980D01*
X91577660Y-118928120D01*
X91575120Y-118907800D01*
X91572580Y-118884940D01*
X91572580Y-118862080D01*
X91570040Y-118834140D01*
X91570040Y-118803660D01*
X91570040Y-118770640D01*
X91570040Y-118730000D01*
X91570040Y-118684280D01*
X91570040Y-118646180D01*
X91572580Y-118590300D01*
X91572580Y-118542040D01*
X91572580Y-118498860D01*
X91570040Y-118460760D01*
X91570040Y-118430280D01*
X91567500Y-118399800D01*
X91567500Y-118376940D01*
X91564960Y-118351540D01*
X91559880Y-118331220D01*
X91557340Y-118310900D01*
X91542100Y-118252480D01*
X91521780Y-118199140D01*
X91493840Y-118153420D01*
X91460820Y-118110240D01*
X91420180Y-118072140D01*
X91374460Y-118036580D01*
X91349060Y-118021340D01*
X91336360Y-118013720D01*
X91326200Y-118008640D01*
X91321120Y-118006100D01*
X91321120Y-118006100D01*
X91318580Y-118011180D01*
X91316040Y-118021340D01*
X91313500Y-118036580D01*
X91308420Y-118056900D01*
X91305880Y-118072140D01*
X91288100Y-118173740D01*
X91265240Y-118270260D01*
X91244920Y-118359160D01*
X91219520Y-118442980D01*
X91194120Y-118519180D01*
X91163640Y-118590300D01*
X91130620Y-118658880D01*
X91107760Y-118696980D01*
X91100140Y-118712220D01*
X91087440Y-118732540D01*
X91072200Y-118755400D01*
X91056960Y-118780800D01*
X91036640Y-118811280D01*
X91018860Y-118839220D01*
X91011240Y-118849380D01*
X90978220Y-118900180D01*
X90947740Y-118948440D01*
X90924880Y-118989080D01*
X90904560Y-119027180D01*
X90886780Y-119065280D01*
X90874080Y-119098300D01*
X90866460Y-119118620D01*
X90861380Y-119133860D01*
X90856300Y-119146560D01*
X90851220Y-119154180D01*
X90851220Y-119156720D01*
X90846140Y-119154180D01*
X90838520Y-119146560D01*
X90838520Y-119144020D01*
X90833440Y-119138940D01*
X90830900Y-119131320D01*
X90830900Y-119123700D01*
X90830900Y-119108460D01*
X90830900Y-119090680D01*
X90830900Y-119057660D01*
X90835980Y-119024640D01*
X90843600Y-118989080D01*
X90853760Y-118945900D01*
X90869000Y-118900180D01*
X90876620Y-118877320D01*
X90884240Y-118854460D01*
X90889320Y-118831600D01*
X90894400Y-118811280D01*
X90896940Y-118796040D01*
X90896940Y-118785880D01*
X90896940Y-118783340D01*
X90891860Y-118783340D01*
X90881700Y-118785880D01*
X90866460Y-118790960D01*
X90848680Y-118798580D01*
X90828360Y-118803660D01*
X90810580Y-118813820D01*
X90792800Y-118821440D01*
X90790260Y-118821440D01*
X90736920Y-118851920D01*
X90688660Y-118890020D01*
X90642940Y-118933200D01*
X90602300Y-118984000D01*
X90566740Y-119042420D01*
X90533720Y-119105920D01*
X90505780Y-119177040D01*
X90480380Y-119253240D01*
X90480380Y-119255780D01*
X90465140Y-119316740D01*
X90452440Y-119377700D01*
X90439740Y-119441200D01*
X90432120Y-119507240D01*
X90424500Y-119578360D01*
X90419420Y-119654560D01*
X90414340Y-119738380D01*
X90414340Y-119827280D01*
X90411800Y-119911100D01*
X90411800Y-119946660D01*
X90411800Y-119977140D01*
X90411800Y-120000000D01*
X90411800Y-120012700D01*
X90411800Y-120025400D01*
X90409260Y-120033020D01*
X90406720Y-120035560D01*
X90401640Y-120038100D01*
X90399100Y-120038100D01*
X90391480Y-120035560D01*
X90388940Y-120033020D01*
X90363540Y-120017780D01*
X90343220Y-120000000D01*
X90325440Y-119969520D01*
X90310200Y-119933960D01*
X90297500Y-119890780D01*
X90292420Y-119870460D01*
X90289880Y-119857760D01*
X90289880Y-119847600D01*
X90287340Y-119834900D01*
X90287340Y-119822200D01*
X90284800Y-119806960D01*
X90284800Y-119789180D01*
X90284800Y-119768860D01*
X90284800Y-119740920D01*
X90284800Y-119707900D01*
X90284800Y-119679960D01*
X90284800Y-119646940D01*
X90284800Y-119616460D01*
X90284800Y-119588520D01*
X90282260Y-119568200D01*
X90282260Y-119550420D01*
X90282260Y-119537720D01*
X90282260Y-119535180D01*
X90279720Y-119535180D01*
X90272100Y-119542800D01*
X90264480Y-119545340D01*
X90226380Y-119578360D01*
X90190820Y-119616460D01*
X90160340Y-119659640D01*
X90134940Y-119712980D01*
X90112080Y-119771400D01*
X90094300Y-119834900D01*
X90089220Y-119860300D01*
X90081600Y-119900940D01*
X90076520Y-119941580D01*
X90073980Y-119982220D01*
X90071440Y-120025400D01*
X90068900Y-120073660D01*
X90068900Y-120129540D01*
X90068900Y-120144780D01*
X90071440Y-120203200D01*
X90073980Y-120254000D01*
X90076520Y-120302260D01*
X90081600Y-120347980D01*
X90086680Y-120393700D01*
X90091760Y-120419100D01*
X90094300Y-120439420D01*
X90096840Y-120454660D01*
X90096840Y-120464820D01*
X90096840Y-120469900D01*
X90091760Y-120469900D01*
X90081600Y-120467360D01*
X90066360Y-120462280D01*
X90048580Y-120457200D01*
X90028260Y-120452120D01*
X90005400Y-120447040D01*
X89985080Y-120439420D01*
X89967300Y-120434340D01*
X89967300Y-120431800D01*
X89911420Y-120408940D01*
X89860620Y-120386080D01*
X89819980Y-120360680D01*
X89784420Y-120332740D01*
X89776800Y-120327660D01*
X89766640Y-120317500D01*
X89756480Y-120307340D01*
X89751400Y-120304800D01*
X89748860Y-120304800D01*
X89748860Y-120304800D01*
X89748860Y-120304800D01*
G37*
X89748860Y-120304800D02*
X89748860Y-120309880D01*
X89751400Y-120320040D01*
X89753940Y-120335280D01*
X89756480Y-120353060D01*
X89759020Y-120363220D01*
X89769180Y-120406400D01*
X89779340Y-120447040D01*
X89789500Y-120487680D01*
X89802200Y-120525780D01*
X89817440Y-120563880D01*
X89832680Y-120607060D01*
X89850460Y-120650240D01*
X89873320Y-120698500D01*
X89893640Y-120749300D01*
X89913960Y-120795020D01*
X89934280Y-120833120D01*
X89949520Y-120868680D01*
X89962220Y-120901700D01*
X89974920Y-120932180D01*
X89987620Y-120960120D01*
X89997780Y-120985520D01*
X90005400Y-121008380D01*
X90013020Y-121026160D01*
X90018100Y-121043940D01*
X90023180Y-121061720D01*
X90030800Y-121076960D01*
X90035880Y-121097280D01*
X90043500Y-121120140D01*
X90051120Y-121145540D01*
X90058740Y-121178560D01*
X90068900Y-121211580D01*
X90079060Y-121252220D01*
X90089220Y-121287780D01*
X90099380Y-121320800D01*
X90107000Y-121346200D01*
X90117160Y-121371600D01*
X90127320Y-121397000D01*
X90137480Y-121422400D01*
X90150180Y-121450340D01*
X90155260Y-121463040D01*
X90178120Y-121511300D01*
X90200980Y-121557020D01*
X90226380Y-121600200D01*
X90251780Y-121640840D01*
X90274640Y-121676400D01*
X90294960Y-121701800D01*
X90315280Y-121724660D01*
X90338140Y-121750060D01*
X90361000Y-121772920D01*
X90383860Y-121795780D01*
X90404180Y-121813560D01*
X90404180Y-121813560D01*
X90454980Y-121849120D01*
X90510860Y-121882140D01*
X90571820Y-121910080D01*
X90637860Y-121932940D01*
X90708980Y-121953260D01*
X90787720Y-121971040D01*
X90841060Y-121978660D01*
X90876620Y-121983740D01*
X90917260Y-121988820D01*
X90960440Y-121991360D01*
X91006160Y-121996440D01*
X91051880Y-121998980D01*
X91097600Y-122001520D01*
X91138240Y-122004060D01*
X91176340Y-122004060D01*
X91209360Y-122004060D01*
X91227140Y-122004060D01*
X91262700Y-122004060D01*
X91224600Y-121978660D01*
X91145860Y-121925320D01*
X91067120Y-121864360D01*
X90993460Y-121798320D01*
X90922340Y-121724660D01*
X90856300Y-121645920D01*
X90838520Y-121623060D01*
X90777560Y-121534160D01*
X90721680Y-121440180D01*
X90670880Y-121341120D01*
X90627700Y-121239520D01*
X90589600Y-121132840D01*
X90561660Y-121026160D01*
X90541340Y-120937260D01*
X90536260Y-120911860D01*
X90533720Y-120889000D01*
X90531180Y-120866140D01*
X90526100Y-120845820D01*
X90526100Y-120828040D01*
X90523560Y-120815340D01*
X90523560Y-120807720D01*
X90523560Y-120807720D01*
X90528640Y-120807720D01*
X90538800Y-120815340D01*
X90551500Y-120825500D01*
X90569280Y-120840740D01*
X90592140Y-120861060D01*
X90602300Y-120871220D01*
X90637860Y-120901700D01*
X90670880Y-120927100D01*
X90701360Y-120947420D01*
X90734380Y-120962660D01*
X90769940Y-120975360D01*
X90802960Y-120985520D01*
X90820740Y-120990600D01*
X90841060Y-120993140D01*
X90861380Y-120995680D01*
X90879160Y-120998220D01*
X90894400Y-121000760D01*
X90902020Y-121000760D01*
X90907100Y-120998220D01*
X90904560Y-120993140D01*
X90902020Y-120982980D01*
X90896940Y-120970280D01*
X90891860Y-120960120D01*
X90871540Y-120906780D01*
X90851220Y-120845820D01*
X90833440Y-120782320D01*
X90815660Y-120713740D01*
X90800420Y-120642620D01*
X90785180Y-120574040D01*
X90775020Y-120502920D01*
X90764860Y-120436880D01*
X90759780Y-120375920D01*
X90757240Y-120335280D01*
X90757240Y-120312420D01*
X90757240Y-120292100D01*
X90757240Y-120276860D01*
X90757240Y-120266700D01*
X90757240Y-120264160D01*
X90759780Y-120266700D01*
X90764860Y-120279400D01*
X90769940Y-120294640D01*
X90777560Y-120314960D01*
X90785180Y-120337820D01*
X90792800Y-120355600D01*
X90808040Y-120393700D01*
X90820740Y-120426720D01*
X90830900Y-120454660D01*
X90841060Y-120477520D01*
X90848680Y-120495300D01*
X90856300Y-120513080D01*
X90866460Y-120525780D01*
X90869000Y-120530860D01*
X90884240Y-120553720D01*
X90902020Y-120574040D01*
X90922340Y-120589280D01*
X90937580Y-120599440D01*
X90952820Y-120607060D01*
X90970600Y-120612140D01*
X90988380Y-120617220D01*
X91003620Y-120619760D01*
X91006160Y-120619760D01*
X91011240Y-120619760D01*
X91016320Y-120617220D01*
X91016320Y-120609600D01*
X91018860Y-120599440D01*
X91018860Y-120594360D01*
X91021400Y-120568960D01*
X91026480Y-120541020D01*
X91031560Y-120508000D01*
X91039180Y-120474980D01*
X91044260Y-120441960D01*
X91051880Y-120411480D01*
X91054420Y-120401320D01*
X91077280Y-120314960D01*
X91107760Y-120231140D01*
X91140780Y-120149860D01*
X91178880Y-120076200D01*
X91219520Y-120005080D01*
X91234760Y-119984760D01*
X91250000Y-119964440D01*
X91260160Y-119946660D01*
X91272860Y-119931420D01*
X91280480Y-119921260D01*
X91285560Y-119916180D01*
X91285560Y-119916180D01*
X91285560Y-119918720D01*
X91285560Y-119928880D01*
X91283020Y-119944120D01*
X91280480Y-119959360D01*
X91270320Y-120025400D01*
X91262700Y-120101600D01*
X91257620Y-120180340D01*
X91257620Y-120261620D01*
X91260160Y-120345440D01*
X91265240Y-120426720D01*
X91272860Y-120508000D01*
X91283020Y-120586740D01*
X91285560Y-120596900D01*
X91290640Y-120627380D01*
X91293180Y-120650240D01*
X91298260Y-120668020D01*
X91300800Y-120680720D01*
X91303340Y-120685800D01*
X91303340Y-120690880D01*
X91305880Y-120690880D01*
X91310960Y-120688340D01*
X91321120Y-120680720D01*
X91333820Y-120670560D01*
X91349060Y-120655320D01*
X91366840Y-120640080D01*
X91384620Y-120622300D01*
X91404940Y-120604520D01*
X91420180Y-120586740D01*
X91422720Y-120586740D01*
X91473520Y-120530860D01*
X91519240Y-120474980D01*
X91554800Y-120421640D01*
X91582740Y-120368300D01*
X91597980Y-120337820D01*
X91603060Y-120322580D01*
X91608140Y-120309880D01*
X91610680Y-120304800D01*
X91610680Y-120304800D01*
X91613220Y-120304800D01*
X91618300Y-120314960D01*
X91623380Y-120327660D01*
X91631000Y-120342900D01*
X91636080Y-120358140D01*
X91641160Y-120375920D01*
X91646240Y-120388620D01*
X91651320Y-120414020D01*
X91656400Y-120436880D01*
X91661480Y-120462280D01*
X91664020Y-120487680D01*
X91666560Y-120518160D01*
X91669100Y-120553720D01*
X91671640Y-120594360D01*
X91671640Y-120622300D01*
X91671640Y-120678180D01*
X91671640Y-120728980D01*
X91669100Y-120777240D01*
X91666560Y-120822960D01*
X91661480Y-120871220D01*
X91656400Y-120924560D01*
X91653860Y-120939800D01*
X91643700Y-121016000D01*
X91633540Y-121082040D01*
X91620840Y-121143000D01*
X91605600Y-121201420D01*
X91603060Y-121214120D01*
X91600520Y-121221740D01*
X91615760Y-121214120D01*
X91648780Y-121191260D01*
X91679260Y-121170940D01*
X91702120Y-121148080D01*
X91722440Y-121127760D01*
X91740220Y-121102360D01*
X91755460Y-121071880D01*
X91763080Y-121051560D01*
X91768160Y-121043940D01*
X91773240Y-121028700D01*
X91783400Y-121008380D01*
X91791020Y-120982980D01*
X91803720Y-120955040D01*
X91813880Y-120924560D01*
X91826580Y-120894080D01*
X91839280Y-120863600D01*
X91849440Y-120833120D01*
X91859600Y-120805180D01*
X91869760Y-120779780D01*
X91872300Y-120777240D01*
X91877380Y-120764540D01*
X91879920Y-120756920D01*
X91882460Y-120754380D01*
X91885000Y-120759460D01*
X91885000Y-120769620D01*
X91887540Y-120784860D01*
X91892620Y-120805180D01*
X91895160Y-120830580D01*
X91897700Y-120855980D01*
X91897700Y-120883920D01*
X91900240Y-120911860D01*
X91902780Y-120924560D01*
X91902780Y-121021080D01*
X91900240Y-121120140D01*
X91887540Y-121224280D01*
X91869760Y-121325880D01*
X91846900Y-121432560D01*
X91816420Y-121536700D01*
X91780860Y-121640840D01*
X91755460Y-121706880D01*
X91740220Y-121742440D01*
X91719900Y-121780540D01*
X91702120Y-121821180D01*
X91681800Y-121861820D01*
X91661480Y-121899920D01*
X91641160Y-121935480D01*
X91633540Y-121948180D01*
X91620840Y-121968500D01*
X91613220Y-121983740D01*
X91605600Y-121993900D01*
X91600520Y-122001520D01*
X91600520Y-122004060D01*
X91605600Y-122004060D01*
X91615760Y-122004060D01*
X91631000Y-122001520D01*
X91653860Y-121998980D01*
X91669100Y-121996440D01*
X91760540Y-121978660D01*
X91844360Y-121958340D01*
X91923100Y-121932940D01*
X91994220Y-121902460D01*
X92060260Y-121866900D01*
X92118680Y-121826260D01*
X92172020Y-121780540D01*
X92202500Y-121752600D01*
X92240600Y-121711960D01*
X92271080Y-121671320D01*
X92299020Y-121628140D01*
X92326960Y-121582420D01*
X92337120Y-121562100D01*
X92352360Y-121529080D01*
X92367600Y-121496060D01*
X92380300Y-121463040D01*
X92393000Y-121427480D01*
X92405700Y-121389380D01*
X92415860Y-121348740D01*
X92428560Y-121305560D01*
X92438720Y-121257300D01*
X92451420Y-121203960D01*
X92461580Y-121145540D01*
X92474280Y-121082040D01*
X92486980Y-121008380D01*
X92494600Y-120957580D01*
X92507300Y-120891540D01*
X92517460Y-120833120D01*
X92525080Y-120779780D01*
X92535240Y-120731520D01*
X92542860Y-120690880D01*
X92550480Y-120650240D01*
X92558100Y-120617220D01*
X92565720Y-120584200D01*
X92570800Y-120553720D01*
X92578420Y-120523240D01*
X92588580Y-120492760D01*
X92596200Y-120464820D01*
X92619060Y-120391160D01*
X92644460Y-120320040D01*
X92674940Y-120251460D01*
X92705420Y-120187960D01*
X92725740Y-120147320D01*
X92735900Y-120129540D01*
X92743520Y-120114300D01*
X92748600Y-120104140D01*
X92751140Y-120099060D01*
X92751140Y-120099060D01*
X92746060Y-120099060D01*
X92735900Y-120099060D01*
X92718120Y-120101600D01*
X92700340Y-120104140D01*
X92677480Y-120106680D01*
X92657160Y-120109220D01*
X92641920Y-120111760D01*
X92601280Y-120119380D01*
X92558100Y-120129540D01*
X92509840Y-120142240D01*
X92464120Y-120154940D01*
X92418400Y-120167640D01*
X92375220Y-120180340D01*
X92334580Y-120193040D01*
X92301560Y-120205740D01*
X92288860Y-120213360D01*
X92276160Y-120215900D01*
X92268540Y-120220980D01*
X92266000Y-120220980D01*
X92263460Y-120215900D01*
X92258380Y-120205740D01*
X92253300Y-120190500D01*
X92248220Y-120172720D01*
X92240600Y-120152400D01*
X92238060Y-120134620D01*
X92227900Y-120073660D01*
X92222820Y-120015240D01*
X92225360Y-119956820D01*
X92232980Y-119893320D01*
X92248220Y-119829820D01*
X92268540Y-119763780D01*
X92281240Y-119730760D01*
X92288860Y-119715520D01*
X92299020Y-119692660D01*
X92311720Y-119664720D01*
X92326960Y-119631700D01*
X92344740Y-119596140D01*
X92362520Y-119558040D01*
X92382840Y-119519940D01*
X92403160Y-119479300D01*
X92426020Y-119438660D01*
X92443800Y-119400560D01*
X92451420Y-119387860D01*
X92456500Y-119375160D01*
X92459040Y-119367540D01*
X92459040Y-119367540D01*
X92453960Y-119365000D01*
X92441260Y-119365000D01*
X92426020Y-119367540D01*
X92405700Y-119370080D01*
X92385380Y-119372620D01*
X92365060Y-119375160D01*
X92344740Y-119380240D01*
X92334580Y-119382780D01*
X92281240Y-119398020D01*
X92222820Y-119420880D01*
X92161860Y-119448820D01*
X92098360Y-119481840D01*
X92034860Y-119519940D01*
X91968820Y-119563120D01*
X91910400Y-119603760D01*
X91895160Y-119616460D01*
X91879920Y-119626620D01*
X91869760Y-119634240D01*
X91864680Y-119636780D01*
X91864680Y-119636780D01*
X91862140Y-119631700D01*
X91859600Y-119619000D01*
X91857060Y-119598680D01*
X91854520Y-119575820D01*
X91851980Y-119547880D01*
X91846900Y-119519940D01*
X91844360Y-119486920D01*
X91841820Y-119453900D01*
X91839280Y-119423420D01*
X91836740Y-119395480D01*
X91834200Y-119311660D01*
X91836740Y-119232920D01*
X91844360Y-119156720D01*
X91854520Y-119085600D01*
X91869760Y-119022100D01*
X91877380Y-118991620D01*
X91887540Y-118963680D01*
X91900240Y-118938280D01*
X91912940Y-118910340D01*
X91928180Y-118882400D01*
X91948500Y-118851920D01*
X91968820Y-118821440D01*
X91991680Y-118788420D01*
X92009460Y-118760480D01*
X92024700Y-118737620D01*
X92034860Y-118719840D01*
X92045020Y-118704600D01*
X92050100Y-118696980D01*
X92055180Y-118689360D01*
X92057720Y-118684280D01*
X92060260Y-118681740D01*
X92060260Y-118679200D01*
X92055180Y-118676660D01*
X92045020Y-118676660D01*
X92032320Y-118676660D01*
X92014540Y-118676660D01*
X91994220Y-118676660D01*
X91976440Y-118679200D01*
X91958660Y-118681740D01*
X91951040Y-118684280D01*
X91907860Y-118699520D01*
X91867220Y-118719840D01*
X91824040Y-118750320D01*
X91785940Y-118788420D01*
X91745300Y-118831600D01*
X91709740Y-118879860D01*
X91674180Y-118935740D01*
X91641160Y-118996700D01*
X91623380Y-119039880D01*
X91615760Y-119052580D01*
X91610680Y-119060200D01*
X91608140Y-119065280D01*
X91608140Y-119065280D01*
X91605600Y-119057660D01*
X91600520Y-119042420D01*
X91595440Y-119024640D01*
X91590360Y-119001780D01*
X91585280Y-118978920D01*
X91585280Y-118973840D01*
X91582740Y-118950980D01*
X91577660Y-118928120D01*
X91575120Y-118907800D01*
X91572580Y-118884940D01*
X91572580Y-118862080D01*
X91570040Y-118834140D01*
X91570040Y-118803660D01*
X91570040Y-118770640D01*
X91570040Y-118730000D01*
X91570040Y-118684280D01*
X91570040Y-118646180D01*
X91572580Y-118590300D01*
X91572580Y-118542040D01*
X91572580Y-118498860D01*
X91570040Y-118460760D01*
X91570040Y-118430280D01*
X91567500Y-118399800D01*
X91567500Y-118376940D01*
X91564960Y-118351540D01*
X91559880Y-118331220D01*
X91557340Y-118310900D01*
X91542100Y-118252480D01*
X91521780Y-118199140D01*
X91493840Y-118153420D01*
X91460820Y-118110240D01*
X91420180Y-118072140D01*
X91374460Y-118036580D01*
X91349060Y-118021340D01*
X91336360Y-118013720D01*
X91326200Y-118008640D01*
X91321120Y-118006100D01*
X91321120Y-118006100D01*
X91318580Y-118011180D01*
X91316040Y-118021340D01*
X91313500Y-118036580D01*
X91308420Y-118056900D01*
X91305880Y-118072140D01*
X91288100Y-118173740D01*
X91265240Y-118270260D01*
X91244920Y-118359160D01*
X91219520Y-118442980D01*
X91194120Y-118519180D01*
X91163640Y-118590300D01*
X91130620Y-118658880D01*
X91107760Y-118696980D01*
X91100140Y-118712220D01*
X91087440Y-118732540D01*
X91072200Y-118755400D01*
X91056960Y-118780800D01*
X91036640Y-118811280D01*
X91018860Y-118839220D01*
X91011240Y-118849380D01*
X90978220Y-118900180D01*
X90947740Y-118948440D01*
X90924880Y-118989080D01*
X90904560Y-119027180D01*
X90886780Y-119065280D01*
X90874080Y-119098300D01*
X90866460Y-119118620D01*
X90861380Y-119133860D01*
X90856300Y-119146560D01*
X90851220Y-119154180D01*
X90851220Y-119156720D01*
X90846140Y-119154180D01*
X90838520Y-119146560D01*
X90838520Y-119144020D01*
X90833440Y-119138940D01*
X90830900Y-119131320D01*
X90830900Y-119123700D01*
X90830900Y-119108460D01*
X90830900Y-119090680D01*
X90830900Y-119057660D01*
X90835980Y-119024640D01*
X90843600Y-118989080D01*
X90853760Y-118945900D01*
X90869000Y-118900180D01*
X90876620Y-118877320D01*
X90884240Y-118854460D01*
X90889320Y-118831600D01*
X90894400Y-118811280D01*
X90896940Y-118796040D01*
X90896940Y-118785880D01*
X90896940Y-118783340D01*
X90891860Y-118783340D01*
X90881700Y-118785880D01*
X90866460Y-118790960D01*
X90848680Y-118798580D01*
X90828360Y-118803660D01*
X90810580Y-118813820D01*
X90792800Y-118821440D01*
X90790260Y-118821440D01*
X90736920Y-118851920D01*
X90688660Y-118890020D01*
X90642940Y-118933200D01*
X90602300Y-118984000D01*
X90566740Y-119042420D01*
X90533720Y-119105920D01*
X90505780Y-119177040D01*
X90480380Y-119253240D01*
X90480380Y-119255780D01*
X90465140Y-119316740D01*
X90452440Y-119377700D01*
X90439740Y-119441200D01*
X90432120Y-119507240D01*
X90424500Y-119578360D01*
X90419420Y-119654560D01*
X90414340Y-119738380D01*
X90414340Y-119827280D01*
X90411800Y-119911100D01*
X90411800Y-119946660D01*
X90411800Y-119977140D01*
X90411800Y-120000000D01*
X90411800Y-120012700D01*
X90411800Y-120025400D01*
X90409260Y-120033020D01*
X90406720Y-120035560D01*
X90401640Y-120038100D01*
X90399100Y-120038100D01*
X90391480Y-120035560D01*
X90388940Y-120033020D01*
X90363540Y-120017780D01*
X90343220Y-120000000D01*
X90325440Y-119969520D01*
X90310200Y-119933960D01*
X90297500Y-119890780D01*
X90292420Y-119870460D01*
X90289880Y-119857760D01*
X90289880Y-119847600D01*
X90287340Y-119834900D01*
X90287340Y-119822200D01*
X90284800Y-119806960D01*
X90284800Y-119789180D01*
X90284800Y-119768860D01*
X90284800Y-119740920D01*
X90284800Y-119707900D01*
X90284800Y-119679960D01*
X90284800Y-119646940D01*
X90284800Y-119616460D01*
X90284800Y-119588520D01*
X90282260Y-119568200D01*
X90282260Y-119550420D01*
X90282260Y-119537720D01*
X90282260Y-119535180D01*
X90279720Y-119535180D01*
X90272100Y-119542800D01*
X90264480Y-119545340D01*
X90226380Y-119578360D01*
X90190820Y-119616460D01*
X90160340Y-119659640D01*
X90134940Y-119712980D01*
X90112080Y-119771400D01*
X90094300Y-119834900D01*
X90089220Y-119860300D01*
X90081600Y-119900940D01*
X90076520Y-119941580D01*
X90073980Y-119982220D01*
X90071440Y-120025400D01*
X90068900Y-120073660D01*
X90068900Y-120129540D01*
X90068900Y-120144780D01*
X90071440Y-120203200D01*
X90073980Y-120254000D01*
X90076520Y-120302260D01*
X90081600Y-120347980D01*
X90086680Y-120393700D01*
X90091760Y-120419100D01*
X90094300Y-120439420D01*
X90096840Y-120454660D01*
X90096840Y-120464820D01*
X90096840Y-120469900D01*
X90091760Y-120469900D01*
X90081600Y-120467360D01*
X90066360Y-120462280D01*
X90048580Y-120457200D01*
X90028260Y-120452120D01*
X90005400Y-120447040D01*
X89985080Y-120439420D01*
X89967300Y-120434340D01*
X89967300Y-120431800D01*
X89911420Y-120408940D01*
X89860620Y-120386080D01*
X89819980Y-120360680D01*
X89784420Y-120332740D01*
X89776800Y-120327660D01*
X89766640Y-120317500D01*
X89756480Y-120307340D01*
X89751400Y-120304800D01*
X89748860Y-120304800D01*
X89748860Y-120304800D01*
G36*
X81248860Y-120304800D02*
X81248860Y-120309880D01*
X81251400Y-120320040D01*
X81253940Y-120335280D01*
X81256480Y-120353060D01*
X81259020Y-120363220D01*
X81269180Y-120406400D01*
X81279340Y-120447040D01*
X81289500Y-120487680D01*
X81302200Y-120525780D01*
X81317440Y-120563880D01*
X81332680Y-120607060D01*
X81350460Y-120650240D01*
X81373320Y-120698500D01*
X81393640Y-120749300D01*
X81413960Y-120795020D01*
X81434280Y-120833120D01*
X81449520Y-120868680D01*
X81462220Y-120901700D01*
X81474920Y-120932180D01*
X81487620Y-120960120D01*
X81497780Y-120985520D01*
X81505400Y-121008380D01*
X81513020Y-121026160D01*
X81518100Y-121043940D01*
X81523180Y-121061720D01*
X81530800Y-121076960D01*
X81535880Y-121097280D01*
X81543500Y-121120140D01*
X81551120Y-121145540D01*
X81558740Y-121178560D01*
X81568900Y-121211580D01*
X81579060Y-121252220D01*
X81589220Y-121287780D01*
X81599380Y-121320800D01*
X81607000Y-121346200D01*
X81617160Y-121371600D01*
X81627320Y-121397000D01*
X81637480Y-121422400D01*
X81650180Y-121450340D01*
X81655260Y-121463040D01*
X81678120Y-121511300D01*
X81700980Y-121557020D01*
X81726380Y-121600200D01*
X81751780Y-121640840D01*
X81774640Y-121676400D01*
X81794960Y-121701800D01*
X81815280Y-121724660D01*
X81838140Y-121750060D01*
X81861000Y-121772920D01*
X81883860Y-121795780D01*
X81904180Y-121813560D01*
X81904180Y-121813560D01*
X81954980Y-121849120D01*
X82010860Y-121882140D01*
X82071820Y-121910080D01*
X82137860Y-121932940D01*
X82208980Y-121953260D01*
X82287720Y-121971040D01*
X82341060Y-121978660D01*
X82376620Y-121983740D01*
X82417260Y-121988820D01*
X82460440Y-121991360D01*
X82506160Y-121996440D01*
X82551880Y-121998980D01*
X82597600Y-122001520D01*
X82638240Y-122004060D01*
X82676340Y-122004060D01*
X82709360Y-122004060D01*
X82727140Y-122004060D01*
X82762700Y-122004060D01*
X82724600Y-121978660D01*
X82645860Y-121925320D01*
X82567120Y-121864360D01*
X82493460Y-121798320D01*
X82422340Y-121724660D01*
X82356300Y-121645920D01*
X82338520Y-121623060D01*
X82277560Y-121534160D01*
X82221680Y-121440180D01*
X82170880Y-121341120D01*
X82127700Y-121239520D01*
X82089600Y-121132840D01*
X82061660Y-121026160D01*
X82041340Y-120937260D01*
X82036260Y-120911860D01*
X82033720Y-120889000D01*
X82031180Y-120866140D01*
X82026100Y-120845820D01*
X82026100Y-120828040D01*
X82023560Y-120815340D01*
X82023560Y-120807720D01*
X82023560Y-120807720D01*
X82028640Y-120807720D01*
X82038800Y-120815340D01*
X82051500Y-120825500D01*
X82069280Y-120840740D01*
X82092140Y-120861060D01*
X82102300Y-120871220D01*
X82137860Y-120901700D01*
X82170880Y-120927100D01*
X82201360Y-120947420D01*
X82234380Y-120962660D01*
X82269940Y-120975360D01*
X82302960Y-120985520D01*
X82320740Y-120990600D01*
X82341060Y-120993140D01*
X82361380Y-120995680D01*
X82379160Y-120998220D01*
X82394400Y-121000760D01*
X82402020Y-121000760D01*
X82407100Y-120998220D01*
X82404560Y-120993140D01*
X82402020Y-120982980D01*
X82396940Y-120970280D01*
X82391860Y-120960120D01*
X82371540Y-120906780D01*
X82351220Y-120845820D01*
X82333440Y-120782320D01*
X82315660Y-120713740D01*
X82300420Y-120642620D01*
X82285180Y-120574040D01*
X82275020Y-120502920D01*
X82264860Y-120436880D01*
X82259780Y-120375920D01*
X82257240Y-120335280D01*
X82257240Y-120312420D01*
X82257240Y-120292100D01*
X82257240Y-120276860D01*
X82257240Y-120266700D01*
X82257240Y-120264160D01*
X82259780Y-120266700D01*
X82264860Y-120279400D01*
X82269940Y-120294640D01*
X82277560Y-120314960D01*
X82285180Y-120337820D01*
X82292800Y-120355600D01*
X82308040Y-120393700D01*
X82320740Y-120426720D01*
X82330900Y-120454660D01*
X82341060Y-120477520D01*
X82348680Y-120495300D01*
X82356300Y-120513080D01*
X82366460Y-120525780D01*
X82369000Y-120530860D01*
X82384240Y-120553720D01*
X82402020Y-120574040D01*
X82422340Y-120589280D01*
X82437580Y-120599440D01*
X82452820Y-120607060D01*
X82470600Y-120612140D01*
X82488380Y-120617220D01*
X82503620Y-120619760D01*
X82506160Y-120619760D01*
X82511240Y-120619760D01*
X82516320Y-120617220D01*
X82516320Y-120609600D01*
X82518860Y-120599440D01*
X82518860Y-120594360D01*
X82521400Y-120568960D01*
X82526480Y-120541020D01*
X82531560Y-120508000D01*
X82539180Y-120474980D01*
X82544260Y-120441960D01*
X82551880Y-120411480D01*
X82554420Y-120401320D01*
X82577280Y-120314960D01*
X82607760Y-120231140D01*
X82640780Y-120149860D01*
X82678880Y-120076200D01*
X82719520Y-120005080D01*
X82734760Y-119984760D01*
X82750000Y-119964440D01*
X82760160Y-119946660D01*
X82772860Y-119931420D01*
X82780480Y-119921260D01*
X82785560Y-119916180D01*
X82785560Y-119916180D01*
X82785560Y-119918720D01*
X82785560Y-119928880D01*
X82783020Y-119944120D01*
X82780480Y-119959360D01*
X82770320Y-120025400D01*
X82762700Y-120101600D01*
X82757620Y-120180340D01*
X82757620Y-120261620D01*
X82760160Y-120345440D01*
X82765240Y-120426720D01*
X82772860Y-120508000D01*
X82783020Y-120586740D01*
X82785560Y-120596900D01*
X82790640Y-120627380D01*
X82793180Y-120650240D01*
X82798260Y-120668020D01*
X82800800Y-120680720D01*
X82803340Y-120685800D01*
X82803340Y-120690880D01*
X82805880Y-120690880D01*
X82810960Y-120688340D01*
X82821120Y-120680720D01*
X82833820Y-120670560D01*
X82849060Y-120655320D01*
X82866840Y-120640080D01*
X82884620Y-120622300D01*
X82904940Y-120604520D01*
X82920180Y-120586740D01*
X82922720Y-120586740D01*
X82973520Y-120530860D01*
X83019240Y-120474980D01*
X83054800Y-120421640D01*
X83082740Y-120368300D01*
X83097980Y-120337820D01*
X83103060Y-120322580D01*
X83108140Y-120309880D01*
X83110680Y-120304800D01*
X83110680Y-120304800D01*
X83113220Y-120304800D01*
X83118300Y-120314960D01*
X83123380Y-120327660D01*
X83131000Y-120342900D01*
X83136080Y-120358140D01*
X83141160Y-120375920D01*
X83146240Y-120388620D01*
X83151320Y-120414020D01*
X83156400Y-120436880D01*
X83161480Y-120462280D01*
X83164020Y-120487680D01*
X83166560Y-120518160D01*
X83169100Y-120553720D01*
X83171640Y-120594360D01*
X83171640Y-120622300D01*
X83171640Y-120678180D01*
X83171640Y-120728980D01*
X83169100Y-120777240D01*
X83166560Y-120822960D01*
X83161480Y-120871220D01*
X83156400Y-120924560D01*
X83153860Y-120939800D01*
X83143700Y-121016000D01*
X83133540Y-121082040D01*
X83120840Y-121143000D01*
X83105600Y-121201420D01*
X83103060Y-121214120D01*
X83100520Y-121221740D01*
X83115760Y-121214120D01*
X83148780Y-121191260D01*
X83179260Y-121170940D01*
X83202120Y-121148080D01*
X83222440Y-121127760D01*
X83240220Y-121102360D01*
X83255460Y-121071880D01*
X83263080Y-121051560D01*
X83268160Y-121043940D01*
X83273240Y-121028700D01*
X83283400Y-121008380D01*
X83291020Y-120982980D01*
X83303720Y-120955040D01*
X83313880Y-120924560D01*
X83326580Y-120894080D01*
X83339280Y-120863600D01*
X83349440Y-120833120D01*
X83359600Y-120805180D01*
X83369760Y-120779780D01*
X83372300Y-120777240D01*
X83377380Y-120764540D01*
X83379920Y-120756920D01*
X83382460Y-120754380D01*
X83385000Y-120759460D01*
X83385000Y-120769620D01*
X83387540Y-120784860D01*
X83392620Y-120805180D01*
X83395160Y-120830580D01*
X83397700Y-120855980D01*
X83397700Y-120883920D01*
X83400240Y-120911860D01*
X83402780Y-120924560D01*
X83402780Y-121021080D01*
X83400240Y-121120140D01*
X83387540Y-121224280D01*
X83369760Y-121325880D01*
X83346900Y-121432560D01*
X83316420Y-121536700D01*
X83280860Y-121640840D01*
X83255460Y-121706880D01*
X83240220Y-121742440D01*
X83219900Y-121780540D01*
X83202120Y-121821180D01*
X83181800Y-121861820D01*
X83161480Y-121899920D01*
X83141160Y-121935480D01*
X83133540Y-121948180D01*
X83120840Y-121968500D01*
X83113220Y-121983740D01*
X83105600Y-121993900D01*
X83100520Y-122001520D01*
X83100520Y-122004060D01*
X83105600Y-122004060D01*
X83115760Y-122004060D01*
X83131000Y-122001520D01*
X83153860Y-121998980D01*
X83169100Y-121996440D01*
X83260540Y-121978660D01*
X83344360Y-121958340D01*
X83423100Y-121932940D01*
X83494220Y-121902460D01*
X83560260Y-121866900D01*
X83618680Y-121826260D01*
X83672020Y-121780540D01*
X83702500Y-121752600D01*
X83740600Y-121711960D01*
X83771080Y-121671320D01*
X83799020Y-121628140D01*
X83826960Y-121582420D01*
X83837120Y-121562100D01*
X83852360Y-121529080D01*
X83867600Y-121496060D01*
X83880300Y-121463040D01*
X83893000Y-121427480D01*
X83905700Y-121389380D01*
X83915860Y-121348740D01*
X83928560Y-121305560D01*
X83938720Y-121257300D01*
X83951420Y-121203960D01*
X83961580Y-121145540D01*
X83974280Y-121082040D01*
X83986980Y-121008380D01*
X83994600Y-120957580D01*
X84007300Y-120891540D01*
X84017460Y-120833120D01*
X84025080Y-120779780D01*
X84035240Y-120731520D01*
X84042860Y-120690880D01*
X84050480Y-120650240D01*
X84058100Y-120617220D01*
X84065720Y-120584200D01*
X84070800Y-120553720D01*
X84078420Y-120523240D01*
X84088580Y-120492760D01*
X84096200Y-120464820D01*
X84119060Y-120391160D01*
X84144460Y-120320040D01*
X84174940Y-120251460D01*
X84205420Y-120187960D01*
X84225740Y-120147320D01*
X84235900Y-120129540D01*
X84243520Y-120114300D01*
X84248600Y-120104140D01*
X84251140Y-120099060D01*
X84251140Y-120099060D01*
X84246060Y-120099060D01*
X84235900Y-120099060D01*
X84218120Y-120101600D01*
X84200340Y-120104140D01*
X84177480Y-120106680D01*
X84157160Y-120109220D01*
X84141920Y-120111760D01*
X84101280Y-120119380D01*
X84058100Y-120129540D01*
X84009840Y-120142240D01*
X83964120Y-120154940D01*
X83918400Y-120167640D01*
X83875220Y-120180340D01*
X83834580Y-120193040D01*
X83801560Y-120205740D01*
X83788860Y-120213360D01*
X83776160Y-120215900D01*
X83768540Y-120220980D01*
X83766000Y-120220980D01*
X83763460Y-120215900D01*
X83758380Y-120205740D01*
X83753300Y-120190500D01*
X83748220Y-120172720D01*
X83740600Y-120152400D01*
X83738060Y-120134620D01*
X83727900Y-120073660D01*
X83722820Y-120015240D01*
X83725360Y-119956820D01*
X83732980Y-119893320D01*
X83748220Y-119829820D01*
X83768540Y-119763780D01*
X83781240Y-119730760D01*
X83788860Y-119715520D01*
X83799020Y-119692660D01*
X83811720Y-119664720D01*
X83826960Y-119631700D01*
X83844740Y-119596140D01*
X83862520Y-119558040D01*
X83882840Y-119519940D01*
X83903160Y-119479300D01*
X83926020Y-119438660D01*
X83943800Y-119400560D01*
X83951420Y-119387860D01*
X83956500Y-119375160D01*
X83959040Y-119367540D01*
X83959040Y-119367540D01*
X83953960Y-119365000D01*
X83941260Y-119365000D01*
X83926020Y-119367540D01*
X83905700Y-119370080D01*
X83885380Y-119372620D01*
X83865060Y-119375160D01*
X83844740Y-119380240D01*
X83834580Y-119382780D01*
X83781240Y-119398020D01*
X83722820Y-119420880D01*
X83661860Y-119448820D01*
X83598360Y-119481840D01*
X83534860Y-119519940D01*
X83468820Y-119563120D01*
X83410400Y-119603760D01*
X83395160Y-119616460D01*
X83379920Y-119626620D01*
X83369760Y-119634240D01*
X83364680Y-119636780D01*
X83364680Y-119636780D01*
X83362140Y-119631700D01*
X83359600Y-119619000D01*
X83357060Y-119598680D01*
X83354520Y-119575820D01*
X83351980Y-119547880D01*
X83346900Y-119519940D01*
X83344360Y-119486920D01*
X83341820Y-119453900D01*
X83339280Y-119423420D01*
X83336740Y-119395480D01*
X83334200Y-119311660D01*
X83336740Y-119232920D01*
X83344360Y-119156720D01*
X83354520Y-119085600D01*
X83369760Y-119022100D01*
X83377380Y-118991620D01*
X83387540Y-118963680D01*
X83400240Y-118938280D01*
X83412940Y-118910340D01*
X83428180Y-118882400D01*
X83448500Y-118851920D01*
X83468820Y-118821440D01*
X83491680Y-118788420D01*
X83509460Y-118760480D01*
X83524700Y-118737620D01*
X83534860Y-118719840D01*
X83545020Y-118704600D01*
X83550100Y-118696980D01*
X83555180Y-118689360D01*
X83557720Y-118684280D01*
X83560260Y-118681740D01*
X83560260Y-118679200D01*
X83555180Y-118676660D01*
X83545020Y-118676660D01*
X83532320Y-118676660D01*
X83514540Y-118676660D01*
X83494220Y-118676660D01*
X83476440Y-118679200D01*
X83458660Y-118681740D01*
X83451040Y-118684280D01*
X83407860Y-118699520D01*
X83367220Y-118719840D01*
X83324040Y-118750320D01*
X83285940Y-118788420D01*
X83245300Y-118831600D01*
X83209740Y-118879860D01*
X83174180Y-118935740D01*
X83141160Y-118996700D01*
X83123380Y-119039880D01*
X83115760Y-119052580D01*
X83110680Y-119060200D01*
X83108140Y-119065280D01*
X83108140Y-119065280D01*
X83105600Y-119057660D01*
X83100520Y-119042420D01*
X83095440Y-119024640D01*
X83090360Y-119001780D01*
X83085280Y-118978920D01*
X83085280Y-118973840D01*
X83082740Y-118950980D01*
X83077660Y-118928120D01*
X83075120Y-118907800D01*
X83072580Y-118884940D01*
X83072580Y-118862080D01*
X83070040Y-118834140D01*
X83070040Y-118803660D01*
X83070040Y-118770640D01*
X83070040Y-118730000D01*
X83070040Y-118684280D01*
X83070040Y-118646180D01*
X83072580Y-118590300D01*
X83072580Y-118542040D01*
X83072580Y-118498860D01*
X83070040Y-118460760D01*
X83070040Y-118430280D01*
X83067500Y-118399800D01*
X83067500Y-118376940D01*
X83064960Y-118351540D01*
X83059880Y-118331220D01*
X83057340Y-118310900D01*
X83042100Y-118252480D01*
X83021780Y-118199140D01*
X82993840Y-118153420D01*
X82960820Y-118110240D01*
X82920180Y-118072140D01*
X82874460Y-118036580D01*
X82849060Y-118021340D01*
X82836360Y-118013720D01*
X82826200Y-118008640D01*
X82821120Y-118006100D01*
X82821120Y-118006100D01*
X82818580Y-118011180D01*
X82816040Y-118021340D01*
X82813500Y-118036580D01*
X82808420Y-118056900D01*
X82805880Y-118072140D01*
X82788100Y-118173740D01*
X82765240Y-118270260D01*
X82744920Y-118359160D01*
X82719520Y-118442980D01*
X82694120Y-118519180D01*
X82663640Y-118590300D01*
X82630620Y-118658880D01*
X82607760Y-118696980D01*
X82600140Y-118712220D01*
X82587440Y-118732540D01*
X82572200Y-118755400D01*
X82556960Y-118780800D01*
X82536640Y-118811280D01*
X82518860Y-118839220D01*
X82511240Y-118849380D01*
X82478220Y-118900180D01*
X82447740Y-118948440D01*
X82424880Y-118989080D01*
X82404560Y-119027180D01*
X82386780Y-119065280D01*
X82374080Y-119098300D01*
X82366460Y-119118620D01*
X82361380Y-119133860D01*
X82356300Y-119146560D01*
X82351220Y-119154180D01*
X82351220Y-119156720D01*
X82346140Y-119154180D01*
X82338520Y-119146560D01*
X82338520Y-119144020D01*
X82333440Y-119138940D01*
X82330900Y-119131320D01*
X82330900Y-119123700D01*
X82330900Y-119108460D01*
X82330900Y-119090680D01*
X82330900Y-119057660D01*
X82335980Y-119024640D01*
X82343600Y-118989080D01*
X82353760Y-118945900D01*
X82369000Y-118900180D01*
X82376620Y-118877320D01*
X82384240Y-118854460D01*
X82389320Y-118831600D01*
X82394400Y-118811280D01*
X82396940Y-118796040D01*
X82396940Y-118785880D01*
X82396940Y-118783340D01*
X82391860Y-118783340D01*
X82381700Y-118785880D01*
X82366460Y-118790960D01*
X82348680Y-118798580D01*
X82328360Y-118803660D01*
X82310580Y-118813820D01*
X82292800Y-118821440D01*
X82290260Y-118821440D01*
X82236920Y-118851920D01*
X82188660Y-118890020D01*
X82142940Y-118933200D01*
X82102300Y-118984000D01*
X82066740Y-119042420D01*
X82033720Y-119105920D01*
X82005780Y-119177040D01*
X81980380Y-119253240D01*
X81980380Y-119255780D01*
X81965140Y-119316740D01*
X81952440Y-119377700D01*
X81939740Y-119441200D01*
X81932120Y-119507240D01*
X81924500Y-119578360D01*
X81919420Y-119654560D01*
X81914340Y-119738380D01*
X81914340Y-119827280D01*
X81911800Y-119911100D01*
X81911800Y-119946660D01*
X81911800Y-119977140D01*
X81911800Y-120000000D01*
X81911800Y-120012700D01*
X81911800Y-120025400D01*
X81909260Y-120033020D01*
X81906720Y-120035560D01*
X81901640Y-120038100D01*
X81899100Y-120038100D01*
X81891480Y-120035560D01*
X81888940Y-120033020D01*
X81863540Y-120017780D01*
X81843220Y-120000000D01*
X81825440Y-119969520D01*
X81810200Y-119933960D01*
X81797500Y-119890780D01*
X81792420Y-119870460D01*
X81789880Y-119857760D01*
X81789880Y-119847600D01*
X81787340Y-119834900D01*
X81787340Y-119822200D01*
X81784800Y-119806960D01*
X81784800Y-119789180D01*
X81784800Y-119768860D01*
X81784800Y-119740920D01*
X81784800Y-119707900D01*
X81784800Y-119679960D01*
X81784800Y-119646940D01*
X81784800Y-119616460D01*
X81784800Y-119588520D01*
X81782260Y-119568200D01*
X81782260Y-119550420D01*
X81782260Y-119537720D01*
X81782260Y-119535180D01*
X81779720Y-119535180D01*
X81772100Y-119542800D01*
X81764480Y-119545340D01*
X81726380Y-119578360D01*
X81690820Y-119616460D01*
X81660340Y-119659640D01*
X81634940Y-119712980D01*
X81612080Y-119771400D01*
X81594300Y-119834900D01*
X81589220Y-119860300D01*
X81581600Y-119900940D01*
X81576520Y-119941580D01*
X81573980Y-119982220D01*
X81571440Y-120025400D01*
X81568900Y-120073660D01*
X81568900Y-120129540D01*
X81568900Y-120144780D01*
X81571440Y-120203200D01*
X81573980Y-120254000D01*
X81576520Y-120302260D01*
X81581600Y-120347980D01*
X81586680Y-120393700D01*
X81591760Y-120419100D01*
X81594300Y-120439420D01*
X81596840Y-120454660D01*
X81596840Y-120464820D01*
X81596840Y-120469900D01*
X81591760Y-120469900D01*
X81581600Y-120467360D01*
X81566360Y-120462280D01*
X81548580Y-120457200D01*
X81528260Y-120452120D01*
X81505400Y-120447040D01*
X81485080Y-120439420D01*
X81467300Y-120434340D01*
X81467300Y-120431800D01*
X81411420Y-120408940D01*
X81360620Y-120386080D01*
X81319980Y-120360680D01*
X81284420Y-120332740D01*
X81276800Y-120327660D01*
X81266640Y-120317500D01*
X81256480Y-120307340D01*
X81251400Y-120304800D01*
X81248860Y-120304800D01*
X81248860Y-120304800D01*
X81248860Y-120304800D01*
G37*
X81248860Y-120304800D02*
X81248860Y-120309880D01*
X81251400Y-120320040D01*
X81253940Y-120335280D01*
X81256480Y-120353060D01*
X81259020Y-120363220D01*
X81269180Y-120406400D01*
X81279340Y-120447040D01*
X81289500Y-120487680D01*
X81302200Y-120525780D01*
X81317440Y-120563880D01*
X81332680Y-120607060D01*
X81350460Y-120650240D01*
X81373320Y-120698500D01*
X81393640Y-120749300D01*
X81413960Y-120795020D01*
X81434280Y-120833120D01*
X81449520Y-120868680D01*
X81462220Y-120901700D01*
X81474920Y-120932180D01*
X81487620Y-120960120D01*
X81497780Y-120985520D01*
X81505400Y-121008380D01*
X81513020Y-121026160D01*
X81518100Y-121043940D01*
X81523180Y-121061720D01*
X81530800Y-121076960D01*
X81535880Y-121097280D01*
X81543500Y-121120140D01*
X81551120Y-121145540D01*
X81558740Y-121178560D01*
X81568900Y-121211580D01*
X81579060Y-121252220D01*
X81589220Y-121287780D01*
X81599380Y-121320800D01*
X81607000Y-121346200D01*
X81617160Y-121371600D01*
X81627320Y-121397000D01*
X81637480Y-121422400D01*
X81650180Y-121450340D01*
X81655260Y-121463040D01*
X81678120Y-121511300D01*
X81700980Y-121557020D01*
X81726380Y-121600200D01*
X81751780Y-121640840D01*
X81774640Y-121676400D01*
X81794960Y-121701800D01*
X81815280Y-121724660D01*
X81838140Y-121750060D01*
X81861000Y-121772920D01*
X81883860Y-121795780D01*
X81904180Y-121813560D01*
X81904180Y-121813560D01*
X81954980Y-121849120D01*
X82010860Y-121882140D01*
X82071820Y-121910080D01*
X82137860Y-121932940D01*
X82208980Y-121953260D01*
X82287720Y-121971040D01*
X82341060Y-121978660D01*
X82376620Y-121983740D01*
X82417260Y-121988820D01*
X82460440Y-121991360D01*
X82506160Y-121996440D01*
X82551880Y-121998980D01*
X82597600Y-122001520D01*
X82638240Y-122004060D01*
X82676340Y-122004060D01*
X82709360Y-122004060D01*
X82727140Y-122004060D01*
X82762700Y-122004060D01*
X82724600Y-121978660D01*
X82645860Y-121925320D01*
X82567120Y-121864360D01*
X82493460Y-121798320D01*
X82422340Y-121724660D01*
X82356300Y-121645920D01*
X82338520Y-121623060D01*
X82277560Y-121534160D01*
X82221680Y-121440180D01*
X82170880Y-121341120D01*
X82127700Y-121239520D01*
X82089600Y-121132840D01*
X82061660Y-121026160D01*
X82041340Y-120937260D01*
X82036260Y-120911860D01*
X82033720Y-120889000D01*
X82031180Y-120866140D01*
X82026100Y-120845820D01*
X82026100Y-120828040D01*
X82023560Y-120815340D01*
X82023560Y-120807720D01*
X82023560Y-120807720D01*
X82028640Y-120807720D01*
X82038800Y-120815340D01*
X82051500Y-120825500D01*
X82069280Y-120840740D01*
X82092140Y-120861060D01*
X82102300Y-120871220D01*
X82137860Y-120901700D01*
X82170880Y-120927100D01*
X82201360Y-120947420D01*
X82234380Y-120962660D01*
X82269940Y-120975360D01*
X82302960Y-120985520D01*
X82320740Y-120990600D01*
X82341060Y-120993140D01*
X82361380Y-120995680D01*
X82379160Y-120998220D01*
X82394400Y-121000760D01*
X82402020Y-121000760D01*
X82407100Y-120998220D01*
X82404560Y-120993140D01*
X82402020Y-120982980D01*
X82396940Y-120970280D01*
X82391860Y-120960120D01*
X82371540Y-120906780D01*
X82351220Y-120845820D01*
X82333440Y-120782320D01*
X82315660Y-120713740D01*
X82300420Y-120642620D01*
X82285180Y-120574040D01*
X82275020Y-120502920D01*
X82264860Y-120436880D01*
X82259780Y-120375920D01*
X82257240Y-120335280D01*
X82257240Y-120312420D01*
X82257240Y-120292100D01*
X82257240Y-120276860D01*
X82257240Y-120266700D01*
X82257240Y-120264160D01*
X82259780Y-120266700D01*
X82264860Y-120279400D01*
X82269940Y-120294640D01*
X82277560Y-120314960D01*
X82285180Y-120337820D01*
X82292800Y-120355600D01*
X82308040Y-120393700D01*
X82320740Y-120426720D01*
X82330900Y-120454660D01*
X82341060Y-120477520D01*
X82348680Y-120495300D01*
X82356300Y-120513080D01*
X82366460Y-120525780D01*
X82369000Y-120530860D01*
X82384240Y-120553720D01*
X82402020Y-120574040D01*
X82422340Y-120589280D01*
X82437580Y-120599440D01*
X82452820Y-120607060D01*
X82470600Y-120612140D01*
X82488380Y-120617220D01*
X82503620Y-120619760D01*
X82506160Y-120619760D01*
X82511240Y-120619760D01*
X82516320Y-120617220D01*
X82516320Y-120609600D01*
X82518860Y-120599440D01*
X82518860Y-120594360D01*
X82521400Y-120568960D01*
X82526480Y-120541020D01*
X82531560Y-120508000D01*
X82539180Y-120474980D01*
X82544260Y-120441960D01*
X82551880Y-120411480D01*
X82554420Y-120401320D01*
X82577280Y-120314960D01*
X82607760Y-120231140D01*
X82640780Y-120149860D01*
X82678880Y-120076200D01*
X82719520Y-120005080D01*
X82734760Y-119984760D01*
X82750000Y-119964440D01*
X82760160Y-119946660D01*
X82772860Y-119931420D01*
X82780480Y-119921260D01*
X82785560Y-119916180D01*
X82785560Y-119916180D01*
X82785560Y-119918720D01*
X82785560Y-119928880D01*
X82783020Y-119944120D01*
X82780480Y-119959360D01*
X82770320Y-120025400D01*
X82762700Y-120101600D01*
X82757620Y-120180340D01*
X82757620Y-120261620D01*
X82760160Y-120345440D01*
X82765240Y-120426720D01*
X82772860Y-120508000D01*
X82783020Y-120586740D01*
X82785560Y-120596900D01*
X82790640Y-120627380D01*
X82793180Y-120650240D01*
X82798260Y-120668020D01*
X82800800Y-120680720D01*
X82803340Y-120685800D01*
X82803340Y-120690880D01*
X82805880Y-120690880D01*
X82810960Y-120688340D01*
X82821120Y-120680720D01*
X82833820Y-120670560D01*
X82849060Y-120655320D01*
X82866840Y-120640080D01*
X82884620Y-120622300D01*
X82904940Y-120604520D01*
X82920180Y-120586740D01*
X82922720Y-120586740D01*
X82973520Y-120530860D01*
X83019240Y-120474980D01*
X83054800Y-120421640D01*
X83082740Y-120368300D01*
X83097980Y-120337820D01*
X83103060Y-120322580D01*
X83108140Y-120309880D01*
X83110680Y-120304800D01*
X83110680Y-120304800D01*
X83113220Y-120304800D01*
X83118300Y-120314960D01*
X83123380Y-120327660D01*
X83131000Y-120342900D01*
X83136080Y-120358140D01*
X83141160Y-120375920D01*
X83146240Y-120388620D01*
X83151320Y-120414020D01*
X83156400Y-120436880D01*
X83161480Y-120462280D01*
X83164020Y-120487680D01*
X83166560Y-120518160D01*
X83169100Y-120553720D01*
X83171640Y-120594360D01*
X83171640Y-120622300D01*
X83171640Y-120678180D01*
X83171640Y-120728980D01*
X83169100Y-120777240D01*
X83166560Y-120822960D01*
X83161480Y-120871220D01*
X83156400Y-120924560D01*
X83153860Y-120939800D01*
X83143700Y-121016000D01*
X83133540Y-121082040D01*
X83120840Y-121143000D01*
X83105600Y-121201420D01*
X83103060Y-121214120D01*
X83100520Y-121221740D01*
X83115760Y-121214120D01*
X83148780Y-121191260D01*
X83179260Y-121170940D01*
X83202120Y-121148080D01*
X83222440Y-121127760D01*
X83240220Y-121102360D01*
X83255460Y-121071880D01*
X83263080Y-121051560D01*
X83268160Y-121043940D01*
X83273240Y-121028700D01*
X83283400Y-121008380D01*
X83291020Y-120982980D01*
X83303720Y-120955040D01*
X83313880Y-120924560D01*
X83326580Y-120894080D01*
X83339280Y-120863600D01*
X83349440Y-120833120D01*
X83359600Y-120805180D01*
X83369760Y-120779780D01*
X83372300Y-120777240D01*
X83377380Y-120764540D01*
X83379920Y-120756920D01*
X83382460Y-120754380D01*
X83385000Y-120759460D01*
X83385000Y-120769620D01*
X83387540Y-120784860D01*
X83392620Y-120805180D01*
X83395160Y-120830580D01*
X83397700Y-120855980D01*
X83397700Y-120883920D01*
X83400240Y-120911860D01*
X83402780Y-120924560D01*
X83402780Y-121021080D01*
X83400240Y-121120140D01*
X83387540Y-121224280D01*
X83369760Y-121325880D01*
X83346900Y-121432560D01*
X83316420Y-121536700D01*
X83280860Y-121640840D01*
X83255460Y-121706880D01*
X83240220Y-121742440D01*
X83219900Y-121780540D01*
X83202120Y-121821180D01*
X83181800Y-121861820D01*
X83161480Y-121899920D01*
X83141160Y-121935480D01*
X83133540Y-121948180D01*
X83120840Y-121968500D01*
X83113220Y-121983740D01*
X83105600Y-121993900D01*
X83100520Y-122001520D01*
X83100520Y-122004060D01*
X83105600Y-122004060D01*
X83115760Y-122004060D01*
X83131000Y-122001520D01*
X83153860Y-121998980D01*
X83169100Y-121996440D01*
X83260540Y-121978660D01*
X83344360Y-121958340D01*
X83423100Y-121932940D01*
X83494220Y-121902460D01*
X83560260Y-121866900D01*
X83618680Y-121826260D01*
X83672020Y-121780540D01*
X83702500Y-121752600D01*
X83740600Y-121711960D01*
X83771080Y-121671320D01*
X83799020Y-121628140D01*
X83826960Y-121582420D01*
X83837120Y-121562100D01*
X83852360Y-121529080D01*
X83867600Y-121496060D01*
X83880300Y-121463040D01*
X83893000Y-121427480D01*
X83905700Y-121389380D01*
X83915860Y-121348740D01*
X83928560Y-121305560D01*
X83938720Y-121257300D01*
X83951420Y-121203960D01*
X83961580Y-121145540D01*
X83974280Y-121082040D01*
X83986980Y-121008380D01*
X83994600Y-120957580D01*
X84007300Y-120891540D01*
X84017460Y-120833120D01*
X84025080Y-120779780D01*
X84035240Y-120731520D01*
X84042860Y-120690880D01*
X84050480Y-120650240D01*
X84058100Y-120617220D01*
X84065720Y-120584200D01*
X84070800Y-120553720D01*
X84078420Y-120523240D01*
X84088580Y-120492760D01*
X84096200Y-120464820D01*
X84119060Y-120391160D01*
X84144460Y-120320040D01*
X84174940Y-120251460D01*
X84205420Y-120187960D01*
X84225740Y-120147320D01*
X84235900Y-120129540D01*
X84243520Y-120114300D01*
X84248600Y-120104140D01*
X84251140Y-120099060D01*
X84251140Y-120099060D01*
X84246060Y-120099060D01*
X84235900Y-120099060D01*
X84218120Y-120101600D01*
X84200340Y-120104140D01*
X84177480Y-120106680D01*
X84157160Y-120109220D01*
X84141920Y-120111760D01*
X84101280Y-120119380D01*
X84058100Y-120129540D01*
X84009840Y-120142240D01*
X83964120Y-120154940D01*
X83918400Y-120167640D01*
X83875220Y-120180340D01*
X83834580Y-120193040D01*
X83801560Y-120205740D01*
X83788860Y-120213360D01*
X83776160Y-120215900D01*
X83768540Y-120220980D01*
X83766000Y-120220980D01*
X83763460Y-120215900D01*
X83758380Y-120205740D01*
X83753300Y-120190500D01*
X83748220Y-120172720D01*
X83740600Y-120152400D01*
X83738060Y-120134620D01*
X83727900Y-120073660D01*
X83722820Y-120015240D01*
X83725360Y-119956820D01*
X83732980Y-119893320D01*
X83748220Y-119829820D01*
X83768540Y-119763780D01*
X83781240Y-119730760D01*
X83788860Y-119715520D01*
X83799020Y-119692660D01*
X83811720Y-119664720D01*
X83826960Y-119631700D01*
X83844740Y-119596140D01*
X83862520Y-119558040D01*
X83882840Y-119519940D01*
X83903160Y-119479300D01*
X83926020Y-119438660D01*
X83943800Y-119400560D01*
X83951420Y-119387860D01*
X83956500Y-119375160D01*
X83959040Y-119367540D01*
X83959040Y-119367540D01*
X83953960Y-119365000D01*
X83941260Y-119365000D01*
X83926020Y-119367540D01*
X83905700Y-119370080D01*
X83885380Y-119372620D01*
X83865060Y-119375160D01*
X83844740Y-119380240D01*
X83834580Y-119382780D01*
X83781240Y-119398020D01*
X83722820Y-119420880D01*
X83661860Y-119448820D01*
X83598360Y-119481840D01*
X83534860Y-119519940D01*
X83468820Y-119563120D01*
X83410400Y-119603760D01*
X83395160Y-119616460D01*
X83379920Y-119626620D01*
X83369760Y-119634240D01*
X83364680Y-119636780D01*
X83364680Y-119636780D01*
X83362140Y-119631700D01*
X83359600Y-119619000D01*
X83357060Y-119598680D01*
X83354520Y-119575820D01*
X83351980Y-119547880D01*
X83346900Y-119519940D01*
X83344360Y-119486920D01*
X83341820Y-119453900D01*
X83339280Y-119423420D01*
X83336740Y-119395480D01*
X83334200Y-119311660D01*
X83336740Y-119232920D01*
X83344360Y-119156720D01*
X83354520Y-119085600D01*
X83369760Y-119022100D01*
X83377380Y-118991620D01*
X83387540Y-118963680D01*
X83400240Y-118938280D01*
X83412940Y-118910340D01*
X83428180Y-118882400D01*
X83448500Y-118851920D01*
X83468820Y-118821440D01*
X83491680Y-118788420D01*
X83509460Y-118760480D01*
X83524700Y-118737620D01*
X83534860Y-118719840D01*
X83545020Y-118704600D01*
X83550100Y-118696980D01*
X83555180Y-118689360D01*
X83557720Y-118684280D01*
X83560260Y-118681740D01*
X83560260Y-118679200D01*
X83555180Y-118676660D01*
X83545020Y-118676660D01*
X83532320Y-118676660D01*
X83514540Y-118676660D01*
X83494220Y-118676660D01*
X83476440Y-118679200D01*
X83458660Y-118681740D01*
X83451040Y-118684280D01*
X83407860Y-118699520D01*
X83367220Y-118719840D01*
X83324040Y-118750320D01*
X83285940Y-118788420D01*
X83245300Y-118831600D01*
X83209740Y-118879860D01*
X83174180Y-118935740D01*
X83141160Y-118996700D01*
X83123380Y-119039880D01*
X83115760Y-119052580D01*
X83110680Y-119060200D01*
X83108140Y-119065280D01*
X83108140Y-119065280D01*
X83105600Y-119057660D01*
X83100520Y-119042420D01*
X83095440Y-119024640D01*
X83090360Y-119001780D01*
X83085280Y-118978920D01*
X83085280Y-118973840D01*
X83082740Y-118950980D01*
X83077660Y-118928120D01*
X83075120Y-118907800D01*
X83072580Y-118884940D01*
X83072580Y-118862080D01*
X83070040Y-118834140D01*
X83070040Y-118803660D01*
X83070040Y-118770640D01*
X83070040Y-118730000D01*
X83070040Y-118684280D01*
X83070040Y-118646180D01*
X83072580Y-118590300D01*
X83072580Y-118542040D01*
X83072580Y-118498860D01*
X83070040Y-118460760D01*
X83070040Y-118430280D01*
X83067500Y-118399800D01*
X83067500Y-118376940D01*
X83064960Y-118351540D01*
X83059880Y-118331220D01*
X83057340Y-118310900D01*
X83042100Y-118252480D01*
X83021780Y-118199140D01*
X82993840Y-118153420D01*
X82960820Y-118110240D01*
X82920180Y-118072140D01*
X82874460Y-118036580D01*
X82849060Y-118021340D01*
X82836360Y-118013720D01*
X82826200Y-118008640D01*
X82821120Y-118006100D01*
X82821120Y-118006100D01*
X82818580Y-118011180D01*
X82816040Y-118021340D01*
X82813500Y-118036580D01*
X82808420Y-118056900D01*
X82805880Y-118072140D01*
X82788100Y-118173740D01*
X82765240Y-118270260D01*
X82744920Y-118359160D01*
X82719520Y-118442980D01*
X82694120Y-118519180D01*
X82663640Y-118590300D01*
X82630620Y-118658880D01*
X82607760Y-118696980D01*
X82600140Y-118712220D01*
X82587440Y-118732540D01*
X82572200Y-118755400D01*
X82556960Y-118780800D01*
X82536640Y-118811280D01*
X82518860Y-118839220D01*
X82511240Y-118849380D01*
X82478220Y-118900180D01*
X82447740Y-118948440D01*
X82424880Y-118989080D01*
X82404560Y-119027180D01*
X82386780Y-119065280D01*
X82374080Y-119098300D01*
X82366460Y-119118620D01*
X82361380Y-119133860D01*
X82356300Y-119146560D01*
X82351220Y-119154180D01*
X82351220Y-119156720D01*
X82346140Y-119154180D01*
X82338520Y-119146560D01*
X82338520Y-119144020D01*
X82333440Y-119138940D01*
X82330900Y-119131320D01*
X82330900Y-119123700D01*
X82330900Y-119108460D01*
X82330900Y-119090680D01*
X82330900Y-119057660D01*
X82335980Y-119024640D01*
X82343600Y-118989080D01*
X82353760Y-118945900D01*
X82369000Y-118900180D01*
X82376620Y-118877320D01*
X82384240Y-118854460D01*
X82389320Y-118831600D01*
X82394400Y-118811280D01*
X82396940Y-118796040D01*
X82396940Y-118785880D01*
X82396940Y-118783340D01*
X82391860Y-118783340D01*
X82381700Y-118785880D01*
X82366460Y-118790960D01*
X82348680Y-118798580D01*
X82328360Y-118803660D01*
X82310580Y-118813820D01*
X82292800Y-118821440D01*
X82290260Y-118821440D01*
X82236920Y-118851920D01*
X82188660Y-118890020D01*
X82142940Y-118933200D01*
X82102300Y-118984000D01*
X82066740Y-119042420D01*
X82033720Y-119105920D01*
X82005780Y-119177040D01*
X81980380Y-119253240D01*
X81980380Y-119255780D01*
X81965140Y-119316740D01*
X81952440Y-119377700D01*
X81939740Y-119441200D01*
X81932120Y-119507240D01*
X81924500Y-119578360D01*
X81919420Y-119654560D01*
X81914340Y-119738380D01*
X81914340Y-119827280D01*
X81911800Y-119911100D01*
X81911800Y-119946660D01*
X81911800Y-119977140D01*
X81911800Y-120000000D01*
X81911800Y-120012700D01*
X81911800Y-120025400D01*
X81909260Y-120033020D01*
X81906720Y-120035560D01*
X81901640Y-120038100D01*
X81899100Y-120038100D01*
X81891480Y-120035560D01*
X81888940Y-120033020D01*
X81863540Y-120017780D01*
X81843220Y-120000000D01*
X81825440Y-119969520D01*
X81810200Y-119933960D01*
X81797500Y-119890780D01*
X81792420Y-119870460D01*
X81789880Y-119857760D01*
X81789880Y-119847600D01*
X81787340Y-119834900D01*
X81787340Y-119822200D01*
X81784800Y-119806960D01*
X81784800Y-119789180D01*
X81784800Y-119768860D01*
X81784800Y-119740920D01*
X81784800Y-119707900D01*
X81784800Y-119679960D01*
X81784800Y-119646940D01*
X81784800Y-119616460D01*
X81784800Y-119588520D01*
X81782260Y-119568200D01*
X81782260Y-119550420D01*
X81782260Y-119537720D01*
X81782260Y-119535180D01*
X81779720Y-119535180D01*
X81772100Y-119542800D01*
X81764480Y-119545340D01*
X81726380Y-119578360D01*
X81690820Y-119616460D01*
X81660340Y-119659640D01*
X81634940Y-119712980D01*
X81612080Y-119771400D01*
X81594300Y-119834900D01*
X81589220Y-119860300D01*
X81581600Y-119900940D01*
X81576520Y-119941580D01*
X81573980Y-119982220D01*
X81571440Y-120025400D01*
X81568900Y-120073660D01*
X81568900Y-120129540D01*
X81568900Y-120144780D01*
X81571440Y-120203200D01*
X81573980Y-120254000D01*
X81576520Y-120302260D01*
X81581600Y-120347980D01*
X81586680Y-120393700D01*
X81591760Y-120419100D01*
X81594300Y-120439420D01*
X81596840Y-120454660D01*
X81596840Y-120464820D01*
X81596840Y-120469900D01*
X81591760Y-120469900D01*
X81581600Y-120467360D01*
X81566360Y-120462280D01*
X81548580Y-120457200D01*
X81528260Y-120452120D01*
X81505400Y-120447040D01*
X81485080Y-120439420D01*
X81467300Y-120434340D01*
X81467300Y-120431800D01*
X81411420Y-120408940D01*
X81360620Y-120386080D01*
X81319980Y-120360680D01*
X81284420Y-120332740D01*
X81276800Y-120327660D01*
X81266640Y-120317500D01*
X81256480Y-120307340D01*
X81251400Y-120304800D01*
X81248860Y-120304800D01*
X81248860Y-120304800D01*
%LPC*%
D15*
X105498900Y-121269760D03*
X105498900Y-118729760D03*
X105498900Y-123809760D03*
X105498900Y-126349760D03*
X105498900Y-116189760D03*
X105498900Y-113649760D03*
D16*
X108000800Y-98999040D03*
X65999360Y-141000480D03*
X108000800Y-141000480D03*
X65999360Y-98999040D03*
D15*
X68501260Y-118729760D03*
X68501260Y-121269760D03*
X68501260Y-116189760D03*
X68501260Y-113649760D03*
X68501260Y-123809760D03*
X68501260Y-126349760D03*
M02*
