M48
INCH,TZ
T1C0.013
T2C0.020
T3C0.040
T4C0.118
%
G90
G05
T1
X3.4055Y-4.3937
X3.4095Y-4.3622
X3.4252Y-4.3819
X3.4252Y-4.4016
X3.4409Y-4.3622
X3.4449Y-4.3937
X3.6076Y-4.2983
X3.6575Y-4.9134
T2
X2.6358Y-4.1339
X2.6358Y-4.2421
X2.8878Y-5.0669
X3.0315Y-5.0669
X3.4193Y-5.4469
X3.4193Y-5.5492
X3.5531Y-3.8957
X3.5531Y-4.0039
X3.595Y-4.3926
X3.695Y-4.3926
X3.8268Y-5.0669
X3.8287Y-4.3878
X3.9665Y-4.3878
X3.9665Y-5.0669
X4.2894Y-4.1339
X4.2894Y-4.2421
T3
X2.6969Y-4.4744
X2.6969Y-4.5744
X2.6969Y-4.6744
X2.6969Y-4.7744
X2.6969Y-4.8744
X2.6969Y-4.9744
X4.1535Y-4.4744
X4.1535Y-4.5744
X4.1535Y-4.6744
X4.1535Y-4.7744
X4.1535Y-4.8744
X4.1535Y-4.9744
T4
X2.5984Y-3.8976
X2.5984Y-5.5512
X4.252Y-3.8976
X4.252Y-5.5512
T0
M30
