%FSLAX34Y34*%
G04 Gerber Fmt 3.4, Leading zero omitted, Abs format*
G04 (created by PCBNEW 52ca2e1517-product) date Tue 14 Jan 2014 02:24:46 PM CET*
%MOIN*%
G01*
G70*
G90*
G04 APERTURE LIST*
%ADD10C,0.005906*%
%ADD11C,0.008000*%
%ADD12C,0.007874*%
%ADD13C,0.000100*%
%ADD14C,0.002600*%
%ADD15C,0.004000*%
%ADD16C,0.006000*%
%ADD17C,0.002000*%
G04 APERTURE END LIST*
G54D10*
G54D11*
X29954Y-56069D02*
X29973Y-56050D01*
X30011Y-56030D01*
X30107Y-56030D01*
X30145Y-56050D01*
X30164Y-56069D01*
X30183Y-56107D01*
X30183Y-56145D01*
X30164Y-56202D01*
X29935Y-56430D01*
X30183Y-56430D01*
X30430Y-56030D02*
X30469Y-56030D01*
X30507Y-56050D01*
X30526Y-56069D01*
X30545Y-56107D01*
X30564Y-56183D01*
X30564Y-56278D01*
X30545Y-56354D01*
X30526Y-56392D01*
X30507Y-56411D01*
X30469Y-56430D01*
X30430Y-56430D01*
X30392Y-56411D01*
X30373Y-56392D01*
X30354Y-56354D01*
X30335Y-56278D01*
X30335Y-56183D01*
X30354Y-56107D01*
X30373Y-56069D01*
X30392Y-56050D01*
X30430Y-56030D01*
X30945Y-56430D02*
X30716Y-56430D01*
X30830Y-56430D02*
X30830Y-56030D01*
X30792Y-56088D01*
X30754Y-56126D01*
X30716Y-56145D01*
X31078Y-56030D02*
X31326Y-56030D01*
X31192Y-56183D01*
X31250Y-56183D01*
X31288Y-56202D01*
X31307Y-56221D01*
X31326Y-56259D01*
X31326Y-56354D01*
X31307Y-56392D01*
X31288Y-56411D01*
X31250Y-56430D01*
X31135Y-56430D01*
X31097Y-56411D01*
X31078Y-56392D01*
X31802Y-56278D02*
X32107Y-56278D01*
X32602Y-56430D02*
X32602Y-56030D01*
X32602Y-56183D02*
X32640Y-56164D01*
X32716Y-56164D01*
X32754Y-56183D01*
X32773Y-56202D01*
X32792Y-56240D01*
X32792Y-56354D01*
X32773Y-56392D01*
X32754Y-56411D01*
X32716Y-56430D01*
X32640Y-56430D01*
X32602Y-56411D01*
X33021Y-56430D02*
X32983Y-56411D01*
X32964Y-56373D01*
X32964Y-56030D01*
X33230Y-56430D02*
X33192Y-56411D01*
X33173Y-56392D01*
X33154Y-56354D01*
X33154Y-56240D01*
X33173Y-56202D01*
X33192Y-56183D01*
X33230Y-56164D01*
X33288Y-56164D01*
X33326Y-56183D01*
X33345Y-56202D01*
X33364Y-56240D01*
X33364Y-56354D01*
X33345Y-56392D01*
X33326Y-56411D01*
X33288Y-56430D01*
X33230Y-56430D01*
X33707Y-56164D02*
X33707Y-56488D01*
X33688Y-56526D01*
X33669Y-56545D01*
X33630Y-56564D01*
X33573Y-56564D01*
X33535Y-56545D01*
X33707Y-56411D02*
X33669Y-56430D01*
X33592Y-56430D01*
X33554Y-56411D01*
X33535Y-56392D01*
X33516Y-56354D01*
X33516Y-56240D01*
X33535Y-56202D01*
X33554Y-56183D01*
X33592Y-56164D01*
X33669Y-56164D01*
X33707Y-56183D01*
X33897Y-56392D02*
X33916Y-56411D01*
X33897Y-56430D01*
X33878Y-56411D01*
X33897Y-56392D01*
X33897Y-56430D01*
X34069Y-56411D02*
X34107Y-56430D01*
X34183Y-56430D01*
X34221Y-56411D01*
X34240Y-56373D01*
X34240Y-56354D01*
X34221Y-56316D01*
X34183Y-56297D01*
X34126Y-56297D01*
X34088Y-56278D01*
X34069Y-56240D01*
X34069Y-56221D01*
X34088Y-56183D01*
X34126Y-56164D01*
X34183Y-56164D01*
X34221Y-56183D01*
X34411Y-56164D02*
X34411Y-56564D01*
X34411Y-56183D02*
X34450Y-56164D01*
X34526Y-56164D01*
X34564Y-56183D01*
X34583Y-56202D01*
X34602Y-56240D01*
X34602Y-56354D01*
X34583Y-56392D01*
X34564Y-56411D01*
X34526Y-56430D01*
X34450Y-56430D01*
X34411Y-56411D01*
X34773Y-56430D02*
X34773Y-56164D01*
X34773Y-56030D02*
X34754Y-56050D01*
X34773Y-56069D01*
X34792Y-56050D01*
X34773Y-56030D01*
X34773Y-56069D01*
X34907Y-56164D02*
X35059Y-56164D01*
X34964Y-56030D02*
X34964Y-56373D01*
X34983Y-56411D01*
X35021Y-56430D01*
X35059Y-56430D01*
X35154Y-56164D02*
X35364Y-56164D01*
X35154Y-56430D01*
X35364Y-56430D01*
X35669Y-56411D02*
X35630Y-56430D01*
X35554Y-56430D01*
X35516Y-56411D01*
X35497Y-56373D01*
X35497Y-56221D01*
X35516Y-56183D01*
X35554Y-56164D01*
X35630Y-56164D01*
X35669Y-56183D01*
X35688Y-56221D01*
X35688Y-56259D01*
X35497Y-56297D01*
X35859Y-56164D02*
X35859Y-56430D01*
X35859Y-56202D02*
X35878Y-56183D01*
X35916Y-56164D01*
X35973Y-56164D01*
X36011Y-56183D01*
X36030Y-56221D01*
X36030Y-56430D01*
X36221Y-56164D02*
X36221Y-56564D01*
X36221Y-56183D02*
X36259Y-56164D01*
X36335Y-56164D01*
X36373Y-56183D01*
X36392Y-56202D01*
X36411Y-56240D01*
X36411Y-56354D01*
X36392Y-56392D01*
X36373Y-56411D01*
X36335Y-56430D01*
X36259Y-56430D01*
X36221Y-56411D01*
X36526Y-56164D02*
X36678Y-56164D01*
X36583Y-56430D02*
X36583Y-56088D01*
X36602Y-56050D01*
X36640Y-56030D01*
X36678Y-56030D01*
X36964Y-56411D02*
X36926Y-56430D01*
X36850Y-56430D01*
X36811Y-56411D01*
X36792Y-56373D01*
X36792Y-56221D01*
X36811Y-56183D01*
X36850Y-56164D01*
X36926Y-56164D01*
X36964Y-56183D01*
X36983Y-56221D01*
X36983Y-56259D01*
X36792Y-56297D01*
X37154Y-56430D02*
X37154Y-56164D01*
X37154Y-56030D02*
X37135Y-56050D01*
X37154Y-56069D01*
X37173Y-56050D01*
X37154Y-56030D01*
X37154Y-56069D01*
X37402Y-56430D02*
X37364Y-56411D01*
X37345Y-56373D01*
X37345Y-56030D01*
X37554Y-56392D02*
X37573Y-56411D01*
X37554Y-56430D01*
X37535Y-56411D01*
X37554Y-56392D01*
X37554Y-56430D01*
X37802Y-56430D02*
X37764Y-56411D01*
X37745Y-56392D01*
X37726Y-56354D01*
X37726Y-56240D01*
X37745Y-56202D01*
X37764Y-56183D01*
X37802Y-56164D01*
X37859Y-56164D01*
X37897Y-56183D01*
X37916Y-56202D01*
X37935Y-56240D01*
X37935Y-56354D01*
X37916Y-56392D01*
X37897Y-56411D01*
X37859Y-56430D01*
X37802Y-56430D01*
X38107Y-56430D02*
X38107Y-56164D01*
X38107Y-56240D02*
X38126Y-56202D01*
X38145Y-56183D01*
X38183Y-56164D01*
X38221Y-56164D01*
X38526Y-56164D02*
X38526Y-56488D01*
X38507Y-56526D01*
X38488Y-56545D01*
X38450Y-56564D01*
X38392Y-56564D01*
X38354Y-56545D01*
X38526Y-56411D02*
X38488Y-56430D01*
X38411Y-56430D01*
X38373Y-56411D01*
X38354Y-56392D01*
X38335Y-56354D01*
X38335Y-56240D01*
X38354Y-56202D01*
X38373Y-56183D01*
X38411Y-56164D01*
X38488Y-56164D01*
X38526Y-56183D01*
G54D12*
X43999Y-55512D02*
G75*
G03X43999Y-55512I-1479J0D01*
G74*
G01*
X43996Y-38976D02*
G75*
G03X43996Y-38976I-1476J0D01*
G74*
G01*
X27460Y-55512D02*
G75*
G03X27460Y-55512I-1476J0D01*
G74*
G01*
X27460Y-38976D02*
G75*
G03X27460Y-38976I-1476J0D01*
G74*
G01*
G54D11*
X32210Y-38369D02*
X32020Y-38369D01*
X32020Y-37969D01*
X32344Y-38160D02*
X32477Y-38160D01*
X32534Y-38369D02*
X32344Y-38369D01*
X32344Y-37969D01*
X32534Y-37969D01*
X32706Y-38369D02*
X32706Y-37969D01*
X32801Y-37969D01*
X32858Y-37989D01*
X32896Y-38027D01*
X32915Y-38065D01*
X32934Y-38141D01*
X32934Y-38198D01*
X32915Y-38274D01*
X32896Y-38312D01*
X32858Y-38350D01*
X32801Y-38369D01*
X32706Y-38369D01*
X33391Y-38350D02*
X33449Y-38369D01*
X33544Y-38369D01*
X33582Y-38350D01*
X33601Y-38331D01*
X33620Y-38293D01*
X33620Y-38255D01*
X33601Y-38217D01*
X33582Y-38198D01*
X33544Y-38179D01*
X33468Y-38160D01*
X33429Y-38141D01*
X33410Y-38122D01*
X33391Y-38084D01*
X33391Y-38046D01*
X33410Y-38008D01*
X33429Y-37989D01*
X33468Y-37969D01*
X33563Y-37969D01*
X33620Y-37989D01*
X33963Y-38103D02*
X33963Y-38503D01*
X33963Y-38350D02*
X33925Y-38369D01*
X33849Y-38369D01*
X33810Y-38350D01*
X33791Y-38331D01*
X33772Y-38293D01*
X33772Y-38179D01*
X33791Y-38141D01*
X33810Y-38122D01*
X33849Y-38103D01*
X33925Y-38103D01*
X33963Y-38122D01*
X34325Y-38103D02*
X34325Y-38369D01*
X34153Y-38103D02*
X34153Y-38312D01*
X34172Y-38350D01*
X34210Y-38369D01*
X34268Y-38369D01*
X34306Y-38350D01*
X34325Y-38331D01*
X34687Y-38369D02*
X34687Y-38160D01*
X34668Y-38122D01*
X34629Y-38103D01*
X34553Y-38103D01*
X34515Y-38122D01*
X34687Y-38350D02*
X34649Y-38369D01*
X34553Y-38369D01*
X34515Y-38350D01*
X34496Y-38312D01*
X34496Y-38274D01*
X34515Y-38236D01*
X34553Y-38217D01*
X34649Y-38217D01*
X34687Y-38198D01*
X34877Y-38369D02*
X34877Y-38103D01*
X34877Y-38179D02*
X34896Y-38141D01*
X34915Y-38122D01*
X34953Y-38103D01*
X34991Y-38103D01*
X35277Y-38350D02*
X35239Y-38369D01*
X35163Y-38369D01*
X35125Y-38350D01*
X35106Y-38312D01*
X35106Y-38160D01*
X35125Y-38122D01*
X35163Y-38103D01*
X35239Y-38103D01*
X35277Y-38122D01*
X35296Y-38160D01*
X35296Y-38198D01*
X35106Y-38236D01*
X35715Y-37969D02*
X35849Y-38369D01*
X35982Y-37969D01*
X36325Y-38369D02*
X36096Y-38369D01*
X36210Y-38369D02*
X36210Y-37969D01*
X36172Y-38027D01*
X36134Y-38065D01*
X36096Y-38084D01*
X36496Y-38331D02*
X36515Y-38350D01*
X36496Y-38369D01*
X36477Y-38350D01*
X36496Y-38331D01*
X36496Y-38369D01*
X36763Y-37969D02*
X36801Y-37969D01*
X36839Y-37989D01*
X36858Y-38008D01*
X36877Y-38046D01*
X36896Y-38122D01*
X36896Y-38217D01*
X36877Y-38293D01*
X36858Y-38331D01*
X36839Y-38350D01*
X36801Y-38369D01*
X36763Y-38369D01*
X36725Y-38350D01*
X36706Y-38331D01*
X36687Y-38293D01*
X36668Y-38217D01*
X36668Y-38122D01*
X36687Y-38046D01*
X36706Y-38008D01*
X36725Y-37989D01*
X36763Y-37969D01*
G54D12*
X33306Y-42637D02*
X35196Y-42637D01*
X35196Y-42637D02*
X35196Y-45157D01*
X35196Y-45157D02*
X33306Y-45157D01*
X33306Y-45157D02*
X33306Y-42637D01*
G54D13*
G36*
X33536Y-40834D02*
X33548Y-40828D01*
X33573Y-40812D01*
X33610Y-40788D01*
X33653Y-40759D01*
X33697Y-40729D01*
X33732Y-40705D01*
X33757Y-40689D01*
X33768Y-40684D01*
X33773Y-40686D01*
X33794Y-40696D01*
X33824Y-40711D01*
X33841Y-40720D01*
X33869Y-40732D01*
X33882Y-40734D01*
X33885Y-40731D01*
X33895Y-40710D01*
X33910Y-40674D01*
X33931Y-40626D01*
X33955Y-40571D01*
X33980Y-40511D01*
X34006Y-40450D01*
X34030Y-40391D01*
X34051Y-40339D01*
X34068Y-40296D01*
X34080Y-40267D01*
X34084Y-40254D01*
X34083Y-40251D01*
X34069Y-40238D01*
X34045Y-40220D01*
X33993Y-40178D01*
X33942Y-40114D01*
X33911Y-40041D01*
X33900Y-39961D01*
X33909Y-39886D01*
X33939Y-39814D01*
X33989Y-39750D01*
X34049Y-39702D01*
X34120Y-39671D01*
X34200Y-39662D01*
X34276Y-39670D01*
X34349Y-39699D01*
X34414Y-39748D01*
X34441Y-39780D01*
X34479Y-39845D01*
X34500Y-39915D01*
X34503Y-39933D01*
X34499Y-40010D01*
X34477Y-40083D01*
X34436Y-40149D01*
X34380Y-40203D01*
X34373Y-40209D01*
X34346Y-40228D01*
X34329Y-40242D01*
X34315Y-40253D01*
X34413Y-40489D01*
X34429Y-40526D01*
X34456Y-40591D01*
X34479Y-40646D01*
X34498Y-40690D01*
X34511Y-40720D01*
X34517Y-40732D01*
X34518Y-40732D01*
X34526Y-40734D01*
X34544Y-40727D01*
X34577Y-40711D01*
X34599Y-40700D01*
X34624Y-40688D01*
X34635Y-40684D01*
X34645Y-40689D01*
X34669Y-40704D01*
X34704Y-40728D01*
X34746Y-40757D01*
X34786Y-40784D01*
X34823Y-40808D01*
X34850Y-40825D01*
X34863Y-40832D01*
X34865Y-40832D01*
X34877Y-40826D01*
X34898Y-40808D01*
X34930Y-40778D01*
X34976Y-40733D01*
X34983Y-40726D01*
X35020Y-40688D01*
X35050Y-40656D01*
X35071Y-40634D01*
X35078Y-40623D01*
X35078Y-40623D01*
X35071Y-40610D01*
X35054Y-40584D01*
X35030Y-40546D01*
X35000Y-40502D01*
X34922Y-40389D01*
X34965Y-40282D01*
X34978Y-40249D01*
X34995Y-40209D01*
X35007Y-40181D01*
X35013Y-40168D01*
X35025Y-40164D01*
X35054Y-40157D01*
X35097Y-40148D01*
X35148Y-40139D01*
X35196Y-40130D01*
X35239Y-40122D01*
X35271Y-40116D01*
X35285Y-40113D01*
X35289Y-40111D01*
X35291Y-40104D01*
X35293Y-40089D01*
X35294Y-40063D01*
X35295Y-40021D01*
X35295Y-39961D01*
X35295Y-39954D01*
X35294Y-39896D01*
X35293Y-39851D01*
X35292Y-39821D01*
X35290Y-39809D01*
X35290Y-39809D01*
X35276Y-39806D01*
X35245Y-39799D01*
X35202Y-39791D01*
X35150Y-39781D01*
X35146Y-39780D01*
X35095Y-39770D01*
X35051Y-39761D01*
X35021Y-39754D01*
X35008Y-39750D01*
X35005Y-39746D01*
X34995Y-39726D01*
X34980Y-39694D01*
X34963Y-39655D01*
X34946Y-39614D01*
X34931Y-39578D01*
X34921Y-39550D01*
X34918Y-39538D01*
X34919Y-39538D01*
X34926Y-39525D01*
X34944Y-39498D01*
X34969Y-39461D01*
X35000Y-39417D01*
X35002Y-39414D01*
X35032Y-39370D01*
X35056Y-39333D01*
X35072Y-39306D01*
X35078Y-39294D01*
X35078Y-39294D01*
X35068Y-39281D01*
X35046Y-39256D01*
X35014Y-39222D01*
X34975Y-39184D01*
X34963Y-39172D01*
X34921Y-39130D01*
X34891Y-39103D01*
X34873Y-39088D01*
X34864Y-39085D01*
X34863Y-39085D01*
X34850Y-39093D01*
X34823Y-39111D01*
X34785Y-39137D01*
X34741Y-39167D01*
X34738Y-39169D01*
X34694Y-39199D01*
X34657Y-39224D01*
X34631Y-39241D01*
X34620Y-39248D01*
X34618Y-39248D01*
X34600Y-39242D01*
X34569Y-39231D01*
X34531Y-39217D01*
X34490Y-39200D01*
X34454Y-39185D01*
X34426Y-39172D01*
X34413Y-39165D01*
X34413Y-39164D01*
X34408Y-39149D01*
X34400Y-39116D01*
X34391Y-39071D01*
X34381Y-39017D01*
X34379Y-39008D01*
X34369Y-38956D01*
X34361Y-38913D01*
X34355Y-38883D01*
X34352Y-38871D01*
X34344Y-38869D01*
X34319Y-38867D01*
X34280Y-38866D01*
X34233Y-38866D01*
X34184Y-38866D01*
X34135Y-38867D01*
X34094Y-38869D01*
X34064Y-38871D01*
X34052Y-38873D01*
X34052Y-38874D01*
X34047Y-38890D01*
X34040Y-38923D01*
X34031Y-38968D01*
X34020Y-39022D01*
X34018Y-39032D01*
X34009Y-39084D01*
X34000Y-39126D01*
X33994Y-39156D01*
X33990Y-39167D01*
X33986Y-39170D01*
X33964Y-39179D01*
X33929Y-39194D01*
X33886Y-39211D01*
X33786Y-39252D01*
X33663Y-39167D01*
X33651Y-39160D01*
X33607Y-39130D01*
X33571Y-39105D01*
X33546Y-39089D01*
X33535Y-39083D01*
X33534Y-39084D01*
X33522Y-39094D01*
X33498Y-39117D01*
X33464Y-39150D01*
X33426Y-39188D01*
X33397Y-39217D01*
X33363Y-39251D01*
X33342Y-39274D01*
X33330Y-39289D01*
X33326Y-39298D01*
X33327Y-39304D01*
X33335Y-39317D01*
X33353Y-39344D01*
X33378Y-39381D01*
X33408Y-39425D01*
X33433Y-39461D01*
X33459Y-39502D01*
X33477Y-39532D01*
X33483Y-39546D01*
X33481Y-39552D01*
X33473Y-39576D01*
X33458Y-39613D01*
X33440Y-39656D01*
X33397Y-39753D01*
X33333Y-39766D01*
X33294Y-39773D01*
X33240Y-39783D01*
X33189Y-39793D01*
X33108Y-39809D01*
X33105Y-40105D01*
X33117Y-40111D01*
X33129Y-40114D01*
X33159Y-40121D01*
X33202Y-40129D01*
X33252Y-40139D01*
X33295Y-40147D01*
X33339Y-40155D01*
X33370Y-40161D01*
X33384Y-40164D01*
X33387Y-40168D01*
X33398Y-40189D01*
X33413Y-40223D01*
X33430Y-40263D01*
X33448Y-40304D01*
X33463Y-40343D01*
X33474Y-40372D01*
X33478Y-40387D01*
X33472Y-40398D01*
X33455Y-40424D01*
X33431Y-40460D01*
X33402Y-40503D01*
X33373Y-40546D01*
X33348Y-40583D01*
X33331Y-40609D01*
X33323Y-40621D01*
X33327Y-40630D01*
X33344Y-40650D01*
X33377Y-40684D01*
X33425Y-40732D01*
X33433Y-40739D01*
X33471Y-40776D01*
X33504Y-40806D01*
X33526Y-40826D01*
X33536Y-40834D01*
X33536Y-40834D01*
G37*
G36*
X34622Y-54794D02*
X34646Y-54791D01*
X34669Y-54783D01*
X34679Y-54778D01*
X34700Y-54764D01*
X34717Y-54746D01*
X34729Y-54725D01*
X34738Y-54702D01*
X34741Y-54679D01*
X34741Y-54655D01*
X34735Y-54631D01*
X34724Y-54607D01*
X34717Y-54598D01*
X34706Y-54586D01*
X34695Y-54576D01*
X34685Y-54568D01*
X34681Y-54566D01*
X34660Y-54556D01*
X34638Y-54551D01*
X34614Y-54550D01*
X34606Y-54550D01*
X34592Y-54552D01*
X34580Y-54555D01*
X34567Y-54561D01*
X34553Y-54568D01*
X34533Y-54584D01*
X34517Y-54604D01*
X34505Y-54626D01*
X34502Y-54637D01*
X34498Y-54649D01*
X34497Y-54658D01*
X34497Y-54659D01*
X34497Y-54660D01*
X34496Y-54655D01*
X34496Y-54654D01*
X34492Y-54638D01*
X34486Y-54622D01*
X34479Y-54608D01*
X34465Y-54590D01*
X34446Y-54573D01*
X34425Y-54560D01*
X34401Y-54552D01*
X34375Y-54549D01*
X34368Y-54550D01*
X34349Y-54552D01*
X34330Y-54557D01*
X34327Y-54559D01*
X34306Y-54570D01*
X34288Y-54585D01*
X34272Y-54604D01*
X34261Y-54624D01*
X34254Y-54646D01*
X34254Y-54647D01*
X34253Y-54653D01*
X34252Y-54655D01*
X34252Y-54655D01*
X34251Y-54652D01*
X34250Y-54646D01*
X34249Y-54644D01*
X34242Y-54622D01*
X34230Y-54602D01*
X34214Y-54583D01*
X34200Y-54571D01*
X34179Y-54559D01*
X34155Y-54552D01*
X34129Y-54549D01*
X34111Y-54551D01*
X34087Y-54557D01*
X34064Y-54568D01*
X34045Y-54584D01*
X34029Y-54603D01*
X34027Y-54606D01*
X34021Y-54615D01*
X34017Y-54623D01*
X34015Y-54628D01*
X34012Y-54639D01*
X34009Y-54650D01*
X34008Y-54658D01*
X34008Y-54659D01*
X34007Y-54659D01*
X34007Y-54654D01*
X34004Y-54641D01*
X33998Y-54624D01*
X33990Y-54609D01*
X33976Y-54589D01*
X33957Y-54572D01*
X33935Y-54560D01*
X33911Y-54552D01*
X33886Y-54549D01*
X33863Y-54551D01*
X33839Y-54558D01*
X33817Y-54570D01*
X33797Y-54587D01*
X33788Y-54597D01*
X33778Y-54611D01*
X33771Y-54626D01*
X33767Y-54639D01*
X33763Y-54664D01*
X33763Y-54688D01*
X33769Y-54711D01*
X33778Y-54732D01*
X33792Y-54751D01*
X33808Y-54768D01*
X33828Y-54780D01*
X33851Y-54789D01*
X33876Y-54794D01*
X33878Y-54794D01*
X33903Y-54793D01*
X33926Y-54787D01*
X33949Y-54776D01*
X33957Y-54771D01*
X33973Y-54757D01*
X33987Y-54739D01*
X33997Y-54721D01*
X34000Y-54714D01*
X34003Y-54703D01*
X34006Y-54693D01*
X34007Y-54685D01*
X34007Y-54680D01*
X34008Y-54685D01*
X34008Y-54688D01*
X34011Y-54700D01*
X34014Y-54712D01*
X34018Y-54722D01*
X34024Y-54733D01*
X34039Y-54753D01*
X34058Y-54770D01*
X34079Y-54783D01*
X34104Y-54792D01*
X34108Y-54792D01*
X34125Y-54794D01*
X34142Y-54793D01*
X34158Y-54791D01*
X34175Y-54786D01*
X34198Y-54774D01*
X34218Y-54757D01*
X34219Y-54756D01*
X34233Y-54738D01*
X34244Y-54718D01*
X34250Y-54697D01*
X34250Y-54696D01*
X34252Y-54690D01*
X34252Y-54688D01*
X34252Y-54689D01*
X34253Y-54695D01*
X34254Y-54696D01*
X34257Y-54709D01*
X34263Y-54723D01*
X34270Y-54736D01*
X34281Y-54751D01*
X34299Y-54769D01*
X34321Y-54782D01*
X34345Y-54791D01*
X34349Y-54792D01*
X34366Y-54794D01*
X34384Y-54794D01*
X34399Y-54792D01*
X34413Y-54788D01*
X34436Y-54777D01*
X34456Y-54762D01*
X34473Y-54744D01*
X34486Y-54722D01*
X34489Y-54715D01*
X34492Y-54704D01*
X34495Y-54693D01*
X34496Y-54685D01*
X34496Y-54684D01*
X34496Y-54683D01*
X34497Y-54688D01*
X34497Y-54689D01*
X34501Y-54705D01*
X34507Y-54721D01*
X34514Y-54735D01*
X34518Y-54740D01*
X34533Y-54759D01*
X34553Y-54774D01*
X34574Y-54786D01*
X34597Y-54792D01*
X34622Y-54794D01*
X34622Y-54794D01*
G37*
G36*
X33632Y-54549D02*
X33647Y-54549D01*
X33661Y-54547D01*
X33678Y-54543D01*
X33701Y-54533D01*
X33721Y-54518D01*
X33738Y-54500D01*
X33751Y-54479D01*
X33759Y-54456D01*
X33762Y-54431D01*
X33761Y-54406D01*
X33754Y-54382D01*
X33743Y-54361D01*
X33728Y-54341D01*
X33708Y-54325D01*
X33702Y-54321D01*
X33678Y-54310D01*
X33654Y-54305D01*
X33628Y-54304D01*
X33603Y-54310D01*
X33583Y-54318D01*
X33562Y-54332D01*
X33544Y-54350D01*
X33530Y-54372D01*
X33521Y-54397D01*
X33519Y-54409D01*
X33518Y-54425D01*
X33518Y-54440D01*
X33520Y-54454D01*
X33521Y-54458D01*
X33531Y-54483D01*
X33545Y-54505D01*
X33564Y-54523D01*
X33586Y-54537D01*
X33597Y-54541D01*
X33611Y-54546D01*
X33624Y-54548D01*
X33632Y-54549D01*
X33632Y-54549D01*
G37*
G36*
X34867Y-54549D02*
X34892Y-54546D01*
X34916Y-54537D01*
X34939Y-54523D01*
X34944Y-54520D01*
X34961Y-54502D01*
X34974Y-54481D01*
X34983Y-54457D01*
X34985Y-54444D01*
X34986Y-54428D01*
X34986Y-54413D01*
X34984Y-54400D01*
X34982Y-54394D01*
X34973Y-54370D01*
X34958Y-54349D01*
X34941Y-54331D01*
X34920Y-54317D01*
X34896Y-54308D01*
X34871Y-54304D01*
X34861Y-54304D01*
X34837Y-54307D01*
X34814Y-54315D01*
X34793Y-54327D01*
X34775Y-54342D01*
X34760Y-54361D01*
X34750Y-54383D01*
X34743Y-54407D01*
X34742Y-54432D01*
X34743Y-54447D01*
X34746Y-54460D01*
X34751Y-54475D01*
X34761Y-54493D01*
X34777Y-54513D01*
X34796Y-54528D01*
X34818Y-54540D01*
X34842Y-54547D01*
X34867Y-54549D01*
X34867Y-54549D01*
G37*
G36*
X33388Y-54303D02*
X33405Y-54303D01*
X33421Y-54302D01*
X33438Y-54296D01*
X33461Y-54285D01*
X33481Y-54268D01*
X33494Y-54253D01*
X33507Y-54232D01*
X33515Y-54208D01*
X33516Y-54198D01*
X33517Y-54184D01*
X33517Y-54169D01*
X33515Y-54156D01*
X33513Y-54149D01*
X33503Y-54125D01*
X33489Y-54103D01*
X33471Y-54086D01*
X33449Y-54072D01*
X33441Y-54068D01*
X33425Y-54063D01*
X33409Y-54060D01*
X33390Y-54060D01*
X33379Y-54060D01*
X33366Y-54062D01*
X33354Y-54066D01*
X33340Y-54072D01*
X33332Y-54076D01*
X33312Y-54091D01*
X33295Y-54110D01*
X33282Y-54132D01*
X33274Y-54157D01*
X33274Y-54163D01*
X33273Y-54178D01*
X33273Y-54193D01*
X33275Y-54206D01*
X33277Y-54214D01*
X33286Y-54238D01*
X33300Y-54260D01*
X33318Y-54277D01*
X33340Y-54291D01*
X33365Y-54300D01*
X33372Y-54302D01*
X33388Y-54303D01*
X33388Y-54303D01*
G37*
G36*
X34371Y-54304D02*
X34396Y-54302D01*
X34419Y-54296D01*
X34432Y-54289D01*
X34453Y-54275D01*
X34471Y-54257D01*
X34484Y-54235D01*
X34493Y-54211D01*
X34494Y-54206D01*
X34497Y-54186D01*
X34496Y-54167D01*
X34491Y-54146D01*
X34481Y-54122D01*
X34467Y-54102D01*
X34449Y-54084D01*
X34427Y-54071D01*
X34402Y-54062D01*
X34386Y-54058D01*
X34394Y-54057D01*
X34396Y-54057D01*
X34414Y-54052D01*
X34432Y-54044D01*
X34449Y-54033D01*
X34452Y-54031D01*
X34470Y-54013D01*
X34483Y-53992D01*
X34492Y-53970D01*
X34496Y-53946D01*
X34496Y-53922D01*
X34490Y-53898D01*
X34480Y-53875D01*
X34479Y-53874D01*
X34464Y-53854D01*
X34445Y-53838D01*
X34425Y-53826D01*
X34402Y-53818D01*
X34379Y-53815D01*
X34355Y-53816D01*
X34332Y-53822D01*
X34310Y-53833D01*
X34290Y-53848D01*
X34279Y-53860D01*
X34267Y-53878D01*
X34258Y-53897D01*
X34253Y-53915D01*
X34253Y-53920D01*
X34252Y-53922D01*
X34252Y-53921D01*
X34251Y-53915D01*
X34246Y-53899D01*
X34239Y-53881D01*
X34229Y-53865D01*
X34223Y-53857D01*
X34204Y-53840D01*
X34183Y-53827D01*
X34159Y-53818D01*
X34135Y-53815D01*
X34109Y-53817D01*
X34094Y-53820D01*
X34071Y-53830D01*
X34050Y-53845D01*
X34033Y-53863D01*
X34020Y-53884D01*
X34011Y-53908D01*
X34009Y-53920D01*
X34008Y-53945D01*
X34012Y-53969D01*
X34021Y-53992D01*
X34034Y-54013D01*
X34052Y-54031D01*
X34074Y-54045D01*
X34084Y-54050D01*
X34095Y-54054D01*
X34106Y-54057D01*
X34113Y-54058D01*
X34114Y-54058D01*
X34114Y-54059D01*
X34109Y-54060D01*
X34097Y-54064D01*
X34080Y-54070D01*
X34066Y-54077D01*
X34059Y-54082D01*
X34042Y-54096D01*
X34028Y-54114D01*
X34017Y-54132D01*
X34011Y-54152D01*
X34008Y-54174D01*
X34008Y-54196D01*
X34009Y-54200D01*
X34016Y-54225D01*
X34027Y-54248D01*
X34044Y-54268D01*
X34057Y-54280D01*
X34079Y-54293D01*
X34103Y-54302D01*
X34113Y-54303D01*
X34126Y-54303D01*
X34140Y-54303D01*
X34153Y-54302D01*
X34163Y-54300D01*
X34171Y-54297D01*
X34195Y-54285D01*
X34215Y-54269D01*
X34232Y-54249D01*
X34238Y-54240D01*
X34245Y-54223D01*
X34250Y-54207D01*
X34250Y-54206D01*
X34252Y-54200D01*
X34252Y-54198D01*
X34252Y-54198D01*
X34252Y-54165D01*
X34252Y-54165D01*
X34251Y-54162D01*
X34250Y-54156D01*
X34250Y-54155D01*
X34242Y-54133D01*
X34231Y-54112D01*
X34215Y-54094D01*
X34196Y-54078D01*
X34176Y-54068D01*
X34174Y-54067D01*
X34163Y-54064D01*
X34153Y-54061D01*
X34142Y-54059D01*
X34153Y-54057D01*
X34167Y-54053D01*
X34189Y-54044D01*
X34209Y-54030D01*
X34226Y-54012D01*
X34239Y-53992D01*
X34244Y-53982D01*
X34248Y-53969D01*
X34251Y-53959D01*
X34251Y-53954D01*
X34252Y-53952D01*
X34252Y-53953D01*
X34253Y-53959D01*
X34255Y-53968D01*
X34260Y-53980D01*
X34265Y-53992D01*
X34272Y-54005D01*
X34288Y-54024D01*
X34307Y-54039D01*
X34329Y-54050D01*
X34352Y-54057D01*
X34362Y-54059D01*
X34351Y-54061D01*
X34350Y-54061D01*
X34339Y-54064D01*
X34329Y-54068D01*
X34326Y-54069D01*
X34306Y-54080D01*
X34287Y-54095D01*
X34272Y-54114D01*
X34261Y-54134D01*
X34254Y-54156D01*
X34254Y-54157D01*
X34253Y-54163D01*
X34252Y-54165D01*
X34252Y-54198D01*
X34252Y-54198D01*
X34253Y-54201D01*
X34254Y-54207D01*
X34258Y-54223D01*
X34269Y-54245D01*
X34284Y-54264D01*
X34302Y-54281D01*
X34323Y-54293D01*
X34323Y-54293D01*
X34346Y-54301D01*
X34371Y-54304D01*
X34371Y-54304D01*
G37*
G36*
X35100Y-54303D02*
X35120Y-54303D01*
X35138Y-54301D01*
X35150Y-54297D01*
X35173Y-54286D01*
X35193Y-54271D01*
X35209Y-54253D01*
X35221Y-54231D01*
X35229Y-54207D01*
X35232Y-54182D01*
X35231Y-54171D01*
X35227Y-54146D01*
X35217Y-54123D01*
X35201Y-54101D01*
X35197Y-54096D01*
X35180Y-54081D01*
X35159Y-54070D01*
X35138Y-54062D01*
X35137Y-54062D01*
X35119Y-54060D01*
X35099Y-54060D01*
X35081Y-54062D01*
X35074Y-54064D01*
X35051Y-54074D01*
X35030Y-54088D01*
X35014Y-54105D01*
X35000Y-54125D01*
X34991Y-54147D01*
X34987Y-54171D01*
X34987Y-54195D01*
X34993Y-54220D01*
X35001Y-54239D01*
X35015Y-54260D01*
X35033Y-54278D01*
X35055Y-54291D01*
X35078Y-54300D01*
X35081Y-54301D01*
X35100Y-54303D01*
X35100Y-54303D01*
G37*
G36*
X33889Y-53570D02*
X33913Y-53567D01*
X33937Y-53559D01*
X33948Y-53553D01*
X33959Y-53545D01*
X33970Y-53535D01*
X33983Y-53521D01*
X33996Y-53501D01*
X34004Y-53477D01*
X34005Y-53470D01*
X34007Y-53454D01*
X34007Y-53437D01*
X34005Y-53421D01*
X33999Y-53401D01*
X33987Y-53380D01*
X33972Y-53361D01*
X33970Y-53359D01*
X33958Y-53350D01*
X33945Y-53341D01*
X33933Y-53334D01*
X33929Y-53333D01*
X33919Y-53330D01*
X33909Y-53327D01*
X33901Y-53326D01*
X33897Y-53326D01*
X33902Y-53324D01*
X33908Y-53323D01*
X33915Y-53321D01*
X33924Y-53319D01*
X33943Y-53310D01*
X33961Y-53299D01*
X33975Y-53285D01*
X33978Y-53283D01*
X33992Y-53261D01*
X34002Y-53238D01*
X34007Y-53214D01*
X34007Y-53189D01*
X34006Y-53183D01*
X33999Y-53158D01*
X33988Y-53136D01*
X33971Y-53116D01*
X33956Y-53103D01*
X33935Y-53090D01*
X33911Y-53082D01*
X33906Y-53081D01*
X33890Y-53080D01*
X33872Y-53081D01*
X33857Y-53083D01*
X33843Y-53087D01*
X33820Y-53098D01*
X33801Y-53113D01*
X33785Y-53132D01*
X33772Y-53153D01*
X33765Y-53177D01*
X33765Y-53180D01*
X33763Y-53185D01*
X33762Y-53187D01*
X33761Y-53185D01*
X33761Y-53180D01*
X33758Y-53170D01*
X33754Y-53159D01*
X33750Y-53149D01*
X33746Y-53142D01*
X33731Y-53120D01*
X33712Y-53103D01*
X33691Y-53091D01*
X33667Y-53083D01*
X33641Y-53080D01*
X33621Y-53081D01*
X33597Y-53087D01*
X33576Y-53098D01*
X33563Y-53107D01*
X33545Y-53125D01*
X33532Y-53145D01*
X33522Y-53168D01*
X33518Y-53192D01*
X33518Y-53217D01*
X33523Y-53240D01*
X33534Y-53263D01*
X33548Y-53284D01*
X33567Y-53301D01*
X33589Y-53314D01*
X33614Y-53322D01*
X33628Y-53326D01*
X33620Y-53326D01*
X33615Y-53327D01*
X33595Y-53333D01*
X33576Y-53343D01*
X33558Y-53356D01*
X33544Y-53371D01*
X33535Y-53384D01*
X33527Y-53401D01*
X33521Y-53417D01*
X33519Y-53430D01*
X33518Y-53446D01*
X33518Y-53462D01*
X33520Y-53474D01*
X33524Y-53489D01*
X33536Y-53512D01*
X33551Y-53532D01*
X33571Y-53549D01*
X33594Y-53561D01*
X33619Y-53568D01*
X33626Y-53569D01*
X33641Y-53570D01*
X33657Y-53569D01*
X33670Y-53566D01*
X33681Y-53563D01*
X33703Y-53552D01*
X33724Y-53537D01*
X33740Y-53518D01*
X33752Y-53496D01*
X33760Y-53472D01*
X33761Y-53470D01*
X33762Y-53465D01*
X33763Y-53465D01*
X33763Y-53431D01*
X33762Y-53430D01*
X33760Y-53425D01*
X33760Y-53424D01*
X33756Y-53408D01*
X33748Y-53390D01*
X33738Y-53374D01*
X33731Y-53365D01*
X33712Y-53348D01*
X33689Y-53335D01*
X33665Y-53327D01*
X33653Y-53325D01*
X33661Y-53323D01*
X33668Y-53322D01*
X33677Y-53319D01*
X33681Y-53318D01*
X33704Y-53307D01*
X33723Y-53292D01*
X33740Y-53273D01*
X33752Y-53252D01*
X33760Y-53229D01*
X33761Y-53222D01*
X33762Y-53219D01*
X33764Y-53221D01*
X33765Y-53229D01*
X33765Y-53229D01*
X33769Y-53242D01*
X33775Y-53257D01*
X33783Y-53270D01*
X33789Y-53278D01*
X33800Y-53290D01*
X33812Y-53301D01*
X33824Y-53309D01*
X33825Y-53309D01*
X33844Y-53318D01*
X33864Y-53323D01*
X33872Y-53325D01*
X33862Y-53327D01*
X33841Y-53333D01*
X33819Y-53344D01*
X33799Y-53360D01*
X33784Y-53378D01*
X33780Y-53385D01*
X33774Y-53396D01*
X33769Y-53409D01*
X33765Y-53420D01*
X33764Y-53428D01*
X33764Y-53428D01*
X33763Y-53431D01*
X33763Y-53465D01*
X33763Y-53465D01*
X33764Y-53471D01*
X33766Y-53477D01*
X33768Y-53485D01*
X33773Y-53498D01*
X33785Y-53519D01*
X33801Y-53537D01*
X33821Y-53552D01*
X33842Y-53562D01*
X33865Y-53568D01*
X33889Y-53570D01*
X33889Y-53570D01*
G37*
G36*
X34625Y-53570D02*
X34650Y-53566D01*
X34672Y-53558D01*
X34693Y-53545D01*
X34711Y-53528D01*
X34725Y-53508D01*
X34736Y-53485D01*
X34738Y-53477D01*
X34740Y-53471D01*
X34740Y-53469D01*
X34741Y-53464D01*
X34741Y-53464D01*
X34741Y-53430D01*
X34740Y-53427D01*
X34738Y-53418D01*
X34734Y-53404D01*
X34723Y-53382D01*
X34708Y-53363D01*
X34689Y-53347D01*
X34668Y-53335D01*
X34644Y-53327D01*
X34632Y-53325D01*
X34640Y-53323D01*
X34641Y-53323D01*
X34661Y-53317D01*
X34680Y-53309D01*
X34688Y-53304D01*
X34700Y-53294D01*
X34712Y-53282D01*
X34721Y-53270D01*
X34728Y-53259D01*
X34734Y-53244D01*
X34739Y-53229D01*
X34740Y-53222D01*
X34741Y-53219D01*
X34743Y-53221D01*
X34744Y-53228D01*
X34749Y-53244D01*
X34760Y-53267D01*
X34776Y-53287D01*
X34795Y-53303D01*
X34817Y-53316D01*
X34843Y-53323D01*
X34851Y-53325D01*
X34839Y-53327D01*
X34828Y-53330D01*
X34804Y-53340D01*
X34783Y-53355D01*
X34766Y-53374D01*
X34761Y-53381D01*
X34754Y-53392D01*
X34749Y-53406D01*
X34746Y-53414D01*
X34744Y-53424D01*
X34744Y-53424D01*
X34742Y-53429D01*
X34741Y-53430D01*
X34741Y-53464D01*
X34742Y-53465D01*
X34744Y-53471D01*
X34746Y-53480D01*
X34753Y-53498D01*
X34762Y-53516D01*
X34769Y-53525D01*
X34788Y-53543D01*
X34809Y-53557D01*
X34834Y-53566D01*
X34845Y-53568D01*
X34862Y-53570D01*
X34879Y-53569D01*
X34894Y-53566D01*
X34896Y-53566D01*
X34920Y-53556D01*
X34942Y-53542D01*
X34960Y-53524D01*
X34974Y-53502D01*
X34983Y-53477D01*
X34985Y-53466D01*
X34986Y-53450D01*
X34986Y-53432D01*
X34983Y-53417D01*
X34979Y-53404D01*
X34970Y-53387D01*
X34960Y-53371D01*
X34949Y-53359D01*
X34934Y-53347D01*
X34919Y-53338D01*
X34913Y-53335D01*
X34901Y-53330D01*
X34889Y-53327D01*
X34880Y-53326D01*
X34880Y-53326D01*
X34883Y-53324D01*
X34890Y-53322D01*
X34904Y-53318D01*
X34920Y-53311D01*
X34933Y-53304D01*
X34936Y-53302D01*
X34952Y-53287D01*
X34966Y-53270D01*
X34977Y-53252D01*
X34980Y-53243D01*
X34986Y-53218D01*
X34986Y-53193D01*
X34982Y-53168D01*
X34980Y-53163D01*
X34970Y-53140D01*
X34955Y-53120D01*
X34936Y-53104D01*
X34914Y-53091D01*
X34890Y-53082D01*
X34887Y-53082D01*
X34870Y-53080D01*
X34852Y-53081D01*
X34836Y-53083D01*
X34832Y-53084D01*
X34808Y-53094D01*
X34786Y-53108D01*
X34768Y-53126D01*
X34754Y-53149D01*
X34751Y-53156D01*
X34747Y-53167D01*
X34744Y-53177D01*
X34743Y-53185D01*
X34743Y-53186D01*
X34742Y-53187D01*
X34741Y-53184D01*
X34739Y-53177D01*
X34734Y-53160D01*
X34724Y-53139D01*
X34709Y-53120D01*
X34691Y-53103D01*
X34669Y-53091D01*
X34669Y-53090D01*
X34647Y-53083D01*
X34622Y-53080D01*
X34597Y-53082D01*
X34574Y-53088D01*
X34561Y-53095D01*
X34540Y-53109D01*
X34522Y-53127D01*
X34509Y-53149D01*
X34500Y-53173D01*
X34499Y-53178D01*
X34496Y-53198D01*
X34497Y-53217D01*
X34502Y-53239D01*
X34512Y-53263D01*
X34527Y-53283D01*
X34546Y-53300D01*
X34568Y-53314D01*
X34593Y-53322D01*
X34598Y-53324D01*
X34603Y-53325D01*
X34603Y-53326D01*
X34595Y-53327D01*
X34581Y-53331D01*
X34566Y-53337D01*
X34552Y-53345D01*
X34538Y-53356D01*
X34521Y-53374D01*
X34507Y-53397D01*
X34506Y-53401D01*
X34499Y-53425D01*
X34497Y-53450D01*
X34499Y-53475D01*
X34508Y-53498D01*
X34513Y-53509D01*
X34521Y-53521D01*
X34531Y-53532D01*
X34532Y-53533D01*
X34552Y-53550D01*
X34573Y-53561D01*
X34598Y-53568D01*
X34601Y-53569D01*
X34625Y-53570D01*
X34625Y-53570D01*
G37*
G54D14*
X35192Y-46594D02*
X34817Y-46594D01*
X34817Y-46594D02*
X34817Y-47893D01*
X35192Y-47893D02*
X34817Y-47893D01*
X35192Y-46594D02*
X35192Y-47893D01*
X33682Y-46594D02*
X33308Y-46594D01*
X33308Y-46594D02*
X33308Y-47893D01*
X33682Y-47893D02*
X33308Y-47893D01*
X33682Y-46594D02*
X33682Y-47893D01*
G54D15*
X34832Y-47874D02*
X33672Y-47874D01*
X34822Y-46614D02*
X33672Y-46614D01*
G54D14*
X29802Y-43639D02*
X29802Y-43384D01*
X29802Y-43384D02*
X29251Y-43384D01*
X29251Y-43639D02*
X29251Y-43384D01*
X29802Y-43639D02*
X29251Y-43639D01*
X29802Y-44219D02*
X29802Y-43963D01*
X29802Y-43963D02*
X29251Y-43963D01*
X29251Y-44219D02*
X29251Y-43963D01*
X29802Y-44219D02*
X29251Y-44219D01*
X29723Y-43877D02*
X29723Y-43721D01*
X29723Y-43721D02*
X29331Y-43721D01*
X29331Y-43877D02*
X29331Y-43721D01*
X29723Y-43877D02*
X29331Y-43877D01*
G54D16*
X29277Y-43960D02*
X29277Y-43638D01*
X29777Y-43960D02*
X29777Y-43638D01*
G54D17*
X29140Y-44575D02*
X29140Y-43023D01*
X29140Y-43023D02*
X29914Y-43023D01*
X29914Y-43023D02*
X29914Y-44575D01*
X29914Y-44575D02*
X29140Y-44575D01*
G54D14*
X25555Y-41624D02*
X25850Y-41624D01*
X25850Y-41624D02*
X25850Y-41054D01*
X25555Y-41054D02*
X25850Y-41054D01*
X25555Y-41624D02*
X25555Y-41054D01*
X26124Y-41624D02*
X26419Y-41624D01*
X26419Y-41624D02*
X26419Y-41054D01*
X26124Y-41054D02*
X26419Y-41054D01*
X26124Y-41624D02*
X26124Y-41054D01*
X25945Y-41496D02*
X26023Y-41496D01*
X26023Y-41496D02*
X26023Y-41182D01*
X25945Y-41182D02*
X26023Y-41182D01*
X25945Y-41496D02*
X25945Y-41182D01*
G54D17*
X25208Y-40952D02*
X26760Y-40952D01*
X26760Y-41726D02*
X25208Y-41726D01*
X25208Y-41726D02*
X25208Y-40952D01*
G54D15*
X25834Y-41080D02*
X26134Y-41080D01*
X25844Y-41598D02*
X26134Y-41598D01*
G54D17*
X26760Y-40952D02*
X26760Y-41726D01*
G54D14*
X25555Y-42706D02*
X25850Y-42706D01*
X25850Y-42706D02*
X25850Y-42136D01*
X25555Y-42136D02*
X25850Y-42136D01*
X25555Y-42706D02*
X25555Y-42136D01*
X26124Y-42706D02*
X26419Y-42706D01*
X26419Y-42706D02*
X26419Y-42136D01*
X26124Y-42136D02*
X26419Y-42136D01*
X26124Y-42706D02*
X26124Y-42136D01*
X25945Y-42578D02*
X26023Y-42578D01*
X26023Y-42578D02*
X26023Y-42264D01*
X25945Y-42264D02*
X26023Y-42264D01*
X25945Y-42578D02*
X25945Y-42264D01*
G54D17*
X25208Y-42034D02*
X26760Y-42034D01*
X26760Y-42808D02*
X25208Y-42808D01*
X25208Y-42808D02*
X25208Y-42034D01*
G54D15*
X25834Y-42162D02*
X26134Y-42162D01*
X25844Y-42680D02*
X26134Y-42680D01*
G54D17*
X26760Y-42034D02*
X26760Y-42808D01*
G54D14*
X42091Y-41624D02*
X42386Y-41624D01*
X42386Y-41624D02*
X42386Y-41054D01*
X42091Y-41054D02*
X42386Y-41054D01*
X42091Y-41624D02*
X42091Y-41054D01*
X42660Y-41624D02*
X42955Y-41624D01*
X42955Y-41624D02*
X42955Y-41054D01*
X42660Y-41054D02*
X42955Y-41054D01*
X42660Y-41624D02*
X42660Y-41054D01*
X42481Y-41496D02*
X42559Y-41496D01*
X42559Y-41496D02*
X42559Y-41182D01*
X42481Y-41182D02*
X42559Y-41182D01*
X42481Y-41496D02*
X42481Y-41182D01*
G54D17*
X41744Y-40952D02*
X43296Y-40952D01*
X43296Y-41726D02*
X41744Y-41726D01*
X41744Y-41726D02*
X41744Y-40952D01*
G54D15*
X42370Y-41080D02*
X42670Y-41080D01*
X42380Y-41598D02*
X42670Y-41598D01*
G54D17*
X43296Y-40952D02*
X43296Y-41726D01*
G54D14*
X42091Y-42706D02*
X42386Y-42706D01*
X42386Y-42706D02*
X42386Y-42136D01*
X42091Y-42136D02*
X42386Y-42136D01*
X42091Y-42706D02*
X42091Y-42136D01*
X42660Y-42706D02*
X42955Y-42706D01*
X42955Y-42706D02*
X42955Y-42136D01*
X42660Y-42136D02*
X42955Y-42136D01*
X42660Y-42706D02*
X42660Y-42136D01*
X42481Y-42578D02*
X42559Y-42578D01*
X42559Y-42578D02*
X42559Y-42264D01*
X42481Y-42264D02*
X42559Y-42264D01*
X42481Y-42578D02*
X42481Y-42264D01*
G54D17*
X41744Y-42034D02*
X43296Y-42034D01*
X43296Y-42808D02*
X41744Y-42808D01*
X41744Y-42808D02*
X41744Y-42034D01*
G54D15*
X42370Y-42162D02*
X42670Y-42162D01*
X42380Y-42680D02*
X42670Y-42680D01*
G54D17*
X43296Y-42034D02*
X43296Y-42808D01*
G54D14*
X33581Y-42264D02*
X33877Y-42264D01*
X33877Y-42264D02*
X33877Y-41595D01*
X33581Y-41595D02*
X33877Y-41595D01*
X33581Y-42264D02*
X33581Y-41595D01*
X34625Y-42263D02*
X34921Y-42263D01*
X34921Y-42263D02*
X34921Y-41594D01*
X34625Y-41594D02*
X34921Y-41594D01*
X34625Y-42263D02*
X34625Y-41594D01*
X34173Y-42086D02*
X34329Y-42086D01*
X34329Y-42086D02*
X34329Y-41772D01*
X34173Y-41772D02*
X34329Y-41772D01*
X34173Y-42086D02*
X34173Y-41772D01*
G54D17*
X33278Y-41542D02*
X35224Y-41542D01*
X35224Y-42316D02*
X33278Y-42316D01*
X33278Y-42316D02*
X33278Y-41542D01*
X35224Y-41542D02*
X35224Y-42316D01*
G54D15*
X33872Y-41620D02*
X34630Y-41620D01*
X33872Y-42238D02*
X34630Y-42238D01*
G54D14*
X37235Y-44729D02*
X37235Y-44434D01*
X37235Y-44434D02*
X36665Y-44434D01*
X36665Y-44729D02*
X36665Y-44434D01*
X37235Y-44729D02*
X36665Y-44729D01*
X37235Y-44160D02*
X37235Y-43865D01*
X37235Y-43865D02*
X36665Y-43865D01*
X36665Y-44160D02*
X36665Y-43865D01*
X37235Y-44160D02*
X36665Y-44160D01*
X37107Y-44339D02*
X37107Y-44261D01*
X37107Y-44261D02*
X36793Y-44261D01*
X36793Y-44339D02*
X36793Y-44261D01*
X37107Y-44339D02*
X36793Y-44339D01*
G54D17*
X36563Y-45076D02*
X36563Y-43524D01*
X37337Y-43524D02*
X37337Y-45076D01*
X37337Y-45076D02*
X36563Y-45076D01*
G54D15*
X36691Y-44450D02*
X36691Y-44150D01*
X37209Y-44440D02*
X37209Y-44150D01*
G54D17*
X36563Y-43524D02*
X37337Y-43524D01*
G54D14*
X36225Y-44140D02*
X36225Y-43885D01*
X36225Y-43885D02*
X35674Y-43885D01*
X35674Y-44140D02*
X35674Y-43885D01*
X36225Y-44140D02*
X35674Y-44140D01*
X36225Y-44720D02*
X36225Y-44464D01*
X36225Y-44464D02*
X35674Y-44464D01*
X35674Y-44720D02*
X35674Y-44464D01*
X36225Y-44720D02*
X35674Y-44720D01*
X36146Y-44378D02*
X36146Y-44222D01*
X36146Y-44222D02*
X35754Y-44222D01*
X35754Y-44378D02*
X35754Y-44222D01*
X36146Y-44378D02*
X35754Y-44378D01*
G54D16*
X35700Y-44461D02*
X35700Y-44139D01*
X36200Y-44461D02*
X36200Y-44139D01*
G54D17*
X35563Y-45076D02*
X35563Y-43524D01*
X35563Y-43524D02*
X36337Y-43524D01*
X36337Y-43524D02*
X36337Y-45076D01*
X36337Y-45076D02*
X35563Y-45076D01*
G54D14*
X36360Y-42270D02*
X36540Y-42270D01*
X36540Y-42270D02*
X36540Y-42041D01*
X36360Y-42041D02*
X36540Y-42041D01*
X36360Y-42270D02*
X36360Y-42041D01*
X36730Y-43059D02*
X36910Y-43059D01*
X36910Y-43059D02*
X36910Y-42830D01*
X36730Y-42830D02*
X36910Y-42830D01*
X36730Y-43059D02*
X36730Y-42830D01*
X35990Y-43059D02*
X36170Y-43059D01*
X36170Y-43059D02*
X36170Y-42830D01*
X35990Y-42830D02*
X36170Y-42830D01*
X35990Y-43059D02*
X35990Y-42830D01*
X36254Y-42668D02*
X36646Y-42668D01*
X36646Y-42668D02*
X36646Y-42432D01*
X36254Y-42432D02*
X36646Y-42432D01*
X36254Y-42668D02*
X36254Y-42432D01*
G54D17*
X35674Y-41770D02*
X37226Y-41770D01*
X37226Y-43330D02*
X35674Y-43330D01*
X35674Y-43330D02*
X35674Y-41770D01*
X37226Y-41770D02*
X37226Y-43330D01*
G54D16*
X37009Y-42291D02*
X37009Y-42809D01*
X37009Y-42809D02*
X35891Y-42809D01*
X35891Y-42809D02*
X35891Y-42291D01*
X35891Y-42291D02*
X37009Y-42291D01*
G54D14*
X37263Y-47084D02*
X37263Y-46829D01*
X37263Y-46829D02*
X36712Y-46829D01*
X36712Y-47084D02*
X36712Y-46829D01*
X37263Y-47084D02*
X36712Y-47084D01*
X37263Y-47664D02*
X37263Y-47408D01*
X37263Y-47408D02*
X36712Y-47408D01*
X36712Y-47664D02*
X36712Y-47408D01*
X37263Y-47664D02*
X36712Y-47664D01*
X37184Y-47322D02*
X37184Y-47166D01*
X37184Y-47166D02*
X36792Y-47166D01*
X36792Y-47322D02*
X36792Y-47166D01*
X37184Y-47322D02*
X36792Y-47322D01*
G54D16*
X36738Y-47405D02*
X36738Y-47083D01*
X37238Y-47405D02*
X37238Y-47083D01*
G54D17*
X36601Y-48020D02*
X36601Y-46468D01*
X36601Y-46468D02*
X37375Y-46468D01*
X37375Y-46468D02*
X37375Y-48020D01*
X37375Y-48020D02*
X36601Y-48020D01*
G54D12*
X26536Y-44244D02*
X23347Y-44244D01*
X23347Y-44244D02*
X23347Y-50244D01*
X23347Y-50244D02*
X26536Y-50244D01*
X26536Y-44244D02*
X26536Y-50244D01*
X43070Y-44244D02*
X43070Y-50244D01*
X42086Y-50244D02*
X43070Y-50244D01*
X42086Y-44244D02*
X43070Y-44244D01*
X42086Y-50244D02*
X42086Y-44244D01*
X43070Y-44744D02*
X45433Y-44744D01*
X43070Y-45744D02*
X45433Y-45744D01*
X43070Y-46744D02*
X45433Y-46744D01*
X45433Y-47744D02*
X43070Y-47744D01*
X43070Y-48744D02*
X45433Y-48744D01*
X43070Y-49744D02*
X45433Y-49744D01*
X42086Y-45244D02*
X43070Y-45244D01*
X42086Y-46244D02*
X43070Y-46244D01*
X42086Y-49244D02*
X43070Y-49244D01*
X42086Y-48244D02*
X43070Y-48244D01*
X42086Y-47244D02*
X43070Y-47244D01*
X31555Y-44803D02*
X31555Y-44999D01*
X31555Y-44999D02*
X32421Y-44999D01*
X32421Y-44999D02*
X32421Y-44803D01*
X31555Y-42991D02*
X31555Y-42795D01*
X31555Y-42795D02*
X32421Y-42795D01*
X32421Y-42795D02*
X32421Y-42991D01*
X31988Y-44133D02*
X31988Y-44803D01*
X31437Y-43621D02*
X32539Y-43621D01*
X31988Y-43543D02*
X31988Y-42991D01*
X31988Y-43583D02*
X31437Y-44134D01*
X31437Y-44133D02*
X32539Y-44133D01*
X32539Y-44133D02*
X31988Y-43582D01*
X31201Y-44803D02*
X31201Y-42991D01*
X31201Y-42991D02*
X32775Y-42991D01*
X32775Y-42991D02*
X32775Y-44803D01*
X32775Y-44803D02*
X31201Y-44803D01*
X38976Y-40787D02*
X38976Y-41141D01*
X38976Y-40314D02*
X38976Y-39960D01*
X38661Y-40315D02*
X39291Y-40315D01*
X38464Y-39960D02*
X39488Y-39960D01*
X38464Y-41142D02*
X39488Y-41142D01*
X38976Y-40787D02*
X39291Y-40787D01*
X38976Y-40787D02*
X38661Y-40787D01*
X38976Y-40748D02*
X38661Y-40315D01*
X39291Y-40315D02*
X38976Y-40748D01*
X38464Y-41930D02*
X38464Y-39174D01*
X38464Y-39174D02*
X39488Y-39174D01*
X39488Y-39174D02*
X39488Y-41930D01*
X39488Y-41930D02*
X38464Y-41930D01*
X38976Y-54173D02*
X38976Y-54527D01*
X38976Y-53700D02*
X38976Y-53346D01*
X38661Y-53701D02*
X39291Y-53701D01*
X38464Y-53346D02*
X39488Y-53346D01*
X38464Y-54528D02*
X39488Y-54528D01*
X38976Y-54173D02*
X39291Y-54173D01*
X38976Y-54173D02*
X38661Y-54173D01*
X38976Y-54134D02*
X38661Y-53701D01*
X39291Y-53701D02*
X38976Y-54134D01*
X38464Y-55316D02*
X38464Y-52560D01*
X38464Y-52560D02*
X39488Y-52560D01*
X39488Y-52560D02*
X39488Y-55316D01*
X39488Y-55316D02*
X38464Y-55316D01*
X29528Y-53700D02*
X29528Y-53346D01*
X29528Y-54173D02*
X29528Y-54527D01*
X29843Y-54173D02*
X29213Y-54173D01*
X30040Y-54528D02*
X29016Y-54528D01*
X30040Y-53346D02*
X29016Y-53346D01*
X29528Y-53701D02*
X29213Y-53701D01*
X29528Y-53701D02*
X29843Y-53701D01*
X29528Y-53740D02*
X29843Y-54173D01*
X29213Y-54173D02*
X29528Y-53740D01*
X30040Y-52558D02*
X30040Y-55314D01*
X30040Y-55314D02*
X29016Y-55314D01*
X29016Y-55314D02*
X29016Y-52558D01*
X29016Y-52558D02*
X30040Y-52558D01*
X38976Y-47480D02*
X38976Y-47834D01*
X38976Y-47007D02*
X38976Y-46653D01*
X38661Y-47008D02*
X39291Y-47008D01*
X38464Y-46653D02*
X39488Y-46653D01*
X38464Y-47835D02*
X39488Y-47835D01*
X38976Y-47480D02*
X39291Y-47480D01*
X38976Y-47480D02*
X38661Y-47480D01*
X38976Y-47441D02*
X38661Y-47008D01*
X39291Y-47008D02*
X38976Y-47441D01*
X38464Y-48623D02*
X38464Y-45867D01*
X38464Y-45867D02*
X39488Y-45867D01*
X39488Y-45867D02*
X39488Y-48623D01*
X39488Y-48623D02*
X38464Y-48623D01*
X29528Y-47007D02*
X29528Y-46653D01*
X29528Y-47480D02*
X29528Y-47834D01*
X29843Y-47480D02*
X29213Y-47480D01*
X30040Y-47835D02*
X29016Y-47835D01*
X30040Y-46653D02*
X29016Y-46653D01*
X29528Y-47008D02*
X29213Y-47008D01*
X29528Y-47008D02*
X29843Y-47008D01*
X29528Y-47047D02*
X29843Y-47480D01*
X29213Y-47480D02*
X29528Y-47047D01*
X30040Y-45865D02*
X30040Y-48621D01*
X30040Y-48621D02*
X29016Y-48621D01*
X29016Y-48621D02*
X29016Y-45865D01*
X29016Y-45865D02*
X30040Y-45865D01*
X29528Y-40314D02*
X29528Y-39960D01*
X29528Y-40787D02*
X29528Y-41141D01*
X29843Y-40787D02*
X29213Y-40787D01*
X30040Y-41142D02*
X29016Y-41142D01*
X30040Y-39960D02*
X29016Y-39960D01*
X29528Y-40315D02*
X29213Y-40315D01*
X29528Y-40315D02*
X29843Y-40315D01*
X29528Y-40354D02*
X29843Y-40787D01*
X29213Y-40787D02*
X29528Y-40354D01*
X30040Y-39172D02*
X30040Y-41928D01*
X30040Y-41928D02*
X29016Y-41928D01*
X29016Y-41928D02*
X29016Y-39172D01*
X29016Y-39172D02*
X30040Y-39172D01*
X43420Y-38976D02*
G75*
G03X43420Y-38976I-900J0D01*
G74*
G01*
X26884Y-55512D02*
G75*
G03X26884Y-55512I-900J0D01*
G74*
G01*
X43420Y-55512D02*
G75*
G03X43420Y-55512I-900J0D01*
G74*
G01*
X26884Y-38976D02*
G75*
G03X26884Y-38976I-900J0D01*
G74*
G01*
G54D11*
X33947Y-45449D02*
X33947Y-45773D01*
X33966Y-45811D01*
X33985Y-45830D01*
X34023Y-45849D01*
X34099Y-45849D01*
X34137Y-45830D01*
X34156Y-45811D01*
X34175Y-45773D01*
X34175Y-45449D01*
X34575Y-45849D02*
X34347Y-45849D01*
X34461Y-45849D02*
X34461Y-45449D01*
X34423Y-45506D01*
X34385Y-45544D01*
X34347Y-45563D01*
X34185Y-48999D02*
X33994Y-48999D01*
X33994Y-48599D01*
X34528Y-48999D02*
X34299Y-48999D01*
X34413Y-48999D02*
X34413Y-48599D01*
X34375Y-48656D01*
X34337Y-48695D01*
X34299Y-48714D01*
X28724Y-44408D02*
X28534Y-44542D01*
X28724Y-44637D02*
X28324Y-44637D01*
X28324Y-44484D01*
X28343Y-44446D01*
X28362Y-44427D01*
X28400Y-44408D01*
X28457Y-44408D01*
X28495Y-44427D01*
X28514Y-44446D01*
X28534Y-44484D01*
X28534Y-44637D01*
X28762Y-44332D02*
X28762Y-44027D01*
X28686Y-43703D02*
X28705Y-43723D01*
X28724Y-43780D01*
X28724Y-43818D01*
X28705Y-43875D01*
X28667Y-43913D01*
X28629Y-43932D01*
X28553Y-43951D01*
X28495Y-43951D01*
X28419Y-43932D01*
X28381Y-43913D01*
X28343Y-43875D01*
X28324Y-43818D01*
X28324Y-43780D01*
X28343Y-43723D01*
X28362Y-43703D01*
X28705Y-43551D02*
X28724Y-43494D01*
X28724Y-43399D01*
X28705Y-43361D01*
X28686Y-43342D01*
X28648Y-43323D01*
X28610Y-43323D01*
X28572Y-43342D01*
X28553Y-43361D01*
X28534Y-43399D01*
X28514Y-43475D01*
X28495Y-43513D01*
X28476Y-43532D01*
X28438Y-43551D01*
X28400Y-43551D01*
X28362Y-43532D01*
X28343Y-43513D01*
X28324Y-43475D01*
X28324Y-43380D01*
X28343Y-43323D01*
X28724Y-42942D02*
X28724Y-43170D01*
X28724Y-43056D02*
X28324Y-43056D01*
X28381Y-43094D01*
X28419Y-43132D01*
X28438Y-43170D01*
X27098Y-41481D02*
X27079Y-41500D01*
X27022Y-41519D01*
X26984Y-41519D01*
X26926Y-41500D01*
X26888Y-41462D01*
X26869Y-41424D01*
X26850Y-41348D01*
X26850Y-41291D01*
X26869Y-41215D01*
X26888Y-41177D01*
X26926Y-41139D01*
X26984Y-41119D01*
X27022Y-41119D01*
X27079Y-41139D01*
X27098Y-41158D01*
X27250Y-41158D02*
X27269Y-41139D01*
X27307Y-41119D01*
X27403Y-41119D01*
X27441Y-41139D01*
X27460Y-41158D01*
X27479Y-41196D01*
X27479Y-41234D01*
X27460Y-41291D01*
X27231Y-41519D01*
X27479Y-41519D01*
X27098Y-42563D02*
X27079Y-42582D01*
X27022Y-42601D01*
X26984Y-42601D01*
X26926Y-42582D01*
X26888Y-42544D01*
X26869Y-42506D01*
X26850Y-42430D01*
X26850Y-42373D01*
X26869Y-42297D01*
X26888Y-42259D01*
X26926Y-42221D01*
X26984Y-42201D01*
X27022Y-42201D01*
X27079Y-42221D01*
X27098Y-42240D01*
X27231Y-42201D02*
X27479Y-42201D01*
X27345Y-42354D01*
X27403Y-42354D01*
X27441Y-42373D01*
X27460Y-42392D01*
X27479Y-42430D01*
X27479Y-42525D01*
X27460Y-42563D01*
X27441Y-42582D01*
X27403Y-42601D01*
X27288Y-42601D01*
X27250Y-42582D01*
X27231Y-42563D01*
X41272Y-41481D02*
X41253Y-41500D01*
X41196Y-41519D01*
X41158Y-41519D01*
X41100Y-41500D01*
X41062Y-41462D01*
X41043Y-41424D01*
X41024Y-41348D01*
X41024Y-41291D01*
X41043Y-41215D01*
X41062Y-41177D01*
X41100Y-41139D01*
X41158Y-41119D01*
X41196Y-41119D01*
X41253Y-41139D01*
X41272Y-41158D01*
X41615Y-41253D02*
X41615Y-41519D01*
X41519Y-41100D02*
X41424Y-41386D01*
X41672Y-41386D01*
X41272Y-42563D02*
X41253Y-42582D01*
X41196Y-42601D01*
X41158Y-42601D01*
X41100Y-42582D01*
X41062Y-42544D01*
X41043Y-42506D01*
X41024Y-42430D01*
X41024Y-42373D01*
X41043Y-42297D01*
X41062Y-42259D01*
X41100Y-42221D01*
X41158Y-42201D01*
X41196Y-42201D01*
X41253Y-42221D01*
X41272Y-42240D01*
X41634Y-42201D02*
X41443Y-42201D01*
X41424Y-42392D01*
X41443Y-42373D01*
X41481Y-42354D01*
X41577Y-42354D01*
X41615Y-42373D01*
X41634Y-42392D01*
X41653Y-42430D01*
X41653Y-42525D01*
X41634Y-42563D01*
X41615Y-42582D01*
X41577Y-42601D01*
X41481Y-42601D01*
X41443Y-42582D01*
X41424Y-42563D01*
X34183Y-41392D02*
X34164Y-41411D01*
X34107Y-41430D01*
X34069Y-41430D01*
X34011Y-41411D01*
X33973Y-41373D01*
X33954Y-41335D01*
X33935Y-41259D01*
X33935Y-41202D01*
X33954Y-41126D01*
X33973Y-41088D01*
X34011Y-41050D01*
X34069Y-41030D01*
X34107Y-41030D01*
X34164Y-41050D01*
X34183Y-41069D01*
X34564Y-41430D02*
X34335Y-41430D01*
X34450Y-41430D02*
X34450Y-41030D01*
X34411Y-41088D01*
X34373Y-41126D01*
X34335Y-41145D01*
X36883Y-45623D02*
X36864Y-45643D01*
X36807Y-45662D01*
X36769Y-45662D01*
X36711Y-45643D01*
X36673Y-45604D01*
X36654Y-45566D01*
X36635Y-45490D01*
X36635Y-45433D01*
X36654Y-45357D01*
X36673Y-45319D01*
X36711Y-45281D01*
X36769Y-45262D01*
X36807Y-45262D01*
X36864Y-45281D01*
X36883Y-45300D01*
X37226Y-45262D02*
X37150Y-45262D01*
X37111Y-45281D01*
X37092Y-45300D01*
X37054Y-45357D01*
X37035Y-45433D01*
X37035Y-45585D01*
X37054Y-45623D01*
X37073Y-45643D01*
X37111Y-45662D01*
X37188Y-45662D01*
X37226Y-45643D01*
X37245Y-45623D01*
X37264Y-45585D01*
X37264Y-45490D01*
X37245Y-45452D01*
X37226Y-45433D01*
X37188Y-45414D01*
X37111Y-45414D01*
X37073Y-45433D01*
X37054Y-45452D01*
X37035Y-45490D01*
X35883Y-45662D02*
X35750Y-45471D01*
X35654Y-45662D02*
X35654Y-45262D01*
X35807Y-45262D01*
X35845Y-45281D01*
X35864Y-45300D01*
X35883Y-45338D01*
X35883Y-45395D01*
X35864Y-45433D01*
X35845Y-45452D01*
X35807Y-45471D01*
X35654Y-45471D01*
X36264Y-45662D02*
X36035Y-45662D01*
X36150Y-45662D02*
X36150Y-45262D01*
X36111Y-45319D01*
X36073Y-45357D01*
X36035Y-45376D01*
X35964Y-41549D02*
X35964Y-41149D01*
X36059Y-41149D01*
X36116Y-41168D01*
X36154Y-41206D01*
X36173Y-41245D01*
X36192Y-41321D01*
X36192Y-41378D01*
X36173Y-41454D01*
X36154Y-41492D01*
X36116Y-41530D01*
X36059Y-41549D01*
X35964Y-41549D01*
X36326Y-41149D02*
X36592Y-41149D01*
X36326Y-41549D01*
X36592Y-41549D01*
X36954Y-41549D02*
X36726Y-41549D01*
X36840Y-41549D02*
X36840Y-41149D01*
X36802Y-41206D01*
X36764Y-41245D01*
X36726Y-41264D01*
X36921Y-48645D02*
X36788Y-48454D01*
X36692Y-48645D02*
X36692Y-48245D01*
X36845Y-48245D01*
X36883Y-48264D01*
X36902Y-48283D01*
X36921Y-48321D01*
X36921Y-48378D01*
X36902Y-48416D01*
X36883Y-48435D01*
X36845Y-48454D01*
X36692Y-48454D01*
X37073Y-48283D02*
X37092Y-48264D01*
X37131Y-48245D01*
X37226Y-48245D01*
X37264Y-48264D01*
X37283Y-48283D01*
X37302Y-48321D01*
X37302Y-48359D01*
X37283Y-48416D01*
X37054Y-48645D01*
X37302Y-48645D01*
G54D12*
X30916Y-44375D02*
X30522Y-44375D01*
X30522Y-44281D01*
X30541Y-44225D01*
X30578Y-44188D01*
X30616Y-44169D01*
X30691Y-44150D01*
X30747Y-44150D01*
X30822Y-44169D01*
X30860Y-44188D01*
X30897Y-44225D01*
X30916Y-44281D01*
X30916Y-44375D01*
X30897Y-44000D02*
X30916Y-43944D01*
X30916Y-43850D01*
X30897Y-43813D01*
X30878Y-43794D01*
X30841Y-43775D01*
X30803Y-43775D01*
X30766Y-43794D01*
X30747Y-43813D01*
X30728Y-43850D01*
X30710Y-43925D01*
X30691Y-43963D01*
X30672Y-43982D01*
X30635Y-44000D01*
X30597Y-44000D01*
X30560Y-43982D01*
X30541Y-43963D01*
X30522Y-43925D01*
X30522Y-43832D01*
X30541Y-43775D01*
X30916Y-43400D02*
X30916Y-43625D01*
X30916Y-43513D02*
X30522Y-43513D01*
X30578Y-43550D01*
X30616Y-43588D01*
X30635Y-43625D01*
X38228Y-40841D02*
X37835Y-40841D01*
X37835Y-40747D01*
X37853Y-40691D01*
X37891Y-40654D01*
X37928Y-40635D01*
X38003Y-40616D01*
X38060Y-40616D01*
X38135Y-40635D01*
X38172Y-40654D01*
X38210Y-40691D01*
X38228Y-40747D01*
X38228Y-40841D01*
X37872Y-40466D02*
X37853Y-40447D01*
X37835Y-40410D01*
X37835Y-40316D01*
X37853Y-40279D01*
X37872Y-40260D01*
X37910Y-40241D01*
X37947Y-40241D01*
X38003Y-40260D01*
X38228Y-40485D01*
X38228Y-40241D01*
X40226Y-40804D02*
X40226Y-40991D01*
X39833Y-40991D01*
X40020Y-40672D02*
X40020Y-40541D01*
X40226Y-40485D02*
X40226Y-40672D01*
X39833Y-40672D01*
X39833Y-40485D01*
X40226Y-40316D02*
X39833Y-40316D01*
X39833Y-40222D01*
X39851Y-40166D01*
X39889Y-40129D01*
X39926Y-40110D01*
X40001Y-40091D01*
X40058Y-40091D01*
X40133Y-40110D01*
X40170Y-40129D01*
X40208Y-40166D01*
X40226Y-40222D01*
X40226Y-40316D01*
X38228Y-54227D02*
X37835Y-54227D01*
X37835Y-54133D01*
X37853Y-54077D01*
X37891Y-54040D01*
X37928Y-54021D01*
X38003Y-54002D01*
X38060Y-54002D01*
X38135Y-54021D01*
X38172Y-54040D01*
X38210Y-54077D01*
X38228Y-54133D01*
X38228Y-54227D01*
X37966Y-53665D02*
X38228Y-53665D01*
X37816Y-53758D02*
X38097Y-53852D01*
X38097Y-53608D01*
X40226Y-54190D02*
X40226Y-54377D01*
X39833Y-54377D01*
X40020Y-54058D02*
X40020Y-53927D01*
X40226Y-53871D02*
X40226Y-54058D01*
X39833Y-54058D01*
X39833Y-53871D01*
X40226Y-53702D02*
X39833Y-53702D01*
X39833Y-53608D01*
X39851Y-53552D01*
X39889Y-53515D01*
X39926Y-53496D01*
X40001Y-53477D01*
X40058Y-53477D01*
X40133Y-53496D01*
X40170Y-53515D01*
X40208Y-53552D01*
X40226Y-53608D01*
X40226Y-53702D01*
X30631Y-54227D02*
X30237Y-54227D01*
X30237Y-54133D01*
X30256Y-54077D01*
X30293Y-54040D01*
X30331Y-54021D01*
X30406Y-54002D01*
X30462Y-54002D01*
X30537Y-54021D01*
X30575Y-54040D01*
X30612Y-54077D01*
X30631Y-54133D01*
X30631Y-54227D01*
X30237Y-53646D02*
X30237Y-53833D01*
X30425Y-53852D01*
X30406Y-53833D01*
X30387Y-53796D01*
X30387Y-53702D01*
X30406Y-53665D01*
X30425Y-53646D01*
X30462Y-53627D01*
X30556Y-53627D01*
X30593Y-53646D01*
X30612Y-53665D01*
X30631Y-53702D01*
X30631Y-53796D01*
X30612Y-53833D01*
X30593Y-53852D01*
X28633Y-54190D02*
X28633Y-54377D01*
X28239Y-54377D01*
X28427Y-54058D02*
X28427Y-53927D01*
X28633Y-53871D02*
X28633Y-54058D01*
X28239Y-54058D01*
X28239Y-53871D01*
X28633Y-53702D02*
X28239Y-53702D01*
X28239Y-53608D01*
X28258Y-53552D01*
X28295Y-53515D01*
X28333Y-53496D01*
X28408Y-53477D01*
X28464Y-53477D01*
X28539Y-53496D01*
X28577Y-53515D01*
X28614Y-53552D01*
X28633Y-53608D01*
X28633Y-53702D01*
X38228Y-47534D02*
X37835Y-47534D01*
X37835Y-47440D01*
X37853Y-47384D01*
X37891Y-47347D01*
X37928Y-47328D01*
X38003Y-47309D01*
X38060Y-47309D01*
X38135Y-47328D01*
X38172Y-47347D01*
X38210Y-47384D01*
X38228Y-47440D01*
X38228Y-47534D01*
X37835Y-47178D02*
X37835Y-46934D01*
X37985Y-47065D01*
X37985Y-47009D01*
X38003Y-46972D01*
X38022Y-46953D01*
X38060Y-46934D01*
X38153Y-46934D01*
X38191Y-46953D01*
X38210Y-46972D01*
X38228Y-47009D01*
X38228Y-47122D01*
X38210Y-47159D01*
X38191Y-47178D01*
X40226Y-47497D02*
X40226Y-47684D01*
X39833Y-47684D01*
X40020Y-47365D02*
X40020Y-47234D01*
X40226Y-47178D02*
X40226Y-47365D01*
X39833Y-47365D01*
X39833Y-47178D01*
X40226Y-47009D02*
X39833Y-47009D01*
X39833Y-46915D01*
X39851Y-46859D01*
X39889Y-46822D01*
X39926Y-46803D01*
X40001Y-46784D01*
X40058Y-46784D01*
X40133Y-46803D01*
X40170Y-46822D01*
X40208Y-46859D01*
X40226Y-46915D01*
X40226Y-47009D01*
X30631Y-47534D02*
X30237Y-47534D01*
X30237Y-47440D01*
X30256Y-47384D01*
X30293Y-47347D01*
X30331Y-47328D01*
X30406Y-47309D01*
X30462Y-47309D01*
X30537Y-47328D01*
X30575Y-47347D01*
X30612Y-47384D01*
X30631Y-47440D01*
X30631Y-47534D01*
X30237Y-46972D02*
X30237Y-47047D01*
X30256Y-47084D01*
X30275Y-47103D01*
X30331Y-47140D01*
X30406Y-47159D01*
X30556Y-47159D01*
X30593Y-47140D01*
X30612Y-47122D01*
X30631Y-47084D01*
X30631Y-47009D01*
X30612Y-46972D01*
X30593Y-46953D01*
X30556Y-46934D01*
X30462Y-46934D01*
X30425Y-46953D01*
X30406Y-46972D01*
X30387Y-47009D01*
X30387Y-47084D01*
X30406Y-47122D01*
X30425Y-47140D01*
X30462Y-47159D01*
X28633Y-47497D02*
X28633Y-47684D01*
X28239Y-47684D01*
X28427Y-47365D02*
X28427Y-47234D01*
X28633Y-47178D02*
X28633Y-47365D01*
X28239Y-47365D01*
X28239Y-47178D01*
X28633Y-47009D02*
X28239Y-47009D01*
X28239Y-46915D01*
X28258Y-46859D01*
X28295Y-46822D01*
X28333Y-46803D01*
X28408Y-46784D01*
X28464Y-46784D01*
X28539Y-46803D01*
X28577Y-46822D01*
X28614Y-46859D01*
X28633Y-46915D01*
X28633Y-47009D01*
X30631Y-40841D02*
X30237Y-40841D01*
X30237Y-40747D01*
X30256Y-40691D01*
X30293Y-40654D01*
X30331Y-40635D01*
X30406Y-40616D01*
X30462Y-40616D01*
X30537Y-40635D01*
X30575Y-40654D01*
X30612Y-40691D01*
X30631Y-40747D01*
X30631Y-40841D01*
X30631Y-40241D02*
X30631Y-40466D01*
X30631Y-40354D02*
X30237Y-40354D01*
X30293Y-40391D01*
X30331Y-40429D01*
X30350Y-40466D01*
X28633Y-40804D02*
X28633Y-40991D01*
X28239Y-40991D01*
X28427Y-40672D02*
X28427Y-40541D01*
X28633Y-40485D02*
X28633Y-40672D01*
X28239Y-40672D01*
X28239Y-40485D01*
X28633Y-40316D02*
X28239Y-40316D01*
X28239Y-40222D01*
X28258Y-40166D01*
X28295Y-40129D01*
X28333Y-40110D01*
X28408Y-40091D01*
X28464Y-40091D01*
X28539Y-40110D01*
X28577Y-40129D01*
X28614Y-40166D01*
X28633Y-40222D01*
X28633Y-40316D01*
M02*
