G04 (created by PCBNEW (2013-01-21 BZR 3918)-testing) date Wed 23 Jan 2013 08:58:22 PM CET*
%MOIN*%
G04 Gerber Fmt 3.4, Leading zero omitted, Abs format*
%FSLAX34Y34*%
G01*
G70*
G90*
G04 APERTURE LIST*
%ADD10C,2.3622e-06*%
%ADD11C,0.16*%
%ADD12R,0.025X0.025*%
%ADD13C,0.065*%
%ADD14C,0.025*%
%ADD15C,0.028*%
%ADD16C,0.00787402*%
%ADD17C,0.008*%
G04 APERTURE END LIST*
G54D10*
G54D11*
X42520Y-38976D03*
G54D12*
X34054Y-43936D03*
X34448Y-43936D03*
X34408Y-43621D03*
X34094Y-43621D03*
X34251Y-43818D03*
X34251Y-44015D03*
G54D11*
X25984Y-55512D03*
X42520Y-55512D03*
X25984Y-38976D03*
G54D13*
X26969Y-46744D03*
X26969Y-47744D03*
X26969Y-45744D03*
X26969Y-44744D03*
X26969Y-48744D03*
X26969Y-49744D03*
X41535Y-47744D03*
X41535Y-46744D03*
X41535Y-48744D03*
X41535Y-49744D03*
X41535Y-45744D03*
X41535Y-44744D03*
G54D14*
X37401Y-49744D03*
X36076Y-42983D03*
X34802Y-41929D03*
X36950Y-43926D03*
X35950Y-43926D03*
X42894Y-41339D03*
X26358Y-41339D03*
X42894Y-42421D03*
X26358Y-42421D03*
G54D15*
X37401Y-49744D02*
X37401Y-49744D01*
X26969Y-49744D02*
X37401Y-49744D01*
X37401Y-49744D02*
X41535Y-49744D01*
X36079Y-42980D02*
X36080Y-42980D01*
X36076Y-42983D02*
X36079Y-42980D01*
X34800Y-41932D02*
X34800Y-41940D01*
X34802Y-41929D02*
X34800Y-41932D01*
X36944Y-43920D02*
X36940Y-43920D01*
X36950Y-43926D02*
X36944Y-43920D01*
X35960Y-43920D02*
X35956Y-43920D01*
X35956Y-43920D02*
X35950Y-43926D01*
X42895Y-41340D02*
X42900Y-41340D01*
X42894Y-41339D02*
X42895Y-41340D01*
X26359Y-41340D02*
X26360Y-41340D01*
X26358Y-41339D02*
X26359Y-41340D01*
X34251Y-43818D02*
X34251Y-44744D01*
X34251Y-44744D02*
X34251Y-44685D01*
X26969Y-44744D02*
X34251Y-44744D01*
X34251Y-44744D02*
X41535Y-44744D01*
X41535Y-43780D02*
X41535Y-44744D01*
X42894Y-42421D02*
X41535Y-43780D01*
X26969Y-43032D02*
X26969Y-44744D01*
X26358Y-42421D02*
X26969Y-43032D01*
X26969Y-45744D02*
X26969Y-44744D01*
X41342Y-45551D02*
X41535Y-45744D01*
X41535Y-44744D02*
X41535Y-44724D01*
X41535Y-44744D02*
X41535Y-45744D01*
X26969Y-47744D02*
X26468Y-47744D01*
X42232Y-47744D02*
X41535Y-47744D01*
X42913Y-48425D02*
X42232Y-47744D01*
X42913Y-50590D02*
X42913Y-48425D01*
X41929Y-51574D02*
X42913Y-50590D01*
X26574Y-51574D02*
X41929Y-51574D01*
X25590Y-50590D02*
X26574Y-51574D01*
X25590Y-48622D02*
X25590Y-50590D01*
X26468Y-47744D02*
X25590Y-48622D01*
G54D10*
G36*
X43858Y-40503D02*
X43858Y-46023D01*
X41999Y-46023D01*
X41915Y-46023D01*
X41935Y-46003D01*
X41915Y-45983D01*
X41944Y-45966D01*
X41980Y-45883D01*
X41998Y-45793D01*
X41999Y-45702D01*
X41999Y-44702D01*
X41982Y-44613D01*
X41949Y-44528D01*
X41944Y-44521D01*
X41880Y-44484D01*
X41794Y-44570D01*
X41794Y-44398D01*
X41757Y-44334D01*
X41674Y-44298D01*
X41584Y-44280D01*
X41493Y-44279D01*
X41404Y-44296D01*
X41319Y-44329D01*
X41312Y-44334D01*
X41275Y-44398D01*
X41535Y-44658D01*
X41794Y-44398D01*
X41794Y-44570D01*
X41620Y-44744D01*
X41880Y-45003D01*
X41944Y-44966D01*
X41980Y-44883D01*
X41998Y-44793D01*
X41999Y-44702D01*
X41999Y-45702D01*
X41982Y-45613D01*
X41949Y-45528D01*
X41944Y-45521D01*
X41880Y-45484D01*
X41794Y-45570D01*
X41794Y-45398D01*
X41794Y-45089D01*
X41535Y-44829D01*
X41449Y-44915D01*
X41449Y-44744D01*
X41189Y-44484D01*
X41125Y-44521D01*
X41089Y-44604D01*
X41071Y-44694D01*
X41070Y-44785D01*
X41087Y-44874D01*
X41120Y-44959D01*
X41125Y-44966D01*
X41189Y-45003D01*
X41449Y-44744D01*
X41449Y-44915D01*
X41275Y-45089D01*
X41312Y-45153D01*
X41395Y-45189D01*
X41485Y-45207D01*
X41576Y-45208D01*
X41665Y-45191D01*
X41750Y-45158D01*
X41757Y-45153D01*
X41794Y-45089D01*
X41794Y-45398D01*
X41757Y-45334D01*
X41674Y-45298D01*
X41584Y-45280D01*
X41493Y-45279D01*
X41404Y-45296D01*
X41319Y-45329D01*
X41312Y-45334D01*
X41275Y-45398D01*
X41535Y-45658D01*
X41794Y-45398D01*
X41794Y-45570D01*
X41648Y-45716D01*
X41620Y-45744D01*
X41535Y-45829D01*
X41449Y-45744D01*
X41421Y-45716D01*
X41189Y-45484D01*
X41125Y-45521D01*
X41089Y-45604D01*
X41071Y-45694D01*
X41070Y-45785D01*
X41087Y-45874D01*
X41120Y-45959D01*
X41125Y-45966D01*
X41154Y-45983D01*
X41134Y-46003D01*
X41154Y-46023D01*
X27433Y-46023D01*
X27349Y-46023D01*
X27369Y-46003D01*
X27349Y-45983D01*
X27378Y-45966D01*
X27414Y-45883D01*
X27432Y-45793D01*
X27433Y-45702D01*
X27433Y-44702D01*
X27416Y-44613D01*
X27383Y-44528D01*
X27378Y-44521D01*
X27314Y-44484D01*
X27228Y-44570D01*
X27228Y-44398D01*
X27191Y-44334D01*
X27108Y-44298D01*
X27018Y-44280D01*
X26927Y-44279D01*
X26838Y-44296D01*
X26753Y-44329D01*
X26746Y-44334D01*
X26709Y-44398D01*
X26969Y-44658D01*
X27228Y-44398D01*
X27228Y-44570D01*
X27054Y-44744D01*
X27314Y-45003D01*
X27378Y-44966D01*
X27414Y-44883D01*
X27432Y-44793D01*
X27433Y-44702D01*
X27433Y-45702D01*
X27416Y-45613D01*
X27383Y-45528D01*
X27378Y-45521D01*
X27314Y-45484D01*
X27228Y-45570D01*
X27228Y-45398D01*
X27228Y-45089D01*
X26969Y-44829D01*
X26883Y-44915D01*
X26883Y-44744D01*
X26623Y-44484D01*
X26559Y-44521D01*
X26523Y-44604D01*
X26505Y-44694D01*
X26504Y-44785D01*
X26521Y-44874D01*
X26554Y-44959D01*
X26559Y-44966D01*
X26623Y-45003D01*
X26883Y-44744D01*
X26883Y-44915D01*
X26709Y-45089D01*
X26746Y-45153D01*
X26829Y-45189D01*
X26919Y-45207D01*
X27010Y-45208D01*
X27099Y-45191D01*
X27184Y-45158D01*
X27191Y-45153D01*
X27228Y-45089D01*
X27228Y-45398D01*
X27191Y-45334D01*
X27108Y-45298D01*
X27018Y-45280D01*
X26927Y-45279D01*
X26838Y-45296D01*
X26753Y-45329D01*
X26746Y-45334D01*
X26709Y-45398D01*
X26969Y-45658D01*
X27228Y-45398D01*
X27228Y-45570D01*
X27082Y-45716D01*
X27054Y-45744D01*
X26969Y-45829D01*
X26968Y-45829D01*
X26883Y-45744D01*
X26855Y-45716D01*
X26855Y-45716D01*
X26623Y-45484D01*
X26559Y-45521D01*
X26523Y-45604D01*
X26505Y-45694D01*
X26504Y-45785D01*
X26521Y-45874D01*
X26554Y-45959D01*
X26559Y-45966D01*
X26588Y-45983D01*
X26568Y-46003D01*
X26588Y-46023D01*
X24645Y-46023D01*
X24645Y-40503D01*
X25945Y-40503D01*
X26101Y-40507D01*
X26396Y-40455D01*
X26676Y-40346D01*
X26929Y-40186D01*
X27146Y-39979D01*
X27319Y-39734D01*
X27441Y-39460D01*
X27507Y-39168D01*
X27509Y-39015D01*
X27511Y-39015D01*
X27511Y-38869D01*
X27512Y-38826D01*
X27511Y-38823D01*
X27511Y-37637D01*
X40992Y-37637D01*
X40992Y-38926D01*
X40989Y-39104D01*
X41043Y-39399D01*
X41154Y-39677D01*
X41316Y-39929D01*
X41524Y-40145D01*
X41770Y-40316D01*
X42045Y-40436D01*
X42338Y-40500D01*
X42480Y-40503D01*
X42480Y-40503D01*
X42481Y-40503D01*
X42637Y-40507D01*
X42656Y-40503D01*
X43858Y-40503D01*
X43858Y-40503D01*
G37*
G54D16*
X43858Y-40503D02*
X43858Y-46023D01*
X41999Y-46023D01*
X41915Y-46023D01*
X41935Y-46003D01*
X41915Y-45983D01*
X41944Y-45966D01*
X41980Y-45883D01*
X41998Y-45793D01*
X41999Y-45702D01*
X41999Y-44702D01*
X41982Y-44613D01*
X41949Y-44528D01*
X41944Y-44521D01*
X41880Y-44484D01*
X41794Y-44570D01*
X41794Y-44398D01*
X41757Y-44334D01*
X41674Y-44298D01*
X41584Y-44280D01*
X41493Y-44279D01*
X41404Y-44296D01*
X41319Y-44329D01*
X41312Y-44334D01*
X41275Y-44398D01*
X41535Y-44658D01*
X41794Y-44398D01*
X41794Y-44570D01*
X41620Y-44744D01*
X41880Y-45003D01*
X41944Y-44966D01*
X41980Y-44883D01*
X41998Y-44793D01*
X41999Y-44702D01*
X41999Y-45702D01*
X41982Y-45613D01*
X41949Y-45528D01*
X41944Y-45521D01*
X41880Y-45484D01*
X41794Y-45570D01*
X41794Y-45398D01*
X41794Y-45089D01*
X41535Y-44829D01*
X41449Y-44915D01*
X41449Y-44744D01*
X41189Y-44484D01*
X41125Y-44521D01*
X41089Y-44604D01*
X41071Y-44694D01*
X41070Y-44785D01*
X41087Y-44874D01*
X41120Y-44959D01*
X41125Y-44966D01*
X41189Y-45003D01*
X41449Y-44744D01*
X41449Y-44915D01*
X41275Y-45089D01*
X41312Y-45153D01*
X41395Y-45189D01*
X41485Y-45207D01*
X41576Y-45208D01*
X41665Y-45191D01*
X41750Y-45158D01*
X41757Y-45153D01*
X41794Y-45089D01*
X41794Y-45398D01*
X41757Y-45334D01*
X41674Y-45298D01*
X41584Y-45280D01*
X41493Y-45279D01*
X41404Y-45296D01*
X41319Y-45329D01*
X41312Y-45334D01*
X41275Y-45398D01*
X41535Y-45658D01*
X41794Y-45398D01*
X41794Y-45570D01*
X41648Y-45716D01*
X41620Y-45744D01*
X41535Y-45829D01*
X41449Y-45744D01*
X41421Y-45716D01*
X41189Y-45484D01*
X41125Y-45521D01*
X41089Y-45604D01*
X41071Y-45694D01*
X41070Y-45785D01*
X41087Y-45874D01*
X41120Y-45959D01*
X41125Y-45966D01*
X41154Y-45983D01*
X41134Y-46003D01*
X41154Y-46023D01*
X27433Y-46023D01*
X27349Y-46023D01*
X27369Y-46003D01*
X27349Y-45983D01*
X27378Y-45966D01*
X27414Y-45883D01*
X27432Y-45793D01*
X27433Y-45702D01*
X27433Y-44702D01*
X27416Y-44613D01*
X27383Y-44528D01*
X27378Y-44521D01*
X27314Y-44484D01*
X27228Y-44570D01*
X27228Y-44398D01*
X27191Y-44334D01*
X27108Y-44298D01*
X27018Y-44280D01*
X26927Y-44279D01*
X26838Y-44296D01*
X26753Y-44329D01*
X26746Y-44334D01*
X26709Y-44398D01*
X26969Y-44658D01*
X27228Y-44398D01*
X27228Y-44570D01*
X27054Y-44744D01*
X27314Y-45003D01*
X27378Y-44966D01*
X27414Y-44883D01*
X27432Y-44793D01*
X27433Y-44702D01*
X27433Y-45702D01*
X27416Y-45613D01*
X27383Y-45528D01*
X27378Y-45521D01*
X27314Y-45484D01*
X27228Y-45570D01*
X27228Y-45398D01*
X27228Y-45089D01*
X26969Y-44829D01*
X26883Y-44915D01*
X26883Y-44744D01*
X26623Y-44484D01*
X26559Y-44521D01*
X26523Y-44604D01*
X26505Y-44694D01*
X26504Y-44785D01*
X26521Y-44874D01*
X26554Y-44959D01*
X26559Y-44966D01*
X26623Y-45003D01*
X26883Y-44744D01*
X26883Y-44915D01*
X26709Y-45089D01*
X26746Y-45153D01*
X26829Y-45189D01*
X26919Y-45207D01*
X27010Y-45208D01*
X27099Y-45191D01*
X27184Y-45158D01*
X27191Y-45153D01*
X27228Y-45089D01*
X27228Y-45398D01*
X27191Y-45334D01*
X27108Y-45298D01*
X27018Y-45280D01*
X26927Y-45279D01*
X26838Y-45296D01*
X26753Y-45329D01*
X26746Y-45334D01*
X26709Y-45398D01*
X26969Y-45658D01*
X27228Y-45398D01*
X27228Y-45570D01*
X27082Y-45716D01*
X27054Y-45744D01*
X26969Y-45829D01*
X26968Y-45829D01*
X26883Y-45744D01*
X26855Y-45716D01*
X26855Y-45716D01*
X26623Y-45484D01*
X26559Y-45521D01*
X26523Y-45604D01*
X26505Y-45694D01*
X26504Y-45785D01*
X26521Y-45874D01*
X26554Y-45959D01*
X26559Y-45966D01*
X26588Y-45983D01*
X26568Y-46003D01*
X26588Y-46023D01*
X24645Y-46023D01*
X24645Y-40503D01*
X25945Y-40503D01*
X26101Y-40507D01*
X26396Y-40455D01*
X26676Y-40346D01*
X26929Y-40186D01*
X27146Y-39979D01*
X27319Y-39734D01*
X27441Y-39460D01*
X27507Y-39168D01*
X27509Y-39015D01*
X27511Y-39015D01*
X27511Y-38869D01*
X27512Y-38826D01*
X27511Y-38823D01*
X27511Y-37637D01*
X40992Y-37637D01*
X40992Y-38926D01*
X40989Y-39104D01*
X41043Y-39399D01*
X41154Y-39677D01*
X41316Y-39929D01*
X41524Y-40145D01*
X41770Y-40316D01*
X42045Y-40436D01*
X42338Y-40500D01*
X42480Y-40503D01*
X42480Y-40503D01*
X42481Y-40503D01*
X42637Y-40507D01*
X42656Y-40503D01*
X43858Y-40503D01*
G54D10*
G36*
X43857Y-53983D02*
X42620Y-53983D01*
X42380Y-53981D01*
X42086Y-54038D01*
X42000Y-54072D01*
X42000Y-47703D01*
X41983Y-47613D01*
X41949Y-47529D01*
X41945Y-47520D01*
X41880Y-47483D01*
X41795Y-47568D01*
X41795Y-47398D01*
X41795Y-47089D01*
X41535Y-46828D01*
X41274Y-47089D01*
X41311Y-47154D01*
X41395Y-47189D01*
X41484Y-47208D01*
X41575Y-47209D01*
X41665Y-47192D01*
X41749Y-47158D01*
X41758Y-47154D01*
X41795Y-47089D01*
X41795Y-47398D01*
X41758Y-47333D01*
X41674Y-47298D01*
X41585Y-47279D01*
X41494Y-47278D01*
X41404Y-47295D01*
X41320Y-47329D01*
X41311Y-47333D01*
X41274Y-47398D01*
X41535Y-47659D01*
X41795Y-47398D01*
X41795Y-47568D01*
X41619Y-47744D01*
X41880Y-48004D01*
X41945Y-47967D01*
X41980Y-47883D01*
X41999Y-47794D01*
X42000Y-47703D01*
X42000Y-54072D01*
X41980Y-54081D01*
X41980Y-49700D01*
X41980Y-48700D01*
X41963Y-48614D01*
X41929Y-48534D01*
X41881Y-48461D01*
X41820Y-48399D01*
X41795Y-48382D01*
X41795Y-48089D01*
X41535Y-47828D01*
X41450Y-47913D01*
X41450Y-47744D01*
X41189Y-47483D01*
X41124Y-47520D01*
X41089Y-47604D01*
X41070Y-47693D01*
X41069Y-47784D01*
X41086Y-47874D01*
X41120Y-47958D01*
X41124Y-47967D01*
X41189Y-48004D01*
X41450Y-47744D01*
X41450Y-47913D01*
X41274Y-48089D01*
X41311Y-48154D01*
X41395Y-48189D01*
X41484Y-48208D01*
X41575Y-48209D01*
X41665Y-48192D01*
X41749Y-48158D01*
X41758Y-48154D01*
X41795Y-48089D01*
X41795Y-48382D01*
X41747Y-48350D01*
X41667Y-48316D01*
X41581Y-48299D01*
X41494Y-48298D01*
X41408Y-48315D01*
X41327Y-48347D01*
X41254Y-48395D01*
X41192Y-48456D01*
X41143Y-48528D01*
X41108Y-48608D01*
X41090Y-48694D01*
X41089Y-48781D01*
X41105Y-48867D01*
X41137Y-48948D01*
X41184Y-49021D01*
X41245Y-49084D01*
X41316Y-49134D01*
X41396Y-49169D01*
X41482Y-49188D01*
X41569Y-49189D01*
X41655Y-49174D01*
X41736Y-49143D01*
X41810Y-49096D01*
X41873Y-49036D01*
X41923Y-48964D01*
X41959Y-48885D01*
X41978Y-48800D01*
X41980Y-48700D01*
X41980Y-49700D01*
X41963Y-49614D01*
X41929Y-49534D01*
X41881Y-49461D01*
X41820Y-49399D01*
X41747Y-49350D01*
X41667Y-49316D01*
X41581Y-49299D01*
X41494Y-49298D01*
X41408Y-49315D01*
X41327Y-49347D01*
X41254Y-49395D01*
X41192Y-49456D01*
X41173Y-49484D01*
X37401Y-49484D01*
X27434Y-49484D01*
X27434Y-47703D01*
X27417Y-47613D01*
X27383Y-47529D01*
X27379Y-47520D01*
X27314Y-47483D01*
X27229Y-47568D01*
X27229Y-47398D01*
X27229Y-47089D01*
X26969Y-46828D01*
X26708Y-47089D01*
X26745Y-47154D01*
X26829Y-47189D01*
X26918Y-47208D01*
X27009Y-47209D01*
X27099Y-47192D01*
X27183Y-47158D01*
X27192Y-47154D01*
X27229Y-47089D01*
X27229Y-47398D01*
X27192Y-47333D01*
X27108Y-47298D01*
X27019Y-47279D01*
X26928Y-47278D01*
X26838Y-47295D01*
X26754Y-47329D01*
X26745Y-47333D01*
X26708Y-47398D01*
X26969Y-47659D01*
X27229Y-47398D01*
X27229Y-47568D01*
X27053Y-47744D01*
X27314Y-48004D01*
X27379Y-47967D01*
X27414Y-47883D01*
X27433Y-47794D01*
X27434Y-47703D01*
X27434Y-49484D01*
X27414Y-49484D01*
X27414Y-48700D01*
X27397Y-48614D01*
X27363Y-48534D01*
X27315Y-48461D01*
X27254Y-48399D01*
X27229Y-48382D01*
X27229Y-48089D01*
X26969Y-47828D01*
X26884Y-47913D01*
X26884Y-47744D01*
X26623Y-47483D01*
X26558Y-47520D01*
X26523Y-47604D01*
X26504Y-47693D01*
X26503Y-47784D01*
X26520Y-47874D01*
X26554Y-47958D01*
X26558Y-47967D01*
X26623Y-48004D01*
X26884Y-47744D01*
X26884Y-47913D01*
X26708Y-48089D01*
X26745Y-48154D01*
X26829Y-48189D01*
X26918Y-48208D01*
X27009Y-48209D01*
X27099Y-48192D01*
X27183Y-48158D01*
X27192Y-48154D01*
X27229Y-48089D01*
X27229Y-48382D01*
X27181Y-48350D01*
X27101Y-48316D01*
X27015Y-48299D01*
X26928Y-48298D01*
X26842Y-48315D01*
X26761Y-48347D01*
X26688Y-48395D01*
X26626Y-48456D01*
X26577Y-48528D01*
X26542Y-48608D01*
X26524Y-48694D01*
X26523Y-48781D01*
X26539Y-48867D01*
X26571Y-48948D01*
X26618Y-49021D01*
X26679Y-49084D01*
X26750Y-49134D01*
X26830Y-49169D01*
X26916Y-49188D01*
X27003Y-49189D01*
X27089Y-49174D01*
X27170Y-49143D01*
X27244Y-49096D01*
X27307Y-49036D01*
X27357Y-48964D01*
X27393Y-48885D01*
X27412Y-48800D01*
X27414Y-48700D01*
X27414Y-49484D01*
X27330Y-49484D01*
X27315Y-49461D01*
X27254Y-49399D01*
X27181Y-49350D01*
X27101Y-49316D01*
X27015Y-49299D01*
X26928Y-49298D01*
X26842Y-49315D01*
X26761Y-49347D01*
X26688Y-49395D01*
X26626Y-49456D01*
X26577Y-49528D01*
X26542Y-49608D01*
X26524Y-49694D01*
X26523Y-49781D01*
X26539Y-49867D01*
X26571Y-49948D01*
X26618Y-50021D01*
X26679Y-50084D01*
X26750Y-50134D01*
X26830Y-50169D01*
X26916Y-50188D01*
X27003Y-50189D01*
X27089Y-50174D01*
X27170Y-50143D01*
X27244Y-50096D01*
X27307Y-50036D01*
X27330Y-50004D01*
X37398Y-50004D01*
X37399Y-50004D01*
X37400Y-50004D01*
X37401Y-50004D01*
X41173Y-50004D01*
X41184Y-50021D01*
X41245Y-50084D01*
X41316Y-50134D01*
X41396Y-50169D01*
X41482Y-50188D01*
X41569Y-50189D01*
X41655Y-50174D01*
X41736Y-50143D01*
X41810Y-50096D01*
X41873Y-50036D01*
X41923Y-49964D01*
X41959Y-49885D01*
X41978Y-49800D01*
X41980Y-49700D01*
X41980Y-54081D01*
X41808Y-54150D01*
X41557Y-54314D01*
X41343Y-54524D01*
X41173Y-54771D01*
X41055Y-55047D01*
X40993Y-55340D01*
X40989Y-55640D01*
X40991Y-55654D01*
X40991Y-56850D01*
X27512Y-56850D01*
X27512Y-55471D01*
X27511Y-55471D01*
X27513Y-55362D01*
X27454Y-55067D01*
X27340Y-54790D01*
X27174Y-54540D01*
X26963Y-54328D01*
X26714Y-54160D01*
X26438Y-54044D01*
X26144Y-53984D01*
X25844Y-53981D01*
X25835Y-53983D01*
X24646Y-53983D01*
X24646Y-46496D01*
X26580Y-46496D01*
X26587Y-46504D01*
X26558Y-46520D01*
X26523Y-46604D01*
X26504Y-46693D01*
X26503Y-46784D01*
X26520Y-46874D01*
X26554Y-46958D01*
X26558Y-46967D01*
X26623Y-47004D01*
X26855Y-46772D01*
X26884Y-46744D01*
X26969Y-46659D01*
X27053Y-46744D01*
X27082Y-46772D01*
X27314Y-47004D01*
X27379Y-46967D01*
X27414Y-46883D01*
X27433Y-46794D01*
X27434Y-46703D01*
X27417Y-46613D01*
X27383Y-46529D01*
X27379Y-46520D01*
X27350Y-46504D01*
X27357Y-46496D01*
X41146Y-46496D01*
X41153Y-46504D01*
X41124Y-46520D01*
X41089Y-46604D01*
X41070Y-46693D01*
X41069Y-46784D01*
X41086Y-46874D01*
X41120Y-46958D01*
X41124Y-46967D01*
X41189Y-47004D01*
X41421Y-46772D01*
X41450Y-46744D01*
X41535Y-46659D01*
X41619Y-46744D01*
X41648Y-46772D01*
X41880Y-47004D01*
X41945Y-46967D01*
X41980Y-46883D01*
X41999Y-46794D01*
X42000Y-46703D01*
X41983Y-46613D01*
X41949Y-46529D01*
X41945Y-46520D01*
X41916Y-46504D01*
X41923Y-46496D01*
X43857Y-46496D01*
X43857Y-53983D01*
X43857Y-53983D01*
G37*
G54D17*
X43857Y-53983D02*
X42620Y-53983D01*
X42380Y-53981D01*
X42086Y-54038D01*
X42000Y-54072D01*
X42000Y-47703D01*
X41983Y-47613D01*
X41949Y-47529D01*
X41945Y-47520D01*
X41880Y-47483D01*
X41795Y-47568D01*
X41795Y-47398D01*
X41795Y-47089D01*
X41535Y-46828D01*
X41274Y-47089D01*
X41311Y-47154D01*
X41395Y-47189D01*
X41484Y-47208D01*
X41575Y-47209D01*
X41665Y-47192D01*
X41749Y-47158D01*
X41758Y-47154D01*
X41795Y-47089D01*
X41795Y-47398D01*
X41758Y-47333D01*
X41674Y-47298D01*
X41585Y-47279D01*
X41494Y-47278D01*
X41404Y-47295D01*
X41320Y-47329D01*
X41311Y-47333D01*
X41274Y-47398D01*
X41535Y-47659D01*
X41795Y-47398D01*
X41795Y-47568D01*
X41619Y-47744D01*
X41880Y-48004D01*
X41945Y-47967D01*
X41980Y-47883D01*
X41999Y-47794D01*
X42000Y-47703D01*
X42000Y-54072D01*
X41980Y-54081D01*
X41980Y-49700D01*
X41980Y-48700D01*
X41963Y-48614D01*
X41929Y-48534D01*
X41881Y-48461D01*
X41820Y-48399D01*
X41795Y-48382D01*
X41795Y-48089D01*
X41535Y-47828D01*
X41450Y-47913D01*
X41450Y-47744D01*
X41189Y-47483D01*
X41124Y-47520D01*
X41089Y-47604D01*
X41070Y-47693D01*
X41069Y-47784D01*
X41086Y-47874D01*
X41120Y-47958D01*
X41124Y-47967D01*
X41189Y-48004D01*
X41450Y-47744D01*
X41450Y-47913D01*
X41274Y-48089D01*
X41311Y-48154D01*
X41395Y-48189D01*
X41484Y-48208D01*
X41575Y-48209D01*
X41665Y-48192D01*
X41749Y-48158D01*
X41758Y-48154D01*
X41795Y-48089D01*
X41795Y-48382D01*
X41747Y-48350D01*
X41667Y-48316D01*
X41581Y-48299D01*
X41494Y-48298D01*
X41408Y-48315D01*
X41327Y-48347D01*
X41254Y-48395D01*
X41192Y-48456D01*
X41143Y-48528D01*
X41108Y-48608D01*
X41090Y-48694D01*
X41089Y-48781D01*
X41105Y-48867D01*
X41137Y-48948D01*
X41184Y-49021D01*
X41245Y-49084D01*
X41316Y-49134D01*
X41396Y-49169D01*
X41482Y-49188D01*
X41569Y-49189D01*
X41655Y-49174D01*
X41736Y-49143D01*
X41810Y-49096D01*
X41873Y-49036D01*
X41923Y-48964D01*
X41959Y-48885D01*
X41978Y-48800D01*
X41980Y-48700D01*
X41980Y-49700D01*
X41963Y-49614D01*
X41929Y-49534D01*
X41881Y-49461D01*
X41820Y-49399D01*
X41747Y-49350D01*
X41667Y-49316D01*
X41581Y-49299D01*
X41494Y-49298D01*
X41408Y-49315D01*
X41327Y-49347D01*
X41254Y-49395D01*
X41192Y-49456D01*
X41173Y-49484D01*
X37401Y-49484D01*
X27434Y-49484D01*
X27434Y-47703D01*
X27417Y-47613D01*
X27383Y-47529D01*
X27379Y-47520D01*
X27314Y-47483D01*
X27229Y-47568D01*
X27229Y-47398D01*
X27229Y-47089D01*
X26969Y-46828D01*
X26708Y-47089D01*
X26745Y-47154D01*
X26829Y-47189D01*
X26918Y-47208D01*
X27009Y-47209D01*
X27099Y-47192D01*
X27183Y-47158D01*
X27192Y-47154D01*
X27229Y-47089D01*
X27229Y-47398D01*
X27192Y-47333D01*
X27108Y-47298D01*
X27019Y-47279D01*
X26928Y-47278D01*
X26838Y-47295D01*
X26754Y-47329D01*
X26745Y-47333D01*
X26708Y-47398D01*
X26969Y-47659D01*
X27229Y-47398D01*
X27229Y-47568D01*
X27053Y-47744D01*
X27314Y-48004D01*
X27379Y-47967D01*
X27414Y-47883D01*
X27433Y-47794D01*
X27434Y-47703D01*
X27434Y-49484D01*
X27414Y-49484D01*
X27414Y-48700D01*
X27397Y-48614D01*
X27363Y-48534D01*
X27315Y-48461D01*
X27254Y-48399D01*
X27229Y-48382D01*
X27229Y-48089D01*
X26969Y-47828D01*
X26884Y-47913D01*
X26884Y-47744D01*
X26623Y-47483D01*
X26558Y-47520D01*
X26523Y-47604D01*
X26504Y-47693D01*
X26503Y-47784D01*
X26520Y-47874D01*
X26554Y-47958D01*
X26558Y-47967D01*
X26623Y-48004D01*
X26884Y-47744D01*
X26884Y-47913D01*
X26708Y-48089D01*
X26745Y-48154D01*
X26829Y-48189D01*
X26918Y-48208D01*
X27009Y-48209D01*
X27099Y-48192D01*
X27183Y-48158D01*
X27192Y-48154D01*
X27229Y-48089D01*
X27229Y-48382D01*
X27181Y-48350D01*
X27101Y-48316D01*
X27015Y-48299D01*
X26928Y-48298D01*
X26842Y-48315D01*
X26761Y-48347D01*
X26688Y-48395D01*
X26626Y-48456D01*
X26577Y-48528D01*
X26542Y-48608D01*
X26524Y-48694D01*
X26523Y-48781D01*
X26539Y-48867D01*
X26571Y-48948D01*
X26618Y-49021D01*
X26679Y-49084D01*
X26750Y-49134D01*
X26830Y-49169D01*
X26916Y-49188D01*
X27003Y-49189D01*
X27089Y-49174D01*
X27170Y-49143D01*
X27244Y-49096D01*
X27307Y-49036D01*
X27357Y-48964D01*
X27393Y-48885D01*
X27412Y-48800D01*
X27414Y-48700D01*
X27414Y-49484D01*
X27330Y-49484D01*
X27315Y-49461D01*
X27254Y-49399D01*
X27181Y-49350D01*
X27101Y-49316D01*
X27015Y-49299D01*
X26928Y-49298D01*
X26842Y-49315D01*
X26761Y-49347D01*
X26688Y-49395D01*
X26626Y-49456D01*
X26577Y-49528D01*
X26542Y-49608D01*
X26524Y-49694D01*
X26523Y-49781D01*
X26539Y-49867D01*
X26571Y-49948D01*
X26618Y-50021D01*
X26679Y-50084D01*
X26750Y-50134D01*
X26830Y-50169D01*
X26916Y-50188D01*
X27003Y-50189D01*
X27089Y-50174D01*
X27170Y-50143D01*
X27244Y-50096D01*
X27307Y-50036D01*
X27330Y-50004D01*
X37398Y-50004D01*
X37399Y-50004D01*
X37400Y-50004D01*
X37401Y-50004D01*
X41173Y-50004D01*
X41184Y-50021D01*
X41245Y-50084D01*
X41316Y-50134D01*
X41396Y-50169D01*
X41482Y-50188D01*
X41569Y-50189D01*
X41655Y-50174D01*
X41736Y-50143D01*
X41810Y-50096D01*
X41873Y-50036D01*
X41923Y-49964D01*
X41959Y-49885D01*
X41978Y-49800D01*
X41980Y-49700D01*
X41980Y-54081D01*
X41808Y-54150D01*
X41557Y-54314D01*
X41343Y-54524D01*
X41173Y-54771D01*
X41055Y-55047D01*
X40993Y-55340D01*
X40989Y-55640D01*
X40991Y-55654D01*
X40991Y-56850D01*
X27512Y-56850D01*
X27512Y-55471D01*
X27511Y-55471D01*
X27513Y-55362D01*
X27454Y-55067D01*
X27340Y-54790D01*
X27174Y-54540D01*
X26963Y-54328D01*
X26714Y-54160D01*
X26438Y-54044D01*
X26144Y-53984D01*
X25844Y-53981D01*
X25835Y-53983D01*
X24646Y-53983D01*
X24646Y-46496D01*
X26580Y-46496D01*
X26587Y-46504D01*
X26558Y-46520D01*
X26523Y-46604D01*
X26504Y-46693D01*
X26503Y-46784D01*
X26520Y-46874D01*
X26554Y-46958D01*
X26558Y-46967D01*
X26623Y-47004D01*
X26855Y-46772D01*
X26884Y-46744D01*
X26969Y-46659D01*
X27053Y-46744D01*
X27082Y-46772D01*
X27314Y-47004D01*
X27379Y-46967D01*
X27414Y-46883D01*
X27433Y-46794D01*
X27434Y-46703D01*
X27417Y-46613D01*
X27383Y-46529D01*
X27379Y-46520D01*
X27350Y-46504D01*
X27357Y-46496D01*
X41146Y-46496D01*
X41153Y-46504D01*
X41124Y-46520D01*
X41089Y-46604D01*
X41070Y-46693D01*
X41069Y-46784D01*
X41086Y-46874D01*
X41120Y-46958D01*
X41124Y-46967D01*
X41189Y-47004D01*
X41421Y-46772D01*
X41450Y-46744D01*
X41535Y-46659D01*
X41619Y-46744D01*
X41648Y-46772D01*
X41880Y-47004D01*
X41945Y-46967D01*
X41980Y-46883D01*
X41999Y-46794D01*
X42000Y-46703D01*
X41983Y-46613D01*
X41949Y-46529D01*
X41945Y-46520D01*
X41916Y-46504D01*
X41923Y-46496D01*
X43857Y-46496D01*
X43857Y-53983D01*
M02*
