%FSLAX46Y46*%
G04 Gerber Fmt 4.6, Leading zero omitted, Abs format (unit mm)*
G04 Created by KiCad (PCBNEW (2014-09-13 BZR 5129)-product) date Sat 13 Sep 2014 09:07:37 PM CEST*
%MOMM*%
G01*
G04 APERTURE LIST*
%ADD10C,0.150000*%
%ADD11R,0.635000X0.635000*%
%ADD12C,1.651000*%
%ADD13C,0.635000*%
%ADD14C,0.889000*%
%ADD15C,0.711200*%
%ADD16C,0.203200*%
%ADD17C,0.508000*%
%ADD18C,0.200000*%
G04 APERTURE END LIST*
D10*
D11*
X86499620Y-111599060D03*
X87500380Y-111599060D03*
X87398780Y-110798960D03*
X86601220Y-110798960D03*
X87000000Y-111299340D03*
X87000000Y-111799720D03*
D12*
X105498900Y-121269760D03*
X105498900Y-118729760D03*
X105498900Y-123809760D03*
X105498900Y-126349760D03*
X105498900Y-116189760D03*
X105498900Y-113649760D03*
X68501260Y-118729760D03*
X68501260Y-121269760D03*
X68501260Y-116189760D03*
X68501260Y-113649760D03*
X68501260Y-123809760D03*
X68501260Y-126349760D03*
D13*
X76600000Y-102800000D03*
X75800000Y-102800000D03*
X77400000Y-102800000D03*
X77400000Y-102000000D03*
X77400000Y-101200000D03*
X77400000Y-100400000D03*
X76600000Y-100400000D03*
X75800000Y-100400000D03*
X74200000Y-100400000D03*
X73400000Y-100400000D03*
X72600000Y-100400000D03*
X72600000Y-101200000D03*
X72600000Y-102000000D03*
X75000000Y-100400000D03*
X72600000Y-102800000D03*
X73400000Y-102800000D03*
X74200000Y-102800000D03*
X75000000Y-102800000D03*
X73400000Y-102000000D03*
X74200000Y-102000000D03*
X75000000Y-102000000D03*
X75800000Y-102000000D03*
X76600000Y-102000000D03*
X76600000Y-101200000D03*
X75800000Y-101200000D03*
X75000000Y-101200000D03*
X73400000Y-101200000D03*
X74200000Y-101200000D03*
X98200000Y-105600000D03*
X97400000Y-105600000D03*
X96600000Y-105600000D03*
X96600000Y-104800000D03*
X96600000Y-104000000D03*
X96600000Y-103200000D03*
X97400000Y-103200000D03*
X98200000Y-103200000D03*
X99000000Y-103200000D03*
X99800000Y-103200000D03*
X100600000Y-103200000D03*
X101400000Y-103200000D03*
X101400000Y-104000000D03*
X101400000Y-104800000D03*
X101400000Y-105600000D03*
X100600000Y-105600000D03*
X99800000Y-105600000D03*
X99000000Y-105600000D03*
X97400000Y-104000000D03*
X98200000Y-104000000D03*
X99000000Y-104000000D03*
X99800000Y-104000000D03*
X100600000Y-104000000D03*
X100600000Y-104800000D03*
X99800000Y-104800000D03*
X99000000Y-104800000D03*
X98200000Y-104800000D03*
X97400000Y-104800000D03*
X99800000Y-120200000D03*
X99000000Y-120200000D03*
X98200000Y-120200000D03*
X97400000Y-120200000D03*
X96600000Y-120200000D03*
X96600000Y-121000000D03*
X96600000Y-121800000D03*
X96600000Y-122600000D03*
X97400000Y-122600000D03*
X98200000Y-122600000D03*
X100600000Y-120200000D03*
X101400000Y-120200000D03*
X101400000Y-121000000D03*
X101400000Y-121800000D03*
X101400000Y-122600000D03*
X100600000Y-122600000D03*
X99800000Y-122600000D03*
X99000000Y-122600000D03*
X97400000Y-121000000D03*
X98200000Y-121000000D03*
X99000000Y-121000000D03*
X99800000Y-121000000D03*
X100600000Y-121000000D03*
X100600000Y-121800000D03*
X99800000Y-121800000D03*
X99000000Y-121800000D03*
X98200000Y-121800000D03*
X97400000Y-121800000D03*
X99800000Y-137200000D03*
X99000000Y-137200000D03*
X98200000Y-137200000D03*
X97400000Y-137200000D03*
X96600000Y-137200000D03*
X96600000Y-138000000D03*
X96600000Y-138800000D03*
X96600000Y-139600000D03*
X97400000Y-139600000D03*
X98200000Y-139600000D03*
X100600000Y-137200000D03*
X101400000Y-137200000D03*
X101400000Y-138000000D03*
X101400000Y-138800000D03*
X101400000Y-139600000D03*
X100600000Y-139600000D03*
X99800000Y-139600000D03*
X99000000Y-139600000D03*
X97400000Y-138000000D03*
X98200000Y-138000000D03*
X99000000Y-138000000D03*
X99800000Y-138000000D03*
X100600000Y-138000000D03*
X100600000Y-138800000D03*
X99800000Y-138800000D03*
X99000000Y-138800000D03*
X98200000Y-138800000D03*
X97400000Y-138800000D03*
X74200000Y-136800000D03*
X75000000Y-136800000D03*
X75800000Y-136800000D03*
X76600000Y-136800000D03*
X72600000Y-136800000D03*
X72600000Y-136000000D03*
X72600000Y-135200000D03*
X72600000Y-134400000D03*
X73400000Y-134400000D03*
X74200000Y-134400000D03*
X75000000Y-134400000D03*
X73400000Y-136800000D03*
X77400000Y-136800000D03*
X77400000Y-136000000D03*
X77400000Y-135200000D03*
X77400000Y-134400000D03*
X76600000Y-134400000D03*
X75800000Y-134400000D03*
X73400000Y-136000000D03*
X74200000Y-136000000D03*
X75000000Y-136000000D03*
X75800000Y-136000000D03*
X76600000Y-136000000D03*
X73400000Y-135200000D03*
X74200000Y-135200000D03*
X75000000Y-135200000D03*
X75800000Y-135200000D03*
X76600000Y-135200000D03*
X73400000Y-119800000D03*
X74200000Y-119800000D03*
X75000000Y-119800000D03*
X75800000Y-119800000D03*
X76600000Y-119800000D03*
X75000000Y-117400000D03*
X74200000Y-117400000D03*
X73400000Y-117400000D03*
X72600000Y-117400000D03*
X72600000Y-118200000D03*
X72600000Y-119800000D03*
X77400000Y-119000000D03*
X77400000Y-118200000D03*
X77400000Y-117400000D03*
X76600000Y-117400000D03*
X75800000Y-117400000D03*
X77400000Y-119800000D03*
X73400000Y-119000000D03*
X74200000Y-119000000D03*
X75000000Y-119000000D03*
X75800000Y-119000000D03*
X76600000Y-119000000D03*
X72600000Y-119000000D03*
X73400000Y-118200000D03*
X74200000Y-118200000D03*
X75000000Y-118200000D03*
X75800000Y-118200000D03*
X76600000Y-118200000D03*
X95000000Y-123650000D03*
D14*
X108950760Y-107749340D03*
X66949320Y-107749340D03*
X66949320Y-105001060D03*
X108950760Y-105001060D03*
X91313000Y-111572040D03*
X93853000Y-111572040D03*
D13*
X91633000Y-109177000D03*
D15*
X76600000Y-102800000D02*
X75800000Y-102800000D01*
X77400000Y-102000000D02*
X77400000Y-102800000D01*
X77400000Y-100400000D02*
X77400000Y-101200000D01*
X75800000Y-100400000D02*
X76600000Y-100400000D01*
X74200000Y-100400000D02*
X75000000Y-100400000D01*
X72600000Y-100400000D02*
X73400000Y-100400000D01*
X72600000Y-102000000D02*
X72600000Y-101200000D01*
X73400000Y-102800000D02*
X72600000Y-102800000D01*
X75000000Y-102800000D02*
X74200000Y-102800000D01*
X74200000Y-102000000D02*
X73400000Y-102000000D01*
X75800000Y-102000000D02*
X75000000Y-102000000D01*
X76600000Y-101200000D02*
X76600000Y-102000000D01*
X75000000Y-101200000D02*
X75800000Y-101200000D01*
X73400000Y-101200000D02*
X74200000Y-101200000D01*
X98200000Y-105600000D02*
X97400000Y-105600000D01*
X96600000Y-105600000D02*
X96600000Y-104800000D01*
X96600000Y-104000000D02*
X96600000Y-103200000D01*
X97400000Y-103200000D02*
X98200000Y-103200000D01*
X99000000Y-103200000D02*
X99800000Y-103200000D01*
X101400000Y-103200000D02*
X100600000Y-103200000D01*
X101400000Y-104800000D02*
X101400000Y-104000000D01*
X100600000Y-105600000D02*
X101400000Y-105600000D01*
X99000000Y-105600000D02*
X99800000Y-105600000D01*
D16*
X98200000Y-104000000D02*
X99000000Y-104000000D01*
X99800000Y-104000000D02*
X100600000Y-104000000D01*
X100600000Y-104800000D02*
X99800000Y-104800000D01*
X99000000Y-104800000D02*
X98200000Y-104800000D01*
X96600000Y-104000000D02*
X97400000Y-104000000D01*
D15*
X99800000Y-120200000D02*
X99000000Y-120200000D01*
X98200000Y-120200000D02*
X97400000Y-120200000D01*
X96600000Y-120200000D02*
X96600000Y-121000000D01*
X96600000Y-121800000D02*
X96600000Y-122600000D01*
X97400000Y-122600000D02*
X98200000Y-122600000D01*
X101400000Y-120200000D02*
X100600000Y-120200000D01*
X101400000Y-121800000D02*
X101400000Y-121000000D01*
X100600000Y-122600000D02*
X101400000Y-122600000D01*
X99000000Y-122600000D02*
X99800000Y-122600000D01*
D16*
X98200000Y-121000000D02*
X99000000Y-121000000D01*
X99800000Y-121000000D02*
X100600000Y-121000000D01*
X100600000Y-121800000D02*
X99800000Y-121800000D01*
X99000000Y-121800000D02*
X98200000Y-121800000D01*
X96600000Y-121000000D02*
X97400000Y-121000000D01*
D15*
X99800000Y-137200000D02*
X99000000Y-137200000D01*
X98200000Y-137200000D02*
X97400000Y-137200000D01*
X96600000Y-137200000D02*
X96600000Y-138000000D01*
X96600000Y-138800000D02*
X96600000Y-139600000D01*
X97400000Y-139600000D02*
X98200000Y-139600000D01*
X101400000Y-137200000D02*
X100600000Y-137200000D01*
X101400000Y-138800000D02*
X101400000Y-138000000D01*
X100600000Y-139600000D02*
X101400000Y-139600000D01*
X99000000Y-139600000D02*
X99800000Y-139600000D01*
D16*
X98200000Y-138000000D02*
X99000000Y-138000000D01*
X99800000Y-138000000D02*
X100600000Y-138000000D01*
X100600000Y-138800000D02*
X99800000Y-138800000D01*
X99000000Y-138800000D02*
X98200000Y-138800000D01*
X96600000Y-138000000D02*
X97400000Y-138000000D01*
D15*
X74200000Y-136800000D02*
X75000000Y-136800000D01*
X75800000Y-136800000D02*
X76600000Y-136800000D01*
X72600000Y-136800000D02*
X73400000Y-136800000D01*
X72600000Y-135200000D02*
X72600000Y-136000000D01*
X73400000Y-134400000D02*
X72600000Y-134400000D01*
X75000000Y-134400000D02*
X74200000Y-134400000D01*
X77400000Y-136000000D02*
X77400000Y-136800000D01*
X77400000Y-134400000D02*
X77400000Y-135200000D01*
X75800000Y-134400000D02*
X76600000Y-134400000D01*
D16*
X74200000Y-136000000D02*
X75000000Y-136000000D01*
X75800000Y-136000000D02*
X76600000Y-136000000D01*
X72600000Y-136000000D02*
X73400000Y-136000000D01*
X73400000Y-135200000D02*
X74200000Y-135200000D01*
X75000000Y-135200000D02*
X75800000Y-135200000D01*
D15*
X73400000Y-119800000D02*
X74200000Y-119800000D01*
X75000000Y-119800000D02*
X75800000Y-119800000D01*
X76600000Y-119800000D02*
X77400000Y-119800000D01*
X72600000Y-119000000D02*
X72600000Y-119800000D01*
X75000000Y-117400000D02*
X74200000Y-117400000D01*
X73400000Y-117400000D02*
X72600000Y-117400000D01*
X72600000Y-118200000D02*
X72600000Y-119000000D01*
X77400000Y-119000000D02*
X77400000Y-119800000D01*
X77400000Y-117400000D02*
X77400000Y-118200000D01*
X75800000Y-117400000D02*
X76600000Y-117400000D01*
D16*
X73400000Y-119000000D02*
X74200000Y-119000000D01*
X75000000Y-119000000D02*
X75800000Y-119000000D01*
X74200000Y-118200000D02*
X75000000Y-118200000D01*
X75800000Y-118200000D02*
X76600000Y-118200000D01*
X72600000Y-118200000D02*
X73400000Y-118200000D01*
D17*
X69800240Y-126349760D02*
X71750000Y-124400000D01*
X95000000Y-124400000D02*
X102250000Y-124400000D01*
X71750000Y-124400000D02*
X95000000Y-124400000D01*
X102250000Y-124400000D02*
X104199760Y-126349760D01*
X104199760Y-126349760D02*
X105498900Y-126349760D01*
X68501260Y-126349760D02*
X69800240Y-126349760D01*
X95000000Y-124400000D02*
X95000000Y-123650000D01*
D15*
X105498900Y-113649760D02*
X105498900Y-116189760D01*
X105498900Y-113649760D02*
X105498900Y-113598960D01*
X68501260Y-116189760D02*
X68501260Y-113649760D01*
X108950760Y-107749340D02*
X105498900Y-111201200D01*
X105498900Y-111201200D02*
X105498900Y-113649760D01*
X87000000Y-113649760D02*
X105498900Y-113649760D01*
X87000000Y-113649760D02*
X87000000Y-113500000D01*
X87000000Y-111299340D02*
X87000000Y-113649760D01*
X66949320Y-105001060D02*
X66951860Y-105003600D01*
X66951860Y-105003600D02*
X66954400Y-105003600D01*
X68501260Y-109301280D02*
X68501260Y-113649760D01*
X66949320Y-107749340D02*
X68501260Y-109301280D01*
X108950760Y-105001060D02*
X108953300Y-105003600D01*
X108953300Y-105003600D02*
X108966000Y-105003600D01*
X91328240Y-111556800D02*
X91313000Y-111572040D01*
X91338400Y-111556800D02*
X91328240Y-111556800D01*
X91633040Y-109176820D02*
X91640660Y-109169200D01*
X91640660Y-109169200D02*
X91643200Y-109169200D01*
X87000000Y-113649760D02*
X68501260Y-113649760D01*
X108950760Y-107749340D02*
X108950760Y-105001060D01*
X66949320Y-107749340D02*
X66949320Y-105001060D01*
X93837760Y-111556800D02*
X93827600Y-111556800D01*
X93853000Y-111572040D02*
X93837760Y-111556800D01*
X91313000Y-111572040D02*
X93853000Y-111572040D01*
X91633040Y-111252000D02*
X91313000Y-111572040D01*
X91633040Y-109176820D02*
X91633040Y-111252000D01*
X91633000Y-109177000D02*
X91633040Y-109176960D01*
X91633040Y-109176960D02*
X91633040Y-109176820D01*
X68501260Y-121269760D02*
X68501260Y-118729760D01*
X105498900Y-121269760D02*
X105498900Y-118729760D01*
D18*
G36*
X111400592Y-103179999D02*
X111400043Y-116045126D01*
X111382269Y-116225520D01*
X111331076Y-116394256D01*
X111247949Y-116549764D01*
X111136083Y-116686068D01*
X110999775Y-116797929D01*
X110844264Y-116881049D01*
X110675525Y-116932233D01*
X110495130Y-116950000D01*
X103504913Y-116950000D01*
X103402549Y-116939918D01*
X103308843Y-116911493D01*
X103222484Y-116865333D01*
X103146789Y-116803211D01*
X103084667Y-116727516D01*
X103038507Y-116641157D01*
X103010082Y-116547451D01*
X103000000Y-116445091D01*
X103000000Y-106154913D01*
X103000000Y-99845087D01*
X102979338Y-99635307D01*
X102916715Y-99428864D01*
X102815019Y-99238604D01*
X102678160Y-99071840D01*
X102511396Y-98934981D01*
X102321136Y-98833285D01*
X102114693Y-98770662D01*
X101904913Y-98750000D01*
X72095087Y-98750000D01*
X71885307Y-98770662D01*
X71678864Y-98833285D01*
X71488604Y-98934981D01*
X71321840Y-99071840D01*
X71184981Y-99238604D01*
X71083285Y-99428864D01*
X71020662Y-99635307D01*
X71000000Y-99845087D01*
X71000000Y-106154913D01*
X71020662Y-106364693D01*
X71083285Y-106571136D01*
X71184981Y-106761396D01*
X71321840Y-106928160D01*
X71488604Y-107065019D01*
X71678864Y-107166715D01*
X71885307Y-107229338D01*
X72095087Y-107250000D01*
X101904913Y-107250000D01*
X102114693Y-107229338D01*
X102321136Y-107166715D01*
X102511396Y-107065019D01*
X102678160Y-106928160D01*
X102815019Y-106761396D01*
X102916715Y-106571136D01*
X102979338Y-106364693D01*
X103000000Y-106154913D01*
X103000000Y-116445091D01*
X102999518Y-116440198D01*
X102987024Y-116313343D01*
X102947163Y-116181937D01*
X102882431Y-116060832D01*
X102795317Y-115954683D01*
X102689168Y-115867569D01*
X102568063Y-115802837D01*
X102436657Y-115762976D01*
X102304913Y-115750000D01*
X71695087Y-115750000D01*
X71563343Y-115762976D01*
X71431937Y-115802837D01*
X71310832Y-115867569D01*
X71204683Y-115954683D01*
X71117569Y-116060832D01*
X71052837Y-116181937D01*
X71012976Y-116313343D01*
X71000482Y-116440198D01*
X70989918Y-116547451D01*
X70961493Y-116641157D01*
X70915333Y-116727516D01*
X70853211Y-116803211D01*
X70777516Y-116865333D01*
X70691157Y-116911493D01*
X70597451Y-116939918D01*
X70495087Y-116950000D01*
X63504878Y-116950000D01*
X63324482Y-116932233D01*
X63155742Y-116881048D01*
X63000230Y-116797927D01*
X62863922Y-116686065D01*
X62752055Y-116549761D01*
X62668929Y-116394252D01*
X62617738Y-116225515D01*
X62599965Y-116045119D01*
X62599510Y-103179999D01*
X66399999Y-103179999D01*
X66399999Y-103142597D01*
X67120777Y-103015505D01*
X67879555Y-102721194D01*
X68566718Y-102285108D01*
X69156090Y-101723856D01*
X69625223Y-101058817D01*
X69956249Y-100315322D01*
X70136558Y-99521690D01*
X70138257Y-99399999D01*
X70179999Y-99399999D01*
X70179999Y-95598920D01*
X103820001Y-95598920D01*
X103820001Y-99399999D01*
X103854891Y-99399999D01*
X103992262Y-100148470D01*
X104291863Y-100905175D01*
X104732736Y-101589276D01*
X105298088Y-102174716D01*
X105966386Y-102639195D01*
X106712174Y-102965022D01*
X107507046Y-103139786D01*
X107600001Y-103141733D01*
X107600001Y-103179999D01*
X111400592Y-103179999D01*
X111400592Y-103179999D01*
G37*
X111400592Y-103179999D02*
X111400043Y-116045126D01*
X111382269Y-116225520D01*
X111331076Y-116394256D01*
X111247949Y-116549764D01*
X111136083Y-116686068D01*
X110999775Y-116797929D01*
X110844264Y-116881049D01*
X110675525Y-116932233D01*
X110495130Y-116950000D01*
X103504913Y-116950000D01*
X103402549Y-116939918D01*
X103308843Y-116911493D01*
X103222484Y-116865333D01*
X103146789Y-116803211D01*
X103084667Y-116727516D01*
X103038507Y-116641157D01*
X103010082Y-116547451D01*
X103000000Y-116445091D01*
X103000000Y-106154913D01*
X103000000Y-99845087D01*
X102979338Y-99635307D01*
X102916715Y-99428864D01*
X102815019Y-99238604D01*
X102678160Y-99071840D01*
X102511396Y-98934981D01*
X102321136Y-98833285D01*
X102114693Y-98770662D01*
X101904913Y-98750000D01*
X72095087Y-98750000D01*
X71885307Y-98770662D01*
X71678864Y-98833285D01*
X71488604Y-98934981D01*
X71321840Y-99071840D01*
X71184981Y-99238604D01*
X71083285Y-99428864D01*
X71020662Y-99635307D01*
X71000000Y-99845087D01*
X71000000Y-106154913D01*
X71020662Y-106364693D01*
X71083285Y-106571136D01*
X71184981Y-106761396D01*
X71321840Y-106928160D01*
X71488604Y-107065019D01*
X71678864Y-107166715D01*
X71885307Y-107229338D01*
X72095087Y-107250000D01*
X101904913Y-107250000D01*
X102114693Y-107229338D01*
X102321136Y-107166715D01*
X102511396Y-107065019D01*
X102678160Y-106928160D01*
X102815019Y-106761396D01*
X102916715Y-106571136D01*
X102979338Y-106364693D01*
X103000000Y-106154913D01*
X103000000Y-116445091D01*
X102999518Y-116440198D01*
X102987024Y-116313343D01*
X102947163Y-116181937D01*
X102882431Y-116060832D01*
X102795317Y-115954683D01*
X102689168Y-115867569D01*
X102568063Y-115802837D01*
X102436657Y-115762976D01*
X102304913Y-115750000D01*
X71695087Y-115750000D01*
X71563343Y-115762976D01*
X71431937Y-115802837D01*
X71310832Y-115867569D01*
X71204683Y-115954683D01*
X71117569Y-116060832D01*
X71052837Y-116181937D01*
X71012976Y-116313343D01*
X71000482Y-116440198D01*
X70989918Y-116547451D01*
X70961493Y-116641157D01*
X70915333Y-116727516D01*
X70853211Y-116803211D01*
X70777516Y-116865333D01*
X70691157Y-116911493D01*
X70597451Y-116939918D01*
X70495087Y-116950000D01*
X63504878Y-116950000D01*
X63324482Y-116932233D01*
X63155742Y-116881048D01*
X63000230Y-116797927D01*
X62863922Y-116686065D01*
X62752055Y-116549761D01*
X62668929Y-116394252D01*
X62617738Y-116225515D01*
X62599965Y-116045119D01*
X62599510Y-103179999D01*
X66399999Y-103179999D01*
X66399999Y-103142597D01*
X67120777Y-103015505D01*
X67879555Y-102721194D01*
X68566718Y-102285108D01*
X69156090Y-101723856D01*
X69625223Y-101058817D01*
X69956249Y-100315322D01*
X70136558Y-99521690D01*
X70138257Y-99399999D01*
X70179999Y-99399999D01*
X70179999Y-95598920D01*
X103820001Y-95598920D01*
X103820001Y-99399999D01*
X103854891Y-99399999D01*
X103992262Y-100148470D01*
X104291863Y-100905175D01*
X104732736Y-101589276D01*
X105298088Y-102174716D01*
X105966386Y-102639195D01*
X106712174Y-102965022D01*
X107507046Y-103139786D01*
X107600001Y-103141733D01*
X107600001Y-103179999D01*
X111400592Y-103179999D01*
G36*
X111400654Y-136820001D02*
X107600001Y-136820001D01*
X107600001Y-136851921D01*
X106823414Y-137000064D01*
X106068818Y-137304940D01*
X105387812Y-137750578D01*
X104806333Y-138320004D01*
X104346531Y-138991529D01*
X104025919Y-139739573D01*
X103856708Y-140535646D01*
X103855809Y-140600001D01*
X103820001Y-140600001D01*
X103820001Y-144400600D01*
X103000000Y-144400600D01*
X103000000Y-140154913D01*
X103000000Y-133845087D01*
X102979338Y-133635307D01*
X102916715Y-133428864D01*
X102815019Y-133238604D01*
X102678160Y-133071840D01*
X102511396Y-132934981D01*
X102321136Y-132833285D01*
X102114693Y-132770662D01*
X101904913Y-132750000D01*
X88245087Y-132750000D01*
X88035307Y-132770662D01*
X87828864Y-132833285D01*
X87638604Y-132934981D01*
X87471840Y-133071840D01*
X87334981Y-133238604D01*
X87233285Y-133428864D01*
X87170662Y-133635307D01*
X87150000Y-133845087D01*
X87150000Y-140154913D01*
X87170662Y-140364693D01*
X87233285Y-140571136D01*
X87334981Y-140761396D01*
X87471840Y-140928160D01*
X87638604Y-141065019D01*
X87828864Y-141166715D01*
X88035307Y-141229338D01*
X88245087Y-141250000D01*
X101904913Y-141250000D01*
X102114693Y-141229338D01*
X102321136Y-141166715D01*
X102511396Y-141065019D01*
X102678160Y-140928160D01*
X102815019Y-140761396D01*
X102916715Y-140571136D01*
X102979338Y-140364693D01*
X103000000Y-140154913D01*
X103000000Y-144400600D01*
X102900000Y-144400600D01*
X86850000Y-144400600D01*
X86850000Y-140154913D01*
X86850000Y-133845087D01*
X86829338Y-133635307D01*
X86766715Y-133428864D01*
X86665019Y-133238604D01*
X86528160Y-133071840D01*
X86361396Y-132934981D01*
X86171136Y-132833285D01*
X85964693Y-132770662D01*
X85754913Y-132750000D01*
X72095087Y-132750000D01*
X71885307Y-132770662D01*
X71678864Y-132833285D01*
X71488604Y-132934981D01*
X71321840Y-133071840D01*
X71184981Y-133238604D01*
X71083285Y-133428864D01*
X71020662Y-133635307D01*
X71000000Y-133845087D01*
X71000000Y-140154913D01*
X71020662Y-140364693D01*
X71083285Y-140571136D01*
X71184981Y-140761396D01*
X71321840Y-140928160D01*
X71488604Y-141065019D01*
X71678864Y-141166715D01*
X71885307Y-141229338D01*
X72095087Y-141250000D01*
X85754913Y-141250000D01*
X85964693Y-141229338D01*
X86171136Y-141166715D01*
X86361396Y-141065019D01*
X86528160Y-140928160D01*
X86665019Y-140761396D01*
X86766715Y-140571136D01*
X86829338Y-140364693D01*
X86850000Y-140154913D01*
X86850000Y-144400600D01*
X86750000Y-144400600D01*
X70179999Y-144400600D01*
X70179999Y-140600001D01*
X70149447Y-140600001D01*
X70149538Y-140593552D01*
X69991459Y-139795194D01*
X69681322Y-139042746D01*
X69230941Y-138364867D01*
X68657469Y-137787378D01*
X67982751Y-137332275D01*
X67232486Y-137016893D01*
X66435252Y-136853244D01*
X66399999Y-136852997D01*
X66399999Y-136820001D01*
X62599459Y-136820001D01*
X62599971Y-118854887D01*
X62617744Y-118674491D01*
X62668934Y-118505753D01*
X62752060Y-118350242D01*
X62863927Y-118213937D01*
X63000235Y-118102074D01*
X63155748Y-118018953D01*
X63324488Y-117967767D01*
X63504884Y-117950000D01*
X70095087Y-117950000D01*
X70275487Y-117967768D01*
X70444230Y-118018955D01*
X70599744Y-118102079D01*
X70736054Y-118213946D01*
X70847921Y-118350256D01*
X70931045Y-118505770D01*
X70982232Y-118674513D01*
X71000000Y-118854913D01*
X71000000Y-123154913D01*
X71020662Y-123364693D01*
X71083285Y-123571136D01*
X71184981Y-123761396D01*
X71312319Y-123916559D01*
X71294054Y-123931141D01*
X71289266Y-123935861D01*
X71289169Y-123935941D01*
X71289094Y-123936031D01*
X71287552Y-123937552D01*
X69726813Y-125498290D01*
X69726813Y-123689593D01*
X69680132Y-123453838D01*
X69588548Y-123231639D01*
X69455550Y-123031460D01*
X69286203Y-122860927D01*
X69086958Y-122726534D01*
X68865404Y-122633402D01*
X68629979Y-122585076D01*
X68389652Y-122583398D01*
X68153576Y-122628432D01*
X67930743Y-122718462D01*
X67729641Y-122850060D01*
X67557930Y-123018212D01*
X67422150Y-123216514D01*
X67327472Y-123437413D01*
X67277504Y-123672494D01*
X67274149Y-123912803D01*
X67317534Y-124149188D01*
X67406006Y-124372644D01*
X67536196Y-124574660D01*
X67703146Y-124747541D01*
X67900495Y-124884702D01*
X68120727Y-124980920D01*
X68355454Y-125032528D01*
X68595734Y-125037561D01*
X68832416Y-124995827D01*
X69056484Y-124908917D01*
X69259404Y-124780140D01*
X69433446Y-124614402D01*
X69571982Y-124418015D01*
X69669734Y-124198460D01*
X69722980Y-123964099D01*
X69726813Y-123689593D01*
X69726813Y-125498290D01*
X69534625Y-125690478D01*
X69455550Y-125571460D01*
X69286203Y-125400927D01*
X69086958Y-125266534D01*
X68865404Y-125173402D01*
X68629979Y-125125076D01*
X68389652Y-125123398D01*
X68153576Y-125168432D01*
X67930743Y-125258462D01*
X67729641Y-125390060D01*
X67557930Y-125558212D01*
X67422150Y-125756514D01*
X67327472Y-125977413D01*
X67277504Y-126212494D01*
X67274149Y-126452803D01*
X67317534Y-126689188D01*
X67406006Y-126912644D01*
X67536196Y-127114660D01*
X67703146Y-127287541D01*
X67900495Y-127424702D01*
X68120727Y-127520920D01*
X68355454Y-127572528D01*
X68595734Y-127577561D01*
X68832416Y-127535827D01*
X69056484Y-127448917D01*
X69259404Y-127320140D01*
X69433446Y-127154402D01*
X69539712Y-127003760D01*
X69800240Y-127003760D01*
X69860417Y-126997859D01*
X69920544Y-126992599D01*
X69923841Y-126991641D01*
X69927269Y-126991305D01*
X69985122Y-126973837D01*
X70043115Y-126956990D01*
X70046170Y-126955406D01*
X70049460Y-126954413D01*
X70102739Y-126926083D01*
X70156434Y-126898251D01*
X70159125Y-126896102D01*
X70162158Y-126894490D01*
X70208956Y-126856322D01*
X70256186Y-126818619D01*
X70260973Y-126813898D01*
X70261071Y-126813819D01*
X70261145Y-126813728D01*
X70262688Y-126812208D01*
X72020896Y-125054000D01*
X95000000Y-125054000D01*
X101979104Y-125054000D01*
X103737312Y-126812208D01*
X103784037Y-126850588D01*
X103830272Y-126889384D01*
X103833281Y-126891038D01*
X103835942Y-126893224D01*
X103889181Y-126921770D01*
X103942122Y-126950875D01*
X103945404Y-126951916D01*
X103948431Y-126953539D01*
X104006127Y-126971178D01*
X104063786Y-126989469D01*
X104067207Y-126989852D01*
X104070492Y-126990857D01*
X104130571Y-126996959D01*
X104190629Y-127003696D01*
X104197350Y-127003743D01*
X104197477Y-127003756D01*
X104197595Y-127003744D01*
X104199760Y-127003760D01*
X104462366Y-127003760D01*
X104533836Y-127114660D01*
X104700786Y-127287541D01*
X104898135Y-127424702D01*
X105118367Y-127520920D01*
X105353094Y-127572528D01*
X105593374Y-127577561D01*
X105830056Y-127535827D01*
X106054124Y-127448917D01*
X106257044Y-127320140D01*
X106431086Y-127154402D01*
X106569622Y-126958015D01*
X106667374Y-126738460D01*
X106720620Y-126504099D01*
X106724453Y-126229593D01*
X106724453Y-123689593D01*
X106677772Y-123453838D01*
X106586188Y-123231639D01*
X106453190Y-123031460D01*
X106283843Y-122860927D01*
X106084598Y-122726534D01*
X105863044Y-122633402D01*
X105627619Y-122585076D01*
X105387292Y-122583398D01*
X105151216Y-122628432D01*
X104928383Y-122718462D01*
X104727281Y-122850060D01*
X104555570Y-123018212D01*
X104419790Y-123216514D01*
X104325112Y-123437413D01*
X104275144Y-123672494D01*
X104271789Y-123912803D01*
X104315174Y-124149188D01*
X104403646Y-124372644D01*
X104533836Y-124574660D01*
X104700786Y-124747541D01*
X104898135Y-124884702D01*
X105118367Y-124980920D01*
X105353094Y-125032528D01*
X105593374Y-125037561D01*
X105830056Y-124995827D01*
X106054124Y-124908917D01*
X106257044Y-124780140D01*
X106431086Y-124614402D01*
X106569622Y-124418015D01*
X106667374Y-124198460D01*
X106720620Y-123964099D01*
X106724453Y-123689593D01*
X106724453Y-126229593D01*
X106677772Y-125993838D01*
X106586188Y-125771639D01*
X106453190Y-125571460D01*
X106283843Y-125400927D01*
X106084598Y-125266534D01*
X105863044Y-125173402D01*
X105627619Y-125125076D01*
X105387292Y-125123398D01*
X105151216Y-125168432D01*
X104928383Y-125258462D01*
X104727281Y-125390060D01*
X104555570Y-125558212D01*
X104465155Y-125690259D01*
X102712448Y-123937552D01*
X102687362Y-123916946D01*
X102815019Y-123761396D01*
X102916715Y-123571136D01*
X102979338Y-123364693D01*
X103000000Y-123154913D01*
X103000000Y-118854913D01*
X103017768Y-118674513D01*
X103068955Y-118505770D01*
X103152079Y-118350256D01*
X103263946Y-118213946D01*
X103400256Y-118102079D01*
X103555770Y-118018955D01*
X103724513Y-117967768D01*
X103904913Y-117950000D01*
X110495122Y-117950000D01*
X110675518Y-117967767D01*
X110844257Y-118018952D01*
X110999769Y-118102073D01*
X111136077Y-118213935D01*
X111247944Y-118350240D01*
X111331070Y-118505749D01*
X111382262Y-118674487D01*
X111400035Y-118854881D01*
X111400654Y-136820001D01*
X111400654Y-136820001D01*
G37*
X111400654Y-136820001D02*
X107600001Y-136820001D01*
X107600001Y-136851921D01*
X106823414Y-137000064D01*
X106068818Y-137304940D01*
X105387812Y-137750578D01*
X104806333Y-138320004D01*
X104346531Y-138991529D01*
X104025919Y-139739573D01*
X103856708Y-140535646D01*
X103855809Y-140600001D01*
X103820001Y-140600001D01*
X103820001Y-144400600D01*
X103000000Y-144400600D01*
X103000000Y-140154913D01*
X103000000Y-133845087D01*
X102979338Y-133635307D01*
X102916715Y-133428864D01*
X102815019Y-133238604D01*
X102678160Y-133071840D01*
X102511396Y-132934981D01*
X102321136Y-132833285D01*
X102114693Y-132770662D01*
X101904913Y-132750000D01*
X88245087Y-132750000D01*
X88035307Y-132770662D01*
X87828864Y-132833285D01*
X87638604Y-132934981D01*
X87471840Y-133071840D01*
X87334981Y-133238604D01*
X87233285Y-133428864D01*
X87170662Y-133635307D01*
X87150000Y-133845087D01*
X87150000Y-140154913D01*
X87170662Y-140364693D01*
X87233285Y-140571136D01*
X87334981Y-140761396D01*
X87471840Y-140928160D01*
X87638604Y-141065019D01*
X87828864Y-141166715D01*
X88035307Y-141229338D01*
X88245087Y-141250000D01*
X101904913Y-141250000D01*
X102114693Y-141229338D01*
X102321136Y-141166715D01*
X102511396Y-141065019D01*
X102678160Y-140928160D01*
X102815019Y-140761396D01*
X102916715Y-140571136D01*
X102979338Y-140364693D01*
X103000000Y-140154913D01*
X103000000Y-144400600D01*
X102900000Y-144400600D01*
X86850000Y-144400600D01*
X86850000Y-140154913D01*
X86850000Y-133845087D01*
X86829338Y-133635307D01*
X86766715Y-133428864D01*
X86665019Y-133238604D01*
X86528160Y-133071840D01*
X86361396Y-132934981D01*
X86171136Y-132833285D01*
X85964693Y-132770662D01*
X85754913Y-132750000D01*
X72095087Y-132750000D01*
X71885307Y-132770662D01*
X71678864Y-132833285D01*
X71488604Y-132934981D01*
X71321840Y-133071840D01*
X71184981Y-133238604D01*
X71083285Y-133428864D01*
X71020662Y-133635307D01*
X71000000Y-133845087D01*
X71000000Y-140154913D01*
X71020662Y-140364693D01*
X71083285Y-140571136D01*
X71184981Y-140761396D01*
X71321840Y-140928160D01*
X71488604Y-141065019D01*
X71678864Y-141166715D01*
X71885307Y-141229338D01*
X72095087Y-141250000D01*
X85754913Y-141250000D01*
X85964693Y-141229338D01*
X86171136Y-141166715D01*
X86361396Y-141065019D01*
X86528160Y-140928160D01*
X86665019Y-140761396D01*
X86766715Y-140571136D01*
X86829338Y-140364693D01*
X86850000Y-140154913D01*
X86850000Y-144400600D01*
X86750000Y-144400600D01*
X70179999Y-144400600D01*
X70179999Y-140600001D01*
X70149447Y-140600001D01*
X70149538Y-140593552D01*
X69991459Y-139795194D01*
X69681322Y-139042746D01*
X69230941Y-138364867D01*
X68657469Y-137787378D01*
X67982751Y-137332275D01*
X67232486Y-137016893D01*
X66435252Y-136853244D01*
X66399999Y-136852997D01*
X66399999Y-136820001D01*
X62599459Y-136820001D01*
X62599971Y-118854887D01*
X62617744Y-118674491D01*
X62668934Y-118505753D01*
X62752060Y-118350242D01*
X62863927Y-118213937D01*
X63000235Y-118102074D01*
X63155748Y-118018953D01*
X63324488Y-117967767D01*
X63504884Y-117950000D01*
X70095087Y-117950000D01*
X70275487Y-117967768D01*
X70444230Y-118018955D01*
X70599744Y-118102079D01*
X70736054Y-118213946D01*
X70847921Y-118350256D01*
X70931045Y-118505770D01*
X70982232Y-118674513D01*
X71000000Y-118854913D01*
X71000000Y-123154913D01*
X71020662Y-123364693D01*
X71083285Y-123571136D01*
X71184981Y-123761396D01*
X71312319Y-123916559D01*
X71294054Y-123931141D01*
X71289266Y-123935861D01*
X71289169Y-123935941D01*
X71289094Y-123936031D01*
X71287552Y-123937552D01*
X69726813Y-125498290D01*
X69726813Y-123689593D01*
X69680132Y-123453838D01*
X69588548Y-123231639D01*
X69455550Y-123031460D01*
X69286203Y-122860927D01*
X69086958Y-122726534D01*
X68865404Y-122633402D01*
X68629979Y-122585076D01*
X68389652Y-122583398D01*
X68153576Y-122628432D01*
X67930743Y-122718462D01*
X67729641Y-122850060D01*
X67557930Y-123018212D01*
X67422150Y-123216514D01*
X67327472Y-123437413D01*
X67277504Y-123672494D01*
X67274149Y-123912803D01*
X67317534Y-124149188D01*
X67406006Y-124372644D01*
X67536196Y-124574660D01*
X67703146Y-124747541D01*
X67900495Y-124884702D01*
X68120727Y-124980920D01*
X68355454Y-125032528D01*
X68595734Y-125037561D01*
X68832416Y-124995827D01*
X69056484Y-124908917D01*
X69259404Y-124780140D01*
X69433446Y-124614402D01*
X69571982Y-124418015D01*
X69669734Y-124198460D01*
X69722980Y-123964099D01*
X69726813Y-123689593D01*
X69726813Y-125498290D01*
X69534625Y-125690478D01*
X69455550Y-125571460D01*
X69286203Y-125400927D01*
X69086958Y-125266534D01*
X68865404Y-125173402D01*
X68629979Y-125125076D01*
X68389652Y-125123398D01*
X68153576Y-125168432D01*
X67930743Y-125258462D01*
X67729641Y-125390060D01*
X67557930Y-125558212D01*
X67422150Y-125756514D01*
X67327472Y-125977413D01*
X67277504Y-126212494D01*
X67274149Y-126452803D01*
X67317534Y-126689188D01*
X67406006Y-126912644D01*
X67536196Y-127114660D01*
X67703146Y-127287541D01*
X67900495Y-127424702D01*
X68120727Y-127520920D01*
X68355454Y-127572528D01*
X68595734Y-127577561D01*
X68832416Y-127535827D01*
X69056484Y-127448917D01*
X69259404Y-127320140D01*
X69433446Y-127154402D01*
X69539712Y-127003760D01*
X69800240Y-127003760D01*
X69860417Y-126997859D01*
X69920544Y-126992599D01*
X69923841Y-126991641D01*
X69927269Y-126991305D01*
X69985122Y-126973837D01*
X70043115Y-126956990D01*
X70046170Y-126955406D01*
X70049460Y-126954413D01*
X70102739Y-126926083D01*
X70156434Y-126898251D01*
X70159125Y-126896102D01*
X70162158Y-126894490D01*
X70208956Y-126856322D01*
X70256186Y-126818619D01*
X70260973Y-126813898D01*
X70261071Y-126813819D01*
X70261145Y-126813728D01*
X70262688Y-126812208D01*
X72020896Y-125054000D01*
X95000000Y-125054000D01*
X101979104Y-125054000D01*
X103737312Y-126812208D01*
X103784037Y-126850588D01*
X103830272Y-126889384D01*
X103833281Y-126891038D01*
X103835942Y-126893224D01*
X103889181Y-126921770D01*
X103942122Y-126950875D01*
X103945404Y-126951916D01*
X103948431Y-126953539D01*
X104006127Y-126971178D01*
X104063786Y-126989469D01*
X104067207Y-126989852D01*
X104070492Y-126990857D01*
X104130571Y-126996959D01*
X104190629Y-127003696D01*
X104197350Y-127003743D01*
X104197477Y-127003756D01*
X104197595Y-127003744D01*
X104199760Y-127003760D01*
X104462366Y-127003760D01*
X104533836Y-127114660D01*
X104700786Y-127287541D01*
X104898135Y-127424702D01*
X105118367Y-127520920D01*
X105353094Y-127572528D01*
X105593374Y-127577561D01*
X105830056Y-127535827D01*
X106054124Y-127448917D01*
X106257044Y-127320140D01*
X106431086Y-127154402D01*
X106569622Y-126958015D01*
X106667374Y-126738460D01*
X106720620Y-126504099D01*
X106724453Y-126229593D01*
X106724453Y-123689593D01*
X106677772Y-123453838D01*
X106586188Y-123231639D01*
X106453190Y-123031460D01*
X106283843Y-122860927D01*
X106084598Y-122726534D01*
X105863044Y-122633402D01*
X105627619Y-122585076D01*
X105387292Y-122583398D01*
X105151216Y-122628432D01*
X104928383Y-122718462D01*
X104727281Y-122850060D01*
X104555570Y-123018212D01*
X104419790Y-123216514D01*
X104325112Y-123437413D01*
X104275144Y-123672494D01*
X104271789Y-123912803D01*
X104315174Y-124149188D01*
X104403646Y-124372644D01*
X104533836Y-124574660D01*
X104700786Y-124747541D01*
X104898135Y-124884702D01*
X105118367Y-124980920D01*
X105353094Y-125032528D01*
X105593374Y-125037561D01*
X105830056Y-124995827D01*
X106054124Y-124908917D01*
X106257044Y-124780140D01*
X106431086Y-124614402D01*
X106569622Y-124418015D01*
X106667374Y-124198460D01*
X106720620Y-123964099D01*
X106724453Y-123689593D01*
X106724453Y-126229593D01*
X106677772Y-125993838D01*
X106586188Y-125771639D01*
X106453190Y-125571460D01*
X106283843Y-125400927D01*
X106084598Y-125266534D01*
X105863044Y-125173402D01*
X105627619Y-125125076D01*
X105387292Y-125123398D01*
X105151216Y-125168432D01*
X104928383Y-125258462D01*
X104727281Y-125390060D01*
X104555570Y-125558212D01*
X104465155Y-125690259D01*
X102712448Y-123937552D01*
X102687362Y-123916946D01*
X102815019Y-123761396D01*
X102916715Y-123571136D01*
X102979338Y-123364693D01*
X103000000Y-123154913D01*
X103000000Y-118854913D01*
X103017768Y-118674513D01*
X103068955Y-118505770D01*
X103152079Y-118350256D01*
X103263946Y-118213946D01*
X103400256Y-118102079D01*
X103555770Y-118018955D01*
X103724513Y-117967768D01*
X103904913Y-117950000D01*
X110495122Y-117950000D01*
X110675518Y-117967767D01*
X110844257Y-118018952D01*
X110999769Y-118102073D01*
X111136077Y-118213935D01*
X111247944Y-118350240D01*
X111331070Y-118505749D01*
X111382262Y-118674487D01*
X111400035Y-118854881D01*
X111400654Y-136820001D01*
G36*
X86250000Y-139745087D02*
X86232232Y-139925487D01*
X86181045Y-140094230D01*
X86097921Y-140249744D01*
X85986054Y-140386054D01*
X85849744Y-140497921D01*
X85694230Y-140581045D01*
X85525487Y-140632232D01*
X85345087Y-140650000D01*
X72504913Y-140650000D01*
X72324513Y-140632232D01*
X72155770Y-140581045D01*
X72000256Y-140497921D01*
X71863946Y-140386054D01*
X71752079Y-140249744D01*
X71668955Y-140094230D01*
X71617768Y-139925487D01*
X71600000Y-139745087D01*
X71600000Y-134254913D01*
X71617768Y-134074513D01*
X71668955Y-133905770D01*
X71752079Y-133750256D01*
X71863946Y-133613946D01*
X72000256Y-133502079D01*
X72155770Y-133418955D01*
X72324513Y-133367768D01*
X72504913Y-133350000D01*
X85345087Y-133350000D01*
X85525487Y-133367768D01*
X85694230Y-133418955D01*
X85849744Y-133502079D01*
X85986054Y-133613946D01*
X86097921Y-133750256D01*
X86181045Y-133905770D01*
X86232232Y-134074513D01*
X86250000Y-134254913D01*
X86250000Y-139745087D01*
X86250000Y-139745087D01*
G37*
X86250000Y-139745087D02*
X86232232Y-139925487D01*
X86181045Y-140094230D01*
X86097921Y-140249744D01*
X85986054Y-140386054D01*
X85849744Y-140497921D01*
X85694230Y-140581045D01*
X85525487Y-140632232D01*
X85345087Y-140650000D01*
X72504913Y-140650000D01*
X72324513Y-140632232D01*
X72155770Y-140581045D01*
X72000256Y-140497921D01*
X71863946Y-140386054D01*
X71752079Y-140249744D01*
X71668955Y-140094230D01*
X71617768Y-139925487D01*
X71600000Y-139745087D01*
X71600000Y-134254913D01*
X71617768Y-134074513D01*
X71668955Y-133905770D01*
X71752079Y-133750256D01*
X71863946Y-133613946D01*
X72000256Y-133502079D01*
X72155770Y-133418955D01*
X72324513Y-133367768D01*
X72504913Y-133350000D01*
X85345087Y-133350000D01*
X85525487Y-133367768D01*
X85694230Y-133418955D01*
X85849744Y-133502079D01*
X85986054Y-133613946D01*
X86097921Y-133750256D01*
X86181045Y-133905770D01*
X86232232Y-134074513D01*
X86250000Y-134254913D01*
X86250000Y-139745087D01*
G36*
X102400000Y-139745087D02*
X102382232Y-139925487D01*
X102331045Y-140094230D01*
X102247921Y-140249744D01*
X102136054Y-140386054D01*
X101999744Y-140497921D01*
X101844230Y-140581045D01*
X101675487Y-140632232D01*
X101495087Y-140650000D01*
X88654913Y-140650000D01*
X88474513Y-140632232D01*
X88305770Y-140581045D01*
X88150256Y-140497921D01*
X88013946Y-140386054D01*
X87902079Y-140249744D01*
X87818955Y-140094230D01*
X87767768Y-139925487D01*
X87750000Y-139745087D01*
X87750000Y-134254913D01*
X87767768Y-134074513D01*
X87818955Y-133905770D01*
X87902079Y-133750256D01*
X88013946Y-133613946D01*
X88150256Y-133502079D01*
X88305770Y-133418955D01*
X88474513Y-133367768D01*
X88654913Y-133350000D01*
X101495087Y-133350000D01*
X101675487Y-133367768D01*
X101844230Y-133418955D01*
X101999744Y-133502079D01*
X102136054Y-133613946D01*
X102247921Y-133750256D01*
X102331045Y-133905770D01*
X102382232Y-134074513D01*
X102400000Y-134254913D01*
X102400000Y-139745087D01*
X102400000Y-139745087D01*
G37*
X102400000Y-139745087D02*
X102382232Y-139925487D01*
X102331045Y-140094230D01*
X102247921Y-140249744D01*
X102136054Y-140386054D01*
X101999744Y-140497921D01*
X101844230Y-140581045D01*
X101675487Y-140632232D01*
X101495087Y-140650000D01*
X88654913Y-140650000D01*
X88474513Y-140632232D01*
X88305770Y-140581045D01*
X88150256Y-140497921D01*
X88013946Y-140386054D01*
X87902079Y-140249744D01*
X87818955Y-140094230D01*
X87767768Y-139925487D01*
X87750000Y-139745087D01*
X87750000Y-134254913D01*
X87767768Y-134074513D01*
X87818955Y-133905770D01*
X87902079Y-133750256D01*
X88013946Y-133613946D01*
X88150256Y-133502079D01*
X88305770Y-133418955D01*
X88474513Y-133367768D01*
X88654913Y-133350000D01*
X101495087Y-133350000D01*
X101675487Y-133367768D01*
X101844230Y-133418955D01*
X101999744Y-133502079D01*
X102136054Y-133613946D01*
X102247921Y-133750256D01*
X102331045Y-133905770D01*
X102382232Y-134074513D01*
X102400000Y-134254913D01*
X102400000Y-139745087D01*
G36*
X86650000Y-122745087D02*
X86632232Y-122925487D01*
X86581045Y-123094230D01*
X86497921Y-123249744D01*
X86386054Y-123386054D01*
X86249744Y-123497921D01*
X86094230Y-123581045D01*
X85925487Y-123632232D01*
X85745087Y-123650000D01*
X72504913Y-123650000D01*
X72324513Y-123632232D01*
X72155770Y-123581045D01*
X72000256Y-123497921D01*
X71863946Y-123386054D01*
X71752079Y-123249744D01*
X71668955Y-123094230D01*
X71617768Y-122925487D01*
X71600000Y-122745087D01*
X71600000Y-117254913D01*
X71617768Y-117074513D01*
X71668955Y-116905770D01*
X71752079Y-116750256D01*
X71863946Y-116613946D01*
X72000256Y-116502079D01*
X72155770Y-116418955D01*
X72324513Y-116367768D01*
X72504913Y-116350000D01*
X85745087Y-116350000D01*
X85925487Y-116367768D01*
X86094230Y-116418955D01*
X86249744Y-116502079D01*
X86386054Y-116613946D01*
X86497921Y-116750256D01*
X86581045Y-116905770D01*
X86632232Y-117074513D01*
X86650000Y-117254913D01*
X86650000Y-122745087D01*
X86650000Y-122745087D01*
G37*
X86650000Y-122745087D02*
X86632232Y-122925487D01*
X86581045Y-123094230D01*
X86497921Y-123249744D01*
X86386054Y-123386054D01*
X86249744Y-123497921D01*
X86094230Y-123581045D01*
X85925487Y-123632232D01*
X85745087Y-123650000D01*
X72504913Y-123650000D01*
X72324513Y-123632232D01*
X72155770Y-123581045D01*
X72000256Y-123497921D01*
X71863946Y-123386054D01*
X71752079Y-123249744D01*
X71668955Y-123094230D01*
X71617768Y-122925487D01*
X71600000Y-122745087D01*
X71600000Y-117254913D01*
X71617768Y-117074513D01*
X71668955Y-116905770D01*
X71752079Y-116750256D01*
X71863946Y-116613946D01*
X72000256Y-116502079D01*
X72155770Y-116418955D01*
X72324513Y-116367768D01*
X72504913Y-116350000D01*
X85745087Y-116350000D01*
X85925487Y-116367768D01*
X86094230Y-116418955D01*
X86249744Y-116502079D01*
X86386054Y-116613946D01*
X86497921Y-116750256D01*
X86581045Y-116905770D01*
X86632232Y-117074513D01*
X86650000Y-117254913D01*
X86650000Y-122745087D01*
G36*
X102400000Y-122745087D02*
X102382232Y-122925487D01*
X102331045Y-123094230D01*
X102247921Y-123249744D01*
X102136054Y-123386054D01*
X101999744Y-123497921D01*
X101844230Y-123581045D01*
X101675487Y-123632232D01*
X101495087Y-123650000D01*
X95716548Y-123650000D01*
X95717531Y-123579645D01*
X95690201Y-123441616D01*
X95636580Y-123311524D01*
X95558713Y-123194325D01*
X95459565Y-123094482D01*
X95342912Y-123015798D01*
X95213197Y-122961271D01*
X95075362Y-122932978D01*
X94934656Y-122931995D01*
X94796440Y-122958361D01*
X94665977Y-123011072D01*
X94548236Y-123088119D01*
X94447703Y-123186568D01*
X94368207Y-123302669D01*
X94312776Y-123432000D01*
X94283521Y-123569634D01*
X94282399Y-123650000D01*
X88254913Y-123650000D01*
X88074513Y-123632232D01*
X87905770Y-123581045D01*
X87750256Y-123497921D01*
X87613946Y-123386054D01*
X87502079Y-123249744D01*
X87418955Y-123094230D01*
X87367768Y-122925487D01*
X87350000Y-122745087D01*
X87350000Y-117254913D01*
X87367768Y-117074513D01*
X87418955Y-116905770D01*
X87502079Y-116750256D01*
X87613946Y-116613946D01*
X87750256Y-116502079D01*
X87905770Y-116418955D01*
X88074513Y-116367768D01*
X88254913Y-116350000D01*
X101495087Y-116350000D01*
X101675487Y-116367768D01*
X101844230Y-116418955D01*
X101999744Y-116502079D01*
X102136054Y-116613946D01*
X102247921Y-116750256D01*
X102331045Y-116905770D01*
X102382232Y-117074513D01*
X102400000Y-117254913D01*
X102400000Y-122745087D01*
X102400000Y-122745087D01*
G37*
X102400000Y-122745087D02*
X102382232Y-122925487D01*
X102331045Y-123094230D01*
X102247921Y-123249744D01*
X102136054Y-123386054D01*
X101999744Y-123497921D01*
X101844230Y-123581045D01*
X101675487Y-123632232D01*
X101495087Y-123650000D01*
X95716548Y-123650000D01*
X95717531Y-123579645D01*
X95690201Y-123441616D01*
X95636580Y-123311524D01*
X95558713Y-123194325D01*
X95459565Y-123094482D01*
X95342912Y-123015798D01*
X95213197Y-122961271D01*
X95075362Y-122932978D01*
X94934656Y-122931995D01*
X94796440Y-122958361D01*
X94665977Y-123011072D01*
X94548236Y-123088119D01*
X94447703Y-123186568D01*
X94368207Y-123302669D01*
X94312776Y-123432000D01*
X94283521Y-123569634D01*
X94282399Y-123650000D01*
X88254913Y-123650000D01*
X88074513Y-123632232D01*
X87905770Y-123581045D01*
X87750256Y-123497921D01*
X87613946Y-123386054D01*
X87502079Y-123249744D01*
X87418955Y-123094230D01*
X87367768Y-122925487D01*
X87350000Y-122745087D01*
X87350000Y-117254913D01*
X87367768Y-117074513D01*
X87418955Y-116905770D01*
X87502079Y-116750256D01*
X87613946Y-116613946D01*
X87750256Y-116502079D01*
X87905770Y-116418955D01*
X88074513Y-116367768D01*
X88254913Y-116350000D01*
X101495087Y-116350000D01*
X101675487Y-116367768D01*
X101844230Y-116418955D01*
X101999744Y-116502079D01*
X102136054Y-116613946D01*
X102247921Y-116750256D01*
X102331045Y-116905770D01*
X102382232Y-117074513D01*
X102400000Y-117254913D01*
X102400000Y-122745087D01*
G36*
X102400000Y-105745087D02*
X102382232Y-105925487D01*
X102331045Y-106094230D01*
X102247921Y-106249744D01*
X102136054Y-106386054D01*
X101999744Y-106497921D01*
X101844230Y-106581045D01*
X101675487Y-106632232D01*
X101495087Y-106650000D01*
X88254913Y-106650000D01*
X88074513Y-106632232D01*
X87905770Y-106581045D01*
X87750256Y-106497921D01*
X87613946Y-106386054D01*
X87502079Y-106249744D01*
X87418955Y-106094230D01*
X87367768Y-105925487D01*
X87350000Y-105745087D01*
X87350000Y-100254913D01*
X87367768Y-100074513D01*
X87418955Y-99905770D01*
X87502079Y-99750256D01*
X87613946Y-99613946D01*
X87750256Y-99502079D01*
X87905770Y-99418955D01*
X88074513Y-99367768D01*
X88254913Y-99350000D01*
X101495087Y-99350000D01*
X101675487Y-99367768D01*
X101844230Y-99418955D01*
X101999744Y-99502079D01*
X102136054Y-99613946D01*
X102247921Y-99750256D01*
X102331045Y-99905770D01*
X102382232Y-100074513D01*
X102400000Y-100254913D01*
X102400000Y-105745087D01*
X102400000Y-105745087D01*
G37*
X102400000Y-105745087D02*
X102382232Y-105925487D01*
X102331045Y-106094230D01*
X102247921Y-106249744D01*
X102136054Y-106386054D01*
X101999744Y-106497921D01*
X101844230Y-106581045D01*
X101675487Y-106632232D01*
X101495087Y-106650000D01*
X88254913Y-106650000D01*
X88074513Y-106632232D01*
X87905770Y-106581045D01*
X87750256Y-106497921D01*
X87613946Y-106386054D01*
X87502079Y-106249744D01*
X87418955Y-106094230D01*
X87367768Y-105925487D01*
X87350000Y-105745087D01*
X87350000Y-100254913D01*
X87367768Y-100074513D01*
X87418955Y-99905770D01*
X87502079Y-99750256D01*
X87613946Y-99613946D01*
X87750256Y-99502079D01*
X87905770Y-99418955D01*
X88074513Y-99367768D01*
X88254913Y-99350000D01*
X101495087Y-99350000D01*
X101675487Y-99367768D01*
X101844230Y-99418955D01*
X101999744Y-99502079D01*
X102136054Y-99613946D01*
X102247921Y-99750256D01*
X102331045Y-99905770D01*
X102382232Y-100074513D01*
X102400000Y-100254913D01*
X102400000Y-105745087D01*
G36*
X86650000Y-105745087D02*
X86632232Y-105925487D01*
X86581045Y-106094230D01*
X86497921Y-106249744D01*
X86386054Y-106386054D01*
X86249744Y-106497921D01*
X86094230Y-106581045D01*
X85925487Y-106632232D01*
X85745087Y-106650000D01*
X72504913Y-106650000D01*
X72324513Y-106632232D01*
X72155770Y-106581045D01*
X72000256Y-106497921D01*
X71863946Y-106386054D01*
X71752079Y-106249744D01*
X71668955Y-106094230D01*
X71617768Y-105925487D01*
X71600000Y-105745087D01*
X71600000Y-100254913D01*
X71617768Y-100074513D01*
X71668955Y-99905770D01*
X71752079Y-99750256D01*
X71863946Y-99613946D01*
X72000256Y-99502079D01*
X72155770Y-99418955D01*
X72324513Y-99367768D01*
X72504913Y-99350000D01*
X85745087Y-99350000D01*
X85925487Y-99367768D01*
X86094230Y-99418955D01*
X86249744Y-99502079D01*
X86386054Y-99613946D01*
X86497921Y-99750256D01*
X86581045Y-99905770D01*
X86632232Y-100074513D01*
X86650000Y-100254913D01*
X86650000Y-105745087D01*
X86650000Y-105745087D01*
G37*
X86650000Y-105745087D02*
X86632232Y-105925487D01*
X86581045Y-106094230D01*
X86497921Y-106249744D01*
X86386054Y-106386054D01*
X86249744Y-106497921D01*
X86094230Y-106581045D01*
X85925487Y-106632232D01*
X85745087Y-106650000D01*
X72504913Y-106650000D01*
X72324513Y-106632232D01*
X72155770Y-106581045D01*
X72000256Y-106497921D01*
X71863946Y-106386054D01*
X71752079Y-106249744D01*
X71668955Y-106094230D01*
X71617768Y-105925487D01*
X71600000Y-105745087D01*
X71600000Y-100254913D01*
X71617768Y-100074513D01*
X71668955Y-99905770D01*
X71752079Y-99750256D01*
X71863946Y-99613946D01*
X72000256Y-99502079D01*
X72155770Y-99418955D01*
X72324513Y-99367768D01*
X72504913Y-99350000D01*
X85745087Y-99350000D01*
X85925487Y-99367768D01*
X86094230Y-99418955D01*
X86249744Y-99502079D01*
X86386054Y-99613946D01*
X86497921Y-99750256D01*
X86581045Y-99905770D01*
X86632232Y-100074513D01*
X86650000Y-100254913D01*
X86650000Y-105745087D01*
M02*
