G04 (created by PCBNEW (2012-10-05 BZR 3752)-testing) date Mon 12 Nov 2012 11:41:00 PM CET*
%MOIN*%
G04 Gerber Fmt 3.4, Leading zero omitted, Abs format*
%FSLAX34Y34*%
G01*
G70*
G90*
G04 APERTURE LIST*
%ADD10C,0.006*%
%ADD11R,0.025X0.025*%
%ADD12C,0.075*%
%ADD13C,0.16*%
%ADD14C,0.025*%
%ADD15C,0.035*%
%ADD16C,0.028*%
%ADD17C,0.008*%
%ADD18C,0.02*%
G04 APERTURE END LIST*
G54D10*
G54D11*
X35039Y-44095D03*
X35433Y-44095D03*
X35393Y-43780D03*
X35079Y-43780D03*
X35236Y-43977D03*
X35236Y-44174D03*
G54D12*
X41535Y-47744D03*
X41535Y-46744D03*
X41535Y-48744D03*
X41535Y-49744D03*
X41535Y-45744D03*
X41535Y-44744D03*
X26969Y-46744D03*
X26969Y-47744D03*
X26969Y-45744D03*
X26969Y-44744D03*
X26969Y-48744D03*
X26969Y-49744D03*
G54D13*
X25984Y-55512D03*
X42520Y-55512D03*
X42520Y-38976D03*
X25984Y-38976D03*
G54D14*
X31693Y-43524D03*
X36417Y-42598D03*
X28543Y-39764D03*
X28937Y-39764D03*
X29331Y-39764D03*
X28150Y-41339D03*
X30906Y-39764D03*
X28150Y-39764D03*
X30118Y-41339D03*
X29606Y-41339D03*
X30512Y-41339D03*
X30512Y-39764D03*
X29724Y-39764D03*
X29134Y-41339D03*
X30906Y-41339D03*
X30118Y-39764D03*
X39134Y-41339D03*
X37992Y-41339D03*
X40354Y-39764D03*
X39173Y-39764D03*
X38386Y-39764D03*
X38386Y-41339D03*
X37992Y-39764D03*
X38780Y-39764D03*
X38780Y-41339D03*
X39961Y-39764D03*
X37598Y-41339D03*
X40354Y-41339D03*
X39567Y-39764D03*
X37598Y-39764D03*
X39488Y-41339D03*
X39409Y-46457D03*
X38780Y-48031D03*
X39567Y-48031D03*
G54D15*
X32283Y-47244D03*
G54D14*
X37992Y-48031D03*
X37598Y-46457D03*
G54D15*
X36220Y-47244D03*
G54D14*
X39961Y-48031D03*
X38465Y-46457D03*
X37992Y-46457D03*
X38937Y-46457D03*
X40354Y-46457D03*
X39173Y-48031D03*
X40354Y-48031D03*
X37598Y-48031D03*
X38386Y-48031D03*
X28937Y-46457D03*
X28543Y-46457D03*
X29724Y-46457D03*
X29331Y-46457D03*
X30906Y-46457D03*
G54D15*
X28642Y-47244D03*
G54D14*
X30118Y-48031D03*
X28937Y-48031D03*
G54D15*
X28666Y-53937D03*
G54D14*
X29331Y-48031D03*
X30118Y-46457D03*
X30512Y-48031D03*
X30512Y-46457D03*
X29724Y-48031D03*
X28150Y-46457D03*
X30906Y-48031D03*
X28150Y-48031D03*
X29724Y-53150D03*
X28543Y-54724D03*
X29370Y-53150D03*
X28150Y-53150D03*
X28937Y-54724D03*
X30118Y-54724D03*
X29724Y-54724D03*
X30906Y-54724D03*
X28150Y-54724D03*
X30512Y-54724D03*
X30118Y-53150D03*
X30906Y-53150D03*
X29035Y-53150D03*
X30512Y-53150D03*
X29331Y-54724D03*
X37598Y-54724D03*
X38780Y-54724D03*
X39567Y-54724D03*
G54D15*
X35039Y-48327D03*
G54D14*
X39567Y-53150D03*
X38386Y-53150D03*
X39173Y-54724D03*
X37992Y-54724D03*
X37598Y-53150D03*
X40354Y-53150D03*
X40354Y-54724D03*
X39961Y-54724D03*
X39173Y-53150D03*
G54D15*
X39847Y-53937D03*
G54D14*
X37992Y-53150D03*
X38780Y-53150D03*
X38386Y-54724D03*
X36969Y-47874D03*
X36969Y-46614D03*
G54D15*
X42913Y-43346D03*
X26378Y-43346D03*
G54D16*
X36417Y-42362D02*
X36417Y-42598D01*
X31890Y-42126D02*
X36181Y-42126D01*
X31693Y-43524D02*
X31693Y-42323D01*
X31890Y-42126D02*
X31693Y-42323D01*
X36181Y-42126D02*
X36417Y-42362D01*
G54D17*
X28543Y-39764D02*
X28150Y-39764D01*
X30906Y-41339D02*
X30512Y-41339D01*
X30906Y-39764D02*
X30512Y-39764D01*
X30118Y-39764D02*
X29724Y-39764D01*
X29331Y-39764D02*
X28937Y-39764D01*
X30118Y-41339D02*
X29606Y-41339D01*
X29134Y-41339D02*
X28150Y-41339D01*
X39567Y-39764D02*
X39173Y-39764D01*
X40354Y-41339D02*
X39488Y-41339D01*
X38386Y-41339D02*
X37992Y-41339D01*
X37992Y-39764D02*
X37598Y-39764D01*
X40354Y-39764D02*
X39961Y-39764D01*
X39134Y-41339D02*
X38780Y-41339D01*
X38780Y-39764D02*
X38386Y-39764D01*
X38465Y-46457D02*
X38937Y-46457D01*
G54D16*
X32283Y-47244D02*
X36220Y-47244D01*
G54D17*
X38386Y-48031D02*
X38780Y-48031D01*
X39173Y-48031D02*
X39567Y-48031D01*
X37598Y-48031D02*
X37992Y-48031D01*
X39409Y-46457D02*
X40354Y-46457D01*
X37598Y-46457D02*
X37992Y-46457D01*
X39961Y-48031D02*
X40354Y-48031D01*
X29724Y-46457D02*
X30118Y-46457D01*
X30118Y-48031D02*
X30512Y-48031D01*
X28937Y-46457D02*
X29331Y-46457D01*
X29331Y-48031D02*
X29724Y-48031D01*
G54D16*
X28642Y-53913D02*
X28642Y-47244D01*
G54D17*
X30512Y-46457D02*
X30906Y-46457D01*
G54D16*
X28666Y-53937D02*
X28642Y-53913D01*
G54D17*
X28150Y-48031D02*
X28937Y-48031D01*
X28150Y-46457D02*
X28543Y-46457D01*
X30118Y-53150D02*
X29724Y-53150D01*
X28543Y-54724D02*
X28150Y-54724D01*
X30118Y-54724D02*
X29724Y-54724D01*
X29370Y-53150D02*
X29035Y-53150D01*
X30906Y-53150D02*
X30512Y-53150D01*
X30906Y-54724D02*
X30512Y-54724D01*
X29331Y-54724D02*
X28937Y-54724D01*
X38780Y-54724D02*
X38386Y-54724D01*
G54D16*
X39862Y-49016D02*
X35728Y-49016D01*
X35728Y-49016D02*
X35039Y-48327D01*
X39862Y-53922D02*
X39862Y-49016D01*
G54D17*
X39567Y-54724D02*
X39173Y-54724D01*
X40354Y-53150D02*
X39567Y-53150D01*
X39173Y-53150D02*
X38780Y-53150D01*
X38386Y-53150D02*
X37992Y-53150D01*
G54D16*
X39847Y-53937D02*
X39862Y-53922D01*
G54D17*
X37992Y-54724D02*
X37598Y-54724D01*
X40354Y-54724D02*
X39961Y-54724D01*
G54D18*
X36969Y-46614D02*
X36969Y-47874D01*
G54D16*
X35236Y-43977D02*
X35236Y-46299D01*
X35236Y-46299D02*
X35236Y-46300D01*
X26969Y-45744D02*
X26969Y-45276D01*
X41535Y-44724D02*
X42913Y-43346D01*
X41342Y-45551D02*
X41535Y-45744D01*
X37008Y-45551D02*
X41342Y-45551D01*
X26969Y-44744D02*
X26969Y-43937D01*
X26969Y-43937D02*
X26378Y-43346D01*
X35433Y-46300D02*
X35905Y-46300D01*
X30925Y-44744D02*
X32481Y-46300D01*
X41535Y-44744D02*
X41535Y-44724D01*
X35236Y-46300D02*
X35433Y-46300D01*
X32481Y-46300D02*
X35236Y-46300D01*
X26969Y-44744D02*
X30925Y-44744D01*
X35905Y-46300D02*
X36259Y-46300D01*
X41535Y-44744D02*
X41535Y-45744D01*
X26969Y-45276D02*
X26969Y-44744D01*
X36259Y-46300D02*
X37008Y-45551D01*
G54D10*
G36*
X43858Y-54763D02*
X43710Y-54541D01*
X43499Y-54328D01*
X43251Y-54161D01*
X42974Y-54045D01*
X42681Y-53984D01*
X42381Y-53982D01*
X42086Y-54038D01*
X42050Y-54052D01*
X42050Y-45704D01*
X42050Y-44704D01*
X42032Y-44605D01*
X41996Y-44511D01*
X41985Y-44492D01*
X41915Y-44448D01*
X41831Y-44532D01*
X41831Y-44364D01*
X41787Y-44294D01*
X41695Y-44253D01*
X41597Y-44231D01*
X41495Y-44229D01*
X41396Y-44247D01*
X41302Y-44283D01*
X41283Y-44294D01*
X41239Y-44364D01*
X41535Y-44659D01*
X41831Y-44364D01*
X41831Y-44532D01*
X41620Y-44744D01*
X41915Y-45040D01*
X41985Y-44996D01*
X42026Y-44904D01*
X42048Y-44806D01*
X42050Y-44704D01*
X42050Y-45704D01*
X42032Y-45605D01*
X41996Y-45511D01*
X41985Y-45492D01*
X41915Y-45448D01*
X41831Y-45532D01*
X41831Y-45364D01*
X41787Y-45294D01*
X41695Y-45253D01*
X41656Y-45244D01*
X41674Y-45241D01*
X41768Y-45205D01*
X41787Y-45194D01*
X41831Y-45124D01*
X41535Y-44829D01*
X41450Y-44913D01*
X41450Y-44744D01*
X41155Y-44448D01*
X41085Y-44492D01*
X41044Y-44584D01*
X41022Y-44682D01*
X41020Y-44784D01*
X41038Y-44883D01*
X41074Y-44977D01*
X41085Y-44996D01*
X41155Y-45040D01*
X41450Y-44744D01*
X41450Y-44913D01*
X41239Y-45124D01*
X41283Y-45194D01*
X41375Y-45235D01*
X41413Y-45243D01*
X41396Y-45247D01*
X41302Y-45283D01*
X41283Y-45294D01*
X41239Y-45364D01*
X41535Y-45659D01*
X41831Y-45364D01*
X41831Y-45532D01*
X41620Y-45744D01*
X41915Y-46040D01*
X41985Y-45996D01*
X42026Y-45904D01*
X42048Y-45806D01*
X42050Y-45704D01*
X42050Y-54052D01*
X42030Y-54060D01*
X42030Y-49696D01*
X42030Y-48696D01*
X42030Y-47696D01*
X42030Y-46696D01*
X42011Y-46600D01*
X41974Y-46511D01*
X41920Y-46430D01*
X41852Y-46361D01*
X41771Y-46307D01*
X41682Y-46269D01*
X41604Y-46253D01*
X41674Y-46241D01*
X41768Y-46205D01*
X41787Y-46194D01*
X41831Y-46124D01*
X41535Y-45829D01*
X41450Y-45913D01*
X41450Y-45744D01*
X41155Y-45448D01*
X41085Y-45492D01*
X41044Y-45584D01*
X41022Y-45682D01*
X41020Y-45784D01*
X41038Y-45883D01*
X41074Y-45977D01*
X41085Y-45996D01*
X41155Y-46040D01*
X41450Y-45744D01*
X41450Y-45913D01*
X41239Y-46124D01*
X41283Y-46194D01*
X41375Y-46235D01*
X41461Y-46254D01*
X41395Y-46267D01*
X41305Y-46304D01*
X41224Y-46357D01*
X41154Y-46425D01*
X41099Y-46505D01*
X41061Y-46594D01*
X41041Y-46689D01*
X41040Y-46786D01*
X41057Y-46881D01*
X41093Y-46971D01*
X41146Y-47053D01*
X41213Y-47122D01*
X41293Y-47178D01*
X41381Y-47217D01*
X41476Y-47238D01*
X41573Y-47240D01*
X41669Y-47223D01*
X41759Y-47188D01*
X41841Y-47136D01*
X41911Y-47069D01*
X41967Y-46989D01*
X42007Y-46901D01*
X42028Y-46806D01*
X42030Y-46696D01*
X42030Y-47696D01*
X42011Y-47600D01*
X41974Y-47511D01*
X41920Y-47430D01*
X41852Y-47361D01*
X41771Y-47307D01*
X41682Y-47269D01*
X41587Y-47250D01*
X41490Y-47249D01*
X41395Y-47267D01*
X41305Y-47304D01*
X41224Y-47357D01*
X41154Y-47425D01*
X41099Y-47505D01*
X41061Y-47594D01*
X41041Y-47689D01*
X41040Y-47786D01*
X41057Y-47881D01*
X41093Y-47971D01*
X41146Y-48053D01*
X41213Y-48122D01*
X41293Y-48178D01*
X41381Y-48217D01*
X41476Y-48238D01*
X41573Y-48240D01*
X41669Y-48223D01*
X41759Y-48188D01*
X41841Y-48136D01*
X41911Y-48069D01*
X41967Y-47989D01*
X42007Y-47901D01*
X42028Y-47806D01*
X42030Y-47696D01*
X42030Y-48696D01*
X42011Y-48600D01*
X41974Y-48511D01*
X41920Y-48430D01*
X41852Y-48361D01*
X41771Y-48307D01*
X41682Y-48269D01*
X41587Y-48250D01*
X41490Y-48249D01*
X41395Y-48267D01*
X41305Y-48304D01*
X41224Y-48357D01*
X41154Y-48425D01*
X41099Y-48505D01*
X41061Y-48594D01*
X41041Y-48689D01*
X41040Y-48786D01*
X41057Y-48881D01*
X41093Y-48971D01*
X41146Y-49053D01*
X41213Y-49122D01*
X41293Y-49178D01*
X41381Y-49217D01*
X41476Y-49238D01*
X41573Y-49240D01*
X41669Y-49223D01*
X41759Y-49188D01*
X41841Y-49136D01*
X41911Y-49069D01*
X41967Y-48989D01*
X42007Y-48901D01*
X42028Y-48806D01*
X42030Y-48696D01*
X42030Y-49696D01*
X42011Y-49600D01*
X41974Y-49511D01*
X41920Y-49430D01*
X41852Y-49361D01*
X41771Y-49307D01*
X41682Y-49269D01*
X41587Y-49250D01*
X41490Y-49249D01*
X41395Y-49267D01*
X41305Y-49304D01*
X41224Y-49357D01*
X41154Y-49425D01*
X41099Y-49505D01*
X41061Y-49594D01*
X41041Y-49689D01*
X41040Y-49786D01*
X41057Y-49881D01*
X41093Y-49971D01*
X41146Y-50053D01*
X41213Y-50122D01*
X41293Y-50178D01*
X41381Y-50217D01*
X41476Y-50238D01*
X41573Y-50240D01*
X41669Y-50223D01*
X41759Y-50188D01*
X41841Y-50136D01*
X41911Y-50069D01*
X41967Y-49989D01*
X42007Y-49901D01*
X42028Y-49806D01*
X42030Y-49696D01*
X42030Y-54060D01*
X41808Y-54151D01*
X41558Y-54315D01*
X41343Y-54525D01*
X41174Y-54772D01*
X41056Y-55048D01*
X40994Y-55341D01*
X40989Y-55641D01*
X41044Y-55935D01*
X41154Y-56214D01*
X41316Y-56466D01*
X41524Y-56682D01*
X41766Y-56850D01*
X40886Y-56850D01*
X40886Y-55060D01*
X40886Y-52814D01*
X40886Y-48367D01*
X40886Y-46121D01*
X40886Y-41674D01*
X40886Y-39429D01*
X37066Y-39429D01*
X37066Y-41674D01*
X40886Y-41674D01*
X40886Y-46121D01*
X37066Y-46121D01*
X37066Y-46389D01*
X37042Y-46379D01*
X36995Y-46369D01*
X36947Y-46369D01*
X36900Y-46378D01*
X36855Y-46396D01*
X36815Y-46422D01*
X36781Y-46456D01*
X36753Y-46495D01*
X36735Y-46540D01*
X36725Y-46587D01*
X36724Y-46635D01*
X36733Y-46682D01*
X36749Y-46723D01*
X36749Y-47765D01*
X36735Y-47800D01*
X36725Y-47847D01*
X36724Y-47895D01*
X36733Y-47942D01*
X36750Y-47986D01*
X36776Y-48027D01*
X36810Y-48061D01*
X36849Y-48089D01*
X36893Y-48108D01*
X36940Y-48118D01*
X36988Y-48119D01*
X37035Y-48111D01*
X37066Y-48099D01*
X37066Y-48367D01*
X40886Y-48367D01*
X40886Y-52814D01*
X40122Y-52814D01*
X40122Y-49018D01*
X40122Y-49016D01*
X40117Y-48967D01*
X40117Y-48965D01*
X40108Y-48937D01*
X40103Y-48919D01*
X40102Y-48917D01*
X40080Y-48874D01*
X40079Y-48872D01*
X40068Y-48859D01*
X40048Y-48834D01*
X40046Y-48833D01*
X40009Y-48801D01*
X40007Y-48800D01*
X40001Y-48797D01*
X39964Y-48777D01*
X39963Y-48776D01*
X39914Y-48761D01*
X39876Y-48757D01*
X39866Y-48756D01*
X39864Y-48756D01*
X39862Y-48756D01*
X36677Y-48756D01*
X36677Y-42602D01*
X36677Y-42598D01*
X36677Y-42364D01*
X36677Y-42362D01*
X36672Y-42313D01*
X36672Y-42311D01*
X36663Y-42283D01*
X36658Y-42265D01*
X36657Y-42263D01*
X36634Y-42218D01*
X36615Y-42196D01*
X36603Y-42180D01*
X36601Y-42179D01*
X36600Y-42178D01*
X36367Y-41944D01*
X36366Y-41943D01*
X36365Y-41942D01*
X36358Y-41936D01*
X36328Y-41911D01*
X36283Y-41887D01*
X36282Y-41886D01*
X36281Y-41886D01*
X36233Y-41871D01*
X36198Y-41867D01*
X36185Y-41866D01*
X36182Y-41866D01*
X36181Y-41866D01*
X31892Y-41866D01*
X31890Y-41866D01*
X31882Y-41866D01*
X31841Y-41870D01*
X31793Y-41885D01*
X31791Y-41885D01*
X31791Y-41886D01*
X31746Y-41909D01*
X31715Y-41935D01*
X31709Y-41940D01*
X31707Y-41942D01*
X31706Y-41943D01*
X31511Y-42136D01*
X31511Y-42137D01*
X31510Y-42137D01*
X31509Y-42139D01*
X31503Y-42145D01*
X31478Y-42176D01*
X31454Y-42221D01*
X31453Y-42221D01*
X31453Y-42223D01*
X31438Y-42271D01*
X31438Y-41674D01*
X31438Y-39429D01*
X27617Y-39429D01*
X27617Y-41674D01*
X31438Y-41674D01*
X31438Y-42271D01*
X31434Y-42305D01*
X31433Y-42319D01*
X31433Y-42322D01*
X31433Y-42323D01*
X31433Y-43524D01*
X31438Y-43575D01*
X31453Y-43623D01*
X31476Y-43668D01*
X31509Y-43707D01*
X31548Y-43740D01*
X31592Y-43764D01*
X31641Y-43779D01*
X31691Y-43784D01*
X31742Y-43779D01*
X31790Y-43765D01*
X31835Y-43742D01*
X31875Y-43710D01*
X31908Y-43671D01*
X31932Y-43626D01*
X31947Y-43578D01*
X31953Y-43528D01*
X31953Y-43524D01*
X31953Y-42430D01*
X31997Y-42386D01*
X36073Y-42386D01*
X36157Y-42469D01*
X36157Y-42598D01*
X36162Y-42649D01*
X36177Y-42697D01*
X36200Y-42742D01*
X36233Y-42781D01*
X36272Y-42814D01*
X36316Y-42838D01*
X36365Y-42853D01*
X36415Y-42858D01*
X36466Y-42853D01*
X36514Y-42839D01*
X36559Y-42816D01*
X36599Y-42784D01*
X36632Y-42745D01*
X36656Y-42700D01*
X36671Y-42652D01*
X36677Y-42602D01*
X36677Y-48756D01*
X36515Y-48756D01*
X36515Y-47215D01*
X36503Y-47158D01*
X36481Y-47105D01*
X36449Y-47057D01*
X36409Y-47016D01*
X36361Y-46984D01*
X36308Y-46961D01*
X36251Y-46950D01*
X36193Y-46949D01*
X36136Y-46960D01*
X36083Y-46982D01*
X36079Y-46984D01*
X32424Y-46984D01*
X32371Y-46961D01*
X32314Y-46950D01*
X32256Y-46949D01*
X32199Y-46960D01*
X32146Y-46982D01*
X32098Y-47013D01*
X32056Y-47054D01*
X32024Y-47101D01*
X32001Y-47154D01*
X31989Y-47211D01*
X31988Y-47269D01*
X31998Y-47326D01*
X32020Y-47379D01*
X32051Y-47428D01*
X32091Y-47469D01*
X32139Y-47502D01*
X32192Y-47526D01*
X32248Y-47538D01*
X32306Y-47539D01*
X32363Y-47529D01*
X32416Y-47508D01*
X32422Y-47504D01*
X36080Y-47504D01*
X36129Y-47526D01*
X36185Y-47538D01*
X36243Y-47539D01*
X36300Y-47529D01*
X36353Y-47508D01*
X36402Y-47477D01*
X36444Y-47437D01*
X36477Y-47390D01*
X36501Y-47337D01*
X36514Y-47281D01*
X36515Y-47215D01*
X36515Y-48756D01*
X35836Y-48756D01*
X35322Y-48242D01*
X35322Y-48241D01*
X35300Y-48188D01*
X35268Y-48140D01*
X35228Y-48099D01*
X35180Y-48067D01*
X35127Y-48044D01*
X35070Y-48033D01*
X35012Y-48032D01*
X34955Y-48043D01*
X34902Y-48065D01*
X34854Y-48096D01*
X34812Y-48137D01*
X34780Y-48184D01*
X34757Y-48237D01*
X34745Y-48294D01*
X34744Y-48352D01*
X34754Y-48409D01*
X34776Y-48462D01*
X34807Y-48511D01*
X34847Y-48552D01*
X34895Y-48585D01*
X34948Y-48609D01*
X34954Y-48610D01*
X35542Y-49198D01*
X35544Y-49200D01*
X35556Y-49209D01*
X35581Y-49231D01*
X35583Y-49232D01*
X35626Y-49255D01*
X35628Y-49255D01*
X35658Y-49265D01*
X35674Y-49270D01*
X35676Y-49271D01*
X35694Y-49272D01*
X35724Y-49276D01*
X35728Y-49276D01*
X39602Y-49276D01*
X39602Y-52814D01*
X37066Y-52814D01*
X37066Y-55060D01*
X40886Y-55060D01*
X40886Y-56850D01*
X40846Y-56850D01*
X31438Y-56850D01*
X31438Y-55060D01*
X31438Y-52814D01*
X28902Y-52814D01*
X28902Y-48367D01*
X31438Y-48367D01*
X31438Y-46121D01*
X27617Y-46121D01*
X27617Y-48367D01*
X28382Y-48367D01*
X28382Y-52814D01*
X27617Y-52814D01*
X27617Y-55060D01*
X31438Y-55060D01*
X31438Y-56850D01*
X31398Y-56850D01*
X26728Y-56850D01*
X26930Y-56722D01*
X27147Y-56516D01*
X27320Y-56271D01*
X27441Y-55997D01*
X27508Y-55705D01*
X27513Y-55362D01*
X27484Y-55217D01*
X27484Y-45704D01*
X27484Y-44704D01*
X27466Y-44605D01*
X27430Y-44511D01*
X27419Y-44492D01*
X27349Y-44448D01*
X27265Y-44532D01*
X27265Y-44364D01*
X27221Y-44294D01*
X27129Y-44253D01*
X27031Y-44231D01*
X26929Y-44229D01*
X26830Y-44247D01*
X26736Y-44283D01*
X26717Y-44294D01*
X26673Y-44364D01*
X26969Y-44659D01*
X27265Y-44364D01*
X27265Y-44532D01*
X27054Y-44744D01*
X27349Y-45040D01*
X27419Y-44996D01*
X27460Y-44904D01*
X27482Y-44806D01*
X27484Y-44704D01*
X27484Y-45704D01*
X27466Y-45605D01*
X27430Y-45511D01*
X27419Y-45492D01*
X27349Y-45448D01*
X27265Y-45532D01*
X27265Y-45364D01*
X27221Y-45294D01*
X27129Y-45253D01*
X27090Y-45244D01*
X27108Y-45241D01*
X27202Y-45205D01*
X27221Y-45194D01*
X27265Y-45124D01*
X26969Y-44829D01*
X26884Y-44913D01*
X26884Y-44744D01*
X26589Y-44448D01*
X26519Y-44492D01*
X26478Y-44584D01*
X26456Y-44682D01*
X26454Y-44784D01*
X26472Y-44883D01*
X26508Y-44977D01*
X26519Y-44996D01*
X26589Y-45040D01*
X26884Y-44744D01*
X26884Y-44913D01*
X26673Y-45124D01*
X26717Y-45194D01*
X26809Y-45235D01*
X26847Y-45243D01*
X26830Y-45247D01*
X26736Y-45283D01*
X26717Y-45294D01*
X26673Y-45364D01*
X26969Y-45659D01*
X27265Y-45364D01*
X27265Y-45532D01*
X27054Y-45744D01*
X27349Y-46040D01*
X27419Y-45996D01*
X27460Y-45904D01*
X27482Y-45806D01*
X27484Y-45704D01*
X27484Y-55217D01*
X27464Y-55117D01*
X27464Y-49696D01*
X27464Y-48696D01*
X27464Y-47696D01*
X27464Y-46696D01*
X27445Y-46600D01*
X27408Y-46511D01*
X27354Y-46430D01*
X27286Y-46361D01*
X27205Y-46307D01*
X27116Y-46269D01*
X27038Y-46253D01*
X27108Y-46241D01*
X27202Y-46205D01*
X27221Y-46194D01*
X27265Y-46124D01*
X26969Y-45829D01*
X26884Y-45913D01*
X26884Y-45744D01*
X26589Y-45448D01*
X26519Y-45492D01*
X26478Y-45584D01*
X26456Y-45682D01*
X26454Y-45784D01*
X26472Y-45883D01*
X26508Y-45977D01*
X26519Y-45996D01*
X26589Y-46040D01*
X26884Y-45744D01*
X26884Y-45913D01*
X26673Y-46124D01*
X26717Y-46194D01*
X26809Y-46235D01*
X26895Y-46254D01*
X26829Y-46267D01*
X26739Y-46304D01*
X26658Y-46357D01*
X26588Y-46425D01*
X26533Y-46505D01*
X26495Y-46594D01*
X26475Y-46689D01*
X26474Y-46786D01*
X26491Y-46881D01*
X26527Y-46971D01*
X26580Y-47053D01*
X26647Y-47122D01*
X26727Y-47178D01*
X26815Y-47217D01*
X26910Y-47238D01*
X27007Y-47240D01*
X27103Y-47223D01*
X27193Y-47188D01*
X27275Y-47136D01*
X27345Y-47069D01*
X27401Y-46989D01*
X27441Y-46901D01*
X27462Y-46806D01*
X27464Y-46696D01*
X27464Y-47696D01*
X27445Y-47600D01*
X27408Y-47511D01*
X27354Y-47430D01*
X27286Y-47361D01*
X27205Y-47307D01*
X27116Y-47269D01*
X27021Y-47250D01*
X26924Y-47249D01*
X26829Y-47267D01*
X26739Y-47304D01*
X26658Y-47357D01*
X26588Y-47425D01*
X26533Y-47505D01*
X26495Y-47594D01*
X26475Y-47689D01*
X26474Y-47786D01*
X26491Y-47881D01*
X26527Y-47971D01*
X26580Y-48053D01*
X26647Y-48122D01*
X26727Y-48178D01*
X26815Y-48217D01*
X26910Y-48238D01*
X27007Y-48240D01*
X27103Y-48223D01*
X27193Y-48188D01*
X27275Y-48136D01*
X27345Y-48069D01*
X27401Y-47989D01*
X27441Y-47901D01*
X27462Y-47806D01*
X27464Y-47696D01*
X27464Y-48696D01*
X27445Y-48600D01*
X27408Y-48511D01*
X27354Y-48430D01*
X27286Y-48361D01*
X27205Y-48307D01*
X27116Y-48269D01*
X27021Y-48250D01*
X26924Y-48249D01*
X26829Y-48267D01*
X26739Y-48304D01*
X26658Y-48357D01*
X26588Y-48425D01*
X26533Y-48505D01*
X26495Y-48594D01*
X26475Y-48689D01*
X26474Y-48786D01*
X26491Y-48881D01*
X26527Y-48971D01*
X26580Y-49053D01*
X26647Y-49122D01*
X26727Y-49178D01*
X26815Y-49217D01*
X26910Y-49238D01*
X27007Y-49240D01*
X27103Y-49223D01*
X27193Y-49188D01*
X27275Y-49136D01*
X27345Y-49069D01*
X27401Y-48989D01*
X27441Y-48901D01*
X27462Y-48806D01*
X27464Y-48696D01*
X27464Y-49696D01*
X27445Y-49600D01*
X27408Y-49511D01*
X27354Y-49430D01*
X27286Y-49361D01*
X27205Y-49307D01*
X27116Y-49269D01*
X27021Y-49250D01*
X26924Y-49249D01*
X26829Y-49267D01*
X26739Y-49304D01*
X26658Y-49357D01*
X26588Y-49425D01*
X26533Y-49505D01*
X26495Y-49594D01*
X26475Y-49689D01*
X26474Y-49786D01*
X26491Y-49881D01*
X26527Y-49971D01*
X26580Y-50053D01*
X26647Y-50122D01*
X26727Y-50178D01*
X26815Y-50217D01*
X26910Y-50238D01*
X27007Y-50240D01*
X27103Y-50223D01*
X27193Y-50188D01*
X27275Y-50136D01*
X27345Y-50069D01*
X27401Y-49989D01*
X27441Y-49901D01*
X27462Y-49806D01*
X27464Y-49696D01*
X27464Y-55117D01*
X27454Y-55068D01*
X27340Y-54791D01*
X27174Y-54541D01*
X26963Y-54328D01*
X26715Y-54161D01*
X26438Y-54045D01*
X26145Y-53984D01*
X25845Y-53982D01*
X25550Y-54038D01*
X25272Y-54151D01*
X25022Y-54315D01*
X24807Y-54525D01*
X24646Y-54760D01*
X24646Y-39721D01*
X24780Y-39930D01*
X24988Y-40146D01*
X25235Y-40317D01*
X25509Y-40437D01*
X25802Y-40501D01*
X26102Y-40507D01*
X26397Y-40455D01*
X26677Y-40347D01*
X26930Y-40186D01*
X27147Y-39980D01*
X27320Y-39735D01*
X27441Y-39461D01*
X27508Y-39169D01*
X27513Y-38826D01*
X27454Y-38532D01*
X27340Y-38255D01*
X27174Y-38005D01*
X26963Y-37792D01*
X26734Y-37638D01*
X41772Y-37638D01*
X41558Y-37779D01*
X41343Y-37989D01*
X41174Y-38236D01*
X41056Y-38512D01*
X40994Y-38805D01*
X40989Y-39105D01*
X41044Y-39399D01*
X41154Y-39678D01*
X41316Y-39930D01*
X41524Y-40146D01*
X41771Y-40317D01*
X42045Y-40437D01*
X42338Y-40501D01*
X42638Y-40507D01*
X42933Y-40455D01*
X43213Y-40347D01*
X43466Y-40186D01*
X43683Y-39980D01*
X43856Y-39735D01*
X43858Y-39730D01*
X43858Y-54763D01*
X43858Y-54763D01*
G37*
G54D17*
X43858Y-54763D02*
X43710Y-54541D01*
X43499Y-54328D01*
X43251Y-54161D01*
X42974Y-54045D01*
X42681Y-53984D01*
X42381Y-53982D01*
X42086Y-54038D01*
X42050Y-54052D01*
X42050Y-45704D01*
X42050Y-44704D01*
X42032Y-44605D01*
X41996Y-44511D01*
X41985Y-44492D01*
X41915Y-44448D01*
X41831Y-44532D01*
X41831Y-44364D01*
X41787Y-44294D01*
X41695Y-44253D01*
X41597Y-44231D01*
X41495Y-44229D01*
X41396Y-44247D01*
X41302Y-44283D01*
X41283Y-44294D01*
X41239Y-44364D01*
X41535Y-44659D01*
X41831Y-44364D01*
X41831Y-44532D01*
X41620Y-44744D01*
X41915Y-45040D01*
X41985Y-44996D01*
X42026Y-44904D01*
X42048Y-44806D01*
X42050Y-44704D01*
X42050Y-45704D01*
X42032Y-45605D01*
X41996Y-45511D01*
X41985Y-45492D01*
X41915Y-45448D01*
X41831Y-45532D01*
X41831Y-45364D01*
X41787Y-45294D01*
X41695Y-45253D01*
X41656Y-45244D01*
X41674Y-45241D01*
X41768Y-45205D01*
X41787Y-45194D01*
X41831Y-45124D01*
X41535Y-44829D01*
X41450Y-44913D01*
X41450Y-44744D01*
X41155Y-44448D01*
X41085Y-44492D01*
X41044Y-44584D01*
X41022Y-44682D01*
X41020Y-44784D01*
X41038Y-44883D01*
X41074Y-44977D01*
X41085Y-44996D01*
X41155Y-45040D01*
X41450Y-44744D01*
X41450Y-44913D01*
X41239Y-45124D01*
X41283Y-45194D01*
X41375Y-45235D01*
X41413Y-45243D01*
X41396Y-45247D01*
X41302Y-45283D01*
X41283Y-45294D01*
X41239Y-45364D01*
X41535Y-45659D01*
X41831Y-45364D01*
X41831Y-45532D01*
X41620Y-45744D01*
X41915Y-46040D01*
X41985Y-45996D01*
X42026Y-45904D01*
X42048Y-45806D01*
X42050Y-45704D01*
X42050Y-54052D01*
X42030Y-54060D01*
X42030Y-49696D01*
X42030Y-48696D01*
X42030Y-47696D01*
X42030Y-46696D01*
X42011Y-46600D01*
X41974Y-46511D01*
X41920Y-46430D01*
X41852Y-46361D01*
X41771Y-46307D01*
X41682Y-46269D01*
X41604Y-46253D01*
X41674Y-46241D01*
X41768Y-46205D01*
X41787Y-46194D01*
X41831Y-46124D01*
X41535Y-45829D01*
X41450Y-45913D01*
X41450Y-45744D01*
X41155Y-45448D01*
X41085Y-45492D01*
X41044Y-45584D01*
X41022Y-45682D01*
X41020Y-45784D01*
X41038Y-45883D01*
X41074Y-45977D01*
X41085Y-45996D01*
X41155Y-46040D01*
X41450Y-45744D01*
X41450Y-45913D01*
X41239Y-46124D01*
X41283Y-46194D01*
X41375Y-46235D01*
X41461Y-46254D01*
X41395Y-46267D01*
X41305Y-46304D01*
X41224Y-46357D01*
X41154Y-46425D01*
X41099Y-46505D01*
X41061Y-46594D01*
X41041Y-46689D01*
X41040Y-46786D01*
X41057Y-46881D01*
X41093Y-46971D01*
X41146Y-47053D01*
X41213Y-47122D01*
X41293Y-47178D01*
X41381Y-47217D01*
X41476Y-47238D01*
X41573Y-47240D01*
X41669Y-47223D01*
X41759Y-47188D01*
X41841Y-47136D01*
X41911Y-47069D01*
X41967Y-46989D01*
X42007Y-46901D01*
X42028Y-46806D01*
X42030Y-46696D01*
X42030Y-47696D01*
X42011Y-47600D01*
X41974Y-47511D01*
X41920Y-47430D01*
X41852Y-47361D01*
X41771Y-47307D01*
X41682Y-47269D01*
X41587Y-47250D01*
X41490Y-47249D01*
X41395Y-47267D01*
X41305Y-47304D01*
X41224Y-47357D01*
X41154Y-47425D01*
X41099Y-47505D01*
X41061Y-47594D01*
X41041Y-47689D01*
X41040Y-47786D01*
X41057Y-47881D01*
X41093Y-47971D01*
X41146Y-48053D01*
X41213Y-48122D01*
X41293Y-48178D01*
X41381Y-48217D01*
X41476Y-48238D01*
X41573Y-48240D01*
X41669Y-48223D01*
X41759Y-48188D01*
X41841Y-48136D01*
X41911Y-48069D01*
X41967Y-47989D01*
X42007Y-47901D01*
X42028Y-47806D01*
X42030Y-47696D01*
X42030Y-48696D01*
X42011Y-48600D01*
X41974Y-48511D01*
X41920Y-48430D01*
X41852Y-48361D01*
X41771Y-48307D01*
X41682Y-48269D01*
X41587Y-48250D01*
X41490Y-48249D01*
X41395Y-48267D01*
X41305Y-48304D01*
X41224Y-48357D01*
X41154Y-48425D01*
X41099Y-48505D01*
X41061Y-48594D01*
X41041Y-48689D01*
X41040Y-48786D01*
X41057Y-48881D01*
X41093Y-48971D01*
X41146Y-49053D01*
X41213Y-49122D01*
X41293Y-49178D01*
X41381Y-49217D01*
X41476Y-49238D01*
X41573Y-49240D01*
X41669Y-49223D01*
X41759Y-49188D01*
X41841Y-49136D01*
X41911Y-49069D01*
X41967Y-48989D01*
X42007Y-48901D01*
X42028Y-48806D01*
X42030Y-48696D01*
X42030Y-49696D01*
X42011Y-49600D01*
X41974Y-49511D01*
X41920Y-49430D01*
X41852Y-49361D01*
X41771Y-49307D01*
X41682Y-49269D01*
X41587Y-49250D01*
X41490Y-49249D01*
X41395Y-49267D01*
X41305Y-49304D01*
X41224Y-49357D01*
X41154Y-49425D01*
X41099Y-49505D01*
X41061Y-49594D01*
X41041Y-49689D01*
X41040Y-49786D01*
X41057Y-49881D01*
X41093Y-49971D01*
X41146Y-50053D01*
X41213Y-50122D01*
X41293Y-50178D01*
X41381Y-50217D01*
X41476Y-50238D01*
X41573Y-50240D01*
X41669Y-50223D01*
X41759Y-50188D01*
X41841Y-50136D01*
X41911Y-50069D01*
X41967Y-49989D01*
X42007Y-49901D01*
X42028Y-49806D01*
X42030Y-49696D01*
X42030Y-54060D01*
X41808Y-54151D01*
X41558Y-54315D01*
X41343Y-54525D01*
X41174Y-54772D01*
X41056Y-55048D01*
X40994Y-55341D01*
X40989Y-55641D01*
X41044Y-55935D01*
X41154Y-56214D01*
X41316Y-56466D01*
X41524Y-56682D01*
X41766Y-56850D01*
X40886Y-56850D01*
X40886Y-55060D01*
X40886Y-52814D01*
X40886Y-48367D01*
X40886Y-46121D01*
X40886Y-41674D01*
X40886Y-39429D01*
X37066Y-39429D01*
X37066Y-41674D01*
X40886Y-41674D01*
X40886Y-46121D01*
X37066Y-46121D01*
X37066Y-46389D01*
X37042Y-46379D01*
X36995Y-46369D01*
X36947Y-46369D01*
X36900Y-46378D01*
X36855Y-46396D01*
X36815Y-46422D01*
X36781Y-46456D01*
X36753Y-46495D01*
X36735Y-46540D01*
X36725Y-46587D01*
X36724Y-46635D01*
X36733Y-46682D01*
X36749Y-46723D01*
X36749Y-47765D01*
X36735Y-47800D01*
X36725Y-47847D01*
X36724Y-47895D01*
X36733Y-47942D01*
X36750Y-47986D01*
X36776Y-48027D01*
X36810Y-48061D01*
X36849Y-48089D01*
X36893Y-48108D01*
X36940Y-48118D01*
X36988Y-48119D01*
X37035Y-48111D01*
X37066Y-48099D01*
X37066Y-48367D01*
X40886Y-48367D01*
X40886Y-52814D01*
X40122Y-52814D01*
X40122Y-49018D01*
X40122Y-49016D01*
X40117Y-48967D01*
X40117Y-48965D01*
X40108Y-48937D01*
X40103Y-48919D01*
X40102Y-48917D01*
X40080Y-48874D01*
X40079Y-48872D01*
X40068Y-48859D01*
X40048Y-48834D01*
X40046Y-48833D01*
X40009Y-48801D01*
X40007Y-48800D01*
X40001Y-48797D01*
X39964Y-48777D01*
X39963Y-48776D01*
X39914Y-48761D01*
X39876Y-48757D01*
X39866Y-48756D01*
X39864Y-48756D01*
X39862Y-48756D01*
X36677Y-48756D01*
X36677Y-42602D01*
X36677Y-42598D01*
X36677Y-42364D01*
X36677Y-42362D01*
X36672Y-42313D01*
X36672Y-42311D01*
X36663Y-42283D01*
X36658Y-42265D01*
X36657Y-42263D01*
X36634Y-42218D01*
X36615Y-42196D01*
X36603Y-42180D01*
X36601Y-42179D01*
X36600Y-42178D01*
X36367Y-41944D01*
X36366Y-41943D01*
X36365Y-41942D01*
X36358Y-41936D01*
X36328Y-41911D01*
X36283Y-41887D01*
X36282Y-41886D01*
X36281Y-41886D01*
X36233Y-41871D01*
X36198Y-41867D01*
X36185Y-41866D01*
X36182Y-41866D01*
X36181Y-41866D01*
X31892Y-41866D01*
X31890Y-41866D01*
X31882Y-41866D01*
X31841Y-41870D01*
X31793Y-41885D01*
X31791Y-41885D01*
X31791Y-41886D01*
X31746Y-41909D01*
X31715Y-41935D01*
X31709Y-41940D01*
X31707Y-41942D01*
X31706Y-41943D01*
X31511Y-42136D01*
X31511Y-42137D01*
X31510Y-42137D01*
X31509Y-42139D01*
X31503Y-42145D01*
X31478Y-42176D01*
X31454Y-42221D01*
X31453Y-42221D01*
X31453Y-42223D01*
X31438Y-42271D01*
X31438Y-41674D01*
X31438Y-39429D01*
X27617Y-39429D01*
X27617Y-41674D01*
X31438Y-41674D01*
X31438Y-42271D01*
X31434Y-42305D01*
X31433Y-42319D01*
X31433Y-42322D01*
X31433Y-42323D01*
X31433Y-43524D01*
X31438Y-43575D01*
X31453Y-43623D01*
X31476Y-43668D01*
X31509Y-43707D01*
X31548Y-43740D01*
X31592Y-43764D01*
X31641Y-43779D01*
X31691Y-43784D01*
X31742Y-43779D01*
X31790Y-43765D01*
X31835Y-43742D01*
X31875Y-43710D01*
X31908Y-43671D01*
X31932Y-43626D01*
X31947Y-43578D01*
X31953Y-43528D01*
X31953Y-43524D01*
X31953Y-42430D01*
X31997Y-42386D01*
X36073Y-42386D01*
X36157Y-42469D01*
X36157Y-42598D01*
X36162Y-42649D01*
X36177Y-42697D01*
X36200Y-42742D01*
X36233Y-42781D01*
X36272Y-42814D01*
X36316Y-42838D01*
X36365Y-42853D01*
X36415Y-42858D01*
X36466Y-42853D01*
X36514Y-42839D01*
X36559Y-42816D01*
X36599Y-42784D01*
X36632Y-42745D01*
X36656Y-42700D01*
X36671Y-42652D01*
X36677Y-42602D01*
X36677Y-48756D01*
X36515Y-48756D01*
X36515Y-47215D01*
X36503Y-47158D01*
X36481Y-47105D01*
X36449Y-47057D01*
X36409Y-47016D01*
X36361Y-46984D01*
X36308Y-46961D01*
X36251Y-46950D01*
X36193Y-46949D01*
X36136Y-46960D01*
X36083Y-46982D01*
X36079Y-46984D01*
X32424Y-46984D01*
X32371Y-46961D01*
X32314Y-46950D01*
X32256Y-46949D01*
X32199Y-46960D01*
X32146Y-46982D01*
X32098Y-47013D01*
X32056Y-47054D01*
X32024Y-47101D01*
X32001Y-47154D01*
X31989Y-47211D01*
X31988Y-47269D01*
X31998Y-47326D01*
X32020Y-47379D01*
X32051Y-47428D01*
X32091Y-47469D01*
X32139Y-47502D01*
X32192Y-47526D01*
X32248Y-47538D01*
X32306Y-47539D01*
X32363Y-47529D01*
X32416Y-47508D01*
X32422Y-47504D01*
X36080Y-47504D01*
X36129Y-47526D01*
X36185Y-47538D01*
X36243Y-47539D01*
X36300Y-47529D01*
X36353Y-47508D01*
X36402Y-47477D01*
X36444Y-47437D01*
X36477Y-47390D01*
X36501Y-47337D01*
X36514Y-47281D01*
X36515Y-47215D01*
X36515Y-48756D01*
X35836Y-48756D01*
X35322Y-48242D01*
X35322Y-48241D01*
X35300Y-48188D01*
X35268Y-48140D01*
X35228Y-48099D01*
X35180Y-48067D01*
X35127Y-48044D01*
X35070Y-48033D01*
X35012Y-48032D01*
X34955Y-48043D01*
X34902Y-48065D01*
X34854Y-48096D01*
X34812Y-48137D01*
X34780Y-48184D01*
X34757Y-48237D01*
X34745Y-48294D01*
X34744Y-48352D01*
X34754Y-48409D01*
X34776Y-48462D01*
X34807Y-48511D01*
X34847Y-48552D01*
X34895Y-48585D01*
X34948Y-48609D01*
X34954Y-48610D01*
X35542Y-49198D01*
X35544Y-49200D01*
X35556Y-49209D01*
X35581Y-49231D01*
X35583Y-49232D01*
X35626Y-49255D01*
X35628Y-49255D01*
X35658Y-49265D01*
X35674Y-49270D01*
X35676Y-49271D01*
X35694Y-49272D01*
X35724Y-49276D01*
X35728Y-49276D01*
X39602Y-49276D01*
X39602Y-52814D01*
X37066Y-52814D01*
X37066Y-55060D01*
X40886Y-55060D01*
X40886Y-56850D01*
X40846Y-56850D01*
X31438Y-56850D01*
X31438Y-55060D01*
X31438Y-52814D01*
X28902Y-52814D01*
X28902Y-48367D01*
X31438Y-48367D01*
X31438Y-46121D01*
X27617Y-46121D01*
X27617Y-48367D01*
X28382Y-48367D01*
X28382Y-52814D01*
X27617Y-52814D01*
X27617Y-55060D01*
X31438Y-55060D01*
X31438Y-56850D01*
X31398Y-56850D01*
X26728Y-56850D01*
X26930Y-56722D01*
X27147Y-56516D01*
X27320Y-56271D01*
X27441Y-55997D01*
X27508Y-55705D01*
X27513Y-55362D01*
X27484Y-55217D01*
X27484Y-45704D01*
X27484Y-44704D01*
X27466Y-44605D01*
X27430Y-44511D01*
X27419Y-44492D01*
X27349Y-44448D01*
X27265Y-44532D01*
X27265Y-44364D01*
X27221Y-44294D01*
X27129Y-44253D01*
X27031Y-44231D01*
X26929Y-44229D01*
X26830Y-44247D01*
X26736Y-44283D01*
X26717Y-44294D01*
X26673Y-44364D01*
X26969Y-44659D01*
X27265Y-44364D01*
X27265Y-44532D01*
X27054Y-44744D01*
X27349Y-45040D01*
X27419Y-44996D01*
X27460Y-44904D01*
X27482Y-44806D01*
X27484Y-44704D01*
X27484Y-45704D01*
X27466Y-45605D01*
X27430Y-45511D01*
X27419Y-45492D01*
X27349Y-45448D01*
X27265Y-45532D01*
X27265Y-45364D01*
X27221Y-45294D01*
X27129Y-45253D01*
X27090Y-45244D01*
X27108Y-45241D01*
X27202Y-45205D01*
X27221Y-45194D01*
X27265Y-45124D01*
X26969Y-44829D01*
X26884Y-44913D01*
X26884Y-44744D01*
X26589Y-44448D01*
X26519Y-44492D01*
X26478Y-44584D01*
X26456Y-44682D01*
X26454Y-44784D01*
X26472Y-44883D01*
X26508Y-44977D01*
X26519Y-44996D01*
X26589Y-45040D01*
X26884Y-44744D01*
X26884Y-44913D01*
X26673Y-45124D01*
X26717Y-45194D01*
X26809Y-45235D01*
X26847Y-45243D01*
X26830Y-45247D01*
X26736Y-45283D01*
X26717Y-45294D01*
X26673Y-45364D01*
X26969Y-45659D01*
X27265Y-45364D01*
X27265Y-45532D01*
X27054Y-45744D01*
X27349Y-46040D01*
X27419Y-45996D01*
X27460Y-45904D01*
X27482Y-45806D01*
X27484Y-45704D01*
X27484Y-55217D01*
X27464Y-55117D01*
X27464Y-49696D01*
X27464Y-48696D01*
X27464Y-47696D01*
X27464Y-46696D01*
X27445Y-46600D01*
X27408Y-46511D01*
X27354Y-46430D01*
X27286Y-46361D01*
X27205Y-46307D01*
X27116Y-46269D01*
X27038Y-46253D01*
X27108Y-46241D01*
X27202Y-46205D01*
X27221Y-46194D01*
X27265Y-46124D01*
X26969Y-45829D01*
X26884Y-45913D01*
X26884Y-45744D01*
X26589Y-45448D01*
X26519Y-45492D01*
X26478Y-45584D01*
X26456Y-45682D01*
X26454Y-45784D01*
X26472Y-45883D01*
X26508Y-45977D01*
X26519Y-45996D01*
X26589Y-46040D01*
X26884Y-45744D01*
X26884Y-45913D01*
X26673Y-46124D01*
X26717Y-46194D01*
X26809Y-46235D01*
X26895Y-46254D01*
X26829Y-46267D01*
X26739Y-46304D01*
X26658Y-46357D01*
X26588Y-46425D01*
X26533Y-46505D01*
X26495Y-46594D01*
X26475Y-46689D01*
X26474Y-46786D01*
X26491Y-46881D01*
X26527Y-46971D01*
X26580Y-47053D01*
X26647Y-47122D01*
X26727Y-47178D01*
X26815Y-47217D01*
X26910Y-47238D01*
X27007Y-47240D01*
X27103Y-47223D01*
X27193Y-47188D01*
X27275Y-47136D01*
X27345Y-47069D01*
X27401Y-46989D01*
X27441Y-46901D01*
X27462Y-46806D01*
X27464Y-46696D01*
X27464Y-47696D01*
X27445Y-47600D01*
X27408Y-47511D01*
X27354Y-47430D01*
X27286Y-47361D01*
X27205Y-47307D01*
X27116Y-47269D01*
X27021Y-47250D01*
X26924Y-47249D01*
X26829Y-47267D01*
X26739Y-47304D01*
X26658Y-47357D01*
X26588Y-47425D01*
X26533Y-47505D01*
X26495Y-47594D01*
X26475Y-47689D01*
X26474Y-47786D01*
X26491Y-47881D01*
X26527Y-47971D01*
X26580Y-48053D01*
X26647Y-48122D01*
X26727Y-48178D01*
X26815Y-48217D01*
X26910Y-48238D01*
X27007Y-48240D01*
X27103Y-48223D01*
X27193Y-48188D01*
X27275Y-48136D01*
X27345Y-48069D01*
X27401Y-47989D01*
X27441Y-47901D01*
X27462Y-47806D01*
X27464Y-47696D01*
X27464Y-48696D01*
X27445Y-48600D01*
X27408Y-48511D01*
X27354Y-48430D01*
X27286Y-48361D01*
X27205Y-48307D01*
X27116Y-48269D01*
X27021Y-48250D01*
X26924Y-48249D01*
X26829Y-48267D01*
X26739Y-48304D01*
X26658Y-48357D01*
X26588Y-48425D01*
X26533Y-48505D01*
X26495Y-48594D01*
X26475Y-48689D01*
X26474Y-48786D01*
X26491Y-48881D01*
X26527Y-48971D01*
X26580Y-49053D01*
X26647Y-49122D01*
X26727Y-49178D01*
X26815Y-49217D01*
X26910Y-49238D01*
X27007Y-49240D01*
X27103Y-49223D01*
X27193Y-49188D01*
X27275Y-49136D01*
X27345Y-49069D01*
X27401Y-48989D01*
X27441Y-48901D01*
X27462Y-48806D01*
X27464Y-48696D01*
X27464Y-49696D01*
X27445Y-49600D01*
X27408Y-49511D01*
X27354Y-49430D01*
X27286Y-49361D01*
X27205Y-49307D01*
X27116Y-49269D01*
X27021Y-49250D01*
X26924Y-49249D01*
X26829Y-49267D01*
X26739Y-49304D01*
X26658Y-49357D01*
X26588Y-49425D01*
X26533Y-49505D01*
X26495Y-49594D01*
X26475Y-49689D01*
X26474Y-49786D01*
X26491Y-49881D01*
X26527Y-49971D01*
X26580Y-50053D01*
X26647Y-50122D01*
X26727Y-50178D01*
X26815Y-50217D01*
X26910Y-50238D01*
X27007Y-50240D01*
X27103Y-50223D01*
X27193Y-50188D01*
X27275Y-50136D01*
X27345Y-50069D01*
X27401Y-49989D01*
X27441Y-49901D01*
X27462Y-49806D01*
X27464Y-49696D01*
X27464Y-55117D01*
X27454Y-55068D01*
X27340Y-54791D01*
X27174Y-54541D01*
X26963Y-54328D01*
X26715Y-54161D01*
X26438Y-54045D01*
X26145Y-53984D01*
X25845Y-53982D01*
X25550Y-54038D01*
X25272Y-54151D01*
X25022Y-54315D01*
X24807Y-54525D01*
X24646Y-54760D01*
X24646Y-39721D01*
X24780Y-39930D01*
X24988Y-40146D01*
X25235Y-40317D01*
X25509Y-40437D01*
X25802Y-40501D01*
X26102Y-40507D01*
X26397Y-40455D01*
X26677Y-40347D01*
X26930Y-40186D01*
X27147Y-39980D01*
X27320Y-39735D01*
X27441Y-39461D01*
X27508Y-39169D01*
X27513Y-38826D01*
X27454Y-38532D01*
X27340Y-38255D01*
X27174Y-38005D01*
X26963Y-37792D01*
X26734Y-37638D01*
X41772Y-37638D01*
X41558Y-37779D01*
X41343Y-37989D01*
X41174Y-38236D01*
X41056Y-38512D01*
X40994Y-38805D01*
X40989Y-39105D01*
X41044Y-39399D01*
X41154Y-39678D01*
X41316Y-39930D01*
X41524Y-40146D01*
X41771Y-40317D01*
X42045Y-40437D01*
X42338Y-40501D01*
X42638Y-40507D01*
X42933Y-40455D01*
X43213Y-40347D01*
X43466Y-40186D01*
X43683Y-39980D01*
X43856Y-39735D01*
X43858Y-39730D01*
X43858Y-54763D01*
G54D10*
G36*
X31259Y-41495D02*
X27796Y-41495D01*
X27796Y-39607D01*
X31259Y-39607D01*
X31259Y-41495D01*
X31259Y-41495D01*
G37*
G54D17*
X31259Y-41495D02*
X27796Y-41495D01*
X27796Y-39607D01*
X31259Y-39607D01*
X31259Y-41495D01*
G54D10*
G36*
X40708Y-41495D02*
X37245Y-41495D01*
X37245Y-39607D01*
X40708Y-39607D01*
X40708Y-41495D01*
X40708Y-41495D01*
G37*
G54D17*
X40708Y-41495D02*
X37245Y-41495D01*
X37245Y-39607D01*
X40708Y-39607D01*
X40708Y-41495D01*
G54D10*
G36*
X31259Y-48188D02*
X27796Y-48188D01*
X27796Y-46300D01*
X31259Y-46300D01*
X31259Y-48188D01*
X31259Y-48188D01*
G37*
G54D17*
X31259Y-48188D02*
X27796Y-48188D01*
X27796Y-46300D01*
X31259Y-46300D01*
X31259Y-48188D01*
G54D10*
G36*
X31259Y-54881D02*
X27796Y-54881D01*
X27796Y-52993D01*
X28382Y-52993D01*
X28382Y-53856D01*
X28372Y-53904D01*
X28371Y-53962D01*
X28381Y-54019D01*
X28403Y-54072D01*
X28434Y-54121D01*
X28474Y-54162D01*
X28522Y-54195D01*
X28575Y-54219D01*
X28631Y-54231D01*
X28689Y-54232D01*
X28746Y-54222D01*
X28799Y-54201D01*
X28848Y-54170D01*
X28890Y-54130D01*
X28923Y-54083D01*
X28947Y-54030D01*
X28960Y-53974D01*
X28961Y-53908D01*
X28949Y-53851D01*
X28927Y-53798D01*
X28902Y-53760D01*
X28902Y-52993D01*
X31259Y-52993D01*
X31259Y-54881D01*
X31259Y-54881D01*
G37*
G54D17*
X31259Y-54881D02*
X27796Y-54881D01*
X27796Y-52993D01*
X28382Y-52993D01*
X28382Y-53856D01*
X28372Y-53904D01*
X28371Y-53962D01*
X28381Y-54019D01*
X28403Y-54072D01*
X28434Y-54121D01*
X28474Y-54162D01*
X28522Y-54195D01*
X28575Y-54219D01*
X28631Y-54231D01*
X28689Y-54232D01*
X28746Y-54222D01*
X28799Y-54201D01*
X28848Y-54170D01*
X28890Y-54130D01*
X28923Y-54083D01*
X28947Y-54030D01*
X28960Y-53974D01*
X28961Y-53908D01*
X28949Y-53851D01*
X28927Y-53798D01*
X28902Y-53760D01*
X28902Y-52993D01*
X31259Y-52993D01*
X31259Y-54881D01*
G54D10*
G36*
X40708Y-48188D02*
X37245Y-48188D01*
X37245Y-46300D01*
X40708Y-46300D01*
X40708Y-48188D01*
X40708Y-48188D01*
G37*
G54D17*
X40708Y-48188D02*
X37245Y-48188D01*
X37245Y-46300D01*
X40708Y-46300D01*
X40708Y-48188D01*
G54D10*
G36*
X40708Y-54881D02*
X37245Y-54881D01*
X37245Y-52993D01*
X40708Y-52993D01*
X40708Y-54881D01*
X40708Y-54881D01*
G37*
G54D17*
X40708Y-54881D02*
X37245Y-54881D01*
X37245Y-52993D01*
X40708Y-52993D01*
X40708Y-54881D01*
M02*
