%FSLAX34Y34*%
G04 Gerber Fmt 3.4, Leading zero omitted, Abs format*
G04 (created by PCBNEW 52ca2e1517-product) date Tue 14 Jan 2014 02:24:46 PM CET*
%MOIN*%
G01*
G70*
G90*
G04 APERTURE LIST*
%ADD10C,0.005906*%
%ADD11R,0.027600X0.063000*%
%ADD12R,0.039400X0.086600*%
%ADD13R,0.070900X0.133900*%
%ADD14R,0.025000X0.025000*%
%ADD15R,0.098400X0.177200*%
%ADD16R,0.059000X0.051100*%
%ADD17R,0.051100X0.059000*%
%ADD18R,0.062900X0.070800*%
%ADD19R,0.039300X0.055100*%
%ADD20C,0.065000*%
%ADD21R,0.108300X0.108300*%
%ADD22R,0.061000X0.063000*%
%ADD23R,0.033900X0.025600*%
%ADD24R,0.033900X0.066900*%
%ADD25C,0.160000*%
G04 APERTURE END LIST*
G54D10*
G54D11*
X33660Y-44645D03*
G54D12*
X34251Y-44527D03*
G54D11*
X34842Y-44645D03*
X34842Y-43149D03*
X33660Y-43149D03*
G54D13*
X34251Y-43503D03*
G54D14*
X34054Y-43936D03*
X34448Y-43936D03*
X34408Y-43621D03*
X34094Y-43621D03*
X34251Y-43818D03*
X34251Y-44015D03*
G54D15*
X35019Y-47244D03*
X33485Y-47244D03*
G54D16*
X29527Y-44173D03*
X29527Y-43425D03*
G54D17*
X25610Y-41339D03*
X26358Y-41339D03*
X25610Y-42421D03*
X26358Y-42421D03*
X42146Y-41339D03*
X42894Y-41339D03*
X42146Y-42421D03*
X42894Y-42421D03*
G54D18*
X33700Y-41929D03*
X34802Y-41929D03*
G54D16*
X36950Y-44674D03*
X36950Y-43926D03*
X35950Y-44674D03*
X35950Y-43926D03*
G54D19*
X36076Y-42983D03*
X36824Y-42983D03*
X36450Y-42117D03*
G54D16*
X36988Y-47618D03*
X36988Y-46870D03*
G54D20*
X26969Y-46744D03*
X26969Y-47744D03*
X26969Y-45744D03*
X26969Y-44744D03*
X26969Y-48744D03*
X26969Y-49744D03*
X41535Y-47744D03*
X41535Y-46744D03*
X41535Y-48744D03*
X41535Y-49744D03*
X41535Y-45744D03*
X41535Y-44744D03*
G54D21*
X31988Y-44881D03*
X31988Y-42913D03*
G54D22*
X38976Y-41422D03*
X38976Y-39689D03*
G54D23*
X38976Y-40126D03*
G54D24*
X38976Y-40787D03*
G54D22*
X38976Y-54808D03*
X38976Y-53075D03*
G54D23*
X38976Y-53512D03*
G54D24*
X38976Y-54173D03*
G54D22*
X29528Y-53066D03*
X29528Y-54799D03*
G54D23*
X29528Y-54362D03*
G54D24*
X29528Y-53701D03*
G54D22*
X38976Y-48115D03*
X38976Y-46382D03*
G54D23*
X38976Y-46819D03*
G54D24*
X38976Y-47480D03*
G54D22*
X29528Y-46373D03*
X29528Y-48106D03*
G54D23*
X29528Y-47669D03*
G54D24*
X29528Y-47008D03*
G54D22*
X29528Y-39680D03*
X29528Y-41413D03*
G54D23*
X29528Y-40976D03*
G54D24*
X29528Y-40315D03*
G54D25*
X42520Y-38976D03*
X25984Y-55512D03*
X42520Y-55512D03*
X25984Y-38976D03*
M02*
