M48
INCH,TZ
T1C0.013
T2C0.020
T3C0.040
T4C0.118
%
G90
G05
T1
X028583Y-039528
X028583Y-039843
X028583Y-040157
X028583Y-040472
X028583Y-046220
X028583Y-046535
X028583Y-046850
X028583Y-047165
X028583Y-052913
X028583Y-053228
X028583Y-053543
X028583Y-053858
X028898Y-039528
X028898Y-039843
X028898Y-040157
X028898Y-040472
X028898Y-046220
X028898Y-046535
X028898Y-046850
X028898Y-047165
X028898Y-052913
X028898Y-053228
X028898Y-053543
X028898Y-053858
X029213Y-039528
X029213Y-039843
X029213Y-040157
X029213Y-040472
X029213Y-046220
X029213Y-046535
X029213Y-046850
X029213Y-047165
X029213Y-052913
X029213Y-053228
X029213Y-053543
X029213Y-053858
X029528Y-039528
X029528Y-039843
X029528Y-040157
X029528Y-040472
X029528Y-046220
X029528Y-046535
X029528Y-046850
X029528Y-047165
X029528Y-052913
X029528Y-053228
X029528Y-053543
X029528Y-053858
X029843Y-039528
X029843Y-039843
X029843Y-040157
X029843Y-040472
X029843Y-046220
X029843Y-046535
X029843Y-046850
X029843Y-047165
X029843Y-052913
X029843Y-053228
X029843Y-053543
X029843Y-053858
X030157Y-039528
X030157Y-039843
X030157Y-040157
X030157Y-040472
X030157Y-046220
X030157Y-046535
X030157Y-046850
X030157Y-047165
X030157Y-052913
X030157Y-053228
X030157Y-053543
X030157Y-053858
X030472Y-039528
X030472Y-039843
X030472Y-040157
X030472Y-040472
X030472Y-046220
X030472Y-046535
X030472Y-046850
X030472Y-047165
X030472Y-052913
X030472Y-053228
X030472Y-053543
X030472Y-053858
X034055Y-043937
X034095Y-043622
X034252Y-043819
X034252Y-044016
X034409Y-043622
X034449Y-043937
X036076Y-042983
X037402Y-048681
X038031Y-040630
X038031Y-040945
X038031Y-041260
X038031Y-041575
X038031Y-047323
X038031Y-047638
X038031Y-047953
X038031Y-048268
X038031Y-054016
X038031Y-054331
X038031Y-054646
X038031Y-054961
X038346Y-040630
X038346Y-040945
X038346Y-041260
X038346Y-041575
X038346Y-047323
X038346Y-047638
X038346Y-047953
X038346Y-048268
X038346Y-054016
X038346Y-054331
X038346Y-054646
X038346Y-054961
X038661Y-040630
X038661Y-040945
X038661Y-041260
X038661Y-041575
X038661Y-047323
X038661Y-047638
X038661Y-047953
X038661Y-048268
X038661Y-054016
X038661Y-054331
X038661Y-054646
X038661Y-054961
X038976Y-040630
X038976Y-040945
X038976Y-041260
X038976Y-041575
X038976Y-047323
X038976Y-047638
X038976Y-047953
X038976Y-048268
X038976Y-054016
X038976Y-054331
X038976Y-054646
X038976Y-054961
X039291Y-040630
X039291Y-040945
X039291Y-041260
X039291Y-041575
X039291Y-047323
X039291Y-047638
X039291Y-047953
X039291Y-048268
X039291Y-054016
X039291Y-054331
X039291Y-054646
X039291Y-054961
X039606Y-040630
X039606Y-040945
X039606Y-041260
X039606Y-041575
X039606Y-047323
X039606Y-047638
X039606Y-047953
X039606Y-048268
X039606Y-054016
X039606Y-054331
X039606Y-054646
X039606Y-054961
X039921Y-040630
X039921Y-040945
X039921Y-041260
X039921Y-041575
X039921Y-047323
X039921Y-047638
X039921Y-047953
X039921Y-048268
X039921Y-054016
X039921Y-054331
X039921Y-054646
X039921Y-054961
T2
X026358Y-041339
X026358Y-042421
X035950Y-043926
X036950Y-043926
X042894Y-041339
X042894Y-042421
T3
X026969Y-044744
X026969Y-045744
X026969Y-046744
X026969Y-047744
X026969Y-048744
X026969Y-049744
X041535Y-044744
X041535Y-045744
X041535Y-046744
X041535Y-047744
X041535Y-048744
X041535Y-049744
T4
X025984Y-038976
X025984Y-055512
X042520Y-038976
X042520Y-055512
T0
M30
