M48
;DRILL file {kicad (2014-09-13 BZR 5129)-product} date Sat 13 Sep 2014 09:07:38 PM CEST
;FORMAT={-:-/ absolute / inch / decimal}
FMAT,2
INCH,TZ
T1C0.013
T2C0.020
T3C0.040
T4C0.118
%
G90
G05
M72
T1
X2.8583Y-3.9528
X2.8583Y-3.9843
X2.8583Y-4.0157
X2.8583Y-4.0472
X2.8583Y-4.622
X2.8583Y-4.6535
X2.8583Y-4.685
X2.8583Y-4.7165
X2.8583Y-5.2913
X2.8583Y-5.3228
X2.8583Y-5.3543
X2.8583Y-5.3858
X2.8898Y-3.9528
X2.8898Y-3.9843
X2.8898Y-4.0157
X2.8898Y-4.0472
X2.8898Y-4.622
X2.8898Y-4.6535
X2.8898Y-4.685
X2.8898Y-4.7165
X2.8898Y-5.2913
X2.8898Y-5.3228
X2.8898Y-5.3543
X2.8898Y-5.3858
X2.9213Y-3.9528
X2.9213Y-3.9843
X2.9213Y-4.0157
X2.9213Y-4.0472
X2.9213Y-4.622
X2.9213Y-4.6535
X2.9213Y-4.685
X2.9213Y-4.7165
X2.9213Y-5.2913
X2.9213Y-5.3228
X2.9213Y-5.3543
X2.9213Y-5.3858
X2.9528Y-3.9528
X2.9528Y-3.9843
X2.9528Y-4.0157
X2.9528Y-4.0472
X2.9528Y-4.622
X2.9528Y-4.6535
X2.9528Y-4.685
X2.9528Y-4.7165
X2.9528Y-5.2913
X2.9528Y-5.3228
X2.9528Y-5.3543
X2.9528Y-5.3858
X2.9843Y-3.9528
X2.9843Y-3.9843
X2.9843Y-4.0157
X2.9843Y-4.0472
X2.9843Y-4.622
X2.9843Y-4.6535
X2.9843Y-4.685
X2.9843Y-4.7165
X2.9843Y-5.2913
X2.9843Y-5.3228
X2.9843Y-5.3543
X2.9843Y-5.3858
X3.0157Y-3.9528
X3.0157Y-3.9843
X3.0157Y-4.0157
X3.0157Y-4.0472
X3.0157Y-4.622
X3.0157Y-4.6535
X3.0157Y-4.685
X3.0157Y-4.7165
X3.0157Y-5.2913
X3.0157Y-5.3228
X3.0157Y-5.3543
X3.0157Y-5.3858
X3.0472Y-3.9528
X3.0472Y-3.9843
X3.0472Y-4.0157
X3.0472Y-4.0472
X3.0472Y-4.622
X3.0472Y-4.6535
X3.0472Y-4.685
X3.0472Y-4.7165
X3.0472Y-5.2913
X3.0472Y-5.3228
X3.0472Y-5.3543
X3.0472Y-5.3858
X3.4055Y-4.3937
X3.4095Y-4.3622
X3.4252Y-4.3819
X3.4252Y-4.4016
X3.4409Y-4.3622
X3.4449Y-4.3937
X3.6076Y-4.2983
X3.7402Y-4.8681
X3.8031Y-4.063
X3.8031Y-4.0945
X3.8031Y-4.126
X3.8031Y-4.1575
X3.8031Y-4.7323
X3.8031Y-4.7638
X3.8031Y-4.7953
X3.8031Y-4.8268
X3.8031Y-5.4016
X3.8031Y-5.4331
X3.8031Y-5.4646
X3.8031Y-5.4961
X3.8346Y-4.063
X3.8346Y-4.0945
X3.8346Y-4.126
X3.8346Y-4.1575
X3.8346Y-4.7323
X3.8346Y-4.7638
X3.8346Y-4.7953
X3.8346Y-4.8268
X3.8346Y-5.4016
X3.8346Y-5.4331
X3.8346Y-5.4646
X3.8346Y-5.4961
X3.8661Y-4.063
X3.8661Y-4.0945
X3.8661Y-4.126
X3.8661Y-4.1575
X3.8661Y-4.7323
X3.8661Y-4.7638
X3.8661Y-4.7953
X3.8661Y-4.8268
X3.8661Y-5.4016
X3.8661Y-5.4331
X3.8661Y-5.4646
X3.8661Y-5.4961
X3.8976Y-4.063
X3.8976Y-4.0945
X3.8976Y-4.126
X3.8976Y-4.1575
X3.8976Y-4.7323
X3.8976Y-4.7638
X3.8976Y-4.7953
X3.8976Y-4.8268
X3.8976Y-5.4016
X3.8976Y-5.4331
X3.8976Y-5.4646
X3.8976Y-5.4961
X3.9291Y-4.063
X3.9291Y-4.0945
X3.9291Y-4.126
X3.9291Y-4.1575
X3.9291Y-4.7323
X3.9291Y-4.7638
X3.9291Y-4.7953
X3.9291Y-4.8268
X3.9291Y-5.4016
X3.9291Y-5.4331
X3.9291Y-5.4646
X3.9291Y-5.4961
X3.9606Y-4.063
X3.9606Y-4.0945
X3.9606Y-4.126
X3.9606Y-4.1575
X3.9606Y-4.7323
X3.9606Y-4.7638
X3.9606Y-4.7953
X3.9606Y-4.8268
X3.9606Y-5.4016
X3.9606Y-5.4331
X3.9606Y-5.4646
X3.9606Y-5.4961
X3.9921Y-4.063
X3.9921Y-4.0945
X3.9921Y-4.126
X3.9921Y-4.1575
X3.9921Y-4.7323
X3.9921Y-4.7638
X3.9921Y-4.7953
X3.9921Y-4.8268
X3.9921Y-5.4016
X3.9921Y-5.4331
X3.9921Y-5.4646
X3.9921Y-5.4961
T2
X2.6358Y-4.1339
X2.6358Y-4.2421
X3.595Y-4.3926
X3.695Y-4.3926
X4.2894Y-4.1339
X4.2894Y-4.2421
T3
X2.6969Y-4.4744
X2.6969Y-4.5744
X2.6969Y-4.6744
X2.6969Y-4.7744
X2.6969Y-4.8744
X2.6969Y-4.9744
X4.1535Y-4.4744
X4.1535Y-4.5744
X4.1535Y-4.6744
X4.1535Y-4.7744
X4.1535Y-4.8744
X4.1535Y-4.9744
T4
X2.5984Y-3.8976
X2.5984Y-5.5512
X4.252Y-3.8976
X4.252Y-5.5512
T0
M30
