G04 (created by PCBNEW (2013-01-02 BZR 3881)-testing) date Wed 02 Jan 2013 08:30:19 PM CET*
%MOIN*%
G04 Gerber Fmt 3.4, Leading zero omitted, Abs format*
%FSLAX34Y34*%
G01*
G70*
G90*
G04 APERTURE LIST*
%ADD10C,2.3622e-06*%
%ADD11C,0.16*%
%ADD12R,0.0276X0.063*%
%ADD13R,0.0394X0.0866*%
%ADD14R,0.0709X0.1339*%
%ADD15R,0.025X0.025*%
%ADD16R,0.061X0.063*%
%ADD17R,0.0339X0.0256*%
%ADD18R,0.0339X0.0669*%
%ADD19C,0.075*%
%ADD20R,0.0984X0.1772*%
%ADD21R,0.059X0.0511*%
%ADD22R,0.1083X0.1083*%
%ADD23R,0.0511X0.059*%
%ADD24R,0.0629X0.0708*%
%ADD25R,0.0393X0.0551*%
%ADD26C,0.025*%
%ADD27C,0.028*%
%ADD28C,0.02*%
%ADD29C,0.00787402*%
%ADD30C,0.015748*%
G04 APERTURE END LIST*
G54D10*
G54D11*
X42520Y-38976D03*
G54D12*
X33660Y-44645D03*
G54D13*
X34251Y-44527D03*
G54D12*
X34842Y-44645D03*
X34842Y-43149D03*
X33660Y-43149D03*
G54D14*
X34251Y-43503D03*
G54D15*
X34054Y-43936D03*
X34448Y-43936D03*
X34408Y-43621D03*
X34094Y-43621D03*
X34251Y-43818D03*
X34251Y-44015D03*
G54D16*
X29528Y-39680D03*
X29528Y-41413D03*
G54D17*
X29528Y-40976D03*
G54D18*
X29528Y-40315D03*
G54D19*
X41535Y-47744D03*
X41535Y-46744D03*
X41535Y-48744D03*
X41535Y-49744D03*
X41535Y-45744D03*
X41535Y-44744D03*
X26969Y-46744D03*
X26969Y-47744D03*
X26969Y-45744D03*
X26969Y-44744D03*
X26969Y-48744D03*
X26969Y-49744D03*
G54D20*
X35019Y-47244D03*
X33485Y-47244D03*
G54D11*
X25984Y-55512D03*
X42520Y-55512D03*
X25984Y-38976D03*
G54D21*
X29527Y-44173D03*
X29527Y-43425D03*
G54D16*
X29528Y-46373D03*
X29528Y-48106D03*
G54D17*
X29528Y-47669D03*
G54D18*
X29528Y-47008D03*
G54D16*
X38976Y-48115D03*
X38976Y-46382D03*
G54D17*
X38976Y-46819D03*
G54D18*
X38976Y-47480D03*
G54D16*
X29528Y-53066D03*
X29528Y-54799D03*
G54D17*
X29528Y-54362D03*
G54D18*
X29528Y-53701D03*
G54D16*
X38976Y-54808D03*
X38976Y-53075D03*
G54D17*
X38976Y-53512D03*
G54D18*
X38976Y-54173D03*
G54D16*
X38976Y-41422D03*
X38976Y-39689D03*
G54D17*
X38976Y-40126D03*
G54D18*
X38976Y-40787D03*
G54D22*
X31988Y-44881D03*
X31988Y-42913D03*
G54D23*
X25610Y-41339D03*
X26358Y-41339D03*
X25610Y-42421D03*
X26358Y-42421D03*
X42146Y-41339D03*
X42894Y-41339D03*
X42146Y-42421D03*
X42894Y-42421D03*
G54D24*
X33700Y-41929D03*
X34802Y-41929D03*
G54D21*
X36950Y-44674D03*
X36950Y-43926D03*
X35950Y-44674D03*
X35950Y-43926D03*
G54D25*
X36076Y-42983D03*
X36824Y-42983D03*
X36450Y-42117D03*
G54D21*
X37401Y-47736D03*
X37401Y-46988D03*
G54D26*
X37401Y-49744D03*
X36076Y-42983D03*
X34802Y-41929D03*
X36950Y-43926D03*
X35950Y-43926D03*
X42894Y-41339D03*
X26358Y-41339D03*
X42894Y-42421D03*
X26358Y-42421D03*
G54D27*
X35500Y-41405D02*
X35334Y-41240D01*
X34842Y-43149D02*
X35150Y-43149D01*
X35500Y-42800D02*
X35500Y-41405D01*
X35150Y-43149D02*
X35500Y-42800D01*
X29527Y-43425D02*
X30492Y-43425D01*
X31692Y-41240D02*
X35334Y-41240D01*
X31003Y-41929D02*
X31692Y-41240D01*
X31003Y-42913D02*
X31003Y-41929D01*
X30492Y-43425D02*
X31003Y-42913D01*
G54D28*
X29527Y-41413D02*
X29528Y-41413D01*
G54D27*
X29527Y-43425D02*
X29527Y-41413D01*
X29528Y-41413D02*
X29528Y-40976D01*
X38976Y-39689D02*
X38976Y-40126D01*
X29528Y-40315D02*
X29528Y-39680D01*
X29528Y-39680D02*
X38967Y-39680D01*
X38967Y-39680D02*
X38976Y-39689D01*
X38976Y-46382D02*
X38976Y-46819D01*
X38976Y-41422D02*
X38976Y-46382D01*
X38976Y-40787D02*
X38976Y-41422D01*
X38976Y-47480D02*
X38976Y-48115D01*
X38976Y-53075D02*
X38976Y-53512D01*
X38976Y-48115D02*
X38976Y-53075D01*
X29528Y-54799D02*
X29528Y-54362D01*
X38976Y-54808D02*
X38976Y-54173D01*
X29528Y-54799D02*
X38967Y-54799D01*
X38967Y-54799D02*
X38976Y-54808D01*
X29528Y-48106D02*
X29528Y-47669D01*
X29528Y-53066D02*
X29528Y-48106D01*
X29528Y-53701D02*
X29528Y-53066D01*
X29528Y-46373D02*
X29528Y-47228D01*
X33485Y-47244D02*
X30224Y-47244D01*
X29988Y-47008D02*
X29528Y-47008D01*
X30224Y-47244D02*
X29988Y-47008D01*
X37401Y-47736D02*
X37401Y-49744D01*
X35019Y-47244D02*
X35019Y-46042D01*
X31988Y-45669D02*
X32185Y-45866D01*
X32185Y-45866D02*
X34842Y-45866D01*
X34842Y-45866D02*
X35019Y-46042D01*
X31988Y-45669D02*
X31988Y-44881D01*
X31988Y-44881D02*
X32972Y-44881D01*
X33208Y-44645D02*
X33660Y-44645D01*
X32972Y-44881D02*
X33208Y-44645D01*
X36450Y-42117D02*
X36767Y-42117D01*
X37326Y-44674D02*
X36950Y-44674D01*
X37600Y-44400D02*
X37326Y-44674D01*
X37600Y-42950D02*
X37600Y-44400D01*
X36767Y-42117D02*
X37600Y-42950D01*
X36950Y-44674D02*
X37074Y-44674D01*
X37401Y-45001D02*
X37401Y-46988D01*
X37074Y-44674D02*
X37401Y-45001D01*
X35950Y-44674D02*
X36950Y-44674D01*
X34842Y-44645D02*
X35921Y-44645D01*
X35921Y-44645D02*
X35950Y-44674D01*
X35950Y-43926D02*
X36076Y-43800D01*
X36076Y-42983D02*
X36076Y-43800D01*
X34251Y-42618D02*
X34547Y-42618D01*
X34547Y-42618D02*
X34802Y-42362D01*
X34802Y-42362D02*
X34802Y-41929D01*
X34251Y-43503D02*
X34251Y-42618D01*
X35950Y-43926D02*
X36950Y-43926D01*
X42894Y-42421D02*
X42894Y-41339D01*
X26358Y-42421D02*
X26358Y-41339D01*
X34251Y-43503D02*
X34303Y-43503D01*
X34726Y-43926D02*
X35950Y-43926D01*
X34303Y-43503D02*
X34726Y-43926D01*
X34350Y-43503D02*
X34251Y-43503D01*
X34251Y-44527D02*
X34251Y-43503D01*
X29527Y-44173D02*
X30433Y-44173D01*
X31988Y-43700D02*
X31988Y-42913D01*
X31791Y-43897D02*
X31988Y-43700D01*
X30708Y-43897D02*
X31791Y-43897D01*
X30433Y-44173D02*
X30708Y-43897D01*
X31988Y-42913D02*
X32874Y-42913D01*
X32874Y-42913D02*
X33110Y-43149D01*
X33110Y-43149D02*
X33660Y-43149D01*
X33700Y-41929D02*
X33700Y-42676D01*
X33700Y-42676D02*
X33660Y-42716D01*
X33660Y-42716D02*
X33660Y-43149D01*
X29527Y-44173D02*
X27933Y-44173D01*
X27657Y-43897D02*
X25610Y-43897D01*
X27933Y-44173D02*
X27657Y-43897D01*
X25610Y-42421D02*
X25610Y-43897D01*
X25610Y-43897D02*
X25610Y-47244D01*
X42146Y-41339D02*
X42146Y-42421D01*
X25610Y-41339D02*
X25610Y-42421D01*
X26969Y-47244D02*
X26969Y-46744D01*
X41535Y-47244D02*
X41535Y-46744D01*
X42717Y-44685D02*
X42717Y-47244D01*
X42146Y-44114D02*
X42717Y-44685D01*
X42146Y-42421D02*
X42146Y-44114D01*
X26969Y-47744D02*
X26969Y-47244D01*
X41535Y-47244D02*
X41535Y-47744D01*
X26969Y-47244D02*
X25610Y-47244D01*
X41535Y-47244D02*
X42717Y-47244D01*
G54D10*
G36*
X30472Y-42381D02*
X29943Y-42381D01*
X29943Y-41980D01*
X29988Y-41961D01*
X30066Y-41884D01*
X30108Y-41783D01*
X30108Y-41673D01*
X30108Y-41043D01*
X30066Y-40942D01*
X29989Y-40864D01*
X29973Y-40857D01*
X29973Y-40793D01*
X29972Y-40791D01*
X29972Y-40022D01*
X29972Y-39337D01*
X29951Y-39286D01*
X29912Y-39246D01*
X29860Y-39225D01*
X29805Y-39225D01*
X29623Y-39225D01*
X29588Y-39260D01*
X29588Y-39619D01*
X29937Y-39619D01*
X29972Y-39584D01*
X29972Y-39337D01*
X29972Y-40022D01*
X29972Y-39775D01*
X29937Y-39740D01*
X29588Y-39740D01*
X29588Y-39875D01*
X29588Y-40099D01*
X29588Y-40254D01*
X29802Y-40254D01*
X29836Y-40219D01*
X29836Y-40134D01*
X29860Y-40134D01*
X29912Y-40113D01*
X29951Y-40073D01*
X29972Y-40022D01*
X29972Y-40791D01*
X29931Y-40692D01*
X29853Y-40614D01*
X29836Y-40607D01*
X29836Y-40410D01*
X29802Y-40375D01*
X29628Y-40375D01*
X29588Y-40375D01*
X29467Y-40375D01*
X29467Y-40254D01*
X29467Y-40099D01*
X29467Y-39875D01*
X29467Y-39740D01*
X29467Y-39619D01*
X29467Y-39260D01*
X29432Y-39225D01*
X29250Y-39225D01*
X29195Y-39225D01*
X29143Y-39246D01*
X29104Y-39286D01*
X29083Y-39337D01*
X29083Y-39584D01*
X29118Y-39619D01*
X29467Y-39619D01*
X29467Y-39740D01*
X29118Y-39740D01*
X29083Y-39775D01*
X29083Y-40022D01*
X29104Y-40073D01*
X29143Y-40113D01*
X29195Y-40134D01*
X29219Y-40134D01*
X29219Y-40219D01*
X29253Y-40254D01*
X29467Y-40254D01*
X29467Y-40375D01*
X29428Y-40375D01*
X29253Y-40375D01*
X29219Y-40410D01*
X29219Y-40607D01*
X29202Y-40614D01*
X29125Y-40691D01*
X29082Y-40792D01*
X29082Y-40857D01*
X29067Y-40864D01*
X28989Y-40941D01*
X28947Y-41042D01*
X28947Y-41152D01*
X28947Y-41782D01*
X28989Y-41883D01*
X29066Y-41961D01*
X29111Y-41980D01*
X29111Y-42381D01*
X28582Y-42381D01*
X28582Y-38720D01*
X30472Y-38720D01*
X30472Y-42381D01*
X30472Y-42381D01*
G37*
G54D29*
X30472Y-42381D02*
X29943Y-42381D01*
X29943Y-41980D01*
X29988Y-41961D01*
X30066Y-41884D01*
X30108Y-41783D01*
X30108Y-41673D01*
X30108Y-41043D01*
X30066Y-40942D01*
X29989Y-40864D01*
X29973Y-40857D01*
X29973Y-40793D01*
X29972Y-40791D01*
X29972Y-40022D01*
X29972Y-39337D01*
X29951Y-39286D01*
X29912Y-39246D01*
X29860Y-39225D01*
X29805Y-39225D01*
X29623Y-39225D01*
X29588Y-39260D01*
X29588Y-39619D01*
X29937Y-39619D01*
X29972Y-39584D01*
X29972Y-39337D01*
X29972Y-40022D01*
X29972Y-39775D01*
X29937Y-39740D01*
X29588Y-39740D01*
X29588Y-39875D01*
X29588Y-40099D01*
X29588Y-40254D01*
X29802Y-40254D01*
X29836Y-40219D01*
X29836Y-40134D01*
X29860Y-40134D01*
X29912Y-40113D01*
X29951Y-40073D01*
X29972Y-40022D01*
X29972Y-40791D01*
X29931Y-40692D01*
X29853Y-40614D01*
X29836Y-40607D01*
X29836Y-40410D01*
X29802Y-40375D01*
X29628Y-40375D01*
X29588Y-40375D01*
X29467Y-40375D01*
X29467Y-40254D01*
X29467Y-40099D01*
X29467Y-39875D01*
X29467Y-39740D01*
X29467Y-39619D01*
X29467Y-39260D01*
X29432Y-39225D01*
X29250Y-39225D01*
X29195Y-39225D01*
X29143Y-39246D01*
X29104Y-39286D01*
X29083Y-39337D01*
X29083Y-39584D01*
X29118Y-39619D01*
X29467Y-39619D01*
X29467Y-39740D01*
X29118Y-39740D01*
X29083Y-39775D01*
X29083Y-40022D01*
X29104Y-40073D01*
X29143Y-40113D01*
X29195Y-40134D01*
X29219Y-40134D01*
X29219Y-40219D01*
X29253Y-40254D01*
X29467Y-40254D01*
X29467Y-40375D01*
X29428Y-40375D01*
X29253Y-40375D01*
X29219Y-40410D01*
X29219Y-40607D01*
X29202Y-40614D01*
X29125Y-40691D01*
X29082Y-40792D01*
X29082Y-40857D01*
X29067Y-40864D01*
X28989Y-40941D01*
X28947Y-41042D01*
X28947Y-41152D01*
X28947Y-41782D01*
X28989Y-41883D01*
X29066Y-41961D01*
X29111Y-41980D01*
X29111Y-42381D01*
X28582Y-42381D01*
X28582Y-38720D01*
X30472Y-38720D01*
X30472Y-42381D01*
G54D10*
G36*
X39921Y-42381D02*
X39420Y-42381D01*
X39420Y-41764D01*
X39420Y-41079D01*
X39399Y-41028D01*
X39360Y-40988D01*
X39308Y-40967D01*
X39284Y-40967D01*
X39284Y-40882D01*
X39250Y-40847D01*
X39036Y-40847D01*
X39036Y-41002D01*
X39036Y-41226D01*
X39036Y-41361D01*
X39385Y-41361D01*
X39420Y-41326D01*
X39420Y-41079D01*
X39420Y-41764D01*
X39420Y-41517D01*
X39385Y-41482D01*
X39036Y-41482D01*
X39036Y-41841D01*
X39071Y-41876D01*
X39253Y-41876D01*
X39308Y-41876D01*
X39360Y-41855D01*
X39399Y-41815D01*
X39420Y-41764D01*
X39420Y-42381D01*
X38976Y-42381D01*
X38915Y-42381D01*
X38915Y-41841D01*
X38915Y-41482D01*
X38915Y-41361D01*
X38915Y-41226D01*
X38915Y-41002D01*
X38915Y-40847D01*
X38701Y-40847D01*
X38667Y-40882D01*
X38667Y-40967D01*
X38643Y-40967D01*
X38591Y-40988D01*
X38552Y-41028D01*
X38531Y-41079D01*
X38531Y-41326D01*
X38566Y-41361D01*
X38915Y-41361D01*
X38915Y-41482D01*
X38566Y-41482D01*
X38531Y-41517D01*
X38531Y-41764D01*
X38552Y-41815D01*
X38591Y-41855D01*
X38643Y-41876D01*
X38698Y-41876D01*
X38880Y-41876D01*
X38915Y-41841D01*
X38915Y-42381D01*
X38031Y-42381D01*
X38031Y-40095D01*
X38410Y-40095D01*
X38437Y-40159D01*
X38514Y-40237D01*
X38530Y-40244D01*
X38530Y-40308D01*
X38572Y-40409D01*
X38650Y-40487D01*
X38667Y-40494D01*
X38667Y-40691D01*
X38701Y-40726D01*
X38876Y-40726D01*
X38915Y-40726D01*
X39036Y-40726D01*
X39076Y-40726D01*
X39250Y-40726D01*
X39284Y-40691D01*
X39284Y-40494D01*
X39301Y-40487D01*
X39378Y-40410D01*
X39421Y-40309D01*
X39421Y-40244D01*
X39436Y-40237D01*
X39514Y-40160D01*
X39556Y-40059D01*
X39556Y-39949D01*
X39556Y-39319D01*
X39514Y-39218D01*
X39437Y-39140D01*
X39336Y-39098D01*
X39226Y-39098D01*
X38616Y-39098D01*
X38515Y-39140D01*
X38437Y-39217D01*
X38418Y-39264D01*
X38031Y-39264D01*
X38031Y-38720D01*
X39921Y-38720D01*
X39921Y-42381D01*
X39921Y-42381D01*
G37*
G54D29*
X39921Y-42381D02*
X39420Y-42381D01*
X39420Y-41764D01*
X39420Y-41079D01*
X39399Y-41028D01*
X39360Y-40988D01*
X39308Y-40967D01*
X39284Y-40967D01*
X39284Y-40882D01*
X39250Y-40847D01*
X39036Y-40847D01*
X39036Y-41002D01*
X39036Y-41226D01*
X39036Y-41361D01*
X39385Y-41361D01*
X39420Y-41326D01*
X39420Y-41079D01*
X39420Y-41764D01*
X39420Y-41517D01*
X39385Y-41482D01*
X39036Y-41482D01*
X39036Y-41841D01*
X39071Y-41876D01*
X39253Y-41876D01*
X39308Y-41876D01*
X39360Y-41855D01*
X39399Y-41815D01*
X39420Y-41764D01*
X39420Y-42381D01*
X38976Y-42381D01*
X38915Y-42381D01*
X38915Y-41841D01*
X38915Y-41482D01*
X38915Y-41361D01*
X38915Y-41226D01*
X38915Y-41002D01*
X38915Y-40847D01*
X38701Y-40847D01*
X38667Y-40882D01*
X38667Y-40967D01*
X38643Y-40967D01*
X38591Y-40988D01*
X38552Y-41028D01*
X38531Y-41079D01*
X38531Y-41326D01*
X38566Y-41361D01*
X38915Y-41361D01*
X38915Y-41482D01*
X38566Y-41482D01*
X38531Y-41517D01*
X38531Y-41764D01*
X38552Y-41815D01*
X38591Y-41855D01*
X38643Y-41876D01*
X38698Y-41876D01*
X38880Y-41876D01*
X38915Y-41841D01*
X38915Y-42381D01*
X38031Y-42381D01*
X38031Y-40095D01*
X38410Y-40095D01*
X38437Y-40159D01*
X38514Y-40237D01*
X38530Y-40244D01*
X38530Y-40308D01*
X38572Y-40409D01*
X38650Y-40487D01*
X38667Y-40494D01*
X38667Y-40691D01*
X38701Y-40726D01*
X38876Y-40726D01*
X38915Y-40726D01*
X39036Y-40726D01*
X39076Y-40726D01*
X39250Y-40726D01*
X39284Y-40691D01*
X39284Y-40494D01*
X39301Y-40487D01*
X39378Y-40410D01*
X39421Y-40309D01*
X39421Y-40244D01*
X39436Y-40237D01*
X39514Y-40160D01*
X39556Y-40059D01*
X39556Y-39949D01*
X39556Y-39319D01*
X39514Y-39218D01*
X39437Y-39140D01*
X39336Y-39098D01*
X39226Y-39098D01*
X38616Y-39098D01*
X38515Y-39140D01*
X38437Y-39217D01*
X38418Y-39264D01*
X38031Y-39264D01*
X38031Y-38720D01*
X39921Y-38720D01*
X39921Y-42381D01*
G54D10*
G36*
X30472Y-49074D02*
X29943Y-49074D01*
X29943Y-48673D01*
X29988Y-48654D01*
X30066Y-48577D01*
X30108Y-48476D01*
X30108Y-48366D01*
X30108Y-47736D01*
X30066Y-47635D01*
X29989Y-47557D01*
X29973Y-47550D01*
X29973Y-47486D01*
X29972Y-47484D01*
X29972Y-46715D01*
X29972Y-46030D01*
X29951Y-45979D01*
X29912Y-45939D01*
X29860Y-45918D01*
X29805Y-45918D01*
X29623Y-45918D01*
X29588Y-45953D01*
X29588Y-46312D01*
X29937Y-46312D01*
X29972Y-46277D01*
X29972Y-46030D01*
X29972Y-46715D01*
X29972Y-46468D01*
X29937Y-46433D01*
X29588Y-46433D01*
X29588Y-46568D01*
X29588Y-46792D01*
X29588Y-46947D01*
X29802Y-46947D01*
X29836Y-46912D01*
X29836Y-46827D01*
X29860Y-46827D01*
X29912Y-46806D01*
X29951Y-46766D01*
X29972Y-46715D01*
X29972Y-47484D01*
X29931Y-47385D01*
X29853Y-47307D01*
X29836Y-47300D01*
X29836Y-47103D01*
X29802Y-47068D01*
X29628Y-47068D01*
X29588Y-47068D01*
X29467Y-47068D01*
X29467Y-46947D01*
X29467Y-46792D01*
X29467Y-46568D01*
X29467Y-46433D01*
X29467Y-46312D01*
X29467Y-45953D01*
X29432Y-45918D01*
X29250Y-45918D01*
X29195Y-45918D01*
X29143Y-45939D01*
X29104Y-45979D01*
X29083Y-46030D01*
X29083Y-46277D01*
X29118Y-46312D01*
X29467Y-46312D01*
X29467Y-46433D01*
X29118Y-46433D01*
X29083Y-46468D01*
X29083Y-46715D01*
X29104Y-46766D01*
X29143Y-46806D01*
X29195Y-46827D01*
X29219Y-46827D01*
X29219Y-46912D01*
X29253Y-46947D01*
X29467Y-46947D01*
X29467Y-47068D01*
X29428Y-47068D01*
X29253Y-47068D01*
X29219Y-47103D01*
X29219Y-47300D01*
X29202Y-47307D01*
X29125Y-47384D01*
X29082Y-47485D01*
X29082Y-47550D01*
X29067Y-47557D01*
X28989Y-47634D01*
X28947Y-47735D01*
X28947Y-47845D01*
X28947Y-48475D01*
X28989Y-48576D01*
X29066Y-48654D01*
X29112Y-48673D01*
X29112Y-49074D01*
X28582Y-49074D01*
X28582Y-45413D01*
X30472Y-45413D01*
X30472Y-49074D01*
X30472Y-49074D01*
G37*
G54D29*
X30472Y-49074D02*
X29943Y-49074D01*
X29943Y-48673D01*
X29988Y-48654D01*
X30066Y-48577D01*
X30108Y-48476D01*
X30108Y-48366D01*
X30108Y-47736D01*
X30066Y-47635D01*
X29989Y-47557D01*
X29973Y-47550D01*
X29973Y-47486D01*
X29972Y-47484D01*
X29972Y-46715D01*
X29972Y-46030D01*
X29951Y-45979D01*
X29912Y-45939D01*
X29860Y-45918D01*
X29805Y-45918D01*
X29623Y-45918D01*
X29588Y-45953D01*
X29588Y-46312D01*
X29937Y-46312D01*
X29972Y-46277D01*
X29972Y-46030D01*
X29972Y-46715D01*
X29972Y-46468D01*
X29937Y-46433D01*
X29588Y-46433D01*
X29588Y-46568D01*
X29588Y-46792D01*
X29588Y-46947D01*
X29802Y-46947D01*
X29836Y-46912D01*
X29836Y-46827D01*
X29860Y-46827D01*
X29912Y-46806D01*
X29951Y-46766D01*
X29972Y-46715D01*
X29972Y-47484D01*
X29931Y-47385D01*
X29853Y-47307D01*
X29836Y-47300D01*
X29836Y-47103D01*
X29802Y-47068D01*
X29628Y-47068D01*
X29588Y-47068D01*
X29467Y-47068D01*
X29467Y-46947D01*
X29467Y-46792D01*
X29467Y-46568D01*
X29467Y-46433D01*
X29467Y-46312D01*
X29467Y-45953D01*
X29432Y-45918D01*
X29250Y-45918D01*
X29195Y-45918D01*
X29143Y-45939D01*
X29104Y-45979D01*
X29083Y-46030D01*
X29083Y-46277D01*
X29118Y-46312D01*
X29467Y-46312D01*
X29467Y-46433D01*
X29118Y-46433D01*
X29083Y-46468D01*
X29083Y-46715D01*
X29104Y-46766D01*
X29143Y-46806D01*
X29195Y-46827D01*
X29219Y-46827D01*
X29219Y-46912D01*
X29253Y-46947D01*
X29467Y-46947D01*
X29467Y-47068D01*
X29428Y-47068D01*
X29253Y-47068D01*
X29219Y-47103D01*
X29219Y-47300D01*
X29202Y-47307D01*
X29125Y-47384D01*
X29082Y-47485D01*
X29082Y-47550D01*
X29067Y-47557D01*
X28989Y-47634D01*
X28947Y-47735D01*
X28947Y-47845D01*
X28947Y-48475D01*
X28989Y-48576D01*
X29066Y-48654D01*
X29112Y-48673D01*
X29112Y-49074D01*
X28582Y-49074D01*
X28582Y-45413D01*
X30472Y-45413D01*
X30472Y-49074D01*
G54D10*
G36*
X30472Y-55767D02*
X28582Y-55767D01*
X28582Y-52106D01*
X30472Y-52106D01*
X30472Y-54383D01*
X30089Y-54383D01*
X30066Y-54328D01*
X29989Y-54250D01*
X29973Y-54243D01*
X29973Y-54179D01*
X29972Y-54177D01*
X29972Y-53408D01*
X29972Y-52723D01*
X29951Y-52672D01*
X29912Y-52632D01*
X29860Y-52611D01*
X29805Y-52611D01*
X29623Y-52611D01*
X29588Y-52646D01*
X29588Y-53005D01*
X29937Y-53005D01*
X29972Y-52970D01*
X29972Y-52723D01*
X29972Y-53408D01*
X29972Y-53161D01*
X29937Y-53126D01*
X29588Y-53126D01*
X29588Y-53261D01*
X29588Y-53485D01*
X29588Y-53640D01*
X29802Y-53640D01*
X29836Y-53605D01*
X29836Y-53520D01*
X29860Y-53520D01*
X29912Y-53499D01*
X29951Y-53459D01*
X29972Y-53408D01*
X29972Y-54177D01*
X29931Y-54078D01*
X29853Y-54000D01*
X29836Y-53993D01*
X29836Y-53796D01*
X29802Y-53761D01*
X29628Y-53761D01*
X29588Y-53761D01*
X29467Y-53761D01*
X29467Y-53640D01*
X29467Y-53485D01*
X29467Y-53261D01*
X29467Y-53126D01*
X29467Y-53005D01*
X29467Y-52646D01*
X29432Y-52611D01*
X29250Y-52611D01*
X29195Y-52611D01*
X29143Y-52632D01*
X29104Y-52672D01*
X29083Y-52723D01*
X29083Y-52970D01*
X29118Y-53005D01*
X29467Y-53005D01*
X29467Y-53126D01*
X29118Y-53126D01*
X29083Y-53161D01*
X29083Y-53408D01*
X29104Y-53459D01*
X29143Y-53499D01*
X29195Y-53520D01*
X29219Y-53520D01*
X29219Y-53605D01*
X29253Y-53640D01*
X29467Y-53640D01*
X29467Y-53761D01*
X29428Y-53761D01*
X29253Y-53761D01*
X29219Y-53796D01*
X29219Y-53993D01*
X29202Y-54000D01*
X29125Y-54077D01*
X29082Y-54178D01*
X29082Y-54243D01*
X29067Y-54250D01*
X28989Y-54327D01*
X28947Y-54428D01*
X28947Y-54538D01*
X28947Y-55168D01*
X28989Y-55269D01*
X29066Y-55347D01*
X29167Y-55389D01*
X29277Y-55389D01*
X29887Y-55389D01*
X29988Y-55347D01*
X30066Y-55270D01*
X30089Y-55214D01*
X30472Y-55214D01*
X30472Y-55767D01*
X30472Y-55767D01*
G37*
G54D29*
X30472Y-55767D02*
X28582Y-55767D01*
X28582Y-52106D01*
X30472Y-52106D01*
X30472Y-54383D01*
X30089Y-54383D01*
X30066Y-54328D01*
X29989Y-54250D01*
X29973Y-54243D01*
X29973Y-54179D01*
X29972Y-54177D01*
X29972Y-53408D01*
X29972Y-52723D01*
X29951Y-52672D01*
X29912Y-52632D01*
X29860Y-52611D01*
X29805Y-52611D01*
X29623Y-52611D01*
X29588Y-52646D01*
X29588Y-53005D01*
X29937Y-53005D01*
X29972Y-52970D01*
X29972Y-52723D01*
X29972Y-53408D01*
X29972Y-53161D01*
X29937Y-53126D01*
X29588Y-53126D01*
X29588Y-53261D01*
X29588Y-53485D01*
X29588Y-53640D01*
X29802Y-53640D01*
X29836Y-53605D01*
X29836Y-53520D01*
X29860Y-53520D01*
X29912Y-53499D01*
X29951Y-53459D01*
X29972Y-53408D01*
X29972Y-54177D01*
X29931Y-54078D01*
X29853Y-54000D01*
X29836Y-53993D01*
X29836Y-53796D01*
X29802Y-53761D01*
X29628Y-53761D01*
X29588Y-53761D01*
X29467Y-53761D01*
X29467Y-53640D01*
X29467Y-53485D01*
X29467Y-53261D01*
X29467Y-53126D01*
X29467Y-53005D01*
X29467Y-52646D01*
X29432Y-52611D01*
X29250Y-52611D01*
X29195Y-52611D01*
X29143Y-52632D01*
X29104Y-52672D01*
X29083Y-52723D01*
X29083Y-52970D01*
X29118Y-53005D01*
X29467Y-53005D01*
X29467Y-53126D01*
X29118Y-53126D01*
X29083Y-53161D01*
X29083Y-53408D01*
X29104Y-53459D01*
X29143Y-53499D01*
X29195Y-53520D01*
X29219Y-53520D01*
X29219Y-53605D01*
X29253Y-53640D01*
X29467Y-53640D01*
X29467Y-53761D01*
X29428Y-53761D01*
X29253Y-53761D01*
X29219Y-53796D01*
X29219Y-53993D01*
X29202Y-54000D01*
X29125Y-54077D01*
X29082Y-54178D01*
X29082Y-54243D01*
X29067Y-54250D01*
X28989Y-54327D01*
X28947Y-54428D01*
X28947Y-54538D01*
X28947Y-55168D01*
X28989Y-55269D01*
X29066Y-55347D01*
X29167Y-55389D01*
X29277Y-55389D01*
X29887Y-55389D01*
X29988Y-55347D01*
X30066Y-55270D01*
X30089Y-55214D01*
X30472Y-55214D01*
X30472Y-55767D01*
G54D10*
G36*
X39921Y-49074D02*
X39420Y-49074D01*
X39420Y-48457D01*
X39420Y-47772D01*
X39399Y-47721D01*
X39360Y-47681D01*
X39308Y-47660D01*
X39284Y-47660D01*
X39284Y-47575D01*
X39250Y-47540D01*
X39036Y-47540D01*
X39036Y-47695D01*
X39036Y-47919D01*
X39036Y-48054D01*
X39385Y-48054D01*
X39420Y-48019D01*
X39420Y-47772D01*
X39420Y-48457D01*
X39420Y-48210D01*
X39385Y-48175D01*
X39036Y-48175D01*
X39036Y-48534D01*
X39071Y-48569D01*
X39253Y-48569D01*
X39308Y-48569D01*
X39360Y-48548D01*
X39399Y-48508D01*
X39420Y-48457D01*
X39420Y-49074D01*
X38915Y-49074D01*
X38915Y-48534D01*
X38915Y-48175D01*
X38915Y-48054D01*
X38915Y-47919D01*
X38915Y-47695D01*
X38915Y-47540D01*
X38701Y-47540D01*
X38667Y-47575D01*
X38667Y-47660D01*
X38643Y-47660D01*
X38591Y-47681D01*
X38552Y-47721D01*
X38531Y-47772D01*
X38531Y-48019D01*
X38566Y-48054D01*
X38915Y-48054D01*
X38915Y-48175D01*
X38566Y-48175D01*
X38531Y-48210D01*
X38531Y-48457D01*
X38552Y-48508D01*
X38591Y-48548D01*
X38643Y-48569D01*
X38698Y-48569D01*
X38880Y-48569D01*
X38915Y-48534D01*
X38915Y-49074D01*
X38031Y-49074D01*
X38031Y-45413D01*
X38560Y-45413D01*
X38560Y-45814D01*
X38515Y-45833D01*
X38437Y-45910D01*
X38395Y-46011D01*
X38395Y-46121D01*
X38395Y-46751D01*
X38437Y-46852D01*
X38514Y-46930D01*
X38530Y-46937D01*
X38530Y-47001D01*
X38572Y-47102D01*
X38650Y-47180D01*
X38667Y-47187D01*
X38667Y-47384D01*
X38701Y-47419D01*
X38876Y-47419D01*
X38915Y-47419D01*
X39036Y-47419D01*
X39076Y-47419D01*
X39250Y-47419D01*
X39284Y-47384D01*
X39284Y-47187D01*
X39301Y-47180D01*
X39378Y-47103D01*
X39421Y-47002D01*
X39421Y-46937D01*
X39436Y-46930D01*
X39514Y-46853D01*
X39556Y-46752D01*
X39556Y-46642D01*
X39556Y-46012D01*
X39514Y-45911D01*
X39437Y-45833D01*
X39391Y-45814D01*
X39391Y-45413D01*
X39921Y-45413D01*
X39921Y-49074D01*
X39921Y-49074D01*
G37*
G54D29*
X39921Y-49074D02*
X39420Y-49074D01*
X39420Y-48457D01*
X39420Y-47772D01*
X39399Y-47721D01*
X39360Y-47681D01*
X39308Y-47660D01*
X39284Y-47660D01*
X39284Y-47575D01*
X39250Y-47540D01*
X39036Y-47540D01*
X39036Y-47695D01*
X39036Y-47919D01*
X39036Y-48054D01*
X39385Y-48054D01*
X39420Y-48019D01*
X39420Y-47772D01*
X39420Y-48457D01*
X39420Y-48210D01*
X39385Y-48175D01*
X39036Y-48175D01*
X39036Y-48534D01*
X39071Y-48569D01*
X39253Y-48569D01*
X39308Y-48569D01*
X39360Y-48548D01*
X39399Y-48508D01*
X39420Y-48457D01*
X39420Y-49074D01*
X38915Y-49074D01*
X38915Y-48534D01*
X38915Y-48175D01*
X38915Y-48054D01*
X38915Y-47919D01*
X38915Y-47695D01*
X38915Y-47540D01*
X38701Y-47540D01*
X38667Y-47575D01*
X38667Y-47660D01*
X38643Y-47660D01*
X38591Y-47681D01*
X38552Y-47721D01*
X38531Y-47772D01*
X38531Y-48019D01*
X38566Y-48054D01*
X38915Y-48054D01*
X38915Y-48175D01*
X38566Y-48175D01*
X38531Y-48210D01*
X38531Y-48457D01*
X38552Y-48508D01*
X38591Y-48548D01*
X38643Y-48569D01*
X38698Y-48569D01*
X38880Y-48569D01*
X38915Y-48534D01*
X38915Y-49074D01*
X38031Y-49074D01*
X38031Y-45413D01*
X38560Y-45413D01*
X38560Y-45814D01*
X38515Y-45833D01*
X38437Y-45910D01*
X38395Y-46011D01*
X38395Y-46121D01*
X38395Y-46751D01*
X38437Y-46852D01*
X38514Y-46930D01*
X38530Y-46937D01*
X38530Y-47001D01*
X38572Y-47102D01*
X38650Y-47180D01*
X38667Y-47187D01*
X38667Y-47384D01*
X38701Y-47419D01*
X38876Y-47419D01*
X38915Y-47419D01*
X39036Y-47419D01*
X39076Y-47419D01*
X39250Y-47419D01*
X39284Y-47384D01*
X39284Y-47187D01*
X39301Y-47180D01*
X39378Y-47103D01*
X39421Y-47002D01*
X39421Y-46937D01*
X39436Y-46930D01*
X39514Y-46853D01*
X39556Y-46752D01*
X39556Y-46642D01*
X39556Y-46012D01*
X39514Y-45911D01*
X39437Y-45833D01*
X39391Y-45814D01*
X39391Y-45413D01*
X39921Y-45413D01*
X39921Y-49074D01*
G54D10*
G36*
X39921Y-55767D02*
X39420Y-55767D01*
X39420Y-55150D01*
X39420Y-54465D01*
X39399Y-54414D01*
X39360Y-54374D01*
X39308Y-54353D01*
X39284Y-54353D01*
X39284Y-54268D01*
X39250Y-54233D01*
X39036Y-54233D01*
X39036Y-54388D01*
X39036Y-54612D01*
X39036Y-54747D01*
X39385Y-54747D01*
X39420Y-54712D01*
X39420Y-54465D01*
X39420Y-55150D01*
X39420Y-54903D01*
X39385Y-54868D01*
X39036Y-54868D01*
X39036Y-55227D01*
X39071Y-55262D01*
X39253Y-55262D01*
X39308Y-55262D01*
X39360Y-55241D01*
X39399Y-55201D01*
X39420Y-55150D01*
X39420Y-55767D01*
X38915Y-55767D01*
X38915Y-55227D01*
X38915Y-54868D01*
X38915Y-54747D01*
X38915Y-54612D01*
X38915Y-54388D01*
X38915Y-54233D01*
X38701Y-54233D01*
X38667Y-54268D01*
X38667Y-54353D01*
X38643Y-54353D01*
X38591Y-54374D01*
X38552Y-54414D01*
X38531Y-54465D01*
X38531Y-54712D01*
X38566Y-54747D01*
X38915Y-54747D01*
X38915Y-54868D01*
X38566Y-54868D01*
X38531Y-54903D01*
X38531Y-55150D01*
X38552Y-55201D01*
X38591Y-55241D01*
X38643Y-55262D01*
X38698Y-55262D01*
X38880Y-55262D01*
X38915Y-55227D01*
X38915Y-55767D01*
X38031Y-55767D01*
X38031Y-52106D01*
X38560Y-52106D01*
X38560Y-52507D01*
X38515Y-52526D01*
X38437Y-52603D01*
X38395Y-52704D01*
X38395Y-52814D01*
X38395Y-53444D01*
X38437Y-53545D01*
X38514Y-53623D01*
X38530Y-53630D01*
X38530Y-53694D01*
X38572Y-53795D01*
X38650Y-53873D01*
X38667Y-53880D01*
X38667Y-54077D01*
X38701Y-54112D01*
X38876Y-54112D01*
X38915Y-54112D01*
X39036Y-54112D01*
X39076Y-54112D01*
X39250Y-54112D01*
X39284Y-54077D01*
X39284Y-53880D01*
X39301Y-53873D01*
X39378Y-53796D01*
X39421Y-53695D01*
X39421Y-53630D01*
X39436Y-53623D01*
X39514Y-53546D01*
X39556Y-53445D01*
X39556Y-53335D01*
X39556Y-52705D01*
X39514Y-52604D01*
X39437Y-52526D01*
X39391Y-52507D01*
X39391Y-52106D01*
X39921Y-52106D01*
X39921Y-55767D01*
X39921Y-55767D01*
G37*
G54D29*
X39921Y-55767D02*
X39420Y-55767D01*
X39420Y-55150D01*
X39420Y-54465D01*
X39399Y-54414D01*
X39360Y-54374D01*
X39308Y-54353D01*
X39284Y-54353D01*
X39284Y-54268D01*
X39250Y-54233D01*
X39036Y-54233D01*
X39036Y-54388D01*
X39036Y-54612D01*
X39036Y-54747D01*
X39385Y-54747D01*
X39420Y-54712D01*
X39420Y-54465D01*
X39420Y-55150D01*
X39420Y-54903D01*
X39385Y-54868D01*
X39036Y-54868D01*
X39036Y-55227D01*
X39071Y-55262D01*
X39253Y-55262D01*
X39308Y-55262D01*
X39360Y-55241D01*
X39399Y-55201D01*
X39420Y-55150D01*
X39420Y-55767D01*
X38915Y-55767D01*
X38915Y-55227D01*
X38915Y-54868D01*
X38915Y-54747D01*
X38915Y-54612D01*
X38915Y-54388D01*
X38915Y-54233D01*
X38701Y-54233D01*
X38667Y-54268D01*
X38667Y-54353D01*
X38643Y-54353D01*
X38591Y-54374D01*
X38552Y-54414D01*
X38531Y-54465D01*
X38531Y-54712D01*
X38566Y-54747D01*
X38915Y-54747D01*
X38915Y-54868D01*
X38566Y-54868D01*
X38531Y-54903D01*
X38531Y-55150D01*
X38552Y-55201D01*
X38591Y-55241D01*
X38643Y-55262D01*
X38698Y-55262D01*
X38880Y-55262D01*
X38915Y-55227D01*
X38915Y-55767D01*
X38031Y-55767D01*
X38031Y-52106D01*
X38560Y-52106D01*
X38560Y-52507D01*
X38515Y-52526D01*
X38437Y-52603D01*
X38395Y-52704D01*
X38395Y-52814D01*
X38395Y-53444D01*
X38437Y-53545D01*
X38514Y-53623D01*
X38530Y-53630D01*
X38530Y-53694D01*
X38572Y-53795D01*
X38650Y-53873D01*
X38667Y-53880D01*
X38667Y-54077D01*
X38701Y-54112D01*
X38876Y-54112D01*
X38915Y-54112D01*
X39036Y-54112D01*
X39076Y-54112D01*
X39250Y-54112D01*
X39284Y-54077D01*
X39284Y-53880D01*
X39301Y-53873D01*
X39378Y-53796D01*
X39421Y-53695D01*
X39421Y-53630D01*
X39436Y-53623D01*
X39514Y-53546D01*
X39556Y-53445D01*
X39556Y-53335D01*
X39556Y-52705D01*
X39514Y-52604D01*
X39437Y-52526D01*
X39391Y-52507D01*
X39391Y-52106D01*
X39921Y-52106D01*
X39921Y-55767D01*
G54D10*
G36*
X43858Y-53984D02*
X43339Y-53984D01*
X43339Y-42159D01*
X43339Y-41600D01*
X43288Y-41600D01*
X43288Y-41071D01*
X43288Y-41016D01*
X43267Y-40964D01*
X43228Y-40925D01*
X43177Y-40904D01*
X42989Y-40904D01*
X42954Y-40939D01*
X42954Y-41278D01*
X43254Y-41278D01*
X43288Y-41243D01*
X43288Y-41071D01*
X43288Y-41600D01*
X43288Y-41600D01*
X43288Y-41434D01*
X43254Y-41399D01*
X42994Y-41399D01*
X42954Y-41399D01*
X42833Y-41399D01*
X42833Y-41278D01*
X42833Y-41239D01*
X42833Y-40939D01*
X42798Y-40904D01*
X42610Y-40904D01*
X42560Y-40925D01*
X42512Y-40877D01*
X42440Y-40847D01*
X42362Y-40847D01*
X41851Y-40847D01*
X41779Y-40877D01*
X41724Y-40932D01*
X41694Y-41004D01*
X41694Y-41082D01*
X41694Y-41672D01*
X41723Y-41745D01*
X41779Y-41800D01*
X41851Y-41830D01*
X41886Y-41830D01*
X41886Y-41929D01*
X41851Y-41929D01*
X41779Y-41959D01*
X41724Y-42014D01*
X41694Y-42086D01*
X41694Y-42164D01*
X41694Y-42754D01*
X41723Y-42827D01*
X41779Y-42882D01*
X41851Y-42912D01*
X41886Y-42912D01*
X41886Y-44114D01*
X41906Y-44213D01*
X41962Y-44297D01*
X42457Y-44792D01*
X42457Y-46984D01*
X42055Y-46984D01*
X42055Y-45806D01*
X42055Y-44806D01*
X42040Y-44602D01*
X41992Y-44486D01*
X41921Y-44443D01*
X41835Y-44529D01*
X41835Y-44357D01*
X41792Y-44286D01*
X41597Y-44223D01*
X41393Y-44238D01*
X41277Y-44286D01*
X41234Y-44357D01*
X41535Y-44658D01*
X41835Y-44357D01*
X41835Y-44529D01*
X41620Y-44744D01*
X41921Y-45044D01*
X41992Y-45001D01*
X42055Y-44806D01*
X42055Y-45806D01*
X42040Y-45602D01*
X41992Y-45486D01*
X41921Y-45443D01*
X41835Y-45529D01*
X41835Y-45357D01*
X41792Y-45286D01*
X41676Y-45249D01*
X41676Y-45249D01*
X41792Y-45201D01*
X41835Y-45130D01*
X41535Y-44829D01*
X41449Y-44915D01*
X41449Y-44744D01*
X41148Y-44443D01*
X41077Y-44486D01*
X41014Y-44681D01*
X41029Y-44885D01*
X41077Y-45001D01*
X41148Y-45044D01*
X41449Y-44744D01*
X41449Y-44915D01*
X41234Y-45130D01*
X41277Y-45201D01*
X41393Y-45238D01*
X41393Y-45238D01*
X41277Y-45286D01*
X41234Y-45357D01*
X41535Y-45658D01*
X41835Y-45357D01*
X41835Y-45529D01*
X41620Y-45744D01*
X41921Y-46044D01*
X41992Y-46001D01*
X42055Y-45806D01*
X42055Y-46984D01*
X41970Y-46984D01*
X42029Y-46842D01*
X42029Y-46646D01*
X41954Y-46464D01*
X41815Y-46325D01*
X41639Y-46251D01*
X41676Y-46249D01*
X41792Y-46201D01*
X41835Y-46130D01*
X41535Y-45829D01*
X41449Y-45915D01*
X41449Y-45744D01*
X41148Y-45443D01*
X41077Y-45486D01*
X41014Y-45681D01*
X41029Y-45885D01*
X41077Y-46001D01*
X41148Y-46044D01*
X41449Y-45744D01*
X41449Y-45915D01*
X41234Y-46130D01*
X41277Y-46201D01*
X41432Y-46251D01*
X41255Y-46324D01*
X41116Y-46463D01*
X41040Y-46645D01*
X41040Y-46841D01*
X41115Y-47023D01*
X41254Y-47162D01*
X41275Y-47171D01*
X41275Y-47244D01*
X41275Y-47316D01*
X41255Y-47324D01*
X41116Y-47463D01*
X41040Y-47645D01*
X41040Y-47841D01*
X41115Y-48023D01*
X41254Y-48162D01*
X41436Y-48238D01*
X41632Y-48238D01*
X41814Y-48163D01*
X41953Y-48024D01*
X42029Y-47842D01*
X42029Y-47646D01*
X41970Y-47503D01*
X42717Y-47503D01*
X42816Y-47483D01*
X42900Y-47427D01*
X42956Y-47343D01*
X42976Y-47244D01*
X42976Y-44685D01*
X42956Y-44585D01*
X42900Y-44501D01*
X42405Y-44006D01*
X42405Y-42912D01*
X42440Y-42912D01*
X42512Y-42882D01*
X42560Y-42834D01*
X42610Y-42855D01*
X42798Y-42855D01*
X42833Y-42820D01*
X42833Y-42521D01*
X42833Y-42481D01*
X42833Y-42360D01*
X42954Y-42360D01*
X42994Y-42360D01*
X43254Y-42360D01*
X43288Y-42325D01*
X43288Y-42159D01*
X43339Y-42159D01*
X43339Y-53984D01*
X43288Y-53984D01*
X43288Y-42688D01*
X43288Y-42516D01*
X43254Y-42481D01*
X42954Y-42481D01*
X42954Y-42820D01*
X42989Y-42855D01*
X43177Y-42855D01*
X43228Y-42834D01*
X43267Y-42795D01*
X43288Y-42743D01*
X43288Y-42688D01*
X43288Y-53984D01*
X42826Y-53984D01*
X42825Y-53983D01*
X42217Y-53983D01*
X42029Y-54061D01*
X42029Y-49646D01*
X42029Y-48646D01*
X41954Y-48464D01*
X41815Y-48325D01*
X41633Y-48249D01*
X41437Y-48249D01*
X41255Y-48324D01*
X41116Y-48463D01*
X41040Y-48645D01*
X41040Y-48841D01*
X41115Y-49023D01*
X41254Y-49162D01*
X41436Y-49238D01*
X41632Y-49238D01*
X41814Y-49163D01*
X41953Y-49024D01*
X42029Y-48842D01*
X42029Y-48646D01*
X42029Y-49646D01*
X41954Y-49464D01*
X41815Y-49325D01*
X41633Y-49249D01*
X41437Y-49249D01*
X41255Y-49324D01*
X41116Y-49463D01*
X41040Y-49645D01*
X41040Y-49841D01*
X41115Y-50023D01*
X41254Y-50162D01*
X41436Y-50238D01*
X41632Y-50238D01*
X41814Y-50163D01*
X41953Y-50024D01*
X42029Y-49842D01*
X42029Y-49646D01*
X42029Y-54061D01*
X41655Y-54215D01*
X41225Y-54645D01*
X40991Y-55206D01*
X40991Y-55814D01*
X40992Y-55816D01*
X40992Y-56850D01*
X40295Y-56850D01*
X40295Y-56141D01*
X40295Y-38346D01*
X28208Y-38346D01*
X28208Y-43913D01*
X28040Y-43913D01*
X27840Y-43714D01*
X27756Y-43658D01*
X27657Y-43638D01*
X26752Y-43638D01*
X26752Y-42688D01*
X26752Y-42516D01*
X26718Y-42481D01*
X26418Y-42481D01*
X26418Y-42820D01*
X26453Y-42855D01*
X26641Y-42855D01*
X26692Y-42834D01*
X26731Y-42795D01*
X26752Y-42743D01*
X26752Y-42688D01*
X26752Y-43638D01*
X25869Y-43638D01*
X25869Y-42912D01*
X25904Y-42912D01*
X25976Y-42882D01*
X26024Y-42834D01*
X26074Y-42855D01*
X26262Y-42855D01*
X26297Y-42820D01*
X26297Y-42521D01*
X26297Y-42481D01*
X26297Y-42360D01*
X26418Y-42360D01*
X26458Y-42360D01*
X26718Y-42360D01*
X26752Y-42325D01*
X26752Y-42153D01*
X26752Y-42139D01*
X26819Y-42139D01*
X26819Y-41660D01*
X26752Y-41660D01*
X26752Y-41606D01*
X26752Y-41071D01*
X26752Y-41016D01*
X26731Y-40964D01*
X26692Y-40925D01*
X26641Y-40904D01*
X26453Y-40904D01*
X26418Y-40939D01*
X26418Y-41278D01*
X26718Y-41278D01*
X26752Y-41243D01*
X26752Y-41071D01*
X26752Y-41606D01*
X26752Y-41434D01*
X26718Y-41399D01*
X26458Y-41399D01*
X26418Y-41399D01*
X26297Y-41399D01*
X26297Y-41278D01*
X26297Y-41239D01*
X26297Y-40939D01*
X26262Y-40904D01*
X26074Y-40904D01*
X26024Y-40925D01*
X25976Y-40877D01*
X25904Y-40847D01*
X25826Y-40847D01*
X25315Y-40847D01*
X25243Y-40877D01*
X25188Y-40932D01*
X25158Y-41004D01*
X25158Y-41082D01*
X25158Y-41672D01*
X25187Y-41745D01*
X25243Y-41800D01*
X25315Y-41830D01*
X25350Y-41830D01*
X25350Y-41929D01*
X25315Y-41929D01*
X25243Y-41959D01*
X25188Y-42014D01*
X25158Y-42086D01*
X25158Y-42164D01*
X25158Y-42754D01*
X25187Y-42827D01*
X25243Y-42882D01*
X25315Y-42912D01*
X25350Y-42912D01*
X25350Y-43897D01*
X25350Y-47244D01*
X25370Y-47343D01*
X25426Y-47427D01*
X25510Y-47483D01*
X25610Y-47503D01*
X26533Y-47503D01*
X26474Y-47645D01*
X26474Y-47841D01*
X26549Y-48023D01*
X26688Y-48162D01*
X26870Y-48238D01*
X27066Y-48238D01*
X27248Y-48163D01*
X27387Y-48024D01*
X27463Y-47842D01*
X27463Y-47646D01*
X27388Y-47464D01*
X27249Y-47325D01*
X27228Y-47316D01*
X27228Y-47244D01*
X27228Y-47171D01*
X27248Y-47163D01*
X27387Y-47024D01*
X27463Y-46842D01*
X27463Y-46646D01*
X27388Y-46464D01*
X27249Y-46325D01*
X27073Y-46251D01*
X27110Y-46249D01*
X27226Y-46201D01*
X27269Y-46130D01*
X26969Y-45829D01*
X26883Y-45915D01*
X26883Y-45744D01*
X26582Y-45443D01*
X26511Y-45486D01*
X26448Y-45681D01*
X26463Y-45885D01*
X26511Y-46001D01*
X26582Y-46044D01*
X26883Y-45744D01*
X26883Y-45915D01*
X26668Y-46130D01*
X26711Y-46201D01*
X26866Y-46251D01*
X26689Y-46324D01*
X26550Y-46463D01*
X26474Y-46645D01*
X26474Y-46841D01*
X26533Y-46984D01*
X25869Y-46984D01*
X25869Y-44157D01*
X27550Y-44157D01*
X27749Y-44356D01*
X27749Y-44356D01*
X27833Y-44412D01*
X27833Y-44412D01*
X27933Y-44432D01*
X27933Y-44432D01*
X28208Y-44432D01*
X28208Y-56141D01*
X40295Y-56141D01*
X40295Y-56850D01*
X40255Y-56850D01*
X27511Y-56850D01*
X27511Y-55817D01*
X27512Y-55817D01*
X27512Y-55209D01*
X27489Y-55153D01*
X27489Y-45806D01*
X27489Y-44806D01*
X27474Y-44602D01*
X27426Y-44486D01*
X27355Y-44443D01*
X27269Y-44529D01*
X27269Y-44357D01*
X27226Y-44286D01*
X27031Y-44223D01*
X26827Y-44238D01*
X26711Y-44286D01*
X26668Y-44357D01*
X26969Y-44658D01*
X27269Y-44357D01*
X27269Y-44529D01*
X27054Y-44744D01*
X27355Y-45044D01*
X27426Y-45001D01*
X27489Y-44806D01*
X27489Y-45806D01*
X27474Y-45602D01*
X27426Y-45486D01*
X27355Y-45443D01*
X27269Y-45529D01*
X27269Y-45357D01*
X27226Y-45286D01*
X27110Y-45249D01*
X27110Y-45249D01*
X27226Y-45201D01*
X27269Y-45130D01*
X26969Y-44829D01*
X26883Y-44915D01*
X26883Y-44744D01*
X26582Y-44443D01*
X26511Y-44486D01*
X26448Y-44681D01*
X26463Y-44885D01*
X26511Y-45001D01*
X26582Y-45044D01*
X26883Y-44744D01*
X26883Y-44915D01*
X26668Y-45130D01*
X26711Y-45201D01*
X26827Y-45238D01*
X26827Y-45238D01*
X26711Y-45286D01*
X26668Y-45357D01*
X26969Y-45658D01*
X27269Y-45357D01*
X27269Y-45529D01*
X27054Y-45744D01*
X27355Y-46044D01*
X27426Y-46001D01*
X27489Y-45806D01*
X27489Y-55153D01*
X27463Y-55090D01*
X27463Y-49646D01*
X27463Y-48646D01*
X27388Y-48464D01*
X27249Y-48325D01*
X27067Y-48249D01*
X26871Y-48249D01*
X26689Y-48324D01*
X26550Y-48463D01*
X26474Y-48645D01*
X26474Y-48841D01*
X26549Y-49023D01*
X26688Y-49162D01*
X26870Y-49238D01*
X27066Y-49238D01*
X27248Y-49163D01*
X27387Y-49024D01*
X27463Y-48842D01*
X27463Y-48646D01*
X27463Y-49646D01*
X27388Y-49464D01*
X27249Y-49325D01*
X27067Y-49249D01*
X26871Y-49249D01*
X26689Y-49324D01*
X26550Y-49463D01*
X26474Y-49645D01*
X26474Y-49841D01*
X26549Y-50023D01*
X26688Y-50162D01*
X26870Y-50238D01*
X27066Y-50238D01*
X27248Y-50163D01*
X27387Y-50024D01*
X27463Y-49842D01*
X27463Y-49646D01*
X27463Y-55090D01*
X27280Y-54647D01*
X26850Y-54217D01*
X26289Y-53983D01*
X25681Y-53983D01*
X25679Y-53984D01*
X24645Y-53984D01*
X24645Y-40503D01*
X25678Y-40503D01*
X25678Y-40504D01*
X26286Y-40504D01*
X26848Y-40272D01*
X27278Y-39842D01*
X27512Y-39281D01*
X27512Y-38673D01*
X27511Y-38671D01*
X27511Y-37637D01*
X40992Y-37637D01*
X40992Y-38670D01*
X40991Y-38670D01*
X40991Y-39278D01*
X41223Y-39840D01*
X41653Y-40270D01*
X42214Y-40504D01*
X42822Y-40504D01*
X42824Y-40503D01*
X43858Y-40503D01*
X43858Y-53984D01*
X43858Y-53984D01*
G37*
G54D29*
X43858Y-53984D02*
X43339Y-53984D01*
X43339Y-42159D01*
X43339Y-41600D01*
X43288Y-41600D01*
X43288Y-41071D01*
X43288Y-41016D01*
X43267Y-40964D01*
X43228Y-40925D01*
X43177Y-40904D01*
X42989Y-40904D01*
X42954Y-40939D01*
X42954Y-41278D01*
X43254Y-41278D01*
X43288Y-41243D01*
X43288Y-41071D01*
X43288Y-41600D01*
X43288Y-41600D01*
X43288Y-41434D01*
X43254Y-41399D01*
X42994Y-41399D01*
X42954Y-41399D01*
X42833Y-41399D01*
X42833Y-41278D01*
X42833Y-41239D01*
X42833Y-40939D01*
X42798Y-40904D01*
X42610Y-40904D01*
X42560Y-40925D01*
X42512Y-40877D01*
X42440Y-40847D01*
X42362Y-40847D01*
X41851Y-40847D01*
X41779Y-40877D01*
X41724Y-40932D01*
X41694Y-41004D01*
X41694Y-41082D01*
X41694Y-41672D01*
X41723Y-41745D01*
X41779Y-41800D01*
X41851Y-41830D01*
X41886Y-41830D01*
X41886Y-41929D01*
X41851Y-41929D01*
X41779Y-41959D01*
X41724Y-42014D01*
X41694Y-42086D01*
X41694Y-42164D01*
X41694Y-42754D01*
X41723Y-42827D01*
X41779Y-42882D01*
X41851Y-42912D01*
X41886Y-42912D01*
X41886Y-44114D01*
X41906Y-44213D01*
X41962Y-44297D01*
X42457Y-44792D01*
X42457Y-46984D01*
X42055Y-46984D01*
X42055Y-45806D01*
X42055Y-44806D01*
X42040Y-44602D01*
X41992Y-44486D01*
X41921Y-44443D01*
X41835Y-44529D01*
X41835Y-44357D01*
X41792Y-44286D01*
X41597Y-44223D01*
X41393Y-44238D01*
X41277Y-44286D01*
X41234Y-44357D01*
X41535Y-44658D01*
X41835Y-44357D01*
X41835Y-44529D01*
X41620Y-44744D01*
X41921Y-45044D01*
X41992Y-45001D01*
X42055Y-44806D01*
X42055Y-45806D01*
X42040Y-45602D01*
X41992Y-45486D01*
X41921Y-45443D01*
X41835Y-45529D01*
X41835Y-45357D01*
X41792Y-45286D01*
X41676Y-45249D01*
X41676Y-45249D01*
X41792Y-45201D01*
X41835Y-45130D01*
X41535Y-44829D01*
X41449Y-44915D01*
X41449Y-44744D01*
X41148Y-44443D01*
X41077Y-44486D01*
X41014Y-44681D01*
X41029Y-44885D01*
X41077Y-45001D01*
X41148Y-45044D01*
X41449Y-44744D01*
X41449Y-44915D01*
X41234Y-45130D01*
X41277Y-45201D01*
X41393Y-45238D01*
X41393Y-45238D01*
X41277Y-45286D01*
X41234Y-45357D01*
X41535Y-45658D01*
X41835Y-45357D01*
X41835Y-45529D01*
X41620Y-45744D01*
X41921Y-46044D01*
X41992Y-46001D01*
X42055Y-45806D01*
X42055Y-46984D01*
X41970Y-46984D01*
X42029Y-46842D01*
X42029Y-46646D01*
X41954Y-46464D01*
X41815Y-46325D01*
X41639Y-46251D01*
X41676Y-46249D01*
X41792Y-46201D01*
X41835Y-46130D01*
X41535Y-45829D01*
X41449Y-45915D01*
X41449Y-45744D01*
X41148Y-45443D01*
X41077Y-45486D01*
X41014Y-45681D01*
X41029Y-45885D01*
X41077Y-46001D01*
X41148Y-46044D01*
X41449Y-45744D01*
X41449Y-45915D01*
X41234Y-46130D01*
X41277Y-46201D01*
X41432Y-46251D01*
X41255Y-46324D01*
X41116Y-46463D01*
X41040Y-46645D01*
X41040Y-46841D01*
X41115Y-47023D01*
X41254Y-47162D01*
X41275Y-47171D01*
X41275Y-47244D01*
X41275Y-47316D01*
X41255Y-47324D01*
X41116Y-47463D01*
X41040Y-47645D01*
X41040Y-47841D01*
X41115Y-48023D01*
X41254Y-48162D01*
X41436Y-48238D01*
X41632Y-48238D01*
X41814Y-48163D01*
X41953Y-48024D01*
X42029Y-47842D01*
X42029Y-47646D01*
X41970Y-47503D01*
X42717Y-47503D01*
X42816Y-47483D01*
X42900Y-47427D01*
X42956Y-47343D01*
X42976Y-47244D01*
X42976Y-44685D01*
X42956Y-44585D01*
X42900Y-44501D01*
X42405Y-44006D01*
X42405Y-42912D01*
X42440Y-42912D01*
X42512Y-42882D01*
X42560Y-42834D01*
X42610Y-42855D01*
X42798Y-42855D01*
X42833Y-42820D01*
X42833Y-42521D01*
X42833Y-42481D01*
X42833Y-42360D01*
X42954Y-42360D01*
X42994Y-42360D01*
X43254Y-42360D01*
X43288Y-42325D01*
X43288Y-42159D01*
X43339Y-42159D01*
X43339Y-53984D01*
X43288Y-53984D01*
X43288Y-42688D01*
X43288Y-42516D01*
X43254Y-42481D01*
X42954Y-42481D01*
X42954Y-42820D01*
X42989Y-42855D01*
X43177Y-42855D01*
X43228Y-42834D01*
X43267Y-42795D01*
X43288Y-42743D01*
X43288Y-42688D01*
X43288Y-53984D01*
X42826Y-53984D01*
X42825Y-53983D01*
X42217Y-53983D01*
X42029Y-54061D01*
X42029Y-49646D01*
X42029Y-48646D01*
X41954Y-48464D01*
X41815Y-48325D01*
X41633Y-48249D01*
X41437Y-48249D01*
X41255Y-48324D01*
X41116Y-48463D01*
X41040Y-48645D01*
X41040Y-48841D01*
X41115Y-49023D01*
X41254Y-49162D01*
X41436Y-49238D01*
X41632Y-49238D01*
X41814Y-49163D01*
X41953Y-49024D01*
X42029Y-48842D01*
X42029Y-48646D01*
X42029Y-49646D01*
X41954Y-49464D01*
X41815Y-49325D01*
X41633Y-49249D01*
X41437Y-49249D01*
X41255Y-49324D01*
X41116Y-49463D01*
X41040Y-49645D01*
X41040Y-49841D01*
X41115Y-50023D01*
X41254Y-50162D01*
X41436Y-50238D01*
X41632Y-50238D01*
X41814Y-50163D01*
X41953Y-50024D01*
X42029Y-49842D01*
X42029Y-49646D01*
X42029Y-54061D01*
X41655Y-54215D01*
X41225Y-54645D01*
X40991Y-55206D01*
X40991Y-55814D01*
X40992Y-55816D01*
X40992Y-56850D01*
X40295Y-56850D01*
X40295Y-56141D01*
X40295Y-38346D01*
X28208Y-38346D01*
X28208Y-43913D01*
X28040Y-43913D01*
X27840Y-43714D01*
X27756Y-43658D01*
X27657Y-43638D01*
X26752Y-43638D01*
X26752Y-42688D01*
X26752Y-42516D01*
X26718Y-42481D01*
X26418Y-42481D01*
X26418Y-42820D01*
X26453Y-42855D01*
X26641Y-42855D01*
X26692Y-42834D01*
X26731Y-42795D01*
X26752Y-42743D01*
X26752Y-42688D01*
X26752Y-43638D01*
X25869Y-43638D01*
X25869Y-42912D01*
X25904Y-42912D01*
X25976Y-42882D01*
X26024Y-42834D01*
X26074Y-42855D01*
X26262Y-42855D01*
X26297Y-42820D01*
X26297Y-42521D01*
X26297Y-42481D01*
X26297Y-42360D01*
X26418Y-42360D01*
X26458Y-42360D01*
X26718Y-42360D01*
X26752Y-42325D01*
X26752Y-42153D01*
X26752Y-42139D01*
X26819Y-42139D01*
X26819Y-41660D01*
X26752Y-41660D01*
X26752Y-41606D01*
X26752Y-41071D01*
X26752Y-41016D01*
X26731Y-40964D01*
X26692Y-40925D01*
X26641Y-40904D01*
X26453Y-40904D01*
X26418Y-40939D01*
X26418Y-41278D01*
X26718Y-41278D01*
X26752Y-41243D01*
X26752Y-41071D01*
X26752Y-41606D01*
X26752Y-41434D01*
X26718Y-41399D01*
X26458Y-41399D01*
X26418Y-41399D01*
X26297Y-41399D01*
X26297Y-41278D01*
X26297Y-41239D01*
X26297Y-40939D01*
X26262Y-40904D01*
X26074Y-40904D01*
X26024Y-40925D01*
X25976Y-40877D01*
X25904Y-40847D01*
X25826Y-40847D01*
X25315Y-40847D01*
X25243Y-40877D01*
X25188Y-40932D01*
X25158Y-41004D01*
X25158Y-41082D01*
X25158Y-41672D01*
X25187Y-41745D01*
X25243Y-41800D01*
X25315Y-41830D01*
X25350Y-41830D01*
X25350Y-41929D01*
X25315Y-41929D01*
X25243Y-41959D01*
X25188Y-42014D01*
X25158Y-42086D01*
X25158Y-42164D01*
X25158Y-42754D01*
X25187Y-42827D01*
X25243Y-42882D01*
X25315Y-42912D01*
X25350Y-42912D01*
X25350Y-43897D01*
X25350Y-47244D01*
X25370Y-47343D01*
X25426Y-47427D01*
X25510Y-47483D01*
X25610Y-47503D01*
X26533Y-47503D01*
X26474Y-47645D01*
X26474Y-47841D01*
X26549Y-48023D01*
X26688Y-48162D01*
X26870Y-48238D01*
X27066Y-48238D01*
X27248Y-48163D01*
X27387Y-48024D01*
X27463Y-47842D01*
X27463Y-47646D01*
X27388Y-47464D01*
X27249Y-47325D01*
X27228Y-47316D01*
X27228Y-47244D01*
X27228Y-47171D01*
X27248Y-47163D01*
X27387Y-47024D01*
X27463Y-46842D01*
X27463Y-46646D01*
X27388Y-46464D01*
X27249Y-46325D01*
X27073Y-46251D01*
X27110Y-46249D01*
X27226Y-46201D01*
X27269Y-46130D01*
X26969Y-45829D01*
X26883Y-45915D01*
X26883Y-45744D01*
X26582Y-45443D01*
X26511Y-45486D01*
X26448Y-45681D01*
X26463Y-45885D01*
X26511Y-46001D01*
X26582Y-46044D01*
X26883Y-45744D01*
X26883Y-45915D01*
X26668Y-46130D01*
X26711Y-46201D01*
X26866Y-46251D01*
X26689Y-46324D01*
X26550Y-46463D01*
X26474Y-46645D01*
X26474Y-46841D01*
X26533Y-46984D01*
X25869Y-46984D01*
X25869Y-44157D01*
X27550Y-44157D01*
X27749Y-44356D01*
X27749Y-44356D01*
X27833Y-44412D01*
X27833Y-44412D01*
X27933Y-44432D01*
X27933Y-44432D01*
X28208Y-44432D01*
X28208Y-56141D01*
X40295Y-56141D01*
X40295Y-56850D01*
X40255Y-56850D01*
X27511Y-56850D01*
X27511Y-55817D01*
X27512Y-55817D01*
X27512Y-55209D01*
X27489Y-55153D01*
X27489Y-45806D01*
X27489Y-44806D01*
X27474Y-44602D01*
X27426Y-44486D01*
X27355Y-44443D01*
X27269Y-44529D01*
X27269Y-44357D01*
X27226Y-44286D01*
X27031Y-44223D01*
X26827Y-44238D01*
X26711Y-44286D01*
X26668Y-44357D01*
X26969Y-44658D01*
X27269Y-44357D01*
X27269Y-44529D01*
X27054Y-44744D01*
X27355Y-45044D01*
X27426Y-45001D01*
X27489Y-44806D01*
X27489Y-45806D01*
X27474Y-45602D01*
X27426Y-45486D01*
X27355Y-45443D01*
X27269Y-45529D01*
X27269Y-45357D01*
X27226Y-45286D01*
X27110Y-45249D01*
X27110Y-45249D01*
X27226Y-45201D01*
X27269Y-45130D01*
X26969Y-44829D01*
X26883Y-44915D01*
X26883Y-44744D01*
X26582Y-44443D01*
X26511Y-44486D01*
X26448Y-44681D01*
X26463Y-44885D01*
X26511Y-45001D01*
X26582Y-45044D01*
X26883Y-44744D01*
X26883Y-44915D01*
X26668Y-45130D01*
X26711Y-45201D01*
X26827Y-45238D01*
X26827Y-45238D01*
X26711Y-45286D01*
X26668Y-45357D01*
X26969Y-45658D01*
X27269Y-45357D01*
X27269Y-45529D01*
X27054Y-45744D01*
X27355Y-46044D01*
X27426Y-46001D01*
X27489Y-45806D01*
X27489Y-55153D01*
X27463Y-55090D01*
X27463Y-49646D01*
X27463Y-48646D01*
X27388Y-48464D01*
X27249Y-48325D01*
X27067Y-48249D01*
X26871Y-48249D01*
X26689Y-48324D01*
X26550Y-48463D01*
X26474Y-48645D01*
X26474Y-48841D01*
X26549Y-49023D01*
X26688Y-49162D01*
X26870Y-49238D01*
X27066Y-49238D01*
X27248Y-49163D01*
X27387Y-49024D01*
X27463Y-48842D01*
X27463Y-48646D01*
X27463Y-49646D01*
X27388Y-49464D01*
X27249Y-49325D01*
X27067Y-49249D01*
X26871Y-49249D01*
X26689Y-49324D01*
X26550Y-49463D01*
X26474Y-49645D01*
X26474Y-49841D01*
X26549Y-50023D01*
X26688Y-50162D01*
X26870Y-50238D01*
X27066Y-50238D01*
X27248Y-50163D01*
X27387Y-50024D01*
X27463Y-49842D01*
X27463Y-49646D01*
X27463Y-55090D01*
X27280Y-54647D01*
X26850Y-54217D01*
X26289Y-53983D01*
X25681Y-53983D01*
X25679Y-53984D01*
X24645Y-53984D01*
X24645Y-40503D01*
X25678Y-40503D01*
X25678Y-40504D01*
X26286Y-40504D01*
X26848Y-40272D01*
X27278Y-39842D01*
X27512Y-39281D01*
X27512Y-38673D01*
X27511Y-38671D01*
X27511Y-37637D01*
X40992Y-37637D01*
X40992Y-38670D01*
X40991Y-38670D01*
X40991Y-39278D01*
X41223Y-39840D01*
X41653Y-40270D01*
X42214Y-40504D01*
X42822Y-40504D01*
X42824Y-40503D01*
X43858Y-40503D01*
X43858Y-53984D01*
G54D10*
G36*
X29151Y-42947D02*
X29098Y-42969D01*
X29032Y-43035D01*
X28996Y-43122D01*
X28996Y-43216D01*
X28996Y-43727D01*
X29025Y-43796D01*
X28622Y-43796D01*
X28622Y-42795D01*
X29151Y-42795D01*
X29151Y-42947D01*
X29151Y-42947D01*
G37*
G54D30*
X29151Y-42947D02*
X29098Y-42969D01*
X29032Y-43035D01*
X28996Y-43122D01*
X28996Y-43216D01*
X28996Y-43727D01*
X29025Y-43796D01*
X28622Y-43796D01*
X28622Y-42795D01*
X29151Y-42795D01*
X29151Y-42947D01*
G54D10*
G36*
X29151Y-51692D02*
X28622Y-51692D01*
X28622Y-49488D01*
X29151Y-49488D01*
X29151Y-51692D01*
X29151Y-51692D01*
G37*
G54D30*
X29151Y-51692D02*
X28622Y-51692D01*
X28622Y-49488D01*
X29151Y-49488D01*
X29151Y-51692D01*
G54D10*
G36*
X30589Y-42795D02*
X30336Y-43048D01*
X30028Y-43048D01*
X30022Y-43036D01*
X29956Y-42969D01*
X29903Y-42947D01*
X29903Y-42795D01*
X30589Y-42795D01*
X30589Y-42795D01*
G37*
G54D30*
X30589Y-42795D02*
X30336Y-43048D01*
X30028Y-43048D01*
X30022Y-43036D01*
X29956Y-42969D01*
X29903Y-42947D01*
X29903Y-42795D01*
X30589Y-42795D01*
G54D10*
G36*
X32678Y-46242D02*
X32658Y-46291D01*
X32658Y-46424D01*
X32658Y-46867D01*
X30885Y-46867D01*
X30885Y-45000D01*
X28622Y-45000D01*
X28622Y-44549D01*
X29026Y-44549D01*
X29032Y-44562D01*
X29098Y-44628D01*
X29185Y-44664D01*
X29279Y-44664D01*
X29869Y-44664D01*
X29956Y-44629D01*
X30022Y-44562D01*
X30028Y-44549D01*
X30433Y-44549D01*
X30577Y-44520D01*
X30699Y-44439D01*
X30864Y-44273D01*
X31218Y-44273D01*
X31210Y-44292D01*
X31210Y-44386D01*
X31210Y-45469D01*
X31246Y-45556D01*
X31312Y-45623D01*
X31399Y-45659D01*
X31493Y-45659D01*
X31611Y-45659D01*
X31611Y-45669D01*
X31640Y-45813D01*
X31722Y-45935D01*
X31919Y-46132D01*
X31919Y-46132D01*
X32000Y-46186D01*
X32041Y-46213D01*
X32041Y-46213D01*
X32185Y-46242D01*
X32185Y-46242D01*
X32678Y-46242D01*
X32678Y-46242D01*
G37*
G54D30*
X32678Y-46242D02*
X32658Y-46291D01*
X32658Y-46424D01*
X32658Y-46867D01*
X30885Y-46867D01*
X30885Y-45000D01*
X28622Y-45000D01*
X28622Y-44549D01*
X29026Y-44549D01*
X29032Y-44562D01*
X29098Y-44628D01*
X29185Y-44664D01*
X29279Y-44664D01*
X29869Y-44664D01*
X29956Y-44629D01*
X30022Y-44562D01*
X30028Y-44549D01*
X30433Y-44549D01*
X30577Y-44520D01*
X30699Y-44439D01*
X30864Y-44273D01*
X31218Y-44273D01*
X31210Y-44292D01*
X31210Y-44386D01*
X31210Y-45469D01*
X31246Y-45556D01*
X31312Y-45623D01*
X31399Y-45659D01*
X31493Y-45659D01*
X31611Y-45659D01*
X31611Y-45669D01*
X31640Y-45813D01*
X31722Y-45935D01*
X31919Y-46132D01*
X31919Y-46132D01*
X32000Y-46186D01*
X32041Y-46213D01*
X32041Y-46213D01*
X32185Y-46242D01*
X32185Y-46242D01*
X32678Y-46242D01*
G54D10*
G36*
X33150Y-41616D02*
X33150Y-41621D01*
X33150Y-42244D01*
X32732Y-42244D01*
X32730Y-42238D01*
X32663Y-42171D01*
X32576Y-42135D01*
X32482Y-42135D01*
X31399Y-42135D01*
X31380Y-42144D01*
X31380Y-42084D01*
X31848Y-41616D01*
X33150Y-41616D01*
X33150Y-41616D01*
G37*
G54D30*
X33150Y-41616D02*
X33150Y-41621D01*
X33150Y-42244D01*
X32732Y-42244D01*
X32730Y-42238D01*
X32663Y-42171D01*
X32576Y-42135D01*
X32482Y-42135D01*
X31399Y-42135D01*
X31380Y-42144D01*
X31380Y-42084D01*
X31848Y-41616D01*
X33150Y-41616D01*
G54D10*
G36*
X37618Y-39303D02*
X30885Y-39303D01*
X30885Y-38759D01*
X37618Y-38759D01*
X37618Y-39303D01*
X37618Y-39303D01*
G37*
G54D30*
X37618Y-39303D02*
X30885Y-39303D01*
X30885Y-38759D01*
X37618Y-38759D01*
X37618Y-39303D01*
G54D10*
G36*
X37618Y-42221D02*
X37403Y-42221D01*
X37033Y-41850D01*
X36910Y-41769D01*
X36868Y-41761D01*
X36846Y-41707D01*
X36780Y-41641D01*
X36693Y-41605D01*
X36599Y-41605D01*
X36206Y-41605D01*
X36119Y-41641D01*
X36053Y-41707D01*
X36017Y-41794D01*
X36017Y-41888D01*
X36017Y-42221D01*
X35876Y-42221D01*
X35876Y-41405D01*
X35847Y-41261D01*
X35847Y-41261D01*
X35820Y-41221D01*
X35766Y-41139D01*
X35766Y-41139D01*
X35600Y-40974D01*
X35478Y-40892D01*
X35334Y-40863D01*
X31692Y-40863D01*
X31548Y-40892D01*
X31508Y-40919D01*
X31426Y-40974D01*
X30885Y-41515D01*
X30885Y-40056D01*
X37618Y-40056D01*
X37618Y-42221D01*
X37618Y-42221D01*
G37*
G54D30*
X37618Y-42221D02*
X37403Y-42221D01*
X37033Y-41850D01*
X36910Y-41769D01*
X36868Y-41761D01*
X36846Y-41707D01*
X36780Y-41641D01*
X36693Y-41605D01*
X36599Y-41605D01*
X36206Y-41605D01*
X36119Y-41641D01*
X36053Y-41707D01*
X36017Y-41794D01*
X36017Y-41888D01*
X36017Y-42221D01*
X35876Y-42221D01*
X35876Y-41405D01*
X35847Y-41261D01*
X35847Y-41261D01*
X35820Y-41221D01*
X35766Y-41139D01*
X35766Y-41139D01*
X35600Y-40974D01*
X35478Y-40892D01*
X35334Y-40863D01*
X31692Y-40863D01*
X31548Y-40892D01*
X31508Y-40919D01*
X31426Y-40974D01*
X30885Y-41515D01*
X30885Y-40056D01*
X37618Y-40056D01*
X37618Y-42221D01*
G54D10*
G36*
X37618Y-55728D02*
X30885Y-55728D01*
X30885Y-55175D01*
X37618Y-55175D01*
X37618Y-55728D01*
X37618Y-55728D01*
G37*
G54D30*
X37618Y-55728D02*
X30885Y-55728D01*
X30885Y-55175D01*
X37618Y-55175D01*
X37618Y-55728D01*
G54D10*
G36*
X38599Y-45000D02*
X37998Y-45000D01*
X37998Y-42795D01*
X38599Y-42795D01*
X38599Y-45000D01*
X38599Y-45000D01*
G37*
G54D30*
X38599Y-45000D02*
X37998Y-45000D01*
X37998Y-42795D01*
X38599Y-42795D01*
X38599Y-45000D01*
G54D10*
G36*
X38599Y-51692D02*
X37618Y-51692D01*
X37618Y-54422D01*
X30885Y-54422D01*
X30885Y-51692D01*
X29904Y-51692D01*
X29904Y-49488D01*
X30885Y-49488D01*
X30885Y-47620D01*
X32658Y-47620D01*
X32658Y-48196D01*
X32709Y-48319D01*
X32803Y-48413D01*
X32926Y-48464D01*
X33059Y-48464D01*
X34043Y-48464D01*
X34166Y-48413D01*
X34252Y-48328D01*
X34337Y-48413D01*
X34460Y-48464D01*
X34593Y-48464D01*
X35577Y-48464D01*
X35700Y-48413D01*
X35794Y-48319D01*
X35845Y-48196D01*
X35845Y-48063D01*
X35845Y-46291D01*
X35794Y-46168D01*
X35700Y-46074D01*
X35577Y-46023D01*
X35444Y-46023D01*
X35391Y-46023D01*
X35371Y-45922D01*
X35366Y-45898D01*
X35366Y-45898D01*
X35285Y-45776D01*
X35285Y-45776D01*
X35108Y-45600D01*
X34986Y-45518D01*
X34842Y-45489D01*
X32757Y-45489D01*
X32765Y-45470D01*
X32765Y-45376D01*
X32765Y-45278D01*
X37025Y-45278D01*
X37025Y-46510D01*
X36972Y-46532D01*
X36906Y-46598D01*
X36870Y-46685D01*
X36870Y-46779D01*
X36870Y-47290D01*
X36899Y-47362D01*
X36870Y-47433D01*
X36870Y-47527D01*
X36870Y-48038D01*
X36906Y-48125D01*
X36972Y-48191D01*
X37025Y-48213D01*
X37025Y-49744D01*
X37053Y-49888D01*
X37135Y-50010D01*
X37257Y-50091D01*
X37401Y-50120D01*
X37545Y-50091D01*
X37667Y-50010D01*
X37749Y-49888D01*
X37777Y-49744D01*
X37777Y-49488D01*
X38599Y-49488D01*
X38599Y-51692D01*
X38599Y-51692D01*
G37*
G54D30*
X38599Y-51692D02*
X37618Y-51692D01*
X37618Y-54422D01*
X30885Y-54422D01*
X30885Y-51692D01*
X29904Y-51692D01*
X29904Y-49488D01*
X30885Y-49488D01*
X30885Y-47620D01*
X32658Y-47620D01*
X32658Y-48196D01*
X32709Y-48319D01*
X32803Y-48413D01*
X32926Y-48464D01*
X33059Y-48464D01*
X34043Y-48464D01*
X34166Y-48413D01*
X34252Y-48328D01*
X34337Y-48413D01*
X34460Y-48464D01*
X34593Y-48464D01*
X35577Y-48464D01*
X35700Y-48413D01*
X35794Y-48319D01*
X35845Y-48196D01*
X35845Y-48063D01*
X35845Y-46291D01*
X35794Y-46168D01*
X35700Y-46074D01*
X35577Y-46023D01*
X35444Y-46023D01*
X35391Y-46023D01*
X35371Y-45922D01*
X35366Y-45898D01*
X35366Y-45898D01*
X35285Y-45776D01*
X35285Y-45776D01*
X35108Y-45600D01*
X34986Y-45518D01*
X34842Y-45489D01*
X32757Y-45489D01*
X32765Y-45470D01*
X32765Y-45376D01*
X32765Y-45278D01*
X37025Y-45278D01*
X37025Y-46510D01*
X36972Y-46532D01*
X36906Y-46598D01*
X36870Y-46685D01*
X36870Y-46779D01*
X36870Y-47290D01*
X36899Y-47362D01*
X36870Y-47433D01*
X36870Y-47527D01*
X36870Y-48038D01*
X36906Y-48125D01*
X36972Y-48191D01*
X37025Y-48213D01*
X37025Y-49744D01*
X37053Y-49888D01*
X37135Y-50010D01*
X37257Y-50091D01*
X37401Y-50120D01*
X37545Y-50091D01*
X37667Y-50010D01*
X37749Y-49888D01*
X37777Y-49744D01*
X37777Y-49488D01*
X38599Y-49488D01*
X38599Y-51692D01*
G54D10*
G36*
X39881Y-45000D02*
X39352Y-45000D01*
X39352Y-42795D01*
X39881Y-42795D01*
X39881Y-45000D01*
X39881Y-45000D01*
G37*
G54D30*
X39881Y-45000D02*
X39352Y-45000D01*
X39352Y-42795D01*
X39881Y-42795D01*
X39881Y-45000D01*
G54D10*
G36*
X39881Y-51692D02*
X39352Y-51692D01*
X39352Y-49488D01*
X39881Y-49488D01*
X39881Y-51692D01*
X39881Y-51692D01*
G37*
G54D30*
X39881Y-51692D02*
X39352Y-51692D01*
X39352Y-49488D01*
X39881Y-49488D01*
X39881Y-51692D01*
M02*
