%FSLAX34Y34*%
G04 Gerber Fmt 3.4, Leading zero omitted, Abs format*
G04 (created by PCBNEW (2014-03-05 BZR 4734)-product) date Thu 06 Mar 2014 08:16:33 PM CET*
%MOIN*%
G01*
G70*
G90*
G04 APERTURE LIST*
%ADD10C,0.005906*%
%ADD11R,0.027600X0.063000*%
%ADD12R,0.039400X0.086600*%
%ADD13R,0.070900X0.133900*%
%ADD14R,0.025000X0.025000*%
%ADD15R,0.090551X0.060236*%
%ADD16R,0.124016X0.027559*%
%ADD17R,0.090551X0.022835*%
%ADD18R,0.059000X0.051100*%
%ADD19R,0.098400X0.177200*%
%ADD20C,0.065000*%
%ADD21C,0.118110*%
%ADD22R,0.070866X0.070866*%
%ADD23R,0.051100X0.059000*%
%ADD24R,0.039370X0.055118*%
%ADD25R,0.031496X0.039370*%
%ADD26R,0.070900X0.062900*%
G04 APERTURE END LIST*
G54D10*
G54D11*
X33660Y-44645D03*
G54D12*
X34251Y-44527D03*
G54D11*
X34842Y-44645D03*
X34842Y-43149D03*
X33660Y-43149D03*
G54D13*
X34251Y-43503D03*
G54D14*
X34054Y-43936D03*
X34448Y-43936D03*
X34408Y-43621D03*
X34094Y-43621D03*
X34251Y-43818D03*
X34251Y-44015D03*
G54D15*
X29528Y-46995D03*
G54D16*
X29528Y-46578D03*
G54D17*
X29528Y-47677D03*
G54D16*
X29528Y-47905D03*
G54D18*
X38208Y-44665D03*
X38208Y-43917D03*
G54D19*
X35019Y-47244D03*
X33485Y-47244D03*
G54D20*
X26969Y-46744D03*
X26969Y-47744D03*
X26969Y-45744D03*
X26969Y-44744D03*
X26969Y-48744D03*
X26969Y-49744D03*
X41535Y-47744D03*
X41535Y-46744D03*
X41535Y-48744D03*
X41535Y-49744D03*
X41535Y-45744D03*
X41535Y-44744D03*
G54D21*
X42520Y-38976D03*
X25984Y-55512D03*
X42520Y-55512D03*
X25984Y-38976D03*
G54D22*
X32618Y-44527D03*
X32618Y-43188D03*
G54D23*
X33877Y-41929D03*
X34625Y-41929D03*
G54D24*
X36075Y-42983D03*
G54D25*
X36824Y-42983D03*
G54D24*
X36450Y-42116D03*
G54D23*
X42146Y-42421D03*
X42894Y-42421D03*
X42146Y-41339D03*
X42894Y-41339D03*
X25610Y-42421D03*
X26358Y-42421D03*
X25610Y-41339D03*
X26358Y-41339D03*
G54D15*
X29528Y-53688D03*
G54D16*
X29528Y-53271D03*
G54D17*
X29528Y-54370D03*
G54D16*
X29528Y-54598D03*
G54D15*
X38976Y-40799D03*
G54D16*
X38976Y-41216D03*
G54D17*
X38976Y-40117D03*
G54D16*
X38976Y-39889D03*
G54D15*
X38976Y-54185D03*
G54D16*
X38976Y-54602D03*
G54D17*
X38976Y-53503D03*
G54D16*
X38976Y-53275D03*
G54D15*
X38976Y-47492D03*
G54D16*
X38976Y-47909D03*
G54D17*
X38976Y-46810D03*
G54D16*
X38976Y-46582D03*
G54D15*
X29528Y-40302D03*
G54D16*
X29528Y-39885D03*
G54D17*
X29528Y-40984D03*
G54D16*
X29528Y-41212D03*
G54D18*
X36950Y-44674D03*
X36950Y-43926D03*
X35950Y-44674D03*
X35950Y-43926D03*
G54D26*
X28937Y-44417D03*
X28937Y-43299D03*
X30118Y-44417D03*
X30118Y-43299D03*
M02*
