G04 (created by PCBNEW-RS274X (2011-nov-30)-testing) date Mon 12 Nov 2012 04:42:55 PM CET*
%MOIN*%
G04 Gerber Fmt 3.4, Leading zero omitted, Abs format*
%FSLAX34Y34*%
G01*
G70*
G90*
G04 APERTURE LIST*
%ADD10C,0.006*%
%ADD11C,0.015*%
%ADD12C,0.008*%
%ADD13C,0.0001*%
%ADD14C,0.0026*%
%ADD15C,0.004*%
%ADD16C,0.002*%
%ADD17R,0.0276X0.063*%
%ADD18R,0.0394X0.0866*%
%ADD19R,0.0709X0.1339*%
%ADD20R,0.025X0.025*%
%ADD21R,0.063X0.061*%
%ADD22R,0.0256X0.0339*%
%ADD23R,0.0669X0.0339*%
%ADD24C,0.075*%
%ADD25R,0.0984X0.1772*%
%ADD26C,0.16*%
%ADD27R,0.059X0.0511*%
%ADD28R,0.1083X0.1083*%
%ADD29R,0.0511X0.059*%
%ADD30R,0.0629X0.0708*%
%ADD31R,0.0551X0.0393*%
G04 APERTURE END LIST*
G54D10*
G54D11*
X43999Y-55512D02*
X43970Y-55799D01*
X43887Y-56075D01*
X43751Y-56330D01*
X43569Y-56554D01*
X43347Y-56738D01*
X43093Y-56875D01*
X42817Y-56960D01*
X42530Y-56990D01*
X42243Y-56964D01*
X41966Y-56883D01*
X41711Y-56749D01*
X41486Y-56568D01*
X41300Y-56347D01*
X41161Y-56094D01*
X41074Y-55819D01*
X41042Y-55532D01*
X41066Y-55246D01*
X41145Y-54968D01*
X41277Y-54711D01*
X41457Y-54485D01*
X41676Y-54298D01*
X41928Y-54157D01*
X42203Y-54068D01*
X42490Y-54034D01*
X42776Y-54056D01*
X43054Y-54134D01*
X43312Y-54264D01*
X43539Y-54441D01*
X43728Y-54660D01*
X43871Y-54911D01*
X43962Y-55185D01*
X43998Y-55471D01*
X43999Y-55512D01*
X43996Y-38976D02*
X43967Y-39262D01*
X43884Y-39538D01*
X43749Y-39792D01*
X43567Y-40016D01*
X43345Y-40199D01*
X43091Y-40336D01*
X42816Y-40421D01*
X42530Y-40451D01*
X42244Y-40425D01*
X41968Y-40344D01*
X41712Y-40211D01*
X41488Y-40030D01*
X41303Y-39809D01*
X41164Y-39557D01*
X41077Y-39282D01*
X41045Y-38996D01*
X41069Y-38710D01*
X41148Y-38433D01*
X41280Y-38177D01*
X41459Y-37951D01*
X41678Y-37764D01*
X41930Y-37624D01*
X42204Y-37535D01*
X42490Y-37501D01*
X42776Y-37523D01*
X43053Y-37600D01*
X43310Y-37730D01*
X43537Y-37908D01*
X43726Y-38126D01*
X43868Y-38376D01*
X43959Y-38649D01*
X43995Y-38935D01*
X43996Y-38976D01*
X27460Y-55512D02*
X27431Y-55798D01*
X27348Y-56074D01*
X27213Y-56328D01*
X27031Y-56552D01*
X26809Y-56735D01*
X26555Y-56872D01*
X26280Y-56957D01*
X25994Y-56987D01*
X25708Y-56961D01*
X25432Y-56880D01*
X25176Y-56747D01*
X24952Y-56566D01*
X24767Y-56345D01*
X24628Y-56093D01*
X24541Y-55818D01*
X24509Y-55532D01*
X24533Y-55246D01*
X24612Y-54969D01*
X24744Y-54713D01*
X24923Y-54487D01*
X25142Y-54300D01*
X25394Y-54160D01*
X25668Y-54071D01*
X25954Y-54037D01*
X26240Y-54059D01*
X26517Y-54136D01*
X26774Y-54266D01*
X27001Y-54444D01*
X27190Y-54662D01*
X27332Y-54912D01*
X27423Y-55185D01*
X27459Y-55471D01*
X27460Y-55512D01*
X27460Y-38976D02*
X27431Y-39262D01*
X27348Y-39538D01*
X27213Y-39792D01*
X27031Y-40016D01*
X26809Y-40199D01*
X26555Y-40336D01*
X26280Y-40421D01*
X25994Y-40451D01*
X25708Y-40425D01*
X25432Y-40344D01*
X25176Y-40211D01*
X24952Y-40030D01*
X24767Y-39809D01*
X24628Y-39557D01*
X24541Y-39282D01*
X24509Y-38996D01*
X24533Y-38710D01*
X24612Y-38433D01*
X24744Y-38177D01*
X24923Y-37951D01*
X25142Y-37764D01*
X25394Y-37624D01*
X25668Y-37535D01*
X25954Y-37501D01*
X26240Y-37523D01*
X26517Y-37600D01*
X26774Y-37730D01*
X27001Y-37908D01*
X27190Y-38126D01*
X27332Y-38376D01*
X27423Y-38649D01*
X27459Y-38935D01*
X27460Y-38976D01*
G54D12*
X32211Y-38351D02*
X32020Y-38351D01*
X32020Y-37951D01*
X32344Y-38141D02*
X32478Y-38141D01*
X32535Y-38351D02*
X32344Y-38351D01*
X32344Y-37951D01*
X32535Y-37951D01*
X32706Y-38351D02*
X32706Y-37951D01*
X32801Y-37951D01*
X32859Y-37970D01*
X32897Y-38008D01*
X32916Y-38046D01*
X32935Y-38122D01*
X32935Y-38179D01*
X32916Y-38256D01*
X32897Y-38294D01*
X32859Y-38332D01*
X32801Y-38351D01*
X32706Y-38351D01*
X33392Y-38332D02*
X33449Y-38351D01*
X33545Y-38351D01*
X33583Y-38332D01*
X33602Y-38313D01*
X33621Y-38275D01*
X33621Y-38237D01*
X33602Y-38199D01*
X33583Y-38179D01*
X33545Y-38160D01*
X33468Y-38141D01*
X33430Y-38122D01*
X33411Y-38103D01*
X33392Y-38065D01*
X33392Y-38027D01*
X33411Y-37989D01*
X33430Y-37970D01*
X33468Y-37951D01*
X33564Y-37951D01*
X33621Y-37970D01*
X33964Y-38084D02*
X33964Y-38484D01*
X33964Y-38332D02*
X33926Y-38351D01*
X33849Y-38351D01*
X33811Y-38332D01*
X33792Y-38313D01*
X33773Y-38275D01*
X33773Y-38160D01*
X33792Y-38122D01*
X33811Y-38103D01*
X33849Y-38084D01*
X33926Y-38084D01*
X33964Y-38103D01*
X34326Y-38084D02*
X34326Y-38351D01*
X34154Y-38084D02*
X34154Y-38294D01*
X34173Y-38332D01*
X34211Y-38351D01*
X34269Y-38351D01*
X34307Y-38332D01*
X34326Y-38313D01*
X34688Y-38351D02*
X34688Y-38141D01*
X34669Y-38103D01*
X34631Y-38084D01*
X34554Y-38084D01*
X34516Y-38103D01*
X34688Y-38332D02*
X34650Y-38351D01*
X34554Y-38351D01*
X34516Y-38332D01*
X34497Y-38294D01*
X34497Y-38256D01*
X34516Y-38218D01*
X34554Y-38199D01*
X34650Y-38199D01*
X34688Y-38179D01*
X34878Y-38351D02*
X34878Y-38084D01*
X34878Y-38160D02*
X34897Y-38122D01*
X34916Y-38103D01*
X34954Y-38084D01*
X34993Y-38084D01*
X35279Y-38332D02*
X35241Y-38351D01*
X35164Y-38351D01*
X35126Y-38332D01*
X35107Y-38294D01*
X35107Y-38141D01*
X35126Y-38103D01*
X35164Y-38084D01*
X35241Y-38084D01*
X35279Y-38103D01*
X35298Y-38141D01*
X35298Y-38179D01*
X35107Y-38218D01*
X35717Y-37951D02*
X35850Y-38351D01*
X35984Y-37951D01*
X36193Y-37951D02*
X36232Y-37951D01*
X36270Y-37970D01*
X36289Y-37989D01*
X36308Y-38027D01*
X36327Y-38103D01*
X36327Y-38199D01*
X36308Y-38275D01*
X36289Y-38313D01*
X36270Y-38332D01*
X36232Y-38351D01*
X36193Y-38351D01*
X36155Y-38332D01*
X36136Y-38313D01*
X36117Y-38275D01*
X36098Y-38199D01*
X36098Y-38103D01*
X36117Y-38027D01*
X36136Y-37989D01*
X36155Y-37970D01*
X36193Y-37951D01*
X36498Y-38313D02*
X36517Y-38332D01*
X36498Y-38351D01*
X36479Y-38332D01*
X36498Y-38313D01*
X36498Y-38351D01*
X36669Y-37989D02*
X36688Y-37970D01*
X36726Y-37951D01*
X36822Y-37951D01*
X36860Y-37970D01*
X36879Y-37989D01*
X36898Y-38027D01*
X36898Y-38065D01*
X36879Y-38122D01*
X36650Y-38351D01*
X36898Y-38351D01*
X29954Y-56050D02*
X29973Y-56031D01*
X30011Y-56012D01*
X30107Y-56012D01*
X30145Y-56031D01*
X30164Y-56050D01*
X30183Y-56088D01*
X30183Y-56126D01*
X30164Y-56183D01*
X29935Y-56412D01*
X30183Y-56412D01*
X30430Y-56012D02*
X30469Y-56012D01*
X30507Y-56031D01*
X30526Y-56050D01*
X30545Y-56088D01*
X30564Y-56164D01*
X30564Y-56260D01*
X30545Y-56336D01*
X30526Y-56374D01*
X30507Y-56393D01*
X30469Y-56412D01*
X30430Y-56412D01*
X30392Y-56393D01*
X30373Y-56374D01*
X30354Y-56336D01*
X30335Y-56260D01*
X30335Y-56164D01*
X30354Y-56088D01*
X30373Y-56050D01*
X30392Y-56031D01*
X30430Y-56012D01*
X30945Y-56412D02*
X30716Y-56412D01*
X30830Y-56412D02*
X30830Y-56012D01*
X30792Y-56069D01*
X30754Y-56107D01*
X30716Y-56126D01*
X31097Y-56050D02*
X31116Y-56031D01*
X31154Y-56012D01*
X31250Y-56012D01*
X31288Y-56031D01*
X31307Y-56050D01*
X31326Y-56088D01*
X31326Y-56126D01*
X31307Y-56183D01*
X31078Y-56412D01*
X31326Y-56412D01*
X31802Y-56260D02*
X32107Y-56260D01*
X32602Y-56412D02*
X32602Y-56012D01*
X32602Y-56164D02*
X32640Y-56145D01*
X32717Y-56145D01*
X32755Y-56164D01*
X32774Y-56183D01*
X32793Y-56221D01*
X32793Y-56336D01*
X32774Y-56374D01*
X32755Y-56393D01*
X32717Y-56412D01*
X32640Y-56412D01*
X32602Y-56393D01*
X33021Y-56412D02*
X32983Y-56393D01*
X32964Y-56355D01*
X32964Y-56012D01*
X33231Y-56412D02*
X33193Y-56393D01*
X33174Y-56374D01*
X33155Y-56336D01*
X33155Y-56221D01*
X33174Y-56183D01*
X33193Y-56164D01*
X33231Y-56145D01*
X33289Y-56145D01*
X33327Y-56164D01*
X33346Y-56183D01*
X33365Y-56221D01*
X33365Y-56336D01*
X33346Y-56374D01*
X33327Y-56393D01*
X33289Y-56412D01*
X33231Y-56412D01*
X33708Y-56145D02*
X33708Y-56469D01*
X33689Y-56507D01*
X33670Y-56526D01*
X33631Y-56545D01*
X33574Y-56545D01*
X33536Y-56526D01*
X33708Y-56393D02*
X33670Y-56412D01*
X33593Y-56412D01*
X33555Y-56393D01*
X33536Y-56374D01*
X33517Y-56336D01*
X33517Y-56221D01*
X33536Y-56183D01*
X33555Y-56164D01*
X33593Y-56145D01*
X33670Y-56145D01*
X33708Y-56164D01*
X33898Y-56374D02*
X33917Y-56393D01*
X33898Y-56412D01*
X33879Y-56393D01*
X33898Y-56374D01*
X33898Y-56412D01*
X34069Y-56393D02*
X34107Y-56412D01*
X34183Y-56412D01*
X34222Y-56393D01*
X34241Y-56355D01*
X34241Y-56336D01*
X34222Y-56298D01*
X34183Y-56279D01*
X34126Y-56279D01*
X34088Y-56260D01*
X34069Y-56221D01*
X34069Y-56202D01*
X34088Y-56164D01*
X34126Y-56145D01*
X34183Y-56145D01*
X34222Y-56164D01*
X34412Y-56145D02*
X34412Y-56545D01*
X34412Y-56164D02*
X34450Y-56145D01*
X34527Y-56145D01*
X34565Y-56164D01*
X34584Y-56183D01*
X34603Y-56221D01*
X34603Y-56336D01*
X34584Y-56374D01*
X34565Y-56393D01*
X34527Y-56412D01*
X34450Y-56412D01*
X34412Y-56393D01*
X34774Y-56412D02*
X34774Y-56145D01*
X34774Y-56012D02*
X34755Y-56031D01*
X34774Y-56050D01*
X34793Y-56031D01*
X34774Y-56012D01*
X34774Y-56050D01*
X34907Y-56145D02*
X35059Y-56145D01*
X34964Y-56012D02*
X34964Y-56355D01*
X34983Y-56393D01*
X35021Y-56412D01*
X35059Y-56412D01*
X35155Y-56145D02*
X35365Y-56145D01*
X35155Y-56412D01*
X35365Y-56412D01*
X35670Y-56393D02*
X35632Y-56412D01*
X35555Y-56412D01*
X35517Y-56393D01*
X35498Y-56355D01*
X35498Y-56202D01*
X35517Y-56164D01*
X35555Y-56145D01*
X35632Y-56145D01*
X35670Y-56164D01*
X35689Y-56202D01*
X35689Y-56240D01*
X35498Y-56279D01*
X35860Y-56145D02*
X35860Y-56412D01*
X35860Y-56183D02*
X35879Y-56164D01*
X35917Y-56145D01*
X35975Y-56145D01*
X36013Y-56164D01*
X36032Y-56202D01*
X36032Y-56412D01*
X36222Y-56145D02*
X36222Y-56545D01*
X36222Y-56164D02*
X36260Y-56145D01*
X36337Y-56145D01*
X36375Y-56164D01*
X36394Y-56183D01*
X36413Y-56221D01*
X36413Y-56336D01*
X36394Y-56374D01*
X36375Y-56393D01*
X36337Y-56412D01*
X36260Y-56412D01*
X36222Y-56393D01*
X36527Y-56145D02*
X36679Y-56145D01*
X36584Y-56412D02*
X36584Y-56069D01*
X36603Y-56031D01*
X36641Y-56012D01*
X36679Y-56012D01*
X36966Y-56393D02*
X36928Y-56412D01*
X36851Y-56412D01*
X36813Y-56393D01*
X36794Y-56355D01*
X36794Y-56202D01*
X36813Y-56164D01*
X36851Y-56145D01*
X36928Y-56145D01*
X36966Y-56164D01*
X36985Y-56202D01*
X36985Y-56240D01*
X36794Y-56279D01*
X37156Y-56412D02*
X37156Y-56145D01*
X37156Y-56012D02*
X37137Y-56031D01*
X37156Y-56050D01*
X37175Y-56031D01*
X37156Y-56012D01*
X37156Y-56050D01*
X37403Y-56412D02*
X37365Y-56393D01*
X37346Y-56355D01*
X37346Y-56012D01*
X37556Y-56374D02*
X37575Y-56393D01*
X37556Y-56412D01*
X37537Y-56393D01*
X37556Y-56374D01*
X37556Y-56412D01*
X37803Y-56412D02*
X37765Y-56393D01*
X37746Y-56374D01*
X37727Y-56336D01*
X37727Y-56221D01*
X37746Y-56183D01*
X37765Y-56164D01*
X37803Y-56145D01*
X37861Y-56145D01*
X37899Y-56164D01*
X37918Y-56183D01*
X37937Y-56221D01*
X37937Y-56336D01*
X37918Y-56374D01*
X37899Y-56393D01*
X37861Y-56412D01*
X37803Y-56412D01*
X38108Y-56412D02*
X38108Y-56145D01*
X38108Y-56221D02*
X38127Y-56183D01*
X38146Y-56164D01*
X38184Y-56145D01*
X38223Y-56145D01*
X38528Y-56145D02*
X38528Y-56469D01*
X38509Y-56507D01*
X38490Y-56526D01*
X38451Y-56545D01*
X38394Y-56545D01*
X38356Y-56526D01*
X38528Y-56393D02*
X38490Y-56412D01*
X38413Y-56412D01*
X38375Y-56393D01*
X38356Y-56374D01*
X38337Y-56336D01*
X38337Y-56221D01*
X38356Y-56183D01*
X38375Y-56164D01*
X38413Y-56145D01*
X38490Y-56145D01*
X38528Y-56164D01*
G54D11*
X34291Y-42796D02*
X36181Y-42796D01*
X36181Y-42796D02*
X36181Y-45316D01*
X36181Y-45316D02*
X34291Y-45316D01*
X34291Y-45316D02*
X34291Y-42796D01*
G54D13*
G36*
X36576Y-50816D02*
X36575Y-50826D01*
X36569Y-50834D01*
X36560Y-50840D01*
X36541Y-50848D01*
X36512Y-50859D01*
X36475Y-50873D01*
X36432Y-50888D01*
X36383Y-50905D01*
X36339Y-50920D01*
X36297Y-50934D01*
X36261Y-50947D01*
X36231Y-50959D01*
X36208Y-50968D01*
X36195Y-50974D01*
X36193Y-50975D01*
X36183Y-50984D01*
X36182Y-50994D01*
X36185Y-51006D01*
X36192Y-51024D01*
X36200Y-51038D01*
X36207Y-51055D01*
X36204Y-51068D01*
X36190Y-51076D01*
X36177Y-51083D01*
X36172Y-51091D01*
X36172Y-51091D01*
X36167Y-51100D01*
X36156Y-51106D01*
X36145Y-51114D01*
X36141Y-51121D01*
X36136Y-51130D01*
X36123Y-51138D01*
X36106Y-51143D01*
X36091Y-51144D01*
X36088Y-51143D01*
X36074Y-51142D01*
X36063Y-51150D01*
X36054Y-51158D01*
X36046Y-51156D01*
X36036Y-51144D01*
X36027Y-51128D01*
X36017Y-51109D01*
X36007Y-51098D01*
X35995Y-51093D01*
X35978Y-51095D01*
X35952Y-51101D01*
X35951Y-51102D01*
X35928Y-51109D01*
X35897Y-51119D01*
X35861Y-51132D01*
X35821Y-51146D01*
X35781Y-51161D01*
X35741Y-51176D01*
X35704Y-51190D01*
X35671Y-51204D01*
X35645Y-51214D01*
X35628Y-51223D01*
X35623Y-51226D01*
X35611Y-51235D01*
X35602Y-51245D01*
X35595Y-51260D01*
X35590Y-51281D01*
X35585Y-51309D01*
X35581Y-51347D01*
X35581Y-51354D01*
X35575Y-51409D01*
X35568Y-51455D01*
X35560Y-51491D01*
X35551Y-51522D01*
X35539Y-51547D01*
X35538Y-51550D01*
X35517Y-51582D01*
X35495Y-51602D01*
X35471Y-51611D01*
X35443Y-51609D01*
X35411Y-51596D01*
X35408Y-51595D01*
X35385Y-51579D01*
X35362Y-51559D01*
X35337Y-51532D01*
X35309Y-51496D01*
X35280Y-51455D01*
X35252Y-51416D01*
X35229Y-51388D01*
X35209Y-51370D01*
X35191Y-51362D01*
X35176Y-51363D01*
X35162Y-51373D01*
X35152Y-51386D01*
X35135Y-51419D01*
X35135Y-51193D01*
X35131Y-51165D01*
X35121Y-51141D01*
X35106Y-51116D01*
X35084Y-51085D01*
X35055Y-51049D01*
X35022Y-51012D01*
X34985Y-50973D01*
X34948Y-50937D01*
X34943Y-50933D01*
X34903Y-50896D01*
X34871Y-50867D01*
X34844Y-50844D01*
X34821Y-50828D01*
X34802Y-50817D01*
X34784Y-50810D01*
X34767Y-50806D01*
X34748Y-50805D01*
X34744Y-50805D01*
X34715Y-50809D01*
X34687Y-50820D01*
X34663Y-50838D01*
X34643Y-50858D01*
X34629Y-50881D01*
X34624Y-50904D01*
X34628Y-50924D01*
X34638Y-50939D01*
X34651Y-50948D01*
X34669Y-50953D01*
X34696Y-50954D01*
X34721Y-50952D01*
X34750Y-50950D01*
X34777Y-50949D01*
X34799Y-50949D01*
X34804Y-50949D01*
X34850Y-50957D01*
X34893Y-50977D01*
X34933Y-51007D01*
X34969Y-51048D01*
X35001Y-51099D01*
X35029Y-51159D01*
X35039Y-51186D01*
X35050Y-51216D01*
X35060Y-51234D01*
X35072Y-51243D01*
X35086Y-51242D01*
X35106Y-51234D01*
X35115Y-51229D01*
X35130Y-51214D01*
X35135Y-51193D01*
X35135Y-51419D01*
X35135Y-51420D01*
X35126Y-51460D01*
X35126Y-51506D01*
X35135Y-51558D01*
X35153Y-51616D01*
X35180Y-51682D01*
X35191Y-51707D01*
X35204Y-51734D01*
X35215Y-51758D01*
X35223Y-51777D01*
X35227Y-51787D01*
X35229Y-51802D01*
X35225Y-51813D01*
X35213Y-51821D01*
X35194Y-51825D01*
X35165Y-51827D01*
X35126Y-51826D01*
X35082Y-51824D01*
X35036Y-51821D01*
X35002Y-51822D01*
X34978Y-51825D01*
X34962Y-51831D01*
X34958Y-51834D01*
X34955Y-51842D01*
X34951Y-51860D01*
X34947Y-51882D01*
X34944Y-51907D01*
X34941Y-51930D01*
X34940Y-51948D01*
X34941Y-51957D01*
X34948Y-51966D01*
X34954Y-51968D01*
X34973Y-51971D01*
X34983Y-51983D01*
X34984Y-52002D01*
X34976Y-52029D01*
X34975Y-52032D01*
X34969Y-52051D01*
X34967Y-52073D01*
X34969Y-52097D01*
X34974Y-52133D01*
X34985Y-52161D01*
X35002Y-52187D01*
X35011Y-52197D01*
X35029Y-52214D01*
X35049Y-52226D01*
X35072Y-52234D01*
X35104Y-52239D01*
X35113Y-52240D01*
X35137Y-52243D01*
X35158Y-52247D01*
X35171Y-52249D01*
X35173Y-52249D01*
X35182Y-52258D01*
X35189Y-52275D01*
X35194Y-52296D01*
X35194Y-52318D01*
X35193Y-52324D01*
X35189Y-52345D01*
X35101Y-52342D01*
X35045Y-52338D01*
X34999Y-52332D01*
X34962Y-52321D01*
X34932Y-52306D01*
X34907Y-52287D01*
X34887Y-52261D01*
X34877Y-52246D01*
X34864Y-52225D01*
X34851Y-52205D01*
X34844Y-52195D01*
X34829Y-52177D01*
X34818Y-52194D01*
X34810Y-52210D01*
X34804Y-52232D01*
X34802Y-52241D01*
X34798Y-52261D01*
X34793Y-52276D01*
X34790Y-52280D01*
X34778Y-52287D01*
X34765Y-52288D01*
X34757Y-52282D01*
X34755Y-52274D01*
X34754Y-52256D01*
X34753Y-52229D01*
X34752Y-52196D01*
X34751Y-52158D01*
X34751Y-52144D01*
X34750Y-52097D01*
X34751Y-52060D01*
X34752Y-52032D01*
X34754Y-52011D01*
X34758Y-51994D01*
X34764Y-51982D01*
X34773Y-51971D01*
X34783Y-51960D01*
X34785Y-51958D01*
X34807Y-51943D01*
X34823Y-51940D01*
X34835Y-51939D01*
X34840Y-51935D01*
X34841Y-51924D01*
X34841Y-51913D01*
X34839Y-51886D01*
X34835Y-51869D01*
X34828Y-51860D01*
X34817Y-51855D01*
X34816Y-51855D01*
X34796Y-51854D01*
X34768Y-51857D01*
X34734Y-51866D01*
X34698Y-51877D01*
X34662Y-51891D01*
X34629Y-51907D01*
X34606Y-51921D01*
X34579Y-51942D01*
X34559Y-51964D01*
X34544Y-51990D01*
X34534Y-52021D01*
X34528Y-52060D01*
X34525Y-52108D01*
X34524Y-52145D01*
X34524Y-52234D01*
X34553Y-52234D01*
X34572Y-52236D01*
X34586Y-52239D01*
X34589Y-52242D01*
X34596Y-52257D01*
X34598Y-52280D01*
X34595Y-52312D01*
X34589Y-52354D01*
X34587Y-52363D01*
X34579Y-52410D01*
X34574Y-52454D01*
X34574Y-52491D01*
X34577Y-52521D01*
X34582Y-52538D01*
X34592Y-52551D01*
X34608Y-52565D01*
X34619Y-52574D01*
X34651Y-52596D01*
X34672Y-52616D01*
X34684Y-52633D01*
X34687Y-52650D01*
X34682Y-52669D01*
X34679Y-52676D01*
X34670Y-52690D01*
X34661Y-52699D01*
X34650Y-52701D01*
X34633Y-52698D01*
X34607Y-52690D01*
X34605Y-52690D01*
X34580Y-52679D01*
X34552Y-52665D01*
X34522Y-52647D01*
X34493Y-52628D01*
X34467Y-52609D01*
X34447Y-52592D01*
X34433Y-52578D01*
X34430Y-52571D01*
X34429Y-52558D01*
X34431Y-52538D01*
X34435Y-52513D01*
X34436Y-52507D01*
X34442Y-52471D01*
X34444Y-52445D01*
X34442Y-52428D01*
X34434Y-52419D01*
X34429Y-52417D01*
X34418Y-52419D01*
X34407Y-52430D01*
X34396Y-52450D01*
X34384Y-52480D01*
X34375Y-52505D01*
X34367Y-52531D01*
X34360Y-52546D01*
X34354Y-52552D01*
X34350Y-52553D01*
X34339Y-52549D01*
X34336Y-52549D01*
X34330Y-52543D01*
X34327Y-52528D01*
X34328Y-52503D01*
X34331Y-52471D01*
X34333Y-52457D01*
X34340Y-52400D01*
X34340Y-52358D01*
X34340Y-52318D01*
X34347Y-52283D01*
X34361Y-52257D01*
X34381Y-52238D01*
X34403Y-52230D01*
X34427Y-52227D01*
X34427Y-52189D01*
X34427Y-52152D01*
X34370Y-52154D01*
X34317Y-52153D01*
X34275Y-52145D01*
X34241Y-52131D01*
X34231Y-52124D01*
X34216Y-52111D01*
X34196Y-52090D01*
X34171Y-52063D01*
X34143Y-52030D01*
X34112Y-51994D01*
X34082Y-51956D01*
X34052Y-51918D01*
X34023Y-51881D01*
X34014Y-51868D01*
X33984Y-51827D01*
X33960Y-51796D01*
X33942Y-51772D01*
X33927Y-51756D01*
X33916Y-51745D01*
X33907Y-51739D01*
X33899Y-51738D01*
X33898Y-51738D01*
X33889Y-51739D01*
X33869Y-51743D01*
X33841Y-51749D01*
X33807Y-51757D01*
X33767Y-51766D01*
X33724Y-51776D01*
X33680Y-51786D01*
X33635Y-51797D01*
X33593Y-51808D01*
X33554Y-51817D01*
X33520Y-51826D01*
X33493Y-51833D01*
X33490Y-51834D01*
X33457Y-51843D01*
X33427Y-51853D01*
X33398Y-51864D01*
X33370Y-51876D01*
X33342Y-51891D01*
X33311Y-51908D01*
X33277Y-51930D01*
X33239Y-51955D01*
X33195Y-51986D01*
X33144Y-52023D01*
X33084Y-52067D01*
X33080Y-52070D01*
X33030Y-52106D01*
X32987Y-52136D01*
X32948Y-52161D01*
X32912Y-52182D01*
X32875Y-52200D01*
X32837Y-52216D01*
X32794Y-52232D01*
X32762Y-52243D01*
X32694Y-52264D01*
X32632Y-52281D01*
X32576Y-52292D01*
X32521Y-52300D01*
X32464Y-52305D01*
X32463Y-52305D01*
X32421Y-52306D01*
X32388Y-52304D01*
X32362Y-52299D01*
X32341Y-52290D01*
X32322Y-52276D01*
X32313Y-52268D01*
X32303Y-52257D01*
X32296Y-52248D01*
X32293Y-52237D01*
X32291Y-52220D01*
X32289Y-52195D01*
X32289Y-52191D01*
X32287Y-52160D01*
X32283Y-52138D01*
X32278Y-52119D01*
X32269Y-52101D01*
X32237Y-52046D01*
X32196Y-51988D01*
X32147Y-51928D01*
X32146Y-51928D01*
X32119Y-51896D01*
X32099Y-51871D01*
X32088Y-51854D01*
X32084Y-51845D01*
X32085Y-51844D01*
X32091Y-51841D01*
X32105Y-51836D01*
X32111Y-51834D01*
X32126Y-51827D01*
X32136Y-51820D01*
X32137Y-51818D01*
X32134Y-51810D01*
X32125Y-51797D01*
X32111Y-51780D01*
X32110Y-51778D01*
X32084Y-51749D01*
X32063Y-51720D01*
X32043Y-51688D01*
X32022Y-51650D01*
X32011Y-51627D01*
X31995Y-51592D01*
X31985Y-51564D01*
X31982Y-51544D01*
X31985Y-51530D01*
X31995Y-51521D01*
X32005Y-51516D01*
X32019Y-51511D01*
X32026Y-51506D01*
X32027Y-51506D01*
X32022Y-51501D01*
X32010Y-51491D01*
X31993Y-51478D01*
X31992Y-51478D01*
X31963Y-51452D01*
X31946Y-51427D01*
X31935Y-51402D01*
X31929Y-51385D01*
X31930Y-51375D01*
X31934Y-51371D01*
X31942Y-51372D01*
X31959Y-51378D01*
X31985Y-51387D01*
X32017Y-51399D01*
X32055Y-51414D01*
X32096Y-51431D01*
X32109Y-51437D01*
X32253Y-51495D01*
X32405Y-51554D01*
X32569Y-51614D01*
X32649Y-51643D01*
X32744Y-51674D01*
X32836Y-51700D01*
X32924Y-51719D01*
X33006Y-51733D01*
X33082Y-51740D01*
X33151Y-51740D01*
X33208Y-51734D01*
X33227Y-51730D01*
X33256Y-51723D01*
X33294Y-51714D01*
X33338Y-51702D01*
X33388Y-51689D01*
X33440Y-51675D01*
X33494Y-51660D01*
X33548Y-51645D01*
X33600Y-51630D01*
X33649Y-51616D01*
X33693Y-51603D01*
X33730Y-51591D01*
X33749Y-51585D01*
X33805Y-51567D01*
X33770Y-51529D01*
X33698Y-51450D01*
X33639Y-51373D01*
X33590Y-51299D01*
X33554Y-51229D01*
X33531Y-51168D01*
X33521Y-51122D01*
X33516Y-51070D01*
X33517Y-51018D01*
X33525Y-50969D01*
X33530Y-50947D01*
X33545Y-50906D01*
X33564Y-50870D01*
X33587Y-50836D01*
X33615Y-50804D01*
X33651Y-50774D01*
X33696Y-50741D01*
X33749Y-50707D01*
X33792Y-50681D01*
X33837Y-50655D01*
X33875Y-50632D01*
X33906Y-50612D01*
X33935Y-50592D01*
X33963Y-50570D01*
X33994Y-50546D01*
X33998Y-50542D01*
X34026Y-50517D01*
X34056Y-50487D01*
X34085Y-50456D01*
X34113Y-50423D01*
X34138Y-50391D01*
X34159Y-50362D01*
X34175Y-50336D01*
X34184Y-50317D01*
X34186Y-50308D01*
X34182Y-50290D01*
X34170Y-50267D01*
X34154Y-50245D01*
X34140Y-50231D01*
X34117Y-50213D01*
X34092Y-50202D01*
X34062Y-50194D01*
X34053Y-50192D01*
X34046Y-50191D01*
X34039Y-50193D01*
X34031Y-50198D01*
X34021Y-50207D01*
X34006Y-50223D01*
X33985Y-50245D01*
X33966Y-50266D01*
X33937Y-50293D01*
X33911Y-50309D01*
X33885Y-50314D01*
X33858Y-50309D01*
X33829Y-50293D01*
X33826Y-50291D01*
X33782Y-50265D01*
X33741Y-50248D01*
X33705Y-50243D01*
X33704Y-50242D01*
X33681Y-50245D01*
X33659Y-50253D01*
X33637Y-50268D01*
X33613Y-50290D01*
X33585Y-50322D01*
X33569Y-50342D01*
X33538Y-50380D01*
X33513Y-50408D01*
X33490Y-50427D01*
X33470Y-50437D01*
X33449Y-50440D01*
X33426Y-50437D01*
X33400Y-50426D01*
X33384Y-50418D01*
X33351Y-50403D01*
X33326Y-50395D01*
X33308Y-50396D01*
X33295Y-50407D01*
X33285Y-50428D01*
X33279Y-50460D01*
X33278Y-50467D01*
X33271Y-50503D01*
X33263Y-50529D01*
X33253Y-50547D01*
X33240Y-50558D01*
X33239Y-50558D01*
X33228Y-50562D01*
X33208Y-50565D01*
X33181Y-50568D01*
X33156Y-50570D01*
X33124Y-50573D01*
X33100Y-50576D01*
X33081Y-50581D01*
X33063Y-50587D01*
X33049Y-50594D01*
X33021Y-50611D01*
X33000Y-50631D01*
X32985Y-50655D01*
X32977Y-50685D01*
X32975Y-50722D01*
X32979Y-50766D01*
X32989Y-50817D01*
X33005Y-50879D01*
X33008Y-50886D01*
X33018Y-50924D01*
X33027Y-50959D01*
X33033Y-50989D01*
X33036Y-51012D01*
X33037Y-51017D01*
X33034Y-51049D01*
X33025Y-51071D01*
X33009Y-51084D01*
X32988Y-51086D01*
X32964Y-51078D01*
X32927Y-51063D01*
X32888Y-51052D01*
X32851Y-51047D01*
X32844Y-51047D01*
X32808Y-51051D01*
X32774Y-51062D01*
X32741Y-51082D01*
X32708Y-51112D01*
X32674Y-51151D01*
X32639Y-51202D01*
X32637Y-51204D01*
X32616Y-51236D01*
X32594Y-51269D01*
X32574Y-51301D01*
X32557Y-51326D01*
X32521Y-51376D01*
X32485Y-51416D01*
X32449Y-51444D01*
X32411Y-51464D01*
X32370Y-51474D01*
X32353Y-51476D01*
X32302Y-51473D01*
X32249Y-51460D01*
X32197Y-51437D01*
X32147Y-51404D01*
X32101Y-51363D01*
X32100Y-51362D01*
X32053Y-51311D01*
X32015Y-51266D01*
X31987Y-51226D01*
X31969Y-51196D01*
X31957Y-51170D01*
X31952Y-51149D01*
X31953Y-51133D01*
X31962Y-51120D01*
X31979Y-51109D01*
X32006Y-51101D01*
X32044Y-51093D01*
X32090Y-51086D01*
X32134Y-51079D01*
X32167Y-51071D01*
X32194Y-51059D01*
X32215Y-51044D01*
X32233Y-51025D01*
X32237Y-51020D01*
X32258Y-50987D01*
X32277Y-50948D01*
X32293Y-50901D01*
X32308Y-50845D01*
X32321Y-50781D01*
X32333Y-50704D01*
X32336Y-50688D01*
X32345Y-50622D01*
X32353Y-50567D01*
X32360Y-50521D01*
X32366Y-50484D01*
X32372Y-50454D01*
X32378Y-50430D01*
X32384Y-50411D01*
X32390Y-50395D01*
X32391Y-50393D01*
X32401Y-50373D01*
X32411Y-50358D01*
X32418Y-50351D01*
X32438Y-50346D01*
X32461Y-50350D01*
X32487Y-50364D01*
X32517Y-50389D01*
X32522Y-50393D01*
X32538Y-50408D01*
X32551Y-50416D01*
X32564Y-50420D01*
X32582Y-50421D01*
X32590Y-50421D01*
X32614Y-50420D01*
X32633Y-50415D01*
X32653Y-50405D01*
X32657Y-50403D01*
X32689Y-50377D01*
X32719Y-50341D01*
X32747Y-50293D01*
X32774Y-50235D01*
X32799Y-50165D01*
X32823Y-50084D01*
X32835Y-50037D01*
X32844Y-49999D01*
X32854Y-49956D01*
X32864Y-49912D01*
X32872Y-49879D01*
X32882Y-49838D01*
X32891Y-49806D01*
X32900Y-49782D01*
X32911Y-49763D01*
X32923Y-49746D01*
X32940Y-49730D01*
X32947Y-49723D01*
X32983Y-49695D01*
X33014Y-49675D01*
X33042Y-49664D01*
X33068Y-49661D01*
X33089Y-49663D01*
X33108Y-49669D01*
X33127Y-49681D01*
X33148Y-49701D01*
X33171Y-49725D01*
X33195Y-49751D01*
X33217Y-49768D01*
X33237Y-49776D01*
X33259Y-49777D01*
X33286Y-49770D01*
X33320Y-49755D01*
X33328Y-49752D01*
X33383Y-49731D01*
X33439Y-49723D01*
X33496Y-49727D01*
X33508Y-49729D01*
X33539Y-49737D01*
X33569Y-49746D01*
X33601Y-49760D01*
X33636Y-49778D01*
X33679Y-49802D01*
X33686Y-49806D01*
X33732Y-49832D01*
X33771Y-49852D01*
X33804Y-49866D01*
X33836Y-49876D01*
X33867Y-49881D01*
X33895Y-49884D01*
X33923Y-49885D01*
X33946Y-49884D01*
X33969Y-49881D01*
X33996Y-49876D01*
X34025Y-49868D01*
X34056Y-49861D01*
X34084Y-49854D01*
X34107Y-49849D01*
X34121Y-49846D01*
X34145Y-49845D01*
X34177Y-49847D01*
X34214Y-49853D01*
X34252Y-49861D01*
X34291Y-49870D01*
X34324Y-49881D01*
X34350Y-49892D01*
X34365Y-49902D01*
X34385Y-49918D01*
X34406Y-49937D01*
X34418Y-49949D01*
X34438Y-49969D01*
X34452Y-49983D01*
X34463Y-49990D01*
X34474Y-49993D01*
X34485Y-49994D01*
X34489Y-49994D01*
X34509Y-49993D01*
X34529Y-49989D01*
X34552Y-49981D01*
X34579Y-49968D01*
X34613Y-49950D01*
X34632Y-49940D01*
X34672Y-49919D01*
X34704Y-49905D01*
X34730Y-49898D01*
X34732Y-49897D01*
X34753Y-49893D01*
X34770Y-49889D01*
X34777Y-49886D01*
X34782Y-49882D01*
X34778Y-49878D01*
X34769Y-49876D01*
X34740Y-49868D01*
X34719Y-49860D01*
X34702Y-49848D01*
X34691Y-49838D01*
X34676Y-49822D01*
X34661Y-49801D01*
X34648Y-49780D01*
X34638Y-49762D01*
X34633Y-49749D01*
X34633Y-49747D01*
X34636Y-49744D01*
X34646Y-49743D01*
X34664Y-49742D01*
X34692Y-49742D01*
X34719Y-49744D01*
X34806Y-49747D01*
X34857Y-49721D01*
X34882Y-49708D01*
X34895Y-49699D01*
X34898Y-49692D01*
X34889Y-49688D01*
X34869Y-49686D01*
X34844Y-49686D01*
X34784Y-49681D01*
X34729Y-49666D01*
X34703Y-49655D01*
X34677Y-49641D01*
X34655Y-49625D01*
X34640Y-49608D01*
X34632Y-49593D01*
X34633Y-49583D01*
X34637Y-49577D01*
X34643Y-49573D01*
X34654Y-49570D01*
X34670Y-49567D01*
X34693Y-49565D01*
X34724Y-49563D01*
X34765Y-49562D01*
X34789Y-49561D01*
X34836Y-49559D01*
X34872Y-49558D01*
X34899Y-49556D01*
X34918Y-49554D01*
X34931Y-49552D01*
X34940Y-49548D01*
X34945Y-49542D01*
X34949Y-49536D01*
X34952Y-49530D01*
X34965Y-49490D01*
X34975Y-49442D01*
X34983Y-49387D01*
X34987Y-49330D01*
X34987Y-49274D01*
X34984Y-49237D01*
X34978Y-49178D01*
X34969Y-49129D01*
X34957Y-49085D01*
X34940Y-49045D01*
X34919Y-49004D01*
X34891Y-48960D01*
X34890Y-48958D01*
X34873Y-48932D01*
X34860Y-48910D01*
X34851Y-48893D01*
X34847Y-48883D01*
X34848Y-48882D01*
X34852Y-48880D01*
X34863Y-48882D01*
X34881Y-48889D01*
X34904Y-48899D01*
X34975Y-48936D01*
X35038Y-48977D01*
X35096Y-49023D01*
X35148Y-49076D01*
X35195Y-49136D01*
X35238Y-49204D01*
X35278Y-49282D01*
X35315Y-49369D01*
X35350Y-49465D01*
X35370Y-49525D01*
X35425Y-49524D01*
X35468Y-49521D01*
X35517Y-49513D01*
X35554Y-49505D01*
X35595Y-49495D01*
X35625Y-49488D01*
X35647Y-49484D01*
X35662Y-49482D01*
X35672Y-49482D01*
X35679Y-49484D01*
X35681Y-49485D01*
X35686Y-49490D01*
X35685Y-49498D01*
X35678Y-49512D01*
X35678Y-49513D01*
X35660Y-49537D01*
X35631Y-49561D01*
X35593Y-49586D01*
X35547Y-49610D01*
X35495Y-49633D01*
X35478Y-49640D01*
X35446Y-49651D01*
X35425Y-49660D01*
X35413Y-49667D01*
X35408Y-49673D01*
X35411Y-49680D01*
X35420Y-49690D01*
X35432Y-49702D01*
X35450Y-49720D01*
X35459Y-49735D01*
X35463Y-49748D01*
X35463Y-49751D01*
X35459Y-49768D01*
X35448Y-49783D01*
X35435Y-49793D01*
X35429Y-49794D01*
X35420Y-49797D01*
X35419Y-49807D01*
X35428Y-49823D01*
X35441Y-49841D01*
X35471Y-49887D01*
X35493Y-49934D01*
X35503Y-49981D01*
X35504Y-49986D01*
X35505Y-50007D01*
X35504Y-50019D01*
X35500Y-50026D01*
X35492Y-50031D01*
X35491Y-50031D01*
X35479Y-50035D01*
X35468Y-50032D01*
X35457Y-50021D01*
X35445Y-50000D01*
X35438Y-49987D01*
X35428Y-49969D01*
X35420Y-49955D01*
X35415Y-49949D01*
X35409Y-49951D01*
X35399Y-49962D01*
X35389Y-49976D01*
X35379Y-49991D01*
X35373Y-50005D01*
X35372Y-50010D01*
X35368Y-50020D01*
X35358Y-50020D01*
X35347Y-50013D01*
X35325Y-50000D01*
X35307Y-49997D01*
X35297Y-50003D01*
X35288Y-50020D01*
X35289Y-50040D01*
X35299Y-50061D01*
X35305Y-50068D01*
X35317Y-50079D01*
X35325Y-50082D01*
X35333Y-50079D01*
X35337Y-50076D01*
X35354Y-50068D01*
X35366Y-50069D01*
X35372Y-50078D01*
X35369Y-50094D01*
X35362Y-50109D01*
X35357Y-50120D01*
X35356Y-50128D01*
X35360Y-50140D01*
X35368Y-50155D01*
X35380Y-50185D01*
X35383Y-50213D01*
X35378Y-50238D01*
X35365Y-50257D01*
X35345Y-50269D01*
X35325Y-50273D01*
X35311Y-50270D01*
X35297Y-50260D01*
X35280Y-50242D01*
X35261Y-50216D01*
X35237Y-50179D01*
X35236Y-50178D01*
X35216Y-50146D01*
X35198Y-50124D01*
X35180Y-50108D01*
X35173Y-50103D01*
X35143Y-50086D01*
X35116Y-50080D01*
X35090Y-50085D01*
X35065Y-50101D01*
X35039Y-50129D01*
X35029Y-50142D01*
X35005Y-50176D01*
X34991Y-50204D01*
X34985Y-50226D01*
X34988Y-50245D01*
X34999Y-50260D01*
X35000Y-50261D01*
X35021Y-50288D01*
X35036Y-50322D01*
X35043Y-50360D01*
X35043Y-50398D01*
X35039Y-50420D01*
X35036Y-50434D01*
X35036Y-50448D01*
X35038Y-50463D01*
X35045Y-50485D01*
X35048Y-50491D01*
X35074Y-50551D01*
X35107Y-50601D01*
X35147Y-50642D01*
X35184Y-50668D01*
X35205Y-50678D01*
X35237Y-50689D01*
X35279Y-50702D01*
X35331Y-50717D01*
X35392Y-50733D01*
X35460Y-50750D01*
X35536Y-50767D01*
X35618Y-50785D01*
X35620Y-50786D01*
X35672Y-50796D01*
X35694Y-50838D01*
X35707Y-50862D01*
X35718Y-50878D01*
X35729Y-50888D01*
X35744Y-50891D01*
X35763Y-50888D01*
X35791Y-50882D01*
X35809Y-50877D01*
X35885Y-50861D01*
X35942Y-50855D01*
X35970Y-50854D01*
X35991Y-50853D01*
X36007Y-50855D01*
X36022Y-50859D01*
X36040Y-50867D01*
X36055Y-50874D01*
X36078Y-50884D01*
X36099Y-50891D01*
X36115Y-50895D01*
X36118Y-50896D01*
X36127Y-50894D01*
X36146Y-50889D01*
X36174Y-50881D01*
X36209Y-50871D01*
X36250Y-50858D01*
X36295Y-50844D01*
X36337Y-50831D01*
X36394Y-50813D01*
X36441Y-50798D01*
X36478Y-50787D01*
X36506Y-50780D01*
X36527Y-50775D01*
X36541Y-50773D01*
X36549Y-50773D01*
X36552Y-50773D01*
X36561Y-50783D01*
X36569Y-50798D01*
X36571Y-50801D01*
X36576Y-50816D01*
X36576Y-50816D01*
X36576Y-50816D01*
G37*
G36*
X33588Y-41141D02*
X33600Y-41135D01*
X33625Y-41119D01*
X33662Y-41095D01*
X33705Y-41066D01*
X33749Y-41036D01*
X33784Y-41012D01*
X33809Y-40996D01*
X33820Y-40991D01*
X33825Y-40993D01*
X33846Y-41003D01*
X33876Y-41018D01*
X33893Y-41027D01*
X33921Y-41039D01*
X33934Y-41041D01*
X33937Y-41038D01*
X33947Y-41017D01*
X33962Y-40981D01*
X33983Y-40933D01*
X34007Y-40878D01*
X34032Y-40818D01*
X34058Y-40757D01*
X34082Y-40698D01*
X34103Y-40646D01*
X34120Y-40603D01*
X34132Y-40574D01*
X34136Y-40561D01*
X34135Y-40558D01*
X34121Y-40545D01*
X34097Y-40527D01*
X34045Y-40485D01*
X33994Y-40421D01*
X33963Y-40348D01*
X33952Y-40268D01*
X33961Y-40193D01*
X33991Y-40121D01*
X34041Y-40057D01*
X34101Y-40009D01*
X34172Y-39978D01*
X34252Y-39969D01*
X34328Y-39977D01*
X34401Y-40006D01*
X34466Y-40055D01*
X34493Y-40087D01*
X34531Y-40152D01*
X34552Y-40222D01*
X34555Y-40240D01*
X34551Y-40317D01*
X34529Y-40390D01*
X34488Y-40456D01*
X34432Y-40510D01*
X34425Y-40516D01*
X34398Y-40535D01*
X34381Y-40549D01*
X34367Y-40560D01*
X34465Y-40796D01*
X34481Y-40833D01*
X34508Y-40898D01*
X34531Y-40953D01*
X34550Y-40997D01*
X34563Y-41027D01*
X34569Y-41039D01*
X34570Y-41039D01*
X34578Y-41041D01*
X34596Y-41034D01*
X34629Y-41018D01*
X34651Y-41007D01*
X34676Y-40995D01*
X34687Y-40991D01*
X34697Y-40996D01*
X34721Y-41011D01*
X34756Y-41035D01*
X34798Y-41064D01*
X34838Y-41091D01*
X34875Y-41115D01*
X34902Y-41132D01*
X34915Y-41139D01*
X34917Y-41139D01*
X34929Y-41133D01*
X34950Y-41115D01*
X34982Y-41085D01*
X35028Y-41040D01*
X35035Y-41033D01*
X35072Y-40995D01*
X35102Y-40963D01*
X35123Y-40941D01*
X35130Y-40930D01*
X35130Y-40930D01*
X35123Y-40917D01*
X35106Y-40891D01*
X35082Y-40853D01*
X35052Y-40809D01*
X34974Y-40696D01*
X35017Y-40589D01*
X35030Y-40556D01*
X35047Y-40516D01*
X35059Y-40488D01*
X35065Y-40475D01*
X35077Y-40471D01*
X35106Y-40464D01*
X35149Y-40455D01*
X35200Y-40446D01*
X35248Y-40437D01*
X35291Y-40429D01*
X35323Y-40423D01*
X35337Y-40420D01*
X35341Y-40418D01*
X35343Y-40411D01*
X35345Y-40396D01*
X35346Y-40370D01*
X35347Y-40328D01*
X35347Y-40268D01*
X35347Y-40261D01*
X35346Y-40203D01*
X35345Y-40158D01*
X35344Y-40128D01*
X35342Y-40116D01*
X35342Y-40116D01*
X35328Y-40113D01*
X35297Y-40106D01*
X35254Y-40098D01*
X35202Y-40088D01*
X35198Y-40087D01*
X35147Y-40077D01*
X35103Y-40068D01*
X35073Y-40061D01*
X35060Y-40057D01*
X35057Y-40053D01*
X35047Y-40033D01*
X35032Y-40001D01*
X35015Y-39962D01*
X34998Y-39921D01*
X34983Y-39885D01*
X34973Y-39857D01*
X34970Y-39845D01*
X34971Y-39845D01*
X34978Y-39832D01*
X34996Y-39805D01*
X35021Y-39768D01*
X35052Y-39724D01*
X35054Y-39721D01*
X35084Y-39677D01*
X35108Y-39640D01*
X35124Y-39613D01*
X35130Y-39601D01*
X35130Y-39601D01*
X35120Y-39588D01*
X35098Y-39563D01*
X35066Y-39529D01*
X35027Y-39491D01*
X35015Y-39479D01*
X34973Y-39437D01*
X34943Y-39410D01*
X34925Y-39395D01*
X34916Y-39392D01*
X34915Y-39392D01*
X34902Y-39400D01*
X34875Y-39418D01*
X34837Y-39444D01*
X34793Y-39474D01*
X34790Y-39476D01*
X34746Y-39506D01*
X34709Y-39531D01*
X34683Y-39548D01*
X34672Y-39555D01*
X34670Y-39555D01*
X34652Y-39549D01*
X34621Y-39538D01*
X34583Y-39524D01*
X34542Y-39507D01*
X34506Y-39492D01*
X34478Y-39479D01*
X34465Y-39472D01*
X34465Y-39471D01*
X34460Y-39456D01*
X34452Y-39423D01*
X34443Y-39378D01*
X34433Y-39324D01*
X34431Y-39315D01*
X34421Y-39263D01*
X34413Y-39220D01*
X34407Y-39190D01*
X34404Y-39178D01*
X34396Y-39176D01*
X34371Y-39174D01*
X34332Y-39173D01*
X34285Y-39173D01*
X34236Y-39173D01*
X34187Y-39174D01*
X34146Y-39176D01*
X34116Y-39178D01*
X34104Y-39180D01*
X34104Y-39181D01*
X34099Y-39197D01*
X34092Y-39230D01*
X34083Y-39275D01*
X34072Y-39329D01*
X34070Y-39339D01*
X34061Y-39391D01*
X34052Y-39433D01*
X34046Y-39463D01*
X34042Y-39474D01*
X34038Y-39477D01*
X34016Y-39486D01*
X33981Y-39501D01*
X33938Y-39518D01*
X33838Y-39559D01*
X33715Y-39474D01*
X33703Y-39467D01*
X33659Y-39437D01*
X33623Y-39412D01*
X33598Y-39396D01*
X33587Y-39390D01*
X33586Y-39391D01*
X33574Y-39401D01*
X33550Y-39424D01*
X33516Y-39457D01*
X33478Y-39495D01*
X33449Y-39524D01*
X33415Y-39558D01*
X33394Y-39581D01*
X33382Y-39596D01*
X33378Y-39605D01*
X33379Y-39611D01*
X33387Y-39624D01*
X33405Y-39651D01*
X33430Y-39688D01*
X33460Y-39732D01*
X33485Y-39768D01*
X33511Y-39809D01*
X33529Y-39839D01*
X33535Y-39853D01*
X33533Y-39859D01*
X33525Y-39883D01*
X33510Y-39920D01*
X33492Y-39963D01*
X33449Y-40060D01*
X33385Y-40073D01*
X33346Y-40080D01*
X33292Y-40090D01*
X33241Y-40100D01*
X33160Y-40116D01*
X33157Y-40412D01*
X33169Y-40418D01*
X33181Y-40421D01*
X33211Y-40428D01*
X33254Y-40436D01*
X33304Y-40446D01*
X33347Y-40454D01*
X33391Y-40462D01*
X33422Y-40468D01*
X33436Y-40471D01*
X33439Y-40475D01*
X33450Y-40496D01*
X33465Y-40530D01*
X33482Y-40570D01*
X33500Y-40611D01*
X33515Y-40650D01*
X33526Y-40679D01*
X33530Y-40694D01*
X33524Y-40705D01*
X33507Y-40731D01*
X33483Y-40767D01*
X33454Y-40810D01*
X33425Y-40853D01*
X33400Y-40890D01*
X33383Y-40916D01*
X33375Y-40928D01*
X33379Y-40937D01*
X33396Y-40957D01*
X33429Y-40991D01*
X33477Y-41039D01*
X33485Y-41046D01*
X33523Y-41083D01*
X33556Y-41113D01*
X33578Y-41133D01*
X33588Y-41141D01*
X33588Y-41141D01*
G37*
G36*
X34622Y-54794D02*
X34646Y-54791D01*
X34669Y-54783D01*
X34679Y-54778D01*
X34700Y-54764D01*
X34717Y-54746D01*
X34729Y-54725D01*
X34738Y-54702D01*
X34741Y-54679D01*
X34741Y-54655D01*
X34735Y-54631D01*
X34724Y-54607D01*
X34717Y-54598D01*
X34706Y-54586D01*
X34695Y-54576D01*
X34685Y-54568D01*
X34681Y-54566D01*
X34660Y-54556D01*
X34638Y-54551D01*
X34614Y-54550D01*
X34606Y-54550D01*
X34592Y-54552D01*
X34580Y-54555D01*
X34567Y-54561D01*
X34553Y-54568D01*
X34533Y-54584D01*
X34517Y-54604D01*
X34505Y-54626D01*
X34502Y-54637D01*
X34498Y-54649D01*
X34497Y-54658D01*
X34497Y-54659D01*
X34497Y-54660D01*
X34496Y-54655D01*
X34496Y-54654D01*
X34492Y-54638D01*
X34486Y-54622D01*
X34479Y-54608D01*
X34465Y-54590D01*
X34446Y-54573D01*
X34425Y-54560D01*
X34401Y-54552D01*
X34375Y-54549D01*
X34368Y-54550D01*
X34349Y-54552D01*
X34330Y-54557D01*
X34327Y-54559D01*
X34306Y-54570D01*
X34288Y-54585D01*
X34272Y-54604D01*
X34261Y-54624D01*
X34254Y-54646D01*
X34254Y-54647D01*
X34253Y-54653D01*
X34252Y-54655D01*
X34252Y-54655D01*
X34251Y-54652D01*
X34250Y-54646D01*
X34249Y-54644D01*
X34242Y-54622D01*
X34230Y-54602D01*
X34214Y-54583D01*
X34200Y-54571D01*
X34179Y-54559D01*
X34155Y-54552D01*
X34129Y-54549D01*
X34111Y-54551D01*
X34087Y-54557D01*
X34064Y-54568D01*
X34045Y-54584D01*
X34029Y-54603D01*
X34027Y-54606D01*
X34021Y-54615D01*
X34017Y-54623D01*
X34015Y-54628D01*
X34012Y-54639D01*
X34009Y-54650D01*
X34008Y-54658D01*
X34008Y-54659D01*
X34007Y-54659D01*
X34007Y-54654D01*
X34004Y-54641D01*
X33998Y-54624D01*
X33990Y-54609D01*
X33976Y-54589D01*
X33957Y-54572D01*
X33935Y-54560D01*
X33911Y-54552D01*
X33886Y-54549D01*
X33863Y-54551D01*
X33839Y-54558D01*
X33817Y-54570D01*
X33797Y-54587D01*
X33788Y-54597D01*
X33778Y-54611D01*
X33771Y-54626D01*
X33767Y-54639D01*
X33763Y-54664D01*
X33763Y-54688D01*
X33769Y-54711D01*
X33778Y-54732D01*
X33792Y-54751D01*
X33808Y-54768D01*
X33828Y-54780D01*
X33851Y-54789D01*
X33876Y-54794D01*
X33878Y-54794D01*
X33903Y-54793D01*
X33926Y-54787D01*
X33949Y-54776D01*
X33957Y-54771D01*
X33973Y-54757D01*
X33987Y-54739D01*
X33997Y-54721D01*
X34000Y-54714D01*
X34003Y-54703D01*
X34006Y-54693D01*
X34007Y-54685D01*
X34007Y-54680D01*
X34008Y-54685D01*
X34008Y-54688D01*
X34011Y-54700D01*
X34014Y-54712D01*
X34018Y-54722D01*
X34024Y-54733D01*
X34039Y-54753D01*
X34058Y-54770D01*
X34079Y-54783D01*
X34104Y-54792D01*
X34108Y-54792D01*
X34125Y-54794D01*
X34142Y-54793D01*
X34158Y-54791D01*
X34175Y-54786D01*
X34198Y-54774D01*
X34218Y-54757D01*
X34219Y-54756D01*
X34233Y-54738D01*
X34244Y-54718D01*
X34250Y-54697D01*
X34250Y-54696D01*
X34252Y-54690D01*
X34252Y-54688D01*
X34252Y-54689D01*
X34253Y-54695D01*
X34254Y-54696D01*
X34257Y-54709D01*
X34263Y-54723D01*
X34270Y-54736D01*
X34281Y-54751D01*
X34299Y-54769D01*
X34321Y-54782D01*
X34345Y-54791D01*
X34349Y-54792D01*
X34366Y-54794D01*
X34384Y-54794D01*
X34399Y-54792D01*
X34413Y-54788D01*
X34436Y-54777D01*
X34456Y-54762D01*
X34473Y-54744D01*
X34486Y-54722D01*
X34489Y-54715D01*
X34492Y-54704D01*
X34495Y-54693D01*
X34496Y-54685D01*
X34496Y-54684D01*
X34496Y-54683D01*
X34497Y-54688D01*
X34497Y-54689D01*
X34501Y-54705D01*
X34507Y-54721D01*
X34514Y-54735D01*
X34518Y-54740D01*
X34533Y-54759D01*
X34553Y-54774D01*
X34574Y-54786D01*
X34597Y-54792D01*
X34622Y-54794D01*
X34622Y-54794D01*
G37*
G36*
X33632Y-54549D02*
X33647Y-54549D01*
X33661Y-54547D01*
X33678Y-54543D01*
X33701Y-54533D01*
X33721Y-54518D01*
X33738Y-54500D01*
X33751Y-54479D01*
X33759Y-54456D01*
X33762Y-54431D01*
X33761Y-54406D01*
X33754Y-54382D01*
X33743Y-54361D01*
X33728Y-54341D01*
X33708Y-54325D01*
X33702Y-54321D01*
X33678Y-54310D01*
X33654Y-54305D01*
X33628Y-54304D01*
X33603Y-54310D01*
X33583Y-54318D01*
X33562Y-54332D01*
X33544Y-54350D01*
X33530Y-54372D01*
X33521Y-54397D01*
X33519Y-54409D01*
X33518Y-54425D01*
X33518Y-54440D01*
X33520Y-54454D01*
X33521Y-54458D01*
X33531Y-54483D01*
X33545Y-54505D01*
X33564Y-54523D01*
X33586Y-54537D01*
X33597Y-54541D01*
X33611Y-54546D01*
X33624Y-54548D01*
X33632Y-54549D01*
X33632Y-54549D01*
G37*
G36*
X34867Y-54549D02*
X34892Y-54546D01*
X34916Y-54537D01*
X34939Y-54523D01*
X34944Y-54520D01*
X34961Y-54502D01*
X34974Y-54481D01*
X34983Y-54457D01*
X34985Y-54444D01*
X34986Y-54428D01*
X34986Y-54413D01*
X34984Y-54400D01*
X34982Y-54394D01*
X34973Y-54370D01*
X34958Y-54349D01*
X34941Y-54331D01*
X34920Y-54317D01*
X34896Y-54308D01*
X34871Y-54304D01*
X34861Y-54304D01*
X34837Y-54307D01*
X34814Y-54315D01*
X34793Y-54327D01*
X34775Y-54342D01*
X34760Y-54361D01*
X34750Y-54383D01*
X34743Y-54407D01*
X34742Y-54432D01*
X34743Y-54447D01*
X34746Y-54460D01*
X34751Y-54475D01*
X34761Y-54493D01*
X34777Y-54513D01*
X34796Y-54528D01*
X34818Y-54540D01*
X34842Y-54547D01*
X34867Y-54549D01*
X34867Y-54549D01*
G37*
G36*
X33388Y-54303D02*
X33405Y-54303D01*
X33421Y-54302D01*
X33438Y-54296D01*
X33461Y-54285D01*
X33481Y-54268D01*
X33494Y-54253D01*
X33507Y-54232D01*
X33515Y-54208D01*
X33516Y-54198D01*
X33517Y-54184D01*
X33517Y-54169D01*
X33515Y-54156D01*
X33513Y-54149D01*
X33503Y-54125D01*
X33489Y-54103D01*
X33471Y-54086D01*
X33449Y-54072D01*
X33441Y-54068D01*
X33425Y-54063D01*
X33409Y-54060D01*
X33390Y-54060D01*
X33379Y-54060D01*
X33366Y-54062D01*
X33354Y-54066D01*
X33340Y-54072D01*
X33332Y-54076D01*
X33312Y-54091D01*
X33295Y-54110D01*
X33282Y-54132D01*
X33274Y-54157D01*
X33274Y-54163D01*
X33273Y-54178D01*
X33273Y-54193D01*
X33275Y-54206D01*
X33277Y-54214D01*
X33286Y-54238D01*
X33300Y-54260D01*
X33318Y-54277D01*
X33340Y-54291D01*
X33365Y-54300D01*
X33372Y-54302D01*
X33388Y-54303D01*
X33388Y-54303D01*
G37*
G36*
X34371Y-54304D02*
X34396Y-54302D01*
X34419Y-54296D01*
X34432Y-54289D01*
X34453Y-54275D01*
X34471Y-54257D01*
X34484Y-54235D01*
X34493Y-54211D01*
X34494Y-54206D01*
X34497Y-54186D01*
X34496Y-54167D01*
X34491Y-54146D01*
X34481Y-54122D01*
X34467Y-54102D01*
X34449Y-54084D01*
X34427Y-54071D01*
X34402Y-54062D01*
X34386Y-54058D01*
X34394Y-54057D01*
X34396Y-54057D01*
X34414Y-54052D01*
X34432Y-54044D01*
X34449Y-54033D01*
X34452Y-54031D01*
X34470Y-54013D01*
X34483Y-53992D01*
X34492Y-53970D01*
X34496Y-53946D01*
X34496Y-53922D01*
X34490Y-53898D01*
X34480Y-53875D01*
X34479Y-53874D01*
X34464Y-53854D01*
X34445Y-53838D01*
X34425Y-53826D01*
X34402Y-53818D01*
X34379Y-53815D01*
X34355Y-53816D01*
X34332Y-53822D01*
X34310Y-53833D01*
X34290Y-53848D01*
X34279Y-53860D01*
X34267Y-53878D01*
X34258Y-53897D01*
X34253Y-53915D01*
X34253Y-53920D01*
X34252Y-53922D01*
X34252Y-53921D01*
X34251Y-53915D01*
X34246Y-53899D01*
X34239Y-53881D01*
X34229Y-53865D01*
X34223Y-53857D01*
X34204Y-53840D01*
X34183Y-53827D01*
X34159Y-53818D01*
X34135Y-53815D01*
X34109Y-53817D01*
X34094Y-53820D01*
X34071Y-53830D01*
X34050Y-53845D01*
X34033Y-53863D01*
X34020Y-53884D01*
X34011Y-53908D01*
X34009Y-53920D01*
X34008Y-53945D01*
X34012Y-53969D01*
X34021Y-53992D01*
X34034Y-54013D01*
X34052Y-54031D01*
X34074Y-54045D01*
X34084Y-54050D01*
X34095Y-54054D01*
X34106Y-54057D01*
X34113Y-54058D01*
X34114Y-54058D01*
X34114Y-54059D01*
X34109Y-54060D01*
X34097Y-54064D01*
X34080Y-54070D01*
X34066Y-54077D01*
X34059Y-54082D01*
X34042Y-54096D01*
X34028Y-54114D01*
X34017Y-54132D01*
X34011Y-54152D01*
X34008Y-54174D01*
X34008Y-54196D01*
X34009Y-54200D01*
X34016Y-54225D01*
X34027Y-54248D01*
X34044Y-54268D01*
X34057Y-54280D01*
X34079Y-54293D01*
X34103Y-54302D01*
X34113Y-54303D01*
X34126Y-54303D01*
X34140Y-54303D01*
X34153Y-54302D01*
X34163Y-54300D01*
X34171Y-54297D01*
X34195Y-54285D01*
X34215Y-54269D01*
X34232Y-54249D01*
X34238Y-54240D01*
X34245Y-54223D01*
X34250Y-54207D01*
X34250Y-54206D01*
X34252Y-54200D01*
X34252Y-54198D01*
X34252Y-54198D01*
X34252Y-54165D01*
X34252Y-54165D01*
X34251Y-54162D01*
X34250Y-54156D01*
X34250Y-54155D01*
X34242Y-54133D01*
X34231Y-54112D01*
X34215Y-54094D01*
X34196Y-54078D01*
X34176Y-54068D01*
X34174Y-54067D01*
X34163Y-54064D01*
X34153Y-54061D01*
X34142Y-54059D01*
X34153Y-54057D01*
X34167Y-54053D01*
X34189Y-54044D01*
X34209Y-54030D01*
X34226Y-54012D01*
X34239Y-53992D01*
X34244Y-53982D01*
X34248Y-53969D01*
X34251Y-53959D01*
X34251Y-53954D01*
X34252Y-53952D01*
X34252Y-53953D01*
X34253Y-53959D01*
X34255Y-53968D01*
X34260Y-53980D01*
X34265Y-53992D01*
X34272Y-54005D01*
X34288Y-54024D01*
X34307Y-54039D01*
X34329Y-54050D01*
X34352Y-54057D01*
X34362Y-54059D01*
X34351Y-54061D01*
X34350Y-54061D01*
X34339Y-54064D01*
X34329Y-54068D01*
X34326Y-54069D01*
X34306Y-54080D01*
X34287Y-54095D01*
X34272Y-54114D01*
X34261Y-54134D01*
X34254Y-54156D01*
X34254Y-54157D01*
X34253Y-54163D01*
X34252Y-54165D01*
X34252Y-54198D01*
X34252Y-54198D01*
X34253Y-54201D01*
X34254Y-54207D01*
X34258Y-54223D01*
X34269Y-54245D01*
X34284Y-54264D01*
X34302Y-54281D01*
X34323Y-54293D01*
X34323Y-54293D01*
X34346Y-54301D01*
X34371Y-54304D01*
X34371Y-54304D01*
G37*
G36*
X35100Y-54303D02*
X35120Y-54303D01*
X35138Y-54301D01*
X35150Y-54297D01*
X35173Y-54286D01*
X35193Y-54271D01*
X35209Y-54253D01*
X35221Y-54231D01*
X35229Y-54207D01*
X35232Y-54182D01*
X35231Y-54171D01*
X35227Y-54146D01*
X35217Y-54123D01*
X35201Y-54101D01*
X35197Y-54096D01*
X35180Y-54081D01*
X35159Y-54070D01*
X35138Y-54062D01*
X35137Y-54062D01*
X35119Y-54060D01*
X35099Y-54060D01*
X35081Y-54062D01*
X35074Y-54064D01*
X35051Y-54074D01*
X35030Y-54088D01*
X35014Y-54105D01*
X35000Y-54125D01*
X34991Y-54147D01*
X34987Y-54171D01*
X34987Y-54195D01*
X34993Y-54220D01*
X35001Y-54239D01*
X35015Y-54260D01*
X35033Y-54278D01*
X35055Y-54291D01*
X35078Y-54300D01*
X35081Y-54301D01*
X35100Y-54303D01*
X35100Y-54303D01*
G37*
G36*
X33889Y-53570D02*
X33913Y-53567D01*
X33937Y-53559D01*
X33948Y-53553D01*
X33959Y-53545D01*
X33970Y-53535D01*
X33983Y-53521D01*
X33996Y-53501D01*
X34004Y-53477D01*
X34005Y-53470D01*
X34007Y-53454D01*
X34007Y-53437D01*
X34005Y-53421D01*
X33999Y-53401D01*
X33987Y-53380D01*
X33972Y-53361D01*
X33970Y-53359D01*
X33958Y-53350D01*
X33945Y-53341D01*
X33933Y-53334D01*
X33929Y-53333D01*
X33919Y-53330D01*
X33909Y-53327D01*
X33901Y-53326D01*
X33897Y-53326D01*
X33902Y-53324D01*
X33908Y-53323D01*
X33915Y-53321D01*
X33924Y-53319D01*
X33943Y-53310D01*
X33961Y-53299D01*
X33975Y-53285D01*
X33978Y-53283D01*
X33992Y-53261D01*
X34002Y-53238D01*
X34007Y-53214D01*
X34007Y-53189D01*
X34006Y-53183D01*
X33999Y-53158D01*
X33988Y-53136D01*
X33971Y-53116D01*
X33956Y-53103D01*
X33935Y-53090D01*
X33911Y-53082D01*
X33906Y-53081D01*
X33890Y-53080D01*
X33872Y-53081D01*
X33857Y-53083D01*
X33843Y-53087D01*
X33820Y-53098D01*
X33801Y-53113D01*
X33785Y-53132D01*
X33772Y-53153D01*
X33765Y-53177D01*
X33765Y-53180D01*
X33763Y-53185D01*
X33762Y-53187D01*
X33761Y-53185D01*
X33761Y-53180D01*
X33758Y-53170D01*
X33754Y-53159D01*
X33750Y-53149D01*
X33746Y-53142D01*
X33731Y-53120D01*
X33712Y-53103D01*
X33691Y-53091D01*
X33667Y-53083D01*
X33641Y-53080D01*
X33621Y-53081D01*
X33597Y-53087D01*
X33576Y-53098D01*
X33563Y-53107D01*
X33545Y-53125D01*
X33532Y-53145D01*
X33522Y-53168D01*
X33518Y-53192D01*
X33518Y-53217D01*
X33523Y-53240D01*
X33534Y-53263D01*
X33548Y-53284D01*
X33567Y-53301D01*
X33589Y-53314D01*
X33614Y-53322D01*
X33628Y-53326D01*
X33620Y-53326D01*
X33615Y-53327D01*
X33595Y-53333D01*
X33576Y-53343D01*
X33558Y-53356D01*
X33544Y-53371D01*
X33535Y-53384D01*
X33527Y-53401D01*
X33521Y-53417D01*
X33519Y-53430D01*
X33518Y-53446D01*
X33518Y-53462D01*
X33520Y-53474D01*
X33524Y-53489D01*
X33536Y-53512D01*
X33551Y-53532D01*
X33571Y-53549D01*
X33594Y-53561D01*
X33619Y-53568D01*
X33626Y-53569D01*
X33641Y-53570D01*
X33657Y-53569D01*
X33670Y-53566D01*
X33681Y-53563D01*
X33703Y-53552D01*
X33724Y-53537D01*
X33740Y-53518D01*
X33752Y-53496D01*
X33760Y-53472D01*
X33761Y-53470D01*
X33762Y-53465D01*
X33763Y-53465D01*
X33763Y-53431D01*
X33762Y-53430D01*
X33760Y-53425D01*
X33760Y-53424D01*
X33756Y-53408D01*
X33748Y-53390D01*
X33738Y-53374D01*
X33731Y-53365D01*
X33712Y-53348D01*
X33689Y-53335D01*
X33665Y-53327D01*
X33653Y-53325D01*
X33661Y-53323D01*
X33668Y-53322D01*
X33677Y-53319D01*
X33681Y-53318D01*
X33704Y-53307D01*
X33723Y-53292D01*
X33740Y-53273D01*
X33752Y-53252D01*
X33760Y-53229D01*
X33761Y-53222D01*
X33762Y-53219D01*
X33764Y-53221D01*
X33765Y-53229D01*
X33765Y-53229D01*
X33769Y-53242D01*
X33775Y-53257D01*
X33783Y-53270D01*
X33789Y-53278D01*
X33800Y-53290D01*
X33812Y-53301D01*
X33824Y-53309D01*
X33825Y-53309D01*
X33844Y-53318D01*
X33864Y-53323D01*
X33872Y-53325D01*
X33862Y-53327D01*
X33841Y-53333D01*
X33819Y-53344D01*
X33799Y-53360D01*
X33784Y-53378D01*
X33780Y-53385D01*
X33774Y-53396D01*
X33769Y-53409D01*
X33765Y-53420D01*
X33764Y-53428D01*
X33764Y-53428D01*
X33763Y-53431D01*
X33763Y-53465D01*
X33763Y-53465D01*
X33764Y-53471D01*
X33766Y-53477D01*
X33768Y-53485D01*
X33773Y-53498D01*
X33785Y-53519D01*
X33801Y-53537D01*
X33821Y-53552D01*
X33842Y-53562D01*
X33865Y-53568D01*
X33889Y-53570D01*
X33889Y-53570D01*
G37*
G36*
X34625Y-53570D02*
X34650Y-53566D01*
X34672Y-53558D01*
X34693Y-53545D01*
X34711Y-53528D01*
X34725Y-53508D01*
X34736Y-53485D01*
X34738Y-53477D01*
X34740Y-53471D01*
X34740Y-53469D01*
X34741Y-53464D01*
X34741Y-53464D01*
X34741Y-53430D01*
X34740Y-53427D01*
X34738Y-53418D01*
X34734Y-53404D01*
X34723Y-53382D01*
X34708Y-53363D01*
X34689Y-53347D01*
X34668Y-53335D01*
X34644Y-53327D01*
X34632Y-53325D01*
X34640Y-53323D01*
X34641Y-53323D01*
X34661Y-53317D01*
X34680Y-53309D01*
X34688Y-53304D01*
X34700Y-53294D01*
X34712Y-53282D01*
X34721Y-53270D01*
X34728Y-53259D01*
X34734Y-53244D01*
X34739Y-53229D01*
X34740Y-53222D01*
X34741Y-53219D01*
X34743Y-53221D01*
X34744Y-53228D01*
X34749Y-53244D01*
X34760Y-53267D01*
X34776Y-53287D01*
X34795Y-53303D01*
X34817Y-53316D01*
X34843Y-53323D01*
X34851Y-53325D01*
X34839Y-53327D01*
X34828Y-53330D01*
X34804Y-53340D01*
X34783Y-53355D01*
X34766Y-53374D01*
X34761Y-53381D01*
X34754Y-53392D01*
X34749Y-53406D01*
X34746Y-53414D01*
X34744Y-53424D01*
X34744Y-53424D01*
X34742Y-53429D01*
X34741Y-53430D01*
X34741Y-53464D01*
X34742Y-53465D01*
X34744Y-53471D01*
X34746Y-53480D01*
X34753Y-53498D01*
X34762Y-53516D01*
X34769Y-53525D01*
X34788Y-53543D01*
X34809Y-53557D01*
X34834Y-53566D01*
X34845Y-53568D01*
X34862Y-53570D01*
X34879Y-53569D01*
X34894Y-53566D01*
X34896Y-53566D01*
X34920Y-53556D01*
X34942Y-53542D01*
X34960Y-53524D01*
X34974Y-53502D01*
X34983Y-53477D01*
X34985Y-53466D01*
X34986Y-53450D01*
X34986Y-53432D01*
X34983Y-53417D01*
X34979Y-53404D01*
X34970Y-53387D01*
X34960Y-53371D01*
X34949Y-53359D01*
X34934Y-53347D01*
X34919Y-53338D01*
X34913Y-53335D01*
X34901Y-53330D01*
X34889Y-53327D01*
X34880Y-53326D01*
X34880Y-53326D01*
X34883Y-53324D01*
X34890Y-53322D01*
X34904Y-53318D01*
X34920Y-53311D01*
X34933Y-53304D01*
X34936Y-53302D01*
X34952Y-53287D01*
X34966Y-53270D01*
X34977Y-53252D01*
X34980Y-53243D01*
X34986Y-53218D01*
X34986Y-53193D01*
X34982Y-53168D01*
X34980Y-53163D01*
X34970Y-53140D01*
X34955Y-53120D01*
X34936Y-53104D01*
X34914Y-53091D01*
X34890Y-53082D01*
X34887Y-53082D01*
X34870Y-53080D01*
X34852Y-53081D01*
X34836Y-53083D01*
X34832Y-53084D01*
X34808Y-53094D01*
X34786Y-53108D01*
X34768Y-53126D01*
X34754Y-53149D01*
X34751Y-53156D01*
X34747Y-53167D01*
X34744Y-53177D01*
X34743Y-53185D01*
X34743Y-53186D01*
X34742Y-53187D01*
X34741Y-53184D01*
X34739Y-53177D01*
X34734Y-53160D01*
X34724Y-53139D01*
X34709Y-53120D01*
X34691Y-53103D01*
X34669Y-53091D01*
X34669Y-53090D01*
X34647Y-53083D01*
X34622Y-53080D01*
X34597Y-53082D01*
X34574Y-53088D01*
X34561Y-53095D01*
X34540Y-53109D01*
X34522Y-53127D01*
X34509Y-53149D01*
X34500Y-53173D01*
X34499Y-53178D01*
X34496Y-53198D01*
X34497Y-53217D01*
X34502Y-53239D01*
X34512Y-53263D01*
X34527Y-53283D01*
X34546Y-53300D01*
X34568Y-53314D01*
X34593Y-53322D01*
X34598Y-53324D01*
X34603Y-53325D01*
X34603Y-53326D01*
X34595Y-53327D01*
X34581Y-53331D01*
X34566Y-53337D01*
X34552Y-53345D01*
X34538Y-53356D01*
X34521Y-53374D01*
X34507Y-53397D01*
X34506Y-53401D01*
X34499Y-53425D01*
X34497Y-53450D01*
X34499Y-53475D01*
X34508Y-53498D01*
X34513Y-53509D01*
X34521Y-53521D01*
X34531Y-53532D01*
X34532Y-53533D01*
X34552Y-53550D01*
X34573Y-53561D01*
X34598Y-53568D01*
X34601Y-53569D01*
X34625Y-53570D01*
X34625Y-53570D01*
G37*
G36*
X43725Y-53546D02*
X43721Y-53546D01*
X43713Y-53540D01*
X43699Y-53528D01*
X43680Y-53510D01*
X43675Y-53505D01*
X43647Y-53477D01*
X43622Y-53457D01*
X43602Y-53440D01*
X43579Y-53428D01*
X43556Y-53416D01*
X43554Y-53416D01*
X43496Y-53396D01*
X43437Y-53386D01*
X43378Y-53385D01*
X43319Y-53395D01*
X43259Y-53416D01*
X43199Y-53445D01*
X43139Y-53483D01*
X43098Y-53512D01*
X43086Y-53464D01*
X43078Y-53430D01*
X43070Y-53404D01*
X43061Y-53380D01*
X43049Y-53358D01*
X43035Y-53331D01*
X43032Y-53327D01*
X43014Y-53300D01*
X42996Y-53276D01*
X42972Y-53250D01*
X42967Y-53246D01*
X42933Y-53214D01*
X42900Y-53189D01*
X42864Y-53169D01*
X42822Y-53151D01*
X42811Y-53148D01*
X42784Y-53139D01*
X42762Y-53133D01*
X42741Y-53130D01*
X42716Y-53129D01*
X42694Y-53128D01*
X42665Y-53129D01*
X42641Y-53130D01*
X42620Y-53133D01*
X42599Y-53139D01*
X42581Y-53145D01*
X42555Y-53156D01*
X42527Y-53169D01*
X42502Y-53181D01*
X42493Y-53186D01*
X42476Y-53196D01*
X42462Y-53204D01*
X42453Y-53209D01*
X42451Y-53209D01*
X42448Y-53206D01*
X42444Y-53194D01*
X42440Y-53177D01*
X42440Y-53174D01*
X42425Y-53118D01*
X42403Y-53066D01*
X42374Y-53020D01*
X42340Y-52981D01*
X42300Y-52950D01*
X42256Y-52926D01*
X42238Y-52920D01*
X42203Y-52911D01*
X42163Y-52910D01*
X42124Y-52913D01*
X42094Y-52920D01*
X42068Y-52929D01*
X42046Y-52938D01*
X42026Y-52951D01*
X42006Y-52966D01*
X41983Y-52987D01*
X41961Y-53008D01*
X41939Y-53030D01*
X41922Y-53045D01*
X41912Y-53052D01*
X41910Y-53052D01*
X41913Y-53046D01*
X41920Y-53035D01*
X41937Y-53002D01*
X41949Y-52964D01*
X41955Y-52926D01*
X41953Y-52888D01*
X41947Y-52863D01*
X41940Y-52845D01*
X41932Y-52832D01*
X41921Y-52817D01*
X41908Y-52804D01*
X41878Y-52778D01*
X41845Y-52761D01*
X41807Y-52750D01*
X41792Y-52747D01*
X41758Y-52743D01*
X41757Y-52710D01*
X41751Y-52670D01*
X41739Y-52635D01*
X41720Y-52604D01*
X41692Y-52571D01*
X41660Y-52547D01*
X41626Y-52531D01*
X41591Y-52525D01*
X41579Y-52525D01*
X41563Y-52526D01*
X41550Y-52530D01*
X41533Y-52535D01*
X41514Y-52544D01*
X41488Y-52557D01*
X41480Y-52561D01*
X41463Y-52570D01*
X41447Y-52577D01*
X41437Y-52580D01*
X41435Y-52580D01*
X41432Y-52579D01*
X41437Y-52576D01*
X41444Y-52571D01*
X41457Y-52561D01*
X41473Y-52547D01*
X41492Y-52531D01*
X41536Y-52486D01*
X41571Y-52440D01*
X41596Y-52396D01*
X41611Y-52351D01*
X41617Y-52307D01*
X41611Y-52263D01*
X41606Y-52242D01*
X41584Y-52194D01*
X41555Y-52150D01*
X41518Y-52112D01*
X41473Y-52081D01*
X41422Y-52057D01*
X41366Y-52040D01*
X41355Y-52037D01*
X41334Y-52034D01*
X41316Y-52032D01*
X41305Y-52032D01*
X41294Y-52032D01*
X41288Y-52030D01*
X41289Y-52025D01*
X41294Y-52014D01*
X41304Y-52001D01*
X41331Y-51951D01*
X41350Y-51897D01*
X41362Y-51839D01*
X41364Y-51780D01*
X41360Y-51719D01*
X41347Y-51661D01*
X41326Y-51603D01*
X41311Y-51574D01*
X41300Y-51556D01*
X41289Y-51540D01*
X41275Y-51523D01*
X41256Y-51504D01*
X41244Y-51492D01*
X41224Y-51471D01*
X41207Y-51456D01*
X41193Y-51445D01*
X41178Y-51436D01*
X41161Y-51426D01*
X41160Y-51426D01*
X41119Y-51409D01*
X41076Y-51395D01*
X41034Y-51388D01*
X41024Y-51386D01*
X41008Y-51384D01*
X41001Y-51381D01*
X41001Y-51378D01*
X41006Y-51372D01*
X41016Y-51361D01*
X41029Y-51344D01*
X41038Y-51335D01*
X41081Y-51280D01*
X41114Y-51223D01*
X41137Y-51163D01*
X41151Y-51100D01*
X41155Y-51038D01*
X41154Y-51007D01*
X41150Y-50980D01*
X41143Y-50953D01*
X41138Y-50937D01*
X41127Y-50907D01*
X41116Y-50883D01*
X41104Y-50862D01*
X41089Y-50841D01*
X41070Y-50819D01*
X41045Y-50793D01*
X41036Y-50784D01*
X41017Y-50765D01*
X41002Y-50749D01*
X40990Y-50737D01*
X40985Y-50730D01*
X40984Y-50728D01*
X40990Y-50728D01*
X41004Y-50729D01*
X41024Y-50731D01*
X41050Y-50734D01*
X41078Y-50737D01*
X41106Y-50741D01*
X41135Y-50745D01*
X41161Y-50749D01*
X41174Y-50751D01*
X41274Y-50772D01*
X41365Y-50798D01*
X41449Y-50830D01*
X41525Y-50866D01*
X41593Y-50907D01*
X41642Y-50944D01*
X41688Y-50989D01*
X41727Y-51040D01*
X41760Y-51098D01*
X41787Y-51160D01*
X41797Y-51193D01*
X41807Y-51226D01*
X41816Y-51260D01*
X41823Y-51296D01*
X41829Y-51334D01*
X41835Y-51377D01*
X41840Y-51425D01*
X41844Y-51479D01*
X41847Y-51540D01*
X41851Y-51610D01*
X41853Y-51672D01*
X41856Y-51747D01*
X41859Y-51811D01*
X41863Y-51868D01*
X41867Y-51918D01*
X41872Y-51960D01*
X41876Y-51991D01*
X41879Y-52011D01*
X41883Y-52037D01*
X41888Y-52067D01*
X41892Y-52098D01*
X41893Y-52105D01*
X41901Y-52148D01*
X41908Y-52182D01*
X41915Y-52208D01*
X41923Y-52227D01*
X41932Y-52239D01*
X41944Y-52246D01*
X41957Y-52248D01*
X41958Y-52248D01*
X41976Y-52245D01*
X41988Y-52235D01*
X41994Y-52218D01*
X41997Y-52200D01*
X42004Y-52168D01*
X42018Y-52139D01*
X42038Y-52117D01*
X42065Y-52102D01*
X42089Y-52095D01*
X42120Y-52095D01*
X42149Y-52103D01*
X42173Y-52118D01*
X42192Y-52139D01*
X42197Y-52151D01*
X42202Y-52172D01*
X42202Y-52197D01*
X42198Y-52223D01*
X42191Y-52243D01*
X42182Y-52265D01*
X42207Y-52289D01*
X42226Y-52305D01*
X42239Y-52315D01*
X42250Y-52320D01*
X42262Y-52321D01*
X42277Y-52319D01*
X42286Y-52317D01*
X42320Y-52311D01*
X42347Y-52313D01*
X42371Y-52323D01*
X42394Y-52341D01*
X42395Y-52342D01*
X42416Y-52369D01*
X42428Y-52395D01*
X42429Y-52421D01*
X42421Y-52446D01*
X42402Y-52470D01*
X42402Y-52470D01*
X42378Y-52491D01*
X42354Y-52505D01*
X42327Y-52512D01*
X42309Y-52513D01*
X42276Y-52513D01*
X42270Y-52535D01*
X42267Y-52548D01*
X42267Y-52557D01*
X42274Y-52565D01*
X42287Y-52573D01*
X42306Y-52582D01*
X42332Y-52593D01*
X42357Y-52603D01*
X42383Y-52613D01*
X42410Y-52621D01*
X42439Y-52629D01*
X42472Y-52635D01*
X42509Y-52641D01*
X42550Y-52647D01*
X42596Y-52653D01*
X42650Y-52658D01*
X42709Y-52664D01*
X42777Y-52670D01*
X42854Y-52676D01*
X42907Y-52679D01*
X42969Y-52684D01*
X43021Y-52689D01*
X43066Y-52693D01*
X43104Y-52696D01*
X43136Y-52701D01*
X43165Y-52705D01*
X43190Y-52709D01*
X43213Y-52715D01*
X43235Y-52721D01*
X43257Y-52727D01*
X43276Y-52733D01*
X43354Y-52764D01*
X43426Y-52803D01*
X43491Y-52848D01*
X43549Y-52902D01*
X43602Y-52962D01*
X43648Y-53031D01*
X43678Y-53087D01*
X43712Y-53162D01*
X43736Y-53232D01*
X43753Y-53300D01*
X43760Y-53364D01*
X43759Y-53424D01*
X43750Y-53479D01*
X43744Y-53498D01*
X43737Y-53517D01*
X43730Y-53534D01*
X43726Y-53544D01*
X43725Y-53546D01*
X43725Y-53546D01*
X43725Y-53546D01*
G37*
G36*
X27562Y-50763D02*
X27562Y-50767D01*
X27556Y-50775D01*
X27544Y-50789D01*
X27526Y-50808D01*
X27521Y-50813D01*
X27493Y-50841D01*
X27473Y-50866D01*
X27456Y-50886D01*
X27444Y-50909D01*
X27432Y-50932D01*
X27432Y-50934D01*
X27412Y-50992D01*
X27402Y-51051D01*
X27401Y-51110D01*
X27411Y-51169D01*
X27432Y-51229D01*
X27461Y-51289D01*
X27499Y-51349D01*
X27528Y-51390D01*
X27480Y-51402D01*
X27446Y-51410D01*
X27420Y-51418D01*
X27396Y-51427D01*
X27374Y-51439D01*
X27347Y-51453D01*
X27343Y-51456D01*
X27316Y-51474D01*
X27292Y-51492D01*
X27266Y-51516D01*
X27262Y-51521D01*
X27230Y-51555D01*
X27205Y-51588D01*
X27185Y-51624D01*
X27167Y-51666D01*
X27164Y-51677D01*
X27155Y-51704D01*
X27149Y-51726D01*
X27146Y-51747D01*
X27145Y-51772D01*
X27144Y-51794D01*
X27145Y-51823D01*
X27146Y-51847D01*
X27149Y-51868D01*
X27155Y-51889D01*
X27161Y-51907D01*
X27172Y-51933D01*
X27185Y-51961D01*
X27197Y-51986D01*
X27202Y-51995D01*
X27212Y-52012D01*
X27220Y-52026D01*
X27225Y-52035D01*
X27225Y-52037D01*
X27222Y-52040D01*
X27210Y-52044D01*
X27193Y-52048D01*
X27190Y-52048D01*
X27134Y-52063D01*
X27082Y-52085D01*
X27036Y-52114D01*
X26997Y-52148D01*
X26966Y-52188D01*
X26942Y-52232D01*
X26936Y-52250D01*
X26927Y-52285D01*
X26926Y-52325D01*
X26929Y-52364D01*
X26936Y-52394D01*
X26945Y-52420D01*
X26954Y-52442D01*
X26967Y-52462D01*
X26982Y-52482D01*
X27003Y-52505D01*
X27024Y-52527D01*
X27046Y-52549D01*
X27061Y-52566D01*
X27068Y-52576D01*
X27068Y-52578D01*
X27062Y-52575D01*
X27051Y-52568D01*
X27018Y-52551D01*
X26980Y-52539D01*
X26942Y-52533D01*
X26904Y-52535D01*
X26879Y-52541D01*
X26861Y-52548D01*
X26848Y-52556D01*
X26833Y-52567D01*
X26820Y-52580D01*
X26794Y-52610D01*
X26777Y-52643D01*
X26766Y-52681D01*
X26763Y-52696D01*
X26759Y-52730D01*
X26726Y-52731D01*
X26686Y-52737D01*
X26651Y-52749D01*
X26620Y-52768D01*
X26587Y-52796D01*
X26563Y-52828D01*
X26547Y-52862D01*
X26541Y-52897D01*
X26541Y-52909D01*
X26542Y-52925D01*
X26546Y-52938D01*
X26551Y-52955D01*
X26560Y-52974D01*
X26573Y-53000D01*
X26577Y-53008D01*
X26586Y-53025D01*
X26593Y-53041D01*
X26596Y-53051D01*
X26596Y-53053D01*
X26595Y-53056D01*
X26592Y-53051D01*
X26587Y-53044D01*
X26577Y-53031D01*
X26563Y-53015D01*
X26547Y-52996D01*
X26502Y-52952D01*
X26456Y-52917D01*
X26412Y-52892D01*
X26367Y-52877D01*
X26323Y-52871D01*
X26279Y-52877D01*
X26258Y-52882D01*
X26210Y-52904D01*
X26166Y-52933D01*
X26128Y-52970D01*
X26097Y-53015D01*
X26073Y-53066D01*
X26056Y-53122D01*
X26053Y-53133D01*
X26050Y-53154D01*
X26048Y-53172D01*
X26048Y-53183D01*
X26048Y-53194D01*
X26046Y-53200D01*
X26041Y-53199D01*
X26030Y-53194D01*
X26017Y-53184D01*
X25967Y-53157D01*
X25913Y-53138D01*
X25855Y-53126D01*
X25796Y-53124D01*
X25735Y-53128D01*
X25677Y-53141D01*
X25619Y-53162D01*
X25590Y-53177D01*
X25572Y-53188D01*
X25556Y-53199D01*
X25539Y-53213D01*
X25520Y-53232D01*
X25508Y-53244D01*
X25487Y-53264D01*
X25472Y-53281D01*
X25461Y-53295D01*
X25452Y-53310D01*
X25442Y-53327D01*
X25442Y-53328D01*
X25425Y-53369D01*
X25411Y-53412D01*
X25404Y-53454D01*
X25402Y-53464D01*
X25400Y-53480D01*
X25397Y-53487D01*
X25394Y-53487D01*
X25388Y-53482D01*
X25377Y-53472D01*
X25360Y-53459D01*
X25351Y-53450D01*
X25296Y-53407D01*
X25239Y-53374D01*
X25179Y-53351D01*
X25116Y-53337D01*
X25054Y-53333D01*
X25023Y-53334D01*
X24996Y-53338D01*
X24969Y-53345D01*
X24953Y-53350D01*
X24923Y-53361D01*
X24899Y-53372D01*
X24878Y-53384D01*
X24857Y-53399D01*
X24835Y-53418D01*
X24809Y-53443D01*
X24800Y-53452D01*
X24781Y-53471D01*
X24765Y-53486D01*
X24753Y-53498D01*
X24746Y-53503D01*
X24744Y-53504D01*
X24744Y-53498D01*
X24745Y-53484D01*
X24747Y-53464D01*
X24750Y-53438D01*
X24753Y-53410D01*
X24757Y-53382D01*
X24761Y-53353D01*
X24765Y-53327D01*
X24767Y-53314D01*
X24788Y-53214D01*
X24814Y-53123D01*
X24846Y-53039D01*
X24882Y-52963D01*
X24923Y-52895D01*
X24960Y-52846D01*
X25005Y-52800D01*
X25056Y-52761D01*
X25114Y-52728D01*
X25176Y-52701D01*
X25209Y-52691D01*
X25242Y-52681D01*
X25276Y-52672D01*
X25312Y-52665D01*
X25350Y-52659D01*
X25393Y-52653D01*
X25441Y-52648D01*
X25495Y-52644D01*
X25556Y-52641D01*
X25626Y-52637D01*
X25688Y-52635D01*
X25763Y-52632D01*
X25827Y-52629D01*
X25884Y-52625D01*
X25934Y-52621D01*
X25976Y-52616D01*
X26007Y-52612D01*
X26027Y-52609D01*
X26053Y-52605D01*
X26083Y-52600D01*
X26114Y-52596D01*
X26121Y-52595D01*
X26164Y-52587D01*
X26198Y-52580D01*
X26224Y-52573D01*
X26243Y-52565D01*
X26255Y-52556D01*
X26262Y-52544D01*
X26264Y-52531D01*
X26264Y-52530D01*
X26261Y-52512D01*
X26251Y-52500D01*
X26234Y-52494D01*
X26216Y-52491D01*
X26184Y-52484D01*
X26155Y-52470D01*
X26133Y-52450D01*
X26118Y-52423D01*
X26111Y-52399D01*
X26111Y-52368D01*
X26119Y-52339D01*
X26134Y-52315D01*
X26155Y-52296D01*
X26167Y-52291D01*
X26188Y-52286D01*
X26213Y-52286D01*
X26239Y-52290D01*
X26259Y-52297D01*
X26281Y-52306D01*
X26305Y-52281D01*
X26321Y-52262D01*
X26331Y-52249D01*
X26336Y-52238D01*
X26337Y-52226D01*
X26335Y-52211D01*
X26333Y-52202D01*
X26327Y-52168D01*
X26329Y-52141D01*
X26339Y-52117D01*
X26357Y-52094D01*
X26358Y-52093D01*
X26385Y-52072D01*
X26411Y-52060D01*
X26437Y-52059D01*
X26462Y-52067D01*
X26486Y-52086D01*
X26486Y-52086D01*
X26507Y-52110D01*
X26521Y-52134D01*
X26528Y-52161D01*
X26529Y-52179D01*
X26529Y-52212D01*
X26551Y-52218D01*
X26564Y-52221D01*
X26573Y-52221D01*
X26581Y-52214D01*
X26589Y-52201D01*
X26598Y-52182D01*
X26609Y-52156D01*
X26619Y-52131D01*
X26629Y-52105D01*
X26637Y-52078D01*
X26645Y-52049D01*
X26651Y-52016D01*
X26657Y-51979D01*
X26663Y-51938D01*
X26669Y-51892D01*
X26674Y-51838D01*
X26680Y-51779D01*
X26686Y-51711D01*
X26692Y-51634D01*
X26695Y-51581D01*
X26700Y-51519D01*
X26705Y-51467D01*
X26709Y-51422D01*
X26712Y-51384D01*
X26717Y-51352D01*
X26721Y-51323D01*
X26725Y-51298D01*
X26731Y-51275D01*
X26737Y-51253D01*
X26743Y-51231D01*
X26749Y-51212D01*
X26780Y-51134D01*
X26819Y-51062D01*
X26864Y-50997D01*
X26918Y-50939D01*
X26978Y-50886D01*
X27047Y-50840D01*
X27103Y-50810D01*
X27178Y-50776D01*
X27248Y-50752D01*
X27316Y-50735D01*
X27380Y-50728D01*
X27440Y-50729D01*
X27495Y-50738D01*
X27514Y-50744D01*
X27533Y-50751D01*
X27550Y-50758D01*
X27560Y-50762D01*
X27562Y-50763D01*
X27562Y-50763D01*
X27562Y-50763D01*
G37*
G54D11*
X30119Y-40551D02*
X28937Y-40551D01*
X29292Y-40866D02*
X29292Y-40236D01*
X28937Y-41063D02*
X28937Y-40039D01*
X30119Y-41063D02*
X30119Y-40039D01*
X29764Y-40551D02*
X29764Y-40236D01*
X29764Y-40551D02*
X29764Y-40866D01*
X29725Y-40551D02*
X29292Y-40866D01*
X29292Y-40236D02*
X29725Y-40551D01*
X30907Y-41063D02*
X28151Y-41063D01*
X28151Y-41063D02*
X28151Y-40039D01*
X28151Y-40039D02*
X30907Y-40039D01*
X30907Y-40039D02*
X30907Y-41063D01*
X43070Y-44244D02*
X43070Y-50244D01*
X42086Y-50244D02*
X43070Y-50244D01*
X42086Y-44244D02*
X43070Y-44244D01*
X42086Y-50244D02*
X42086Y-44244D01*
X43070Y-44744D02*
X45433Y-44744D01*
X43070Y-45744D02*
X45433Y-45744D01*
X43070Y-46744D02*
X45433Y-46744D01*
X45433Y-47744D02*
X43070Y-47744D01*
X43070Y-48744D02*
X45433Y-48744D01*
X43070Y-49744D02*
X45433Y-49744D01*
X42086Y-45244D02*
X43070Y-45244D01*
X42086Y-46244D02*
X43070Y-46244D01*
X42086Y-49244D02*
X43070Y-49244D01*
X42086Y-48244D02*
X43070Y-48244D01*
X42086Y-47244D02*
X43070Y-47244D01*
X26536Y-44244D02*
X23347Y-44244D01*
X23347Y-44244D02*
X23347Y-50244D01*
X23347Y-50244D02*
X26536Y-50244D01*
X26536Y-44244D02*
X26536Y-50244D01*
G54D14*
X33312Y-47894D02*
X33687Y-47894D01*
X33687Y-47894D02*
X33687Y-46595D01*
X33312Y-46595D02*
X33687Y-46595D01*
X33312Y-47894D02*
X33312Y-46595D01*
X34822Y-47894D02*
X35196Y-47894D01*
X35196Y-47894D02*
X35196Y-46595D01*
X34822Y-46595D02*
X35196Y-46595D01*
X34822Y-47894D02*
X34822Y-46595D01*
G54D15*
X33672Y-46614D02*
X34832Y-46614D01*
X33682Y-47874D02*
X34832Y-47874D01*
G54D11*
X26884Y-55512D02*
X26866Y-55686D01*
X26816Y-55854D01*
X26733Y-56010D01*
X26622Y-56146D01*
X26487Y-56258D01*
X26332Y-56341D01*
X26164Y-56393D01*
X25990Y-56411D01*
X25816Y-56396D01*
X25647Y-56346D01*
X25492Y-56265D01*
X25355Y-56155D01*
X25242Y-56020D01*
X25157Y-55866D01*
X25104Y-55699D01*
X25085Y-55524D01*
X25099Y-55350D01*
X25148Y-55181D01*
X25228Y-55025D01*
X25337Y-54887D01*
X25471Y-54773D01*
X25624Y-54688D01*
X25791Y-54633D01*
X25966Y-54613D01*
X26140Y-54626D01*
X26309Y-54673D01*
X26466Y-54753D01*
X26604Y-54861D01*
X26719Y-54994D01*
X26806Y-55146D01*
X26861Y-55313D01*
X26883Y-55487D01*
X26884Y-55512D01*
X43420Y-55512D02*
X43402Y-55686D01*
X43352Y-55854D01*
X43269Y-56010D01*
X43158Y-56146D01*
X43023Y-56258D01*
X42868Y-56341D01*
X42700Y-56393D01*
X42526Y-56411D01*
X42352Y-56396D01*
X42183Y-56346D01*
X42028Y-56265D01*
X41891Y-56155D01*
X41778Y-56020D01*
X41693Y-55866D01*
X41640Y-55699D01*
X41621Y-55524D01*
X41635Y-55350D01*
X41684Y-55181D01*
X41764Y-55025D01*
X41873Y-54887D01*
X42007Y-54773D01*
X42160Y-54688D01*
X42327Y-54633D01*
X42502Y-54613D01*
X42676Y-54626D01*
X42845Y-54673D01*
X43002Y-54753D01*
X43140Y-54861D01*
X43255Y-54994D01*
X43342Y-55146D01*
X43397Y-55313D01*
X43419Y-55487D01*
X43420Y-55512D01*
X43420Y-38976D02*
X43402Y-39150D01*
X43352Y-39318D01*
X43269Y-39474D01*
X43158Y-39610D01*
X43023Y-39722D01*
X42868Y-39805D01*
X42700Y-39857D01*
X42526Y-39875D01*
X42352Y-39860D01*
X42183Y-39810D01*
X42028Y-39729D01*
X41891Y-39619D01*
X41778Y-39484D01*
X41693Y-39330D01*
X41640Y-39163D01*
X41621Y-38988D01*
X41635Y-38814D01*
X41684Y-38645D01*
X41764Y-38489D01*
X41873Y-38351D01*
X42007Y-38237D01*
X42160Y-38152D01*
X42327Y-38097D01*
X42502Y-38077D01*
X42676Y-38090D01*
X42845Y-38137D01*
X43002Y-38217D01*
X43140Y-38325D01*
X43255Y-38458D01*
X43342Y-38610D01*
X43397Y-38777D01*
X43419Y-38951D01*
X43420Y-38976D01*
X26884Y-38976D02*
X26866Y-39150D01*
X26816Y-39318D01*
X26733Y-39474D01*
X26622Y-39610D01*
X26487Y-39722D01*
X26332Y-39805D01*
X26164Y-39857D01*
X25990Y-39875D01*
X25816Y-39860D01*
X25647Y-39810D01*
X25492Y-39729D01*
X25355Y-39619D01*
X25242Y-39484D01*
X25157Y-39330D01*
X25104Y-39163D01*
X25085Y-38988D01*
X25099Y-38814D01*
X25148Y-38645D01*
X25228Y-38489D01*
X25337Y-38351D01*
X25471Y-38237D01*
X25624Y-38152D01*
X25791Y-38097D01*
X25966Y-38077D01*
X26140Y-38090D01*
X26309Y-38137D01*
X26466Y-38217D01*
X26604Y-38325D01*
X26719Y-38458D01*
X26806Y-38610D01*
X26861Y-38777D01*
X26883Y-38951D01*
X26884Y-38976D01*
G54D14*
X31968Y-43738D02*
X31968Y-43483D01*
X31968Y-43483D02*
X31417Y-43483D01*
X31417Y-43738D02*
X31417Y-43483D01*
X31968Y-43738D02*
X31417Y-43738D01*
X31968Y-44318D02*
X31968Y-44062D01*
X31968Y-44062D02*
X31417Y-44062D01*
X31417Y-44318D02*
X31417Y-44062D01*
X31968Y-44318D02*
X31417Y-44318D01*
X31889Y-43976D02*
X31889Y-43820D01*
X31889Y-43820D02*
X31497Y-43820D01*
X31497Y-43976D02*
X31497Y-43820D01*
X31889Y-43976D02*
X31497Y-43976D01*
G54D10*
X31443Y-44059D02*
X31443Y-43737D01*
X31943Y-44059D02*
X31943Y-43737D01*
G54D16*
X31306Y-44674D02*
X31306Y-43122D01*
X31306Y-43122D02*
X32080Y-43122D01*
X32080Y-43122D02*
X32080Y-44674D01*
X32080Y-44674D02*
X31306Y-44674D01*
G54D11*
X28937Y-47244D02*
X30119Y-47244D01*
X29764Y-46929D02*
X29764Y-47559D01*
X30119Y-46732D02*
X30119Y-47756D01*
X28937Y-46732D02*
X28937Y-47756D01*
X29292Y-47244D02*
X29292Y-47559D01*
X29292Y-47244D02*
X29292Y-46929D01*
X29331Y-47244D02*
X29764Y-46929D01*
X29764Y-47559D02*
X29331Y-47244D01*
X28149Y-46732D02*
X30905Y-46732D01*
X30905Y-46732D02*
X30905Y-47756D01*
X30905Y-47756D02*
X28149Y-47756D01*
X28149Y-47756D02*
X28149Y-46732D01*
X38385Y-47244D02*
X39567Y-47244D01*
X39212Y-46929D02*
X39212Y-47559D01*
X39567Y-46732D02*
X39567Y-47756D01*
X38385Y-46732D02*
X38385Y-47756D01*
X38740Y-47244D02*
X38740Y-47559D01*
X38740Y-47244D02*
X38740Y-46929D01*
X38779Y-47244D02*
X39212Y-46929D01*
X39212Y-47559D02*
X38779Y-47244D01*
X37597Y-46732D02*
X40353Y-46732D01*
X40353Y-46732D02*
X40353Y-47756D01*
X40353Y-47756D02*
X37597Y-47756D01*
X37597Y-47756D02*
X37597Y-46732D01*
X30119Y-53937D02*
X28937Y-53937D01*
X29292Y-54252D02*
X29292Y-53622D01*
X28937Y-54449D02*
X28937Y-53425D01*
X30119Y-54449D02*
X30119Y-53425D01*
X29764Y-53937D02*
X29764Y-53622D01*
X29764Y-53937D02*
X29764Y-54252D01*
X29725Y-53937D02*
X29292Y-54252D01*
X29292Y-53622D02*
X29725Y-53937D01*
X30907Y-54449D02*
X28151Y-54449D01*
X28151Y-54449D02*
X28151Y-53425D01*
X28151Y-53425D02*
X30907Y-53425D01*
X30907Y-53425D02*
X30907Y-54449D01*
X39567Y-53937D02*
X38385Y-53937D01*
X38740Y-54252D02*
X38740Y-53622D01*
X38385Y-54449D02*
X38385Y-53425D01*
X39567Y-54449D02*
X39567Y-53425D01*
X39212Y-53937D02*
X39212Y-53622D01*
X39212Y-53937D02*
X39212Y-54252D01*
X39173Y-53937D02*
X38740Y-54252D01*
X38740Y-53622D02*
X39173Y-53937D01*
X40355Y-54449D02*
X37599Y-54449D01*
X37599Y-54449D02*
X37599Y-53425D01*
X37599Y-53425D02*
X40355Y-53425D01*
X40355Y-53425D02*
X40355Y-54449D01*
X39567Y-40551D02*
X38385Y-40551D01*
X38740Y-40866D02*
X38740Y-40236D01*
X38385Y-41063D02*
X38385Y-40039D01*
X39567Y-41063D02*
X39567Y-40039D01*
X39212Y-40551D02*
X39212Y-40236D01*
X39212Y-40551D02*
X39212Y-40866D01*
X39173Y-40551D02*
X38740Y-40866D01*
X38740Y-40236D02*
X39173Y-40551D01*
X40355Y-41063D02*
X37599Y-41063D01*
X37599Y-41063D02*
X37599Y-40039D01*
X37599Y-40039D02*
X40355Y-40039D01*
X40355Y-40039D02*
X40355Y-41063D01*
X32717Y-44804D02*
X32717Y-45000D01*
X32717Y-45000D02*
X33583Y-45000D01*
X33583Y-45000D02*
X33583Y-44804D01*
X32717Y-42992D02*
X32717Y-42796D01*
X32717Y-42796D02*
X33583Y-42796D01*
X33583Y-42796D02*
X33583Y-42992D01*
X33150Y-44134D02*
X33150Y-44804D01*
X32599Y-43622D02*
X33701Y-43622D01*
X33150Y-43544D02*
X33150Y-42992D01*
X33150Y-43584D02*
X32599Y-44135D01*
X32599Y-44134D02*
X33701Y-44134D01*
X33701Y-44134D02*
X33150Y-43583D01*
X32363Y-44804D02*
X32363Y-42992D01*
X32363Y-42992D02*
X33937Y-42992D01*
X33937Y-42992D02*
X33937Y-44804D01*
X33937Y-44804D02*
X32363Y-44804D01*
G54D14*
X25555Y-41624D02*
X25850Y-41624D01*
X25850Y-41624D02*
X25850Y-41054D01*
X25555Y-41054D02*
X25850Y-41054D01*
X25555Y-41624D02*
X25555Y-41054D01*
X26124Y-41624D02*
X26419Y-41624D01*
X26419Y-41624D02*
X26419Y-41054D01*
X26124Y-41054D02*
X26419Y-41054D01*
X26124Y-41624D02*
X26124Y-41054D01*
X25945Y-41496D02*
X26023Y-41496D01*
X26023Y-41496D02*
X26023Y-41182D01*
X25945Y-41182D02*
X26023Y-41182D01*
X25945Y-41496D02*
X25945Y-41182D01*
G54D16*
X25208Y-40952D02*
X26760Y-40952D01*
X26760Y-41726D02*
X25208Y-41726D01*
X25208Y-41726D02*
X25208Y-40952D01*
G54D15*
X25834Y-41080D02*
X26134Y-41080D01*
X25844Y-41598D02*
X26134Y-41598D01*
G54D16*
X26760Y-40952D02*
X26760Y-41726D01*
G54D14*
X25555Y-42706D02*
X25850Y-42706D01*
X25850Y-42706D02*
X25850Y-42136D01*
X25555Y-42136D02*
X25850Y-42136D01*
X25555Y-42706D02*
X25555Y-42136D01*
X26124Y-42706D02*
X26419Y-42706D01*
X26419Y-42706D02*
X26419Y-42136D01*
X26124Y-42136D02*
X26419Y-42136D01*
X26124Y-42706D02*
X26124Y-42136D01*
X25945Y-42578D02*
X26023Y-42578D01*
X26023Y-42578D02*
X26023Y-42264D01*
X25945Y-42264D02*
X26023Y-42264D01*
X25945Y-42578D02*
X25945Y-42264D01*
G54D16*
X25208Y-42034D02*
X26760Y-42034D01*
X26760Y-42808D02*
X25208Y-42808D01*
X25208Y-42808D02*
X25208Y-42034D01*
G54D15*
X25834Y-42162D02*
X26134Y-42162D01*
X25844Y-42680D02*
X26134Y-42680D01*
G54D16*
X26760Y-42034D02*
X26760Y-42808D01*
G54D14*
X42091Y-41624D02*
X42386Y-41624D01*
X42386Y-41624D02*
X42386Y-41054D01*
X42091Y-41054D02*
X42386Y-41054D01*
X42091Y-41624D02*
X42091Y-41054D01*
X42660Y-41624D02*
X42955Y-41624D01*
X42955Y-41624D02*
X42955Y-41054D01*
X42660Y-41054D02*
X42955Y-41054D01*
X42660Y-41624D02*
X42660Y-41054D01*
X42481Y-41496D02*
X42559Y-41496D01*
X42559Y-41496D02*
X42559Y-41182D01*
X42481Y-41182D02*
X42559Y-41182D01*
X42481Y-41496D02*
X42481Y-41182D01*
G54D16*
X41744Y-40952D02*
X43296Y-40952D01*
X43296Y-41726D02*
X41744Y-41726D01*
X41744Y-41726D02*
X41744Y-40952D01*
G54D15*
X42370Y-41080D02*
X42670Y-41080D01*
X42380Y-41598D02*
X42670Y-41598D01*
G54D16*
X43296Y-40952D02*
X43296Y-41726D01*
G54D14*
X42091Y-42706D02*
X42386Y-42706D01*
X42386Y-42706D02*
X42386Y-42136D01*
X42091Y-42136D02*
X42386Y-42136D01*
X42091Y-42706D02*
X42091Y-42136D01*
X42660Y-42706D02*
X42955Y-42706D01*
X42955Y-42706D02*
X42955Y-42136D01*
X42660Y-42136D02*
X42955Y-42136D01*
X42660Y-42706D02*
X42660Y-42136D01*
X42481Y-42578D02*
X42559Y-42578D01*
X42559Y-42578D02*
X42559Y-42264D01*
X42481Y-42264D02*
X42559Y-42264D01*
X42481Y-42578D02*
X42481Y-42264D01*
G54D16*
X41744Y-42034D02*
X43296Y-42034D01*
X43296Y-42808D02*
X41744Y-42808D01*
X41744Y-42808D02*
X41744Y-42034D01*
G54D15*
X42370Y-42162D02*
X42670Y-42162D01*
X42380Y-42680D02*
X42670Y-42680D01*
G54D16*
X43296Y-42034D02*
X43296Y-42808D01*
G54D14*
X34527Y-42422D02*
X34823Y-42422D01*
X34823Y-42422D02*
X34823Y-41753D01*
X34527Y-41753D02*
X34823Y-41753D01*
X34527Y-42422D02*
X34527Y-41753D01*
X35571Y-42421D02*
X35867Y-42421D01*
X35867Y-42421D02*
X35867Y-41752D01*
X35571Y-41752D02*
X35867Y-41752D01*
X35571Y-42421D02*
X35571Y-41752D01*
X35119Y-42244D02*
X35275Y-42244D01*
X35275Y-42244D02*
X35275Y-41930D01*
X35119Y-41930D02*
X35275Y-41930D01*
X35119Y-42244D02*
X35119Y-41930D01*
G54D16*
X34224Y-41700D02*
X36170Y-41700D01*
X36170Y-42474D02*
X34224Y-42474D01*
X34224Y-42474D02*
X34224Y-41700D01*
X36170Y-41700D02*
X36170Y-42474D01*
G54D15*
X34818Y-41778D02*
X35576Y-41778D01*
X34818Y-42396D02*
X35576Y-42396D01*
G54D14*
X37555Y-44203D02*
X37260Y-44203D01*
X37260Y-44203D02*
X37260Y-44773D01*
X37555Y-44773D02*
X37260Y-44773D01*
X37555Y-44203D02*
X37555Y-44773D01*
X36986Y-44203D02*
X36691Y-44203D01*
X36691Y-44203D02*
X36691Y-44773D01*
X36986Y-44773D02*
X36691Y-44773D01*
X36986Y-44203D02*
X36986Y-44773D01*
X37165Y-44331D02*
X37087Y-44331D01*
X37087Y-44331D02*
X37087Y-44645D01*
X37165Y-44645D02*
X37087Y-44645D01*
X37165Y-44331D02*
X37165Y-44645D01*
G54D16*
X37902Y-44875D02*
X36350Y-44875D01*
X36350Y-44101D02*
X37902Y-44101D01*
X37902Y-44101D02*
X37902Y-44875D01*
G54D15*
X37276Y-44747D02*
X36976Y-44747D01*
X37266Y-44229D02*
X36976Y-44229D01*
G54D16*
X36350Y-44875D02*
X36350Y-44101D01*
G54D14*
X36966Y-43386D02*
X36711Y-43386D01*
X36711Y-43386D02*
X36711Y-43937D01*
X36966Y-43937D02*
X36711Y-43937D01*
X36966Y-43386D02*
X36966Y-43937D01*
X37546Y-43386D02*
X37290Y-43386D01*
X37290Y-43386D02*
X37290Y-43937D01*
X37546Y-43937D02*
X37290Y-43937D01*
X37546Y-43386D02*
X37546Y-43937D01*
X37204Y-43465D02*
X37048Y-43465D01*
X37048Y-43465D02*
X37048Y-43857D01*
X37204Y-43857D02*
X37048Y-43857D01*
X37204Y-43465D02*
X37204Y-43857D01*
G54D10*
X37287Y-43911D02*
X36965Y-43911D01*
X37287Y-43411D02*
X36965Y-43411D01*
G54D16*
X37902Y-44048D02*
X36350Y-44048D01*
X36350Y-44048D02*
X36350Y-43274D01*
X36350Y-43274D02*
X37902Y-43274D01*
X37902Y-43274D02*
X37902Y-44048D01*
G54D14*
X39060Y-43178D02*
X39060Y-43358D01*
X39060Y-43358D02*
X39289Y-43358D01*
X39289Y-43178D02*
X39289Y-43358D01*
X39060Y-43178D02*
X39289Y-43178D01*
X38271Y-43548D02*
X38271Y-43728D01*
X38271Y-43728D02*
X38500Y-43728D01*
X38500Y-43548D02*
X38500Y-43728D01*
X38271Y-43548D02*
X38500Y-43548D01*
X38271Y-42808D02*
X38271Y-42988D01*
X38271Y-42988D02*
X38500Y-42988D01*
X38500Y-42808D02*
X38500Y-42988D01*
X38271Y-42808D02*
X38500Y-42808D01*
X38662Y-43072D02*
X38662Y-43464D01*
X38662Y-43464D02*
X38898Y-43464D01*
X38898Y-43072D02*
X38898Y-43464D01*
X38662Y-43072D02*
X38898Y-43072D01*
G54D16*
X39560Y-42492D02*
X39560Y-44044D01*
X38000Y-44044D02*
X38000Y-42492D01*
X38000Y-42492D02*
X39560Y-42492D01*
X39560Y-44044D02*
X38000Y-44044D01*
G54D10*
X39039Y-43827D02*
X38521Y-43827D01*
X38521Y-43827D02*
X38521Y-42709D01*
X38521Y-42709D02*
X39039Y-42709D01*
X39039Y-42709D02*
X39039Y-43827D01*
G54D14*
X38620Y-44213D02*
X38365Y-44213D01*
X38365Y-44213D02*
X38365Y-44764D01*
X38620Y-44764D02*
X38365Y-44764D01*
X38620Y-44213D02*
X38620Y-44764D01*
X39200Y-44213D02*
X38944Y-44213D01*
X38944Y-44213D02*
X38944Y-44764D01*
X39200Y-44764D02*
X38944Y-44764D01*
X39200Y-44213D02*
X39200Y-44764D01*
X38858Y-44292D02*
X38702Y-44292D01*
X38702Y-44292D02*
X38702Y-44684D01*
X38858Y-44684D02*
X38702Y-44684D01*
X38858Y-44292D02*
X38858Y-44684D01*
G54D10*
X38941Y-44738D02*
X38619Y-44738D01*
X38941Y-44238D02*
X38619Y-44238D01*
G54D16*
X39556Y-44875D02*
X38004Y-44875D01*
X38004Y-44875D02*
X38004Y-44101D01*
X38004Y-44101D02*
X39556Y-44101D01*
X39556Y-44101D02*
X39556Y-44875D01*
G54D12*
X34931Y-45589D02*
X34931Y-45913D01*
X34950Y-45951D01*
X34969Y-45970D01*
X35007Y-45989D01*
X35084Y-45989D01*
X35122Y-45970D01*
X35141Y-45951D01*
X35160Y-45913D01*
X35160Y-45589D01*
X35560Y-45989D02*
X35331Y-45989D01*
X35445Y-45989D02*
X35445Y-45589D01*
X35407Y-45646D01*
X35369Y-45684D01*
X35331Y-45703D01*
X34186Y-48784D02*
X33995Y-48784D01*
X33995Y-48384D01*
X34529Y-48784D02*
X34300Y-48784D01*
X34414Y-48784D02*
X34414Y-48384D01*
X34376Y-48441D01*
X34338Y-48479D01*
X34300Y-48498D01*
X30871Y-44507D02*
X30680Y-44641D01*
X30871Y-44736D02*
X30471Y-44736D01*
X30471Y-44583D01*
X30490Y-44545D01*
X30509Y-44526D01*
X30547Y-44507D01*
X30604Y-44507D01*
X30642Y-44526D01*
X30661Y-44545D01*
X30680Y-44583D01*
X30680Y-44736D01*
X30909Y-44431D02*
X30909Y-44126D01*
X30833Y-43802D02*
X30852Y-43821D01*
X30871Y-43878D01*
X30871Y-43916D01*
X30852Y-43974D01*
X30814Y-44012D01*
X30776Y-44031D01*
X30699Y-44050D01*
X30642Y-44050D01*
X30566Y-44031D01*
X30528Y-44012D01*
X30490Y-43974D01*
X30471Y-43916D01*
X30471Y-43878D01*
X30490Y-43821D01*
X30509Y-43802D01*
X30852Y-43650D02*
X30871Y-43593D01*
X30871Y-43497D01*
X30852Y-43459D01*
X30833Y-43440D01*
X30795Y-43421D01*
X30757Y-43421D01*
X30719Y-43440D01*
X30699Y-43459D01*
X30680Y-43497D01*
X30661Y-43574D01*
X30642Y-43612D01*
X30623Y-43631D01*
X30585Y-43650D01*
X30547Y-43650D01*
X30509Y-43631D01*
X30490Y-43612D01*
X30471Y-43574D01*
X30471Y-43478D01*
X30490Y-43421D01*
X30871Y-43040D02*
X30871Y-43269D01*
X30871Y-43155D02*
X30471Y-43155D01*
X30528Y-43193D01*
X30566Y-43231D01*
X30585Y-43269D01*
X32664Y-42091D02*
X32664Y-41691D01*
X32759Y-41691D01*
X32817Y-41710D01*
X32855Y-41748D01*
X32874Y-41786D01*
X32893Y-41862D01*
X32893Y-41919D01*
X32874Y-41996D01*
X32855Y-42034D01*
X32817Y-42072D01*
X32759Y-42091D01*
X32664Y-42091D01*
X33045Y-42072D02*
X33102Y-42091D01*
X33198Y-42091D01*
X33236Y-42072D01*
X33255Y-42053D01*
X33274Y-42015D01*
X33274Y-41977D01*
X33255Y-41939D01*
X33236Y-41919D01*
X33198Y-41900D01*
X33121Y-41881D01*
X33083Y-41862D01*
X33064Y-41843D01*
X33045Y-41805D01*
X33045Y-41767D01*
X33064Y-41729D01*
X33083Y-41710D01*
X33121Y-41691D01*
X33217Y-41691D01*
X33274Y-41710D01*
X33655Y-42091D02*
X33426Y-42091D01*
X33540Y-42091D02*
X33540Y-41691D01*
X33502Y-41748D01*
X33464Y-41786D01*
X33426Y-41805D01*
X27099Y-41463D02*
X27080Y-41482D01*
X27023Y-41501D01*
X26985Y-41501D01*
X26927Y-41482D01*
X26889Y-41444D01*
X26870Y-41406D01*
X26851Y-41329D01*
X26851Y-41272D01*
X26870Y-41196D01*
X26889Y-41158D01*
X26927Y-41120D01*
X26985Y-41101D01*
X27023Y-41101D01*
X27080Y-41120D01*
X27099Y-41139D01*
X27251Y-41139D02*
X27270Y-41120D01*
X27308Y-41101D01*
X27404Y-41101D01*
X27442Y-41120D01*
X27461Y-41139D01*
X27480Y-41177D01*
X27480Y-41215D01*
X27461Y-41272D01*
X27232Y-41501D01*
X27480Y-41501D01*
X27099Y-42545D02*
X27080Y-42564D01*
X27023Y-42583D01*
X26985Y-42583D01*
X26927Y-42564D01*
X26889Y-42526D01*
X26870Y-42488D01*
X26851Y-42411D01*
X26851Y-42354D01*
X26870Y-42278D01*
X26889Y-42240D01*
X26927Y-42202D01*
X26985Y-42183D01*
X27023Y-42183D01*
X27080Y-42202D01*
X27099Y-42221D01*
X27232Y-42183D02*
X27480Y-42183D01*
X27346Y-42335D01*
X27404Y-42335D01*
X27442Y-42354D01*
X27461Y-42373D01*
X27480Y-42411D01*
X27480Y-42507D01*
X27461Y-42545D01*
X27442Y-42564D01*
X27404Y-42583D01*
X27289Y-42583D01*
X27251Y-42564D01*
X27232Y-42545D01*
X41273Y-41463D02*
X41254Y-41482D01*
X41197Y-41501D01*
X41159Y-41501D01*
X41101Y-41482D01*
X41063Y-41444D01*
X41044Y-41406D01*
X41025Y-41329D01*
X41025Y-41272D01*
X41044Y-41196D01*
X41063Y-41158D01*
X41101Y-41120D01*
X41159Y-41101D01*
X41197Y-41101D01*
X41254Y-41120D01*
X41273Y-41139D01*
X41616Y-41234D02*
X41616Y-41501D01*
X41520Y-41082D02*
X41425Y-41368D01*
X41673Y-41368D01*
X41273Y-42545D02*
X41254Y-42564D01*
X41197Y-42583D01*
X41159Y-42583D01*
X41101Y-42564D01*
X41063Y-42526D01*
X41044Y-42488D01*
X41025Y-42411D01*
X41025Y-42354D01*
X41044Y-42278D01*
X41063Y-42240D01*
X41101Y-42202D01*
X41159Y-42183D01*
X41197Y-42183D01*
X41254Y-42202D01*
X41273Y-42221D01*
X41635Y-42183D02*
X41444Y-42183D01*
X41425Y-42373D01*
X41444Y-42354D01*
X41482Y-42335D01*
X41578Y-42335D01*
X41616Y-42354D01*
X41635Y-42373D01*
X41654Y-42411D01*
X41654Y-42507D01*
X41635Y-42545D01*
X41616Y-42564D01*
X41578Y-42583D01*
X41482Y-42583D01*
X41444Y-42564D01*
X41425Y-42545D01*
X36588Y-42211D02*
X36569Y-42230D01*
X36512Y-42249D01*
X36474Y-42249D01*
X36416Y-42230D01*
X36378Y-42192D01*
X36359Y-42154D01*
X36340Y-42077D01*
X36340Y-42020D01*
X36359Y-41944D01*
X36378Y-41906D01*
X36416Y-41868D01*
X36474Y-41849D01*
X36512Y-41849D01*
X36569Y-41868D01*
X36588Y-41887D01*
X36969Y-42249D02*
X36740Y-42249D01*
X36854Y-42249D02*
X36854Y-41849D01*
X36816Y-41906D01*
X36778Y-41944D01*
X36740Y-41963D01*
X37060Y-45400D02*
X37041Y-45419D01*
X36984Y-45438D01*
X36946Y-45438D01*
X36888Y-45419D01*
X36850Y-45381D01*
X36831Y-45343D01*
X36812Y-45266D01*
X36812Y-45209D01*
X36831Y-45133D01*
X36850Y-45095D01*
X36888Y-45057D01*
X36946Y-45038D01*
X36984Y-45038D01*
X37041Y-45057D01*
X37060Y-45076D01*
X37403Y-45038D02*
X37326Y-45038D01*
X37288Y-45057D01*
X37269Y-45076D01*
X37231Y-45133D01*
X37212Y-45209D01*
X37212Y-45362D01*
X37231Y-45400D01*
X37250Y-45419D01*
X37288Y-45438D01*
X37365Y-45438D01*
X37403Y-45419D01*
X37422Y-45400D01*
X37441Y-45362D01*
X37441Y-45266D01*
X37422Y-45228D01*
X37403Y-45209D01*
X37365Y-45190D01*
X37288Y-45190D01*
X37250Y-45209D01*
X37231Y-45228D01*
X37212Y-45266D01*
X37060Y-43154D02*
X36926Y-42963D01*
X36831Y-43154D02*
X36831Y-42754D01*
X36984Y-42754D01*
X37022Y-42773D01*
X37041Y-42792D01*
X37060Y-42830D01*
X37060Y-42887D01*
X37041Y-42925D01*
X37022Y-42944D01*
X36984Y-42963D01*
X36831Y-42963D01*
X37441Y-43154D02*
X37212Y-43154D01*
X37326Y-43154D02*
X37326Y-42754D01*
X37288Y-42811D01*
X37250Y-42849D01*
X37212Y-42868D01*
X39711Y-43430D02*
X39711Y-43030D01*
X39806Y-43030D01*
X39864Y-43049D01*
X39902Y-43087D01*
X39921Y-43125D01*
X39940Y-43201D01*
X39940Y-43258D01*
X39921Y-43335D01*
X39902Y-43373D01*
X39864Y-43411D01*
X39806Y-43430D01*
X39711Y-43430D01*
X40073Y-43030D02*
X40340Y-43030D01*
X40073Y-43430D01*
X40340Y-43430D01*
X40702Y-43430D02*
X40473Y-43430D01*
X40587Y-43430D02*
X40587Y-43030D01*
X40549Y-43087D01*
X40511Y-43125D01*
X40473Y-43144D01*
X39934Y-44650D02*
X39800Y-44459D01*
X39705Y-44650D02*
X39705Y-44250D01*
X39858Y-44250D01*
X39896Y-44269D01*
X39915Y-44288D01*
X39934Y-44326D01*
X39934Y-44383D01*
X39915Y-44421D01*
X39896Y-44440D01*
X39858Y-44459D01*
X39705Y-44459D01*
X40086Y-44288D02*
X40105Y-44269D01*
X40143Y-44250D01*
X40239Y-44250D01*
X40277Y-44269D01*
X40296Y-44288D01*
X40315Y-44326D01*
X40315Y-44364D01*
X40296Y-44421D01*
X40067Y-44650D01*
X40315Y-44650D01*
%LPC*%
G54D17*
X34645Y-44804D03*
G54D18*
X35236Y-44686D03*
G54D17*
X35827Y-44804D03*
X35827Y-43308D03*
X34645Y-43308D03*
G54D19*
X35236Y-43662D03*
G54D20*
X35039Y-44174D03*
X35433Y-44174D03*
X35433Y-43780D03*
X35039Y-43780D03*
X35236Y-43977D03*
G54D21*
X30399Y-40551D03*
X28666Y-40551D03*
G54D22*
X29103Y-40551D03*
G54D23*
X29764Y-40551D03*
G54D24*
X41535Y-47744D03*
X41535Y-46744D03*
X41535Y-48744D03*
X41535Y-49744D03*
X41535Y-45744D03*
X41535Y-44744D03*
X26969Y-46744D03*
X26969Y-47744D03*
X26969Y-45744D03*
X26969Y-44744D03*
X26969Y-48744D03*
X26969Y-49744D03*
G54D25*
X33485Y-47244D03*
X35019Y-47244D03*
G54D26*
X25984Y-55512D03*
X42520Y-55512D03*
X42520Y-38976D03*
X25984Y-38976D03*
G54D27*
X31693Y-44272D03*
X31693Y-43524D03*
G54D21*
X28657Y-47244D03*
X30390Y-47244D03*
G54D22*
X29953Y-47244D03*
G54D23*
X29292Y-47244D03*
G54D21*
X38105Y-47244D03*
X39838Y-47244D03*
G54D22*
X39401Y-47244D03*
G54D23*
X38740Y-47244D03*
G54D21*
X30399Y-53937D03*
X28666Y-53937D03*
G54D22*
X29103Y-53937D03*
G54D23*
X29764Y-53937D03*
G54D21*
X39847Y-53937D03*
X38114Y-53937D03*
G54D22*
X38551Y-53937D03*
G54D23*
X39212Y-53937D03*
G54D21*
X39847Y-40551D03*
X38114Y-40551D03*
G54D22*
X38551Y-40551D03*
G54D23*
X39212Y-40551D03*
G54D28*
X33150Y-44882D03*
X33150Y-42914D03*
G54D29*
X25610Y-41339D03*
X26358Y-41339D03*
X25610Y-42421D03*
X26358Y-42421D03*
X42146Y-41339D03*
X42894Y-41339D03*
X42146Y-42421D03*
X42894Y-42421D03*
G54D30*
X34646Y-42087D03*
X35748Y-42087D03*
G54D29*
X37500Y-44488D03*
X36752Y-44488D03*
X37500Y-43661D03*
X36752Y-43661D03*
G54D31*
X38347Y-42894D03*
X38347Y-43642D03*
X39213Y-43268D03*
G54D29*
X39154Y-44488D03*
X38406Y-44488D03*
M02*
