%FSLAX46Y46*%
G04 Gerber Fmt 4.6, Leading zero omitted, Abs format (unit mm)*
G04 Created by KiCad (PCBNEW (2014-09-13 BZR 5129)-product) date Sat 13 Sep 2014 09:07:37 PM CEST*
%MOMM*%
G01*
G04 APERTURE LIST*
%ADD10C,0.150000*%
%ADD11R,0.701040X1.600200*%
%ADD12R,1.000760X2.199640*%
%ADD13R,1.800860X3.401060*%
%ADD14R,0.635000X0.635000*%
%ADD15R,2.300000X1.530000*%
%ADD16R,3.150000X0.700000*%
%ADD17R,2.300000X0.580000*%
%ADD18R,1.498600X1.297940*%
%ADD19C,1.651000*%
%ADD20C,3.000000*%
%ADD21R,1.800000X1.800000*%
%ADD22R,1.297940X1.498600*%
%ADD23R,1.000000X1.400000*%
%ADD24R,0.800000X1.000000*%
%ADD25R,1.800860X1.597660*%
%ADD26R,2.499360X4.500880*%
G04 APERTURE END LIST*
D10*
D11*
X85498860Y-113399920D03*
D12*
X87000000Y-113100200D03*
D11*
X88501140Y-113399920D03*
X88501140Y-109600080D03*
X85498860Y-109600080D03*
D13*
X87000000Y-110499240D03*
D14*
X86499620Y-111599060D03*
X87500380Y-111599060D03*
X87398780Y-110798960D03*
X86601220Y-110798960D03*
X87000000Y-111299340D03*
X87000000Y-111799720D03*
D15*
X75001120Y-119369760D03*
D16*
X75001120Y-118309760D03*
D17*
X75001120Y-121099760D03*
D16*
X75001120Y-121679760D03*
D18*
X96750000Y-113449960D03*
X96750000Y-111550040D03*
D19*
X105498900Y-121269760D03*
X105498900Y-118729760D03*
X105498900Y-123809760D03*
X105498900Y-126349760D03*
X105498900Y-116189760D03*
X105498900Y-113649760D03*
D20*
X108000800Y-98999040D03*
X65999360Y-141000480D03*
X108000800Y-141000480D03*
X65999360Y-98999040D03*
D21*
X82850000Y-113100000D03*
X82850000Y-109700000D03*
D22*
X86050040Y-106500000D03*
X87949960Y-106500000D03*
D23*
X91633000Y-109177000D03*
D24*
X93533000Y-109177000D03*
D23*
X92583000Y-106977000D03*
D22*
X107050840Y-107749340D03*
X108950760Y-107749340D03*
X107050840Y-105001060D03*
X108950760Y-105001060D03*
X65049400Y-107749340D03*
X66949320Y-107749340D03*
X65049400Y-105001060D03*
X66949320Y-105001060D03*
D15*
X75001120Y-136369980D03*
D16*
X75001120Y-135309980D03*
D17*
X75001120Y-138099980D03*
D16*
X75001120Y-138679980D03*
D15*
X98999040Y-103629540D03*
D16*
X98999040Y-104689540D03*
D17*
X98999040Y-101899540D03*
D16*
X98999040Y-101319540D03*
D15*
X98999040Y-137629980D03*
D16*
X98999040Y-138689980D03*
D17*
X98999040Y-135899980D03*
D16*
X98999040Y-135319980D03*
D15*
X98999040Y-120629760D03*
D16*
X98999040Y-121689760D03*
D17*
X98999040Y-118899760D03*
D16*
X98999040Y-118319760D03*
D15*
X75001120Y-102369540D03*
D16*
X75001120Y-101309540D03*
D17*
X75001120Y-104099540D03*
D16*
X75001120Y-104679540D03*
D18*
X93853000Y-113471960D03*
X93853000Y-111572040D03*
X91313000Y-113471960D03*
X91313000Y-111572040D03*
D25*
X73500000Y-112819860D03*
X73500000Y-109980140D03*
X76500000Y-112819860D03*
X76500000Y-109980140D03*
D19*
X68501260Y-118729760D03*
X68501260Y-121269760D03*
X68501260Y-116189760D03*
X68501260Y-113649760D03*
X68501260Y-123809760D03*
X68501260Y-126349760D03*
D26*
X88948260Y-119999760D03*
X85051900Y-119999760D03*
M02*
