M48
METRIC,TZ
T1C0.330
T2C1.016
T3C3.048
%
G90
G05
T1
X066949Y-105001
X066949Y-107749
X086500Y-111599
X086601Y-110799
X087000Y-111299
X087000Y-111800
X087399Y-110799
X087500Y-111599
X088400Y-106500
X091313Y-111572
X091633Y-109177
X093853Y-111572
X093950Y-126350
X108951Y-105001
X108951Y-107749
T2
X068501Y-113650
X068501Y-116190
X068501Y-118730
X068501Y-121270
X068501Y-123810
X068501Y-126350
X105499Y-113650
X105499Y-116190
X105499Y-118730
X105499Y-121270
X105499Y-123810
X105499Y-126350
T3
X065999Y-098999
X065999Y-141000
X108001Y-098999
X108001Y-141000
T0
M30
